<svg xmlns="http://www.w3.org/2000/svg" width="512" height="512" data-name="Filled cutting cutting Ex" viewBox="0 0 512 512"><path fill="#e4f7fb" d="M16 16h480v480H16z"/><path fill="#fac850" d="M282.325 67.442 272 64s-8.954-8-20-8h-44v20a20 20 0 0 0 20 20h68v-9.585a20 20 0 0 0-13.675-18.973"/><path fill="#79d8eb" d="M16.043 296H496v32H16.043z"/><path fill="#fa5d3f" d="M116.58 243.652 96 256l-20.58-12.348a40 40 0 0 1-19.42-34.3V208h80v1.352a40 40 0 0 1-19.42 34.3m320 0L416 256l-20.58-12.348a40 40 0 0 1-19.42-34.3V208h80v1.352a40 40 0 0 1-19.42 34.3"/><path fill="#fff9f8" d="m176 296-8-81.07a10 10 0 0 1 6.489-9.363L232 184h48l57.511 21.567A10 10 0 0 1 344 214.93L336 296z"/><path fill="#ffd4cf" d="m280 184-24 32-24-32 8-24h32zm8-88h-64v44a20 20 0 0 0 20 20h24a20 20 0 0 0 20-20z"/><path fill="#79d8eb" d="M88 168H40V96l8-16h32l8 16zm80 0h-48v-40l8-16h32l8 16zm256 0h48V96l-8-16h-32l-8 16zm-80 0h48v-40l-8-16h-32l-8 16z"/><path fill="#fa5d3f" d="m200 200 8 48v48h96v-56l8-40-32-16-24 32-24-32z"/><path fill="#fac850" d="m144 384-48 16-48-16v-14a10 10 0 0 1 10-10h76a10 10 0 0 1 10 10zm160 0-48 16-48-16v-14a10 10 0 0 1 10-10h76a10 10 0 0 1 10 10zm160 0-48 16-48-16v-14a10 10 0 0 1 10-10h76a10 10 0 0 1 10 10z"/><path d="m424 260.529 16.7-10.017a48.24 48.24 0 0 0 23.3-41.159V208a8 8 0 0 0-8-8h-80a8 8 0 0 0-8 8v1.353a48.24 48.24 0 0 0 23.305 41.159L408 260.529V288h-63.172l7.133-72.284a8 8 0 0 0 .039-.786 18.08 18.08 0 0 0-11.68-16.854l-53.938-20.227-4.511-13.533A28.02 28.02 0 0 0 296 140v-36a8 8 0 0 0 8-8v-9.585a27.96 27.96 0 0 0-19.146-26.563l-10.324-3.441a8 8 0 0 0-2.941-.4A27.9 27.9 0 0 0 252 48h-44a8 8 0 0 0-8 8v20a28.04 28.04 0 0 0 16 25.3V140a28.02 28.02 0 0 0 14.129 24.316l-4.511 13.533-53.938 20.227A18.08 18.08 0 0 0 160 214.93q0 .394.039.786L167.172 288H104v-27.471l16.7-10.017a48.24 48.24 0 0 0 23.3-41.159V208a8 8 0 0 0-8-8H56a8 8 0 0 0-8 8v1.353a48.24 48.24 0 0 0 23.305 41.159L88 260.529V288H16v16h480v-16h-72zM384.708 216h62.584a32.18 32.18 0 0 1-14.828 20.792L416 246.67l-16.463-9.878A32.18 32.18 0 0 1 384.708 216m-320 0h62.584a32.18 32.18 0 0 1-14.828 20.792L96 246.67l-16.463-9.878A32.18 32.18 0 0 1 64.708 216m176.207-33.447L245.766 168h20.468l4.851 14.553L256 202.667zM280 140a12.013 12.013 0 0 1-12 12h-24a12.013 12.013 0 0 1-12-12v-36h48zm0-64.9a11.985 11.985 0 0 1 8 11.314V88h-8zM216 64h36a12.013 12.013 0 0 1 12 12v12h-36a12.013 12.013 0 0 1-12-12zm-39.985 150.688a2.01 2.01 0 0 1 1.283-1.63l15.782-5.919 6.92 41.523V288h-16.75zM216 288v-40a8 8 0 0 0-.109-1.315l-7.029-42.172 20.744-10.372L249.6 220.8a8 8 0 0 0 12.8 0l19.994-26.659 20.563 10.282-6.8 34.008A8 8 0 0 0 296 240v48zm96 0v-47.208l6.744-33.719 15.959 5.985a2.01 2.01 0 0 1 1.282 1.63L328.75 288zm112 32h72v16h-72zm-408 0h392v16H16zM72 16h424v16H72zm-56 0h40v16H16z"/><path d="M200 176v-16h-24v-32a8 8 0 0 0-.845-3.578l-8-16A8 8 0 0 0 160 104h-8V88h-16v16h-8a8 8 0 0 0-7.155 4.422l-8 16A8 8 0 0 0 112 128v32H96V96a8 8 0 0 0-.845-3.578l-8-16A8 8 0 0 0 80 72h-8V48H56v24h-8a8 8 0 0 0-7.155 4.422l-8 16A8 8 0 0 0 32 96v64H16v16zm-72-46.111 4.944-9.889h22.112l4.944 9.889V160h-32zm-80-32L52.944 88h22.112L80 97.889V160H48zM481.186 95.3a8 8 0 0 0-.845-3.577l-8-16a8 8 0 0 0-7.155-4.423H456V48h-16v23.3h-6.814a8 8 0 0 0-7.155 4.423l-8 16a8 8 0 0 0-.845 3.577V160H400v-32a8 8 0 0 0-.845-3.578l-8-16A8 8 0 0 0 384 104h-8V88h-16v16h-8a8 8 0 0 0-7.155 4.422l-8 16A8 8 0 0 0 336 128v32h-24v16h184v-16h-14.814zm-48 1.889 4.944-9.889h22.112l4.944 9.889V159.3h-32zM352 129.889l4.944-9.889h22.112l4.944 9.889V160h-32zM264 240h24v16h-24zM134 352H58a18.02 18.02 0 0 0-18 18v14a8 8 0 0 0 5.47 7.589L88 405.766V480H72v16h48v-16h-16v-74.234l42.53-14.177A8 8 0 0 0 152 384v-14a18.02 18.02 0 0 0-18-18m2 26.234-40 13.333-40-13.333V370a2 2 0 0 1 2-2h76a2 2 0 0 1 2 2zM294 352h-76a18.02 18.02 0 0 0-18 18v14a8 8 0 0 0 5.47 7.589L248 405.766V480h-16v16h48v-16h-16v-74.234l42.53-14.177A8 8 0 0 0 312 384v-14a18.02 18.02 0 0 0-18-18m2 26.234-40 13.333-40-13.333V370a2 2 0 0 1 2-2h76a2 2 0 0 1 2 2zM454 352h-76a18.02 18.02 0 0 0-18 18v14a8 8 0 0 0 5.47 7.589L408 405.766V480h-16v16h48v-16h-16v-74.234l42.53-14.177A8 8 0 0 0 472 384v-14a18.02 18.02 0 0 0-18-18m2 26.234-40 13.333-40-13.333V370a2 2 0 0 1 2-2h76a2 2 0 0 1 2 2z"/></svg>