<svg xmlns="http://www.w3.org/2000/svg" width="512" height="512" viewBox="0 0 512 512"><path fill="#e4f7fb" d="M16 16h480v480H16z"/><path fill="#fac850" d="M282.325 67.442 272 64s-8.954-8-20-8h-44v20a20 20 0 0 0 20 20h68v-9.585a20 20 0 0 0-13.675-18.973"/><path fill="#79d8eb" d="M16.043 296H496v32H16.043z"/><path fill="#fff9f8" d="m176 296-8-81.07a10 10 0 0 1 6.489-9.363L232 184h48l57.511 21.567A10 10 0 0 1 344 214.93L336 296z"/><path fill="#ffd4cf" d="M224 96v44c0 11.046 16 20 16 20l-8 24 24 32 24-32-8-24s16-8.954 16-20V96z"/><path fill="#79d8eb" d="M160 112h-8V88h-16v24h-8l-8 16v40h48v-40zM80 80h-8V48H56v32h-8l-8 16v72h48V96zm384 0h-8V48h-16v32h-8l-8 16v72h48V96zm-80 32h-8V88h-16v24h-8l-8 16v40h48v-40z"/><path fill="#fa5d3f" d="m199 196 9 44v56h96v-56l9-44-33-12-24 32-24-32z"/><path fill="#fff9f8" d="M264 240h24v16h-24z"/><path fill="#fac850" d="M144 384v-14a10 10 0 0 0-10-10H58a10 10 0 0 0-10 10v14l40 13.333V480H72v16h48v-16h-16v-82.667zm160 0v-14a10 10 0 0 0-10-10h-76a10 10 0 0 0-10 10v14l40 13.333V480h-16v16h48v-16h-16v-82.667zm160 0v-14a10 10 0 0 0-10-10h-76a10 10 0 0 0-10 10v14l40 13.333V480h-16v16h48v-16h-16v-82.667zM16 160h184v16H16z"/><path fill="#fff" d="M496 168H312"/><path fill="#fac850" d="M312 160h184v16H312z"/><path fill="#fa5d3f" d="M376 208v1.352a40 40 0 0 0 19.42 34.3L408 251.2V296h16v-44.8l12.58-7.548a40 40 0 0 0 19.42-34.3V208zm-320 0v1.352a40 40 0 0 0 19.42 34.3L88 251.2V296h16v-44.8l12.58-7.548a40 40 0 0 0 19.42-34.3V208z"/></svg>