<svg xmlns="http://www.w3.org/2000/svg" width="512" height="512" viewBox="0 0 512 512"><path fill="#5972a5" d="M392.905 423.93H127.612c-4.142 0-7.5-3.357-7.5-7.5s3.358-7.5 7.5-7.5h265.293c4.142 0 7.5 3.357 7.5 7.5s-3.358 7.5-7.5 7.5"/><path fill="#7888af" d="M463.535 482.684c0 10.902-6.111 21.367-16.597 26.413-14.577 7.014-32.087.883-39.101-13.694l-53.79-111.802c8.685-18.514 31.672-34.315 50.785-29.549l55.799 115.954a29.14 29.14 0 0 1 2.904 12.678"/><path fill="#5972a5" d="M404.832 354.052a246.4 246.4 0 0 1-50.785 29.549l-19.277-40.066a216.7 216.7 0 0 0 51.262-28.565z"/><path fill="#7888af" d="m157.953 383.601-53.79 111.802C99.118 505.889 88.652 512 77.75 512c-4.263 0-8.588-.934-12.689-2.903-14.577-7.014-20.708-24.515-13.694-39.091l55.799-115.954c20.446-4.766 38.817 9.171 50.787 29.549"/><path fill="#5972a5" d="m177.229 343.535-19.277 40.066a246.5 246.5 0 0 1-50.785-29.549l18.799-39.081a216.7 216.7 0 0 0 51.263 28.564"/><path fill="#ff6e80" d="M470.905 185.456c-13.389 100.626-95.774 179.427-198.044 187.294-86.726-35.621-99.002-132.541-61.717-187.294z"/><path fill="#f9475e" d="M272.861 372.75c-5.563.436-11.186.65-16.861.65-109.954 0-200.785-81.847-214.905-187.944h170.048c-15.592 62.844 1.868 138.031 61.718 187.294"/><path fill="#7888af" d="M501.692 167.214c0 7.979-3.228 15.186-8.456 20.413s-12.435 8.456-20.413 8.456H208.849c-11.378-18.003 0-49.688 21.764-57.738h242.21c15.947 0 28.869 12.933 28.869 28.869"/><path fill="#5972a5" d="M230.613 138.345c-10.567 17.307-17.926 36.99-21.764 57.738H39.177c-15.947 0-28.869-12.922-28.869-28.869 0-7.968 3.228-15.186 8.456-20.413s12.435-8.456 20.413-8.456z"/><path fill="#5ad6ff" d="M317.562 103.642a7.49 7.49 0 0 1-6.109-3.142c-8.648-12.109-11.194-25.43-7.167-37.51q.043-.131.093-.261c1.972-5.261 4.786-9.54 7.268-13.316 2.655-4.039 4.952-7.532 5.998-11.631 2.006-9.17-.205-18.895-5.782-25.401a7.5 7.5 0 0 1 11.388-9.762c8.608 10.043 12.062 24.802 9.014 38.517l-.045.192c-1.652 6.61-5.045 11.771-8.039 16.325-2.222 3.381-4.323 6.576-5.707 10.211-3.244 9.944 1.85 19.246 5.186 23.917a7.501 7.501 0 0 1-6.098 11.861m-61.896 0a7.49 7.49 0 0 1-6.109-3.142c-8.649-12.108-11.194-25.43-7.168-37.51q.043-.132.093-.262c1.973-5.26 4.786-9.539 7.268-13.314 2.656-4.04 4.952-7.532 5.998-11.631 2.006-9.171-.205-18.896-5.781-25.402a7.5 7.5 0 0 1 11.388-9.762c8.607 10.042 12.062 24.801 9.014 38.517l-.045.192c-1.652 6.61-5.045 11.771-8.039 16.325-2.223 3.381-4.323 6.576-5.708 10.211-3.244 9.944 1.85 19.246 5.187 23.917a7.5 7.5 0 0 1-1.744 10.462 7.46 7.46 0 0 1-4.354 1.399m-61.896 0a7.49 7.49 0 0 1-6.109-3.142c-8.648-12.109-11.194-25.43-7.167-37.51q.043-.132.093-.262c1.972-5.259 4.786-9.538 7.268-13.314 2.655-4.039 4.952-7.532 5.997-11.631 2.007-9.171-.204-18.896-5.781-25.402a7.5 7.5 0 0 1 11.388-9.762c8.608 10.043 12.062 24.802 9.014 38.517l-.045.191c-1.653 6.611-5.045 11.773-8.039 16.327-2.222 3.381-4.323 6.576-5.707 10.21-3.244 9.944 1.85 19.246 5.186 23.917a7.501 7.501 0 0 1-6.098 11.861"/><path fill="#fff" d="M205.289 287.525c-.041 13.042-13.35 23.572-29.727 23.521s-29.62-10.665-29.579-23.707 13.35-23.573 29.727-23.521 29.62 10.666 29.579 23.707m101.422.318c-.041 13.042 13.202 23.655 29.579 23.707s29.686-10.479 29.727-23.521-13.202-23.656-29.579-23.707-29.686 10.479-29.727 23.521"/><path fill="#495560" d="M279.964 269.616c.046-14.775-10.653-16.197-23.857-16.238s-23.912 1.313-23.958 16.088 10.62 26.786 23.824 26.827 23.945-11.903 23.991-26.677m-72.851-.281c-4.166-.013-7.513-3.382-7.5-7.523a6.57 6.57 0 0 0-1.922-4.683 6.57 6.57 0 0 0-4.671-1.952c-1.78 0-3.435.683-4.683 1.923a6.57 6.57 0 0 0-1.952 4.67 7.5 7.5 0 0 1-7.5 7.477c-4.166-.013-7.513-3.382-7.5-7.523a21.48 21.48 0 0 1 6.378-15.264 21.47 21.47 0 0 1 15.233-6.282h.07a21.48 21.48 0 0 1 15.264 6.379 21.47 21.47 0 0 1 6.283 15.303 7.5 7.5 0 0 1-7.5 7.475m126.164.394c-4.166-.013-7.514-3.382-7.5-7.523a6.62 6.62 0 0 0-6.593-6.635c-1.78 0-3.435.683-4.683 1.923a6.57 6.57 0 0 0-1.952 4.671 7.5 7.5 0 0 1-7.5 7.477c-4.166-.013-7.513-3.382-7.5-7.523a21.48 21.48 0 0 1 6.378-15.264 21.47 21.47 0 0 1 15.233-6.283h.07a21.48 21.48 0 0 1 15.264 6.379 21.47 21.47 0 0 1 6.283 15.303 7.5 7.5 0 0 1-7.5 7.475"/></svg>