<svg xmlns="http://www.w3.org/2000/svg" xml:space="preserve" width="512" height="512" viewBox="0 0 512 512"><path d="M143.849 410.351h224.302M316.641 7.5c7.277 8.49 9.703 20.618 7.277 31.533-2.426 9.703-9.703 15.767-13.341 25.469-3.638 10.915 0 21.831 6.064 30.32M255.665 7.5c7.277 8.49 9.703 20.618 7.277 31.533-2.426 9.703-9.703 15.767-13.341 25.469-3.638 10.915 0 21.831 6.064 30.32M194.689 7.5c7.277 8.49 9.703 20.618 7.277 31.533-2.426 9.703-9.703 15.767-13.341 25.469-3.638 10.915 0 21.831 6.064 30.32m84.919 170.897c.046-14.555-10.495-15.956-23.502-15.997s-23.556 1.294-23.602 15.849 10.462 26.387 23.469 26.428 23.589-11.725 23.635-26.28m-71.769-7.665c.024-7.679-6.181-13.924-13.861-13.948-7.679-.024-13.924 6.182-13.948 13.861m124.29.389c.024-7.679 6.269-13.885 13.948-13.861s13.885 6.269 13.861 13.948m51.003-122.041H42.398c-15.707 0-28.44 12.733-28.44 28.44s12.733 28.44 28.44 28.44h427.205c15.707 0 28.44-12.733 28.44-28.44s-12.733-28.44-28.44-28.44h-51.47M86.805 395.801l-32.393 67.326c-6.91 14.361-.869 31.604 13.492 38.514s31.604.869 38.514-13.492l65.996-137.166m-49.736-29.741-20.698 43.019m237.607-13.279 65.996 137.166c6.91 14.361 24.153 20.402 38.514 13.492s20.401-24.153 13.492-38.514l-68.265-141.884" style="fill:none;stroke:#000;stroke-width:15;stroke-linecap:round;stroke-linejoin:round;stroke-miterlimit:10"/><path d="M45.953 193.282C64.248 292.666 151.326 367.965 256 367.965s191.752-75.299 210.047-174.682" style="fill:none;stroke:#000;stroke-width:15;stroke-linecap:round;stroke-linejoin:round;stroke-miterlimit:10"/></svg>