<svg xmlns="http://www.w3.org/2000/svg" xml:space="preserve" width="512" height="512" viewBox="0 0 512 512"><path d="M460.45 475.62c0 10.74-6.02 21.05-16.35 26.02-14.36 6.91-31.61.87-38.52-13.49l-52.99-110.14c8.556-18.239 31.202-33.805 50.03-29.11l54.97 114.23c1.94 4.03 2.86 8.29 2.86 12.49" style="fill:#7888af"/><path d="M402.62 348.9a242.8 242.8 0 0 1-50.03 29.11l-18.99-39.47c18.18-7.1 35.14-16.61 50.5-28.14z" style="fill:#5972a5"/><path d="m159.41 378.01-52.99 110.14c-4.97 10.33-15.28 16.35-26.02 16.35-4.2 0-8.46-.92-12.5-2.86-14.36-6.91-20.4-24.15-13.49-38.51l54.97-114.23c20.14-4.695 38.239 9.035 50.03 29.11" style="fill:#7888af"/><path d="m178.4 338.54-18.99 39.47a242.8 242.8 0 0 1-50.03-29.11l18.52-38.5a213.5 213.5 0 0 0 50.5 28.14" style="fill:#5972a5"/><path d="M467.71 182.81c-13.19 99.13-94.35 176.76-195.1 184.51-85.437-35.091-97.53-130.57-60.8-184.51z" style="fill:#ff6e80"/><path d="M272.61 367.32c-5.48.43-11.02.64-16.61.64-108.32 0-197.8-80.63-211.71-185.15h167.52c-15.36 61.91 1.84 135.98 60.8 184.51" style="fill:#f9475e"/><path d="M498.04 164.84c0 7.86-3.18 14.96-8.33 20.11s-12.25 8.33-20.11 8.33H209.55c-11.208-17.735 0-48.949 21.44-56.88H469.6c15.71 0 28.44 12.74 28.44 28.44" style="fill:#7888af"/><path d="M230.99 136.4c-10.41 17.05-17.66 36.44-21.44 56.88H42.4c-15.71 0-28.44-12.73-28.44-28.44 0-7.85 3.18-14.96 8.33-20.11s12.25-8.33 20.11-8.33z" style="fill:#5972a5"/><path d="M206.043 283.362c-.04 12.848-13.152 23.222-29.285 23.171s-29.179-10.506-29.139-23.354 13.151-23.222 29.285-23.172c16.133.051 29.179 10.508 29.139 23.355m99.914.313c-.04 12.848 13.006 23.304 29.139 23.354s29.245-10.323 29.285-23.171-13.006-23.304-29.139-23.355c-16.133-.05-29.245 10.325-29.285 23.172" style="fill:#fff"/><path d="M279.608 265.719c.046-14.555-10.495-15.956-23.502-15.997s-23.556 1.294-23.602 15.849 10.462 26.387 23.469 26.428 23.589-11.725 23.635-26.28" style="fill:#495560"/><path d="M143.849 410.351h224.302M316.641 7.5c7.277 8.49 9.703 20.618 7.277 31.533-2.426 9.703-9.703 15.767-13.341 25.469-3.638 10.915 0 21.831 6.064 30.32M255.665 7.5c7.277 8.49 9.703 20.618 7.277 31.533-2.426 9.703-9.703 15.767-13.341 25.469-3.638 10.915 0 21.831 6.064 30.32M194.689 7.5c7.277 8.49 9.703 20.618 7.277 31.533-2.426 9.703-9.703 15.767-13.341 25.469-3.638 10.915 0 21.831 6.064 30.32m84.919 170.897c.046-14.555-10.495-15.956-23.502-15.997s-23.556 1.294-23.602 15.849 10.462 26.387 23.469 26.428 23.589-11.725 23.635-26.28m-71.769-7.665c.024-7.679-6.181-13.924-13.861-13.948-7.679-.024-13.924 6.182-13.948 13.861m124.29.389c.024-7.679 6.269-13.885 13.948-13.861s13.885 6.269 13.861 13.948m51.003-122.041H42.398c-15.707 0-28.44 12.733-28.44 28.44s12.733 28.44 28.44 28.44h427.205c15.707 0 28.44-12.733 28.44-28.44s-12.733-28.44-28.44-28.44h-51.47M86.805 395.801l-32.393 67.326c-6.91 14.361-.869 31.604 13.492 38.514s31.604.869 38.514-13.492l65.996-137.166m-49.736-29.741-20.698 43.019m237.607-13.279 65.996 137.166c6.91 14.361 24.153 20.402 38.514 13.492s20.401-24.153 13.492-38.514l-68.265-141.884" style="fill:none;stroke:#000;stroke-width:15;stroke-linecap:round;stroke-linejoin:round;stroke-miterlimit:10"/><path d="M45.953 193.282C64.248 292.666 151.326 367.965 256 367.965s191.752-75.299 210.047-174.682" style="fill:none;stroke:#000;stroke-width:15;stroke-linecap:round;stroke-linejoin:round;stroke-miterlimit:10"/></svg>