<svg xmlns="http://www.w3.org/2000/svg" width="512" height="512" viewBox="0 0 512 512"><path fill="#74c0fc" d="M496 320H16v176h480.18z"/><path fill="#ffc682" d="M496 397.207h-31.32a119 119 0 0 1-32.718-4.583l-14.148-4.042a119.1 119.1 0 0 0-52.3-2.962l-49.05 8.175a119.1 119.1 0 0 1-40.883-.3l-35.244-6.408a119.1 119.1 0 0 0-63.126 5.664l-.088.033a119.1 119.1 0 0 1-67.658 4.749 119.1 119.1 0 0 0-72.748 6.793L16 413.207V496h480z"/><path fill="#f07f35" d="M157.66 452H91.18l1.2-16 .59-8 1.8-24 .59-8 1.8-24 .59-8 1.8-24.03.52-6.97c.03-.34.05-.68.08-1.02q.915-12.015 2.43-23.98.495-4 1.07-8 1.71-12.105 4.03-24.12c.52-2.67 1.05-5.34 1.62-8q.675-3.24 1.4-6.48l3.89-17.4 1.8-8.01 5.37-23.99 1.79-8 5.35-23.89 1.79-8.01 9.48-42.34 9.44 6.56-4.04 35.67-.9 8.01-2.72 24-.91 8-2.7 23.84-.9 8.01-.44 3.87q-1.14 10.125-1.87 20.28-.285 3.99-.51 8-.675 12-.76 24.03-.03 3.99.01 8 .1 12 .79 23.97c.15 2.67.32 5.33.52 8 .26 3.58.56 7.15.9 10.73l1.26 13.3.76 8 1.95 20.52c.11 1.16.23 2.32.37 3.48.31 2.68.69 5.34 1.14 8a159 159 0 0 0 5.95 23.97q1.32 4.035 2.87 8a166 166 0 0 0 7.28 16"/><path fill="#00b377" d="m250 104-24.98-12.03a50.893 50.893 0 0 0-66.13 20.4l-15.07 26.08-.96-.34 12.17-34.63a46.253 46.253 0 0 1 75.69-18zM60.22 41.94v.01c-.58-.02-1.15-.03-1.73-.03H55.2l18.11-10.87a48.794 48.794 0 0 1 73.9 41.85c0 1.61-.08 3.23-.24 4.85L141.05 137l-.88-.09-2.68-52.32a51.4 51.4 0 0 0-68.94-45.68zm57.48 75.74 17.87 22.33-1.63 1.3c-.22-.16-.97-.93-2.14-2.18a94.09 94.09 0 0 0-111.94-19.25l-2.12 1.1-1.92-1.92 6.65-6.65a64 64 0 0 1 95.23 5.27m22.47 28.08 46.76-17.53a47.552 47.552 0 0 1 61.81 59.56L242 208v-24.58a50.883 50.883 0 0 0-67.5-48.1l-26.3 9.09.03 1.15zm75.52 81.89a62.57 62.57 0 0 1-13.72 39.1l-22.7 28.38 8.99-21.48a94.5 94.5 0 0 0-23.17-106l-21.36-19.66 42.54 26.59a62.59 62.59 0 0 1 29.42 53.07m-86.96-79.98.31 1.86a73.573 73.573 0 0 0-60.38 80.98l3.36 28.83-2.01 1.01-6.82-13.64a67.173 67.173 0 0 1 49.03-96.29z"/><path fill="#0f995d" d="m129.04 149.53-.31-1.86 11.44-1.91-25.9 25.9a136 136 0 0 0-20.5 26.26l-.26.43a136.33 136.33 0 0 0-19.43 70.14l-4.07-8.14 2.01-1.01-3.36-28.83a73.573 73.573 0 0 1 60.38-80.98m4.9-8.22 1.63-1.3 4.6 5.75-39.3-13.1A181.4 181.4 0 0 0 8 126.88l7.82-7.82 1.92 1.92 2.12-1.1a94.09 94.09 0 0 1 111.94 19.25c1.17 1.25 1.92 2.02 2.14 2.18m6.23-4.4.88.09-.88 8.76-15.39-53.84a68.925 68.925 0 0 0-64.56-49.97v-.01l8.33-3.03a51.4 51.4 0 0 1 68.94 45.68zm3.65 1.54 15.07-26.08a50.893 50.893 0 0 1 66.13-20.4L250 104l-15.1-3.85a71.91 71.91 0 0 0-69.25 19.47l-25.48 26.14 2.69-7.65zM242 183.42V208l-5.25-26.23a46.36 46.36 0 0 0-45.47-37.28c-.39 0-.78 0-1.17.01l-41.88 1.06-.03-1.15 26.3-9.09a50.883 50.883 0 0 1 67.5 48.1m-98.27-35.43 21.36 19.66a94.5 94.5 0 0 1 23.17 106l-8.99 21.48-1.34 1.68v-8.85a286.7 286.7 0 0 0-37.76-142.2z"/><path fill="#f6646c" d="m352 344-14.96 29.91a90.6 90.6 0 0 1-162.08 0L160 344l16.76 19.56a104.38 104.38 0 0 0 158.48 0l16.18-18.88.01-.01z"/><path fill="#f2444e" d="m351.42 344.68-16.18 18.88a104.375 104.375 0 0 1-158.48 0L160 344a150.4 150.4 0 0 0 72.76 30.51 182 182 0 0 0 49.52-.42 150.1 150.1 0 0 0 69.14-29.41"/><path fill="#f2444e" d="M160 348a4 4 0 0 1-3.583-2.216l-24.831-49.793-27.709.009a4 4 0 0 1 0-8l30.187-.008a4 4 0 0 1 3.58 2.215l25.937 52.008A4 4 0 0 1 160 348"/><path fill="#ffa54f" d="m136 480 8-8h8l8 8-8 8zm176-32 8-8h8l8 8-8 8z"/><path fill="#e86d3c" d="m133.87 308.03-31.29-.03q.495-4 1.07-8l30.21.03q-.03 3.99.01 8m1.31 31.97-35.63-.03.52-6.97c.03-.34.05-.68.08-1.02l34.51.02c.15 2.67.32 5.33.52 8m2.92 32.03L97.16 372l.59-8 39.59.03zM135.13 268q-.285 3.99-.51 8l-26.94-.12c.52-2.67 1.05-5.34 1.62-8zm3.21-32.16-.9 8.01-22.85.15 1.8-8.01zm3.61-31.84-.91 8h-19.28l1.79-8zm3.62-32.01-.9 8.01-15.77.11 1.79-8.01zm-4.01 232.04L94.77 404l.59-8 45.06.03c.31 2.68.69 5.34 1.14 8m8.82 31.97h-58l.59-8h54.54q1.32 4.035 2.87 8"/><path fill="#ffa54f" d="M183 444h-6a4 4 0 0 1 0-8h6a4 4 0 0 1 0 8m32.75 24.875h-6.875a4 4 0 0 1 0-8h6.875a4 4 0 0 1 0 8m47-8.875H256a4 4 0 0 1 0-8h6.746a4 4 0 0 1 0 8zm40.75 24h-6.25a4 4 0 0 1 0-8h6.25a4 4 0 0 1 0 8m71.75-8h-7.75a4 4 0 0 1 0-8h7.75a4 4 0 0 1 0 8"/><path fill="#00b377" d="M145.262 144.641a16 16 0 1 1 11.378-19.559 16.02 16.02 0 0 1-11.378 19.559"/><path fill="#0f995d" d="M156.089 167.466a16 16 0 1 1 11.377-19.558 16.02 16.02 0 0 1-11.377 19.558"/><path fill="#00d498" d="M130.841 165.868a16 16 0 1 1 11.378-19.559 16.02 16.02 0 0 1-11.378 19.559"/><path fill="#f07f35" d="M354.34 452h66.48l-1.2-16-.59-8-1.8-24-.59-8-1.8-24-.59-8-1.8-24.03-.52-6.97c-.03-.34-.05-.68-.08-1.02q-.915-12.015-2.43-23.98-.5-4-1.07-8-1.71-12.105-4.03-24.12c-.52-2.67-1.05-5.34-1.62-8q-.675-3.24-1.4-6.48l-3.89-17.4-1.8-8.01-5.37-23.99-1.79-8-5.35-23.89-1.79-8.01-9.48-42.34-9.44 6.56 4.04 35.67.9 8.01 2.72 24 .91 8 2.7 23.84.9 8.01.44 3.87q1.14 10.125 1.87 20.28.285 3.99.51 8 .675 12 .76 24.03.03 3.99-.01 8-.105 12-.79 23.97c-.15 2.67-.32 5.33-.52 8-.26 3.58-.56 7.15-.9 10.73l-1.26 13.3-.76 8-1.95 20.52c-.11 1.16-.23 2.32-.37 3.48-.31 2.68-.69 5.34-1.14 8a159 159 0 0 1-5.95 23.97q-1.32 4.035-2.87 8a166 166 0 0 1-7.28 16"/><path fill="#00b377" d="m262 104 24.98-12.03a50.893 50.893 0 0 1 66.13 20.4l15.07 26.08.96-.34-12.17-34.63a46.253 46.253 0 0 0-75.69-18zm189.78-62.06v.01c.58-.02 1.15-.03 1.73-.03h3.29l-18.11-10.87a48.794 48.794 0 0 0-73.9 41.85c0 1.61.08 3.23.24 4.85l5.92 59.25.88-.09 2.68-52.32a51.4 51.4 0 0 1 68.94-45.68zm-57.48 75.74-17.87 22.33 1.63 1.3c.22-.16.97-.93 2.14-2.18a94.09 94.09 0 0 1 111.94-19.25l2.12 1.1 1.92-1.92-6.65-6.65a64 64 0 0 0-95.23 5.27m-22.47 28.08-46.76-17.53a47.552 47.552 0 0 0-61.81 59.56L270 208v-24.58a50.883 50.883 0 0 1 67.5-48.1l26.3 9.09-.03 1.15zm-75.52 81.89a62.57 62.57 0 0 0 13.72 39.1l22.7 28.38-8.99-21.48a94.5 94.5 0 0 1 23.17-106l21.36-19.66-42.54 26.59a62.59 62.59 0 0 0-29.42 53.07m86.96-79.98-.31 1.86a73.573 73.573 0 0 1 60.38 80.98l-3.36 28.83 2.01 1.01 6.82-13.64a67.173 67.173 0 0 0-49.03-96.29z"/><path fill="#0f995d" d="m382.96 149.53.31-1.86-11.44-1.91 25.9 25.9a136 136 0 0 1 20.5 26.26l.26.43a136.33 136.33 0 0 1 19.43 70.14l4.07-8.14-2.01-1.01 3.36-28.83a73.573 73.573 0 0 0-60.38-80.98m-4.9-8.22-1.63-1.3-4.6 5.75 39.3-13.1a181.4 181.4 0 0 1 92.87-5.78l-7.82-7.82-1.92 1.92-2.12-1.1a94.09 94.09 0 0 0-111.94 19.25c-1.17 1.25-1.92 2.02-2.14 2.18m-6.23-4.4-.88.09.88 8.76 15.39-53.84a68.925 68.925 0 0 1 64.56-49.97v-.01l-8.33-3.03a51.4 51.4 0 0 0-68.94 45.68z"/><path fill="#0f995d" d="m368.18 138.45-15.07-26.08a50.893 50.893 0 0 0-66.13-20.4L262 104l15.1-3.85a71.91 71.91 0 0 1 69.25 19.47l25.48 26.14-2.69-7.65zM270 183.42V208l5.25-26.23a46.36 46.36 0 0 1 45.47-37.28c.39 0 .78 0 1.17.01l41.88 1.06.03-1.15-26.3-9.09a50.883 50.883 0 0 0-67.5 48.1m98.27-35.43-21.36 19.66a94.5 94.5 0 0 0-23.17 106l8.99 21.48 1.34 1.68v-8.85a286.7 286.7 0 0 1 37.76-142.2z"/><path fill="#e86d3c" d="m378.13 308.03 31.29-.03q-.5-4-1.07-8l-30.21.03q.03 3.99-.01 8M376.82 340l35.63-.03-.52-6.97c-.03-.34-.05-.68-.08-1.02l-34.51.02c-.15 2.67-.32 5.33-.52 8m-2.92 32.03 40.94-.03-.59-8-39.59.03zM376.87 268q.285 3.99.51 8l26.94-.12c-.52-2.67-1.05-5.34-1.62-8zm-3.21-32.16.9 8.01 22.85.15-1.8-8.01zM370.05 204l.91 8h19.28l-1.79-8zm-3.62-32.01.9 8.01 15.77.11-1.79-8.01zm4.01 232.04 46.79-.03-.59-8-45.06.03c-.31 2.68-.69 5.34-1.14 8M361.62 436h58l-.59-8h-54.54q-1.32 4.035-2.87 8"/><path fill="#00b377" d="M355.36 125.082a16 16 0 1 1 11.378 19.559 16.02 16.02 0 0 1-11.378-19.559"/><path fill="#0f995d" d="M344.534 147.908a16 16 0 1 1 11.377 19.558 16.017 16.017 0 0 1-11.377-19.558"/><path fill="#00d498" d="M369.781 146.309a16 16 0 1 1 11.378 19.559 16.02 16.02 0 0 1-11.378-19.559"/><path fill="#f2444e" d="M352 348a4 4 0 0 1-3.575-5.79l26.009-52.01a4 4 0 0 1 3.578-2.211L407.3 288a4 4 0 0 1 0 8l-26.809-.011-24.905 49.8A4 4 0 0 1 352 348"/><path fill="#f6646c" d="M256 428a94.07 94.07 0 0 1-84.618-52.3l-14.96-29.908a4 4 0 0 1 6.616-4.393l16.762 19.559a100.384 100.384 0 0 0 152.408 0l16.178-18.878.054-.061.516-.608a4 4 0 0 1 6.625 4.382l-14.96 29.91A94.07 94.07 0 0 1 256 428m-78.187-57.327.725 1.448a86.6 86.6 0 0 0 154.924 0l.724-1.447a108.38 108.38 0 0 1-156.373 0z"/></svg>