<svg xmlns="http://www.w3.org/2000/svg" xml:space="preserve" width="682.667" height="682.667" viewBox="0 0 682.667 682.667"><defs><clipPath id="a" clipPathUnits="userSpaceOnUse"><path d="M0 512h512V0H0Z"/></clipPath></defs><path d="M504.499 10.499H7.501v268.15h496.998z" style="fill:#8dcafc;fill-opacity:1;fill-rule:nonzero;stroke:none" transform="matrix(1.33333 0 0 -1.33333 0 682.667)"/><path d="M504.5 249.527H7.5v29.117h497z" style="fill:#64b9fc;fill-opacity:1;fill-rule:nonzero;stroke:none" transform="matrix(1.33333 0 0 -1.33333 0 682.667)"/><g clip-path="url(#a)" transform="matrix(1.33333 0 0 -1.33333 0 682.667)"><path d="M0 0c-6.48-19.121-89.164-6.98-79.823-39.202s-70.813-19.3-87.843-37.421 43.131-22.471 24.28-44.941c-18.841-22.472-2.17-42.042 9.361-75.383 11.53-33.352-33.641-37.582-33.641-37.582h-192.857v268.15h322.981C-16.631 24.591 4.2 12.39 0 0" style="fill:#c4e1ff;fill-opacity:1;fill-rule:nonzero;stroke:none" transform="translate(368.024 245.027)"/><path d="M0 0h-360.983v29.121h322.981C-19.631 21.191-1.33 10.811 0 0" style="fill:#b5dbfd;fill-opacity:1;fill-rule:nonzero;stroke:none" transform="translate(368.484 249.527)"/><path d="M0 0h-123.235" style="fill:none;stroke:#000;stroke-width:15;stroke-linecap:round;stroke-linejoin:round;stroke-miterlimit:10;stroke-dasharray:none;stroke-opacity:1" transform="translate(422.746 278.644)"/><path d="M0 0h-47.754" style="fill:none;stroke:#000;stroke-width:15;stroke-linecap:round;stroke-linejoin:round;stroke-miterlimit:10;stroke-dasharray:none;stroke-opacity:1" transform="translate(504.5 278.644)"/><path d="M0 0h-497" style="fill:none;stroke:#000;stroke-width:15;stroke-linecap:round;stroke-linejoin:round;stroke-miterlimit:10;stroke-dasharray:none;stroke-opacity:1" transform="translate(504.5 10.499)"/><path d="M0 0s66.183-.337 66.183 57.501c0 52.412-87.912 72.003-87.912 98.483 0 48.389 188.592 21.315 188.592 112.158 0 0-44.503 25.606-292.01 25.606V-.003Z" style="fill:#fee7c9;fill-opacity:1;fill-rule:nonzero;stroke:none" transform="translate(132.648 10.502)"/><path d="M0 0c0-26.481 87.913-46.072 87.913-98.484 0-57.832-66.183-57.502-66.183-57.502H6.84c18.56 7.111 38.661 22.611 38.661 56.432 0 56.912-92.093 78.183-92.093 106.934 0 51.302 188.387 24.481 197.247 115.035 29.591-5.451 37.942-10.251 37.942-10.251C188.597 21.321 0 48.392 0 0" style="fill:#ffd496;fill-opacity:1;fill-rule:nonzero;stroke:none" transform="translate(110.915 166.484)"/><path d="M0 0c0-10.172-28.672-18.419-64.04-18.419S-128.08-10.172-128.08 0s28.672 18.419 64.04 18.419S0 10.172 0 0" style="fill:#ffd496;fill-opacity:1;fill-rule:nonzero;stroke:none" transform="translate(183.497 250.37)"/><path d="M0 0c46.215 10.64 91.548 26.833 91.548 71.372 0 0-44.503 25.606-292.011 25.606" style="fill:none;stroke:#000;stroke-width:15;stroke-linecap:round;stroke-linejoin:round;stroke-miterlimit:10;stroke-dasharray:none;stroke-opacity:1" transform="translate(207.963 207.273)"/><path d="m0 0 125.146.004s66.184-.337 66.184 57.501c0 52.412-87.911 72.003-87.911 98.482 0 18.885 28.725 26.276 63.752 33.668" style="fill:none;stroke:#000;stroke-width:15;stroke-linecap:round;stroke-linejoin:round;stroke-miterlimit:10;stroke-dasharray:none;stroke-opacity:1" transform="translate(7.5 10.499)"/><path d="M0 0s40.129 69.893 118.701 53.306c2.772-.586 4.518-3.379 3.822-6.125-2.341-9.239-10.733-28.334-40.364-32.524L84.9 7.373a5.033 5.033 0 0 0-2.388-6.249C71.58-4.542 38.912-17.886 0 0" style="fill:#a3e440;fill-opacity:1;fill-rule:nonzero;stroke:none" transform="translate(126.796 400.933)"/><path d="M0 0c-2.34-9.241-10.729-28.331-40.361-32.521l2.74-7.291c.9-2.39-.12-5.07-2.39-6.25-10.93-5.66-43.601-19.011-82.513-1.12 0 0 1.06 1.85 3.18 4.88 29.231-6.09 52.422 3.571 61.292 8.16a5.037 5.037 0 0 1 2.391 6.251l-.002.005c-1.395 3.71.791 7.748 4.631 8.727C-30.354-13.885-22.271-.561-19.12 8.34-14.2 7.96-9.1 7.23-3.819 6.12-1.05 5.54.7 2.74 0 0" style="fill:#99d53b;fill-opacity:1;fill-rule:nonzero;stroke:none" transform="translate(249.32 448.115)"/><path d="M0 0s40.129 69.893 118.701 53.306c2.772-.586 4.518-3.379 3.822-6.125-2.341-9.239-10.733-28.334-40.364-32.524L84.9 7.373a5.033 5.033 0 0 0-2.388-6.249C71.58-4.542 38.912-17.886 0 0" style="fill:none;stroke:#000;stroke-width:15;stroke-linecap:round;stroke-linejoin:round;stroke-miterlimit:10;stroke-dasharray:none;stroke-opacity:1" transform="translate(126.796 400.933)"/><path d="M0 0s8.218 80.173-65.26 112.573c-2.591 1.143-5.64-.106-6.678-2.741-3.493-8.868-7.826-29.27 13.787-49.97l-6.479-4.314a5.033 5.033 0 0 1-1.708-6.468C-60.77 38.098-42.035 8.194 0 0" style="fill:#bcea73;fill-opacity:1;fill-rule:nonzero;stroke:none" transform="translate(156.73 388.504)"/><path d="M0 0c-7.171 1.4-13.671 3.43-19.541 5.89-1.18 22.671-9.47 68.183-54.962 93.763.51 4.16 1.58 7.651 2.57 10.181 1.04 2.63 4.08 3.88 6.68 2.74C8.22 80.173 0 0 0 0" style="fill:#a3e440;fill-opacity:1;fill-rule:nonzero;stroke:none" transform="translate(156.727 388.502)"/><path d="M0 0s8.218 80.173-65.26 112.573c-2.591 1.143-5.64-.106-6.678-2.741-3.493-8.868-7.826-29.27 13.787-49.97l-6.479-4.314a5.033 5.033 0 0 1-1.708-6.468C-60.77 38.098-42.035 8.194 0 0" style="fill:none;stroke:#000;stroke-width:15;stroke-linecap:round;stroke-linejoin:round;stroke-miterlimit:10;stroke-dasharray:none;stroke-opacity:1" transform="translate(156.73 388.504)"/><path d="M0 0s-55.534 58.407-127.947 23.691c-2.554-1.224-3.59-4.351-2.264-6.853 4.461-8.421 17.134-24.989 46.916-22.046l-.939-7.726a5.05 5.05 0 0 1 3.831-5.513C-68.411-21.366-33.545-26.566 0 0" style="fill:#a3e440;fill-opacity:1;fill-rule:nonzero;stroke:none" transform="translate(147.586 393.864)"/><path d="M0 0a41.7 41.7 0 0 1 7.258-9.842c50.599 22.841 92.639.594 112.691-14.157a103 103 0 0 1 10.256 7.158S74.675 41.563 2.261 6.85C-.294 5.628-1.326 2.5 0 0" style="fill:#99d53b;fill-opacity:1;fill-rule:nonzero;stroke:none" transform="translate(17.377 410.704)"/><path d="M0 0s-55.534 58.407-127.947 23.691c-2.554-1.224-3.59-4.351-2.264-6.853 4.461-8.421 17.134-24.989 46.916-22.046l-.939-7.726a5.05 5.05 0 0 1 3.831-5.513C-68.411-21.366-33.545-26.566 0 0" style="fill:none;stroke:#000;stroke-width:15;stroke-linecap:round;stroke-linejoin:round;stroke-miterlimit:10;stroke-dasharray:none;stroke-opacity:1" transform="translate(147.586 393.864)"/><path d="M0 0s-14.585-34.412-14.585-135.688H-67.87S-73.622-40.177-38.426-.97c8.116 9.041 21.524 11.029 31.964 4.815z" style="fill:#c76d3c;fill-opacity:1;fill-rule:nonzero;stroke:none" transform="translate(156.61 392.627)"/><path d="M0 0s-14.581-34.411-14.581-135.685h-19.221C-33.802-45.722-23.181-4.48-19.36 7.45c4.42-.03 8.88-1.21 12.9-3.6z" style="fill:#aa5e33;fill-opacity:1;fill-rule:nonzero;stroke:none" transform="translate(156.606 392.623)"/><path d="M0 0s-14.585-34.412-14.585-135.688H-67.87S-73.622-40.177-38.426-.97c8.116 9.041 21.524 11.029 31.964 4.815z" style="fill:none;stroke:#000;stroke-width:15;stroke-linecap:round;stroke-linejoin:round;stroke-miterlimit:10;stroke-dasharray:none;stroke-opacity:1" transform="translate(156.61 392.627)"/><path d="M0 0s-25.8 5.725-35.137 18.046" style="fill:none;stroke:#000;stroke-width:15;stroke-linecap:round;stroke-linejoin:round;stroke-miterlimit:10;stroke-dasharray:none;stroke-opacity:1" transform="translate(150.335 370.063)"/><path d="M0 0s-30.098-1.826-45.778 9.357" style="fill:none;stroke:#000;stroke-width:15;stroke-linecap:round;stroke-linejoin:round;stroke-miterlimit:10;stroke-dasharray:none;stroke-opacity:1" transform="translate(146.356 346.705)"/><path d="M0 0s-32.206-4.748-49.271 10.496" style="fill:none;stroke:#000;stroke-width:15;stroke-linecap:round;stroke-linejoin:round;stroke-miterlimit:10;stroke-dasharray:none;stroke-opacity:1" transform="translate(141.643 315.303)"/><path d="M0 0s80.303 6.843 111.438-67.179c1.098-2.611-.202-5.638-2.855-6.631-8.927-3.339-29.4-7.322-49.727 14.642l-4.423-6.404a5.034 5.034 0 0 0-6.496-1.597C37.052-61.413 7.473-42.169 0 0" style="fill:#99d53b;fill-opacity:1;fill-rule:nonzero;stroke:none" transform="translate(141.35 399.69)"/><path d="M0 0c-3.77-1.41-9.61-2.94-16.631-2.58-20.99 48.712-63.442 61.872-89.333 65.232a103 103 0 0 0-2.62 11.161S-28.281 80.653 2.86 6.63C3.96 4.021 2.66.99 0 0" style="fill:#8dc637;fill-opacity:1;fill-rule:nonzero;stroke:none" transform="translate(249.93 325.88)"/><path d="M0 0c-35.183 26.663-77.813 23.04-77.813 23.04 7.471-42.17 37.051-61.414 47.936-67.169a5.034 5.034 0 0 1 6.496 1.596l4.424 6.404C1.369-58.093 21.843-54.11 30.77-50.77c2.653.993 3.953 4.02 2.855 6.631-3.027 7.198-6.525 13.622-10.363 19.371" style="fill:none;stroke:#000;stroke-width:15;stroke-linecap:round;stroke-linejoin:round;stroke-miterlimit:10;stroke-dasharray:none;stroke-opacity:1" transform="translate(219.164 376.65)"/><path d="M0 0s30.558-7.279 53.113 2.723" style="fill:none;stroke:#000;stroke-width:15;stroke-linecap:round;stroke-linejoin:round;stroke-miterlimit:10;stroke-dasharray:none;stroke-opacity:1" transform="translate(89.463 287.038)"/><path d="M0 0h12.497" style="fill:none;stroke:#000;stroke-width:15;stroke-linecap:round;stroke-linejoin:round;stroke-miterlimit:10;stroke-dasharray:none;stroke-opacity:1" transform="translate(36.629 219.94)"/><path d="M0 0h12.496" style="fill:none;stroke:#000;stroke-width:15;stroke-linecap:round;stroke-linejoin:round;stroke-miterlimit:10;stroke-dasharray:none;stroke-opacity:1" transform="translate(181.887 263.208)"/><path d="M0 0h12.497" style="fill:none;stroke:#000;stroke-width:15;stroke-linecap:round;stroke-linejoin:round;stroke-miterlimit:10;stroke-dasharray:none;stroke-opacity:1" transform="translate(55.834 190.493)"/><path d="M0 0h12.497" style="fill:none;stroke:#000;stroke-width:15;stroke-linecap:round;stroke-linejoin:round;stroke-miterlimit:10;stroke-dasharray:none;stroke-opacity:1" transform="translate(36.629 53.876)"/><path d="M0 0c-12.573 0-12.573 8.048-25.147 8.048C-37.723 8.048-37.723 0-50.297 0-62.874 0-62.874 8.048-75.45 8.048S-88.026 0-100.604 0c-12.574 0-12.574 8.048-25.148 8.048S-138.326 0-150.901 0c-12.577 0-12.577 8.048-25.153 8.048S-188.63 0-201.207 0" style="fill:none;stroke:#000;stroke-width:15;stroke-linecap:round;stroke-linejoin:round;stroke-miterlimit:10;stroke-dasharray:none;stroke-opacity:1" transform="translate(479.61 164.774)"/><path d="M0 0c-12.573 0-12.573 8.048-25.147 8.048C-37.723 8.048-37.723 0-50.297 0-62.874 0-62.874 8.048-75.45 8.048S-88.026 0-100.604 0" style="fill:none;stroke:#000;stroke-width:15;stroke-linecap:round;stroke-linejoin:round;stroke-miterlimit:10;stroke-dasharray:none;stroke-opacity:1" transform="translate(321.23 109.606)"/><path d="M0 0c-12.574 0-12.574 8.048-25.148 8.048S-37.723 0-50.298 0C-62.874 0-62.874 8.048-75.45 8.048S-88.027 0-100.604 0" style="fill:none;stroke:#000;stroke-width:15;stroke-linecap:round;stroke-linejoin:round;stroke-miterlimit:10;stroke-dasharray:none;stroke-opacity:1" transform="translate(466.581 73.418)"/><path d="M0 0c-12.574 0-12.574 8.048-25.147 8.048C-37.723 8.048-37.723 0-50.298 0-62.874 0-62.874 8.048-75.45 8.048S-88.026 0-100.604 0" style="fill:none;stroke:#000;stroke-width:15;stroke-linecap:round;stroke-linejoin:round;stroke-miterlimit:10;stroke-dasharray:none;stroke-opacity:1" transform="translate(429.309 225.389)"/></g></svg>