<svg xmlns="http://www.w3.org/2000/svg" xml:space="preserve" width="682.667" height="682.667" viewBox="0 0 682.667 682.667"><defs><clipPath id="a" clipPathUnits="userSpaceOnUse"><path d="M0 512h512V0H0Z"/></clipPath></defs><g clip-path="url(#a)" transform="matrix(1.33333 0 0 -1.33333 0 682.667)"><path d="M0 0h496.999" style="fill:none;stroke:#060606;stroke-width:15;stroke-linecap:round;stroke-linejoin:round;stroke-miterlimit:10;stroke-dasharray:none;stroke-opacity:1" transform="translate(7.5 184.988)"/><path d="M0 0c-3.105 18.882-20.929 31.673-39.812 28.568S-71.485 7.64-68.38-11.243C-71.485 7.64-89.309 20.43-108.192 17.326c-18.882-3.105-31.673-20.93-28.568-39.812-3.105 18.882-20.929 31.673-39.812 28.569-18.883-3.105-31.673-20.929-28.569-39.812-3.104 18.883-20.928 31.673-39.811 28.568s-31.673-20.928-28.569-39.811c-3.104 18.883-20.928 31.673-39.811 28.569-18.883-3.105-31.673-20.929-28.568-39.812l-1.16-.191c-15.574 94.719 48.586 184.129 143.305 199.703C-105.036 158.87-15.626 94.71-.053-.009Z" style="fill:none;stroke:#060606;stroke-width:15;stroke-linecap:round;stroke-linejoin:round;stroke-miterlimit:10;stroke-dasharray:none;stroke-opacity:1" transform="translate(352.89 288.56)"/><path d="m0 0 28.983-176.277" style="fill:none;stroke:#060606;stroke-width:15;stroke-linecap:round;stroke-linejoin:round;stroke-miterlimit:10;stroke-dasharray:none;stroke-opacity:1" transform="translate(175.712 294.542)"/><path d="M0 0c-3.706-24.002-3.895-50.648.076-78.305a35 35 0 0 0 1.493-5.831c-3.104 18.883 9.686 36.707 28.569 39.812s36.707-9.686 39.811-28.569c-3.104 18.883 9.686 36.707 28.569 39.811 18.882 3.105 36.707-9.686 39.812-28.568-3.105 18.882 9.686 36.707 28.568 39.812 16.598 2.729 32.373-6.826 38.058-22.002C187.789 47.418 130.698 113.199 75.4 104.143l-.048-.008c-29.893-4.92-53.28-30.73-66.415-67.933" style="fill:none;stroke:#060606;stroke-width:15;stroke-linecap:round;stroke-linejoin:round;stroke-miterlimit:10;stroke-dasharray:none;stroke-opacity:1" transform="translate(77.8 327.723)"/><path d="m0 0-.306-.046c-18.522-3.381-21.331-80.517-6.468-173.386-.968 17.442 11.346 33.171 28.975 36.069 18.882 3.105 36.706-9.686 39.811-28.568a35 35 0 0 0-.399 3.551C45.981-69.653 18.641 2.563 0 0" style="fill:none;stroke:#060606;stroke-width:15;stroke-linecap:round;stroke-linejoin:round;stroke-miterlimit:10;stroke-dasharray:none;stroke-opacity:1" transform="translate(154.117 432.004)"/><path d="M0 0a36 36 0 0 1-.448 2.221c.132-.743.273-1.483.395-2.23z" style="fill:none;stroke:#060606;stroke-width:15;stroke-linecap:round;stroke-linejoin:round;stroke-miterlimit:10;stroke-dasharray:none;stroke-opacity:1" transform="translate(352.89 288.56)"/><path d="M0 0c0-18.797-15.238-34.035-34.035-34.035S-68.069-18.797-68.069 0s15.237 34.035 34.034 34.035S0 18.797 0 0" style="fill:none;stroke:#060606;stroke-width:15;stroke-linecap:round;stroke-linejoin:round;stroke-miterlimit:10;stroke-dasharray:none;stroke-opacity:1" transform="translate(462.913 428.878)"/><path d="M0 0v-17.758" style="fill:none;stroke:#060606;stroke-width:15;stroke-linecap:round;stroke-linejoin:round;stroke-miterlimit:10;stroke-dasharray:none;stroke-opacity:1" transform="translate(428.878 504.5)"/><path d="M0 0v-17.758" style="fill:none;stroke:#060606;stroke-width:15;stroke-linecap:round;stroke-linejoin:round;stroke-miterlimit:10;stroke-dasharray:none;stroke-opacity:1" transform="translate(428.878 371.014)"/><path d="m0 0-12.557-12.557" style="fill:none;stroke:#060606;stroke-width:15;stroke-linecap:round;stroke-linejoin:round;stroke-miterlimit:10;stroke-dasharray:none;stroke-opacity:1" transform="translate(482.35 482.35)"/><path d="m0 0-12.557-12.557" style="fill:none;stroke:#060606;stroke-width:15;stroke-linecap:round;stroke-linejoin:round;stroke-miterlimit:10;stroke-dasharray:none;stroke-opacity:1" transform="translate(387.962 387.962)"/><path d="M0 0h-17.758" style="fill:none;stroke:#060606;stroke-width:15;stroke-linecap:round;stroke-linejoin:round;stroke-miterlimit:10;stroke-dasharray:none;stroke-opacity:1" transform="translate(504.5 428.878)"/><path d="M0 0h-17.758" style="fill:none;stroke:#060606;stroke-width:15;stroke-linecap:round;stroke-linejoin:round;stroke-miterlimit:10;stroke-dasharray:none;stroke-opacity:1" transform="translate(371.014 428.878)"/><path d="m0 0-12.557 12.557" style="fill:none;stroke:#060606;stroke-width:15;stroke-linecap:round;stroke-linejoin:round;stroke-miterlimit:10;stroke-dasharray:none;stroke-opacity:1" transform="translate(482.35 375.405)"/><path d="m0 0-12.557 12.557" style="fill:none;stroke:#060606;stroke-width:15;stroke-linecap:round;stroke-linejoin:round;stroke-miterlimit:10;stroke-dasharray:none;stroke-opacity:1" transform="translate(387.962 469.794)"/><path d="M0 0c9.652 0 9.668 15 0 15-9.652 0-9.667-15 0-15" style="fill:#060606;fill-opacity:1;fill-rule:nonzero;stroke:none" transform="translate(34.26 71.357)"/><path d="M0 0c9.651 0 9.667 15 0 15-9.652 0-9.668-15 0-15" style="fill:#060606;fill-opacity:1;fill-rule:nonzero;stroke:none" transform="translate(137.817 29.492)"/><path d="M0 0c9.651 0 9.667 15 0 15-9.652 0-9.668-15 0-15" style="fill:#060606;fill-opacity:1;fill-rule:nonzero;stroke:none" transform="translate(163.91 86.225)"/><path d="M0 0c9.652 0 9.667 15 0 15-9.652 0-9.668-15 0-15" style="fill:#060606;fill-opacity:1;fill-rule:nonzero;stroke:none" transform="translate(362.676)"/><path d="M0 0c9.652 0 9.668 15 0 15-9.651 0-9.667-15 0-15" style="fill:#060606;fill-opacity:1;fill-rule:nonzero;stroke:none" transform="translate(451.622 41.709)"/><path d="M0 0h57.717" style="fill:none;stroke:#060606;stroke-width:15;stroke-linecap:round;stroke-linejoin:round;stroke-miterlimit:10;stroke-dasharray:none;stroke-opacity:1" transform="translate(290.832 118.265)"/><path d="M0 0h128.997" style="fill:none;stroke:#060606;stroke-width:15;stroke-linecap:round;stroke-linejoin:round;stroke-miterlimit:10;stroke-dasharray:none;stroke-opacity:1" transform="translate(333.916 148.933)"/><path d="M0 0c26.974 6.602 62.722 8.499 96.006-19.435" style="fill:none;stroke:#060606;stroke-width:15;stroke-linecap:round;stroke-linejoin:round;stroke-miterlimit:10;stroke-dasharray:none;stroke-opacity:1" transform="translate(408.336 92.262)"/><path d="M0 0c30.333 41.318 88.599 59.65 137.158 43.156 57.347-19.481 98.373-80.6 158.87-83.584 20.11-.992 39.546 4.807 58.706 11.583" style="fill:none;stroke:#060606;stroke-width:15;stroke-linecap:round;stroke-linejoin:round;stroke-miterlimit:10;stroke-dasharray:none;stroke-opacity:1" transform="translate(7.4 105.75)"/></g></svg>