<svg xmlns="http://www.w3.org/2000/svg" width="512" height="512" data-name="filled outline" viewBox="0 0 512 512"><path fill="#74c0fc" d="M496 320H16v176h480.18z"/><path fill="#ffc682" d="M496 397.207h-31.32a119 119 0 0 1-32.718-4.583l-14.148-4.042a119.1 119.1 0 0 0-52.3-2.962l-49.05 8.175a119.1 119.1 0 0 1-40.883-.3l-35.244-6.408a119.1 119.1 0 0 0-63.126 5.664l-.088.033a119.1 119.1 0 0 1-67.658 4.749 119.1 119.1 0 0 0-72.748 6.793L16 413.207V496h480z"/><path fill="#f07f35" d="M157.66 452H91.18l1.2-16 .59-8 1.8-24 .59-8 1.8-24 .59-8 1.8-24.03.52-6.97c.03-.34.05-.68.08-1.02q.915-12.015 2.43-23.98.495-4 1.07-8 1.71-12.105 4.03-24.12c.52-2.67 1.05-5.34 1.62-8q.675-3.24 1.4-6.48l3.89-17.4 1.8-8.01 5.37-23.99 1.79-8 5.35-23.89 1.79-8.01 9.48-42.34 9.44 6.56-4.04 35.67-.9 8.01-2.72 24-.91 8-2.7 23.84-.9 8.01-.44 3.87q-1.14 10.125-1.87 20.28-.285 3.99-.51 8-.675 12-.76 24.03-.03 3.99.01 8 .1 12 .79 23.97c.15 2.67.32 5.33.52 8 .26 3.58.56 7.15.9 10.73l1.26 13.3.76 8 1.95 20.52c.11 1.16.23 2.32.37 3.48.31 2.68.69 5.34 1.14 8a159 159 0 0 0 5.95 23.97q1.32 4.035 2.87 8a166 166 0 0 0 7.28 16"/><path fill="#00b377" d="m250 104-24.98-12.03a50.893 50.893 0 0 0-66.13 20.4l-15.07 26.08-.96-.34 12.17-34.63a46.253 46.253 0 0 1 75.69-18zM60.22 41.94v.01c-.58-.02-1.15-.03-1.73-.03H55.2l18.11-10.87a48.794 48.794 0 0 1 73.9 41.85c0 1.61-.08 3.23-.24 4.85L141.05 137l-.88-.09-2.68-52.32a51.4 51.4 0 0 0-68.94-45.68zm57.48 75.74 17.87 22.33-1.63 1.3c-.22-.16-.97-.93-2.14-2.18a94.09 94.09 0 0 0-111.94-19.25l-2.12 1.1-1.92-1.92 6.65-6.65a64 64 0 0 1 95.23 5.27m22.47 28.08 46.76-17.53a47.552 47.552 0 0 1 61.81 59.56L242 208v-24.58a50.883 50.883 0 0 0-67.5-48.1l-26.3 9.09.03 1.15zm75.52 81.89a62.57 62.57 0 0 1-13.72 39.1l-22.7 28.38 8.99-21.48a94.5 94.5 0 0 0-23.17-106l-21.36-19.66 42.54 26.59a62.59 62.59 0 0 1 29.42 53.07m-86.96-79.98.31 1.86a73.573 73.573 0 0 0-60.38 80.98l3.36 28.83-2.01 1.01-6.82-13.64a67.173 67.173 0 0 1 49.03-96.29z"/><path fill="#0f995d" d="m129.04 149.53-.31-1.86 11.44-1.91-25.9 25.9a136 136 0 0 0-20.5 26.26l-.26.43a136.33 136.33 0 0 0-19.43 70.14l-4.07-8.14 2.01-1.01-3.36-28.83a73.573 73.573 0 0 1 60.38-80.98m4.9-8.22 1.63-1.3 4.6 5.75-39.3-13.1A181.4 181.4 0 0 0 8 126.88l7.82-7.82 1.92 1.92 2.12-1.1a94.09 94.09 0 0 1 111.94 19.25c1.17 1.25 1.92 2.02 2.14 2.18m6.23-4.4.88.09-.88 8.76-15.39-53.84a68.925 68.925 0 0 0-64.56-49.97v-.01l8.33-3.03a51.4 51.4 0 0 1 68.94 45.68zm3.65 1.54 15.07-26.08a50.893 50.893 0 0 1 66.13-20.4L250 104l-15.1-3.85a71.91 71.91 0 0 0-69.25 19.47l-25.48 26.14 2.69-7.65zM242 183.42V208l-5.25-26.23a46.36 46.36 0 0 0-45.47-37.28c-.39 0-.78 0-1.17.01l-41.88 1.06-.03-1.15 26.3-9.09a50.883 50.883 0 0 1 67.5 48.1m-98.27-35.43 21.36 19.66a94.5 94.5 0 0 1 23.17 106l-8.99 21.48-1.34 1.68v-8.85a286.7 286.7 0 0 0-37.76-142.2z"/><path fill="#f6646c" d="m352 344-14.96 29.91a90.6 90.6 0 0 1-162.08 0L160 344l16.76 19.56a104.38 104.38 0 0 0 158.48 0l16.18-18.88.01-.01z"/><path fill="#f2444e" d="m351.42 344.68-16.18 18.88a104.375 104.375 0 0 1-158.48 0L160 344a150.4 150.4 0 0 0 72.76 30.51 182 182 0 0 0 49.52-.42 150.1 150.1 0 0 0 69.14-29.41"/><path fill="#ffa54f" d="m136 480 8-8h8l8 8-8 8zm176-32 8-8h8l8 8-8 8z"/><path fill="#00b377" d="M145.262 144.641a16 16 0 1 1 11.378-19.559 16.02 16.02 0 0 1-11.378 19.559"/><path fill="#0f995d" d="M156.089 167.466a16 16 0 1 1 11.377-19.558 16.02 16.02 0 0 1-11.377 19.558"/><path fill="#00d498" d="M130.841 165.868a16 16 0 1 1 11.378-19.559 16.02 16.02 0 0 1-11.378 19.559"/><path fill="#f07f35" d="M354.34 452h66.48l-1.2-16-.59-8-1.8-24-.59-8-1.8-24-.59-8-1.8-24.03-.52-6.97c-.03-.34-.05-.68-.08-1.02q-.915-12.015-2.43-23.98-.5-4-1.07-8-1.71-12.105-4.03-24.12c-.52-2.67-1.05-5.34-1.62-8q-.675-3.24-1.4-6.48l-3.89-17.4-1.8-8.01-5.37-23.99-1.79-8-5.35-23.89-1.79-8.01-9.48-42.34-9.44 6.56 4.04 35.67.9 8.01 2.72 24 .91 8 2.7 23.84.9 8.01.44 3.87q1.14 10.125 1.87 20.28.285 3.99.51 8 .675 12 .76 24.03.03 3.99-.01 8-.105 12-.79 23.97c-.15 2.67-.32 5.33-.52 8-.26 3.58-.56 7.15-.9 10.73l-1.26 13.3-.76 8-1.95 20.52c-.11 1.16-.23 2.32-.37 3.48-.31 2.68-.69 5.34-1.14 8a159 159 0 0 1-5.95 23.97q-1.32 4.035-2.87 8a166 166 0 0 1-7.28 16"/><path fill="#00b377" d="m262 104 24.98-12.03a50.893 50.893 0 0 1 66.13 20.4l15.07 26.08.96-.34-12.17-34.63a46.253 46.253 0 0 0-75.69-18zm189.78-62.06v.01c.58-.02 1.15-.03 1.73-.03h3.29l-18.11-10.87a48.794 48.794 0 0 0-73.9 41.85c0 1.61.08 3.23.24 4.85l5.92 59.25.88-.09 2.68-52.32a51.4 51.4 0 0 1 68.94-45.68zm-57.48 75.74-17.87 22.33 1.63 1.3c.22-.16.97-.93 2.14-2.18a94.09 94.09 0 0 1 111.94-19.25l2.12 1.1 1.92-1.92-6.65-6.65a64 64 0 0 0-95.23 5.27m-22.47 28.08-46.76-17.53a47.552 47.552 0 0 0-61.81 59.56L270 208v-24.58a50.883 50.883 0 0 1 67.5-48.1l26.3 9.09-.03 1.15zm-75.52 81.89a62.57 62.57 0 0 0 13.72 39.1l22.7 28.38-8.99-21.48a94.5 94.5 0 0 1 23.17-106l21.36-19.66-42.54 26.59a62.59 62.59 0 0 0-29.42 53.07m86.96-79.98-.31 1.86a73.573 73.573 0 0 1 60.38 80.98l-3.36 28.83 2.01 1.01 6.82-13.64a67.173 67.173 0 0 0-49.03-96.29z"/><path fill="#0f995d" d="m382.96 149.53.31-1.86-11.44-1.91 25.9 25.9a136 136 0 0 1 20.5 26.26l.26.43a136.33 136.33 0 0 1 19.43 70.14l4.07-8.14-2.01-1.01 3.36-28.83a73.573 73.573 0 0 0-60.38-80.98m-4.9-8.22-1.63-1.3-4.6 5.75 39.3-13.1a181.4 181.4 0 0 1 92.87-5.78l-7.82-7.82-1.92 1.92-2.12-1.1a94.09 94.09 0 0 0-111.94 19.25c-1.17 1.25-1.92 2.02-2.14 2.18m-6.23-4.4-.88.09.88 8.76 15.39-53.84a68.925 68.925 0 0 1 64.56-49.97v-.01l-8.33-3.03a51.4 51.4 0 0 0-68.94 45.68z"/><path fill="#0f995d" d="m368.18 138.45-15.07-26.08a50.893 50.893 0 0 0-66.13-20.4L262 104l15.1-3.85a71.91 71.91 0 0 1 69.25 19.47l25.48 26.14-2.69-7.65zM270 183.42V208l5.25-26.23a46.36 46.36 0 0 1 45.47-37.28c.39 0 .78 0 1.17.01l41.88 1.06.03-1.15-26.3-9.09a50.883 50.883 0 0 0-67.5 48.1m98.27-35.43-21.36 19.66a94.5 94.5 0 0 0-23.17 106l8.99 21.48 1.34 1.68v-8.85a286.7 286.7 0 0 1 37.76-142.2z"/><path fill="#00b377" d="M355.36 125.082a16 16 0 1 1 11.378 19.559 16.02 16.02 0 0 1-11.378-19.559"/><path fill="#0f995d" d="M344.534 147.908a16 16 0 1 1 11.377 19.558 16.017 16.017 0 0 1-11.377-19.558"/><path fill="#00d498" d="M369.781 146.309a16 16 0 1 1 11.378 19.559 16.02 16.02 0 0 1-11.378-19.559"/><path d="m506.829 124.051-14.472-14.47a68 68 0 0 0-101.179 5.6l-3.11 3.882a20.2 20.2 0 0 0-3.254-4.158l6.252-21.886a64.9 64.9 0 0 1 33.4-40.24 65.3 65.3 0 0 1 29.044-6.859h3.29a4 4 0 0 0 2.058-7.43l-18.11-10.87A52.795 52.795 0 0 0 360.79 72.9c0 1.734.087 3.5.26 5.248l3.216 32.141c-.2.069-.386.16-.581.235l-2.942-8.373A50.253 50.253 0 0 0 278.509 82.6l-19.28 18.52a4 4 0 0 0 3.759 6.761l15.1-3.851a67.92 67.92 0 0 1 65.4 18.387l7.376 7.567a20 20 0 0 0 .542 3.853l-24.928-9.347a51.553 51.553 0 0 0-67.011 64.571l6.741 20.21A4 4 0 0 0 270 212q.125.002.251-.008a4 4 0 0 0 3.673-3.207l5.251-26.233a42.2 42.2 0 0 1 11.584-21.652 42.66 42.66 0 0 1 29.961-12.41c.355 0 .714 0 1.069.009l18.444.467a19.9 19.9 0 0 0 1.427 10.939l-18.05 11.283a66.574 66.574 0 0 0-16.7 98.061l22.7 28.375 1.339 1.68a4 4 0 0 0 7.128-2.494v-8.85a284.5 284.5 0 0 1 24.455-114.9l8.5 75.118q2.411 21.3 2.953 42.793L361.494 316H150.506l-12.484-25.034q.551-21.461 2.953-42.793l8.5-75.118a284.5 284.5 0 0 1 24.455 114.9v8.85a4 4 0 0 0 2.679 3.775 4 4 0 0 0 1.321.225 4 4 0 0 0 3.128-1.506l24.036-30.055a66.576 66.576 0 0 0-16.7-98.061L170.343 159.9a19.9 19.9 0 0 0 1.427-10.939l18.444-.467a35 35 0 0 1 1.07-.009 42.66 42.66 0 0 1 29.957 12.415 42.2 42.2 0 0 1 11.587 21.657l5.25 26.23a4 4 0 0 0 3.673 3.207q.125.009.251.008a4 4 0 0 0 3.792-2.734l6.742-20.214a51.554 51.554 0 0 0-67.01-64.568l-24.93 9.348a20 20 0 0 0 .542-3.853l7.374-7.564a67.91 67.91 0 0 1 65.4-18.389l15.1 3.85a4 4 0 0 0 3.759-6.761L233.492 82.6a50.257 50.257 0 0 0-82.236 19.558l-2.941 8.37c-.195-.075-.383-.166-.581-.235l3.217-32.147c.172-1.744.259-3.508.259-5.242A52.795 52.795 0 0 0 71.251 27.62L53.142 38.49a4 4 0 0 0 2.058 7.43h3.29a64.98 64.98 0 0 1 51.961 25.98 64.6 64.6 0 0 1 10.483 21.118l6.251 21.883a20 20 0 0 0-3.255 4.158l-3.1-3.876a68.01 68.01 0 0 0-101.184-5.6L5.171 124.051a4 4 0 0 0 3.613 6.749 177.7 177.7 0 0 1 90.821 5.653l10.188 3.4a20 20 0 0 0-2.808 7.555A71.08 71.08 0 0 0 64.052 177.2a71.31 71.31 0 0 0-4.44 71.3l10.89 21.78a4 4 0 0 0 7.578-1.789 132.34 132.34 0 0 1 18.852-68.07l.269-.443a132 132 0 0 1 19.9-25.488l4.714-4.714a20 20 0 0 0 4.942.627c.072 0 .144-.006.216-.006L106.8 260.522A503 503 0 0 0 97.623 316H16a4 4 0 0 0 0 8h80.811c-.268 2.9-5.084 66.975-5.084 66.975a123.4 123.4 0 0 0-56.582 9.678l-20.721 8.88a4 4 0 1 0 3.152 7.354l20.719-8.88a115.4 115.4 0 0 1 52.835-9.054L87.189 451.7a4 4 0 0 0 3.989 4.3h66.486a4 4 0 0 0 3.545-5.852 156.5 156.5 0 0 1-15.609-46.219 123 123 0 0 0 33.016-7.433c1.742-.652 3.5-1.247 5.268-1.811a94.723 94.723 0 0 0 142.923 1.515l39.376-6.634c.673-.113 1.372-.21 2.062-.312l-.277 2.921a156.7 156.7 0 0 1-17.177 57.974 4 4 0 0 0 3.545 5.851h66.486a4 4 0 0 0 3.989-4.3l-4.349-58.2 10.4 2.969a123 123 0 0 0 33.819 4.744H496a4 4 0 0 0 0-8h-31.32a115 115 0 0 1-31.622-4.436L419.827 385l-3.908-52.3q-.325-4.35-.73-8.7H496a4 4 0 0 0 0-8h-81.623a503 503 0 0 0-9.174-55.478L385.029 170.4c.072 0 .144.007.216.007a20 20 0 0 0 4.942-.628l4.714 4.715a132.2 132.2 0 0 1 19.907 25.5l.253.418a132.35 132.35 0 0 1 18.859 68.078 4 4 0 0 0 7.578 1.789l10.89-21.78a71.166 71.166 0 0 0-25.012-91.585 70.3 70.3 0 0 0-22.361-9.508 20 20 0 0 0-2.808-7.555l10.187-3.4a177.7 177.7 0 0 1 90.822-5.653 4 4 0 0 0 3.613-6.751zm-92.917-18.14a59.98 59.98 0 0 1 68.256 5.268 98.13 98.13 0 0 0-84.291 8.458 59.8 59.8 0 0 1 16.035-13.726m6.983-60.29a72.9 72.9 0 0 0-37.521 45.2l-5.6 19.6c-.187-.069-.383-.12-.573-.183l1.3-25.444a47.423 47.423 0 0 1 55.721-44.256 73 73 0 0 0-13.322 5.083zm-35.3-7.707a45.03 45.03 0 0 1 46.539-5.789 55.467 55.467 0 0 0-61.623 52.261l-.271 5.3-1.233-12.328a45 45 0 0 1-.221-4.458A44.58 44.58 0 0 1 385.6 37.914zM359.227 126.1a11.991 11.991 0 0 1 23.505 4.455 19.94 19.94 0 0 0-11.074 5.191 19.96 19.96 0 0 0-12.469-3.733 11.9 11.9 0 0 1 .038-5.913m-76.38-36.583 1.205-1.157a42.256 42.256 0 0 1 69.148 16.446l.288.818a55.166 55.166 0 0 0-68.239-17.258zm66.365 27.3a75.76 75.76 0 0 0-56.738-22.853 47.12 47.12 0 0 1 57.173 20.4l3.34 5.774c-.062.121-.118.246-.177.37zm-83.2 66.042a43.542 43.542 0 0 1 45.334-53.559 54.84 54.84 0 0 0-22.311 9.4 54.25 54.25 0 0 0-23.019 44.168zM321.99 140.5a50.4 50.4 0 0 0-43.7 23.2 47.01 47.01 0 0 1 57.9-24.605l5.493 1.9zm-8.837 123.75a58.576 58.576 0 0 1 14.7-86.279l8.838-5.525a98.87 98.87 0 0 0-18.373 98.258zm17.077 14.55-2.8-6.689a90.77 90.77 0 0 1 22.189-101.513l1.021-.939a20 20 0 0 0 3.937 1.584A292.8 292.8 0 0 0 330.23 278.8m26.7-115.191a12 12 0 0 1 .5-23.321 11.7 11.7 0 0 1 5.633.114 11.9 11.9 0 0 1 3.935 1.86 20 20 0 0 0-1.089 3.03 19.87 19.87 0 0 0 2.054 15.166c.065.112.143.213.21.323a12.05 12.05 0 0 1-11.238 2.819zm13.525 8.42-.317-2.8a20 20 0 0 0 3.462-2.575 20 20 0 0 0 2.762 1.676l.839 3.748zm.906 8.006 7.633.051L384.353 204h-10.275zm2.749 128.588q-.038 3.692-.128 7.382h-3.554zM357.5 324l-8.848 17.743a146.3 146.3 0 0 1-66.949 28.392 179 179 0 0 1-48.438.408 146.46 146.46 0 0 1-70.112-29.176L154.5 324zm-26.566 38.386a100.338 100.338 0 0 1-150.117-.273 152.4 152.4 0 0 0 51.427 16.365 186 186 0 0 0 50.613-.427 151.7 151.7 0 0 0 48.081-15.665zM141.567 316h-3.554q-.092-3.69-.128-7.382zm-3.645-112h-10.275L133 180.081l7.634-.051zm3.618-31.976-6.746.045.839-3.748a20 20 0 0 0 2.761-1.676 20 20 0 0 0 3.463 2.575zm42.61 5.948a58.575 58.575 0 0 1 14.7 86.279l-5.163 6.455a98.87 98.87 0 0 0-18.373-98.26zm50.364-35.921a43.5 43.5 0 0 1 11.47 40.817 54.25 54.25 0 0 0-23.023-44.155 54.8 54.8 0 0 0-22.319-9.4 43.65 43.65 0 0 1 33.872 12.738m-58.708-2.95a47.01 47.01 0 0 1 57.9 24.6 50.41 50.41 0 0 0-43.7-23.2l-19.693.5zm8.764 133-2.8 6.69a292.8 292.8 0 0 0-24.347-107.557 20 20 0 0 0 3.938-1.584l1.019.939a90.77 90.77 0 0 1 22.19 101.516zM201.4 95.567a75.9 75.9 0 0 0-38.612 21.261l-3.6 3.688c-.059-.123-.115-.248-.177-.37l3.341-5.774a47.12 47.12 0 0 1 57.17-20.4 76 76 0 0 0-18.122 1.595m-42.6 9.242a42.252 42.252 0 0 1 69.146-16.444l1.2 1.156-2.4-1.155a55.164 55.164 0 0 0-68.238 17.258zm4.8 44.121a12 12 0 0 1-19.781 11.846c.067-.11.145-.212.21-.323a19.87 19.87 0 0 0 2.054-15.166 20 20 0 0 0-1.089-3.03 12 12 0 0 1 3.943-1.862 11.7 11.7 0 0 1 5.637-.109 11.98 11.98 0 0 1 9.026 8.644m-10.828-22.83a11.9 11.9 0 0 1 .039 5.916 19.97 19.97 0 0 0-12.469 3.733 19.93 19.93 0 0 0-11.078-5.191 11.993 11.993 0 0 1 23.508-4.458M126.4 37.914A44.58 44.58 0 0 1 143.21 72.9c0 1.474-.074 2.974-.22 4.452l-1.234 12.335-.271-5.3a55.466 55.466 0 0 0-61.622-52.262 45.03 45.03 0 0 1 46.537 5.789M116.85 67.1a72.7 72.7 0 0 0-39.074-26.563A47.422 47.422 0 0 1 133.5 84.794l1.3 25.442c-.19.064-.386.114-.573.183l-5.6-19.6A72.6 72.6 0 0 0 116.85 67.1M77.59 98.485a59.87 59.87 0 0 1 36.528 21.146 98.1 98.1 0 0 0-84.284-8.454A60.14 60.14 0 0 1 77.59 98.485m24.544 30.38a185.7 185.7 0 0 0-72.725-8.948 90.66 90.66 0 0 1 88.937 12.354 20 20 0 0 0-2.294 1.233zM64.687 230.973l1.479 12.694a63.2 63.2 0 0 1 28.279-83.2 77.25 77.25 0 0 0-29.758 70.506m46.754-62.141a140 140 0 0 0-21.093 27.018l-.268.442a140.3 140.3 0 0 0-16.561 41.358l-.886-7.6a69.28 69.28 0 0 1 36.79-69.667 19.9 19.9 0 0 0 4.848 5.617zm3.708-15.364a12 12 0 1 1 14.67 8.532 11.926 11.926 0 0 1-14.67-8.532M125.856 212h11.161l-2.7 23.868-13.823.093zM114.6 262.27l4.095-18.3 14.711-.1-.385 3.4q-1.168 10.327-1.9 20.711L113.4 267.9c.4-1.876.785-3.758 1.2-5.63m-2.823 13.63 18.846.087q-.33 6-.52 12.017h-20.535a510 510 0 0 1 2.209-12.104m-3.484 20.1h21.626c-.02 1.342-.041 2.684-.051 4.026l-22.162-.021c.194-1.336.385-2.671.587-4.005m-1.673 12 23.259.022q.051 5.983.242 11.962v.041q.195 5.99.527 11.972l-26.48-.026q.932-11.985 2.452-23.971m-3.06 31.967 27.612.026q.4 5.562.922 11.11l1.228 12.923-31.558-.026zm-4.16 55.746q-.001-.013.005-.025c.006-.012 0-.029 0-.043L101.166 372l32.916.027 1.986 20.9q.151 1.55.328 3.1L99.373 396zM98.775 404l38.727.026A164 164 0 0 0 143.28 428h-46.3zm47.13 31.494q2.389 6.341 5.3 12.5H95.488l.9-12H144a3.95 3.95 0 0 0 1.905-.494zm29.821-46.462a115 115 0 0 1-31.285 6.956q-.227-1.9-.409-3.816l-3.974-41.824q-1.248-13.139-1.786-26.35h7.284l25.822 51.7a96 96 0 0 0 7.334 12.275c-.993.347-1.986.687-2.986 1.061zM256 420a86.14 86.14 0 0 1-77.466-47.877l-.737-1.472a108.367 108.367 0 0 0 156.406 0l-.737 1.472A86.14 86.14 0 0 1 256 420m108.863-38.326-30.756 5.126a96 96 0 0 0 6.515-11.1l25.822-51.7h7.284q-.543 13.2-1.786 26.35l-2.918 30.711c-1.413.185-2.808.386-4.161.613M415.616 436l.9 12h-55.722q2.8-5.913 5.107-12zm-.6-8h-46.3a164 164 0 0 0 5.782-24l38.725.025zm-2.389-31.972L375.606 396c.116-1.022.228-2.046.326-3.072l1.986-20.9 32.916-.028zM410.236 364l-31.558.026 1.228-12.923q.526-5.547.922-11.11l27.612-.026zm-4.856-56q1.518 11.97 2.45 23.967l-26.48.033q.337-5.981.527-11.972v-.037q.193-5.979.242-11.962zm-1.086-8-22.162.021c-.01-1.342-.031-2.684-.051-4.026h21.626c.202 1.339.393 2.674.587 4.01zm-1.862-12H381.9q-.187-6.012-.52-12.017l18.846-.087A533 533 0 0 1 402.432 288m-5.032-25.73c.419 1.872.809 3.754 1.207 5.634l-17.728.081q-.738-10.379-1.9-20.711l-.385-3.4 14.711.1zM386.144 212l5.363 23.961-13.823-.093L374.983 212zm10.707-58.532a12.018 12.018 0 1 1-1.235-9.1 12 12 0 0 1 1.235 9.1m26.177 10.161a63.16 63.16 0 0 1 22.806 80.037l1.479-12.693a77.25 77.25 0 0 0-29.757-70.51 63 63 0 0 1 5.472 3.166m-20.451-3.251a69.28 69.28 0 0 1 36.79 69.669l-.887 7.6a140.4 140.4 0 0 0-16.567-41.371l-.252-.416a140.2 140.2 0 0 0-21.1-27.032l-2.83-2.83a19.9 19.9 0 0 0 4.846-5.62m7.288-31.513-13.917 4.635a20 20 0 0 0-2.292-1.232 90.68 90.68 0 0 1 88.934-12.355 185.8 185.8 0 0 0-72.725 8.952M154.829 465.171A4 4 0 0 0 152 464h-8a4 4 0 0 0-2.829 1.171l-8 8a4 4 0 0 0 1.04 6.407l16 8a4 4 0 0 0 4.618-.749l8-8a4 4 0 0 0 0-5.658zm-3.619 13.962-8.458-4.229 2.905-2.9h4.686l4 4z"/><path d="M330.829 437.171A4 4 0 0 0 328 436h-8a4 4 0 0 0-2.829 1.171l-8 8a4 4 0 0 0 1.04 6.407l16 8a4 4 0 0 0 4.618-.749l8-8a4 4 0 0 0 0-5.658zm-3.619 13.962-8.458-4.229 2.9-2.9h4.686l4 4zM183 436h-6a4 4 0 0 0 0 8h6a4 4 0 0 0 0-8m32.75 24.875h-6.875a4 4 0 0 0 0 8h6.875a4 4 0 0 0 0-8m47-8.875H256a4 4 0 0 0 0 8h6.746a4 4 0 0 0 0-8zm40.75 24h-6.25a4 4 0 0 0 0 8h6.25a4 4 0 0 0 0-8m71.75-8h-7.75a4 4 0 0 0 0 8h7.75a4 4 0 0 0 0-8"/></svg>