<svg xmlns="http://www.w3.org/2000/svg" xml:space="preserve" width="682.667" height="682.667" viewBox="0 0 682.667 682.667"><defs><clipPath id="a" clipPathUnits="userSpaceOnUse"><path d="M0 512h512V0H0Z"/></clipPath></defs><path d="M0 0h-123.235" style="fill:none;stroke:#000;stroke-width:15;stroke-linecap:round;stroke-linejoin:round;stroke-miterlimit:10;stroke-dasharray:none;stroke-opacity:1" transform="matrix(1.33333 0 0 -1.33333 563.661 311.14)"/><g clip-path="url(#a)" transform="matrix(1.33333 0 0 -1.33333 0 682.667)"><path d="M0 0h-47.754" style="fill:none;stroke:#000;stroke-width:15;stroke-linecap:round;stroke-linejoin:round;stroke-miterlimit:10;stroke-dasharray:none;stroke-opacity:1" transform="translate(504.5 278.644)"/><path d="M0 0h-497" style="fill:none;stroke:#000;stroke-width:15;stroke-linecap:round;stroke-linejoin:round;stroke-miterlimit:10;stroke-dasharray:none;stroke-opacity:1" transform="translate(504.5 10.499)"/><path d="M0 0c-23.906.635-50.402.995-79.754.995" style="fill:none;stroke:#000;stroke-width:15;stroke-linecap:round;stroke-linejoin:round;stroke-miterlimit:10;stroke-dasharray:none;stroke-opacity:1" transform="translate(87.254 303.255)"/><path d="M0 0c46.215 10.64 91.548 26.833 91.548 71.372 0 0-26.806 15.423-154.514 22.33" style="fill:none;stroke:#000;stroke-width:15;stroke-linecap:round;stroke-linejoin:round;stroke-miterlimit:10;stroke-dasharray:none;stroke-opacity:1" transform="translate(207.963 207.273)"/><path d="m0 0 125.146.004s66.184-.337 66.184 57.501c0 52.412-87.911 72.003-87.911 98.482 0 18.885 28.725 26.276 63.752 33.668" style="fill:none;stroke:#000;stroke-width:15;stroke-linecap:round;stroke-linejoin:round;stroke-miterlimit:10;stroke-dasharray:none;stroke-opacity:1" transform="translate(7.5 10.499)"/><path d="M0 0c19.798 16.489 50.617 31.938 92.206 23.159 2.772-.586 4.518-3.379 3.822-6.125C93.687 7.795 85.295-11.3 55.664-15.49l2.741-7.284a5.033 5.033 0 0 0-2.388-6.249c-4.421-2.291-12.397-5.838-22.904-8.068" style="fill:none;stroke:#000;stroke-width:15;stroke-linecap:round;stroke-linejoin:round;stroke-miterlimit:10;stroke-dasharray:none;stroke-opacity:1" transform="translate(153.291 431.08)"/><path d="M0 0c-.976 23.73-9.729 75.746-65.43 100.307-2.591 1.143-5.64-.106-6.678-2.741-3.493-8.868-7.826-29.271 13.787-49.97l-6.479-4.314a5.033 5.033 0 0 1-1.708-6.468c1.687-3.327 4.582-8.39 8.967-14.06" style="fill:none;stroke:#000;stroke-width:15;stroke-linecap:round;stroke-linejoin:round;stroke-miterlimit:10;stroke-dasharray:none;stroke-opacity:1" transform="translate(156.9 400.77)"/><path d="M0 0c-16.49 13.819-63.654 45.735-121.641 17.935-2.553-1.224-3.589-4.351-2.263-6.853 4.461-8.422 17.133-24.99 46.916-22.046l-.94-7.726a5.05 5.05 0 0 1 3.831-5.514c6.913-1.682 21.43-4.123 38.912-.798" style="fill:none;stroke:#000;stroke-width:15;stroke-linecap:round;stroke-linejoin:round;stroke-miterlimit:10;stroke-dasharray:none;stroke-opacity:1" transform="translate(141.28 399.62)"/><path d="M0 0c-4.03-20.456-8.623-56.231-8.623-113.062h-53.285S-67.66-17.551-32.464 21.657c5.96 6.639 14.774 9.474 23.17 8.051" style="fill:none;stroke:#000;stroke-width:15;stroke-linecap:round;stroke-linejoin:round;stroke-miterlimit:10;stroke-dasharray:none;stroke-opacity:1" transform="translate(150.648 370.001)"/><path d="M0 0s-25.8 5.725-35.137 18.046" style="fill:none;stroke:#000;stroke-width:15;stroke-linecap:round;stroke-linejoin:round;stroke-miterlimit:10;stroke-dasharray:none;stroke-opacity:1" transform="translate(150.335 370.063)"/><path d="M0 0s-30.098-1.826-45.778 9.357" style="fill:none;stroke:#000;stroke-width:15;stroke-linecap:round;stroke-linejoin:round;stroke-miterlimit:10;stroke-dasharray:none;stroke-opacity:1" transform="translate(146.356 346.705)"/><path d="M0 0s-32.206-4.748-49.271 10.496" style="fill:none;stroke:#000;stroke-width:15;stroke-linecap:round;stroke-linejoin:round;stroke-miterlimit:10;stroke-dasharray:none;stroke-opacity:1" transform="translate(141.643 315.303)"/><path d="M0 0c-35.183 26.663-77.813 23.04-77.813 23.04 7.471-42.17 37.051-61.414 47.936-67.169a5.034 5.034 0 0 1 6.496 1.596l4.424 6.404C1.369-58.093 21.843-54.11 30.77-50.77c2.653.993 3.953 4.02 2.855 6.631-3.027 7.198-6.525 13.622-10.363 19.371" style="fill:none;stroke:#000;stroke-width:15;stroke-linecap:round;stroke-linejoin:round;stroke-miterlimit:10;stroke-dasharray:none;stroke-opacity:1" transform="translate(219.164 376.65)"/><path d="M0 0s30.558-7.279 53.113 2.723" style="fill:none;stroke:#000;stroke-width:15;stroke-linecap:round;stroke-linejoin:round;stroke-miterlimit:10;stroke-dasharray:none;stroke-opacity:1" transform="translate(89.463 287.038)"/><path d="M0 0h12.497" style="fill:none;stroke:#000;stroke-width:15;stroke-linecap:round;stroke-linejoin:round;stroke-miterlimit:10;stroke-dasharray:none;stroke-opacity:1" transform="translate(36.629 219.94)"/><path d="M0 0h12.496" style="fill:none;stroke:#000;stroke-width:15;stroke-linecap:round;stroke-linejoin:round;stroke-miterlimit:10;stroke-dasharray:none;stroke-opacity:1" transform="translate(181.887 263.208)"/><path d="M0 0h12.497" style="fill:none;stroke:#000;stroke-width:15;stroke-linecap:round;stroke-linejoin:round;stroke-miterlimit:10;stroke-dasharray:none;stroke-opacity:1" transform="translate(55.834 190.493)"/><path d="M0 0h12.497" style="fill:none;stroke:#000;stroke-width:15;stroke-linecap:round;stroke-linejoin:round;stroke-miterlimit:10;stroke-dasharray:none;stroke-opacity:1" transform="translate(36.629 53.876)"/><path d="M0 0c-12.573 0-12.573 8.048-25.147 8.048C-37.723 8.048-37.723 0-50.297 0-62.874 0-62.874 8.048-75.45 8.048S-88.026 0-100.604 0c-12.574 0-12.574 8.048-25.148 8.048S-138.326 0-150.901 0c-12.577 0-12.577 8.048-25.153 8.048S-188.63 0-201.207 0" style="fill:none;stroke:#000;stroke-width:15;stroke-linecap:round;stroke-linejoin:round;stroke-miterlimit:10;stroke-dasharray:none;stroke-opacity:1" transform="translate(479.61 164.774)"/><path d="M0 0c-12.573 0-12.573 8.048-25.147 8.048C-37.723 8.048-37.723 0-50.297 0-62.874 0-62.874 8.048-75.45 8.048S-88.026 0-100.604 0" style="fill:none;stroke:#000;stroke-width:15;stroke-linecap:round;stroke-linejoin:round;stroke-miterlimit:10;stroke-dasharray:none;stroke-opacity:1" transform="translate(321.23 109.606)"/><path d="M0 0c-12.574 0-12.574 8.048-25.148 8.048S-37.723 0-50.298 0C-62.874 0-62.874 8.048-75.45 8.048S-88.027 0-100.604 0" style="fill:none;stroke:#000;stroke-width:15;stroke-linecap:round;stroke-linejoin:round;stroke-miterlimit:10;stroke-dasharray:none;stroke-opacity:1" transform="translate(466.581 73.418)"/><path d="M0 0c-12.574 0-12.574 8.048-25.147 8.048C-37.723 8.048-37.723 0-50.298 0-62.874 0-62.874 8.048-75.45 8.048S-88.026 0-100.604 0" style="fill:none;stroke:#000;stroke-width:15;stroke-linecap:round;stroke-linejoin:round;stroke-miterlimit:10;stroke-dasharray:none;stroke-opacity:1" transform="translate(429.309 225.389)"/></g></svg>