<svg xmlns="http://www.w3.org/2000/svg" xml:space="preserve" width="682.665" height="682.667" viewBox="0 0 682.665 682.667"><defs><clipPath id="a" clipPathUnits="userSpaceOnUse"><path d="M0 512h512V0H0Z"/></clipPath></defs><g clip-path="url(#a)" transform="matrix(1.33333 0 0 -1.33333 0 682.667)"><path d="M0 0s14.435-48.209 2.935-95.459l2.13-3.651C26.837-76.626 50.501-36.72 6.999 7.138l-1.189.403L0 5.648Z" style="fill:#00f4a8;fill-opacity:1;fill-rule:nonzero;stroke:none" transform="translate(184.092 308.041)"/><path d="M0 0s48.75-22.5 81-73l4.038-3.056C85.769-40.02 73.97 12.787-1.707 11.831l-1.606-1.268-1.02-5.014z" style="fill:#00f4a8;fill-opacity:1;fill-rule:nonzero;stroke:none" transform="translate(199.277 325.832)"/><path d="m0 0-1.194-5.771S52.422-80.213 44.873-145.17l1.572-1.851 6.333 3.584 1.06 1.817C92.93-53.551 41.545-15.752 0 0" style="fill:#00f4a8;fill-opacity:1;fill-rule:nonzero;stroke:none" transform="translate(114.832 497.603)"/><path d="M0 0s55.42-8.924 89.753-39.795c2.18-1.96 4.219-3.79 6.133-5.505l10.367 3.217 1.718 1.859C77.814 21.978 32.146 17.376 0 3.355Z" style="fill:#00f4a8;fill-opacity:1;fill-rule:nonzero;stroke:none" transform="translate(36.024 407.832)"/><path d="M0 0c-29.056-4.667-40.861-51.917-40.861-51.917l1.693-2.66c30.213 28.65 60.109 39.854 81.264 44.089l1.127 1.957-.561 10.459C35.427 2.613 20.335 3.266 0 0" style="fill:#00f4a8;fill-opacity:1;fill-rule:nonzero;stroke:none" transform="translate(77.222 340.832)"/><path d="M0 0c-1.462.269-2.571 1.018-3.33 1.993-8.971-3.912-16.89-8.557-23.123-12.69-4.556-3.021-2.331-10.077 3.135-9.988 50.672.833 85.356-15.098 105.451-28.5h2.291l10.467 3.247C77.333-29.261 47.17-8.683 0 0" style="fill:#00e49d;fill-opacity:1;fill-rule:nonzero;stroke:none" transform="translate(39.353 409.194)"/><path d="M0 0c.961 29.866-4.978 84.52-48.986 144.742-7.738 2.934-15.135 5.104-21.541 6.691-6.34 1.569-10.752-6.091-6.257-10.829 47.667-50.243 59.132-99.799 61.492-127.175l1.209-2.124L-2.542-2.278.286-.679z" style="fill:#00e49d;fill-opacity:1;fill-rule:nonzero;stroke:none" transform="translate(163.819 352.86)"/><path d="M0 0s-35.181 40.156-74.431 37.906c-26.62-1.526-47.476-16.577-58.152-26.11l9.915-6.702 2.672-.377C-94.412 10.97-52.346 14.516 0-5.669Z" style="fill:#00f4a8;fill-opacity:1;fill-rule:nonzero;stroke:none" transform="translate(315.959 337.676)"/><path d="M0 0c58.623 48.434 105.282 13.327 130-15.72.482-.186.96-.36 1.445-.551 5.615-2.204 10.641 4.231 7.098 9.113C116.038 23.856 60.272 80.337-11.681 8.827l1.416-1.889z" style="fill:#00e49d;fill-opacity:1;fill-rule:nonzero;stroke:none" transform="translate(185.959 347.726)"/><path d="m0 0-2.235-10.976.627-1.975c21.025-10.365 55.119-33.918 79.856-84.264 2.41-4.906 9.706-3.672 10.318 1.76.569 5.046.991 10.894 1.016 17.184C59.377-30.304 22.788-9.105 0 0" style="fill:#00e49d;fill-opacity:1;fill-rule:nonzero;stroke:none" transform="translate(194.762 330.486)"/><path d="M0 0c9.229 27.623 31.199 64.215 81.962 54.027l-.698 13.035-1.204 1.878C18.458 83.748-2.492 31.472-9.174 3.749-10.329-1.04-4.53-4.333-.977-.92c.326.313.651.611.977.92" style="fill:#00e49d;fill-opacity:1;fill-rule:nonzero;stroke:none" transform="translate(38.054 286.255)"/><path d="M0 0c11.439 47.626 2.317 82.851-6.103 102.542l-9.553-3.111-2.495-2.064c7.356-20.044 14.708-55.933.485-103.219-1.419-4.717 4.155-8.379 7.892-5.169A146 146 0 0 1-.089-1.908 5.1 5.1 0 0 0 0 0" style="fill:#00e49d;fill-opacity:1;fill-rule:nonzero;stroke:none" transform="translate(189.246 210.839)"/><path d="M0 0a37.84 37.84 0 0 0-19.295-5.254c-10.548 0-20.091 4.294-26.98 11.228a10.485 10.485 0 0 1-14.897 0C-68.062-.96-77.604-5.254-88.153-5.254c-10.548 0-20.09 4.294-26.98 11.228a10.485 10.485 0 0 1-14.897 0c-6.889-6.934-16.432-11.228-26.98-11.228S-177.101-.96-183.991 5.974a10.483 10.483 0 0 1-14.097.727v-8.02l38.869-69.5H2.037l5.815 13.512V-4.43C7.852-.398 3.472 2.049 0 0" style="fill:#60b9fe;fill-opacity:1;fill-rule:nonzero;stroke:none" transform="translate(497.201 132.901)"/><path d="M0 0c-6.89-6.934-16.432-11.228-26.98-11.228-1.188 0-2.361.062-3.521.168v-1.983l48.236-60.438 4.586-3.312h33.798C42.119-47.69 23.308-21.543.799.728A11 11 0 0 1 0 0" style="fill:#1ca8ff;fill-opacity:1;fill-rule:nonzero;stroke:none" transform="translate(298.313 138.875)"/><path d="M0 0c-10.548 0-20.091 4.294-26.98 11.228a10.485 10.485 0 0 1-14.897 0C-48.767 4.294-58.31 0-68.858 0s-20.09 4.294-26.98 11.228a10.485 10.485 0 0 1-14.897 0 38 38 0 0 0-16.404-9.726l16.1-54.287 7.257-3.911H13.833c7.353 0 13.314 5.961 13.314 13.315v54.78C20.243 4.367 10.633 0 0 0" style="fill:#8bcaff;fill-opacity:1;fill-rule:nonzero;stroke:none" transform="translate(477.906 64.195)"/><path d="M0 0a278.7 278.7 0 0 1-19.51 50.722 38 38 0 0 0-12.215-2.017c-10.548 0-20.091 4.294-26.981 11.228-.38.383-.789.718-1.21 1.031v-1.455l26.777-63.542 4.223-3.958H2.208Z" style="fill:#60b9fe;fill-opacity:1;fill-rule:nonzero;stroke:none" transform="translate(371.916 15.49)"/><path d="M0 0c-16.755-7.533-28.432-24.353-28.432-43.915S-16.755-80.296 0-87.83c18.451 6.071 31.778 23.432 31.778 43.915S18.451-6.07 0 0" style="fill:#ffc365;fill-opacity:1;fill-rule:nonzero;stroke:none" transform="translate(425.073 292.242)"/><path d="M0 0c0 19.628 12.237 36.388 29.494 43.096a46.1 46.1 0 0 1-16.739 3.136c-25.533 0-46.233-20.698-46.233-46.232s20.7-46.232 46.233-46.232a46.1 46.1 0 0 1 16.739 3.137C12.237-36.387 0-19.628 0 0" style="fill:#ffa90f;fill-opacity:1;fill-rule:nonzero;stroke:none" transform="translate(397.863 248.327)"/><path d="m0 0-17.466-9.861-28.421 2.109-4.258 6.285a249 249 0 0 1-29.988-5.804v-164.224c0-4.907 2.987-9.146 7.231-11H223.09C195.422-82.382 107.008-7.498 0 0" style="fill:#ffdda8;fill-opacity:1;fill-rule:nonzero;stroke:none" transform="translate(119.91 189.994)"/><path d="M0 0v164.741a248 248 0 0 1-24.845-7.564 13.48 13.48 0 0 1-8.881-12.668V94.08l6.059-5.08.667-62.334-6.726-10.763V2.466C-33.726-4.972-27.697-11-20.26-11H7.231C2.987-9.146 0-4.907 0 0" style="fill:#ffc365;fill-opacity:1;fill-rule:nonzero;stroke:none" transform="translate(41.777 18.499)"/><path d="m0 0-4.455-.905-4.328-16.888-63.672-122.757-67.045-93.95-5.226-13.902v-43.028C-41.508-193.797-2.735-69.398 9.96-15.062v3.187z" style="fill:#dd8858;fill-opacity:1;fill-rule:nonzero;stroke:none" transform="translate(152.777 325.832)"/><path d="m0 0-14.942-3.036-3.124-2.721C-28.507-42.364-59.45-123.098-144.543-213.216v-35.149C-46.829-140.097-11.981-45.654 0 0" style="fill:#cb6c35;fill-opacity:1;fill-rule:nonzero;stroke:none" transform="translate(152.595 325.795)"/><path d="M0 0c-10.979-5.376-16.566-18.169-12.593-30.085C-10.406-36.641-5.74-41.663.01-44.484c6.088 2.65 11.071 7.772 13.337 14.567C17.357-17.891 11.419-4.947 0 0" style="fill:#938493;fill-opacity:1;fill-rule:nonzero;stroke:none" transform="translate(183.575 354.545)"/><path d="M0 0c-3.95 11.844 1.748 24.578 12.829 29.687a24 24 0 0 1-2.509.998c-6.843 2.282-13.982 1.339-19.778-1.997l-1.591-1.734-8.6-27.083v-1.74c2.634-6.147 7.779-11.186 14.622-13.468a24.17 24.17 0 0 1 17.856 1.002C6.973-11.625 2.202-6.604 0 0" style="fill:#7b6c79;fill-opacity:1;fill-rule:nonzero;stroke:none" transform="translate(171.264 324.628)"/><path d="M0 0c-5.571-2.957-10.062-7.97-12.215-14.426-3.993-11.975 1.411-24.815 12.209-30.537 6.351 2.571 11.582 7.798 13.92 14.809C17.99-17.931 11.789-4.758 0 0" style="fill:#938493;fill-opacity:1;fill-rule:nonzero;stroke:none" transform="translate(148.607 366.255)"/><path d="M0 0c2.192 6.575 6.931 11.58 12.75 14.299-.835.389-1.698.74-2.593 1.038C-2.552 19.575-16.29 12.709-20.528 0s2.629-26.446 15.337-30.685a24.18 24.18 0 0 1 17.934 1.039C1.72-24.511-3.939-11.813 0 0" style="fill:#7b6c79;fill-opacity:1;fill-rule:nonzero;stroke:none" transform="translate(137.027 351.447)"/><path d="M0 0a37.84 37.84 0 0 0-19.295-5.254c-10.548 0-20.091 4.294-26.98 11.228a10.485 10.485 0 0 1-14.897 0C-68.062-.96-77.605-5.254-88.153-5.254s-20.091 4.294-26.98 11.228a10.485 10.485 0 0 1-14.897 0c-6.89-6.934-16.432-11.228-26.981-11.228-10.548 0-20.09 4.294-26.98 11.228a10.485 10.485 0 0 1-14.897 0c-6.89-6.934-16.432-11.228-26.98-11.228-1.188 0-2.361.062-3.521.168 35.61-31.564 62.148-73.136 75.188-120.316H-5.463c7.354 0 13.315 5.961 13.315 13.314V-4.43C7.852-.398 3.472 2.049 0 0" style="fill:none;stroke:#000;stroke-width:15;stroke-linecap:round;stroke-linejoin:round;stroke-miterlimit:10;stroke-dasharray:none;stroke-opacity:1" transform="translate(496.649 132.901)"/><path d="M0 0c-10.548 0-20.09 4.294-26.98 11.228a10.485 10.485 0 0 1-14.897 0C-48.767 4.294-58.31 0-68.857 0c-10.549 0-20.091 4.294-26.981 11.228a10.485 10.485 0 0 1-14.897 0C-117.625 4.294-127.167 0-137.715 0s-20.091 4.294-26.98 11.228c-.381.383-.79.718-1.21 1.031a248.6 248.6 0 0 0 30.999-68.955H13.833c7.353 0 13.314 5.961 13.314 13.314v54.781C20.244 4.367 10.634 0 0 0" style="fill:none;stroke:#000;stroke-width:15;stroke-linecap:round;stroke-linejoin:round;stroke-miterlimit:10;stroke-dasharray:none;stroke-opacity:1" transform="translate(477.353 64.195)"/><path d="M0 0c-4.238-12.708 2.629-26.446 15.337-30.685 12.709-4.237 26.447 2.629 30.684 15.338C50.26-2.639 43.393 11.1 30.685 15.337S4.238 12.709 0 0" style="fill:none;stroke:#000;stroke-width:15;stroke-linecap:round;stroke-linejoin:round;stroke-miterlimit:10;stroke-dasharray:none;stroke-opacity:1" transform="translate(115.946 351.447)"/><path d="M0 0a24.2 24.2 0 0 0-17.086-2.721C-27.528-39.328-58.47-120.062-143.563-210.18v-78.176C-40.346-190.724-1.573-66.325 11.123-11.988A24.2 24.2 0 0 0 0 0" style="fill:none;stroke:#000;stroke-width:15;stroke-linecap:round;stroke-linejoin:round;stroke-miterlimit:10;stroke-dasharray:none;stroke-opacity:1" transform="translate(151.063 322.759)"/><path d="M0 0a24.16 24.16 0 0 1-.715 17.216c5.797 3.336 12.936 4.278 19.779 1.996 12.708-4.238 19.575-17.976 15.337-30.685S16.425-31.048 3.717-26.81c-6.843 2.283-11.988 7.322-14.622 13.468A24.16 24.16 0 0 1 0 0" style="fill:none;stroke:#000;stroke-width:15;stroke-linecap:round;stroke-linejoin:round;stroke-miterlimit:10;stroke-dasharray:none;stroke-opacity:1" transform="translate(161.968 336.1)"/><path d="M0 0a24.5 24.5 0 0 1-1.615-3.748c-2.459-7.375-1.173-15.093 2.819-21.104-21.383-4.279-51.696-15.669-82.24-45.008-3.553-3.413-9.353-.12-8.198 4.669C-82.552-37.469-61.602 14.808 0 0" style="fill:none;stroke:#000;stroke-width:15;stroke-linecap:round;stroke-linejoin:round;stroke-miterlimit:10;stroke-dasharray:none;stroke-opacity:1" transform="translate(117.561 355.195)"/><path d="M0 0c28.57 18.939 92.522 48.672 131.094-30.889-8.443 1.599-16.948-1.434-22.508-7.598C88.491-25.086 53.807-9.154 3.135-9.987-2.331-10.077-4.556-3.021 0 0" style="fill:none;stroke:#000;stroke-width:15;stroke-linecap:round;stroke-linejoin:round;stroke-miterlimit:10;stroke-dasharray:none;stroke-opacity:1" transform="translate(12.348 398.497)"/><path d="M0 0c40.809-10.105 121.751-43.84 75.379-148.311a24.3 24.3 0 0 1-6.865-2.666c-2.458 5.738-7.105 10.506-13.278 12.973-2.361 27.376-13.825 76.933-61.493 127.175C-10.751-6.091-6.339 1.569 0 0" style="fill:none;stroke:#000;stroke-width:15;stroke-linecap:round;stroke-linejoin:round;stroke-miterlimit:10;stroke-dasharray:none;stroke-opacity:1" transform="translate(92.739 504.293)"/><path d="M0 0c-53.021 20.815-95.621 17.247-121.441 10.937-2.701 5.897-7.74 10.706-14.378 12.919a24.2 24.2 0 0 1-7.307 1.242C-71.173 96.607-15.407 40.127 7.099 9.112 10.641 4.23 5.615-2.204 0 0" style="fill:none;stroke:#000;stroke-width:15;stroke-linecap:round;stroke-linejoin:round;stroke-miterlimit:10;stroke-dasharray:none;stroke-opacity:1" transform="translate(316.851 331.456)"/><path d="M0 0a24.2 24.2 0 0 1 3.767 7.093 24.15 24.15 0 0 1 .65 13.035c86.938 1.099 89.576-68.763 85.757-102.632-.612-5.432-7.908-6.666-10.319-1.76C55.119-33.918 21.025-10.365 0 0" style="fill:none;stroke:#000;stroke-width:15;stroke-linecap:round;stroke-linejoin:round;stroke-miterlimit:10;stroke-dasharray:none;stroke-opacity:1" transform="translate(192.601 317.535)"/><path d="M0 0c14.222 47.285 6.87 83.175-.486 103.219 7.467-.881 14.827 1.794 19.996 6.972C69.722 59.571 30.453 14.209 7.892-5.17 4.155-8.38-1.419-4.718 0 0" style="fill:none;stroke:#000;stroke-width:15;stroke-linecap:round;stroke-linejoin:round;stroke-miterlimit:10;stroke-dasharray:none;stroke-opacity:1" transform="translate(171.028 204.987)"/><path d="M0 0h12.249" style="fill:none;stroke:#000;stroke-width:15;stroke-linecap:round;stroke-linejoin:round;stroke-miterlimit:10;stroke-dasharray:none;stroke-opacity:1" transform="translate(483.651 248.327)"/><path d="M0 0h12.25" style="fill:none;stroke:#000;stroke-width:15;stroke-linecap:round;stroke-linejoin:round;stroke-miterlimit:10;stroke-dasharray:none;stroke-opacity:1" transform="translate(324.23 248.327)"/><path d="m0 0 8.662 8.661" style="fill:none;stroke:#000;stroke-width:15;stroke-linecap:round;stroke-linejoin:round;stroke-miterlimit:10;stroke-dasharray:none;stroke-opacity:1" transform="translate(462.099 300.36)"/><path d="m0 0 8.662 8.662" style="fill:none;stroke:#000;stroke-width:15;stroke-linecap:round;stroke-linejoin:round;stroke-miterlimit:10;stroke-dasharray:none;stroke-opacity:1" transform="translate(349.372 187.633)"/><path d="M0 0v12.249" style="fill:none;stroke:#000;stroke-width:15;stroke-linecap:round;stroke-linejoin:round;stroke-miterlimit:10;stroke-dasharray:none;stroke-opacity:1" transform="translate(410.066 321.913)"/><path d="M0 0v12.249" style="fill:none;stroke:#000;stroke-width:15;stroke-linecap:round;stroke-linejoin:round;stroke-miterlimit:10;stroke-dasharray:none;stroke-opacity:1" transform="translate(410.066 162.493)"/><path d="m0 0-8.662 8.661" style="fill:none;stroke:#000;stroke-width:15;stroke-linecap:round;stroke-linejoin:round;stroke-miterlimit:10;stroke-dasharray:none;stroke-opacity:1" transform="translate(358.033 300.36)"/><path d="m0 0-8.662 8.662" style="fill:none;stroke:#000;stroke-width:15;stroke-linecap:round;stroke-linejoin:round;stroke-miterlimit:10;stroke-dasharray:none;stroke-opacity:1" transform="translate(470.76 187.633)"/><path d="M0 0a248.3 248.3 0 0 1-52.833-12.852 13.48 13.48 0 0 1-8.88-12.669v-50.427C-36.771-49.533-16.483-23.928 0 0" style="fill:none;stroke:#000;stroke-width:15;stroke-linecap:round;stroke-linejoin:round;stroke-miterlimit:10;stroke-dasharray:none;stroke-opacity:1" transform="translate(69.212 188.527)"/><path d="M0 0h149.975C122.306 100.113 33.892 174.997-73.116 182.495c-24.19-50.403-59.846-106.393-111.858-155.592V13.466c0-7.438 6.029-13.466 13.465-13.466H-35" style="fill:none;stroke:#000;stroke-width:15;stroke-linecap:round;stroke-linejoin:round;stroke-miterlimit:10;stroke-dasharray:none;stroke-opacity:1" transform="translate(192.473 7.499)"/><path d="M0 0c-6.741 17.189-23.465 29.366-43.044 29.366-25.534 0-46.233-20.698-46.233-46.232s20.699-46.233 46.233-46.233c19.096 0 35.485 11.58 42.537 28.099" style="fill:none;stroke:#000;stroke-width:15;stroke-linecap:round;stroke-linejoin:round;stroke-miterlimit:10;stroke-dasharray:none;stroke-opacity:1" transform="translate(453.11 265.193)"/></g></svg>