<svg xmlns="http://www.w3.org/2000/svg" width="512" height="512" viewBox="0 0 512 512"><path fill="#5ed8f6" d="M3.8 327.012h496.999V504.5H3.7z"/><path fill="#e1f3ff" d="m213.314 422.435-36.578-222.471c-1.574-9.568-16.375-7.136-14.801 2.434l36.578 222.471c1.543 9.384 16.389 7.22 14.801-2.434"/><path fill="#ffd686" d="M3.7 406.25c30.333-41.318 88.599-59.65 137.157-43.155 57.347 19.48 98.373 80.6 158.871 83.584 28.042 1.383 54.773-10.438 81.275-19.701 26.501-9.262 75.26-25.049 119.639 12.196V504.5H3.7z"/><path fill="#f7ca6d" d="M100.858 363.094c57.347 19.48 98.373 80.6 158.871 83.584 8.482.418 16.844-.377 25.117-1.939-52.635-11.049-91.468-63.805-143.988-81.645-18.43-6.261-38.257-7.493-57.426-4.367 5.9.996 11.731 2.433 17.426 4.367m314.984 54.321.443.086c25.855 5.101 44.357 28.006 44.357 54.359v32.64h40v-65.326c-28.856-24.218-59.563-26.012-84.8-21.759"/><path fill="#fe75a7" d="M349.189 223.441c-3.105-18.883-20.929-31.673-39.812-28.569-18.883 3.105-31.673 20.929-28.569 39.812-3.105-18.883-20.929-31.673-39.812-28.569-18.883 3.105-31.673 20.929-28.569 39.812-3.105-18.883-20.929-31.673-39.812-28.569s-31.673 20.929-28.569 39.812c-3.105-18.883-20.929-31.673-39.812-28.569s-31.673 20.929-28.569 39.812c-3.105-18.883-20.929-31.673-39.812-28.569-18.883 3.105-31.673 20.929-28.569 39.812l-1.16.191C-9.444 185.128 54.716 95.718 149.435 80.144s184.129 48.586 199.702 143.305z"/><path fill="#fe5995" d="M349.189 223.441a36 36 0 0 0-.448-2.222c.132.743.273 1.483.396 2.23zM157.817 78.977c66.256 7.712 123.363 53.324 144.732 117.745a35 35 0 0 1 6.828-1.849c18.131-2.981 35.278 8.697 39.363 26.347-16.107-90.706-100.11-152.738-190.923-142.243"/><path fill="none" d="m149.461 80.14-.01.002.049-.007z"/><path fill="#e1f3ff" d="m149.5 80.134-.049.007c-55.457 9.127-88.524 90.157-75.276 182.44a35 35 0 0 1 1.494 5.831c-3.105-18.883 9.686-35.707 28.569-38.812s36.707 8.686 39.811 27.569c-3.105-18.883 9.686-36.707 28.569-39.812s36.707 9.686 39.811 28.569c-3.105-18.883 9.686-35.707 28.569-38.812 16.598-2.729 32.373 5.826 38.058 21.001C261.888 136.859 204.798 71.078 149.5 80.134"/><path fill="none" d="M150.232 80.014c-.041.007-.08.02-.121.028l.306-.046c-.061.008-.124.008-.185.018"/><path fill="#fe75a7" d="m150.417 79.995-.306.046c-18.522 3.381-21.332 80.517-6.469 173.386-.968-17.441 11.346-33.17 28.975-36.069 18.883-3.105 36.707 9.686 39.811 28.569a35 35 0 0 1-.399-3.551c-15.631-92.727-42.971-164.943-61.612-162.381"/><path fill="#5ed8f6" d="M349.189 223.441a36 36 0 0 0-.448-2.221c.132.743.273 1.483.396 2.23z"/><circle cx="425.178" cy="83.122" r="34.035" fill="#ffd500"/><path fill="#ffc400" d="M425.178 49.087a33.87 33.87 0 0 0-20 6.503c8.503 6.188 14.035 16.211 14.035 27.532s-5.532 21.344-14.035 27.532a33.87 33.87 0 0 0 20 6.503c18.797 0 34.035-15.238 34.035-34.035-.001-18.797-15.238-34.035-34.035-34.035"/><path fill="#fff1ab" d="M425.178 0a7.5 7.5 0 0 0-7.5 7.5v17.758a7.5 7.5 0 0 0 15 0V7.5a7.5 7.5 0 0 0-7.5-7.5m0 133.486a7.5 7.5 0 0 0-7.5 7.5v17.758a7.5 7.5 0 0 0 15 0v-17.758a7.5 7.5 0 0 0-7.5-7.5m40.916-83.78a7.47 7.47 0 0 0 5.303-2.197l12.557-12.557a7.5 7.5 0 0 0 0-10.606 7.5 7.5 0 0 0-10.606 0L460.79 36.903a7.5 7.5 0 0 0 5.304 12.803m-87.136 69.029-12.557 12.557a7.5 7.5 0 0 0 5.303 12.803 7.47 7.47 0 0 0 5.303-2.197l12.557-12.557a7.5 7.5 0 0 0 0-10.606 7.5 7.5 0 0 0-10.606 0M500.8 75.622h-17.758a7.5 7.5 0 0 0 0 15H500.8a7.5 7.5 0 0 0 0-15m-125.987 7.5a7.5 7.5 0 0 0-7.5-7.5h-17.758a7.5 7.5 0 0 0 0 15h17.758a7.5 7.5 0 0 0 7.5-7.5m96.584 35.613c-2.928-2.929-7.677-2.929-10.606 0s-2.929 7.677 0 10.606l12.557 12.557c1.464 1.465 3.384 2.197 5.303 2.197s3.839-.732 5.303-2.197a7.5 7.5 0 0 0 0-10.606zm-94.389-94.389a7.5 7.5 0 0 0-10.606 0 7.5 7.5 0 0 0 0 10.606l12.557 12.557c1.464 1.465 3.384 2.197 5.303 2.197s3.839-.732 5.303-2.197a7.5 7.5 0 0 0 0-10.606z"/><path fill="#e7a661" d="M30.56 440.643c9.652 0 9.668-15 0-15-9.652 0-9.668 15 0 15m103.556 41.865c9.652 0 9.668-15 0-15-9.651 0-9.667 15 0 15m26.093-56.733c9.652 0 9.668-15 0-15-9.652 0-9.668 15 0 15M358.976 512c9.652 0 9.668-15 0-15-9.652 0-9.668 15 0 15m88.946-41.708c9.652 0 9.668-15 0-15-9.652 0-9.668 15 0 15"/><path fill="#26c8f0" d="M344.849 386.235h-57.717c-9.697 0-9.697 15 0 15h57.717c9.697 0 9.697-15 0-15m114.363-30.668H330.216c-9.697 0-9.697 15 0 15h128.997c9.697 0 9.697-15-.001-15"/></svg>