<svg xmlns="http://www.w3.org/2000/svg" width="512" height="512" viewBox="0 0 512 512"><path fill="#00f4a8" d="M181.353 202.389s14.871 49.664 3.024 98.339l2.194 3.761c22.43-23.163 46.808-64.273 1.992-109.454l-1.224-.415-5.985 1.949zm15.644-18.328s50.221 23.179 83.444 75.203l4.16 3.148c.753-37.124-11.402-91.524-89.362-90.539l-1.654 1.307-1.052 5.165zM110.003 7.107l-1.23 5.945s55.234 76.689 47.457 143.606l1.62 1.906 6.525-3.691 1.092-1.872c40.271-90.728-12.664-129.667-55.464-145.894M28.817 99.586s57.093 9.193 92.462 40.996c2.245 2.019 4.346 3.904 6.317 5.671l10.681-3.313 1.769-1.915c-31.067-64.08-78.114-59.339-111.229-44.896zm42.441 69.022c-29.932 4.807-42.094 53.483-42.094 53.483l1.744 2.741c31.124-29.515 61.923-41.057 83.716-45.419l1.161-2.016-.578-10.774c-7.454-.708-23.001-1.38-43.949 1.985"/><path fill="#00e49d" d="M32.247 98.183c-1.506-.277-2.649-1.048-3.43-2.054-9.242 4.031-17.4 8.817-23.821 13.074-4.694 3.111-2.401 10.381 3.229 10.288 52.201-.858 87.932 15.554 108.634 29.361h2.36l10.783-3.345c-18.089-17.181-49.162-38.379-97.755-47.324m128.221 58.034c.99-30.767-5.127-87.07-50.465-149.11-7.971-3.022-15.591-5.258-22.191-6.892-6.531-1.617-11.076 6.274-6.446 11.155 49.105 51.759 60.916 102.81 63.348 131.013l1.245 2.187 11.89 13.993 2.913-1.648z"/><path fill="#00f4a8" d="M317.199 171.86s-36.243-41.368-76.677-39.05c-27.423 1.572-48.909 17.077-59.906 26.898l10.214 6.905 2.753.388c26.356-6.441 69.691-10.094 123.617 10.7z"/><path fill="#00e49d" d="M183.276 161.506c60.392-49.896 108.459-13.729 133.923 16.194.497.192.989.371 1.489.567 5.784 2.271 10.962-4.358 7.313-9.387-23.185-31.951-80.633-90.135-154.758-16.468l1.459 1.945zm9.069 17.76-2.302 11.307.646 2.035c21.659 10.679 56.782 34.942 82.265 86.807 2.483 5.054 9.999 3.783 10.63-1.813a165 165 0 0 0 1.047-17.702c-31.117-49.416-68.811-71.254-92.286-80.634M30.908 224.832c9.507-28.456 32.14-66.152 84.436-55.657l-.72-13.428-1.24-1.935c-63.461-15.254-85.043 38.599-91.927 67.158-1.189 4.934 4.785 8.326 8.445 4.81.335-.322.67-.63 1.006-.948m155.755 77.691c11.784-49.063 2.387-85.35-6.287-105.636l-9.842 3.205-2.571 2.126c7.578 20.649 15.152 57.621.5 106.333-1.462 4.86 4.28 8.633 8.13 5.326a150 150 0 0 0 9.977-9.388 5.2 5.2 0 0 1 .093-1.966"/><path fill="#60b9fe" d="M503.91 382.813a39 39 0 0 1-19.877 5.413c-10.866 0-20.697-4.423-27.794-11.567a10.8 10.8 0 0 0-15.346 0c-7.098 7.143-16.928 11.567-27.795 11.567s-20.697-4.423-27.794-11.567a10.8 10.8 0 0 0-15.346 0c-7.098 7.143-16.928 11.567-27.795 11.567-10.866 0-20.697-4.423-27.794-11.567-3.975-4-10.26-4.25-14.523-.749v8.262l40.042 71.597H506.01l5.991-13.92v-54.472c-.001-4.154-4.514-6.675-8.091-4.564"/><path fill="#1ca8ff" d="M299.021 376.659c-7.098 7.143-16.928 11.567-27.795 11.567-1.224 0-2.432-.064-3.627-.173v2.043l49.691 62.262 4.725 3.412h34.817c-14.422-29.981-33.801-56.918-56.988-79.86q-.425.35-.823.749"/><path fill="#8bcaff" d="M484.033 453.593c-10.866 0-20.697-4.423-27.794-11.567a10.8 10.8 0 0 0-15.346 0c-7.098 7.143-16.928 11.567-27.795 11.567s-20.697-4.423-27.794-11.567a10.8 10.8 0 0 0-15.346 0 39.15 39.15 0 0 1-16.899 10.019l16.585 55.925 7.476 4.03h121.163c7.575 0 13.716-6.141 13.716-13.717v-56.434c-7.112 7.245-17.011 11.744-27.966 11.744"/><path fill="#60b9fe" d="M374.845 503.767a287 287 0 0 0-20.099-52.252 39.1 39.1 0 0 1-12.584 2.077c-10.866 0-20.697-4.423-27.794-11.567a11 11 0 0 0-1.246-1.062v1.5l27.585 65.459 4.35 4.077h32.063z"/><path fill="#ffc365" d="M429.606 218.664c-17.261 7.761-29.29 25.087-29.29 45.24s12.029 37.479 29.29 45.24c19.008-6.254 32.737-24.138 32.737-45.24s-13.729-38.987-32.737-45.24"/><path fill="#ffa90f" d="M401.575 263.904c0-20.22 12.607-37.485 30.384-44.395a47.5 47.5 0 0 0-17.244-3.232c-26.304 0-47.628 21.324-47.628 47.628s21.324 47.628 47.628 47.628a47.5 47.5 0 0 0 17.244-3.232c-17.777-6.912-30.384-24.177-30.384-44.397"/><path fill="#ffc365" d="M503.139 271.63H490.52a7.726 7.726 0 1 1 0-15.452h12.619a7.726 7.726 0 1 1 0 15.452m-164.23 0H326.29a7.726 7.726 0 1 1 0-15.452h12.619a7.726 7.726 0 1 1 0 15.452m123.945-55.866a7.725 7.725 0 0 1 0-10.926l8.923-8.923a7.726 7.726 0 0 1 10.926.001 7.726 7.726 0 0 1 0 10.927l-8.923 8.922a7.726 7.726 0 0 1-10.926-.001m-116.128 116.13a7.725 7.725 0 0 1 0-10.926l8.923-8.923a7.727 7.727 0 0 1 10.927-.001 7.725 7.725 0 0 1 0 10.926l-8.923 8.924a7.727 7.727 0 0 1-10.927 0m67.989-136.07a7.726 7.726 0 0 1-7.726-7.726v-12.619a7.726 7.726 0 1 1 15.452 0v12.619a7.726 7.726 0 0 1-7.726 7.726m0 164.231a7.726 7.726 0 0 1-7.726-7.726V339.71a7.726 7.726 0 1 1 15.452 0v12.619a7.726 7.726 0 0 1-7.726 7.726m-59.066-144.29-8.923-8.922a7.726 7.726 0 0 1 10.926-10.928l8.923 8.923a7.727 7.727 0 0 1-10.926 10.927m116.128 116.128-8.923-8.924a7.725 7.725 0 0 1 0-10.926 7.727 7.727 0 0 1 10.927.001l8.923 8.923a7.726 7.726 0 0 1-10.927 10.926"/><path fill="#ffdda8" d="m115.234 323.998-17.993 10.159-29.278-2.173-4.387-6.474a257 257 0 0 0-30.892 5.979v169.179c0 5.055 3.077 9.422 7.449 11.332h304.924c-28.504-103.135-119.586-180.278-229.823-188.002"/><path fill="#ffc365" d="M34.744 500.668V330.956a255 255 0 0 0-25.595 7.792A13.89 13.89 0 0 0 0 351.799v51.95l6.242 5.233.687 64.214L0 484.284v13.844C0 505.789 6.211 512 13.872 512h28.321c-4.372-1.911-7.449-6.278-7.449-11.332"/><path fill="#dd8858" d="m149.093 184.061-4.59.932-4.458 17.398-65.593 126.461-69.068 96.785L0 439.959v44.325c106.332-100.578 146.276-228.731 159.354-284.707v-3.283z"/><path fill="#cb6c35" d="m148.905 184.099-15.393 3.127-3.218 2.803C119.537 227.742 87.661 310.911 0 403.749v36.21c100.663-111.536 136.562-208.829 148.905-255.86"/><path fill="#938493" d="M180.82 154.481c-11.311 5.538-17.067 18.717-12.973 30.992 2.252 6.754 7.059 11.928 12.983 14.834 6.272-2.73 11.405-8.007 13.739-15.007 4.132-12.389-1.985-25.723-13.749-30.819"/><path fill="#7b6c79" d="M168.137 185.301c-4.069-12.201 1.801-25.32 13.216-30.583a25 25 0 0 0-2.584-1.027c-7.05-2.351-14.404-1.38-20.376 2.056l-1.638 1.787-8.86 27.901v1.792c2.714 6.333 8.014 11.524 15.063 13.875a24.9 24.9 0 0 0 18.394-1.032c-6.031-2.794-10.946-7.966-13.215-14.769"/><path fill="#938493" d="M144.797 142.418c-5.739 3.046-10.366 8.211-12.583 14.861-4.114 12.337 1.454 25.565 12.577 31.459 6.543-2.649 11.932-8.034 14.34-15.255 4.199-12.594-2.189-26.164-14.334-31.065"/><path fill="#7b6c79" d="M132.868 157.672c2.259-6.773 7.14-11.929 13.135-14.73a25 25 0 0 0-2.672-1.07c-13.092-4.366-27.245 2.708-31.61 15.8-4.366 13.092 2.708 27.244 15.8 31.61 6.319 2.107 12.882 1.543 18.475-1.07-11.357-5.29-17.187-18.37-13.128-30.54"/></svg>