<svg xmlns="http://www.w3.org/2000/svg" width="512" height="512" viewBox="0 0 512 512"><path fill="#8dcafc" d="M512 242.97v255.64c0 5.69-4.61 10.3-10.3 10.3H170.29s46.53-4.36 34.65-38.71-29.05-54.51-9.64-77.66c19.42-23.15-42.56-27.63-25.01-46.3 17.54-18.67 100.11-5.36 90.49-38.55-9.62-33.2 75.56-20.69 82.23-40.39 4.33-12.76-17.13-25.33-38.67-34.63H501.7c5.69 0 10.3 4.61 10.3 10.3"/><path fill="#64b9fc" d="M512 262.668H0v-29.996h501.698c5.69 0 10.302 4.612 10.302 10.302z"/><path fill="#c4e1ff" d="M371.405 267.304c-6.676 19.698-91.854 7.191-82.232 40.385s-72.95 19.883-90.494 38.551c-17.545 18.668 44.433 23.149 25.014 46.298-19.409 23.149-2.236 43.31 9.643 77.658 11.878 34.358-34.657 38.716-34.657 38.716H10.303c-5.69 0-10.302-4.612-10.302-10.302V232.668h332.73c21.542 9.303 43.001 21.872 38.674 34.636"/><path fill="#b5dbfd" d="M371.879 262.668H.001v-30h332.73c18.925 8.17 37.778 18.863 39.148 30"/><path fill="#fee7c9" d="M128.924 508.907s68.18.347 68.18-59.237c0-53.993-90.564-74.176-90.564-101.455 0-49.849 194.283-21.959 194.283-115.543 0 0-44.602-25.662-290.49-26.364C4.635 206.292 0 210.912 0 216.611v281.997c0 5.69 4.612 10.302 10.302 10.302z"/><path fill="#ffd496" d="M106.536 348.217c0 27.28 90.566 47.462 90.566 101.456 0 59.577-68.18 59.238-68.18 59.238h-15.34c19.121-7.325 39.828-23.293 39.828-58.135 0-58.63-94.873-80.543-94.873-110.161 0-52.85 194.073-25.22 203.2-118.506 30.484 5.615 39.087 10.56 39.087 10.56.001 93.584-194.288 65.696-194.288 115.548"/><ellipse cx="115.336" cy="261.801" fill="#ffd496" rx="65.973" ry="18.975"/><path fill="#a3e440" d="M122.896 106.693s41.341-72.002 122.284-54.914c2.855.603 4.655 3.481 3.938 6.309-2.412 9.518-11.057 29.189-41.582 33.505l2.824 7.504a5.185 5.185 0 0 1-2.461 6.437c-11.262 5.838-44.916 19.585-85.003 1.159"/><path fill="#99d53b" d="M249.118 58.087c-2.411 9.519-11.054 29.186-41.58 33.503l2.823 7.51a5.19 5.19 0 0 1-2.462 6.439c-11.26 5.831-44.918 19.584-85.003 1.154 0 0 1.092-1.906 3.276-5.027 30.113 6.274 54.004-3.678 63.142-8.407a5.187 5.187 0 0 0 2.462-6.439l-.002-.005c-1.437-3.822.815-7.982 4.771-8.991 21.302-5.432 29.63-19.159 32.875-28.329 5.069.391 10.323 1.144 15.762 2.287 2.854.598 4.657 3.482 3.936 6.305"/><path fill="#bcea73" d="M153.733 119.497s8.466-82.593-67.229-115.971c-2.67-1.177-5.811.109-6.88 2.824-3.598 9.136-8.062 30.154 14.203 51.478l-6.674 4.444a5.185 5.185 0 0 0-1.76 6.663c5.737 11.314 25.036 42.121 68.34 50.562"/><path fill="#a3e440" d="M153.73 119.499c-7.387-1.442-14.083-3.534-20.131-6.068-1.216-23.355-9.756-70.24-56.621-96.593A43.5 43.5 0 0 1 79.626 6.35c1.071-2.709 4.203-3.997 6.882-2.823 75.691 33.379 67.222 115.972 67.222 115.972"/><path fill="#a3e440" d="M144.313 113.975s-57.21-60.17-131.809-24.406c-2.63 1.261-3.697 4.482-2.332 7.06 4.596 8.676 17.651 25.744 48.333 22.711l-.968 7.96a5.2 5.2 0 0 0 3.946 5.679c12.355 3.006 48.274 8.363 82.83-19.004"/><path fill="#99d53b" d="M10.175 96.627a43 43 0 0 0 7.477 10.139c52.127-23.53 95.436-.612 116.093 14.585a106 106 0 0 0 10.565-7.374S87.104 53.811 12.504 89.571c-2.631 1.258-3.695 4.48-2.329 7.056"/><path fill="#c76d3d" d="M153.609 115.249s-15.024 35.45-15.024 139.783H83.691s-5.925-98.393 30.334-138.784c8.361-9.314 22.173-11.361 32.929-4.96z"/><path fill="#aa5e33" d="M153.607 115.254s-15.021 35.45-15.021 139.78h-19.801c0-92.678 10.941-135.165 14.876-147.455a26.33 26.33 0 0 1 13.29 3.709z"/><path fill="#d67f4f" d="M147.153 146.222c-.554 0-1.118-.06-1.681-.185-3.004-.666-29.666-6.932-40.681-21.467a7.727 7.727 0 0 1 12.316-9.333c6.452 8.514 25.085 14.231 31.719 15.716a7.728 7.728 0 0 1-1.673 15.269m-9.046 24.179c-10.279 0-32.742-1.234-46.706-11.193a7.726 7.726 0 1 1 8.972-12.581c11.374 8.112 34.323 8.684 42.213 8.217 4.221-.253 7.914 2.994 8.17 7.252a7.723 7.723 0 0 1-7.241 8.173c-.32.02-2.312.132-5.408.132m-11.708 32.953c-12.526 0-31.415-2.155-44.114-13.497a7.726 7.726 0 1 1 10.293-11.525c7.386 6.598 18.794 8.714 27.062 9.328 9.58.712 17.357-.387 17.434-.398 4.21-.611 8.139 2.311 8.756 6.531a7.72 7.72 0 0 1-6.513 8.759c-.549.08-5.668.802-12.918.802"/><path fill="#99d53b" d="M137.89 107.973s82.726-7.05 114.802 69.206c1.131 2.69-.208 5.808-2.941 6.831-9.196 3.441-30.288 7.544-51.227-15.083l-4.558 6.597a5.186 5.186 0 0 1-6.692 1.645c-11.214-5.93-41.686-25.754-49.384-69.196"/><path fill="#8dc637" d="M249.747 184.011c-3.884 1.453-9.9 3.029-17.133 2.658-21.624-50.182-65.357-63.74-92.029-67.201a106 106 0 0 1-2.699-11.497s82.727-7.047 114.808 69.21c1.132 2.688-.207 5.81-2.947 6.83"/><path fill="#d67f4f" d="M109.269 234.387c-14.395 0-25.817-2.654-26.623-2.846a7.725 7.725 0 0 1 3.578-15.033c.504.118 29.363 6.709 49.798-2.351a7.727 7.727 0 1 1 6.263 14.126c-10.632 4.715-22.603 6.104-33.016 6.104"/><path fill="#fcc16d" d="M42.882 300.874H30.008a7.726 7.726 0 1 1 0-15.452h12.874a7.725 7.725 0 0 1 7.726 7.726 7.725 7.725 0 0 1-7.726 7.726m155.822-50.754h-12.873a7.726 7.726 0 1 1 0-15.452h12.873c4.268 0 7.726 3.459 7.726 7.726s-3.458 7.726-7.726 7.726M62.667 331.21H49.793a7.726 7.726 0 1 1 0-15.452h12.874c4.268 0 7.726 3.459 7.726 7.726s-3.458 7.726-7.726 7.726M42.882 471.951H30.008a7.726 7.726 0 1 1 0-15.452h12.874a7.725 7.725 0 0 1 7.726 7.726 7.725 7.725 0 0 1-7.726 7.726"/><path fill="#b5dbfd" d="M486.359 357.706c-8.737 0-13.581-3.101-17.118-5.365-2.852-1.825-4.572-2.927-8.789-2.927s-5.938 1.102-8.79 2.927c-3.537 2.264-8.381 5.364-17.119 5.364-8.739 0-13.583-3.101-17.122-5.364-2.852-1.825-4.573-2.927-8.791-2.927-4.217 0-5.939 1.102-8.791 2.927-3.538 2.264-8.382 5.364-17.122 5.364-8.737 0-13.582-3.101-17.119-5.365-2.852-1.825-4.572-2.927-8.789-2.927s-5.937 1.102-8.789 2.927c-3.537 2.264-8.381 5.365-17.12 5.365s-13.583-3.101-17.121-5.364c-2.852-1.825-4.573-2.927-8.791-2.927-4.217 0-5.939 1.102-8.791 2.927-3.538 2.264-8.382 5.364-17.122 5.364a7.726 7.726 0 1 1 0-15.452c4.218 0 5.94-1.102 8.792-2.927 3.538-2.264 8.382-5.364 17.121-5.364s13.583 3.101 17.121 5.364c2.852 1.825 4.573 2.927 8.791 2.927 4.216 0 5.938-1.102 8.79-2.927 3.537-2.264 8.381-5.364 17.119-5.364s13.582 3.101 17.119 5.365c2.852 1.825 4.572 2.927 8.789 2.927 4.218 0 5.94-1.102 8.792-2.927 3.538-2.264 8.382-5.364 17.121-5.364s13.582 3.1 17.121 5.364c2.852 1.825 4.573 2.927 8.792 2.927 4.216 0 5.937-1.102 8.789-2.927 3.537-2.264 8.381-5.365 17.12-5.365s13.582 3.101 17.119 5.365c2.851 1.825 4.572 2.927 8.788 2.927a7.725 7.725 0 0 1 7.726 7.726 7.725 7.725 0 0 1-7.726 7.726m-148.123 56.832c-8.737 0-13.582-3.101-17.118-5.365-2.852-1.825-4.572-2.927-8.789-2.927s-5.938 1.102-8.79 2.927c-3.537 2.264-8.381 5.364-17.119 5.364-8.739 0-13.583-3.101-17.122-5.364-2.852-1.825-4.573-2.927-8.791-2.927-4.217 0-5.939 1.102-8.791 2.927-3.538 2.264-8.382 5.364-17.122 5.364a7.726 7.726 0 1 1 0-15.452c4.218 0 5.94-1.102 8.792-2.927 3.538-2.264 8.382-5.364 17.121-5.364s13.583 3.1 17.121 5.364c2.852 1.825 4.573 2.927 8.792 2.927 4.216 0 5.937-1.102 8.789-2.927 3.537-2.264 8.381-5.365 17.12-5.365 8.738 0 13.583 3.101 17.119 5.365 2.851 1.825 4.572 2.927 8.788 2.927a7.725 7.725 0 0 1 7.726 7.726 7.726 7.726 0 0 1-7.726 7.727"/><path fill="#64b9fc" d="M472.937 451.819c-8.737 0-13.581-3.101-17.119-5.365-2.852-1.825-4.572-2.927-8.789-2.927s-5.937 1.102-8.789 2.927c-3.537 2.264-8.381 5.365-17.12 5.365s-13.583-3.101-17.121-5.364c-2.852-1.825-4.573-2.927-8.791-2.927s-5.94 1.102-8.792 2.927c-3.538 2.264-8.382 5.364-17.121 5.364a7.726 7.726 0 1 1 0-15.452c4.217 0 5.939-1.102 8.791-2.927 3.538-2.264 8.382-5.364 17.122-5.364 8.738 0 13.583 3.101 17.121 5.364 2.852 1.825 4.573 2.927 8.791 2.927 4.216 0 5.938-1.102 8.79-2.927 3.537-2.264 8.381-5.364 17.119-5.364s13.581 3.101 17.119 5.365c2.852 1.825 4.572 2.927 8.789 2.927a7.725 7.725 0 1 1 0 15.451m-38.398-156.557c-8.738 0-13.583-3.101-17.119-5.365-2.851-1.825-4.572-2.927-8.788-2.927s-5.938 1.102-8.79 2.927c-3.537 2.264-8.381 5.364-17.12 5.364-8.738 0-13.583-3.101-17.121-5.364-2.852-1.825-4.573-2.927-8.791-2.927-4.217 0-5.939 1.102-8.791 2.927-3.538 2.264-8.382 5.364-17.122 5.364a7.726 7.726 0 1 1 0-15.452c4.218 0 5.94-1.102 8.792-2.927 3.538-2.264 8.382-5.364 17.121-5.364s13.584 3.101 17.121 5.364c2.852 1.825 4.573 2.927 8.791 2.927 4.216 0 5.938-1.102 8.79-2.927 3.537-2.264 8.381-5.364 17.12-5.364 8.737 0 13.582 3.101 17.118 5.364 2.852 1.825 4.572 2.927 8.789 2.927a7.725 7.725 0 0 1 7.726 7.726 7.726 7.726 0 0 1-7.726 7.727"/><path fill="#ffd496" d="M154.871 261.141c-3.56-7.129-22.168-12.566-44.601-12.566s-41.042 5.437-44.601 12.566z"/></svg>