<svg xmlns="http://www.w3.org/2000/svg" xml:space="preserve" width="682.665" height="682.667" viewBox="0 0 682.665 682.667"><defs><clipPath id="a" clipPathUnits="userSpaceOnUse"><path d="M0 512h512V0H0Z"/></clipPath></defs><g clip-path="url(#a)" transform="matrix(1.33333 0 0 -1.33333 0 682.667)"><path d="M0 0a37.84 37.84 0 0 0-19.295-5.254c-10.548 0-20.091 4.294-26.98 11.228a10.485 10.485 0 0 1-14.897 0C-68.062-.96-77.605-5.254-88.153-5.254s-20.091 4.294-26.98 11.228a10.485 10.485 0 0 1-14.897 0c-6.89-6.934-16.432-11.228-26.981-11.228-10.548 0-20.09 4.294-26.98 11.228a10.485 10.485 0 0 1-14.897 0c-6.89-6.934-16.432-11.228-26.98-11.228-1.188 0-2.361.062-3.521.168 35.61-31.564 62.148-73.136 75.188-120.316H-5.463c7.354 0 13.315 5.961 13.315 13.314V-4.43C7.852-.398 3.472 2.049 0 0" style="fill:none;stroke:#000;stroke-width:15;stroke-linecap:round;stroke-linejoin:round;stroke-miterlimit:10;stroke-dasharray:none;stroke-opacity:1" transform="translate(496.649 132.901)"/><path d="M0 0c-10.548 0-20.09 4.294-26.98 11.228a10.485 10.485 0 0 1-14.897 0C-48.767 4.294-58.31 0-68.857 0c-10.549 0-20.091 4.294-26.981 11.228a10.485 10.485 0 0 1-14.897 0C-117.625 4.294-127.167 0-137.715 0s-20.091 4.294-26.98 11.228c-.381.383-.79.718-1.21 1.031a248.6 248.6 0 0 0 30.999-68.955H13.833c7.353 0 13.314 5.961 13.314 13.314v54.781C20.244 4.367 10.634 0 0 0" style="fill:none;stroke:#000;stroke-width:15;stroke-linecap:round;stroke-linejoin:round;stroke-miterlimit:10;stroke-dasharray:none;stroke-opacity:1" transform="translate(477.353 64.195)"/><path d="M0 0c-4.238-12.708 2.629-26.446 15.337-30.685 12.709-4.237 26.447 2.629 30.684 15.338C50.26-2.639 43.393 11.1 30.685 15.337S4.238 12.709 0 0" style="fill:none;stroke:#000;stroke-width:15;stroke-linecap:round;stroke-linejoin:round;stroke-miterlimit:10;stroke-dasharray:none;stroke-opacity:1" transform="translate(115.946 351.447)"/><path d="M0 0a24.2 24.2 0 0 0-17.086-2.721C-27.528-39.328-58.47-120.062-143.563-210.18v-78.176C-40.346-190.724-1.573-66.325 11.123-11.988A24.2 24.2 0 0 0 0 0" style="fill:none;stroke:#000;stroke-width:15;stroke-linecap:round;stroke-linejoin:round;stroke-miterlimit:10;stroke-dasharray:none;stroke-opacity:1" transform="translate(151.063 322.759)"/><path d="M0 0a24.16 24.16 0 0 1-.715 17.216c5.797 3.336 12.936 4.278 19.779 1.996 12.708-4.238 19.575-17.976 15.337-30.685S16.425-31.048 3.717-26.81c-6.843 2.283-11.988 7.322-14.622 13.468A24.16 24.16 0 0 1 0 0" style="fill:none;stroke:#000;stroke-width:15;stroke-linecap:round;stroke-linejoin:round;stroke-miterlimit:10;stroke-dasharray:none;stroke-opacity:1" transform="translate(161.968 336.1)"/><path d="M0 0a24.5 24.5 0 0 1-1.615-3.748c-2.459-7.375-1.173-15.093 2.819-21.104-21.383-4.279-51.696-15.669-82.24-45.008-3.553-3.413-9.353-.12-8.198 4.669C-82.552-37.469-61.602 14.808 0 0" style="fill:none;stroke:#000;stroke-width:15;stroke-linecap:round;stroke-linejoin:round;stroke-miterlimit:10;stroke-dasharray:none;stroke-opacity:1" transform="translate(117.561 355.195)"/><path d="M0 0c28.57 18.939 92.522 48.672 131.094-30.889-8.443 1.599-16.948-1.434-22.508-7.598C88.491-25.086 53.807-9.154 3.135-9.987-2.331-10.077-4.556-3.021 0 0" style="fill:none;stroke:#000;stroke-width:15;stroke-linecap:round;stroke-linejoin:round;stroke-miterlimit:10;stroke-dasharray:none;stroke-opacity:1" transform="translate(12.348 398.497)"/><path d="M0 0c40.809-10.105 121.751-43.84 75.379-148.311a24.3 24.3 0 0 1-6.865-2.666c-2.458 5.738-7.105 10.506-13.278 12.973-2.361 27.376-13.825 76.933-61.493 127.175C-10.751-6.091-6.339 1.569 0 0" style="fill:none;stroke:#000;stroke-width:15;stroke-linecap:round;stroke-linejoin:round;stroke-miterlimit:10;stroke-dasharray:none;stroke-opacity:1" transform="translate(92.739 504.293)"/><path d="M0 0c-53.021 20.815-95.621 17.247-121.441 10.937-2.701 5.897-7.74 10.706-14.378 12.919a24.2 24.2 0 0 1-7.307 1.242C-71.173 96.607-15.407 40.127 7.099 9.112 10.641 4.23 5.615-2.204 0 0" style="fill:none;stroke:#000;stroke-width:15;stroke-linecap:round;stroke-linejoin:round;stroke-miterlimit:10;stroke-dasharray:none;stroke-opacity:1" transform="translate(316.851 331.456)"/><path d="M0 0a24.2 24.2 0 0 1 3.767 7.093 24.15 24.15 0 0 1 .65 13.035c86.938 1.099 89.576-68.763 85.757-102.632-.612-5.432-7.908-6.666-10.319-1.76C55.119-33.918 21.025-10.365 0 0" style="fill:none;stroke:#000;stroke-width:15;stroke-linecap:round;stroke-linejoin:round;stroke-miterlimit:10;stroke-dasharray:none;stroke-opacity:1" transform="translate(192.601 317.535)"/><path d="M0 0c14.222 47.285 6.87 83.175-.486 103.219 7.467-.881 14.827 1.794 19.996 6.972C69.722 59.571 30.453 14.209 7.892-5.17 4.155-8.38-1.419-4.718 0 0" style="fill:none;stroke:#000;stroke-width:15;stroke-linecap:round;stroke-linejoin:round;stroke-miterlimit:10;stroke-dasharray:none;stroke-opacity:1" transform="translate(171.028 204.987)"/><path d="M0 0h12.249" style="fill:none;stroke:#000;stroke-width:15;stroke-linecap:round;stroke-linejoin:round;stroke-miterlimit:10;stroke-dasharray:none;stroke-opacity:1" transform="translate(483.651 248.327)"/><path d="M0 0h12.25" style="fill:none;stroke:#000;stroke-width:15;stroke-linecap:round;stroke-linejoin:round;stroke-miterlimit:10;stroke-dasharray:none;stroke-opacity:1" transform="translate(324.23 248.327)"/><path d="m0 0 8.662 8.661" style="fill:none;stroke:#000;stroke-width:15;stroke-linecap:round;stroke-linejoin:round;stroke-miterlimit:10;stroke-dasharray:none;stroke-opacity:1" transform="translate(462.099 300.36)"/><path d="m0 0 8.662 8.662" style="fill:none;stroke:#000;stroke-width:15;stroke-linecap:round;stroke-linejoin:round;stroke-miterlimit:10;stroke-dasharray:none;stroke-opacity:1" transform="translate(349.372 187.633)"/><path d="M0 0v12.249" style="fill:none;stroke:#000;stroke-width:15;stroke-linecap:round;stroke-linejoin:round;stroke-miterlimit:10;stroke-dasharray:none;stroke-opacity:1" transform="translate(410.066 321.913)"/><path d="M0 0v12.249" style="fill:none;stroke:#000;stroke-width:15;stroke-linecap:round;stroke-linejoin:round;stroke-miterlimit:10;stroke-dasharray:none;stroke-opacity:1" transform="translate(410.066 162.493)"/><path d="m0 0-8.662 8.661" style="fill:none;stroke:#000;stroke-width:15;stroke-linecap:round;stroke-linejoin:round;stroke-miterlimit:10;stroke-dasharray:none;stroke-opacity:1" transform="translate(358.033 300.36)"/><path d="m0 0-8.662 8.662" style="fill:none;stroke:#000;stroke-width:15;stroke-linecap:round;stroke-linejoin:round;stroke-miterlimit:10;stroke-dasharray:none;stroke-opacity:1" transform="translate(470.76 187.633)"/><path d="M0 0a248.3 248.3 0 0 1-52.833-12.852 13.48 13.48 0 0 1-8.88-12.669v-50.427C-36.771-49.533-16.483-23.928 0 0" style="fill:none;stroke:#000;stroke-width:15;stroke-linecap:round;stroke-linejoin:round;stroke-miterlimit:10;stroke-dasharray:none;stroke-opacity:1" transform="translate(69.212 188.527)"/><path d="M0 0h149.975C122.306 100.113 33.892 174.997-73.116 182.495c-24.19-50.403-59.846-106.393-111.858-155.592V13.466c0-7.438 6.029-13.466 13.465-13.466H-35" style="fill:none;stroke:#000;stroke-width:15;stroke-linecap:round;stroke-linejoin:round;stroke-miterlimit:10;stroke-dasharray:none;stroke-opacity:1" transform="translate(192.473 7.499)"/><path d="M0 0c-6.741 17.189-23.465 29.366-43.044 29.366-25.534 0-46.233-20.698-46.233-46.232s20.699-46.233 46.233-46.233c19.096 0 35.485 11.58 42.537 28.099" style="fill:none;stroke:#000;stroke-width:15;stroke-linecap:round;stroke-linejoin:round;stroke-miterlimit:10;stroke-dasharray:none;stroke-opacity:1" transform="translate(453.11 265.193)"/></g></svg>