<svg xmlns="http://www.w3.org/2000/svg" width="512" height="512" viewBox="0 0 512 512"><path d="M498.5 456h-82.1c1.3-3.1 2.1-6.4 2.1-10 0-4.8-1.4-9.3-3.7-13.1 3.2-1.9 6-4.5 8.1-7.9 4.2-6.9 4.6-15.3 1-22.5l-1.1-2.2c46.8-5.8 83.2-45.9 83.2-94.3 0-26.8-10.6-101.6-25.8-166.1-9-38-18.5-68.4-28.3-90.5C439 20.2 425.6 6 411 6c-20.1 0-37.6 26.1-55.2 82.1-10.3 33-20.4 76.5-28.2 121.8l-50.9-101.8c-3.9-7.9-11.9-12.8-20.7-12.8s-16.8 4.9-20.7 12.8l-27.1 54.3c-5.9-29.4-12.3-54.5-18.7-73.3-11.2-32.8-22.6-48.1-36-48.1-14 0-25.5 16-37.2 51.9-1.3 3.9.9 8.2 4.8 9.5s8.2-.9 9.5-4.8C143.9 56.5 153.1 56 153.5 56s9 .4 21.7 37.9c7.5 22.2 15.1 53.5 21.9 90.6L161 256.7v-33.2c0-4.1-3.4-7.5-7.5-7.5s-7.5 3.4-7.5 7.5v63.2l-35.7 71.5c-1.7-17-6.2-43.4-12.7-67.9-.7-2.5-1.3-4.9-2-7.2 2.9-28.5 9.1-74 18-118.1.8-4.1-1.8-8-5.9-8.8s-8 1.8-8.8 5.9c-6.3 31.1-11.3 62.9-14.7 89.1-.5-1.1-1-2.2-1.5-3.2-7.3-14.8-15.2-22-24.2-22s-16.9 7.2-24.2 21.9c-5.2 10.4-10.2 24.7-14.8 42.4-8.4 31.5-13.5 66-13.5 79.9 0 27.2 19.6 49.8 45 53.6V456H13.5c-4.1 0-7.5 3.4-7.5 7.5s3.4 7.5 7.5 7.5H140c4.1 0 7.5-3.4 7.5-7.5s-3.4-7.5-7.5-7.5h-21.5c-5.5 0-10-4.5-10-10s4.5-10 10-10h95v20H175c-4.1 0-7.5 3.4-7.5 7.5s3.4 7.5 7.5 7.5h323.5c4.1 0 7.5-3.4 7.5-7.5s-3.4-7.5-7.5-7.5m-440-136.7c-4.1 0-7.5 3.4-7.5 7.5v81.7c-17.1-3.6-30-19.5-30-38.4 0-11.3 4.5-44 12.9-76.1 11.4-43.2 21.9-53 24.6-53s13.2 9.8 24.6 53.1c8.4 32.1 12.9 64.8 12.9 76.1 0 18.9-12.9 34.7-30 38.4v-81.7c0-4.2-3.4-7.6-7.5-7.6M95.6 456H66v-32.2c7.2-1.1 14-3.7 19.9-7.4.5 3 1.5 6 3.2 8.7 2.1 3.3 4.8 6 8.1 7.9-2.4 3.8-3.7 8.3-3.7 13.1 0 3.5.8 6.8 2.1 9.9m117.9-35h-82.9l10-20h72.9zm.7-35h-66l10-20h65.5c-4.8 5.6-8.2 12.5-9.5 20m12.5-157 28.9-57.8 29.1 57.8zm65.5 15 18.6 37h-47.4v-37zm-43.7 0v37h-47.8l18.5-37zm69.9 52 10.1 20H183.2l10-20zm17.6 35 10.1 20H165.7l10-20zm-52.5 125h-55v-62.5c0-15.2 12.3-27.5 27.5-27.5s27.5 12.3 27.5 27.5zm4.9-90h65.3l10.1 20h-65.9c-1.4-7.5-4.8-14.4-9.5-20m82.9 35 10.1 20h-82.8v-20zm22.2 55h-95v-20h95c5.5 0 10 4.5 10 10s-4.5 10-10 10m16.6-38.9c-1.5 2.5-4 3.9-7 3.9-3.1 0-5.9-1.7-7.3-4.5L269 164.5c-2.6-5.1-7.7-8.3-13.4-8.3s-10.8 3.2-13.4 8.3l-126.1 252c-1.4 2.8-4.2 4.5-7.3 4.5-2.9 0-5.4-1.4-6.9-3.9s-1.6-5.3-.4-7.9l147.2-294.3c1.4-2.8 4.1-4.5 7.3-4.5s5.9 1.7 7.3 4.5l97.2 194.4c1.9 3.7 6.4 5.2 10.1 3.4 3.7-1.9 5.2-6.4 3.4-10.1l-35-69.8c8.1-51.9 19.4-102.9 31.1-140.2C391 26.2 406.7 21 411 21c3.6 0 13.4 3.4 27.2 34.4 9.4 21.3 18.6 50.8 27.4 87.9C481.3 210.1 491 283.1 491 306c0 41.6-31.9 75.8-72.5 79.6V207.2c0-4.1-3.4-7.5-7.5-7.5s-7.5 3.4-7.5 7.5v154.5l-13.7-27.3c-1.9-3.7-6.4-5.2-10.1-3.4-3.7 1.9-5.2 6.4-3.4 10.1l34 68.1c1.5 2.6 1.3 5.5-.2 7.9"/><circle cx="113.9" cy="128.9" r="7.5"/></svg>