<svg xmlns="http://www.w3.org/2000/svg" xml:space="preserve" width="512" height="512" viewBox="0 0 512 512"><path d="M181.45 405.1H15.783a8.283 8.283 0 0 1-8.283-8.283V380.25a8.283 8.283 0 0 1 8.283-8.283h480.433a8.283 8.283 0 0 1 8.283 8.283v16.567a8.283 8.283 0 0 1-8.283 8.283H330.55m-33.133 0h-82.834" style="fill:none;stroke:#000;stroke-width:15;stroke-linecap:round;stroke-linejoin:round;stroke-miterlimit:10"/><path d="M181.45 429.8v-57.833h33.133V496.5a8 8 0 0 1-8 8H189.45a8 8 0 0 1-8-8v-31.7m141.1 39.7h-17.133a8 8 0 0 1-8-8V371.966h33.133V496.5a8 8 0 0 1-8 8m-107.967-66.267h82.833v33.133h-82.833zM32.35 371.966c-13.724 0-24.85-11.126-24.85-24.85s11.126-24.85 24.85-24.85c8.875 0 16.658 4.656 21.054 11.655a20.83 20.83 0 0 1 12.079-3.852c.319 0 .629.034.944.048a33.2 33.2 0 0 1-.944-7.85c0-18.299 14.834-33.133 33.133-33.133a33 33 0 0 1 16.567 4.433" style="fill:none;stroke:#000;stroke-width:15;stroke-linecap:round;stroke-linejoin:round;stroke-miterlimit:10"/><path d="M82.052 338.198c-3.832-4.945-9.829-8.129-16.569-8.129-10.236 0-18.758 7.342-20.586 17.047m434.753 24.85c13.724 0 24.85-11.126 24.85-24.85s-11.126-24.85-24.85-24.85c-8.875 0-16.658 4.656-21.054 11.655a20.83 20.83 0 0 0-12.079-3.852c-.319 0-.629.034-.944.048.612-2.517.944-5.145.944-7.85 0-18.299-14.834-33.133-33.133-33.133-2.859 0-5.634.362-8.28 1.043" style="fill:none;stroke:#000;stroke-width:15;stroke-linecap:round;stroke-linejoin:round;stroke-miterlimit:10"/><path d="M429.948 338.198c3.832-4.945 9.829-8.129 16.569-8.129 10.236 0 18.758 7.342 20.586 17.047m-426.47 91.117h49.7V496.5a8 8 0 0 1-8 8h-33.7a8 8 0 0 1-8-8zm49.984 0H40.35a8 8 0 0 1-8-8V405.1h66.267v25.133a8 8 0 0 1-8 8m372.75 66.267h-33.7a8 8 0 0 1-8-8v-58.267h49.7V496.5a8 8 0 0 1-8 8m8.283-66.267h-50.267a8 8 0 0 1-8-8V405.1h66.267v25.133a8 8 0 0 1-8 8M231.976 57.796l45.444-45.444c6.469-6.469 16.959-6.469 23.428 0s6.47 16.959 0 23.428l-21.674 21.674" style="fill:none;stroke:#000;stroke-width:15;stroke-linecap:round;stroke-linejoin:round;stroke-miterlimit:10"/><path d="m256.001 33.772-21.42-21.42c-6.469-6.469-16.959-6.469-23.428 0s-6.47 16.959 0 23.428l21.419 21.419m164.245 165.856v148.911H115.183V223.055" style="fill:none;stroke:#000;stroke-width:15;stroke-linecap:round;stroke-linejoin:round;stroke-miterlimit:10"/><path d="M305.7 371.966h-99.4v-52.117a76.5 76.5 0 0 1 42.291-68.428h0a16.57 16.57 0 0 1 14.818 0h0a76.5 76.5 0 0 1 42.291 68.428zM73.767 189.733h72.894v0c-8.233 44.903-64.662 44.903-72.894 0" style="fill:none;stroke:#000;stroke-width:15;stroke-linecap:round;stroke-linejoin:round;stroke-miterlimit:10"/><path d="M146.66 189.733h72.894v0c-8.232 44.903-64.661 44.903-72.894 0" style="fill:none;stroke:#000;stroke-width:15;stroke-linecap:round;stroke-linejoin:round;stroke-miterlimit:10"/><path d="M219.554 189.733h72.894v0c-8.232 44.903-64.661 44.903-72.894 0m72.894 0h72.894v0c-8.233 44.903-64.662 44.903-72.894 0" style="fill:none;stroke:#000;stroke-width:15;stroke-linecap:round;stroke-linejoin:round;stroke-miterlimit:10"/><path d="M365.34 189.733h72.894v0c-8.233 44.903-64.662 44.903-72.894 0M164.883 371.966V218.262m182.234 153.704V218.262M134.643 118.187a336 336 0 0 0-56.352 64.759l-4.525 6.787m364.467 0-4.525-6.787a336 336 0 0 0-166.565-130.05h0a33.13 33.13 0 0 0-22.288 0h0a336 336 0 0 0-82.7 43.306" style="fill:none;stroke:#000;stroke-width:15;stroke-linecap:round;stroke-linejoin:round;stroke-miterlimit:10"/><path d="m365.339 189.733-2.715-6.787c-24.054-60.135-59.101-105.742-99.938-130.05h0c-4.324-2.574-9.049-2.574-13.373 0v0c-40.838 24.308-75.884 69.914-99.938 130.05l-2.715 6.787" style="fill:none;stroke:#000;stroke-width:15;stroke-linecap:round;stroke-linejoin:round;stroke-miterlimit:10"/><path d="m292.444 189.733-.905-6.787c-8.018-60.135-19.7-105.742-33.312-130.05h0c-1.441-2.574-3.016-2.574-4.457 0h0c-13.612 24.308-25.294 69.915-33.312 130.05l-.905 6.787" style="fill:none;stroke:#000;stroke-width:15;stroke-linecap:round;stroke-linejoin:round;stroke-miterlimit:10"/></svg>