<svg xmlns="http://www.w3.org/2000/svg" width="512" height="512" viewBox="0 0 512 512"><g data-name="filled outline"><g fill="#00d498"><path d="m184.49 200.46 38.91-21.04a193.55 193.55 0 0 1 96.6-23.24l-17.9-12.55a68.347 68.347 0 0 0-99.18 23.15zm0 0-39.44-53.23a62.9 62.9 0 0 0-90.73-10.95L19.87 164.9l-4.71 3.91 45.25-7.95a118.02 118.02 0 0 1 79.22 13.87z"/><path d="m184.49 200.46 6.22-59.47a73.62 73.62 0 0 1 60.48-64.84l3.46-.61-21.05-8.08a52.106 52.106 0 0 0-68.84 62.73zm0 0-48.94-9.15a77.41 77.41 0 0 0-90.47 89.5l9.67 55.04 20.26-67.97a72.5 72.5 0 0 1 48.14-48.56z"/><path d="m184.49 200.46-43.17 38.83a66.834 66.834 0 0 0 .52 99.84l30.85 27.17-1.64-9.31a306.17 306.17 0 0 1 13.44-156.53"/><path d="M276.672 317.322 284.1 292.4a71.72 71.72 0 0 0-16.845-70 71.72 71.72 0 0 0-52.521-22.2l-30.247.267 32.02 22.447a145.6 145.6 0 0 1 26.416 23.828l.351.405a145.6 145.6 0 0 1 33.4 70.179z"/></g><path fill="#00b377" d="m289.79 150.99 30.21 5.19a193.55 193.55 0 0 0-96.6 23.24l-38.91 21.04 25.6-24.82a92.08 92.08 0 0 1 79.7-24.65m-57.83-76.06 22.69.61-3.46.61a73.64 73.64 0 0 0-60.48 64.84l-6.22 59.47-6.94-66.76a53.287 53.287 0 0 1 52.98-58.79c.48 0 .95.01 1.43.02M20.67 165.86l34.28-16.56a79.05 79.05 0 0 1 87.72 12.88l41.82 38.28-44.86-25.73a118.08 118.08 0 0 0-79.22-13.87l-45.25 7.95 4.71-3.91zm163.82 34.6a306.17 306.17 0 0 0-13.44 156.53l1.64 9.31-22.41-41.48a78.4 78.4 0 0 1-9.43-37.27c0-1.76.06-3.53.18-5.29a78.3 78.3 0 0 1 13.98-39.65zm0 0-61.34 18.86a72.5 72.5 0 0 0-48.14 48.56l-20.26 67.97 2.87-57.12a82.416 82.416 0 0 1 82.3-78.27z"/><path fill="#00b377" d="M189.245 197.818a16 16 0 1 1-3.169-22.4 16.02 16.02 0 0 1 3.169 22.4"/><path fill="#0f995d" d="M211.877 209.045a16 16 0 1 1-3.169-22.4 16.02 16.02 0 0 1 3.169 22.4"/><path fill="#00d498" d="M191.058 223.417a16 16 0 1 1-3.17-22.4 16.02 16.02 0 0 1 3.17 22.4"/><path fill="#f07f35" d="M323.72 262.97q.555-4 1.16-8 2.205-14.805 5.01-29.52.765-4 1.57-8.01 2.43-12.1 5.26-24.13.945-4.005 1.92-8 2.46-10.005 5.2-19.93.75-2.715 1.51-5.42l.71-2.5 10.11-35.7 9.44 6.56-4.28 24.59c-.3 1.7-.59 3.4-.87 5.11-.44 2.65-.87 5.31-1.28 7.96q-1.515 9.63-2.76 19.28c-.36 2.67-.69 5.33-1.01 8q-1.425 12-2.48 24.03-.36 4.005-.66 8.01-1.155 14.88-1.71 29.79-.15 3.99-.26 8z"/><path fill="#00b377" d="M507.21 81.12h-5.9v-1.47l-25.09-9.86a79.58 79.58 0 0 0-94.79 29.11l-21.59 31.53 24.07-48.16a58.907 58.907 0 0 1 81.91-24.8z"/><path fill="#0f995d" d="M501.31 79.65v1.47h-37.12a110.63 110.63 0 0 0-70.82 25.64l-37.2 31 3.65-7.31.02-.02 21.59-31.53a79.58 79.58 0 0 1 94.79-29.11z"/><path fill="#00b377" d="M497.77 189.28v52.33l-6.45-12.9 2.52-1.26-2.28-21.35a81.43 81.43 0 0 0-86.76-72.58l-40.6 2.89-.55-1.46 36.17-13.56a72.5 72.5 0 0 1 97.95 67.89"/><path fill="#0f995d" d="m491.56 206.1 2.28 21.35-2.52 1.26-23.25-46.51a67.8 67.8 0 0 0-52.28-36.98l-59.62-7.46 7.48-2.81.55 1.46 40.6-2.89a81.43 81.43 0 0 1 86.76 72.58"/><path fill="#00b377" d="M431.69 219.65a62.57 62.57 0 0 1-13.72 39.1l-22.7 28.38 8.99-21.48a94.5 94.5 0 0 0-23.17-106l-21.36-19.66 42.54 26.59a62.59 62.59 0 0 1 29.42 53.07"/><path fill="#0f995d" d="M381.09 159.65a94.5 94.5 0 0 1 23.17 106l-8.99 21.48-1.34 1.68v-8.85a286.7 286.7 0 0 0-37.76-142.2l3.56 2.23z"/><path fill="#00b377" d="M363.21 64.9c0 1.61-.08 3.23-.24 4.85L357.05 129l-.88-.09-2.68-52.32a51.4 51.4 0 0 0-68.94-45.68l-8.33 3.03v.01c-.58-.02-1.15-.03-1.73-.03h-3.29l18.11-10.87a48.794 48.794 0 0 1 73.9 41.85"/><path fill="#0f995d" d="m357.05 129-.88 8.76-15.39-53.84a68.925 68.925 0 0 0-64.56-49.97v-.01l8.33-3.03a51.4 51.4 0 0 1 68.94 45.68l2.68 52.32zm-5.48 3.01 4.6 5.75-39.3-13.1a181.4 181.4 0 0 0-92.87-5.78l7.82-7.82 1.92 1.92 2.12-1.1a94.09 94.09 0 0 1 111.94 19.25c1.17 1.25 1.92 2.02 2.14 2.18zm-6.53 9.52-.31-1.86 11.44-1.91-25.9 25.9a136 136 0 0 0-20.5 26.26l-.26.43a136.33 136.33 0 0 0-19.43 70.14l-4.07-8.14 2.01-1.01-3.36-28.83a73.573 73.573 0 0 1 60.38-80.98"/><path fill="#00b377" d="m351.57 132.01-1.63 1.3c-.22-.16-.97-.93-2.14-2.18a94.09 94.09 0 0 0-111.94-19.25l-2.12 1.1-1.92-1.92 6.65-6.65a64 64 0 0 1 95.23 5.27zm-6.84 7.66.31 1.86a73.573 73.573 0 0 0-60.38 80.98l3.36 28.83-2.01 1.01-6.82-13.64a67.173 67.173 0 0 1 49.03-96.29z"/><path fill="#00b377" d="M361.141 132.244a16 16 0 1 1 11.377-19.559 16.02 16.02 0 0 1-11.377 19.559"/><path fill="#0f995d" d="M371.967 155.069a16 16 0 1 1 11.378-19.558 16.02 16.02 0 0 1-11.378 19.558"/><path fill="#00d498" d="M346.72 153.471a16 16 0 1 1 11.38-19.559 16.02 16.02 0 0 1-11.38 19.559"/><path fill="#ffc682" d="M376 488H224l-8-168h168z"/><path fill="#ffa54f" d="M224 488h-88l-8-168h88z"/><path fill="#ffa54f" d="M416 344H96a107.3 107.3 0 0 1 9.62-21q2.34-3.93 5.04-7.65a105 105 0 0 1 11.23-13.24q1.575-1.575 3.16-3.11 3.81-3.735 7.73-7.32 9.435-8.7 19.46-16.68c.43-.35.87-.7 1.3-1.04q3.735-2.955 7.56-5.81 13.14-9.84 27.17-18.47L256 208l67.73 41.68q14 8.625 27.15 18.46 4.485 3.345 8.88 6.86 9.99 7.95 19.42 16.64 3.945 3.6 7.77 7.36 1.59 1.53 3.16 3.11a106.7 106.7 0 0 1 12.03 14.35q1.755 2.49 3.36 5.09c.7 1.14 1.38 2.28 2.04 3.45a107 107 0 0 1 8.46 19"/><path fill="#ffa54f" d="M344 248H168a40.83 40.83 0 0 1 15.17-20.44l.37-.26 9.21-6.52L217.86 203l8.75-6.19L256 176l27.04 19.15 13.92 9.85 20.17 14.28 11.7 8.28q.96.675 1.86 1.41A40.7 40.7 0 0 1 344 248"/><path fill="#f07f35" d="M264 376h72v112h-72z"/><path fill="#00b377" d="m139.277 468.958 19.625 7.125-2.25-27.25 20.5 25.625 15.437-46.25 4.187 47.236 11.376-3.736-3.375 16.25h-53z"/><path fill="#e86d3c" d="M156 376h40v32h-40z"/><path d="M204 380a4 4 0 0 0 0-8h-4v-4a4 4 0 0 0-8 0v4h-32v-4a4 4 0 0 0-8 0v4h-4a4 4 0 0 0 0 8h4v24h-4a4 4 0 0 0 0 8h4v4a4 4 0 0 0 8 0v-4h32v4a4 4 0 0 0 8 0v-4h4a4 4 0 0 0 0-8h-4v-24zm-12 24h-32v-24h32zm288 24a4 4 0 0 0 0-8h-4v-4a4 4 0 0 0-8 0v4h-16v-4a4 4 0 0 0-8 0v4h-16v-4a4 4 0 0 0-8 0v4h-16v-4a4 4 0 0 0-8 0v4h-4a4 4 0 0 0 0 8h4v48h-4a4 4 0 0 0 0 8h4v4a4 4 0 0 0 8 0v-4h16v4a4 4 0 0 0 8 0v-4h16v4a4 4 0 0 0 8 0v-4h16v4a4 4 0 0 0 8 0v-4h4a4 4 0 0 0 0-8h-4v-48zm-76 48v-48h16v48zm24 0v-48h16v48zm40 0h-16v-48h16zm-348-48a4 4 0 0 0 0-8h-4v-4a4 4 0 0 0-8 0v4H92v-4a4 4 0 0 0-8 0v4H68v-4a4 4 0 0 0-8 0v4H44v-4a4 4 0 0 0-8 0v4h-4a4 4 0 0 0 0 8h4v48h-4a4 4 0 0 0 0 8h4v4a4 4 0 0 0 8 0v-4h16v4a4 4 0 0 0 8 0v-4h16v4a4 4 0 0 0 8 0v-4h16v4a4 4 0 0 0 8 0v-4h4a4 4 0 0 0 0-8h-4v-48zm-76 48v-48h16v48zm24 0v-48h16v48zm40 0H92v-48h16z"/><path d="M509.194 77.547 467.806 53.9a62.9 62.9 0 0 0-87.473 26.484l-10.519 21.03a20.2 20.2 0 0 0-5.672-3.306l2.808-28.061c.173-1.743.26-3.507.26-5.244a52.794 52.794 0 0 0-79.959-45.279l-18.109 10.87a4 4 0 0 0 2.058 7.426h3.29a64.934 64.934 0 0 1 62.445 47.1l5.278 18.47a20.2 20.2 0 0 0-3.66 5.852l-1.727-2.157a68.013 68.013 0 0 0-101.184-5.6l-14.47 14.471a4 4 0 0 0 3.612 6.751 177.7 177.7 0 0 1 90.821 5.651l8.269 2.757a19.75 19.75 0 0 0-1.2 8.266 70.4 70.4 0 0 0-13.174 4.549l-5.1-3.576a72.35 72.35 0 0 0-104.99 24.507l-6.535 11.95a20 20 0 0 0-1.666-2.119l3.479-33.284a69.616 69.616 0 0 1 57.2-61.318l3.46-.611a4 4 0 0 0 .738-7.673l-21.052-8.08a56.105 56.105 0 0 0-74.123 67.546l10.554 37.576a20 20 0 0 0-4.221 1.62l-18.979-25.618a66.9 66.9 0 0 0-96.5-11.647L12.6 165.732a4 4 0 0 0 3.249 7.017l45.257-7.949a114 114 0 0 1 76.534 13.4l18.849 10.813a20 20 0 0 0 .216 2.183l-20.42-3.818A81.408 81.408 0 0 0 41.141 281.5l9.67 55.04a4 4 0 0 0 3.708 3.3c.078 0 .156.007.233.007a4 4 0 0 0 3.831-2.858l20.26-67.97a68.5 68.5 0 0 1 45.483-45.878l33.984-10.453a20.2 20.2 0 0 0 .472 5.511l-20.136 18.114a70.43 70.43 0 0 0-22.4 64.915c.047.271.109.54.159.811a112 112 0 0 0-23.5 38.639 4 4 0 0 0 3.506 5.33 4.57 4.57 0 0 1 2.758 1.229 12.6 12.6 0 0 0 15.743 0 4.684 4.684 0 0 1 6.346 0 13.6 13.6 0 0 0 4.138 2.227l6.6 138.724a4 4 0 0 0 4 3.81H376a4 4 0 0 0 4-3.81l6.689-140.512A11.73 11.73 0 0 0 393.93 350a12.15 12.15 0 0 0 7.867-2.761 4.673 4.673 0 0 1 6.335 0A12.13 12.13 0 0 0 416 350a4 4 0 0 0 4-4 15.7 15.7 0 0 0-.88-5.225 111 111 0 0 0-26.182-41.493 367 367 0 0 0-38.687-33.606 763 763 0 0 1 9.679-104.195 284.4 284.4 0 0 1 26 118.379v8.85a4 4 0 0 0 7.124 2.5l24.039-30.059a66.575 66.575 0 0 0-16.7-98.06l-19.884-12.436a20.1 20.1 0 0 0 2.437-5.109l28.354 3.544a63.84 63.84 0 0 1 49.195 34.8l29.7 59.41a4 4 0 0 0 3.578 2.212 4 4 0 0 0 .919-.108 4 4 0 0 0 3.082-3.892V189.18a76.5 76.5 0 0 0-103.353-71.636l-17.8 6.672c-.346-.286-.691-.574-1.055-.836l16.375-13.649A106.6 106.6 0 0 1 464.19 85.02h43.02a4 4 0 0 0 1.984-7.473M370.948 151.2a12.04 12.04 0 0 1-11.248-2.826 19.7 19.7 0 0 0 1.175-18.519 12 12 0 1 1 10.073 21.345m-23.917 93.471c-.01-.028-.012-.056-.023-.084a44.5 44.5 0 0 0-12.9-17.988l.25-1.285 13.912-.093q-.742 9.726-1.239 19.453zM183.672 178.6a12 12 0 0 1 3.693 4.628 19.9 19.9 0 0 0-7.5 10.655 20.1 20.1 0 0 0-11.9 2.781 12 12 0 0 1 15.7-18.064zm148.591-46.631a11.992 11.992 0 1 1-1.235 9.1 11.92 11.92 0 0 1 1.235-9.096zm9.25 26q.106-.001.214.006l-.222.785c-4.855 17.149-9.735 38.184-14.524 62.584l-21.3-15.077a132 132 0 0 1 7.248-13.953l.267-.442a132.2 132.2 0 0 1 19.9-25.489zm-29.943 62.272q-.267.144-.5.274a2.55 2.55 0 0 1-1.632.5h-.019a2.53 2.53 0 0 1-1.611-.489 10.3 10.3 0 0 0-5.5-1.5h-.033a10.3 10.3 0 0 0-5.527 1.522 2.54 2.54 0 0 1-1.623.495 2.45 2.45 0 0 1-1.631-.488 10.3 10.3 0 0 0-5.5-1.495h-.032a10.3 10.3 0 0 0-5.527 1.52 2.54 2.54 0 0 1-1.626.5h-.019a2.53 2.53 0 0 1-1.609-.488 9.9 9.9 0 0 0-5.533-1.5 10.3 10.3 0 0 0-5.528 1.52 2.53 2.53 0 0 1-1.626.5h-.018a2.53 2.53 0 0 1-1.609-.488 10.3 10.3 0 0 0-5.5-1.5h-.032a10.3 10.3 0 0 0-5.528 1.52 2.54 2.54 0 0 1-1.627.5h-.019a2.53 2.53 0 0 1-1.609-.489 10.3 10.3 0 0 0-5.506-1.5h-.029a10.3 10.3 0 0 0-5.526 1.522 2.54 2.54 0 0 1-1.627.5h-.021a2.53 2.53 0 0 1-1.607-.488 10.1 10.1 0 0 0-5.533-1.5 10.3 10.3 0 0 0-5.526 1.522 2.54 2.54 0 0 1-1.628.5 2.4 2.4 0 0 1-1.628-.487 10.3 10.3 0 0 0-5.5-1.5h-.029a10.3 10.3 0 0 0-5.526 1.521 2.54 2.54 0 0 1-1.625.5 2.8 2.8 0 0 1-1.628-.487 10.3 10.3 0 0 0-5.5-1.5h-.03c-.1 0-.18.009-.274.011l22.211-15.724a11.58 11.58 0 0 0 11.255-.014 3.62 3.62 0 0 1 3.78 0 11.58 11.58 0 0 0 11.284 0 3.62 3.62 0 0 1 3.781 0 11.59 11.59 0 0 0 11.286 0 3.63 3.63 0 0 1 3.786 0 11.59 11.59 0 0 0 11.288 0 3.63 3.63 0 0 1 3.789 0A10.94 10.94 0 0 0 289.9 205v-.1zm-130.71 4.053c-.659.466-1.284.973-1.916 1.472a11.9 11.9 0 0 1-7.887-2.371 12 12 0 1 1 18.355-5.155zm8.634-32.077a11.84 11.84 0 0 1 4.375-3.585 12 12 0 0 1 7.161-1.048 12 12 0 0 1 9.393 15.779l-11.372 8.051c-.317 0-.634-.018-.95-.043a19.67 19.67 0 0 0-10.549-15.263 12 12 0 0 1 1.942-3.891m87.228 4.25a3.63 3.63 0 0 1-3.787 0 11.59 11.59 0 0 0-11.288 0 3.63 3.63 0 0 1-3.784 0 11.58 11.58 0 0 0-11.285 0 3.62 3.62 0 0 1-3.78 0 10.93 10.93 0 0 0-5.642-1.467c-.408 0-.785.021-1.147.053L256 180.9l21.458 15.191c-.269.131-.518.26-.736.376m-18.41-23.732a4 4 0 0 0-4.624 0l-31.456 22.27h-.136v.1l-3.159 2.236a20.3 20.3 0 0 0-3.335-9.155l9.7-5.245a189.9 189.9 0 0 1 59.615-20.307 70.8 70.8 0 0 0-12.074 20.393zm-90.277 58.238a19.8 19.8 0 0 0 3.85 1.788c-.383.475-.783.935-1.148 1.427a44.6 44.6 0 0 0-5.756 10.423 4 4 0 0 0 3.375 5.433 7.2 7.2 0 0 1 2.412.661 15.1 15.1 0 0 0 6.4 1.295 367 367 0 0 0-26.108 18.82q-2.586 2.043-5.138 4.143a74.3 74.3 0 0 1 12.364-30.06zM156.021 277.1c.656-.519 1.323-1.031 1.985-1.546a11.87 11.87 0 0 0 11.372 0 3.91 3.91 0 0 1 4 0 11.87 11.87 0 0 0 11.372 0 3.91 3.91 0 0 1 4 0 11.2 11.2 0 0 0 5.68 1.446 11 11 0 0 0 4.49-.874l6.5.041a12 12 0 0 0 8.652.053l6.949.043a12 12 0 0 0 9.854-.713 3.91 3.91 0 0 1 4 0 11.89 11.89 0 0 0 11.383 0 3.91 3.91 0 0 1 4 0 11.89 11.89 0 0 0 11.383 0 3.91 3.91 0 0 1 4 0 11.9 11.9 0 0 0 11.392 0 3.92 3.92 0 0 1 4 0 11.88 11.88 0 0 0 11.381 0 3.91 3.91 0 0 1 4 0 11.89 11.89 0 0 0 11.383 0 3.92 3.92 0 0 1 4 0 11.89 11.89 0 0 0 11.38 0 3.93 3.93 0 0 1 4.009 0 11.89 11.89 0 0 0 11.379 0 3.93 3.93 0 0 1 4.012 0 11.91 11.91 0 0 0 11.383 0l.027-.014q10.694 8.325 20.739 17.439c-.219.012-.451.021-.715.021a7.4 7.4 0 0 1-3.414-.7 16.62 16.62 0 0 0-12.861 0 8.62 8.62 0 0 1-6.829 0 16.62 16.62 0 0 0-12.862 0 8.62 8.62 0 0 1-6.828 0 16.6 16.6 0 0 0-12.852 0 8.62 8.62 0 0 1-6.829 0 16.6 16.6 0 0 0-12.851 0 8.62 8.62 0 0 1-6.827 0 16.6 16.6 0 0 0-12.852 0 8.63 8.63 0 0 1-6.838 0 16.6 16.6 0 0 0-12.853 0 8.62 8.62 0 0 1-6.827 0 16.6 16.6 0 0 0-12.854 0 8.6 8.6 0 0 1-6.815 0 16.6 16.6 0 0 0-12.854 0 8.62 8.62 0 0 1-6.828 0 16.6 16.6 0 0 0-12.852 0 8.6 8.6 0 0 1-6.816 0 16.6 16.6 0 0 0-12.854 0 8.6 8.6 0 0 1-6.828 0 16.58 16.58 0 0 0-12.841 0 8.62 8.62 0 0 1-6.83 0 16.6 16.6 0 0 0-12.852 0 7.4 7.4 0 0 1-3.413.7c-.2 0-.389 0-.564-.012a355 355 0 0 1 18.734-15.884M340.56 267a11.2 11.2 0 0 0-5.694 1.45 3.92 3.92 0 0 1-4 0 11.9 11.9 0 0 0-11.392 0 3.92 3.92 0 0 1-4 0 11.89 11.89 0 0 0-11.378 0 3.92 3.92 0 0 1-4 0 11.89 11.89 0 0 0-11.382 0 3.91 3.91 0 0 1-4 0 11.89 11.89 0 0 0-11.383 0 3.93 3.93 0 0 1-4.009 0 11.89 11.89 0 0 0-11.382 0 3.92 3.92 0 0 1-4 0 11.88 11.88 0 0 0-11.381 0 3.92 3.92 0 0 1-4 0 11.88 11.88 0 0 0-11.38 0 3.35 3.35 0 0 1-1.994.548 3.23 3.23 0 0 1-1.878-.484v-.24h-.473a11.86 11.86 0 0 0-10.559-.065l-5.006-.03a11.86 11.86 0 0 0-10.172-.063h-.141v.069q-.282.14-.525.267a3.38 3.38 0 0 1-2.006.55 3.34 3.34 0 0 1-1.992-.548 11.88 11.88 0 0 0-11.384 0 3.9 3.9 0 0 1-3.988 0 11.2 11.2 0 0 0-5.7-1.452 12.3 12.3 0 0 0-2.19.191 360 360 0 0 1 21.185-14.1l2.51-1.544a16 16 0 0 0 3.985.457 15.1 15.1 0 0 0 6.426-1.295 8.62 8.62 0 0 1 6.828 0 16.6 16.6 0 0 0 12.852 0 8.6 8.6 0 0 1 6.827 0 16.58 16.58 0 0 0 12.843 0 8.62 8.62 0 0 1 6.828 0 16.6 16.6 0 0 0 12.851 0 8.62 8.62 0 0 1 6.83 0 16.6 16.6 0 0 0 12.861 0 8.62 8.62 0 0 1 6.827 0 16.6 16.6 0 0 0 12.853 0 8.62 8.62 0 0 1 6.828 0A15.1 15.1 0 0 0 314.94 252a15.7 15.7 0 0 0 4.125-.494l2.569 1.58q10.853 6.678 21.211 14.123a12.3 12.3 0 0 0-2.285-.209m-9.354-23.7a16.6 16.6 0 0 0-12.852 0 8.62 8.62 0 0 1-6.829 0 16.6 16.6 0 0 0-12.852 0 8.62 8.62 0 0 1-6.827 0 16.6 16.6 0 0 0-12.851 0 8.63 8.63 0 0 1-6.838 0 16.6 16.6 0 0 0-12.853 0 8.62 8.62 0 0 1-6.828 0 16.6 16.6 0 0 0-12.852 0 8.6 8.6 0 0 1-6.816 0 16.6 16.6 0 0 0-12.854 0 8.62 8.62 0 0 1-6.828 0 16.6 16.6 0 0 0-12.852 0 8.6 8.6 0 0 1-6.816 0 16.6 16.6 0 0 0-12.854 0 7.4 7.4 0 0 1-3.414.705 7 7 0 0 1-2.906-.5 36.8 36.8 0 0 1 11.2-12.672l4.138-2.929a10.14 10.14 0 0 0 5.292 1.381h.031a10.3 10.3 0 0 0 5.528-1.521 2.53 2.53 0 0 1 1.623-.5 2.7 2.7 0 0 1 1.628.488 10.3 10.3 0 0 0 5.5 1.5h.032a10.3 10.3 0 0 0 5.526-1.521 2.53 2.53 0 0 1 1.624-.5h.019a2.53 2.53 0 0 1 1.609.488 10.3 10.3 0 0 0 5.5 1.5h.032a10.3 10.3 0 0 0 5.528-1.521 2.54 2.54 0 0 1 1.627-.5 2.36 2.36 0 0 1 1.628.489 10.3 10.3 0 0 0 5.5 1.5h.032a10.3 10.3 0 0 0 5.527-1.521 2.54 2.54 0 0 1 1.625-.5h.019a2.53 2.53 0 0 1 1.61.488 10.3 10.3 0 0 0 5.506 1.5h.028a10.3 10.3 0 0 0 5.527-1.522 2.55 2.55 0 0 1 1.629-.5 2.6 2.6 0 0 1 1.625.487 10.3 10.3 0 0 0 5.5 1.5h.03a10.3 10.3 0 0 0 5.526-1.521 2.54 2.54 0 0 1 1.627-.5 2.62 2.62 0 0 1 1.628.487 10.3 10.3 0 0 0 5.5 1.5h.029a10.3 10.3 0 0 0 5.527-1.521 2.53 2.53 0 0 1 1.627-.495H288a2.52 2.52 0 0 1 1.607.488 10.3 10.3 0 0 0 5.506 1.495h.03a10.3 10.3 0 0 0 5.524-1.522 2.54 2.54 0 0 1 1.626-.5h.021a2.53 2.53 0 0 1 1.61.489 10.3 10.3 0 0 0 5.507 1.5h.028a10.3 10.3 0 0 0 5.528-1.521 2.55 2.55 0 0 1 1.633-.5h.013a5.5 5.5 0 0 1 2.471.661 13.6 13.6 0 0 0 4.764 1.29l2.655 1.88a36.6 36.6 0 0 1 10.789 11.93A6.04 6.04 0 0 1 334.62 244a7.4 7.4 0 0 1-3.414-.7m17.718-26.075-12.982.086q2.559-12.726 5.142-24.11l10.317-.026q-1.424 11.998-2.477 24.045zm3.47-32.052-9.452.023q2.506-10.551 5.015-19.754l7.2.282q-1.508 9.692-2.763 19.444zm-2.222-27.65.327-1.153a20 20 0 0 0 3.768-2.123 20 20 0 0 0 2.438 1.935l-.268 1.586zM332.851 59a72.92 72.92 0 0 0-48.372-28.485l6.888-4.134A44.794 44.794 0 0 1 359.21 64.8c0 1.475-.074 2.974-.221 4.452l-2.38 23.779-.809-15.914a55.2 55.2 0 0 0-41.929-50.971 4 4 0 1 0-1.949 7.759 47.24 47.24 0 0 1 35.888 43.619l1.012 19.876-4.195-14.681A72.6 72.6 0 0 0 332.851 59m13.835 51.745a11.977 11.977 0 0 1 22 8.874 19.94 19.94 0 0 0-12.466 3.733 20.2 20.2 0 0 0-3.538-2.63 20 20 0 0 0-6.905-2.459l-.709-.885a11.95 11.95 0 0 1 1.618-6.633m-111.065 2.07 5.677-5.677a60 60 0 0 1 89.28 4.942l3.341 4.172a98.46 98.46 0 0 0-70.406-16.675 4 4 0 0 0 1.156 7.916 90.46 90.46 0 0 1 64.84 15.435 20 20 0 0 0-1.262 1.208l-10.113-3.371a185.8 185.8 0 0 0-82.513-7.95m89.2 34.274a19.86 19.86 0 0 0 7.756 8.195c.067.039.136.072.2.11l-5.339 5.337a140.2 140.2 0 0 0-21.094 27.02l-.267.441a139 139 0 0 0-7.059 13.363l-19.408-13.739a62.8 62.8 0 0 1 18.136-26.833c1.195-.112 2.39-.236 3.589-.326a78.3 78.3 0 0 0-13.526 19.643 4 4 0 1 0 7.209 3.47 70.25 70.25 0 0 1 18.592-23.637q3.147-.03 6.3.042a4 4 0 0 0 2.39-7.275l-5.049-3.54a62 62 0 0 1 7.569-2.271zM221.2 150.568a64.335 64.335 0 0 1 78.6-3.663l7.679 5.385A197.95 197.95 0 0 0 221.5 175.9l-11.974 6.474-.394-.236 3.744-3.627A88.1 88.1 0 0 1 274.2 153.66a4 4 0 0 0 0-8 96.1 96.1 0 0 0-66.893 27.107l-6.6 6.388 5.718-10.454a64.1 64.1 0 0 1 14.775-18.133m-54.38-34.448a48.117 48.117 0 0 1 65.346-44.926l8.732 3.352a77.62 77.62 0 0 0-54.167 66.028l-1.85 17.7-2.6-24.992a49.294 49.294 0 0 1 37.194-52.94 4 4 0 0 0-1.92-7.766 57.29 57.29 0 0 0-43.231 61.532l2.531 24.358-8.247-29.36a48.2 48.2 0 0 1-1.788-12.986m-50.356 44.253a122.1 122.1 0 0 0-56.746-3.452L29.3 162.265l27.576-22.908a58.906 58.906 0 0 1 84.96 10.254l17.754 23.965-15.673-14.347A83 83 0 0 0 51.758 145.7a4 4 0 0 0 3.476 7.2 74.95 74.95 0 0 1 60.822-1.954 74.6 74.6 0 0 1 22.459 14.182l12.727 11.651-9.619-5.518a122.2 122.2 0 0 0-25.159-10.888m5.5 55.126a76.5 76.5 0 0 0-50.792 51.238l-15.419 51.73-6.739-38.354a73.42 73.42 0 0 1 85.795-84.872l11.2 2.094h-6.8a86.406 86.406 0 0 0-86.29 82.065 4 4 0 0 0 3.794 4.2h.2a4 4 0 0 0 3.992-3.8 78.415 78.415 0 0 1 78.305-74.472h15.8zM144 242.264l17.207-15.48-9.47 13.532a82.33 82.33 0 0 0-14.692 41.668c-.012.177-.016.351-.027.527q-6.927 6.057-13.544 12.445A62.43 62.43 0 0 1 144 242.264m-4.523 234.541 4.728 7.195h-4.391zM153.781 484l-4.687-7.125 8.291 3.01a4 4 0 0 0 5.351-4.089l-1.171-14.187L173.877 477a4 4 0 0 0 6.917-1.232l9.355-28.028 2.491 28.1a4 4 0 0 0 5.232 3.447l4.8-1.578L201.37 484zm55.76 0 2.375-11.437a4 4 0 0 0-5.164-4.614l-6.589 2.164-3.741-42.213a4 4 0 0 0-7.778-.913l-13.112 39.28-15.909-19.887a4 4 0 0 0-7.109 2.828l1.736 21.031-13.76-5a4 4 0 0 0-1.579-.222L133.4 349.273a14.4 14.4 0 0 0 3.6-2.035 4.67 4.67 0 0 1 6.333 0 12.58 12.58 0 0 0 15.738 0 4.67 4.67 0 0 1 6.334 0 12.59 12.59 0 0 0 15.737 0 4.673 4.673 0 0 1 6.335 0 12.59 12.59 0 0 0 15.733 0 4.67 4.67 0 0 1 6.334 0 14 14 0 0 0 3.855 2.136L219.805 484zM268 484V380h64v104zm104.186 0H340V380h4a4 4 0 0 0 0-8h-4v-4a4 4 0 0 0-8 0v4h-64v-4a4 4 0 0 0-8 0v4h-4a4 4 0 0 0 0 8h4v104h-32.186l-6.409-134.622a14 14 0 0 0 3.871-2.139 4.673 4.673 0 0 1 6.335 0 12.585 12.585 0 0 0 15.739 0 4.67 4.67 0 0 1 6.334 0 12.57 12.57 0 0 0 15.723 0 4.68 4.68 0 0 1 6.345 0 12.57 12.57 0 0 0 15.727 0 4.67 4.67 0 0 1 6.334 0 12.57 12.57 0 0 0 15.726 0 4.67 4.67 0 0 1 6.333 0 12.58 12.58 0 0 0 15.726 0 4.68 4.68 0 0 1 6.344 0 12.58 12.58 0 0 0 15.726 0 4.67 4.67 0 0 1 6.333 0A12.14 12.14 0 0 0 371.87 350a11.6 11.6 0 0 0 6.791-2.013zm37.689-145.03a11.9 11.9 0 0 0-4.9-.97 12.14 12.14 0 0 0-7.866 2.761 4.67 4.67 0 0 1-6.334 0 12.574 12.574 0 0 0-15.728 0 4.68 4.68 0 0 1-6.345 0 12.57 12.57 0 0 0-15.723 0 4.673 4.673 0 0 1-6.335 0 12.59 12.59 0 0 0-15.737 0 4.67 4.67 0 0 1-6.334 0 12.57 12.57 0 0 0-15.725 0 4.67 4.67 0 0 1-6.333 0 12.574 12.574 0 0 0-15.728 0 4.67 4.67 0 0 1-6.334 0 12.58 12.58 0 0 0-15.738 0 4.67 4.67 0 0 1-6.332 0 12.58 12.58 0 0 0-15.726 0 4.68 4.68 0 0 1-6.344 0 12.576 12.576 0 0 0-15.725 0 4.68 4.68 0 0 1-6.346 0 12.57 12.57 0 0 0-15.723 0 4.68 4.68 0 0 1-6.346 0 12.58 12.58 0 0 0-15.726 0 4.68 4.68 0 0 1-6.344 0 12.58 12.58 0 0 0-15.726 0 4.68 4.68 0 0 1-6.345 0 12.57 12.57 0 0 0-15.721 0 4.684 4.684 0 0 1-6.346 0 12.59 12.59 0 0 0-15.734 0 4.7 4.7 0 0 1-6.36 0 19 19 0 0 0-1.947-1.285 103.7 103.7 0 0 1 8.049-15.883l.061.028a13.5 13.5 0 0 0 11.9 0 5.51 5.51 0 0 1 5.069 0 13.5 13.5 0 0 0 11.9 0 5.51 5.51 0 0 1 5.068 0 13.5 13.5 0 0 0 11.9 0 5.51 5.51 0 0 1 5.068 0 13.5 13.5 0 0 0 11.9 0 5.51 5.51 0 0 1 5.069 0 13.5 13.5 0 0 0 11.9 0 5.5 5.5 0 0 1 5.068 0 13.48 13.48 0 0 0 11.892 0 5.53 5.53 0 0 1 5.08 0 13.48 13.48 0 0 0 11.891 0 5.51 5.51 0 0 1 5.068 0 13.5 13.5 0 0 0 11.9 0 5.5 5.5 0 0 1 5.068 0 13.5 13.5 0 0 0 11.9 0 5.51 5.51 0 0 1 5.069 0 13.5 13.5 0 0 0 11.9 0 5.51 5.51 0 0 1 5.068 0 13.5 13.5 0 0 0 11.9 0 5.53 5.53 0 0 1 5.081 0 13.48 13.48 0 0 0 11.888 0 5.53 5.53 0 0 1 5.08 0 13.5 13.5 0 0 0 11.9 0 5.53 5.53 0 0 1 5.08 0 13.48 13.48 0 0 0 11.888 0 5.53 5.53 0 0 1 5.081 0 13.5 13.5 0 0 0 11.9 0 5.53 5.53 0 0 1 5.08 0 13.5 13.5 0 0 0 11.9 0 5.53 5.53 0 0 1 5.081 0 13.5 13.5 0 0 0 11.9 0 5.55 5.55 0 0 1 5.092 0 12.5 12.5 0 0 0 4.268 1.283 104 104 0 0 1 7.044 14.066M396.1 315h-.083a12.5 12.5 0 0 0-5.954 1.381 5.53 5.53 0 0 1-5.08 0 13.5 13.5 0 0 0-11.9 0 5.53 5.53 0 0 1-5.081 0 13.5 13.5 0 0 0-11.9 0 5.53 5.53 0 0 1-5.079 0 13.5 13.5 0 0 0-11.9 0 5.52 5.52 0 0 1-5.07 0 13.5 13.5 0 0 0-11.9 0 5.53 5.53 0 0 1-5.08 0 13.5 13.5 0 0 0-11.9 0 5.51 5.51 0 0 1-5.069 0 13.5 13.5 0 0 0-11.9 0 5.53 5.53 0 0 1-5.08 0 13.48 13.48 0 0 0-11.89 0 5.53 5.53 0 0 1-5.08 0 13.48 13.48 0 0 0-11.89 0 5.53 5.53 0 0 1-5.078 0 13.48 13.48 0 0 0-11.894 0 5.53 5.53 0 0 1-5.08 0 13.48 13.48 0 0 0-11.89 0 5.51 5.51 0 0 1-5.069 0 13.5 13.5 0 0 0-11.9 0 5.5 5.5 0 0 1-5.067 0 13.48 13.48 0 0 0-11.893 0 5.53 5.53 0 0 1-5.079 0 13.48 13.48 0 0 0-11.89 0 5.53 5.53 0 0 1-5.08 0 13.48 13.48 0 0 0-11.89 0 5.53 5.53 0 0 1-5.08 0 13.48 13.48 0 0 0-11.89 0 5.53 5.53 0 0 1-5.08 0 13.48 13.48 0 0 0-11.891 0 4.76 4.76 0 0 1-2.533.617 5 5 0 0 1-1.453-.17 103 103 0 0 1 10.191-11.892q2.827-2.827 5.737-5.595c.3.1.6.216.955.361a16.6 16.6 0 0 0 12.857 0 8.62 8.62 0 0 1 6.827 0 16.6 16.6 0 0 0 12.852 0 8.6 8.6 0 0 1 6.815 0 16.6 16.6 0 0 0 12.856 0 8.6 8.6 0 0 1 6.826 0 16.58 16.58 0 0 0 12.843 0 8.62 8.62 0 0 1 6.828 0 16.6 16.6 0 0 0 12.852 0 8.6 8.6 0 0 1 6.827 0 16.58 16.58 0 0 0 12.843 0 8.62 8.62 0 0 1 6.828 0 16.6 16.6 0 0 0 12.851 0 8.62 8.62 0 0 1 6.829 0 16.62 16.62 0 0 0 12.862 0 8.62 8.62 0 0 1 6.827 0 16.6 16.6 0 0 0 12.853 0 8.62 8.62 0 0 1 6.828 0 16.6 16.6 0 0 0 12.853 0 8.62 8.62 0 0 1 6.827 0 16.6 16.6 0 0 0 12.852 0 8.63 8.63 0 0 1 6.839 0 16.6 16.6 0 0 0 12.851 0 8.63 8.63 0 0 1 6.839 0 16.62 16.62 0 0 0 12.862 0c.4-.162.731-.291 1.071-.4q2.915 2.787 5.774 5.632A103 103 0 0 1 396.1 315m-61.285-63.014a12.5 12.5 0 0 0 6.642-2.387 3.98 3.98 0 0 0 5.422-1.846q-.287 6.085-.481 12.168-5.715-4.071-11.58-7.932zm92.875-32.436a58.58 58.58 0 0 1-12.844 36.6l-16.928 21.166a292.6 292.6 0 0 0-24.955-115.247l2.492 2.3a90.97 90.97 0 0 1 27.374 84.706 4 4 0 1 0 7.838 1.6 99.01 99.01 0 0 0-29.793-92.195l-2.217-2.042h.006l21.486 13.437a58.26 58.26 0 0 1 27.541 49.675m-26.465-94.515a68.5 68.5 0 0 1 92.545 64.145v35.383l-22.122-44.252a71.8 71.8 0 0 0-55.362-39.16l-26.394-3.3 15.687-1.117a77.35 77.35 0 0 1 78.95 52.674 4 4 0 1 0 7.59-2.531 85.356 85.356 0 0 0-87.108-58.124l-16.924 1.206zM464.19 77.02a114.6 114.6 0 0 0-73.38 26.568l-10.757 8.965 5.236-7.643a75.37 75.37 0 0 1 71.249-32.378 4 4 0 0 0 .94-7.946A83.32 83.32 0 0 0 380.616 97.7l6.872-13.739a54.907 54.907 0 0 1 76.348-23.116l28.31 16.177z"/></g></svg>