<svg xmlns="http://www.w3.org/2000/svg" width="512" height="512" data-name="Filled Expand" viewBox="0 0 64 64"><path fill="#59b22b" d="M29 28.08C29 37.3 25.87 40 22 40s-7-2.7-7-11.92S18.13 9 22 9s7 9.86 7 19.08"/><path fill="#4b961f" d="M23 9.23c-3.39 1.5-6 10.44-6 18.85s2.61 11.38 6 11.85c3.39-.47 6-3.45 6-11.85s-2.61-17.35-6-18.85"/><path fill="#91e957" d="M37 26.38c0 7.44-2.69 9.62-6 9.62s-6-2.18-6-9.62S31 11 31 11s6 8 6 15.38"/><path fill="#82d246" d="M27 26.38c0 6.67 2.16 9.11 5 9.54 2.84-.43 5-2.87 5-9.54 0-5.51-3.29-11.29-5-13.92-1.71 2.63-5 8.41-5 13.92"/><path fill="#59b22b" d="M54 26.08C54 35.3 50.87 38 47 38s-7-2.7-7-11.92S47 7 47 7s7 9.86 7 19.08"/><path fill="#4b961f" d="M42 26.08c0 8.4 2.61 11.38 6 11.85 3.39-.47 6-3.45 6-11.85 0-7-4.07-14.43-6-17.55-1.93 3.12-6 10.52-6 17.55"/><path fill="#91e957" d="M18 28.38c0 7.44-2.24 9.62-5 9.62s-5-2.18-5-9.62S10.24 13 13 13s5 8 5 15.38"/><path fill="#82d246" d="M14 37.89c2.28-.51 4-3 4-9.51s-1.72-13.41-4-15c-2.28 1.62-4 8.52-4 15s1.72 9 4 9.51"/><path fill="#82d246" d="M11 33H1l5-10z"/><path fill="#4b961f" d="M3 33h8l-4-8z"/><path fill="#82d246" d="M11 28H1l5-10z"/><path fill="#4b961f" d="M3 28h8l-4-8z"/><path fill="#59b22b" d="M11 23H1l5-10z"/><path fill="#4b961f" d="M3 23h8l-4-8z"/><path fill="#8cf7ee" d="M1 33h62v30H1z"/><path fill="#5ce9e3" d="M1 35h62v28H1z"/><path fill="#d2ff9f" d="m63 50.46-5.74 2.42s-16.37 7-24.93-4.54A56 56 0 0 0 24.62 40a4 4 0 0 1 2.68-7H63z"/><path fill="#bef878" d="m63 48.08-5.49 2.09s-15.67 6.08-23.86-3.93A51 51 0 0 0 26.28 39c-2.61-2.12-1-6 2.56-6H63z"/><path fill="#aa6f45" d="m59.78 27-14-1v14h14z"/><path fill="#82502f" d="M45.78 29.41h14V27l-14-1z"/><path fill="#ffdc5d" d="m61.71 24.69-9.15-6.53H38.78l8.47 9.25H61a1.5 1.5 0 0 0 .76-2.72z"/><path fill="#c89164" d="m45.78 25-7-5-7 5v15h14z"/><path fill="#82502f" d="M38.78 29a3 3 0 0 1 3 3v8h-6v-8a3 3 0 0 1 3-3"/><path fill="#aa6f45" d="M41 30h-.24a3 3 0 0 0-3 3v7h4v-8a3 3 0 0 0-.76-2m4.78-.7V25l-7-5-7 5v4.3l7-5z"/><path fill="#ffef98" d="m46.19 27.13-7.41-5.29-7.41 5.29a1.49 1.49 0 0 1-2.09-.34 1.5 1.5 0 0 1 .35-2.1l9.15-6.53 9.15 6.53a1.5 1.5 0 0 1 .35 2.1 1.49 1.49 0 0 1-2.09.34"/><path fill="#59b22b" d="M50 42c0-1.66 2-9 3-9s3 7.34 3 9a3 3 0 0 1-6 0"/><path fill="#4b961f" d="M52 42a3 3 0 0 0 2 2.82A3 3 0 0 0 56 42a30.3 30.3 0 0 0-2-7.57A30.3 30.3 0 0 0 52 42"/><circle cx="13" cy="5" r="4" fill="#f5a34f"/><circle cx="12" cy="4" r="1" fill="#fac890"/><path d="M9.24 53H6a1 1 0 0 0 0 2h3.24a1 1 0 1 0 0-2M27 57h-2a1 1 0 0 0 0 2h2a1 1 0 0 0 0-2m-6.24-13h-6a1 1 0 1 0 0 2h6a1 1 0 1 0 0-2M37 57h-6a1 1 0 0 0 0 2h6a1 1 0 0 0 0-2M13 10a5 5 0 1 0-5-5 5 5 0 0 0 5 5m0-8a3 3 0 1 1-3 3 3 3 0 0 1 3-3"/><path d="M63 32h-2.22v-3.59a2.5 2.5 0 0 0 1.46-4.53l-8.87-6.34a48.7 48.7 0 0 0-5.6-11.12 1 1 0 0 0-1.64 0 48.5 48.5 0 0 0-5.47 10.74h-1.88a1 1 0 0 0-.58.18l-1.86 1.33a39 39 0 0 0-4.54-8.27 1 1 0 0 0-.8-.4 1 1 0 0 0-.8.4 38 38 0 0 0-2.48 3.9C26.62 11.31 24.77 8 22 8c-2.23 0-4.28 2.33-5.79 6.48C15.35 13 14.28 12 13 12c-1.92 0-3.24 2.12-4.12 4.52l-2-4a1 1 0 0 0-1.79 0l-5 10A1 1 0 0 0 1 24h.88L.11 27.55A1 1 0 0 0 1 29h.88L.11 32.55A1 1 0 0 0 0 33v30a1 1 0 0 0 1 1h62a1 1 0 0 0 1-1V33a1 1 0 0 0-1-1M47 8.82a48.5 48.5 0 0 1 4.16 8.34h-8.32A48.5 48.5 0 0 1 47 8.82m5.24 10.34 8.89 6.35a.5.5 0 0 1-.3.9H49.51a2.5 2.5 0 0 0-1-2.53l-6.62-4.72zM53 32c-1.56 0-2.81 4-3.47 7h-2.75V28.41h12V39h-2.31c-.66-3-1.91-7-3.47-7m2 10a2 2 0 0 1-4 0 30.8 30.8 0 0 1 2-7.39A30.8 30.8 0 0 1 55 42M38.78 19.38l8.57 6.13a.5.5 0 0 1 .12.7.51.51 0 0 1-.7.11L39.36 21a1 1 0 0 0-1.15 0l-7.42 5.28a.5.5 0 1 1-.58-.81zm0 8.62a4 4 0 0 0-4 4v7h-2V27.36l6-4.29 6 4.29V39h-2v-7a4 4 0 0 0-4-4m2 4v7h-4v-7a2 2 0 0 1 4 0M31 12.76a37 37 0 0 1 3.65 7.11l-5.6 4a2.5 2.5 0 0 0 1.45 4.53h.28V32h-4a15.8 15.8 0 0 1-.78-5.62c0-5.38 3.41-11.21 5-13.62M22 10c1.5 0 3.23 2.66 4.44 6.79A23.65 23.65 0 0 0 24 26.38a18.8 18.8 0 0 0 .71 5.62h-5.93a27 27 0 0 0 .22-3.62 39 39 0 0 0-1.59-11.06C18.79 12.27 20.7 10 22 10M11.9 27.55 10.12 24H11a1 1 0 0 0 .9-1.45l-1.73-3.45c1-3.73 2.23-5.1 2.83-5.1 1.58 0 4 6.44 4 14.38a24 24 0 0 1-.24 3.62h-5.14l-1.5-3H11a1 1 0 0 0 .9-1.45M6 15.24 9.38 22H2.62zM4.12 24h3.76l1.5 3H2.62zm0 5h3.76l1.5 3H2.62zM62 62H2V39h5a1 1 0 0 0 0-2H2v-3h21.3a5.3 5.3 0 0 0-.67 1.21 5 5 0 0 0 1.37 5.5 54.5 54.5 0 0 1 7.58 8.22c4.08 5.53 9.86 7 14.94 7a31.9 31.9 0 0 0 11.13-2.13L62 52zm0-12.2L56.87 52c-.16.07-15.74 6.61-23.73-4.22a57 57 0 0 0-7.85-8.51 3 3 0 0 1 2-5.23h3.48v6a1 1 0 0 0 1 1h17.36A10 10 0 0 0 49 42a4 4 0 0 0 3 3.86V50a1 1 0 0 0 2 0v-4.14A4 4 0 0 0 57 42a10 10 0 0 0-.13-1h2.91a1 1 0 0 0 1-1v-6H62z"/></svg>