<svg xmlns="http://www.w3.org/2000/svg" width="512" height="512" viewBox="0 0 512 512"><path fill="#f07f35" d="M223.153 488h57.557l-12.5-68.527a652.4 652.4 0 0 0-80.495-216.513l-11.572-19.575-7.253 9.907 3.972 9.633a652.4 652.4 0 0 1 49.122 235.852z"/><path fill="#00d498" d="m184.49 200.46 38.91-21.04a193.55 193.55 0 0 1 96.6-23.24l-17.9-12.55a68.347 68.347 0 0 0-99.18 23.15zm0 0-39.44-53.23a62.9 62.9 0 0 0-90.73-10.95L19.87 164.9l-4.71 3.91 45.25-7.95a118.02 118.02 0 0 1 79.22 13.87z"/><path fill="#00d498" d="m184.49 200.46 6.22-59.47a73.62 73.62 0 0 1 60.48-64.84l3.46-.61-21.05-8.08a52.106 52.106 0 0 0-68.84 62.73zm0 0-48.94-9.15a77.41 77.41 0 0 0-90.47 89.5l9.67 55.04 20.26-67.97a72.5 72.5 0 0 1 48.14-48.56z"/><path fill="#00d498" d="m184.49 200.46-43.17 38.83a66.834 66.834 0 0 0 .52 99.84l30.85 27.17-1.64-9.31a306.17 306.17 0 0 1 13.44-156.53"/><path fill="#00d498" d="M276.672 317.322 284.1 292.4a71.72 71.72 0 0 0-16.845-70 71.72 71.72 0 0 0-52.521-22.2l-30.247.267 32.02 22.447a145.6 145.6 0 0 1 26.416 23.828l.351.405a145.6 145.6 0 0 1 33.4 70.179z"/><path fill="#00b377" d="m289.79 150.99 30.21 5.19a193.55 193.55 0 0 0-96.6 23.24l-38.91 21.04 25.6-24.82a92.08 92.08 0 0 1 79.7-24.65m-57.83-76.06 22.69.61-3.46.61a73.64 73.64 0 0 0-60.48 64.84l-6.22 59.47-6.94-66.76a53.287 53.287 0 0 1 52.98-58.79c.48 0 .95.01 1.43.02M20.67 165.86l34.28-16.56a79.05 79.05 0 0 1 87.72 12.88l41.82 38.28-44.86-25.73a118.08 118.08 0 0 0-79.22-13.87l-45.25 7.95 4.71-3.91zm163.82 34.6a306.17 306.17 0 0 0-13.44 156.53l1.64 9.31-22.41-41.48a78.4 78.4 0 0 1-9.43-37.27c0-1.76.06-3.53.18-5.29a78.3 78.3 0 0 1 13.98-39.65zm0 0-61.34 18.86a72.5 72.5 0 0 0-48.14 48.56l-20.26 67.97 2.87-57.12a82.416 82.416 0 0 1 82.3-78.27z"/><path fill="#00b377" d="M189.245 197.818a16 16 0 1 1-3.169-22.4 16.02 16.02 0 0 1 3.169 22.4"/><path fill="#0f995d" d="M211.877 209.045a16 16 0 1 1-3.169-22.4 16.02 16.02 0 0 1 3.169 22.4"/><path fill="#00d498" d="M191.058 223.417a16 16 0 1 1-3.17-22.4 16.02 16.02 0 0 1 3.17 22.4"/><path fill="#f07f35" d="M318 488a316 316 0 0 0 1.46-48.36q-.18-3.87-.45-7.73l-.02-.28-.65-9.24q-.975-13.65-1.45-27.31c-.09-2.67-.17-5.35-.22-8.02q-.5-19.71.05-39.39c.06-2.67.15-5.35.25-8.03q.645-17.175 2.07-34.29.315-4 .69-8.01 1.605-17.22 3.99-34.37.555-4 1.16-8 2.205-14.805 5.01-29.52.765-4 1.57-8.01 2.43-12.1 5.26-24.13.945-4.005 1.92-8 2.46-10.005 5.2-19.93.75-2.715 1.51-5.42l.71-2.5 10.11-35.7 9.44 6.56-4.28 24.59c-.3 1.7-.59 3.4-.87 5.11-.44 2.65-.87 5.31-1.28 7.96q-1.515 9.63-2.76 19.28c-.36 2.67-.69 5.33-1.01 8q-1.425 12-2.48 24.03-.36 4.005-.66 8.01-1.155 14.88-1.71 29.79-.15 3.99-.26 8-.465 16.905-.18 33.83c.04 2.67.1 5.33.18 8q.435 16.26 1.58 32.49.27 3.99.6 7.97 1.515 18.825 3.96 37.56.525 3.975 1.08 7.94 2.46 17.445 5.73 34.79l.63 3.31q.435 2.28.93 4.56A215.2 215.2 0 0 0 384.49 488z"/><path fill="#e86d3c" d="m364.81 433.54-45.35 6.1q-.18-3.87-.45-7.73l-.02-.28 44.26-5.96.63 3.31q.435 2.28.93 4.56m-7.29-42.66-40.63 4.2c-.09-2.67-.17-5.35-.22-8.02l39.77-4.12q.525 3.975 1.08 7.94m-5.04-45.5-35.76 2.29c.06-2.67.15-5.35.25-8.03l34.91-2.23q.27 3.99.6 7.97m-2.18-40.46-31.26.43q.315-4 .69-8.01l30.39-.42c.04 2.67.1 5.33.18 8m.26-49.83q-.15 3.99-.26 8l-26.58-.12q.555-4 1.16-8zm2.37-37.8q-.36 4.005-.66 8.01l-22.38.15q.765-4 1.57-8.01zm3.49-32.03c-.36 2.67-.69 5.33-1.01 8l-18.69.05q.945-4.005 1.92-8zm4.04-27.24c-.44 2.65-.87 5.31-1.28 7.96l-15.34-.6q.75-2.715 1.51-5.42l.71-2.5z"/><path fill="#00b377" d="M507.21 81.12h-5.9v-1.47l-25.09-9.86a79.58 79.58 0 0 0-94.79 29.11l-21.59 31.53 24.07-48.16a58.907 58.907 0 0 1 81.91-24.8z"/><path fill="#0f995d" d="M501.31 79.65v1.47h-37.12a110.63 110.63 0 0 0-70.82 25.64l-37.2 31 3.65-7.31.02-.02 21.59-31.53a79.58 79.58 0 0 1 94.79-29.11z"/><path fill="#00b377" d="M497.77 189.28v52.33l-6.45-12.9 2.52-1.26-2.28-21.35a81.43 81.43 0 0 0-86.76-72.58l-40.6 2.89-.55-1.46 36.17-13.56a72.5 72.5 0 0 1 97.95 67.89"/><path fill="#0f995d" d="m491.56 206.1 2.28 21.35-2.52 1.26-23.25-46.51a67.8 67.8 0 0 0-52.28-36.98l-59.62-7.46 7.48-2.81.55 1.46 40.6-2.89a81.43 81.43 0 0 1 86.76 72.58"/><path fill="#00b377" d="M431.69 219.65a62.57 62.57 0 0 1-13.72 39.1l-22.7 28.38 8.99-21.48a94.5 94.5 0 0 0-23.17-106l-21.36-19.66 42.54 26.59a62.59 62.59 0 0 1 29.42 53.07"/><path fill="#0f995d" d="M381.09 159.65a94.5 94.5 0 0 1 23.17 106l-8.99 21.48-1.34 1.68v-8.85a286.7 286.7 0 0 0-37.76-142.2l3.56 2.23z"/><path fill="#00b377" d="M363.21 64.9c0 1.61-.08 3.23-.24 4.85L357.05 129l-.88-.09-2.68-52.32a51.4 51.4 0 0 0-68.94-45.68l-8.33 3.03v.01c-.58-.02-1.15-.03-1.73-.03h-3.29l18.11-10.87a48.794 48.794 0 0 1 73.9 41.85"/><path fill="#0f995d" d="m357.05 129-.88 8.76-15.39-53.84a68.925 68.925 0 0 0-64.56-49.97v-.01l8.33-3.03a51.4 51.4 0 0 1 68.94 45.68l2.68 52.32zm-5.48 3.01 4.6 5.75-39.3-13.1a181.4 181.4 0 0 0-92.87-5.78l7.82-7.82 1.92 1.92 2.12-1.1a94.09 94.09 0 0 1 111.94 19.25c1.17 1.25 1.92 2.02 2.14 2.18zm-6.53 9.52-.31-1.86 11.44-1.91-25.9 25.9a136 136 0 0 0-20.5 26.26l-.26.43a136.33 136.33 0 0 0-19.43 70.14l-4.07-8.14 2.01-1.01-3.36-28.83a73.573 73.573 0 0 1 60.38-80.98"/><path fill="#00b377" d="m351.57 132.01-1.63 1.3c-.22-.16-.97-.93-2.14-2.18a94.09 94.09 0 0 0-111.94-19.25l-2.12 1.1-1.92-1.92 6.65-6.65a64 64 0 0 1 95.23 5.27zm-6.84 7.66.31 1.86a73.573 73.573 0 0 0-60.38 80.98l3.36 28.83-2.01 1.01-6.82-13.64a67.173 67.173 0 0 1 49.03-96.29z"/><path fill="#00b377" d="M361.141 132.244a16 16 0 1 1 11.377-19.559 16.02 16.02 0 0 1-11.377 19.559"/><path fill="#0f995d" d="M371.967 155.069a16 16 0 1 1 11.378-19.558 16.02 16.02 0 0 1-11.378 19.558"/><path fill="#00d498" d="M346.72 153.471a16 16 0 1 1 11.38-19.559 16.02 16.02 0 0 1-11.38 19.559"/><path fill="#ffc682" d="M376 488H224l-8-168h168z"/><path fill="#ffa54f" d="M224 488h-88l-8-168h88z"/><path fill="#ffa54f" d="M416 344H96a107.3 107.3 0 0 1 9.62-21q2.34-3.93 5.04-7.65a105 105 0 0 1 11.23-13.24q1.575-1.575 3.16-3.11 3.81-3.735 7.73-7.32 9.435-8.7 19.46-16.68c.43-.35.87-.7 1.3-1.04q3.735-2.955 7.56-5.81 13.14-9.84 27.17-18.47L256 208l67.73 41.68q14 8.625 27.15 18.46 4.485 3.345 8.88 6.86 9.99 7.95 19.42 16.64 3.945 3.6 7.77 7.36 1.59 1.53 3.16 3.11a106.7 106.7 0 0 1 12.03 14.35q1.755 2.49 3.36 5.09c.7 1.14 1.38 2.28 2.04 3.45a107 107 0 0 1 8.46 19"/><path fill="#ffa54f" d="M344 248H168a40.83 40.83 0 0 1 15.17-20.44l.37-.26 9.21-6.52L217.86 203l8.75-6.19L256 176l27.04 19.15 13.92 9.85 20.17 14.28 11.7 8.28q.96.675 1.86 1.41A40.7 40.7 0 0 1 344 248"/><path fill="#f07f35" d="M264 376h72v112h-72z"/><path fill="#ffa54f" d="M268 488V380h64v108h8V380h4a4 4 0 0 0 0-8h-4v-4a4 4 0 0 0-8 0v4h-64v-4a4 4 0 0 0-8 0v4h-4a4 4 0 0 0 0 8h4v108z"/><path fill="#f07f35" d="M296.96 205h-3.71a11.8 11.8 0 0 1-5.84-1.41 4.86 4.86 0 0 0-4.64 0 12.8 12.8 0 0 1-11.68 0 4.1 4.1 0 0 0-2.31-.59 4.16 4.16 0 0 0-2.32.59 12.78 12.78 0 0 1-11.67 0 4.16 4.16 0 0 0-2.32-.59 4.1 4.1 0 0 0-2.31.59 12.8 12.8 0 0 1-11.68 0 4.82 4.82 0 0 0-4.62 0 12.78 12.78 0 0 1-11.67 0 4.14 4.14 0 0 0-2.31-.59h-2.02l8.75-6.19a5 5 0 0 0 3.72-.4 12.8 12.8 0 0 1 11.68 0 4.82 4.82 0 0 0 4.62 0 12.8 12.8 0 0 1 11.68 0 4.84 4.84 0 0 0 4.63 0 12.8 12.8 0 0 1 11.68 0 4.84 4.84 0 0 0 4.63 0 11.6 11.6 0 0 1 3.79-1.26zm33.73 23.97-3.56.01a10.73 10.73 0 0 1-5.59-1.47 2.77 2.77 0 0 0-1.79-.51 2.86 2.86 0 0 0-1.78.52 10.73 10.73 0 0 1-5.59 1.49h-.03a10.65 10.65 0 0 1-5.57-1.47 2.88 2.88 0 0 0-1.76-.51H305a2.85 2.85 0 0 0-1.77.52 10.64 10.64 0 0 1-5.59 1.49h-.03a10.57 10.57 0 0 1-5.56-1.47 3.06 3.06 0 0 0-1.78-.51 2.8 2.8 0 0 0-1.77.52 10.75 10.75 0 0 1-5.59 1.5h-.03a10.74 10.74 0 0 1-5.57-1.47 2.82 2.82 0 0 0-1.76-.52h-.02a3 3 0 0 0-1.77.52 10.6 10.6 0 0 1-5.59 1.5h-.03a10.57 10.57 0 0 1-5.56-1.47 2.9 2.9 0 0 0-1.76-.51h-.02a2.8 2.8 0 0 0-1.77.52 10.64 10.64 0 0 1-5.59 1.49h-.03a10.65 10.65 0 0 1-5.57-1.47 3.32 3.32 0 0 0-3.55.01 10.7 10.7 0 0 1-5.59 1.5h-.03a10.67 10.67 0 0 1-5.56-1.47 2.84 2.84 0 0 0-1.76-.52h-.02a2.96 2.96 0 0 0-1.77.52 10.6 10.6 0 0 1-5.59 1.5h-.04a10.73 10.73 0 0 1-5.56-1.47 2.72 2.72 0 0 0-1.77-.51 2.86 2.86 0 0 0-1.78.52 10.6 10.6 0 0 1-5.58 1.49h-.04a10.63 10.63 0 0 1-5.56-1.47 2.88 2.88 0 0 0-1.76-.51h-.02a2.85 2.85 0 0 0-1.77.52 10.7 10.7 0 0 1-5.59 1.5h-.03a10.6 10.6 0 0 1-5.56-1.48 3.04 3.04 0 0 0-1.78-.51l-3.59.01 9.21-6.52a2.8 2.8 0 0 0 1.72.5h.02a3 3 0 0 0 1.77-.52 11.26 11.26 0 0 1 11.18-.03 3.1 3.1 0 0 0 1.78.51 2.85 2.85 0 0 0 1.77-.52 10.64 10.64 0 0 1 5.59-1.49h.03a10.57 10.57 0 0 1 5.56 1.47 2.9 2.9 0 0 0 1.76.51h.02a2.8 2.8 0 0 0 1.77-.52 10.75 10.75 0 0 1 5.59-1.5h.03a10.63 10.63 0 0 1 5.57 1.48 2.8 2.8 0 0 0 1.77.51 3 3 0 0 0 1.78-.52 10.6 10.6 0 0 1 5.59-1.5h.03a10.67 10.67 0 0 1 5.56 1.47 2.75 2.75 0 0 0 1.78.51 2.8 2.8 0 0 0 1.77-.52 10.67 10.67 0 0 1 5.59-1.49h.04a10.63 10.63 0 0 1 5.56 1.47 3 3 0 0 0 1.77.51 2.86 2.86 0 0 0 1.78-.52 10.7 10.7 0 0 1 5.59-1.5h.03a10.56 10.56 0 0 1 5.56 1.48 2.9 2.9 0 0 0 1.76.51h.02a2.85 2.85 0 0 0 1.77-.52 10.6 10.6 0 0 1 5.59-1.5h.03a10.74 10.74 0 0 1 5.57 1.47 2.62 2.62 0 0 0 1.77.51 2.9 2.9 0 0 0 1.78-.51 10.5 10.5 0 0 1 5.59-1.5h.03a10.57 10.57 0 0 1 5.56 1.47 2.9 2.9 0 0 0 1.76.51h.02a2.86 2.86 0 0 0 1.78-.52 11.4 11.4 0 0 1 2.99-1.21l11.7 8.28q.96.675 1.86 1.41M400 492a4 4 0 0 1-4-4v-72a4 4 0 0 1 8 0v72a4 4 0 0 1-4 4m24 0a4 4 0 0 1-4-4v-72a4 4 0 0 1 8 0v72a4 4 0 0 1-4 4m24 0a4 4 0 0 1-4-4v-72a4 4 0 0 1 8 0v72a4 4 0 0 1-4 4m24 0a4 4 0 0 1-4-4v-72a4 4 0 0 1 8 0v72a4 4 0 0 1-4 4"/><path fill="#e86d3c" d="M480 428h-88a4 4 0 0 1 0-8h88a4 4 0 0 1 0 8m0 56h-88a4 4 0 0 1 0-8h88a4 4 0 0 1 0 8m-360-56H32a4 4 0 0 1 0-8h88a4 4 0 0 1 0 8m0 56H32a4 4 0 0 1 0-8h88a4 4 0 0 1 0 8"/><path fill="#f07f35" d="M40 492a4 4 0 0 1-4-4v-72a4 4 0 0 1 8 0v72a4 4 0 0 1-4 4m24 0a4 4 0 0 1-4-4v-72a4 4 0 0 1 8 0v72a4 4 0 0 1-4 4m24 0a4 4 0 0 1-4-4v-72a4 4 0 0 1 8 0v72a4 4 0 0 1-4 4m24 0a4 4 0 0 1-4-4v-72a4 4 0 0 1 8 0v72a4 4 0 0 1-4 4"/><path fill="#00b377" d="m139.277 468.958 19.625 7.125-2.25-27.25 20.5 25.625 15.437-46.25 4.187 47.236 11.376-3.736-3.375 16.25h-53z"/><path fill="#f07f35" d="M386.95 299h-3.1a7.4 7.4 0 0 0-3.42.71 16.67 16.67 0 0 1-12.86 0 8.57 8.57 0 0 0-6.83 0 16.67 16.67 0 0 1-12.86 0 8.57 8.57 0 0 0-6.83 0 16.65 16.65 0 0 1-12.85 0 7.4 7.4 0 0 0-3.42-.71 7.3 7.3 0 0 0-3.41.71 16.67 16.67 0 0 1-12.86 0 8.54 8.54 0 0 0-6.82 0 16.67 16.67 0 0 1-12.86 0 8.57 8.57 0 0 0-6.83 0 16.65 16.65 0 0 1-12.85 0 8.57 8.57 0 0 0-6.83 0 16.65 16.65 0 0 1-12.85 0 8.57 8.57 0 0 0-6.83 0 16.65 16.65 0 0 1-12.85 0 8.57 8.57 0 0 0-6.83 0 16.65 16.65 0 0 1-12.85 0 8.54 8.54 0 0 0-6.82 0 16.65 16.65 0 0 1-12.85 0 8.54 8.54 0 0 0-6.82 0 16.65 16.65 0 0 1-12.85 0 8.57 8.57 0 0 0-6.83 0 16.65 16.65 0 0 1-12.85 0 8.54 8.54 0 0 0-6.82 0 16.67 16.67 0 0 1-12.86 0A7.3 7.3 0 0 0 128 299h-2.95q3.81-3.735 7.73-7.32c.62.19 1.16.41 1.65.61a8.54 8.54 0 0 0 6.82 0 16.65 16.65 0 0 1 12.85 0 8.57 8.57 0 0 0 6.83 0 16.65 16.65 0 0 1 12.85 0 8.54 8.54 0 0 0 6.82 0 16.65 16.65 0 0 1 12.85 0 8.54 8.54 0 0 0 6.82 0 16.65 16.65 0 0 1 12.85 0 8.57 8.57 0 0 0 6.83 0 16.65 16.65 0 0 1 12.85 0 8.57 8.57 0 0 0 6.83 0 16.65 16.65 0 0 1 12.85 0 8.57 8.57 0 0 0 6.83 0 16.65 16.65 0 0 1 12.85 0 8.57 8.57 0 0 0 6.83 0 16.65 16.65 0 0 1 12.85 0 7.4 7.4 0 0 0 3.42.71 7.3 7.3 0 0 0 3.41-.71 16.67 16.67 0 0 1 12.86 0 8.54 8.54 0 0 0 6.82 0 16.67 16.67 0 0 1 12.86 0 7.3 7.3 0 0 0 3.41.71 7.4 7.4 0 0 0 3.42-.71 16.65 16.65 0 0 1 12.85 0 8.57 8.57 0 0 0 6.83 0 16.67 16.67 0 0 1 12.86 0 8.6 8.6 0 0 0 6.84 0c.52-.21 1.09-.44 1.76-.65q3.945 3.6 7.77 7.36m-27.19-24h-3.8a3.4 3.4 0 0 0-2.01.55 11.91 11.91 0 0 1-11.39 0 3.91 3.91 0 0 0-4 0 11.91 11.91 0 0 1-11.39 0 3.91 3.91 0 0 0-4 0 11.91 11.91 0 0 1-11.39 0 3.34 3.34 0 0 0-2-.55 3.38 3.38 0 0 0-2 .55 11.89 11.89 0 0 1-11.38 0 3.89 3.89 0 0 0-3.99 0 11.91 11.91 0 0 1-11.39 0 3.91 3.91 0 0 0-4 0 11.89 11.89 0 0 1-11.38 0 3.91 3.91 0 0 0-4 0 11.89 11.89 0 0 1-11.38 0 3.91 3.91 0 0 0-4 0 11.89 11.89 0 0 1-11.38 0 3.91 3.91 0 0 0-4 0 11.89 11.89 0 0 1-11.38 0 3.91 3.91 0 0 0-4 0 11.89 11.89 0 0 1-11.38 0 3.91 3.91 0 0 0-4 0 11.89 11.89 0 0 1-11.38 0 3.89 3.89 0 0 0-3.99 0 11.89 11.89 0 0 1-11.38 0 3.89 3.89 0 0 0-3.99 0 11.89 11.89 0 0 1-11.38 0 3.38 3.38 0 0 0-2-.55h-3.76c.43-.35.87-.7 1.3-1.04q3.735-2.955 7.56-5.81c.22.1.41.21.59.3a3.89 3.89 0 0 0 3.99 0 11.89 11.89 0 0 1 11.38 0 3.91 3.91 0 0 0 4 0 11.89 11.89 0 0 1 11.38 0 3.89 3.89 0 0 0 3.99 0 11.89 11.89 0 0 1 11.38 0 3.91 3.91 0 0 0 4 0 11.89 11.89 0 0 1 11.38 0 3.91 3.91 0 0 0 4 0 11.89 11.89 0 0 1 11.38 0 3.91 3.91 0 0 0 4 0 11.89 11.89 0 0 1 11.38 0 3.91 3.91 0 0 0 4 0 11.89 11.89 0 0 1 11.38 0 3.91 3.91 0 0 0 4 0 11.89 11.89 0 0 1 11.38 0 3.91 3.91 0 0 0 4 0 11.89 11.89 0 0 1 11.38 0 3.91 3.91 0 0 0 4 0 11.91 11.91 0 0 1 11.39 0 3.34 3.34 0 0 0 2 .55 3.38 3.38 0 0 0 2-.55 11.89 11.89 0 0 1 11.38 0 3.93 3.93 0 0 0 4.01 0 11.89 11.89 0 0 1 11.38 0 3.93 3.93 0 0 0 4.01 0c.19-.1.39-.2.62-.31q4.485 3.345 8.88 6.86m47.78 50h-3.03a12.56 12.56 0 0 1-5.95-1.38 4.8 4.8 0 0 0-2.54-.62 4.84 4.84 0 0 0-2.55.62 13.52 13.52 0 0 1-11.9 0 5.51 5.51 0 0 0-5.08 0 13.52 13.52 0 0 1-11.9 0 4.8 4.8 0 0 0-2.54-.62 4.83 4.83 0 0 0-2.54.62 13.5 13.5 0 0 1-11.89 0 4.83 4.83 0 0 0-2.54-.62 4.8 4.8 0 0 0-2.54.62 13.52 13.52 0 0 1-11.9 0 4.8 4.8 0 0 0-2.54-.62 4.83 4.83 0 0 0-2.54.62 13.5 13.5 0 0 1-11.89 0 4.83 4.83 0 0 0-2.54-.62 4.8 4.8 0 0 0-2.54.62 13.52 13.52 0 0 1-11.9 0 4.8 4.8 0 0 0-2.54-.62 4.83 4.83 0 0 0-2.54.62 13.5 13.5 0 0 1-11.89 0 4.83 4.83 0 0 0-2.54-.62 4.8 4.8 0 0 0-2.54.62 13.5 13.5 0 0 1-11.89 0 4.83 4.83 0 0 0-2.54-.62 4.8 4.8 0 0 0-2.54.62 13.52 13.52 0 0 1-11.9 0 5.49 5.49 0 0 0-5.07 0 13.5 13.5 0 0 1-11.89 0 5.49 5.49 0 0 0-5.07 0 13.52 13.52 0 0 1-11.9 0 5.49 5.49 0 0 0-5.07 0 13.5 13.5 0 0 1-11.89 0 5.51 5.51 0 0 0-5.08 0 13.5 13.5 0 0 1-11.89 0 4.8 4.8 0 0 0-2.54-.62 4.83 4.83 0 0 0-2.54.62 13.5 13.5 0 0 1-11.89 0 5.51 5.51 0 0 0-5.08 0 13.5 13.5 0 0 1-11.89 0 4.8 4.8 0 0 0-2.54-.62 4.83 4.83 0 0 0-2.54.62 13.5 13.5 0 0 1-11.89 0 5.49 5.49 0 0 0-5.07 0 13.52 13.52 0 0 1-11.9 0 4.8 4.8 0 0 0-2.54-.62h-1.87q2.34-3.93 5.04-7.65a13.8 13.8 0 0 1 2.78 1.03 5.49 5.49 0 0 0 5.07 0 13.52 13.52 0 0 1 11.9 0 5.49 5.49 0 0 0 5.07 0 13.52 13.52 0 0 1 11.9 0 5.49 5.49 0 0 0 5.07 0 13.52 13.52 0 0 1 11.9 0 5.49 5.49 0 0 0 5.07 0 13.52 13.52 0 0 1 11.9 0 5.49 5.49 0 0 0 5.07 0 13.52 13.52 0 0 1 11.9 0 5.49 5.49 0 0 0 5.07 0 13.5 13.5 0 0 1 11.89 0 5.49 5.49 0 0 0 5.07 0 13.52 13.52 0 0 1 11.9 0 5.49 5.49 0 0 0 5.07 0 13.52 13.52 0 0 1 11.9 0 5.49 5.49 0 0 0 5.07 0 13.52 13.52 0 0 1 11.9 0 5.49 5.49 0 0 0 5.07 0 13.52 13.52 0 0 1 11.9 0 5.49 5.49 0 0 0 5.07 0 13.52 13.52 0 0 1 11.9 0 5.51 5.51 0 0 0 5.08 0 13.52 13.52 0 0 1 11.9 0 5.49 5.49 0 0 0 5.07 0 13.52 13.52 0 0 1 11.9 0 4.83 4.83 0 0 0 2.54.62 4.8 4.8 0 0 0 2.54-.62 13.52 13.52 0 0 1 11.9 0 5.49 5.49 0 0 0 5.07 0 13.52 13.52 0 0 1 11.9 0 5.51 5.51 0 0 0 5.08 0 13.52 13.52 0 0 1 11.9 0 5.53 5.53 0 0 0 5.09 0 13.52 13.52 0 0 1 11.9 0c.06.03.12.06.17.08q1.755 2.49 3.36 5.09c.7 1.14 1.38 2.28 2.04 3.45m-13.605 25a12.14 12.14 0 0 1-7.866-2.762 4.67 4.67 0 0 0-6.336 0 12.576 12.576 0 0 1-15.728 0 4.675 4.675 0 0 0-6.338 0 12.58 12.58 0 0 1-15.729 0 4.675 4.675 0 0 0-6.338 0 12.58 12.58 0 0 1-15.73 0 4.67 4.67 0 0 0-6.334 0 12.57 12.57 0 0 1-15.727 0 4.67 4.67 0 0 0-6.333 0 12.58 12.58 0 0 1-15.729 0 4.67 4.67 0 0 0-6.335 0 12.576 12.576 0 0 1-15.728 0 4.68 4.68 0 0 0-6.34 0 12.58 12.58 0 0 1-15.73 0 4.675 4.675 0 0 0-6.338 0 12.58 12.58 0 0 1-15.73 0 4.68 4.68 0 0 0-6.341 0 12.58 12.58 0 0 1-15.731 0 4.68 4.68 0 0 0-6.34 0 12.58 12.58 0 0 1-15.731 0 4.675 4.675 0 0 0-6.338 0 12.58 12.58 0 0 1-15.729 0 4.68 4.68 0 0 0-6.344 0 12.585 12.585 0 0 1-15.733 0 4.684 4.684 0 0 0-6.346 0 12.59 12.59 0 0 1-15.736 0 13 13 0 0 0-1.12-.759c-.067-.037-.144-.08-.225-.119a4 4 0 1 1 3.506-7.191q.346.17.672.355a20 20 0 0 1 1.86 1.235 4.69 4.69 0 0 0 6.35 0 12.59 12.59 0 0 1 15.734 0 4.683 4.683 0 0 0 6.345 0 12.584 12.584 0 0 1 15.732 0 4.676 4.676 0 0 0 6.339 0 12.58 12.58 0 0 1 15.729 0 4.676 4.676 0 0 0 6.339 0 12.58 12.58 0 0 1 15.731 0 4.68 4.68 0 0 0 6.341 0 12.58 12.58 0 0 1 15.731 0 4.68 4.68 0 0 0 6.34 0 12.58 12.58 0 0 1 15.729 0 4.675 4.675 0 0 0 6.338 0 12.58 12.58 0 0 1 15.731 0 4.67 4.67 0 0 0 6.336 0 12.575 12.575 0 0 1 15.727 0 4.67 4.67 0 0 0 6.336 0 12.576 12.576 0 0 1 15.728 0 4.67 4.67 0 0 0 6.333 0 12.57 12.57 0 0 1 15.726 0 4.676 4.676 0 0 0 6.339 0 12.58 12.58 0 0 1 15.73 0 4.675 4.675 0 0 0 6.338 0 12.576 12.576 0 0 1 15.728 0 4.675 4.675 0 0 0 6.338 0 12.58 12.58 0 0 1 15.729 0 4.674 4.674 0 0 0 6.337 0 12.58 12.58 0 0 1 15.728 0 9 9 0 0 0 1.429.919 4 4 0 1 1-3.336 7.271 16 16 0 0 1-2.789-1.714 4.675 4.675 0 0 0-6.337 0 12.14 12.14 0 0 1-7.864 2.765M343.9 248.533a3.96 3.96 0 0 1-4.049 1.568 5 5 0 0 0-1.08-.1 4.47 4.47 0 0 0-3.17 1.238 12.58 12.58 0 0 1-15.73 0 4.67 4.67 0 0 0-6.334 0 12.57 12.57 0 0 1-15.727 0 4.67 4.67 0 0 0-6.333 0 12.58 12.58 0 0 1-15.729 0 4.67 4.67 0 0 0-6.335 0 12.576 12.576 0 0 1-15.728 0 4.68 4.68 0 0 0-6.34 0 12.58 12.58 0 0 1-15.73 0 4.675 4.675 0 0 0-6.338 0 12.58 12.58 0 0 1-15.73 0 4.68 4.68 0 0 0-6.341 0 12.58 12.58 0 0 1-15.731 0 4.68 4.68 0 0 0-6.34 0 12.14 12.14 0 0 1-7.867 2.761 13.2 13.2 0 0 1-2.715-.268 4 4 0 0 1-2.414-6.268 3.96 3.96 0 0 1 4.046-1.565 5 5 0 0 0 1.083.1 4.48 4.48 0 0 0 3.17-1.238 12.58 12.58 0 0 1 15.731 0 4.68 4.68 0 0 0 6.341 0 12.58 12.58 0 0 1 15.731 0 4.68 4.68 0 0 0 6.34 0 12.58 12.58 0 0 1 15.729 0 4.675 4.675 0 0 0 6.338 0 12.58 12.58 0 0 1 15.731 0 4.67 4.67 0 0 0 6.336 0 12.575 12.575 0 0 1 15.727 0 4.67 4.67 0 0 0 6.336 0 12.576 12.576 0 0 1 15.728 0 4.67 4.67 0 0 0 6.333 0 12.57 12.57 0 0 1 15.726 0 4.676 4.676 0 0 0 6.339 0A12.14 12.14 0 0 1 338.77 242a14 14 0 0 1 1.861.121q.545.073 1.037.187l.069.016a3.94 3.94 0 0 1 2.2 6.158z"/><path fill="#e86d3c" d="M156 376h40v32h-40z"/><path fill="#f07f35" d="M204 404h-4v-24h4a4 4 0 0 0 0-8h-4v-4a4 4 0 0 0-8 0v4h-32v-4a4 4 0 0 0-8 0v4h-4a4 4 0 0 0 0 8h4v24h-4a4 4 0 0 0 0 8h4v4a4 4 0 0 0 8 0v-4h32v4a4 4 0 0 0 8 0v-4h4a4 4 0 0 0 0-8m-44 0v-24h32v24z"/></svg>