<svg xmlns="http://www.w3.org/2000/svg" width="512" height="512" viewBox="0 0 512 512"><path fill="#2a950f" d="M494.4 259.6 333 223.1c-6.1 37.2-9.5 68.6-9.5 82.9 0 45.8 35.2 83.4 80 87.2h15c44.8-3.8 80-41.4 80-87.2 0-9.3-1.4-25.8-4.1-46.4"/><path fill="#38c714" d="m403.5 299.4 15 1.5h1.5c31.4 0 59-16.6 74.4-41.4-8.1-62.1-27.3-161.4-51.9-212.8 5.3 33.6 8.2 61.6 8.2 74.8 0 48.3-39.2 87.5-87.5 87.5-9.4 0-18.5-1.5-27.1-4.3-1.1 6.2-2.2 12.3-3.1 18.3 4.2 38.5 33.1 69.3 70.5 76.4"/><path fill="#60d243" d="M411 13.5c-31.7 0-59.5 105.4-74.9 191.3 8.5 2.8 17.6 4.3 27.1 4.3 48.3 0 87.5-39.2 87.5-87.5 0-13.2-2.9-41.2-8.2-74.8-9.8-20.4-20.4-33.3-31.5-33.3"/><path fill="#2a950f" d="M157.4 49.3 89.9 266.5c-2.5 21.1-3.9 37.8-3.9 46 0 36 26.3 65.7 60 69.6h15c33.7-3.9 60-33.5 60-69.6 0-37.3-28.1-248.3-63.6-263.2"/><path fill="#38c714" d="m146 259.4 15-13.1c10.6-12.4 17-28.6 17-46.4 0-19.8-7.9-88.2-20.6-150.5-1.3-.5-2.6-.8-3.9-.8-29.4 0-54.3 139.7-63.6 218 6.5 2.2 13.4 3.3 20.6 3.3 13-.1 25.2-3.9 35.5-10.5m-46.8 73.7s0 .1 0 0L14 376.4c2.6 20.3 17.8 36.4 37.1 39.7h15c21.3-3.7 37.5-22.9 37.5-46-.1-7.1-1.7-20.9-4.4-37"/><path fill="#60d243" d="M99.2 333.1c-6.9-40.1-21.4-94.8-38.4-99.3l-47 129.5q-.3 4.05-.3 6.9c0 2.1.1 4.2.4 6.3 8.9 7.2 20.2 11.5 32.4 11.5 1.6 0 3.1-.1 4.7-.2l15-3.7c19.4-8.2 33.2-27.9 33.2-51"/><path fill="#a0e48e" d="M66 334.5c3.9-7.7 6.2-16.4 6.2-25.7 0-12.9-4.3-43.7-11.4-75-.7-.2-1.5-.3-2.2-.3-23.1 0-42.1 95.4-44.7 129.8 1.8.2 3.7.3 5.5.3 11.9 0 22.8-4.1 31.7-10.9z"/><path fill="#0cf" d="m256 146-42.2 90.5 42.2 17 42.2-17z"/><path fill="#75eeff" d="M298.2 236.5H256L240.5 296H333z"/><path fill="#c0f6ff" d="M256 236.5h-42.2L179 296h77z"/><path fill="#c0f6ff" d="m304.2 288.5-13.7-27.8c-6.8-13.7-21.8-18.5-34.5-14.6l-13.6 54.5z"/><path fill="#e0f4ff" d="M238.9 260.7 225 288.5l31.1 8v-50.4c-7.1 2.2-13.4 7-17.2 14.6"/><path fill="#ed844d" d="M393.5 463.5h-275c-9.7 0-17.5-7.8-17.5-17.5s7.8-17.5 17.5-17.5l137.5-22 137.5 22c9.7 0 17.5 7.8 17.5 17.5s-7.8 17.5-17.5 17.5M205.1 343.8 131 358.5v35l47 9.1zm141 61.8 34.9-12.1v-35l-53.1-9.8z"/><path fill="#f4b594" d="M108.5 393.5h295v35h-295z"/><path fill="#f4b594" d="m338.8 358.5-76.6-14.7-72.3 14.7-17.6 35 89.9 13.7 89.9-13.7c0-5.1-1.2-10.4-3.7-15.5z"/><path fill="#ed844d" d="M356 323.5v-35h-51.8v44.6zm-131.1-35H156v35l68.9 11z"/><path fill="#f4b594" d="M321.8 358.5H376v-35h-54.5zm-114.4-35H136v35h71.8z"/><path fill="#f4b594" d="m321.5 323.5-17.3-35h-79.3l-17.5 35 57 17.5z"/><path fill="#ffcdbe" d="M352.1 393.5H172.3l-4.8 9.7c-5.8 11.6 2.6 25.3 15.6 25.3h134c20.2 0 35-16.6 35-35m-30.6-70H207.4l-17.6 35h149z"/><path fill="#fcf0ac" d="M242 111.5 94.8 405.8c-5.2 10.4 2.4 22.7 14 22.7 5.9 0 11.3-3.3 14-8.7l126.1-252c2.8-5.5 10.6-5.5 13.4 0l126.9 252.1c2.7 5.3 8.1 8.6 14 8.6 11.6 0 19.2-12.2 14-22.7L270 111.5c-5.8-11.5-22.2-11.5-28 0"/><path fill="#facf23" d="M256 358.5c-19.3 0-35 15.7-35 35v70h70v-70c0-19.3-15.7-35-35-35"/><path fill="#fcf0ac" d="M256 358.5c-19.3 0-35 15.7-35 35v50.1h32.5c9.7 0 17.5-7.8 17.5-17.5v-52.6c0-8.3-6.7-15-15-15"/><path d="M498.5 456h-82.1c1.3-3.1 2.1-6.4 2.1-10 0-4.8-1.4-9.3-3.7-13.1 3.2-1.9 6-4.5 8.1-7.9 4.2-6.9 4.6-15.3 1-22.5l-1.1-2.2c46.8-5.8 83.2-45.9 83.2-94.3 0-26.8-10.6-101.6-25.8-166.1-9-38-18.5-68.4-28.3-90.5C439 20.2 425.6 6 411 6c-20.1 0-37.6 26.1-55.2 82.1-10.3 33-20.4 76.5-28.2 121.8l-50.9-101.8c-3.9-7.9-11.9-12.8-20.7-12.8s-16.8 4.9-20.7 12.8l-27.1 54.3c-5.9-29.4-12.3-54.5-18.7-73.3-11.2-32.8-22.6-48.1-36-48.1-14 0-25.5 16-37.2 51.9-1.3 3.9.9 8.2 4.8 9.5s8.2-.9 9.5-4.8C143.9 56.5 153.1 56 153.5 56s9 .4 21.7 37.9c7.5 22.2 15.1 53.5 21.9 90.6L161 256.7v-33.2c0-4.1-3.4-7.5-7.5-7.5s-7.5 3.4-7.5 7.5v63.2l-35.7 71.5c-1.7-17-6.2-43.4-12.7-67.9-.7-2.5-1.3-4.9-2-7.2 2.9-28.5 9.1-74 18-118.1.8-4.1-1.8-8-5.9-8.8s-8 1.8-8.8 5.9c-6.3 31.1-11.3 62.9-14.7 89.1-.5-1.1-1-2.2-1.5-3.2-7.3-14.8-15.2-22-24.2-22s-16.9 7.2-24.2 21.9c-5.2 10.4-10.2 24.7-14.8 42.4-8.4 31.5-13.5 66-13.5 79.9 0 27.2 19.6 49.8 45 53.6V456H13.5c-4.1 0-7.5 3.4-7.5 7.5s3.4 7.5 7.5 7.5H140c4.1 0 7.5-3.4 7.5-7.5s-3.4-7.5-7.5-7.5h-21.5c-5.5 0-10-4.5-10-10s4.5-10 10-10h95v20H175c-4.1 0-7.5 3.4-7.5 7.5s3.4 7.5 7.5 7.5h323.5c4.1 0 7.5-3.4 7.5-7.5s-3.4-7.5-7.5-7.5m-440-136.7c-4.1 0-7.5 3.4-7.5 7.5v81.7c-17.1-3.6-30-19.5-30-38.4 0-11.3 4.5-44 12.9-76.1 11.4-43.2 21.9-53 24.6-53s13.2 9.8 24.6 53.1c8.4 32.1 12.9 64.8 12.9 76.1 0 18.9-12.9 34.7-30 38.4v-81.7c0-4.2-3.4-7.6-7.5-7.6M95.6 456H66v-32.2c7.2-1.1 14-3.7 19.9-7.4.5 3 1.5 6 3.2 8.7 2.1 3.3 4.8 6 8.1 7.9-2.4 3.8-3.7 8.3-3.7 13.1 0 3.5.8 6.8 2.1 9.9m117.9-35h-82.9l10-20h72.9zm.7-35h-66l10-20h65.5c-4.8 5.6-8.2 12.5-9.5 20m12.5-157 28.9-57.8 29.1 57.8zm65.5 15 18.6 37h-47.4v-37zm-43.7 0v37h-47.8l18.5-37zm69.9 52 10.1 20H183.2l10-20zm17.6 35 10.1 20H165.7l10-20zm-52.5 125h-55v-62.5c0-15.2 12.3-27.5 27.5-27.5s27.5 12.3 27.5 27.5zm4.9-90h65.3l10.1 20h-65.9c-1.4-7.5-4.8-14.4-9.5-20m82.9 35 10.1 20h-82.8v-20zm22.2 55h-95v-20h95c5.5 0 10 4.5 10 10s-4.5 10-10 10m16.6-38.9c-1.5 2.5-4 3.9-7 3.9-3.1 0-5.9-1.7-7.3-4.5L269 164.5c-2.6-5.1-7.7-8.3-13.4-8.3s-10.8 3.2-13.4 8.3l-126.1 252c-1.4 2.8-4.2 4.5-7.3 4.5-2.9 0-5.4-1.4-6.9-3.9s-1.6-5.3-.4-7.9l147.2-294.3c1.4-2.8 4.1-4.5 7.3-4.5s5.9 1.7 7.3 4.5l97.2 194.4c1.9 3.7 6.4 5.2 10.1 3.4 3.7-1.9 5.2-6.4 3.4-10.1l-35-69.8c8.1-51.9 19.4-102.9 31.1-140.2C391 26.2 406.7 21 411 21c3.6 0 13.4 3.4 27.2 34.4 9.4 21.3 18.6 50.8 27.4 87.9C481.3 210.1 491 283.1 491 306c0 41.6-31.9 75.8-72.5 79.6V207.2c0-4.1-3.4-7.5-7.5-7.5s-7.5 3.4-7.5 7.5v154.5l-13.7-27.3c-1.9-3.7-6.4-5.2-10.1-3.4-3.7 1.9-5.2 6.4-3.4 10.1l34 68.1c1.5 2.6 1.3 5.5-.2 7.9"/><circle cx="113.9" cy="128.9" r="7.5"/></svg>