<svg xmlns="http://www.w3.org/2000/svg" width="512" height="512" viewBox="0 0 64 64"><path fill="#59b22b" d="M29 28.08C29 37.3 25.87 40 22 40s-7-2.7-7-11.92S18.13 9 22 9s7 9.86 7 19.08"/><path fill="#4b961f" d="M23 9.23c-3.39 1.5-6 10.44-6 18.85s2.61 11.38 6 11.85c3.39-.47 6-3.45 6-11.85s-2.61-17.35-6-18.85"/><path fill="#91e957" d="M37 26.38c0 7.44-2.69 9.62-6 9.62s-6-2.18-6-9.62S31 11 31 11s6 8 6 15.38"/><path fill="#82d246" d="M27 26.38c0 6.67 2.16 9.11 5 9.54 2.84-.43 5-2.87 5-9.54 0-5.51-3.29-11.29-5-13.92-1.71 2.63-5 8.41-5 13.92"/><path fill="#59b22b" d="M54 26.08C54 35.3 50.87 38 47 38s-7-2.7-7-11.92S47 7 47 7s7 9.86 7 19.08"/><path fill="#4b961f" d="M42 26.08c0 8.4 2.61 11.38 6 11.85 3.39-.47 6-3.45 6-11.85 0-7-4.07-14.43-6-17.55-1.93 3.12-6 10.52-6 17.55"/><path fill="#91e957" d="M18 28.38c0 7.44-2.24 9.62-5 9.62s-5-2.18-5-9.62S10.24 13 13 13s5 8 5 15.38"/><path fill="#82d246" d="M14 37.89c2.28-.51 4-3 4-9.51s-1.72-13.41-4-15c-2.28 1.62-4 8.52-4 15s1.72 9 4 9.51"/><path fill="#82d246" d="M11 33H1l5-10z"/><path fill="#4b961f" d="M3 33h8l-4-8z"/><path fill="#82d246" d="M11 28H1l5-10z"/><path fill="#4b961f" d="M3 28h8l-4-8z"/><path fill="#59b22b" d="M11 23H1l5-10z"/><path fill="#4b961f" d="M3 23h8l-4-8z"/><path fill="#8cf7ee" d="M1 33h62v30H1z"/><path fill="#5ce9e3" d="M1 35h62v28H1z"/><path fill="#d2ff9f" d="m63 50.46-5.74 2.42s-16.37 7-24.93-4.54A56 56 0 0 0 24.62 40a4 4 0 0 1 2.68-7H63z"/><path fill="#bef878" d="m63 48.08-5.49 2.09s-15.67 6.08-23.86-3.93A51 51 0 0 0 26.28 39c-2.61-2.12-1-6 2.56-6H63z"/><path fill="#aa6f45" d="m59.78 27-14-1v14h14z"/><path fill="#82502f" d="M45.78 29.41h14V27l-14-1z"/><path fill="#ffdc5d" d="m61.71 24.69-9.15-6.53H38.78l8.47 9.25H61a1.5 1.5 0 0 0 .76-2.72z"/><path fill="#c89164" d="m45.78 25-7-5-7 5v15h14z"/><path fill="#82502f" d="M38.78 29a3 3 0 0 1 3 3v8h-6v-8a3 3 0 0 1 3-3"/><path fill="#aa6f45" d="M41 30h-.24a3 3 0 0 0-3 3v7h4v-8a3 3 0 0 0-.76-2m4.78-.7V25l-7-5-7 5v4.3l7-5z"/><path fill="#ffef98" d="m46.19 27.13-7.41-5.29-7.41 5.29a1.49 1.49 0 0 1-2.09-.34 1.5 1.5 0 0 1 .35-2.1l9.15-6.53 9.15 6.53a1.5 1.5 0 0 1 .35 2.1 1.49 1.49 0 0 1-2.09.34"/><path fill="#aa6f45" d="M53 51a1 1 0 0 1-1-1v-8a1 1 0 0 1 2 0v8a1 1 0 0 1-1 1"/><path fill="#59b22b" d="M50 42c0-1.66 2-9 3-9s3 7.34 3 9a3 3 0 0 1-6 0"/><path fill="#4b961f" d="M52 42a3 3 0 0 0 2 2.82A3 3 0 0 0 56 42a30.3 30.3 0 0 0-2-7.57A30.3 30.3 0 0 0 52 42"/><path fill="#8cf7ee" d="M9.24 55H6a1 1 0 0 1 0-2h3.24a1 1 0 1 1 0 2M27 59h-2a1 1 0 0 1 0-2h2a1 1 0 0 1 0 2m-6.24-13h-6a1 1 0 1 1 0-2h6a1 1 0 1 1 0 2M7 37H1v2h6a1 1 0 0 0 0-2m30 22h-6a1 1 0 0 1 0-2h6a1 1 0 0 1 0 2"/><circle cx="13" cy="5" r="4" fill="#f5a34f"/><circle cx="12" cy="4" r="1" fill="#fac890"/></svg>