<svg xmlns="http://www.w3.org/2000/svg" xml:space="preserve" width="512" height="512" viewBox="0 0 512 512"><path d="M461.19 189.18c.99.66 1.93 1.38 2.82 2.14 2.978 40.585-61.671 89.024-97.571 89.024-59.57.99-154.578-79.853-70.858-154.154 29.28-10.2 62.12-6.33 88.53 11.36z" style="fill:#8dd470"/><path d="M474.5 214.1v152.44c-34.37 2.21-303.09-108.28-383.1-120.28l185.61-111.37c5.95-3.57 12.17-6.47 18.57-8.7-30.969 51.31 9.28 117.301 68.85 116.31 35.9 0 84.93-20.89 99.58-51.18a29.97 29.97 0 0 1 10.49 22.78" style="fill:#7dce5c"/><path d="M350.6 301.26c-6.66 68.24-160 57.99-240 57.99 0 0-53.1-58.799-53.1-130.099 0-17.96 10.439-36.412 34.2-56.851 26.76-.97 53.58 5.75 77.08 19.86z" style="fill:#9cda82"/><path d="M110.6 369.25c-34.37 0-78.54-18.48-103.1-45.21V217.02c0-12.47 7.71-23.64 19.37-28.06l20.28-7.68c14.43-5.47 29.48-8.45 44.55-8.98-6.63 15.54-10.3 32.65-10.3 50.61 0 71.3 57.8 129.1 129.09 129.1 48.76 0-19.89 17.24-99.89 17.24" style="fill:#8dd470"/><path d="M64.479 97.686C54.128 64.92 91.952 39.491 118.532 58.003c2.666 1.857 6.243 1.725 8.678-.425 27.717-24.471 76.856-4.501 73.489 36.358-.267 3.237 1.705 6.203 4.777 7.254 6.994 2.391 12.023 9.021 12.023 16.826 0 9.818-7.959 17.778-17.778 17.778H75.278c-9.818 0-17.778-7.959-17.778-17.778a17.72 17.72 0 0 1 4.964-12.323c2.056-2.138 2.908-5.18 2.015-8.007" style="fill:#fff8e6"/><circle cx="231.86" cy="27.5" r="20" style="fill:#fff8e6"/><circle cx="35.693" cy="27.5" r="20" style="fill:#fff8e6"/><path d="M203.8 469.73S81.4 416.084 81.4 379.904c0-12.56 61.84-65.514 61.84-65.514 85.23 12.41 178.95 46.39 321.26 30.11l10 125.23z" style="fill:#f9d171"/><path d="M203.796 469.73 7.5 454.5V324.04c46.92-16.75 90.11-16.29 135.74-9.65-6.12 9.96-9.65 21.69-9.65 34.25 0 36.18 29.33 65.5 65.51 65.5s4.696 55.59 4.696 55.59" style="fill:#fab658"/><path d="M289.556 261.496h190v140h-190z" style="fill:#fce3a0"/><path d="M389.556 391.496h60v-80c0-5.523-4.477-10-10-10h-40c-5.523 0-10 4.477-10 10z" style="fill:#e4996d"/><path d="M434.556 254.496h50v-80c0-5.523-4.477-10-10-10h-30c-5.523 0-10 4.477-10 10z" style="fill:#767678"/><path d="M274.629 271.496h219.853c10.063 0 13.824-13.189 5.274-18.496l-99.379-61.684a30 30 0 0 0-31.642 0L269.355 253c-8.55 5.307-4.789 18.496 5.274 18.496" style="fill:#919191"/><path d="M349.556 341.496h-20c-5.523 0-10-4.477-10-10v-20c0-5.523 4.477-10 10-10h20c5.523 0 10 4.477 10 10v20c0 5.523-4.477 10-10 10" style="fill:#7fb0e4"/><path d="M504.5 419.76v54.74c0 16.57-13.43 30-30 30H241.35c-45.637-13.621-54.532-40.675-54.532-67.425 0-16.05 19.662-31.397 36.692-45.205 88.04-12.53 179.47-13.2 255.45-1.78 14.68 2.2 25.54 14.82 25.54 29.67" style="fill:#ace094"/><path d="M241.35 504.5H37.5c-16.57 0-30-13.43-30-30v-20c60.05-30.41 136.65-51.34 216.01-62.63-7.03 13.26-11.01 28.38-11.01 44.43 0 26.75 11.06 50.93 28.85 68.2" style="fill:#9cda82"/><path d="M364.288 51.268c2.982-1.581 4.806-4.642 5.098-8.005a24 24 0 0 1 8.511-16.365c6.176-5.182 14.19-6.734 21.449-4.883 3.846.981 7.931-.287 10.339-3.444 5.132-6.729 13.234-11.071 22.35-11.071 9.34 0 17.615 4.558 22.722 11.571 2.17 2.98 5.794 4.467 9.412 3.76a20 20 0 0 1 13.876 2.317c6.254 3.611 9.828 10.079 10.027 16.803.112 3.788 2.303 7.283 5.743 8.873 6.308 2.915 10.685 9.297 10.685 16.703 0 10.157-8.234 18.39-18.39 18.39H372.89c-10.157 0-18.39-8.234-18.39-18.39 0-7.05 3.966-13.173 9.788-16.259" style="fill:#fff8e6"/><circle cx="299.026" cy="71.5" r="15" style="fill:#fff8e6"/><ellipse cx="262.917" cy="460.452" rx="29.355" ry="23.377" style="fill:#fff"/><ellipse cx="422.031" cy="460.452" rx="29.355" ry="23.377" style="fill:#fff"/><path d="m246.95 152.93 30.06-18.04c33.2-19.93 74.92-18.89 107.1 2.66l50.87 34.08m-218.05-.69L175.17 196M7.5 325.93V217.02c0-12.47 7.71-23.64 19.37-28.06l20.28-7.68a140 140 0 0 1 121.63 10.88l100.98 60.59" style="fill:none;stroke:#000;stroke-width:15;stroke-linecap:round;stroke-linejoin:round;stroke-miterlimit:10"/><path d="M7.5 454.5V324.04c92.72-33.1 170.91 1 282.06 17.23M64.479 97.686C54.128 64.92 91.952 39.491 118.532 58.003c2.666 1.857 6.243 1.725 8.678-.425 27.717-24.471 76.856-4.501 73.489 36.358-.267 3.237 1.705 6.203 4.777 7.254 6.994 2.391 12.023 9.021 12.023 16.826h0c0 9.818-7.959 17.778-17.778 17.778H75.278c-9.818 0-17.778-7.959-17.778-17.778h0a17.72 17.72 0 0 1 4.964-12.323c2.056-2.138 2.908-5.18 2.015-8.007" style="fill:none;stroke:#000;stroke-width:15;stroke-linecap:round;stroke-linejoin:round;stroke-miterlimit:10"/><circle cx="231.86" cy="27.5" r="20" style="fill:none;stroke:#000;stroke-width:15;stroke-linecap:round;stroke-linejoin:round;stroke-miterlimit:10"/><circle cx="35.693" cy="27.5" r="20" style="fill:none;stroke:#000;stroke-width:15;stroke-linecap:round;stroke-linejoin:round;stroke-miterlimit:10"/><path d="M364.288 51.268c2.982-1.581 4.806-4.642 5.098-8.005a24 24 0 0 1 8.511-16.365c6.176-5.182 14.19-6.734 21.449-4.883 3.846.981 7.931-.287 10.339-3.444 5.132-6.729 13.234-11.071 22.35-11.071 9.34 0 17.615 4.558 22.722 11.571 2.17 2.98 5.794 4.467 9.412 3.76a20 20 0 0 1 13.876 2.317c6.254 3.611 9.828 10.079 10.027 16.803.112 3.788 2.303 7.283 5.743 8.873 6.308 2.915 10.685 9.297 10.685 16.703v0c0 10.157-8.234 18.39-18.39 18.39H372.89c-10.157 0-18.39-8.234-18.39-18.39v0c0-7.05 3.966-13.173 9.788-16.259" style="fill:none;stroke:#000;stroke-width:15;stroke-linecap:round;stroke-linejoin:round;stroke-miterlimit:10"/><circle cx="299.026" cy="71.5" r="15" style="fill:none;stroke:#000;stroke-width:15;stroke-linecap:round;stroke-linejoin:round;stroke-miterlimit:10"/><path d="M289.56 384.72V271.5m190 118.7V271.5m-90 110.88V311.5c0-5.53 4.47-10 10-10h40c5.52 0 10 4.47 10 10v74.85m-15-173.82V174.5c0-5.53 4.47-10 10-10h30c5.52 0 10 4.47 10 10v69.07" style="fill:none;stroke:#000;stroke-width:15;stroke-linecap:round;stroke-linejoin:round;stroke-miterlimit:10"/><path d="M424.266 271.5h70.21c10.07 0 13.83-13.19 5.28-18.5l-99.38-61.68a29.99 29.99 0 0 0-31.65 0L269.356 253c-8.55 5.31-4.79 18.5 5.27 18.5h114.64m-39.71 69.996h-20c-5.523 0-10-4.477-10-10v-20c0-5.523 4.477-10 10-10h20c5.523 0 10 4.477 10 10v20c0 5.523-4.477 10-10 10M162.28 402.66c105.47-22.34 222.85-26.68 316.68-12.57 14.68 2.2 25.54 14.82 25.54 29.67v54.74c0 16.57-13.43 30-30 30h-437c-16.57 0-30-13.43-30-30v-20c35.42-17.93 76.6-32.57 120.7-43.88m151.825 15.329v12m124.898-12v12" style="fill:none;stroke:#000;stroke-width:15;stroke-linecap:round;stroke-linejoin:round;stroke-miterlimit:10"/><path d="M326.01 437.591c4.003 4.594 9.892 7.501 16.464 7.501s12.461-2.907 16.464-7.501" style="fill:none;stroke:#000;stroke-width:15;stroke-linecap:round;stroke-linejoin:round;stroke-miterlimit:10"/></svg>