<svg xmlns="http://www.w3.org/2000/svg" width="512" height="512" data-name="Line Expand" viewBox="0 0 64 64"><path d="M9.24 53H6a1 1 0 0 0 0 2h3.24a1 1 0 1 0 0-2M27 57h-2a1 1 0 0 0 0 2h2a1 1 0 0 0 0-2m-6.24-13h-6a1 1 0 1 0 0 2h6a1 1 0 1 0 0-2M37 57h-6a1 1 0 0 0 0 2h6a1 1 0 0 0 0-2M13 10a5 5 0 1 0-5-5 5 5 0 0 0 5 5m0-8a3 3 0 1 1-3 3 3 3 0 0 1 3-3"/><path d="M63 32h-2.22v-3.59a2.5 2.5 0 0 0 1.46-4.53l-8.87-6.34a48.7 48.7 0 0 0-5.6-11.12 1 1 0 0 0-1.64 0 48.5 48.5 0 0 0-5.47 10.74h-1.88a1 1 0 0 0-.58.18l-1.86 1.33a39 39 0 0 0-4.54-8.27 1 1 0 0 0-.8-.4 1 1 0 0 0-.8.4 38 38 0 0 0-2.48 3.9C26.62 11.31 24.77 8 22 8c-2.23 0-4.28 2.33-5.79 6.48C15.35 13 14.28 12 13 12c-1.92 0-3.24 2.12-4.12 4.52l-2-4a1 1 0 0 0-1.79 0l-5 10A1 1 0 0 0 1 24h.88L.11 27.55A1 1 0 0 0 1 29h.88L.11 32.55A1 1 0 0 0 0 33v30a1 1 0 0 0 1 1h62a1 1 0 0 0 1-1V33a1 1 0 0 0-1-1M47 8.82a48.5 48.5 0 0 1 4.16 8.34h-8.32A48.5 48.5 0 0 1 47 8.82m5.24 10.34 8.89 6.35a.5.5 0 0 1-.3.9H49.51a2.5 2.5 0 0 0-1-2.53l-6.62-4.72ZM53 32c-1.56 0-2.81 4-3.47 7h-2.75V28.41h12V39h-2.31c-.66-3-1.91-7-3.47-7m2 10a2 2 0 0 1-4 0 30.8 30.8 0 0 1 2-7.39A30.8 30.8 0 0 1 55 42M38.78 19.38l8.57 6.13a.5.5 0 0 1 .12.7.51.51 0 0 1-.7.11L39.36 21a1 1 0 0 0-1.15 0l-7.42 5.28a.5.5 0 1 1-.58-.81Zm0 8.62a4 4 0 0 0-4 4v7h-2V27.36l6-4.29 6 4.29V39h-2v-7a4 4 0 0 0-4-4m2 4v7h-4v-7a2 2 0 0 1 4 0M31 12.76a37 37 0 0 1 3.65 7.11l-5.6 4a2.5 2.5 0 0 0 1.45 4.53h.28V32h-4a15.8 15.8 0 0 1-.78-5.62c0-5.38 3.41-11.21 5-13.62M22 10c1.5 0 3.23 2.66 4.44 6.79A23.65 23.65 0 0 0 24 26.38a18.8 18.8 0 0 0 .71 5.62h-5.93a27 27 0 0 0 .22-3.62 39 39 0 0 0-1.59-11.06C18.79 12.27 20.7 10 22 10M11.9 27.55 10.12 24H11a1 1 0 0 0 .9-1.45l-1.73-3.45c1-3.73 2.23-5.1 2.83-5.1 1.58 0 4 6.44 4 14.38a24 24 0 0 1-.24 3.62h-5.14l-1.5-3H11a1 1 0 0 0 .9-1.45M6 15.24 9.38 22H2.62ZM4.12 24h3.76l1.5 3H2.62Zm0 5h3.76l1.5 3H2.62ZM62 62H2V39h5a1 1 0 0 0 0-2H2v-3h21.3a5.3 5.3 0 0 0-.67 1.21 5 5 0 0 0 1.37 5.5 54.5 54.5 0 0 1 7.58 8.22c4.08 5.53 9.86 7 14.94 7a31.9 31.9 0 0 0 11.13-2.13L62 52Zm0-12.2L56.87 52c-.16.07-15.74 6.61-23.73-4.22a57 57 0 0 0-7.85-8.51 3 3 0 0 1 2-5.23h3.48v6a1 1 0 0 0 1 1h17.36A10 10 0 0 0 49 42a4 4 0 0 0 3 3.86V50a1 1 0 0 0 2 0v-4.14A4 4 0 0 0 57 42a10 10 0 0 0-.13-1h2.91a1 1 0 0 0 1-1v-6H62Z"/></svg>