<svg xmlns="http://www.w3.org/2000/svg" width="512" height="512" viewBox="0 0 512 512"><path fill="#82b339" d="M486.4 386.309v-10.843c14.68 0 26.473-12.356 25.549-27.235-.793-12.764-11.193-23.145-23.958-23.917-9.798-.593-18.491 4.333-23.28 11.958a21.46 21.46 0 0 0-12.444-3.968c-.328 0-.648.035-.972.049a34.2 34.2 0 0 0 .737-12.098c-1.929-16.415-15.654-29.262-32.161-30.08-19.64-.973-35.87 14.663-35.87 34.09v.019c.001.827-.464 1.599-1.228 1.914-9.295 3.838-15.839 12.986-15.839 23.667 0 14.138 11.462 25.6 25.6 25.6v10.843z"/><path fill="#79a735" d="M430.063 324.226c6.114-4.593 13.535-7.183 21.388-7.351.247 1.109.445 2.235.579 3.381a34.2 34.2 0 0 1-.732 12.077 21.5 21.5 0 0 0-12.011 4.311c-2.79 2.102-6.695 1.897-9.396-.319-3.838-3.152-3.799-9.115.172-12.099m34.656 12.035a25.7 25.7 0 0 1 12.075-10.114c3.6 3.18 6.59 7.059 8.743 11.454 2.253 4.597-.468 10.08-5.499 11.028-3.463.652-6.857-1.155-8.423-4.313a21.7 21.7 0 0 0-6.896-8.055"/><path fill="#79a735" d="M511.949 348.232c-.793-12.764-11.193-23.145-23.958-23.917-4.886-.295-9.497.782-13.487 2.882 7.717 4.056 13.185 11.928 13.751 21.035.924 14.879-10.87 27.235-25.549 27.235v10.842H486.4v-10.842c14.68-.001 26.473-12.356 25.549-27.235"/><path fill="#82b339" d="M25.6 386.309v-10.843c-14.68 0-26.474-12.356-25.549-27.235.793-12.764 11.193-23.145 23.958-23.917 9.798-.593 18.491 4.333 23.28 11.958a21.46 21.46 0 0 1 12.444-3.968c.328 0 .648.035.972.049a34.2 34.2 0 0 1-.737-12.098c1.929-16.415 15.654-29.262 32.161-30.08 19.64-.973 35.87 14.663 35.87 34.09v.019c-.001.827.463 1.599 1.228 1.914 9.295 3.838 15.839 12.986 15.839 23.667 0 14.138-11.462 25.6-25.6 25.6v10.843z"/><path fill="#79a735" d="M81.937 324.226c-6.114-4.593-13.535-7.183-21.388-7.351a33 33 0 0 0-.579 3.381 34.2 34.2 0 0 0 .732 12.077 21.5 21.5 0 0 1 12.011 4.311c2.79 2.102 6.695 1.897 9.395-.319 3.839-3.152 3.8-9.115-.171-12.099m-34.656 12.035a25.7 25.7 0 0 0-12.075-10.114 37 37 0 0 0-8.743 11.454c-2.253 4.597.468 10.08 5.499 11.028 3.463.652 6.857-1.155 8.423-4.313a21.7 21.7 0 0 1 6.896-8.055"/><path fill="#fed2a4" d="M110.933 174.134h290.134v213.751H110.933z"/><path fill="#febc91" d="M377.443 174.134h23.623v213.751h-23.623z"/><path fill="#687d89" d="M307.2 387.885H204.8v-66.109c0-29.853 16.866-57.143 43.568-70.493a17.07 17.07 0 0 1 15.265 0c26.701 13.35 43.568 40.641 43.568 70.493z"/><path fill="#526770" d="M263.632 251.283a17.07 17.07 0 0 0-15.265 0 80 80 0 0 0-4.215 2.28c24.245 14.02 39.353 39.966 39.353 68.213v66.109H307.2v-66.109c0-29.852-16.867-57.143-43.568-70.493"/><path fill="#febc91" d="M162.133 394.035a7.726 7.726 0 0 1-7.726-7.726V174.134a7.726 7.726 0 1 1 15.452 0v212.175a7.725 7.725 0 0 1-7.726 7.726m187.733 0a7.725 7.725 0 0 1-7.726-7.726V174.134a7.725 7.725 0 0 1 7.726-7.726 7.725 7.725 0 0 1 7.726 7.726v212.175a7.725 7.725 0 0 1-7.726 7.726"/><path fill="#995e34" d="M77.333 512h-35.2a8 8 0 0 1-8-8v-65.418h51.2V504a8 8 0 0 1-8 8"/><path fill="#895029" d="M61.639 438.583v65.176A8.24 8.24 0 0 1 53.398 512h23.694a8.24 8.24 0 0 0 8.242-8.241v-65.176z"/><path fill="#b36d3c" d="M64.233 443.733H33.6a8 8 0 0 1-8-8v-31.284h46.633v31.284a8 8 0 0 1-8 8"/><path fill="#995e34" d="M70.172 404.449v31.043a8.24 8.24 0 0 1-8.241 8.242h23.694a8.24 8.24 0 0 0 8.242-8.242v-31.043zM469.867 512h-35.2a8 8 0 0 1-8-8v-65.418h51.2V504a8 8 0 0 1-8 8"/><path fill="#895029" d="M454.172 438.583v65.176a8.24 8.24 0 0 1-8.241 8.241h23.694a8.24 8.24 0 0 0 8.241-8.241v-65.176z"/><path fill="#b36d3c" d="M456.766 443.733h-30.633a8 8 0 0 1-8-8v-31.284h46.633v31.284a8 8 0 0 1-8 8"/><path fill="#995e34" d="M462.706 404.449v31.043a8.24 8.24 0 0 1-8.241 8.242h23.694a8.24 8.24 0 0 0 8.241-8.242v-31.043z"/><path fill="#995e34" d="M503.467 375.467H332.8l-76.801 7.681-76.799-7.681H8.533A8.533 8.533 0 0 0 0 384v17.066a8.533 8.533 0 0 0 8.533 8.534H179.2l76.8-17.067 76.8 17.067h170.667a8.533 8.533 0 0 0 8.533-8.534V384a8.533 8.533 0 0 0-8.533-8.533"/><path fill="#b36d3c" d="M202.715 443.733h106.569v34.133H202.715z"/><path fill="#995e34" d="M202.715 443.733h34.312v34.133h-34.312zm72.257 0h34.312v34.133h-34.312z"/><path fill="#b36d3c" d="M202.715 375.467h106.569V409.6H202.715z"/><path fill="#995e34" d="M202.715 375.467h34.312V409.6h-34.312zm72.257 0h34.312V409.6h-34.312z"/><path fill="#b36d3c" d="M205.333 512H187.2a8 8 0 0 1-8-8V375.467h34.133V504a8 8 0 0 1-8 8m119.467 0h-18.133a8 8 0 0 1-8-8V375.467H332.8V504a8 8 0 0 1-8 8"/><path fill="#895029" d="M503.467 375.467h-23.694a8.533 8.533 0 0 1 8.533 8.533v17.066a8.533 8.533 0 0 1-8.533 8.534h23.694a8.533 8.533 0 0 0 8.533-8.534V384a8.533 8.533 0 0 0-8.533-8.533"/><g fill="#995e34"><path d="m68.267 187.733 36.803-5.151 38.29 5.151c-8.48 46.259-66.613 46.259-75.093 0m75.093 0 37.547-5.151 37.547 5.151c-8.481 46.259-66.613 46.259-75.094 0m75.094 0 37.547-5.151 37.547 5.151c-8.481 46.259-66.613 46.259-75.094 0m75.094 0 37.547-5.151 37.547 5.151c-8.481 46.259-66.613 46.259-75.094 0"/><path d="m368.64 187.733 37.547-5.151 37.547 5.151c-8.481 46.259-66.614 46.259-75.094 0"/></g><path fill="#895029" d="m406.186 182.582-11.847 1.625 25.7 3.526c-3.22 17.564-13.6 28.451-25.7 32.678 19.769 6.905 44.133-3.983 49.394-32.678z"/><path fill="#995e34" d="m231.865 51.2-22.066-22.066c-6.665-6.665-6.665-17.471 0-24.135s17.471-6.665 24.135 0L256 27.065v39.667z"/><path fill="#b36d3c" d="m231.251 51.814 46.816-46.816c6.664-6.665 17.471-6.665 24.135 0 6.666 6.665 6.666 17.471 0 24.135l-22.328 22.328z"/><path fill="#b36d3c" d="M439.072 180.741A346.15 346.15 0 0 0 279.85 51.459L256 48.872l-32.024 5.989a346.15 346.15 0 0 0-151.048 125.88l-4.661 6.992h375.467z"/><g fill="#995e34"><path d="m375.813 184.862-2.797-6.99c-21.362-53.406-50.465-95.398-84.993-123.011a347 347 0 0 0-20.542-8.095 34.14 34.14 0 0 0-22.96 0 346 346 0 0 0-20.544 8.095c-34.528 27.613-63.631 69.605-84.992 123.01l-2.797 6.991a7.7 7.7 0 0 0-.549 2.871h16.044l1.649-4.122c20.819-52.049 50.26-93.751 84.048-119.554-10.373 27.391-19.126 66.722-25.652 115.663l-.932 6.992c-.046.344-.06.684-.06 1.022h15.513l.796-5.971c7.172-53.791 17.328-96.562 28.957-122.334 11.616 25.735 21.778 68.52 28.952 122.334l.796 5.971h15.515c0-.338-.015-.678-.06-1.022l-.933-6.992c-6.526-48.943-15.28-88.275-25.653-115.665 33.789 25.803 63.231 67.506 84.05 119.557l1.649 4.121h16.045a7.7 7.7 0 0 0-.55-2.871"/><path d="M439.072 180.741A346.15 346.15 0 0 0 267.48 46.766a34.14 34.14 0 0 0-22.96 0l-.367.135a346.15 346.15 0 0 1 171.225 133.84l4.661 6.992h23.694z"/></g></svg>