<svg xmlns="http://www.w3.org/2000/svg" width="512" height="512" viewBox="0 0 512 512"><path fill="#8dd470" d="M467.383 187.163c1.02.68 1.988 1.422 2.905 2.205 3.068 41.81-63.533 91.711-100.516 91.711-61.368 1.02-159.244-82.263-72.997-158.807 30.163-10.508 63.995-6.521 91.202 11.703z"/><path fill="#7dce5c" d="M481.095 212.836v157.041c-35.407 2.277-312.238-111.548-394.662-123.91l191.212-114.731a103 103 0 0 1 19.131-8.963c-31.903 52.859 9.56 120.841 70.928 119.82 36.984 0 87.493-21.521 102.586-52.725a30.89 30.89 0 0 1 10.805 23.468"/><path fill="#9cda82" d="M353.455 302.626c-6.861 70.3-164.829 59.74-247.243 59.74 0 0-54.703-60.574-54.703-134.026 0-18.502 10.754-37.511 35.232-58.566a144.1 144.1 0 0 1 79.406 20.459z"/><path fill="#8dd470" d="M106.212 372.668c-35.407 0-80.91-19.038-106.212-46.574v-110.25a30.91 30.91 0 0 1 19.955-28.907l20.892-7.912a143.7 143.7 0 0 1 45.894-9.251c-6.83 16.009-10.611 33.635-10.611 52.137 0 73.452 59.545 132.996 132.986 132.996 50.232.001-20.49 17.761-102.904 17.761"/><g fill="#fff8e6"><path d="M58.698 92.908C48.035 59.154 87 32.956 114.383 52.027c2.746 1.913 6.431 1.777 8.94-.438 28.553-25.209 79.176-4.636 75.707 37.455-.275 3.334 1.756 6.391 4.922 7.473 7.205 2.463 12.386 9.293 12.386 17.333 0 10.115-8.2 18.314-18.314 18.314h-128.2c-10.115 0-18.314-8.2-18.314-18.314 0-4.929 1.947-9.403 5.114-12.695 2.117-2.201 2.994-5.334 2.074-8.247"/><circle cx="231.132" cy="20.604" r="20.604"/><circle cx="29.044" cy="20.604" r="20.604"/></g><path fill="#f9d171" d="M202.225 476.181S76.131 420.916 76.131 383.644c0-12.939 63.706-67.491 63.706-67.491 87.802 12.784 184.351 47.79 330.956 31.019l10.302 129.01h-278.87z"/><path fill="#fab658" d="M202.221 476.181 0 460.491V326.094c48.336-17.256 92.829-16.782 139.837-9.941-6.305 10.261-9.941 22.345-9.941 35.284 0 37.272 30.215 67.477 67.487 67.477 37.272-.001 4.838 57.267 4.838 57.267"/><path fill="#fce3a0" d="M290.568 261.662h195.734v144.225H290.568z"/><path fill="#e4996d" d="M393.587 395.586h61.811v-82.414c0-5.69-4.612-10.302-10.302-10.302h-41.207c-5.69 0-10.302 4.612-10.302 10.302z"/><path fill="#767678" d="M439.945 254.451h51.509v-82.414c0-5.69-4.612-10.302-10.302-10.302h-30.905c-5.69 0-10.302 4.612-10.302 10.302z"/><path fill="#919191" d="M275.191 271.964H501.68c10.367 0 14.241-13.588 5.433-19.055l-102.379-63.545a30.9 30.9 0 0 0-32.597 0l-102.379 63.545c-8.808 5.467-4.934 19.055 5.433 19.055"/><path fill="#7fb0e4" d="M352.379 344.077h-20.604c-5.69 0-10.302-4.612-10.302-10.302v-20.604c0-5.69 4.612-10.302 10.302-10.302h20.604c5.69 0 10.302 4.612 10.302 10.302v20.604c0 5.689-4.612 10.302-10.302 10.302"/><path fill="#ace094" d="M512 424.702v56.392c0 17.07-13.835 30.905-30.905 30.905H240.908c-47.015-14.032-56.178-41.902-56.178-69.46 0-16.534 20.255-32.345 37.799-46.569 90.697-12.908 184.887-13.599 263.16-1.834C500.812 396.403 512 409.404 512 424.702"/><path fill="#9cda82" d="M240.908 512H30.905C13.835 512 0 498.165 0 481.095v-20.604c61.862-31.328 140.774-52.89 222.529-64.52-7.242 13.66-11.342 29.236-11.342 45.771 0 27.557 11.394 52.467 29.721 70.258"/><path fill="#fff8e6" d="M367.556 45.089c3.072-1.629 4.951-4.782 5.252-8.246a24.73 24.73 0 0 1 8.768-16.859c6.363-5.339 14.619-6.938 22.096-5.03 3.962 1.011 8.171-.296 10.651-3.548C419.61 4.473 427.956 0 437.347 0c9.622 0 18.146 4.695 23.408 11.92 2.236 3.069 5.969 4.602 9.696 3.873a20.6 20.6 0 0 1 14.295 2.387c6.442 3.72 10.125 10.383 10.33 17.31.115 3.903 2.372 7.503 5.917 9.14C507.491 47.633 512 54.209 512 61.837c0 10.463-8.482 18.945-18.945 18.945H376.418c-10.463 0-18.945-8.482-18.945-18.945 0-7.261 4.085-13.568 10.083-16.748"/><circle cx="300.325" cy="65.932" r="15.453" fill="#fff8e6"/><ellipse cx="263.126" cy="466.622" fill="#fff" rx="30.241" ry="24.082"/><ellipse cx="427.041" cy="466.622" fill="#fff" rx="30.241" ry="24.082"/><path fill="#666667" d="M280.75 451.166a7.725 7.725 0 0 1-7.726-7.726v-12.362a7.725 7.725 0 0 1 7.726-7.726 7.725 7.725 0 0 1 7.726 7.726v12.362a7.725 7.725 0 0 1-7.726 7.726m128.668 0a7.725 7.725 0 0 1-7.726-7.726v-12.362a7.726 7.726 0 1 1 15.452 0v12.362a7.726 7.726 0 0 1-7.726 7.726m-64.335 7.359a30.23 30.23 0 0 1-22.786-10.376 7.727 7.727 0 0 1 11.649-10.153c2.812 3.226 6.87 5.076 11.136 5.076s8.325-1.85 11.138-5.077a7.723 7.723 0 0 1 10.901-.746 7.727 7.727 0 0 1 .746 10.901 30.22 30.22 0 0 1-22.784 10.375"/></svg>