<svg xmlns="http://www.w3.org/2000/svg" xml:space="preserve" width="512" height="512" viewBox="0 0 512 512"><path d="m246.95 152.93 30.06-18.04c33.2-19.93 74.92-18.89 107.1 2.66l50.87 34.08m-218.05-.69L175.17 196M7.5 325.93V217.02c0-12.47 7.71-23.64 19.37-28.06l20.28-7.68a140 140 0 0 1 121.63 10.88l100.98 60.59" style="fill:none;stroke:#000;stroke-width:15;stroke-linecap:round;stroke-linejoin:round;stroke-miterlimit:10"/><path d="M7.5 454.5V324.04c92.72-33.1 170.91 1 282.06 17.23M64.479 97.686C54.128 64.92 91.952 39.491 118.532 58.003c2.666 1.857 6.243 1.725 8.678-.425 27.717-24.471 76.856-4.501 73.489 36.358-.267 3.237 1.705 6.203 4.777 7.254 6.994 2.391 12.023 9.021 12.023 16.826h0c0 9.818-7.959 17.778-17.778 17.778H75.278c-9.818 0-17.778-7.959-17.778-17.778h0a17.72 17.72 0 0 1 4.964-12.323c2.056-2.138 2.908-5.18 2.015-8.007" style="fill:none;stroke:#000;stroke-width:15;stroke-linecap:round;stroke-linejoin:round;stroke-miterlimit:10"/><circle cx="231.86" cy="27.5" r="20" style="fill:none;stroke:#000;stroke-width:15;stroke-linecap:round;stroke-linejoin:round;stroke-miterlimit:10"/><circle cx="35.693" cy="27.5" r="20" style="fill:none;stroke:#000;stroke-width:15;stroke-linecap:round;stroke-linejoin:round;stroke-miterlimit:10"/><path d="M364.288 51.268c2.982-1.581 4.806-4.642 5.098-8.005a24 24 0 0 1 8.511-16.365c6.176-5.182 14.19-6.734 21.449-4.883 3.846.981 7.931-.287 10.339-3.444 5.132-6.729 13.234-11.071 22.35-11.071 9.34 0 17.615 4.558 22.722 11.571 2.17 2.98 5.794 4.467 9.412 3.76a20 20 0 0 1 13.876 2.317c6.254 3.611 9.828 10.079 10.027 16.803.112 3.788 2.303 7.283 5.743 8.873 6.308 2.915 10.685 9.297 10.685 16.703v0c0 10.157-8.234 18.39-18.39 18.39H372.89c-10.157 0-18.39-8.234-18.39-18.39v0c0-7.05 3.966-13.173 9.788-16.259" style="fill:none;stroke:#000;stroke-width:15;stroke-linecap:round;stroke-linejoin:round;stroke-miterlimit:10"/><circle cx="299.026" cy="71.5" r="15" style="fill:none;stroke:#000;stroke-width:15;stroke-linecap:round;stroke-linejoin:round;stroke-miterlimit:10"/><path d="M289.56 384.72V271.5m190 118.7V271.5m-90 110.88V311.5c0-5.53 4.47-10 10-10h40c5.52 0 10 4.47 10 10v74.85m-15-173.82V174.5c0-5.53 4.47-10 10-10h30c5.52 0 10 4.47 10 10v69.07" style="fill:none;stroke:#000;stroke-width:15;stroke-linecap:round;stroke-linejoin:round;stroke-miterlimit:10"/><path d="M424.266 271.5h70.21c10.07 0 13.83-13.19 5.28-18.5l-99.38-61.68a29.99 29.99 0 0 0-31.65 0L269.356 253c-8.55 5.31-4.79 18.5 5.27 18.5h114.64m-39.71 69.996h-20c-5.523 0-10-4.477-10-10v-20c0-5.523 4.477-10 10-10h20c5.523 0 10 4.477 10 10v20c0 5.523-4.477 10-10 10M162.28 402.66c105.47-22.34 222.85-26.68 316.68-12.57 14.68 2.2 25.54 14.82 25.54 29.67v54.74c0 16.57-13.43 30-30 30h-437c-16.57 0-30-13.43-30-30v-20c35.42-17.93 76.6-32.57 120.7-43.88m151.825 15.329v12m124.898-12v12" style="fill:none;stroke:#000;stroke-width:15;stroke-linecap:round;stroke-linejoin:round;stroke-miterlimit:10"/><path d="M326.01 437.591c4.003 4.594 9.892 7.501 16.464 7.501s12.461-2.907 16.464-7.501" style="fill:none;stroke:#000;stroke-width:15;stroke-linecap:round;stroke-linejoin:round;stroke-miterlimit:10"/></svg>