<svg xmlns="http://www.w3.org/2000/svg" viewBox="0 0 512 512"><linearGradient id="a" x1="32.418" x2="448.998" y1="479.399" y2="62.82" gradientUnits="userSpaceOnUse"><stop offset="0" stop-color="#b429f9"/><stop offset=".996" stop-color="#26c5f3"/></linearGradient><path fill="url(#a)" d="M47.822 125.162v341.019c0 13.898 11.285 25.208 25.158 25.208h286.996c13.9 0 25.211-11.31 25.211-25.208v-21.972a6.43 6.43 0 1 1 12.862 0v21.972c0 20.992-17.081 38.071-38.073 38.071H72.979c-20.965 0-38.021-17.078-38.021-38.071V125.162c0-20.992 17.056-38.071 38.021-38.071h21.663a6.43 6.43 0 1 1 0 12.862H72.979c-13.872 0-25.157 11.311-25.157 25.209m395.11 299.747H148.046c-18.807 0-34.109-15.305-34.109-34.111V41.86c0-18.807 15.302-34.111 34.109-34.111h243.217c1.228 0 3.348.688 4.547 1.884l79.347 79.347c1.163 1.163 1.884 3.106 1.884 4.547v297.271c0 18.807-15.302 34.111-34.109 34.111M397.694 29.706v42.407c0 8.26 6.72 14.983 14.983 14.983h42.407zM148.046 412.047h294.887c11.715 0 21.246-9.532 21.246-21.249V99.959h-51.501c-15.355 0-27.846-12.491-27.846-27.846V20.611H148.046c-11.715 0-21.246 9.532-21.246 21.249v348.938c-.001 11.717 9.531 21.249 21.246 21.249"/></svg>