<svg xmlns="http://www.w3.org/2000/svg" viewBox="0 0 512 512"><path d="M72.976 99.946h21.663a6.43 6.43 0 1 0 0-12.862H72.976c-20.965 0-38.02 17.078-38.02 38.071v341.018c0 20.992 17.056 38.071 38.02 38.071h286.995c20.992 0 38.073-17.078 38.073-38.071v-21.972a6.43 6.43 0 1 0-12.862 0v21.972c0 13.898-11.31 25.208-25.21 25.208H72.976c-13.873 0-25.158-11.31-25.158-25.208v-341.02c0-13.897 11.285-25.207 25.158-25.207"/><path d="M475.141 88.947 395.804 9.61c-1.183-1.184-3.293-1.852-4.528-1.852H148.067c-18.831 0-34.112 15.281-34.112 34.112v348.94c0 18.78 15.281 34.112 34.112 34.112h294.865c18.78 0 34.112-15.332 34.112-34.112V93.526c0-1.44-.72-3.396-1.903-4.579M464.182 390.81c0 11.679-9.518 21.249-21.249 21.249H148.067c-11.731 0-21.249-9.57-21.249-21.249V41.869c0-11.731 9.519-21.249 21.249-21.249h236.777v51.502c0 15.333 12.451 27.835 27.835 27.835h51.502V390.81z"/></svg>