<svg xmlns="http://www.w3.org/2000/svg" viewBox="0 0 512 512"><path d="M72.979 99.953h21.663a6.43 6.43 0 1 0 0-12.862H72.979c-20.965 0-38.021 17.078-38.021 38.071v341.019c0 20.992 17.056 38.071 38.021 38.071h286.996c20.992 0 38.073-17.078 38.073-38.071v-21.972a6.43 6.43 0 1 0-12.862 0v21.972c0 13.898-11.31 25.208-25.211 25.208H72.979c-13.873 0-25.158-11.31-25.158-25.208V125.162c.001-13.898 11.286-25.209 25.158-25.209"/><path d="M477.041 390.798V93.527c0-1.441-.721-3.384-1.884-4.547L395.81 9.633c-1.2-1.196-3.319-1.884-4.547-1.884H148.046c-18.807 0-34.109 15.305-34.109 34.111v348.938c0 18.807 15.302 34.111 34.109 34.111h294.887c18.806 0 34.108-15.304 34.108-34.111M455.084 87.096h-42.407c-8.263 0-14.983-6.723-14.983-14.983V29.706zM126.799 390.798V41.86c0-11.717 9.532-21.249 21.246-21.249h236.786v51.501c0 15.355 12.491 27.846 27.846 27.846h51.501v290.839c0 11.717-9.531 21.249-21.246 21.249H148.046c-11.715.001-21.247-9.531-21.247-21.248"/></svg>