<svg xmlns="http://www.w3.org/2000/svg" xml:space="preserve" width="512" height="512" viewBox="0 0 128 128"><path fill="#c4cad9" d="M34.489 42.416H93.51v60.792A5.79 5.79 0 0 1 87.718 109H40.282a5.79 5.79 0 0 1-5.792-5.792z" data-original="#fa9579"/><path fill="#a1a7b3" d="M79.333 32.971H48.666a1.75 1.75 0 0 1-1.75-1.75v-8.266a5.713 5.713 0 0 1 5.706-5.7h22.756a5.71 5.71 0 0 1 5.7 5.7v8.266a1.75 1.75 0 0 1-1.745 1.75m-28.917-3.5h27.167v-6.516a2.207 2.207 0 0 0-2.2-2.2H52.622a2.21 2.21 0 0 0-2.206 2.2zM64 95.541a1.75 1.75 0 0 1-1.75-1.75V57.625a1.75 1.75 0 0 1 3.5 0v36.166a1.75 1.75 0 0 1-1.75 1.75m15.333 0a1.75 1.75 0 0 1-1.75-1.75V57.625a1.75 1.75 0 0 1 3.5 0v36.166a1.75 1.75 0 0 1-1.75 1.75m-30.667 0a1.75 1.75 0 0 1-1.75-1.75V57.625a1.75 1.75 0 0 1 3.5 0v36.166a1.75 1.75 0 0 1-1.75 1.75" data-original="#654062"/><rect width="70" height="13.195" x="29" y="29.22" fill="#b4b8c2" data-original="#ffe36e" rx="3.669"/></svg>