<svg xmlns="http://www.w3.org/2000/svg" xml:space="preserve" width="512" height="512" viewBox="0 0 128 128"><path fill="#c4cad9" d="M34.489 42.416H93.51v60.792A5.79 5.79 0 0 1 87.718 109H40.282a5.79 5.79 0 0 1-5.792-5.792z" data-original="#fa9579"/><path fill="#a1a7b3" d="M79.333 32.971H48.666a1.75 1.75 0 0 1-1.75-1.75v-8.266a5.713 5.713 0 0 1 5.706-5.7h22.756a5.71 5.71 0 0 1 5.7 5.7v8.266a1.75 1.75 0 0 1-1.745 1.75m-28.917-3.5h27.167v-6.516a2.207 2.207 0 0 0-2.2-2.2H52.622a2.21 2.21 0 0 0-2.206 2.2zM64 95.541a1.75 1.75 0 0 1-1.75-1.75V57.625a1.75 1.75 0 0 1 3.5 0v36.166a1.75 1.75 0 0 1-1.75 1.75m15.333 0a1.75 1.75 0 0 1-1.75-1.75V57.625a1.75 1.75 0 0 1 3.5 0v36.166a1.75 1.75 0 0 1-1.75 1.75m-30.667 0a1.75 1.75 0 0 1-1.75-1.75V57.625a1.75 1.75 0 0 1 3.5 0v36.166a1.75 1.75 0 0 1-1.75 1.75" data-original="#654062"/><rect width="70" height="13.195" x="29" y="29.22" fill="#b4b8c2" data-original="#ffe36e" rx="3.669"/><g fill="#a1a7b3"><path d="M93.511 70.818a1.75 1.75 0 0 0-1.75 1.75v1.8a1.75 1.75 0 1 0 3.5 0v-1.8a1.75 1.75 0 0 0-1.75-1.75" data-original="#4d2856"/><path d="M95.331 27.471H81.083v-4.516a5.71 5.71 0 0 0-5.7-5.7H52.622a5.713 5.713 0 0 0-5.706 5.7v4.516H32.669a5.425 5.425 0 0 0-5.419 5.419v5.857a5.425 5.425 0 0 0 5.419 5.419h.07v59.041a7.55 7.55 0 0 0 7.543 7.543h47.436a7.55 7.55 0 0 0 7.543-7.543V83.353a1.75 1.75 0 1 0-3.5 0v19.854a4.05 4.05 0 0 1-4.043 4.043H40.282a4.05 4.05 0 0 1-4.043-4.043V44.166h55.522V64a1.75 1.75 0 0 0 3.5 0V44.166h.07a5.425 5.425 0 0 0 5.419-5.419V32.89a5.425 5.425 0 0 0-5.419-5.419m-44.915-4.516a2.21 2.21 0 0 1 2.206-2.2h22.756a2.207 2.207 0 0 1 2.2 2.2v4.516H50.416zM97.25 38.747a1.92 1.92 0 0 1-1.919 1.919H32.669a1.92 1.92 0 0 1-1.919-1.919V32.89a1.92 1.92 0 0 1 1.919-1.919h62.662a1.92 1.92 0 0 1 1.919 1.919z" data-original="#4d2856"/><path d="M62.25 57.625v36.166a1.75 1.75 0 0 0 3.5 0V57.625a1.75 1.75 0 0 0-3.5 0m15.333 0v36.166a1.75 1.75 0 0 0 3.5 0V57.625a1.75 1.75 0 0 0-3.5 0m-30.667 0v36.166a1.75 1.75 0 0 0 3.5 0V57.625a1.75 1.75 0 0 0-3.5 0" data-original="#4d2856"/></g></svg>