<svg xmlns="http://www.w3.org/2000/svg" width="512" height="512" viewBox="0 0 512 512"><path fill="#b1e4f9" d="m94.374 95.386 80.813 104.047L256 95.386zm323.252 0-80.813 104.047L256 95.386z"/><path fill="#75cef9" d="m417.626 95.386-80.813 104.047H504.5z"/><path fill="#90d8f9" d="m256 95.386-80.813 104.047h161.626z"/><path fill="#e4f6ff" d="M94.374 95.386 7.5 199.433h167.687z"/><path fill="#75cef9" d="M175.187 199.433 256 467.126l80.813-267.693z"/><path fill="#b1e4f9" d="M256 467.126 7.5 199.433h167.687z"/><path fill="#6bbef6" d="m256 467.126 248.5-267.693H336.813z"/><path fill="#ffe07d" d="m419.541 303.785 14.247-7.124-14.247-7.124a15.66 15.66 0 0 1-7.535-8.189l-9.532-23.831-9.532 23.831a15.65 15.65 0 0 1-7.535 8.189l-14.247 7.124 14.247 7.124a15.66 15.66 0 0 1 7.535 8.189l9.532 23.831 9.532-23.831a15.66 15.66 0 0 1 7.535-8.189m-239.408 83.338 14.247-7.124-14.247-7.124a15.66 15.66 0 0 1-7.535-8.189l-9.532-23.831-9.532 23.831a15.66 15.66 0 0 1-7.535 8.189l-14.247 7.124 14.247 7.124a15.66 15.66 0 0 1 7.535 8.189l9.532 23.831 9.532-23.831a15.65 15.65 0 0 1 7.535-8.189m-51.614-282.545 18.384-9.192-18.384-9.192a20.2 20.2 0 0 1-9.723-10.567l-12.3-30.749-12.3 30.749a20.2 20.2 0 0 1-9.723 10.567l-18.384 9.192 18.384 9.192a20.2 20.2 0 0 1 9.723 10.567l12.3 30.749 12.3-30.749a20.2 20.2 0 0 1 9.723-10.567"/><path d="m510.257 194.626-86.87-104.05a7.5 7.5 0 0 0-5.757-2.693h-59.237c-4.143 0-7.5 3.358-7.5 7.5s3.357 7.5 7.5 7.5h43.916l-65.495 84.324-65.495-84.324h52.039c4.143 0 7.5-3.358 7.5-7.5s-3.357-7.5-7.5-7.5H148.664l-16.791-8.396a12.7 12.7 0 0 1-6.114-6.645L113.46 42.093a7.499 7.499 0 0 0-13.926-.001l-12.3 30.749a12.7 12.7 0 0 1-6.114 6.645l-18.384 9.192a7.499 7.499 0 0 0 0 13.416l11.467 5.733-72.46 86.799a7.5 7.5 0 0 0 .261 9.909l82.584 88.963a7.48 7.48 0 0 0 5.499 2.397 7.5 7.5 0 0 0 5.495-12.602l-70.885-76.36h144.92l69.839 231.342-45.919-49.469 4.197-2.098a7.499 7.499 0 0 0 0-13.416l-14.248-7.125a8.15 8.15 0 0 1-3.926-4.267l-9.532-23.831a7.5 7.5 0 0 0-13.926 0l-2.912 7.28-33.662-36.262a7.5 7.5 0 1 0-10.993 10.205l38.492 41.465-.457 1.142a8.15 8.15 0 0 1-3.926 4.267l-14.248 7.124a7.5 7.5 0 0 0 0 13.416l14.248 7.123a8.15 8.15 0 0 1 3.926 4.267l9.532 23.831a7.5 7.5 0 0 0 13.926 0l9.532-23.831a8.2 8.2 0 0 1 .774-1.466l70.168 75.593a7.5 7.5 0 0 0 10.994 0L392.51 331.092l2.999 7.497a7.502 7.502 0 0 0 13.928 0l9.532-23.832a8.15 8.15 0 0 1 3.925-4.266l14.248-7.124a7.501 7.501 0 0 0 0-13.416l-4.401-2.201 33.634-36.23a7.5 7.5 0 0 0-.394-10.599 7.5 7.5 0 0 0-10.599.394l-35.764 38.525a8.3 8.3 0 0 1-.65-1.28l-9.532-23.831a7.502 7.502 0 0 0-13.928 0l-9.532 23.832a8.15 8.15 0 0 1-3.926 4.266l-14.248 7.124a7.5 7.5 0 0 0 0 13.416l14.247 7.123a8.15 8.15 0 0 1 3.926 4.267l.37.925-113.802 122.596 69.84-231.345h144.92l-7.952 8.565a7.5 7.5 0 0 0 .395 10.599 7.47 7.47 0 0 0 5.101 2.003 7.48 7.48 0 0 0 5.499-2.397l19.651-21.168a7.5 7.5 0 0 0 .26-9.909M388.761 296.245a23.14 23.14 0 0 0 11.145-12.112l2.568-6.422 2.568 6.421a23.13 23.13 0 0 0 11.145 12.113l.832.416-.831.415h-.001a23.14 23.14 0 0 0-11.145 12.112l-2.568 6.422-2.568-6.421a23.13 23.13 0 0 0-11.146-12.113l-.831-.415zm99.708-104.312H352.135l65.706-84.596zM86.525 116.472c.262.471.506.953.708 1.459l12.3 30.749a7.5 7.5 0 0 0 13.926-.001l4.354-10.884 42.054 54.138H23.53zm234.967 75.461H190.511l65.488-84.321zm-172.811-89.051h91.998l-65.489 84.324-50.92-65.551 1.49-3.724a12.7 12.7 0 0 1 6.114-6.645zm-60.854-9.98a27.68 27.68 0 0 0 13.333-14.49l5.336-13.34 5.336 13.34a27.68 27.68 0 0 0 13.333 14.49l4.967 2.484-4.967 2.484a27.68 27.68 0 0 0-13.333 14.49l-5.336 13.34-5.336-13.34a27.67 27.67 0 0 0-13.333-14.489l-4.967-2.484zm77.807 299.625-2.569 6.422-2.569-6.422a23.13 23.13 0 0 0-11.145-12.112l-.831-.415.831-.416a23.14 23.14 0 0 0 11.145-12.112l2.569-6.422 2.569 6.422a23.14 23.14 0 0 0 11.145 12.112l.831.416-.831.415a23.14 23.14 0 0 0-11.145 12.112M256 441.175l-70.714-234.242h141.429z"/></svg>