<svg xmlns="http://www.w3.org/2000/svg" width="512" height="512" viewBox="0 0 512 512"><path fill="#b1e4f9" d="M256 87.374 170.463 197.51 86.314 89.163a21.1 21.1 0 0 1 8.51-1.789zm169.686 1.789-84.15 108.347L256 87.374h161.176a21.1 21.1 0 0 1 8.51 1.789"/><path fill="#75cef9" d="M511.985 197.51H341.536l84.15-108.347h.011a21.1 21.1 0 0 1 7.727 5.822l73.66 88.214a21.03 21.03 0 0 1 4.901 14.311"/><path fill="#90d8f9" d="m256 87.378-85.54 110.133h171.08z"/><path fill="#e4f6ff" d="M170.463 197.51H.015a21.02 21.02 0 0 1 4.901-14.311l73.66-88.214a21.1 21.1 0 0 1 7.727-5.822h.011z"/><path fill="#75cef9" d="M341.536 197.51 259.07 470.695a21.3 21.3 0 0 1-6.139 0L170.463 197.51z"/><path fill="#b1e4f9" d="M252.93 470.695a21.02 21.02 0 0 1-12.405-6.51l-.042-.042L5.646 211.175c-.032-.032-.053-.064-.085-.095a21.05 21.05 0 0 1-5.547-13.57h170.448z"/><path fill="#6bbef6" d="M511.985 197.51a21.05 21.05 0 0 1-5.547 13.57c-.032.032-.053.064-.085.095L271.517 464.143l-.042.042a21.02 21.02 0 0 1-12.405 6.51l82.467-273.185z"/><path fill="#ffe07d" d="m429.107 307.966 7.507-3.753c3.121-1.56 3.121-6.014 0-7.574l-7.507-3.753a16.57 16.57 0 0 1-7.976-8.668l-6.159-15.397c-1.419-3.549-6.443-3.549-7.862 0l-6.159 15.397a16.57 16.57 0 0 1-7.976 8.668l-7.507 3.753c-3.121 1.56-3.121 6.014 0 7.574l7.507 3.753a16.57 16.57 0 0 1 7.976 8.668l6.159 15.397c1.419 3.549 6.443 3.549 7.862 0l6.159-15.397a16.57 16.57 0 0 1 7.976-8.668m-253.412 88.213 7.507-3.753c3.121-1.56 3.121-6.014 0-7.574l-7.507-3.753a16.57 16.57 0 0 1-7.976-8.668l-6.159-15.397c-1.419-3.549-6.443-3.549-7.862 0l-6.159 15.397a16.57 16.57 0 0 1-7.976 8.668l-7.507 3.753c-3.121 1.56-3.121 6.014 0 7.574l7.507 3.753a16.57 16.57 0 0 1 7.976 8.668l6.159 15.397c1.419 3.549 6.443 3.549 7.862 0l6.159-15.397a16.58 16.58 0 0 1 7.976-8.668M121.062 97.108l11.885-5.943c3.121-1.56 3.121-6.014 0-7.574l-11.885-5.943a21.38 21.38 0 0 1-10.292-11.185l-9.088-22.72c-1.419-3.549-6.443-3.549-7.862 0l-9.088 22.72A21.38 21.38 0 0 1 74.44 77.648l-11.885 5.943c-3.121 1.56-3.121 6.014 0 7.574l11.885 5.943a21.38 21.38 0 0 1 10.292 11.185l9.088 22.72c1.419 3.549 6.443 3.549 7.862 0l9.088-22.72a21.4 21.4 0 0 1 10.292-11.185"/></svg>