<svg xmlns="http://www.w3.org/2000/svg" width="512" height="512" viewBox="0 0 512.024 512.024"><path fill="#f3d4b7" d="M484.699 228.699 283.326 27.326c-15.112-15.112-39.581-15.046-54.627 0L27.326 228.699c-15.112 15.112-15.046 39.581 0 54.627l201.373 201.373c15.112 15.112 39.581 15.046 54.627 0l201.373-201.373c15.112-15.112 15.046-39.581 0-54.627"/><path fill="#e1c3a7" d="m484.702 283.322-201.38 201.38c-15.072 15.072-39.545 15.075-54.62 0l-4.69-4.69 196.69-196.69c15.071-15.071 15.075-39.545 0-54.62l-196.69-196.69 4.69-4.69c15.072-15.072 39.545-15.075 54.62 0l201.38 201.38c15.072 15.072 15.075 39.546 0 54.62"/><path d="M496.012 217.385 294.639 16.012c-21.349-21.347-55.902-21.351-77.254 0L16.012 217.385c-21.349 21.348-21.35 55.906 0 77.255l201.373 201.373c21.349 21.347 55.902 21.351 77.254 0L496.012 294.64c21.349-21.348 21.351-55.906 0-77.255m-22.627 54.627L272.012 473.385c-8.844 8.843-23.155 8.844-32 0L38.639 272.012c-8.842-8.842-8.843-23.155 0-32L240.012 38.64c8.844-8.843 23.155-8.844 32 0l201.373 201.373c0 .282 6.627 5.472 6.627 16a22.48 22.48 0 0 1-6.627 15.999"/><path d="M373.372 206.338c-1.253-1.898 2.612 2.216-56.236-57.551-6.2-6.297-16.331-6.376-22.627-.175-6.297 6.2-6.375 16.33-.176 22.626l28.332 28.774H168.012c-8.837 0-16 7.164-16 16v104c0 8.836 7.163 16 16 16s16-7.164 16-16v-88h136.93l-28.332 28.774c-9.985 10.141-2.666 27.226 11.4 27.226a15.95 15.95 0 0 0 11.402-4.774l52.508-53.329c8.912-5.083 10.085-16.561 5.452-23.571"/></svg>