<svg xmlns="http://www.w3.org/2000/svg" width="512" height="512" viewBox="0 0 64 64"><g data-name="18-disco ball"><path fill="#ffd07a" d="m10 60-2 1-1 2-1-2-2-1 2-1 1-2 1 2zm49-45-2 1-1 2-1-2-2-1 2-1 1-2 1 2z"/><path fill="#b195f9" d="M37 9v2.49a25.8 25.8 0 0 0-10 0V9a2.006 2.006 0 0 1 2-2h6a2.006 2.006 0 0 1 2 2"/><path fill="#ffef97" d="M58 37h-8a37 37 0 0 0-.76-7.48C54.62 31.35 58 34.02 58 37"/><path fill="#ffd07a" d="M50 37h8c0 2.98-3.38 5.65-8.76 7.48A37 37 0 0 0 50 37"/><path fill="#ffef97" d="M37 11.49a25.96 25.96 0 0 1 20.98 24.84c-.31-5.86-4.67-11-11.19-14.12-3.13-6.53-8.27-10.9-14.15-11.19a25 25 0 0 1 4.36.47"/><path fill="#ffc169" d="M58 37a26 26 0 0 1-26 26c6.14 0 11.55-4.44 14.79-11.21C53.56 48.55 58 43.14 58 37"/><path fill="#ffd07a" d="M46.79 22.21C53.56 25.45 58 30.86 58 37c0-2.98-3.38-5.65-8.76-7.48a31.6 31.6 0 0 0-2.45-7.31"/><path fill="#ffef97" d="M49.24 44.48C54.62 42.65 58 39.98 58 37c0 6.14-4.44 11.55-11.21 14.79a31.6 31.6 0 0 0 2.45-7.31"/><path fill="#ffd07a" d="M50 37h-8a64 64 0 0 0-.67-9.33 44.5 44.5 0 0 1 7.91 1.85A37 37 0 0 1 50 37"/><path fill="#ffef97" d="M42 37h8a37 37 0 0 1-.76 7.48 44.5 44.5 0 0 1-7.91 1.85A64 64 0 0 0 42 37m4.79-14.79a31.6 31.6 0 0 1 2.45 7.31 44.5 44.5 0 0 0-7.91-1.85 44.5 44.5 0 0 0-1.85-7.91 31.6 31.6 0 0 1 7.31 2.45"/><path fill="#ffd07a" d="M49.24 44.48a31.6 31.6 0 0 1-2.45 7.31 31.6 31.6 0 0 1-7.31 2.45 44.5 44.5 0 0 0 1.85-7.91 44.5 44.5 0 0 0 7.91-1.85M32 11c6.14 0 11.55 4.44 14.79 11.21a31.6 31.6 0 0 0-7.31-2.45C37.65 14.38 34.98 11 32 11"/><path fill="#ffef97" d="M46.79 51.79C43.55 58.56 38.14 63 32 63c2.98 0 5.65-3.38 7.48-8.76a31.6 31.6 0 0 0 7.31-2.45M42 37H32V27a64 64 0 0 1 9.33.67A64 64 0 0 1 42 37"/><path fill="#ffd07a" d="M32 37h10a64 64 0 0 1-.67 9.33A64 64 0 0 1 32 47zm7.48-17.24a44.5 44.5 0 0 1 1.85 7.91A64 64 0 0 0 32 27v-8a37 37 0 0 1 7.48.76"/><path fill="#ffef97" d="M41.33 46.33a44.5 44.5 0 0 1-1.85 7.91A37 37 0 0 1 32 55v-8a64 64 0 0 0 9.33-.67M32 11c2.98 0 5.65 3.38 7.48 8.76A37 37 0 0 0 32 19z"/><path fill="#ffd07a" d="M39.48 54.24C37.65 59.62 34.98 63 32 63v-8a37 37 0 0 0 7.48-.76"/><path fill="#ff71d6" d="M32 55v8c-2.98 0-5.65-3.38-7.48-8.76A37 37 0 0 0 32 55"/><path fill="#ffacf2" d="M32 47v8a37 37 0 0 1-7.48-.76 44.5 44.5 0 0 1-1.85-7.91A64 64 0 0 0 32 47"/><path fill="#ff71d6" d="M32 37v10a64 64 0 0 1-9.33-.67A64 64 0 0 1 22 37z"/><path fill="#ffacf2" d="M32 27v10H22a64 64 0 0 1 .67-9.33A64 64 0 0 1 32 27"/><path fill="#ff71d6" d="M32 19v8a64 64 0 0 0-9.33.67 44.5 44.5 0 0 1 1.85-7.91A37 37 0 0 1 32 19"/><path fill="#ffacf2" d="M32 11v8a37 37 0 0 0-7.48.76C26.35 14.38 29.02 11 32 11"/><path fill="#ffacf2" d="M27 11.49a26 26 0 0 1 5-.49c-6.14 0-11.55 4.44-14.79 11.21C10.44 25.45 6 30.86 6 37a25.986 25.986 0 0 1 21-25.51"/><path fill="#ff71d6" d="M32 11c-2.98 0-5.65 3.38-7.48 8.76a31.6 31.6 0 0 0-7.31 2.45C20.45 15.44 25.86 11 32 11"/><path fill="#ffacf2" d="M24.52 54.24C26.35 59.62 29.02 63 32 63c-6.14 0-11.55-4.44-14.79-11.21a31.6 31.6 0 0 0 7.31 2.45m0-34.48a44.5 44.5 0 0 0-1.85 7.91 44.5 44.5 0 0 0-7.91 1.85 31.6 31.6 0 0 1 2.45-7.31 31.6 31.6 0 0 1 7.31-2.45"/><path fill="#ff71d6" d="M22.67 46.33a44.5 44.5 0 0 0 1.85 7.91 31.6 31.6 0 0 1-7.31-2.45 31.6 31.6 0 0 1-2.45-7.31 44.5 44.5 0 0 0 7.91 1.85m0-18.66A64 64 0 0 0 22 37h-8a37 37 0 0 1 .76-7.48 44.5 44.5 0 0 1 7.91-1.85"/><path fill="#ffacf2" d="M22 37a64 64 0 0 0 .67 9.33 44.5 44.5 0 0 1-7.91-1.85A37 37 0 0 1 14 37z"/><path fill="#ff71d6" d="M17.21 51.79C20.45 58.56 25.86 63 32 63A26 26 0 0 1 6 37c0 6.14 4.44 11.55 11.21 14.79m0-29.58a31.6 31.6 0 0 0-2.45 7.31C9.38 31.35 6 34.02 6 37c0-6.14 4.44-11.55 11.21-14.79"/><path fill="#ffacf2" d="M14.76 44.48a31.6 31.6 0 0 0 2.45 7.31C10.44 48.55 6 43.14 6 37c0 2.98 3.38 5.65 8.76 7.48M6 37c0-2.98 3.38-5.65 8.76-7.48A37 37 0 0 0 14 37z"/><path fill="#ff71d6" d="M14.76 44.48C9.38 42.65 6 39.98 6 37h8a37 37 0 0 0 .76 7.48"/><path fill="#ff9e69" d="M49.3 50.424a27 27 0 0 1-2.51 1.366C43.55 58.56 38.14 63 32 63a26.005 26.005 0 0 0 24.734-17.982 26.1 26.1 0 0 1-7.434 5.406"/><path fill="#ffc169" d="M46.79 51.79a27 27 0 0 0 2.51-1.366q-1.14.55-2.34.992c-.06.123-.111.253-.17.374"/><path fill="#ff9e69" d="M39.892 52.924c-.134.447-.267.894-.412 1.316a31.6 31.6 0 0 0 7.31-2.45c.059-.121.109-.251.166-.374a26 26 0 0 1-7.064 1.508"/><path fill="#ffc169" d="M46.79 51.79a31.6 31.6 0 0 1-7.31 2.45C37.65 59.62 34.98 63 32 63c6.14 0 11.55-4.44 14.79-11.21"/><path fill="#ffc169" d="M38 53a26 26 0 0 1-6-.7V55a37 37 0 0 0 7.48-.76c.145-.422.278-.869.412-1.316-.625.045-1.255.076-1.892.076"/><path fill="#ff9e69" d="M39.48 54.24A37 37 0 0 1 32 55v8c2.98 0 5.65-3.38 7.48-8.76"/><path fill="#db69ae" d="M24.52 54.24C26.35 59.62 29.02 63 32 63v-8a37 37 0 0 1-7.48-.76"/><path fill="#ff71d6" d="M22.986 48.22a42 42 0 0 0 1.534 6.02A37 37 0 0 0 32 55v-2.7a25.9 25.9 0 0 1-9.014-4.08M12.048 25.48a26 26 0 0 1 1.215-6.489A25.9 25.9 0 0 0 6 37c0-4.39 2.279-8.4 6.048-11.52M24.52 54.24a31.6 31.6 0 0 1-7.31-2.45C20.45 58.56 25.86 63 32 63c-2.98 0-5.65-3.38-7.48-8.76"/><path fill="#db69ae" d="M20.147 45.892a41 41 0 0 1-5.387-1.412 31.6 31.6 0 0 0 2.45 7.31 31.6 31.6 0 0 0 7.31 2.45 42 42 0 0 1-1.534-6.02 26 26 0 0 1-2.839-2.328"/><path fill="#ff71d6" d="M14 37.012a37 37 0 0 0 .76 7.468 41 41 0 0 0 5.387 1.412A26.05 26.05 0 0 1 14 37.012"/><path fill="#db69ae" d="M17.21 51.79C10.44 48.55 6 43.14 6 37a26 26 0 0 0 26 26c-6.14 0-11.55-4.44-14.79-11.21m-4.968-21.283A26 26 0 0 1 12 27c0-.511.019-1.017.048-1.52C8.279 28.6 6 32.61 6 37c0-2.482 2.35-4.747 6.242-6.493"/><path fill="#ff71d6" d="M17.21 51.79a31.6 31.6 0 0 1-2.45-7.31C9.38 42.65 6 39.98 6 37c0 6.14 4.44 11.55 11.21 14.79m-4.968-21.283C8.35 32.253 6 34.518 6 37h8a25.8 25.8 0 0 1-1.758-6.493"/><path fill="#db69ae" d="M14.76 44.48a37 37 0 0 1-.76-7.468V37H6c0 2.98 3.38 5.65 8.76 7.48"/><path fill="#977ddb" d="M35 9.49h-6a2.01 2.01 0 0 1-1.849-1.245A2 2 0 0 0 27 9v2.49a25.8 25.8 0 0 1 10 0V9a2 2 0 0 0-.151-.755A2.01 2.01 0 0 1 35 9.49"/><path fill="#fff8de" d="M54 27.415a23.95 23.95 0 0 0-12.43-12.426 23.4 23.4 0 0 1 5.22 7.221A23.4 23.4 0 0 1 54 27.415M56 37a24 24 0 0 0-.376-4.182 18.2 18.2 0 0 0-4.868-2.734A20 20 0 0 1 52 37z"/><path fill="#fff5c2" d="M54 39a2 2 0 0 0 2-2h-4a2 2 0 0 0 2 2m-6.093-14.114a20 20 0 0 1 2.849 5.2 18.2 18.2 0 0 1 4.868 2.734A24 24 0 0 0 54 27.415a23.4 23.4 0 0 0-7.206-5.2c.406.848.774 1.748 1.113 2.671"/><path fill="#fff8de" d="M47.907 24.886c-.339-.923-.7-1.823-1.117-2.676-.846-.41-1.74-.773-2.656-1.11a20 20 0 0 1 3.773 3.786"/><path fill="#fff5c2" d="M37.344 15.032a22 22 0 0 1 1.572 3.212 20 20 0 0 1 5.218 2.856c.916.337 1.81.7 2.656 1.11a23.4 23.4 0 0 0-5.22-7.221 25 25 0 0 0-1.933-.748 2 2 0 0 0-2.293.791"/><path fill="#fff8de" d="M37.1 15.5a2 2 0 0 0 1.261 2.532c.188.063.366.142.551.21a22 22 0 0 0-1.572-3.212 2 2 0 0 0-.24.47M33 17.022a2 2 0 0 0 .086-4A30 30 0 0 0 32 13v4q.458 0 .912.021z"/><path fill="#ffcff7" d="M30 15a2 2 0 0 0 2 2v-4a2 2 0 0 0-2 2"/><path fill="#ffacf2" d="M40 3h2v2h-2z"/><path fill="#9ffd8f" d="M16 9h2v2h-2zm42 43h2v2h-2z"/><path d="M38 10.68V9a3 3 0 0 0-3-3h-2V1h-2v5h-2a3 3 0 0 0-3 3v1.68a27 27 0 1 0 12 0m16.869 16.238a24.3 24.3 0 0 0-7.34-5.447 24.3 24.3 0 0 0-5.447-7.34 25.14 25.14 0 0 1 12.787 12.787M42.99 36a65 65 0 0 0-.482-7.153 43 43 0 0 1 5.858 1.406A36 36 0 0 1 48.983 36zM31 53.979a36 36 0 0 1-5.75-.62 43 43 0 0 1-1.4-5.851 65 65 0 0 0 7.15.482zm0 2v5.84c-1.777-.613-3.54-2.825-4.959-6.291a38 38 0 0 0 4.959.451m2 5.84v-5.837a38 38 0 0 0 4.958-.454c-1.418 3.466-3.181 5.678-4.958 6.291m0-7.836v-6a66 66 0 0 0 7.154-.48 43 43 0 0 1-1.407 5.861 36 36 0 0 1-5.747.619M32 46a65 65 0 0 1-8.462-.538A64 64 0 0 1 23.01 38H31v6h2v-6h7.99a64 64 0 0 1-.525 7.443A64 64 0 0 1 32 46m1-25.983a36 36 0 0 1 5.747.617 43 43 0 0 1 1.406 5.858A65 65 0 0 0 33 26.01zm0-2v-5.836c1.777.613 3.54 2.825 4.959 6.291A38 38 0 0 0 33 18.018zm-2-5.837v5.837a38 38 0 0 0-4.959.454c1.419-3.465 3.182-5.677 4.959-6.29zm0 7.836v6a65 65 0 0 0-7.155.487 43 43 0 0 1 1.408-5.87A36 36 0 0 1 31 20.017zM23.01 36a64 64 0 0 1 .525-7.443 63 63 0 0 1 7.465-.54V34h2v-5.99a64 64 0 0 1 7.462.528A64 64 0 0 1 40.99 36zm27.972 0a38 38 0 0 0-.454-4.958c3.466 1.418 5.678 3.181 6.291 4.958zm5.837 2c-.618 1.779-2.846 3.532-6.287 4.936a38 38 0 0 0 .45-4.936zM50.1 28.772a34 34 0 0 0-1.289-4.347 18.1 18.1 0 0 1 6.934 7.257 22 22 0 0 0-5.645-2.91m-2.226-.725a47 47 0 0 0-5.658-1.258 47 47 0 0 0-1.259-5.658 30.4 30.4 0 0 1 5.1 1.817 30.5 30.5 0 0 1 1.812 5.099zm-7.641-9.142a22 22 0 0 0-2.91-5.645 18.1 18.1 0 0 1 7.257 6.934 34 34 0 0 0-4.352-1.289zM26.682 13.26a22 22 0 0 0-2.91 5.645 34 34 0 0 0-4.347 1.289 18.1 18.1 0 0 1 7.257-6.934m-3.634 7.871A56.8 56.8 0 0 0 21.01 36H17v2h4.01a65 65 0 0 0 .482 7.153 43 43 0 0 1-5.858-1.406 36.2 36.2 0 0 1-.005-13.466 42 42 0 0 1 4.571-1.174l-.4-1.961c-1.3.261-2.52.561-3.669.891a30.5 30.5 0 0 1 1.814-5.089 30.4 30.4 0 0 1 5.103-1.817M13.018 36H7.182c.612-1.816 2.851-3.553 6.288-4.944A38 38 0 0 0 13.018 36m0 2a38 38 0 0 0 .454 4.958C10.006 41.54 7.794 39.777 7.181 38zm.893-9.251A21.6 21.6 0 0 0 8.3 31.606a18.15 18.15 0 0 1 6.9-7.181 34 34 0 0 0-1.289 4.324m-.006 16.479a34 34 0 0 0 1.284 4.332 18.17 18.17 0 0 1-6.9-7.219 22 22 0 0 0 5.616 2.887m2.226.725a47 47 0 0 0 5.658 1.258 47 47 0 0 0 1.259 5.658 31 31 0 0 1-2.709-.838l-.68 1.881a34 34 0 0 0 4.114 1.188 21.9 21.9 0 0 0 2.909 5.643c-4.843-2.355-8.727-7.824-10.551-14.79M37.318 60.74a22 22 0 0 0 2.91-5.645 34 34 0 0 0 4.347-1.289 18.1 18.1 0 0 1-7.257 6.934m3.635-7.871a47 47 0 0 0 1.258-5.66 49 49 0 0 0 5.052-1.075l-.526-1.93a47 47 0 0 1-4.225.924A66 66 0 0 0 42.99 38h5.993a33.3 33.3 0 0 1-2.931 13.052 30.5 30.5 0 0 1-5.099 1.817m9.138-7.627A21.8 21.8 0 0 0 55.7 42.4a18.16 18.16 0 0 1-6.9 7.179 34 34 0 0 0 1.291-4.337M28 9a1 1 0 0 1 1-1h6a1 1 0 0 1 1 1v1.3a27 27 0 0 0-8 0zm-6.082 5.131a24.3 24.3 0 0 0-5.447 7.34 24.3 24.3 0 0 0-7.34 5.447 25.14 25.14 0 0 1 12.787-12.787M9.147 47.117a24 24 0 0 0 7.342 5.448 24.3 24.3 0 0 0 5.429 7.3A25.14 25.14 0 0 1 9.147 47.117m32.935 12.752a24.3 24.3 0 0 0 5.447-7.34 24.3 24.3 0 0 0 7.34-5.447 25.14 25.14 0 0 1-12.787 12.787M40 1h2v2h-2z"/><path d="M40 5h2v2h-2zm2-2h2v2h-2zm-4 0h2v2h-2zm20 47h2v2h-2zm0 4h2v2h-2zm2-2h2v2h-2zm-4 0h2v2h-2zM16 7h2v2h-2zm0 4h2v2h-2zm2-2h2v2h-2zm-4 0h2v2h-2zm38.553 6.9 1.7.85.85 1.7a1 1 0 0 0 1.79 0l.85-1.7 1.7-.85a1 1 0 0 0 0-1.79l-1.7-.85-.85-1.7a1.042 1.042 0 0 0-1.79 0l-.85 1.7-1.7.85a1 1 0 0 0 0 1.79m2.894-1a1 1 0 0 0 .448-.448l.1-.211.1.211a1 1 0 0 0 .448.448l.211.105-.211.105a1 1 0 0 0-.448.448l-.1.211-.1-.211a1 1 0 0 0-.448-.448l-.211-.11zm-45 44.205-1.7-.85-.85-1.7a1.042 1.042 0 0 0-1.79 0l-.85 1.7-1.7.85a1 1 0 0 0 0 1.79l1.7.85.85 1.7a1 1 0 0 0 1.79 0l.85-1.7 1.7-.85a1 1 0 0 0 0-1.79m-2.894 1a1 1 0 0 0-.448.448L7 60.764l-.1-.211a1 1 0 0 0-.448-.448L6.236 60l.211-.1a1 1 0 0 0 .448-.448L7 59.236l.105.211a1 1 0 0 0 .448.448l.211.1z"/></g></svg>