<svg xmlns="http://www.w3.org/2000/svg" width="512" height="512" viewBox="0 0 64 64"><g data-name="18-disco ball"><path d="M32 64a27 27 0 1 1 27-27 27.03 27.03 0 0 1-27 27m0-52a25 25 0 1 0 25 25 25.03 25.03 0 0 0-25-25"/><path d="M38 12h-2V9a1 1 0 0 0-1-1h-6a1 1 0 0 0-1 1v3h-2V9a3 3 0 0 1 3-3h6a3 3 0 0 1 3 3z"/><path d="M31 1h2v6h-2zm9 0h2v2h-2zm0 4h2v2h-2zm2-2h2v2h-2zm-4 0h2v2h-2zm20 47h2v2h-2zm0 4h2v2h-2zm2-2h2v2h-2zm-4 0h2v2h-2zM16 7h2v2h-2zm0 4h2v2h-2zm2-2h2v2h-2zm-4 0h2v2h-2zm42 10a1 1 0 0 1-.9-.553l-.85-1.7-1.7-.85a1 1 0 0 1 0-1.79l1.7-.85.85-1.7a1.042 1.042 0 0 1 1.79 0l.85 1.7 1.7.85a1 1 0 0 1 0 1.79l-1.7.85-.85 1.7A1 1 0 0 1 56 19m-.764-4 .211.105a1 1 0 0 1 .448.448l.1.211.1-.211a1 1 0 0 1 .448-.448l.221-.105-.211-.105a1 1 0 0 1-.448-.448l-.1-.211-.1.211a1 1 0 0 1-.448.448zM7 64a1 1 0 0 1-.895-.553l-.85-1.7-1.7-.85a1 1 0 0 1 0-1.79l1.7-.85.85-1.7a1.042 1.042 0 0 1 1.79 0l.85 1.7 1.7.85a1 1 0 0 1 0 1.79l-1.7.85-.85 1.7A1 1 0 0 1 7 64m-.764-4 .211.1a1 1 0 0 1 .448.448l.105.216.105-.211a1 1 0 0 1 .448-.448l.211-.1-.211-.1a1 1 0 0 1-.448-.448L7 59.236l-.105.211a1 1 0 0 1-.448.448zM17 36h41v2H17zM6 36h8v2H6zm25 11h2v16h-2z"/><path d="M31 37h2v7h-2zm0-26h2v23h-2z"/><path d="M32 64c-6.168 0-11-11.859-11-27s4.832-27 11-27 11 11.86 11 27-4.832 27-11 27m0-52c-4.347 0-9 10.045-9 25s4.653 25 9 25 9-10.046 9-25-4.653-25-9-25"/><path d="M32 64c-10.477 0-19-12.112-19-27s8.523-27 19-27 19 12.112 19 27-8.523 27-19 27m0-52c-9.374 0-17 11.215-17 25s7.626 25 17 25 17-11.215 17-25-7.626-25-17-25"/><path d="M32 64c-6.168 0-11-11.859-11-27s4.832-27 11-27 11 11.86 11 27-4.832 27-11 27m0-52c-4.347 0-9 10.045-9 25s4.653 25 9 25 9-10.046 9-25-4.653-25-9-25"/><path d="M32 64c-10.477 0-19-12.112-19-27s8.523-27 19-27 19 12.112 19 27-8.523 27-19 27m0-52c-9.374 0-17 11.215-17 25s7.626 25 17 25 17-11.215 17-25-7.626-25-17-25"/><path d="m49.315 45.516-.63-1.9C53.892 41.885 57 39.411 57 37c0-4.346-10.046-9-25-9a63 63 0 0 0-8.859.605l-.282-1.98A65 65 0 0 1 32 26c15.141 0 27 4.832 27 11 0 3.413-3.439 6.438-9.685 8.516M32 48C16.859 48 5 43.168 5 37c0-4.312 5.533-8 14.8-9.854l.392 1.961C12.18 30.714 7 33.812 7 37c0 4.347 10.046 9 25 9a57.2 57.2 0 0 0 14.737-1.8l.526 1.93A59.2 59.2 0 0 1 32 48"/><path d="M32 56a36.7 36.7 0 0 1-12.341-2.088l.68-1.881A34.7 34.7 0 0 0 32 54c13.785 0 25-7.626 25-17S45.785 20 32 20 7 27.626 7 37c0 5.443 3.9 10.6 10.44 13.806l-.878 1.8C9.322 49.057 5 43.225 5 37c0-10.477 12.112-19 27-19s27 8.523 27 19-12.112 19-27 19"/></g></svg>