<svg xmlns="http://www.w3.org/2000/svg" width="512" height="512" viewBox="0 0 62 62"><path fill="#fcd770" d="M0 6h5v10H0z"/><path fill="#fc6e51" d="M55.31 15.99C58.15 17.98 60 21.27 60 25c0 6.08-4.92 11-11 11-1.74 0-3.39-.41-4.86-1.13.39-1.3.82-2.59 1.29-3.86 1.04.63 2.26.99 3.57.99 3.87 0 7-3.13 7-7s-3.13-7-7-7-7 3.13-7 7c0 .7.1 1.37.29 2h-4.11c-.12-.65-.18-1.32-.18-2 0-6.08 4.92-11 11-11 2.35 0 4.53.74 6.31 1.99"/><path fill="#ff826e" d="M49 18c3.87 0 7 3.13 7 7s-3.13 7-7 7a6.86 6.86 0 0 1-3.57-.99c.48-1.35 1-2.69 1.57-4.01h-4.71c-.19-.63-.29-1.3-.29-2 0-3.87 3.13-7 7-7"/><path fill="#e6e9ed" d="M45.43 31.01c-.47 1.27-.9 2.56-1.29 3.86l-.03.13H29v-8h18c-.57 1.32-1.09 2.66-1.57 4.01M25 27v8h-7.1c-.81-2.71-1.78-5.38-2.9-8z"/><path fill="#ccd1d9" d="M41 57v2c0 1.1-.9 2-2 2H15.06c3.55 0 7.1-1.34 9.82-4z"/><path fill="#ff826e" d="M17.9 35c.45 1.53.86 3.08 1.22 4.64.99 4.32 1.6 8.72 1.8 13.16l1.21 1.21L25 56.88l-.12.12H41v-.77c0-7.21 1.05-14.36 3.11-21.23z"/><path fill="#b4dd7f" d="M57 10h4c0 1.6-.63 3.06-1.66 4.14a5.93 5.93 0 0 1-4.03 1.85A10.95 10.95 0 0 0 49 14c1.66 0 3.16-.67 4.24-1.76.48-.48.88-1.04 1.17-1.66h.01c.79-.37 1.65-.58 2.58-.58"/><path fill="#b4dd7f" d="M55 4v4c0 .93-.21 1.8-.58 2.58h-.01a5.9 5.9 0 0 1-1.17 1.66A5.94 5.94 0 0 1 49 14v-4c0-3.31 2.69-6 6-6"/><path fill="#f0d0b4" d="M36 15.22c0 .77-.31 1.46-.81 1.97-.51.5-1.2.81-1.97.81h-.18c-.36 0-.71-.07-1.04-.2v-7.47l3.1 2.84c.57.53.9 1.27.9 2.05m-14-3.47 1.43-.53c.38-.15.78-.22 1.18-.22 1.87 0 3.39 1.52 3.39 3.39V15l-6 2.4-1.3.52c-1.78.71-3.69 1.08-5.6 1.08-2.05 0-4.07-.41-5.95-1.22L5 16V6l9.02-2.46c1.32-.36 2.67-.54 4.03-.54 1.54 0 3.07.23 4.52.68C22.21 4.37 22 5.16 22 6z"/><path fill="#ffeaa7" d="M27 1c-1.38 0-2.63.56-3.54 1.46-.35.36-.65.77-.89 1.22C22.21 4.37 22 5.16 22 6v5.75l1.43-.53c.38-.15.78-.22 1.18-.22 1.87 0 3.39 1.52 3.39 3.39V15l-6 2.4v.99c0 1.01.5 1.94 1.34 2.5L25 22v18c0 .55.45 1 1 1h2c.55 0 1-.45 1-1V22l1.66-1.11c.84-.56 1.34-1.49 1.34-2.5V6c0-2.76-2.24-5-5-5"/><circle cx="36" cy="42" r="3" fill="#fc6e51"/><circle cx="29" cy="51" r="2" fill="#fc6e51"/><path fill="#fc6e51" d="m25 56.88-.12.12c-2.72 2.66-6.27 4-9.82 4H15c-3.58-.02-7.16-1.4-9.88-4.12-5.49-5.49-5.49-14.39 0-19.88l2.87 2.87A10 10 0 0 0 5 47c0 5.52 4.48 10 10 10 2.79 0 5.31-1.15 7.13-2.99z"/><path fill="#ff826e" d="m20.92 52.8 1.21 1.21A10 10 0 0 1 15 57C9.48 57 5 52.52 5 47c0-2.79 1.15-5.31 2.99-7.13z"/><path d="M62 10V9h-5c-.371 0-.735.039-1.094.095C55.962 8.737 56 8.373 56 8V3h-1c-3.859 0-7 3.141-7 7v3.051C41.85 13.562 37 18.72 37 25c0 .334.018.667.045 1H30v-3.465l1.219-.813a4 4 0 0 0 1.732-2.732c.031.002.061.01.093.01h.178A3.783 3.783 0 0 0 37 15.222c0-1.056-.446-2.07-1.225-2.785L33 9.893V6c0-3.309-2.691-6-6-6-2.014 0-3.794 1-4.883 2.526a16.37 16.37 0 0 0-8.356.048L4.866 5H0v2h4v8H0v2h4.795l3.966 1.699A16 16 0 0 0 15.096 20c2.041 0 4.037-.383 5.933-1.137a3.99 3.99 0 0 0 1.752 2.86l1.219.812V26H13.483l.598 1.394a73 73 0 0 1 5.66 22.815L5.118 35.586l-.707.707A14.96 14.96 0 0 0 0 46.94c0 4.022 1.566 7.805 4.411 10.648a14.96 14.96 0 0 0 10.587 4.408V62H39c1.654 0 3-1.346 3-3v-2.769c0-6.821.955-13.512 2.801-19.996 1.338.503 2.744.765 4.199.765 6.617 0 12-5.383 12-12 0-3.3-1.339-6.292-3.502-8.463A6.99 6.99 0 0 0 62 10m-27.577 3.91A1.78 1.78 0 0 1 33.222 17h-.178L33 16.996v-4.39zM50 10a5.01 5.01 0 0 1 4-4.899V8a5.01 5.01 0 0 1-4 4.899zm-4.5 18a76 76 0 0 0-2.127 6H30v-6zM43 25c0-3.309 2.691-6 6-6s6 2.691 6 6-2.691 6-6 6a6 6 0 0 1-2.333-.472 74 74 0 0 1 1.252-3.135L48.517 26h-5.425A6 6 0 0 1 43 25M26 36h2v4h-2zm0-2v-6h2v6zM9.548 16.861 6 15.341V6.764l8.286-2.26a14.4 14.4 0 0 1 6.947-.142A6 6 0 0 0 21 6v5.057l-5.02 1.883-2.664-.888-.633 1.896 3.336 1.112 7.756-2.908q.408-.152.839-.152a2.39 2.39 0 0 1 2.385 2.323l-6.674 2.669a14.13 14.13 0 0 1-10.777-.131m14.343 3.198A2 2 0 0 1 23 18.395v-.318l6-2.4v-1.291a4.392 4.392 0 0 0-5.927-4.107l-.073.028V6c0-2.206 1.794-4 4-4s4 1.794 4 4v12.395c0 .67-.333 1.292-.891 1.664L28 21.465V26h-2v-4.535zM24 28v6h-5.358a75 75 0 0 0-2.142-6zM12.745 47.841l-4.77 4.77a8.94 8.94 0 0 1-1.947-5.064zM6.126 45.55a8.9 8.9 0 0 1 1.899-4.228l4.509 4.509zm7.985 3.753.15 6.66a8.95 8.95 0 0 1-4.872-1.937zm2.15 6.599-.146-6.491 4.564 4.564a8.9 8.9 0 0 1-4.418 1.927M2 46.94c0-3.152 1.109-6.134 3.145-8.5l1.461 1.461A10.9 10.9 0 0 0 4 47c0 6.065 4.935 11 11 11 2.632 0 5.115-.921 7.098-2.606l1.461 1.461A12.95 12.95 0 0 1 15.06 60c-3.488 0-6.768-1.358-9.234-3.825S2 50.429 2 46.94M39 60H22.54a15 15 0 0 0 2.714-2H40v1a1 1 0 0 1-1 1m1.005-4H25.532l-3.639-3.639A75 75 0 0 0 19.215 36H24v4c0 1.103.897 2 2 2h2c1.103 0 2-.897 2-2v-4h12.786a74.8 74.8 0 0 0-2.781 20M49 35a9.9 9.9 0 0 1-3.642-.697c.2-.635.43-1.262.647-1.893.948.383 1.962.59 2.995.59 4.411 0 8-3.589 8-8s-3.589-8-8-8-8 3.589-8 8c0 .336.03.669.072 1h-2.019A10 10 0 0 1 39 25c0-5.514 4.486-10 10-10s10 4.486 10 10-4.486 10-10 10m6.544-20.046a12 12 0 0 0-2.512-1.243 7.05 7.05 0 0 0 2.1-2.343A5 5 0 0 1 57 11h2.9a4.98 4.98 0 0 1-4.356 3.954"/><path d="M29 48c-1.654 0-3 1.346-3 3s1.346 3 3 3 3-1.346 3-3-1.346-3-3-3m0 4a1 1 0 1 1 0-2 1 1 0 0 1 0 2m7-14c-2.206 0-4 1.794-4 4s1.794 4 4 4 4-1.794 4-4-1.794-4-4-4m0 6c-1.103 0-2-.897-2-2s.897-2 2-2 2 .897 2 2-.897 2-2 2"/></svg>