<svg xmlns="http://www.w3.org/2000/svg" width="512" height="512" viewBox="0 0 62 62"><path fill="#f0bc5e" d="M17.577 34a74.2 74.2 0 0 1 3.343 18.803L25 56.882c-.043.043-.091.076-.135.118H41v-.768A74.2 74.2 0 0 1 44.41 34z"/><path d="M62 10V9h-5c-.371 0-.735.039-1.094.095C55.962 8.737 56 8.373 56 8V3h-1c-3.859 0-7 3.141-7 7v3.051C41.85 13.562 37 18.72 37 25c0 .334.018.667.045 1H30v-3.465l1.219-.813a4 4 0 0 0 1.732-2.732c.031.002.061.01.093.01h.178A3.783 3.783 0 0 0 37 15.222c0-1.056-.446-2.07-1.225-2.785L33 9.893V6c0-3.309-2.691-6-6-6-2.014 0-3.794 1-4.883 2.526a16.37 16.37 0 0 0-8.356.048L4.866 5H0v2h4v8H0v2h4.795l3.966 1.699A16 16 0 0 0 15.096 20c2.041 0 4.037-.383 5.933-1.137a3.99 3.99 0 0 0 1.752 2.86l1.219.812V26H13.483l.598 1.394a73 73 0 0 1 5.66 22.815L5.118 35.586l-.707.707A14.96 14.96 0 0 0 0 46.94c0 4.022 1.566 7.805 4.411 10.648a14.96 14.96 0 0 0 10.587 4.408V62H39c1.654 0 3-1.346 3-3v-2.769c0-6.821.955-13.512 2.801-19.996 1.338.503 2.744.765 4.199.765 6.617 0 12-5.383 12-12 0-3.3-1.339-6.292-3.502-8.463A6.99 6.99 0 0 0 62 10m-27.577 3.91A1.78 1.78 0 0 1 33.222 17h-.178L33 16.996v-4.39zM50 10a5.01 5.01 0 0 1 4-4.899V8a5.01 5.01 0 0 1-4 4.899zM9.548 16.861 6 15.341V6.764l8.286-2.26a14.4 14.4 0 0 1 6.947-.142A6 6 0 0 0 21 6v5.057l-5.02 1.883-2.664-.888-.633 1.896 3.336 1.112 7.756-2.908q.408-.152.839-.152a2.39 2.39 0 0 1 2.385 2.323l-6.674 2.669a14.13 14.13 0 0 1-10.777-.131m14.343 3.198A2 2 0 0 1 23 18.395v-.318l6-2.4v-1.291a4.392 4.392 0 0 0-5.927-4.107l-.073.028V6c0-2.206 1.794-4 4-4s4 1.794 4 4v12.395c0 .67-.333 1.292-.891 1.664L28 21.465V26h-2v-4.535zM26 28h2v12h-2zM12.745 47.841l-4.77 4.77a8.94 8.94 0 0 1-1.947-5.064zM6.126 45.55a8.9 8.9 0 0 1 1.899-4.228l4.509 4.509zm7.985 3.753.15 6.66a8.95 8.95 0 0 1-4.872-1.937zm2.15 6.599-.146-6.491 4.564 4.564a8.9 8.9 0 0 1-4.418 1.927M2 46.94c0-3.152 1.109-6.134 3.145-8.5l1.461 1.461A10.9 10.9 0 0 0 4 47c0 6.065 4.935 11 11 11 2.632 0 5.115-.921 7.098-2.606l1.461 1.461A12.95 12.95 0 0 1 15.06 60c-3.488 0-6.768-1.358-9.234-3.825S2 50.429 2 46.94M39 60H22.54a15 15 0 0 0 2.714-2H40v1a1 1 0 0 1-1 1m1.005-4H25.532l-3.639-3.639A75 75 0 0 0 16.5 28H24v12c0 1.103.897 2 2 2h2c1.103 0 2-.897 2-2V28h15.5a74.8 74.8 0 0 0-5.495 28M43 25c0-3.309 2.691-6 6-6s6 2.691 6 6-2.691 6-6 6a6 6 0 0 1-2.333-.472 74 74 0 0 1 1.252-3.135L48.517 26h-5.425A6 6 0 0 1 43 25m6 10a9.9 9.9 0 0 1-3.642-.697c.2-.635.43-1.262.647-1.893.948.383 1.962.59 2.995.59 4.411 0 8-3.589 8-8s-3.589-8-8-8-8 3.589-8 8c0 .336.03.669.072 1h-2.019A10 10 0 0 1 39 25c0-5.514 4.486-10 10-10s10 4.486 10 10-4.486 10-10 10m6.544-20.046a12 12 0 0 0-2.512-1.243 7.05 7.05 0 0 0 2.1-2.343A5 5 0 0 1 57 11h2.9a4.98 4.98 0 0 1-4.356 3.954"/><path d="M29 48c-1.654 0-3 1.346-3 3s1.346 3 3 3 3-1.346 3-3-1.346-3-3-3m0 4a1 1 0 1 1 0-2 1 1 0 0 1 0 2m7-14c-2.206 0-4 1.794-4 4s1.794 4 4 4 4-1.794 4-4-1.794-4-4-4m0 6c-1.103 0-2-.897-2-2s.897-2 2-2 2 .897 2 2-.897 2-2 2"/></svg>