<svg xmlns="http://www.w3.org/2000/svg" xml:space="preserve" width="682.667" height="682.667" viewBox="0 0 682.667 682.667"><defs><clipPath id="a" clipPathUnits="userSpaceOnUse"><path d="M0 512h512V0H0Z"/></clipPath></defs><g clip-path="url(#a)" transform="matrix(1.33333 0 0 -1.33333 0 682.667)"><path d="M0 0c0 137.243-111.257 248.5-248.5 248.5S-497 137.243-497 0s111.257-248.5 248.5-248.5S0-137.243 0 0" style="fill:none;stroke:#000;stroke-width:15;stroke-linecap:round;stroke-linejoin:round;stroke-miterlimit:10;stroke-dasharray:none;stroke-opacity:1" transform="translate(504.5 256)"/><path d="M0 0v32.064c0 13.282 10.767 24.049 24.048 24.049h32.065a8.016 8.016 0 0 1 8.016 8.016v48.097a8.016 8.016 0 0 1-8.016 8.016H8.016c-48.699 0-88.177-39.478-88.177-88.178v-64.128h-56.113a8.016 8.016 0 0 1-8.016-8.017v-48.096a8.016 8.016 0 0 1 8.016-8.016h56.113v-144.291" style="fill:none;stroke:#000;stroke-width:15;stroke-linecap:round;stroke-linejoin:round;stroke-miterlimit:10;stroke-dasharray:none;stroke-opacity:1" transform="translate(296.08 288.065)"/><path d="M0 0v176.355h41.838a8.015 8.015 0 0 1 7.777 6.072l12.024 48.096c1.265 5.06-2.562 9.961-7.777 9.961H0" style="fill:none;stroke:#000;stroke-width:15;stroke-linecap:round;stroke-linejoin:round;stroke-miterlimit:10;stroke-dasharray:none;stroke-opacity:1" transform="translate(296.08 15.516)"/></g></svg>