<svg xmlns="http://www.w3.org/2000/svg" xml:space="preserve" viewBox="0 0 512 512"><path d="M215.919 304.636V496.47c0 5.959 6.271 9.835 11.601 7.17l59.698-29.849a16.03 16.03 0 0 0 8.862-14.34V304.636a24.05 24.05 0 0 1 5.405-15.191L467.028 86.278a24.05 24.05 0 0 0 5.405-15.191V23.532c0-8.854-7.178-16.032-16.032-16.032H55.599c-8.854 0-16.032 7.178-16.032 16.032v47.556a24.05 24.05 0 0 0 5.405 15.191l165.543 203.166a24.05 24.05 0 0 1 5.404 15.191" style="fill:#ffe17d"/><path d="M400.008 71.628H191.872V7.5H55.599c-8.854 0-16.032 7.178-16.032 16.032v47.556c0 5.535 1.909 10.9 5.405 15.19l165.543 203.166a24.05 24.05 0 0 1 5.405 15.191V496.47c0 5.959 6.271 9.835 11.601 7.17l16.604-8.302V296.079h27.908L410.677 91.76c5.808-8.56-.324-20.132-10.669-20.132" style="fill:#ffd164"/><path d="M143.775 71.628H39.613c.122 5.341 1.978 10.5 5.358 14.649l165.544 203.167c1.632 2.003 2.881 4.255 3.789 6.634h17.649z" style="fill:#ffc350"/><path d="M456.401 0H55.599C42.623 0 32.066 10.557 32.066 23.532v47.556a31.65 31.65 0 0 0 7.091 19.929L204.7 294.184a16.6 16.6 0 0 1 3.719 10.452V496.47a15.42 15.42 0 0 0 7.359 13.199 15.47 15.47 0 0 0 8.147 2.331c2.366 0 4.74-.548 6.949-1.652l59.697-29.849c8.024-4.012 13.009-12.077 13.009-21.048V304.636a16.6 16.6 0 0 1 3.72-10.453L472.843 91.016a31.64 31.64 0 0 0 7.091-19.929V23.532C479.934 10.557 469.377 0 456.401 0m-167.82 459.451a8.49 8.49 0 0 1-4.718 7.632l-59.697 29.849c-.094.048-.257.129-.502-.022s-.245-.332-.245-.439V304.636c0-.353-.011-.705-.023-1.057h65.207c-.012.352-.023.704-.023 1.057zm7.092-174.744a31.4 31.4 0 0 0-2.689 3.872h-73.967a31.4 31.4 0 0 0-2.688-3.871L50.786 81.541a16.4 16.4 0 0 1-1.629-2.413h22.48c4.143 0 7.5-3.357 7.5-7.5s-3.357-7.5-7.5-7.5h-24.57V23.532c0-4.705 3.827-8.532 8.532-8.532h400.804c4.705 0 8.532 3.827 8.532 8.532v40.597h-24.564c-4.143 0-7.5 3.357-7.5 7.5s3.357 7.5 7.5 7.5h22.474a16.5 16.5 0 0 1-1.629 2.413z"/><path d="M408.301 64.128H103.694c-4.143 0-7.5 3.357-7.5 7.5s3.357 7.5 7.5 7.5H408.3c4.143 0 7.5-3.357 7.5-7.5s-3.357-7.5-7.499-7.5"/></svg>