<svg xmlns="http://www.w3.org/2000/svg" viewBox="0 0 512 512"><path fill="#fed2a4" d="m457.211 454.16-46.689 46.689c-16.192 16.192-42.911 14.528-56.969-3.547l-67.741-87.095 80.757-80.757 87.095 67.741c18.075 14.058 19.739 40.777 3.547 56.969"/><path fill="#ffbc86" d="M397.26 453.596 329.519 366.5l-43.707 43.707 67.741 87.095c14.058 18.075 40.777 19.738 56.969 3.547l43.707-43.707c-16.192 16.192-42.911 14.529-56.969-3.546"/><path fill="#ff8e9e" d="m148.044 191.682-18.322 43.813 4.564 139.28 81.556 81.556c22.3 22.3 58.457 22.3 80.757 0l116.094-116.094c22.3-22.3 22.301-58.457 0-80.757L286.848 133.635z"/><path fill="#ea5b70" d="M237.453 281.555c-.912-14.277 1.766-30.793 11.259-48.865l-18.799 14.82c-11.643 9.179-27.539 9.749-39.655 2.192l-59.307 23.324-40.955 57.46 44.289 44.289c25.872 25.872 67.82 25.872 93.692 0 18.976-18.976 24.529-47.482 14.311-72.296a66 66 0 0 1-4.835-20.924"/><path fill="#f47587" d="M69.425 236.057a34.6 34.6 0 0 0-15.638 9.012c-13.532 13.532-13.532 35.675 0 49.208l36.21 36.21c13.532 13.532 35.675 13.532 49.207 0a34.5 34.5 0 0 0 8.975-15.628z"/><path fill="#ff8e9e" d="M102.995 245.069c-9.099-9.099-21.976-12.074-33.576-8.985-3.072 11.611-.088 24.529 8.972 33.589l36.21 36.21c9.057 9.057 21.97 12.043 33.579 8.975 3.067-11.609.082-24.522-8.975-33.579l-6.051-6.051-8.326-24.677z"/><path fill="#f47587" d="M94.029 162.245a34.6 34.6 0 0 0-15.638 9.012c-13.532 13.532-13.532 35.675 0 49.207l52.561 52.561c13.532 13.532 35.675 13.532 49.208 0a34.5 34.5 0 0 0 8.975-15.628z"/><path fill="#ff8e9e" d="M127.598 171.257c-9.096-9.096-21.972-12.093-33.569-9.012-3.083 11.618-.101 24.549 8.966 33.616l52.561 52.561c9.057 9.057 21.97 12.043 33.579 8.975 3.067-11.609.082-24.522-8.975-33.579l-3.404-3.404-17.032-40.407z"/><path fill="#f47587" d="M139.853 109.612a34.6 34.6 0 0 0-15.638 9.012c-13.532 13.532-13.532 35.675 0 49.207l36.24 36.24 16.32 16.32c13.532 13.532 35.675 13.532 49.208 0a34.5 34.5 0 0 0 8.975-15.628z"/><path fill="#ff8e9e" d="M173.422 118.624c-9.099-9.099-21.976-12.074-33.576-8.985-3.072 11.611-.088 24.529 8.972 33.589l52.561 52.561c9.057 9.057 21.97 12.043 33.579 8.975 3.067-11.609.082-24.522-8.975-33.579l-10.898-41.663z"/><path fill="#f47587" d="M129.827 1.171a34.6 34.6 0 0 0-15.638 9.012c-13.532 13.532-13.532 35.675 0 49.207l115.199 115.2c13.532 13.532 35.675 13.532 49.208 0a34.5 34.5 0 0 0 8.975-15.628z"/><path fill="#ff8e9e" d="M129.827 1.171c-3.083 11.618-.101 24.549 8.966 33.616l115.199 115.199c9.057 9.057 21.97 12.043 33.579 8.975 3.067-11.609.082-24.522-8.975-33.579l-115.2-115.199C154.3 1.087 141.424-1.91 129.827 1.171"/><path fill="#ff8e9e" d="m235.378 144.678-51.277 51.277c-13.49 13.49-13.49 35.362 0 48.853 12.38 12.38 32.063 13.541 45.812 2.702l18.799-14.82c-9.493 18.072-12.172 34.588-11.259 48.865 1.903 29.786 23.607 54.591 52.718 61.178 32.698 7.398 66.206-10.064 78.162-41.384 20.064-52.564 8.917-114.313-33.44-156.671-27.481-27.48-72.035-27.48-99.515 0"/><path fill="#fff" d="M350.914 321.589a7.5 7.5 0 0 0-10.607 0l-3.066 3.066-6.034-11.57 5.002-5.002a7.5 7.5 0 0 0-10.607-10.607l-1.667 1.667-3.519-6.747a7.501 7.501 0 0 0-13.301 6.935l5.701 10.93-8.739 8.738-3.519-6.747a7.5 7.5 0 0 0-13.301 6.935l5.701 10.93-6.359 6.359a7.5 7.5 0 1 0 10.608 10.607l3.023-3.023 6.034 11.571-4.96 4.96a7.5 7.5 0 1 0 10.608 10.607l1.625-1.625 3.684 7.064a7.5 7.5 0 1 0 13.301-6.936l-5.866-11.248 8.738-8.739 3.684 7.064a7.5 7.5 0 1 0 13.301-6.936l-5.866-11.248 6.401-6.401a7.497 7.497 0 0 0 0-10.604m-33.53 22.923-6.034-11.571 8.739-8.739 6.034 11.571zm81.699-46.554-43.706-43.707a7.5 7.5 0 0 0-10.606 0l-9.343 9.342a7.5 7.5 0 0 0-.001 10.606 7.5 7.5 0 0 0 10.606.001l4.04-4.039 38.402 38.404a7.48 7.48 0 0 0 5.304 2.196 7.5 7.5 0 0 0 5.304-12.803"/></svg>