<svg xmlns="http://www.w3.org/2000/svg" width="512" height="512" viewBox="0 0 64 64"><circle cx="32" cy="32" r="30" fill="#b4ffff"/><path fill="#95fafa" d="M35 5C18.431 5 5 18.431 5 35c0 7.521 2.774 14.389 7.346 19.654A29.87 29.87 0 0 0 32 62c16.569 0 30-13.431 30-30 0-7.521-2.774-14.389-7.346-19.654A29.87 29.87 0 0 0 35 5"/><path fill="#bdf16a" d="M27 24.5a5 5 0 0 0-5-5H4.754A29.8 29.8 0 0 0 2 32c0 6.539 2.116 12.571 5.667 17.5H22a5 5 0 0 0 0-10h-7.5a5 5 0 0 0 0-10H22a5 5 0 0 0 5-5"/><path fill="#9eea4c" d="M27 24.5a5 5 0 0 0-5-5H9.311A29.86 29.86 0 0 0 5 35a29.86 29.86 0 0 0 3.736 14.5H22a5 5 0 0 0 0-10h-7.5a5 5 0 0 0 0-10H22a5 5 0 0 0 5-5M60.256 42H44.5a5 5 0 1 0 0 10h9.816a29.9 29.9 0 0 0 5.941-10zM44.5 12a5 5 0 1 0 0 10H52a5 5 0 1 0 0 10h10c0-7.695-2.922-14.69-7.684-20z"/><path fill="#ff5a83" d="M17 22s-8-6-8-12a8 8 0 0 1 16 0c0 6-8 12-8 12"/><path fill="#f6406e" d="M11 10c0 4.683 4.861 9.353 7 11.183 2.139-1.83 7-6.5 7-11.183a7.99 7.99 0 0 0-3.454-6.579A8 8 0 0 0 19 3c-4.418 0-8 2.582-8 7"/><circle cx="17" cy="10" r="4" fill="#fff"/><path fill="#ff5a83" d="M47 47s-8-6-8-12a8 8 0 0 1 16 0c0 6-8 12-8 12"/><path fill="#f6406e" d="M41 35c0 4.683 4.861 9.353 7 11.183 2.139-1.83 7-6.5 7-11.183a7.99 7.99 0 0 0-3.454-6.579A8 8 0 0 0 49 28c-4.418 0-8 2.582-8 7"/><circle cx="47" cy="35" r="4" fill="#fff"/></svg>