<svg xmlns="http://www.w3.org/2000/svg" width="512" height="512" viewBox="0 0 64 64"><circle cx="32" cy="32" r="30" fill="#c8ffff"/><path fill="#96fafa" d="M35 5C18.43 5 5 18.43 5 35c0 7.52 2.77 14.39 7.35 19.65A29.82 29.82 0 0 0 32 62c16.57 0 30-13.43 30-30 0-7.52-2.77-14.39-7.35-19.65A29.82 29.82 0 0 0 35 5"/><path fill="#e6ff96" d="M27 24.5c0-2.76-2.24-5-5-5H4.75A29.8 29.8 0 0 0 2 32c0 6.54 2.12 12.57 5.67 17.5H22c2.76 0 5-2.24 5-5s-2.24-5-5-5h-7.5c2.76 0 5-2.24 5-5s-2.24-5-5-5H22c2.76 0 5-2.24 5-5"/><path fill="#beff6e" d="M27 24.5c0-2.76-2.24-5-5-5H9.31A29.9 29.9 0 0 0 5 35c0 5.26 1.36 10.2 3.74 14.5H22c2.76 0 5-2.24 5-5s-2.24-5-5-5h-7.5c2.76 0 5-2.24 5-5s-2.24-5-5-5H22c2.76 0 5-2.24 5-5M60.26 42H44.5c-2.76 0-5 2.24-5 5s2.24 5 5 5h9.82c2.58-2.89 4.62-6.27 5.94-10M44.5 12c-2.76 0-5 2.24-5 5s2.24 5 5 5H52c-2.76 0-5 2.24-5 5s2.24 5 5 5h10c0-7.69-2.92-14.69-7.68-20z"/><path fill="#ff8ca5" d="M17 22s-8-6-8-12c0-4.42 3.58-8 8-8s8 3.58 8 8c0 6-8 12-8 12"/><path fill="#fa5078" d="M11 10c0 4.68 4.86 9.35 7 11.18 2.14-1.83 7-6.5 7-11.18 0-2.73-1.37-5.14-3.45-6.58C20.75 3.15 19.89 3 19 3c-4.42 0-8 2.58-8 7"/><circle cx="17" cy="10" r="4" fill="#fff"/><path fill="#ff8ca5" d="M47 47s-8-6-8-12c0-4.42 3.58-8 8-8s8 3.58 8 8c0 6-8 12-8 12"/><path fill="#fa5078" d="M41 35c0 4.68 4.86 9.35 7 11.18 2.14-1.83 7-6.5 7-11.18 0-2.73-1.37-5.14-3.45-6.58-.8-.27-1.66-.42-2.55-.42-4.42 0-8 2.58-8 7"/><circle cx="47" cy="35" r="4" fill="#fff"/><path d="M32 1c-3.37 0-6.68.56-9.86 1.63A8.9 8.9 0 0 0 17 1c-4.96 0-9 4.04-9 9 0 .7.11 1.39.28 2.07A30.92 30.92 0 0 0 1 32c0 17.09 13.91 31 31 31s31-13.91 31-31S49.09 1 32 1m28.97 30h-5.92a9.01 9.01 0 0 0-6.93-4.92c.42-1.76 2-3.08 3.88-3.08.55 0 1-.45 1-1s-.45-1-1-1h-7.5c-2.21 0-4-1.79-4-4s1.79-4 4-4h9.38a28.8 28.8 0 0 1 7.09 18M54 35c0 4.51-5.2 9.23-7 10.72-1.8-1.49-7-6.21-7-10.72 0-3.86 3.14-7 7-7s7 3.14 7 7M17 3c3.86 0 7 3.14 7 7 0 4.51-5.2 9.23-7 10.72-1.8-1.49-7-6.21-7-10.72 0-3.86 3.14-7 7-7M9.07 14.26c.74 1.55 1.76 2.99 2.82 4.24H6.34c.78-1.48 1.7-2.9 2.73-4.24M3 32c0-3.99.83-7.9 2.39-11.5h8.38a29 29 0 0 0 2.63 2.3c.36.27.84.27 1.2 0 .12-.09 1.25-.95 2.63-2.3H22c2.21 0 4 1.79 4 4s-1.79 4-4 4h-7.5c-.55 0-1 .45-1 1s.45 1 1 1c2.21 0 4 1.79 4 4s-1.79 4-4 4c-.55 0-1 .45-1 1s.45 1 1 1H22c2.21 0 4 1.79 4 4s-1.79 4-4 4H8.17A28.87 28.87 0 0 1 3 32m29 29c-8.96 0-16.99-4.09-22.31-10.5H22c3.31 0 6-2.69 6-6s-2.69-6-6-6h-3.03c.95-1.06 1.53-2.46 1.53-4s-.58-2.94-1.53-4H22c3.31 0 6-2.69 6-6 0-3.27-2.64-5.94-5.9-5.99 2-2.34 3.9-5.38 3.9-8.51 0-2.22-.81-4.24-2.14-5.81C26.5 3.41 29.23 3 32 3c7.73 0 14.76 3.05 19.97 8H44.5c-3.31 0-6 2.69-6 6s2.69 6 6 6h3.03c-.75.84-1.26 1.89-1.44 3.05C41.55 26.5 38 30.35 38 35c0 2.59 1.31 5.12 2.89 7.24-1.48 1.12-2.39 2.88-2.39 4.76 0 3.31 2.69 6 6 6h7.47c-5.21 4.95-12.24 8-19.97 8m21.88-10H44.5c-2.21 0-4-1.79-4-4 0-1.29.62-2.46 1.64-3.21 2.03 2.32 4.09 3.88 4.26 4.01.36.27.84.27 1.2 0 .19-.14 2.69-2.05 4.92-4.8h6.31a28.9 28.9 0 0 1-4.95 8m5.68-10h-5.6c1.17-1.84 2.03-3.9 2.03-6 0-.69-.08-1.36-.23-2h5.21c-.09 2.78-.58 5.47-1.41 8"/><path d="M47 30c-2.76 0-5 2.24-5 5s2.24 5 5 5 5-2.24 5-5-2.24-5-5-5m0 8c-1.65 0-3-1.35-3-3s1.35-3 3-3 3 1.35 3 3-1.35 3-3 3M22 10c0-2.76-2.24-5-5-5s-5 2.24-5 5 2.24 5 5 5 5-2.24 5-5m-8 0c0-1.65 1.35-3 3-3s3 1.35 3 3-1.35 3-3 3-3-1.35-3-3"/></svg>