<svg xmlns="http://www.w3.org/2000/svg" width="512" height="512" data-name="Layer 1" viewBox="0 0 512 512"><path fill="#7ce5e9" d="m467.98 264.97-.19.02-14.42 1.45c-.54.06-1.07.09-1.61.12l-3.98.18a19.45 19.45 0 0 0-16.91 11.61l-1.01 2.32a30.13 30.13 0 0 1-27.59 18.04h-16.94a16.21 16.21 0 0 1-16.13-14.62l-.68-6.78a19.32 19.32 0 0 0-8.74-14.3 18.08 18.08 0 0 1-8.26-15.18v-6.8a21.65 21.65 0 0 1 7.31-16.22l28.94-25.59a20.12 20.12 0 0 0 5.93-20.93 20.72 20.72 0 0 0-17.29-14.57l-2.92-.36a22.6 22.6 0 0 1-14.27-7.56 16.47 16.47 0 0 1-1.9-18.99l19.03-32.62.02-.02c-36.07-23.01-80.18-38.3-122.52-38.3-5.57 0-11.75.35-17.82.88v.02l27.19 39.22a30.08 30.08 0 0 1-.9 35.48l-7.11 9.25a22.28 22.28 0 0 1-20.47 8.5l-8.07-1.03a23.29 23.29 0 0 0-23.03 11.31 22.49 22.49 0 0 1-22.24 10.93l-18.64-2.37a24.4 24.4 0 0 0-23.28 10.53 20.92 20.92 0 0 0-.35 22.9l12.32 19.46a18.985 18.985 0 0 0 25.03 6.59l12.68-6.8c9.06-4.86 23.5-4.11 32.32 1.18h.01l58.62 38.41 6.77 9.28c.73 1.02 1.51 2.02 2.33 2.98l15.4 18.14a13.84 13.84 0 0 1-2.11 19.92l-23.35 17.94a31.8 31.8 0 0 0-10.99 15.82l-7.77 25.26a21.9 21.9 0 0 1-4.07 7.51l-7.57 9.11a38.5 38.5 0 0 0-8.67 20.63 17.9 17.9 0 0 1-10.9 14.7 11.926 11.926 0 0 1-16.41-9.06l-7.13-42.82a27 27 0 0 0-5.18-11.99l-26.12-34.28a36.4 36.4 0 0 1-6.12-12.34L159.6 290a26.67 26.67 0 0 0-18.69-18.63l-1.87-.51a30.1 30.1 0 0 1-12.68-7.11l-16.08-15.15a42.3 42.3 0 0 1-7.59-9.58 29.82 29.82 0 0 0-31.54-14.29l-26.43 8.6-.04-.01A214.3 214.3 0 0 0 39 280.93C39 399.71 135.19 496 253.85 496s214.86-96.29 214.86-215.07c0-4.91-.26-10.3-.73-15.96"/><path fill="#b1e862" d="m453.54 194.06-.01-.01-35.56-56.22-.01-.01a228.8 228.8 0 0 0-41.59-33.65l-.02.02-19.03 32.62a16.47 16.47 0 0 0 1.9 18.99 22.6 22.6 0 0 0 14.27 7.56l2.92.36a20.72 20.72 0 0 1 17.29 14.57 20.12 20.12 0 0 1-5.93 20.93l-28.94 25.59a21.65 21.65 0 0 0-7.31 16.22v6.8a18.08 18.08 0 0 0 8.26 15.18 19.32 19.32 0 0 1 8.74 14.3l.68 6.78a16.21 16.21 0 0 0 16.13 14.62h16.94a30.13 30.13 0 0 0 27.59-18.04l1.01-2.32a19.45 19.45 0 0 1 16.91-11.61l3.98-.18c.54-.03 1.07-.06 1.61-.12l14.42-1.45.19-.02c-1.99-23.83-7.82-52.53-14.44-70.91M304.61 300.73l-15.4-18.14c-.82-.96-1.6-1.96-2.33-2.98l-6.77-9.28-58.62-38.41h-.01c-8.82-5.29-23.26-6.04-32.32-1.18l-12.68 6.8a18.985 18.985 0 0 1-25.03-6.59l-12.32-19.46a20.92 20.92 0 0 1 .35-22.9 24.4 24.4 0 0 1 23.28-10.53l18.64 2.37a22.49 22.49 0 0 0 22.24-10.93 23.29 23.29 0 0 1 23.03-11.31l8.07 1.03a22.28 22.28 0 0 0 20.47-8.5l7.11-9.25a30.08 30.08 0 0 0 .9-35.48l-27.19-39.22v-.02c-5.06.45-10.04 1.03-14.51 1.66l-.12-.04-60.96 18.3c-13.12 6.49-30.18 17.93-41.6 26.85l-51.72 59.93-.07.05a240.2 240.2 0 0 0-22.37 59.82l.04.01 26.43-8.6a29.82 29.82 0 0 1 31.54 14.29 42.3 42.3 0 0 0 7.59 9.58l16.08 15.15a30.1 30.1 0 0 0 12.68 7.11l1.87.51A26.67 26.67 0 0 1 159.6 290l8.62 31.13a36.4 36.4 0 0 0 6.12 12.34l26.12 34.28a27 27 0 0 1 5.18 11.99l7.13 42.82a11.926 11.926 0 0 0 16.41 9.06 17.9 17.9 0 0 0 10.9-14.7 38.5 38.5 0 0 1 8.67-20.63l7.57-9.11a21.9 21.9 0 0 0 4.07-7.51l7.77-25.26a31.8 31.8 0 0 1 10.99-15.82l23.35-17.94a13.84 13.84 0 0 0 2.11-19.92"/><path fill="#64ccc9" d="M69 280.93a214.3 214.3 0 0 1 5.68-47.61q1.059-4.6 2.3-9.148h-.07a29.7 29.7 0 0 0-5.76.56l-26.43 8.6-.04-.01A214.3 214.3 0 0 0 39 280.93C39 399.71 135.19 496 253.85 496c5.044 0 10.043-.188 15-.53C157.19 487.76 69 394.661 69 280.93"/><path fill="#9ac146" d="M71.15 224.73a29.7 29.7 0 0 1 5.76-.56h.07a237.8 237.8 0 0 1 20.07-50.67l.07-.05 51.72-59.93c11.42-8.92 28.48-20.36 41.6-26.85l49.16-14.756-3.57-5.144v-.02c-5.06.45-10.04 1.03-14.51 1.66l-.12-.04-60.96 18.3c-13.12 6.49-30.18 17.93-41.6 26.85l-51.72 59.93-.07.05a240.2 240.2 0 0 0-22.37 59.82l.04.01z"/><path fill="#ff8564" d="M160.44 86.67 155 79.39a40.43 40.43 0 0 1-8.12-26.44C148.15 33.36 163.75 16 185.24 16s37.09 17.36 38.36 36.95a37.95 37.95 0 0 1-2.2 15.42 41.6 41.6 0 0 1-5.92 11.02l-30.24 40.45zm-34.18 47.7a39.82 39.82 0 0 1-8.11 26.43L87.9 201.26l-20.78-27.81-9.46-12.65a40.5 40.5 0 0 1-8.12-26.43c1.28-19.59 16.87-36.95 38.36-36.95a37.58 37.58 0 0 1 30.94 16.1 40.7 40.7 0 0 1 7.42 20.85"/><ellipse cx="183.98" cy="54.3" fill="#d4e1f4" rx="20.05" ry="20.06"/><path fill="#d4e1f4" d="M86.64 115.65a20.065 20.065 0 1 1-20.05 20.07 20.06 20.06 0 0 1 20.05-20.07"/><path fill="#ff8564" d="M297.76 230.037a39.82 39.82 0 0 1-8.11 26.43l-30.25 40.46-20.78-27.81-9.46-12.65a40.5 40.5 0 0 1-8.12-26.43c1.28-19.59 16.87-36.95 38.36-36.95a37.58 37.58 0 0 1 30.94 16.1 40.7 40.7 0 0 1 7.42 20.85"/><path fill="#d4e1f4" d="M258.65 211.75a20.065 20.065 0 1 1-20.05 20.06 20.056 20.056 0 0 1 20.05-20.06"/><path fill="#ff8564" d="M472.93 155.59a32.1 32.1 0 0 1-6.52 21.25l-12.88 17.21-11.44 15.3-24.31-32.51a31.82 31.82 0 0 1 .19-39.01 30.14 30.14 0 0 1 24.12-11.94c17.28 0 29.82 13.96 30.84 29.7m-15.73 1.09a16.12 16.12 0 1 0-16.12 16.12 16.126 16.126 0 0 0 16.12-16.12"/><path fill="#d4e1f4" d="M441.08 140.55a16.125 16.125 0 1 1-16.12 16.13 16.126 16.126 0 0 1 16.12-16.13"/></svg>