<svg xmlns="http://www.w3.org/2000/svg" width="512" height="512" data-name="Layer 1" viewBox="0 0 512 512"><path fill="#7ce5e9" d="m467.98 264.97-.19.02-14.42 1.45c-.54.06-1.07.09-1.61.12l-3.98.18a19.45 19.45 0 0 0-16.91 11.61l-1.01 2.32a30.13 30.13 0 0 1-27.59 18.04h-16.94a16.21 16.21 0 0 1-16.13-14.62l-.68-6.78a19.32 19.32 0 0 0-8.74-14.3 18.08 18.08 0 0 1-8.26-15.18v-6.8a21.65 21.65 0 0 1 7.31-16.22l28.94-25.59a20.12 20.12 0 0 0 5.93-20.93 20.72 20.72 0 0 0-17.29-14.57l-2.92-.36a22.6 22.6 0 0 1-14.27-7.56 16.47 16.47 0 0 1-1.9-18.99l19.03-32.62.02-.02c-36.07-23.01-80.18-38.3-122.52-38.3-5.57 0-11.75.35-17.82.88v.02l27.19 39.22a30.08 30.08 0 0 1-.9 35.48l-7.11 9.25a22.28 22.28 0 0 1-20.47 8.5l-8.07-1.03a23.29 23.29 0 0 0-23.03 11.31 22.49 22.49 0 0 1-22.24 10.93l-18.64-2.37a24.4 24.4 0 0 0-23.28 10.53 20.92 20.92 0 0 0-.35 22.9l12.32 19.46a18.985 18.985 0 0 0 25.03 6.59l12.68-6.8c9.06-4.86 23.5-4.11 32.32 1.18h.01l58.62 38.41 6.77 9.28c.73 1.02 1.51 2.02 2.33 2.98l15.4 18.14a13.84 13.84 0 0 1-2.11 19.92l-23.35 17.94a31.8 31.8 0 0 0-10.99 15.82l-7.77 25.26a21.9 21.9 0 0 1-4.07 7.51l-7.57 9.11a38.5 38.5 0 0 0-8.67 20.63 17.9 17.9 0 0 1-10.9 14.7 11.926 11.926 0 0 1-16.41-9.06l-7.13-42.82a27 27 0 0 0-5.18-11.99l-26.12-34.28a36.4 36.4 0 0 1-6.12-12.34L159.6 290a26.67 26.67 0 0 0-18.69-18.63l-1.87-.51a30.1 30.1 0 0 1-12.68-7.11l-16.08-15.15a42.3 42.3 0 0 1-7.59-9.58 29.82 29.82 0 0 0-31.54-14.29l-26.43 8.6-.04-.01A214.3 214.3 0 0 0 39 280.93C39 399.71 135.19 496 253.85 496s214.86-96.29 214.86-215.07c0-4.91-.26-10.3-.73-15.96"/><path fill="#b1e862" d="m453.54 194.06-.01-.01-35.56-56.22-.01-.01a228.8 228.8 0 0 0-41.59-33.65l-.02.02-19.03 32.62a16.47 16.47 0 0 0 1.9 18.99 22.6 22.6 0 0 0 14.27 7.56l2.92.36a20.72 20.72 0 0 1 17.29 14.57 20.12 20.12 0 0 1-5.93 20.93l-28.94 25.59a21.65 21.65 0 0 0-7.31 16.22v6.8a18.08 18.08 0 0 0 8.26 15.18 19.32 19.32 0 0 1 8.74 14.3l.68 6.78a16.21 16.21 0 0 0 16.13 14.62h16.94a30.13 30.13 0 0 0 27.59-18.04l1.01-2.32a19.45 19.45 0 0 1 16.91-11.61l3.98-.18c.54-.03 1.07-.06 1.61-.12l14.42-1.45.19-.02c-1.99-23.83-7.82-52.53-14.44-70.91M304.61 300.73l-15.4-18.14c-.82-.96-1.6-1.96-2.33-2.98l-6.77-9.28-58.62-38.41h-.01c-8.82-5.29-23.26-6.04-32.32-1.18l-12.68 6.8a18.985 18.985 0 0 1-25.03-6.59l-12.32-19.46a20.92 20.92 0 0 1 .35-22.9 24.4 24.4 0 0 1 23.28-10.53l18.64 2.37a22.49 22.49 0 0 0 22.24-10.93 23.29 23.29 0 0 1 23.03-11.31l8.07 1.03a22.28 22.28 0 0 0 20.47-8.5l7.11-9.25a30.08 30.08 0 0 0 .9-35.48l-27.19-39.22v-.02c-5.06.45-10.04 1.03-14.51 1.66l-.12-.04-60.96 18.3c-13.12 6.49-30.18 17.93-41.6 26.85l-51.72 59.93-.07.05a240.2 240.2 0 0 0-22.37 59.82l.04.01 26.43-8.6a29.82 29.82 0 0 1 31.54 14.29 42.3 42.3 0 0 0 7.59 9.58l16.08 15.15a30.1 30.1 0 0 0 12.68 7.11l1.87.51A26.67 26.67 0 0 1 159.6 290l8.62 31.13a36.4 36.4 0 0 0 6.12 12.34l26.12 34.28a27 27 0 0 1 5.18 11.99l7.13 42.82a11.926 11.926 0 0 0 16.41 9.06 17.9 17.9 0 0 0 10.9-14.7 38.5 38.5 0 0 1 8.67-20.63l7.57-9.11a21.9 21.9 0 0 0 4.07-7.51l7.77-25.26a31.8 31.8 0 0 1 10.99-15.82l23.35-17.94a13.84 13.84 0 0 0 2.11-19.92"/><path fill="#64ccc9" d="M69 280.93a214.3 214.3 0 0 1 5.68-47.61q1.059-4.6 2.3-9.148h-.07a29.7 29.7 0 0 0-5.76.56l-26.43 8.6-.04-.01A214.3 214.3 0 0 0 39 280.93C39 399.71 135.19 496 253.85 496c5.044 0 10.043-.188 15-.53C157.19 487.76 69 394.661 69 280.93"/><path fill="#9ac146" d="M71.15 224.73a29.7 29.7 0 0 1 5.76-.56h.07a237.8 237.8 0 0 1 20.07-50.67l.07-.05 51.72-59.93c11.42-8.92 28.48-20.36 41.6-26.85l49.16-14.756-3.57-5.144v-.02c-5.06.45-10.04 1.03-14.51 1.66l-.12-.04-60.96 18.3c-13.12 6.49-30.18 17.93-41.6 26.85l-51.72 59.93-.07.05a240.2 240.2 0 0 0-22.37 59.82l.04.01z"/><path fill="#d4e1f4" d="M160.44 86.67 155 79.39a40.43 40.43 0 0 1-8.12-26.44C148.15 33.36 163.75 16 185.24 16s37.09 17.36 38.36 36.95a37.95 37.95 0 0 1-2.2 15.42 41.6 41.6 0 0 1-5.92 11.02l-30.24 40.45zm-34.18 47.7a39.82 39.82 0 0 1-8.11 26.43L87.9 201.26l-20.78-27.81-9.46-12.65a40.5 40.5 0 0 1-8.12-26.43c1.28-19.59 16.87-36.95 38.36-36.95a37.58 37.58 0 0 1 30.94 16.1 40.7 40.7 0 0 1 7.42 20.85"/><ellipse cx="183.98" cy="54.3" fill="#ff8564" rx="20.05" ry="20.06"/><path fill="#ff8564" d="M86.64 115.65a20.065 20.065 0 1 1-20.05 20.07 20.06 20.06 0 0 1 20.05-20.07"/><path fill="#d4e1f4" d="M297.76 230.037a39.82 39.82 0 0 1-8.11 26.43l-30.25 40.46-20.78-27.81-9.46-12.65a40.5 40.5 0 0 1-8.12-26.43c1.28-19.59 16.87-36.95 38.36-36.95a37.58 37.58 0 0 1 30.94 16.1 40.7 40.7 0 0 1 7.42 20.85"/><path fill="#ff8564" d="M258.65 211.75a20.065 20.065 0 1 1-20.05 20.06 20.056 20.056 0 0 1 20.05-20.06"/><path fill="#d4e1f4" d="M472.93 155.59a32.1 32.1 0 0 1-6.52 21.25l-12.88 17.21-11.44 15.3-24.31-32.51a31.82 31.82 0 0 1 .19-39.01 30.14 30.14 0 0 1 24.12-11.94c17.28 0 29.82 13.96 30.84 29.7m-15.73 1.09a16.12 16.12 0 1 0-16.12 16.12 16.126 16.126 0 0 0 16.12-16.12"/><path fill="#ff8564" d="M441.08 140.55a16.125 16.125 0 1 1-16.12 16.13 16.126 16.126 0 0 1 16.12-16.13"/><g fill="#344d6b"><path d="M441.079 134.551a22.124 22.124 0 1 0 22.12 22.124 22.147 22.147 0 0 0-22.12-22.124m0 32.248a10.124 10.124 0 1 1 10.12-10.124 10.133 10.133 0 0 1-10.12 10.125zm-257.1-86.437A26.062 26.062 0 1 0 157.928 54.3a26.085 26.085 0 0 0 26.051 26.062m0-40.124A14.062 14.062 0 1 1 169.928 54.3a14.07 14.07 0 0 1 14.051-14.062M284.7 231.814a26.051 26.051 0 1 0-26.051 26.062 26.086 26.086 0 0 0 26.051-26.062m-26.051 14.062a14.062 14.062 0 1 1 14.051-14.062 14.07 14.07 0 0 1-14.053 14.062zM86.643 161.778a26.062 26.062 0 1 0-26.051-26.062 26.086 26.086 0 0 0 26.051 26.062m0-40.124a14.062 14.062 0 1 1-14.051 14.062 14.07 14.07 0 0 1 14.051-14.062"/><path d="M478.92 155.2c-1.287-19.8-17.464-35.307-36.828-35.307a36.28 36.28 0 0 0-24.22 9.338c-19.662-19.207-44.209-35.751-71.382-48.049-30.812-13.945-62.846-21.316-92.637-21.316a233 233 0 0 0-24.59 1.526 43.3 43.3 0 0 0 .324-8.832C228.035 28.694 208.555 10 185.239 10s-42.8 18.694-44.348 42.55a46.72 46.72 0 0 0 9.3 30.429l1.239 1.657a301 301 0 0 0-31.67 20.644A43.84 43.84 0 0 0 87.9 91.416c-23.317 0-42.8 18.7-44.347 42.55a46.73 46.73 0 0 0 9.3 30.43l7.153 9.566C43.056 206.56 33 246.254 33 280.933a220.854 220.854 0 1 0 441.707 0c0-24.614-6.269-61.527-14.457-85.846l10.957-14.65a37.95 37.95 0 0 0 7.713-25.237M152.865 53.338c1-15.4 13.385-31.338 32.374-31.338s31.371 15.934 32.374 31.354a33.8 33.8 0 0 1-6.937 22.44l-25.437 34.025-25.394-33.966a34.67 34.67 0 0 1-6.98-22.515M55.53 134.754c1-15.4 13.384-31.338 32.373-31.338s31.372 15.934 32.374 31.355a33.78 33.78 0 0 1-6.937 22.439L87.9 191.235l-25.391-33.966a34.67 34.67 0 0 1-6.979-22.515m12.522 49.97L83.1 204.848a6 6 0 0 0 9.611 0l30.236-40.448A45.44 45.44 0 0 0 126.8 115a288 288 0 0 1 31.888-20.66l21.747 29.088a6 6 0 0 0 9.611 0l30.238-40.447a48 48 0 0 0 5.359-9.065c2.493-.319 4.984-.617 7.44-.866l25.2 36.356a24 24 0 0 1-.716 28.4l-7.118 9.243a16.33 16.33 0 0 1-14.951 6.216l-8.074-1.032a29.26 29.26 0 0 0-28.959 14.218 16.49 16.49 0 0 1-16.31 8.017l-18.642-2.37a30.24 30.24 0 0 0-29 13.121 26.9 26.9 0 0 0-.454 29.47l12.315 19.465a25.08 25.08 0 0 0 21.206 11.616 24.8 24.8 0 0 0 11.736-2.945l12.68-6.8c6.212-3.331 16.3-3.364 23.571-.368a47.8 47.8 0 0 0 9.289 24.829l30.244 40.46a6 6 0 0 0 9.611 0l15.339-20.518L282 283.1a52 52 0 0 0 2.632 3.37l15.4 18.138a7.833 7.833 0 0 1-1.195 11.278L275.5 333.831a37.53 37.53 0 0 0-13.069 18.817l-7.779 25.252a15.7 15.7 0 0 1-2.944 5.444l-7.569 9.112a44.33 44.33 0 0 0-10.026 23.844 11.94 11.94 0 0 1-7.253 9.787 5.95 5.95 0 0 1-8.168-4.518l-7.13-42.819a33.24 33.24 0 0 0-6.328-14.64l-26.121-34.281a30.3 30.3 0 0 1-5.112-10.3L165.38 288.4a32.83 32.83 0 0 0-22.891-22.815l-1.874-.511a24.1 24.1 0 0 1-10.136-5.685L114.4 244.235a36.3 36.3 0 0 1-6.523-8.227 35.8 35.8 0 0 0-37.894-17.162 6 6 0 0 0-.693.18l-16.111 5.241a234.7 234.7 0 0 1 14.873-39.543m159.482 46.128c1-15.4 13.384-31.338 32.373-31.338s31.372 15.934 32.374 31.355a33.78 33.78 0 0 1-6.937 22.439l-25.437 34.025-25.394-33.966a34.67 34.67 0 0 1-6.979-22.515m235.173 50.081c0 115.28-93.692 209.067-208.854 209.067S45 396.213 45 280.933a206.8 206.8 0 0 1 4.808-42.951l22.833-7.427A23.8 23.8 0 0 1 97.5 242.03a48.4 48.4 0 0 0 8.674 10.94l16.08 15.149a36.15 36.15 0 0 0 15.206 8.527l1.874.51a20.78 20.78 0 0 1 14.481 14.444l8.621 31.134a42.2 42.2 0 0 0 7.132 14.373l26.121 34.282a21.2 21.2 0 0 1 4.036 9.338l7.13 42.819a17.92 17.92 0 0 0 24.645 13.608 23.93 23.93 0 0 0 14.545-19.618 32.37 32.37 0 0 1 7.321-17.413l7.569-9.112a27.7 27.7 0 0 0 5.182-9.58l7.776-25.252a25.6 25.6 0 0 1 8.912-12.833l23.347-17.946a19.833 19.833 0 0 0 3.029-28.56l-15.4-18.138a41 41 0 0 1-2.052-2.631l-4.157-5.7 7.381-9.872a45.76 45.76 0 0 0 9.3-30.425c-1.551-23.866-21.031-42.56-44.348-42.56-21.07 0-39 15.267-43.409 35.811-9.967-2.938-21.9-2.3-30.17 2.132l-12.68 6.8a13.05 13.05 0 0 1-17.13-4.512L144.2 208.279a14.91 14.91 0 0 1 .251-16.329A18.3 18.3 0 0 1 162 184.009l18.642 2.369a28.47 28.47 0 0 0 28.169-13.841 17.26 17.26 0 0 1 17.092-8.4l8.073 1.032a28.38 28.38 0 0 0 25.981-10.8l7.118-9.243a35.96 35.96 0 0 0 1.071-42.558L246.97 72.026c2.427-.1 4.737-.16 6.883-.16 28.1 0 58.42 7 87.689 20.249a251 251 0 0 1 26.687 14.1l-16.118 27.627a22.47 22.47 0 0 0 2.6 25.911 28.58 28.58 0 0 0 18.048 9.572l2.923.36a14.73 14.73 0 0 1 12.282 10.347 14.18 14.18 0 0 1-4.165 14.7l-28.944 25.592a27.67 27.67 0 0 0-9.334 20.719v6.791a23.98 23.98 0 0 0 11.011 20.225 13.24 13.24 0 0 1 6.02 9.858l.677 6.78a22.147 22.147 0 0 0 22.1 20.017h16.941a36.13 36.13 0 0 0 33.08-21.623l1.018-2.321a13.35 13.35 0 0 1 11.688-8.029l3.975-.18q.97-.043 1.936-.141l8.451-.851c.188 3.287.289 6.431.289 9.364m-1.285-21.333-8.657.871q-.632.064-1.274.093l-3.981.181a25.28 25.28 0 0 0-22.132 15.2l-1.018 2.321a24.13 24.13 0 0 1-22.09 14.443h-16.943a10.185 10.185 0 0 1-10.16-9.209l-.678-6.781a25.18 25.18 0 0 0-11.45-18.745 12.03 12.03 0 0 1-5.521-10.145v-6.791a15.66 15.66 0 0 1 5.283-11.729l28.944-25.592a26.22 26.22 0 0 0 7.7-27.163 26.74 26.74 0 0 0-22.3-18.781l-2.923-.36a16.6 16.6 0 0 1-10.482-5.559 10.45 10.45 0 0 1-1.237-12.018l15.839-27.149a224.4 224.4 0 0 1 31.933 25.913 38.2 38.2 0 0 0-5.01 16.6 38.74 38.74 0 0 0 7.708 25.241l24.314 32.512a6 6 0 0 0 9.61 0l4.471-5.979a329 329 0 0 1 10.054 52.626m.179-86.357-19.509 26.087-19.465-26.03a26.68 26.68 0 0 1-5.388-17.324c.77-11.84 10.277-24.086 24.853-24.086s24.084 12.246 24.854 24.1a25.96 25.96 0 0 1-5.346 17.254z"/></g></svg>