<svg xmlns="http://www.w3.org/2000/svg" width="512" height="512" data-name="Layer 3" viewBox="0 0 64 64"><path fill="#f6b940" d="m48 58-2.997-10h-.002L59 26h.004L62 34 48.003 58z"/><path fill="#f4a93c" d="M59 26 45.001 48h-14L45 26h14.004z"/><path fill="#fad85d" d="m48 58-2.997-10H31l-3 10z"/><path fill="#f4a93c" d="m22 58-2.997-10h-.002L33 26h.004L36 34 22.003 58z"/><path fill="#f6b940" d="M33 26 19.001 48h-14L19 26h14.004z"/><path fill="#fad85d" d="m22 58-2.997-10H5L2 58z"/><path fill="#f6b940" d="m36 48-2.997-10h-.002L47 16h.004L50 24 36.003 48z"/><path fill="#fad85d" d="M47 16 33.001 38h-14L33 16h14.004z"/><path fill="#fce797" d="m36 48-2.997-10H19l-3 10zM14 27a6 6 0 0 0-6 6 6 6 0 0 0-6-6 6 6 0 0 0 6-6 6 6 0 0 0 6 6m48-15a6 6 0 0 0-6 6 6 6 0 0 0-6-6 6 6 0 0 0 6-6 6 6 0 0 0 6 6m-33 3a6 6 0 0 0-6 6 6 6 0 0 0-6-6 6 6 0 0 0 6-6 6 6 0 0 0 6 6"/></svg>