<svg xmlns="http://www.w3.org/2000/svg" width="512" height="512" data-name="Layer 3" viewBox="0 0 64 64"><path fill="#f6b940" d="m48 58-2.997-10h-.002L59 26h.004L62 34 48.003 58z"/><path fill="#f4a93c" d="M59 26 45.001 48h-14L45 26h14.004z"/><path fill="#fad85d" d="m48 58-2.997-10H31l-3 10z"/><path fill="#f4a93c" d="m22 58-2.997-10h-.002L33 26h.004L36 34 22.003 58z"/><path fill="#f6b940" d="M33 26 19.001 48h-14L19 26h14.004z"/><path fill="#fad85d" d="m22 58-2.997-10H5L2 58z"/><path fill="#f6b940" d="m36 48-2.997-10h-.002L47 16h.004L50 24 36.003 48z"/><path fill="#fad85d" d="M47 16 33.001 38h-14L33 16h14.004z"/><path fill="#fce797" d="m36 48-2.997-10H19l-3 10zM14 27a6 6 0 0 0-6 6 6 6 0 0 0-6-6 6 6 0 0 0 6-6 6 6 0 0 0 6 6m48-15a6 6 0 0 0-6 6 6 6 0 0 0-6-6 6 6 0 0 0 6-6 6 6 0 0 0 6 6m-33 3a6 6 0 0 0-6 6 6 6 0 0 0-6-6 6 6 0 0 0 6-6 6 6 0 0 0 6 6"/><path d="M59.941 25.649a1 1 0 0 0-.936-.649h-8.43l.289-.5a1 1 0 0 0 .073-.855l-3-8a1 1 0 0 0-.932-.645H33a1 1 0 0 0-.844.463L26.087 25H19a1 1 0 0 0-.844.463l-14 22a1 1 0 0 0-.114.25l-3 10A1 1 0 0 0 2 59h20a1 1 0 0 0 .8-.4 1 1 0 0 0 .045-.105l.02.012L28.41 49h1.246l-2.614 8.713A1 1 0 0 0 28 59h20a1 1 0 0 0 .8-.4 1 1 0 0 0 .045-.105l.02.012 14-24a1 1 0 0 0 .073-.855zM57.179 27 44.453 47h-6.709l11.665-20zM17.345 47l2.4-8h12.514l2.4 8zM48.9 23.906 36.3 45.51l-2.207-7.359L46.77 18.225zM33.549 17h11.63L32.454 37H20.823zm-14 10h5.265l-6.658 10.463a1 1 0 0 0-.114.25L15.256 47H6.823zM3.345 57l2.4-8h12.514l2.4 8zM22.3 55.509 20.347 49h5.747zM29.344 57l2.4-8h12.515l2.4 8zM48.3 55.509l-2.208-7.359L58.77 28.224l2.13 5.682zM2 28a5.006 5.006 0 0 1 5 5 1 1 0 0 0 2 0 5.006 5.006 0 0 1 5-5 1 1 0 0 0 0-2 5.006 5.006 0 0 1-5-5 1 1 0 0 0-2 0 5.006 5.006 0 0 1-5 5 1 1 0 0 0 0 2m6-3.4a7.1 7.1 0 0 0 2.4 2.4A7.1 7.1 0 0 0 8 29.4 7.1 7.1 0 0 0 5.6 27 7.1 7.1 0 0 0 8 24.6M50 13a5.006 5.006 0 0 1 5 5 1 1 0 0 0 2 0 5.006 5.006 0 0 1 5-5 1 1 0 0 0 0-2 5.006 5.006 0 0 1-5-5 1 1 0 0 0-2 0 5.006 5.006 0 0 1-5 5 1 1 0 0 0 0 2m6-3.4a7.1 7.1 0 0 0 2.4 2.4 7.1 7.1 0 0 0-2.4 2.4 7.1 7.1 0 0 0-2.4-2.4A7.1 7.1 0 0 0 56 9.6"/><path d="M17 16a5.006 5.006 0 0 1 5 5 1 1 0 0 0 2 0 5.006 5.006 0 0 1 5-5 1 1 0 0 0 0-2 5.006 5.006 0 0 1-5-5 1 1 0 0 0-2 0 5.006 5.006 0 0 1-5 5 1 1 0 0 0 0 2m6-3.4a7.1 7.1 0 0 0 2.4 2.4 7.1 7.1 0 0 0-2.4 2.4 7.1 7.1 0 0 0-2.4-2.4 7.1 7.1 0 0 0 2.4-2.4"/></svg>