<svg xmlns="http://www.w3.org/2000/svg" width="512" height="512" data-name="Layer 3" viewBox="0 0 64 64"><path d="M59.941 25.649a1 1 0 0 0-.936-.649h-8.43l.289-.5a1 1 0 0 0 .073-.855l-3-8a1 1 0 0 0-.932-.645H33a1 1 0 0 0-.844.463L26.087 25H19a1 1 0 0 0-.844.463l-14 22a1 1 0 0 0-.114.25l-3 10A1 1 0 0 0 2 59h20a1 1 0 0 0 .8-.4 1 1 0 0 0 .045-.105l.02.012L28.41 49h1.246l-2.614 8.713A1 1 0 0 0 28 59h20a1 1 0 0 0 .8-.4 1 1 0 0 0 .045-.105l.02.012 14-24a1 1 0 0 0 .073-.855ZM57.179 27 44.453 47h-6.709l11.665-20ZM17.345 47l2.4-8h12.514l2.4 8zM48.9 23.906 36.3 45.51l-2.207-7.359L46.77 18.225ZM33.549 17h11.63L32.454 37H20.823Zm-14 10h5.265l-6.658 10.463a1 1 0 0 0-.114.25L15.256 47H6.823ZM3.345 57l2.4-8h12.514l2.4 8ZM22.3 55.509 20.347 49h5.747ZM29.344 57l2.4-8h12.515l2.4 8ZM48.3 55.509l-2.208-7.359L58.77 28.224l2.13 5.682ZM2 28a5.006 5.006 0 0 1 5 5 1 1 0 0 0 2 0 5.006 5.006 0 0 1 5-5 1 1 0 0 0 0-2 5.006 5.006 0 0 1-5-5 1 1 0 0 0-2 0 5.006 5.006 0 0 1-5 5 1 1 0 0 0 0 2m6-3.4a7.1 7.1 0 0 0 2.4 2.4A7.1 7.1 0 0 0 8 29.4 7.1 7.1 0 0 0 5.6 27 7.1 7.1 0 0 0 8 24.6M50 13a5.006 5.006 0 0 1 5 5 1 1 0 0 0 2 0 5.006 5.006 0 0 1 5-5 1 1 0 0 0 0-2 5.006 5.006 0 0 1-5-5 1 1 0 0 0-2 0 5.006 5.006 0 0 1-5 5 1 1 0 0 0 0 2m6-3.4a7.1 7.1 0 0 0 2.4 2.4 7.1 7.1 0 0 0-2.4 2.4 7.1 7.1 0 0 0-2.4-2.4A7.1 7.1 0 0 0 56 9.6"/><path d="M17 16a5.006 5.006 0 0 1 5 5 1 1 0 0 0 2 0 5.006 5.006 0 0 1 5-5 1 1 0 0 0 0-2 5.006 5.006 0 0 1-5-5 1 1 0 0 0-2 0 5.006 5.006 0 0 1-5 5 1 1 0 0 0 0 2m6-3.4a7.1 7.1 0 0 0 2.4 2.4 7.1 7.1 0 0 0-2.4 2.4 7.1 7.1 0 0 0-2.4-2.4 7.1 7.1 0 0 0 2.4-2.4"/></svg>