<svg xmlns="http://www.w3.org/2000/svg" xml:space="preserve" viewBox="0 0 512 512"><path d="M364.5 18.5c-41.516 0-80.577 17.235-108.5 47.584C228.077 35.734 189.016 18.5 147.5 18.5 66.168 18.5 0 84.667 0 166c0 48.271 18.034 98.434 53.602 149.095a7.5 7.5 0 1 0 12.277-8.619C32.118 258.388 15 211.125 15 166 15 92.939 74.439 33.5 147.5 33.5c39.957 0 77.386 17.777 102.69 48.773a7.5 7.5 0 0 0 11.62 0C287.114 51.276 324.543 33.5 364.5 33.5c73.061 0 132.5 59.448 132.5 132.517-.017 88.233-66.172 168.543-121.666 220.377-52.186 48.744-105.025 82.153-119.333 90.862-19.261-11.738-108.372-68.306-172.327-147.245a7.501 7.501 0 0 0-11.655 9.443c73.5 90.718 179.166 152.424 180.225 153.037a7.49 7.49 0 0 0 7.513 0c.628-.364 63.571-37.046 125.598-94.931 36.567-34.125 65.74-68.887 86.708-103.317 26.492-43.5 39.929-86.641 39.937-128.224C512 84.677 445.832 18.5 364.5 18.5"/></svg>