<svg xmlns="http://www.w3.org/2000/svg" xml:space="preserve" viewBox="0 0 512 512"><path d="M364.5 26.001c-3.19 0-6.36.11-9.5.32l-98.9 459.62c5.69-3.31 248.37-145.8 248.4-319.92 0-77.32-62.68-140.02-140-140.02" style="fill:#e0230d"/><path d="M355 26.321c61.16 4.88 109.5 65.57 109.5 139.7-.03 173.94-203.23 316.32-208.4 319.92-.07.04-.1.06-.1.06s-248.5-143.8-248.5-320c0-77.32 62.68-140 140-140 43.76 0 82.83 20.08 108.5 51.53 23.8-29.16 59.11-48.54 99-51.21" style="fill:#ff5440"/><path d="M364.5 18.499c-41.516 0-80.577 17.235-108.5 47.584-27.923-30.349-66.984-47.584-108.5-47.584C66.168 18.499 0 84.667 0 165.999c0 48.271 18.034 98.434 53.602 149.095a7.5 7.5 0 1 0 12.277-8.619C32.118 258.388 15 211.126 15 165.999c0-73.061 59.439-132.5 132.5-132.5 39.957 0 77.386 17.777 102.69 48.773a7.5 7.5 0 0 0 11.62 0c25.304-30.996 62.733-48.773 102.69-48.773 73.061 0 132.5 59.448 132.5 132.517-.017 88.233-66.172 168.543-121.666 220.377-52.186 48.744-105.025 82.153-119.333 90.862-19.261-11.737-108.372-68.305-172.327-147.244a7.501 7.501 0 0 0-11.655 9.443c73.5 90.718 179.166 152.424 180.225 153.037a7.49 7.49 0 0 0 7.513 0c.628-.364 63.571-37.046 125.598-94.931 36.567-34.125 65.74-68.887 86.708-103.317 26.492-43.5 39.929-86.641 39.937-128.224 0-81.343-66.168-147.52-147.5-147.52"/></svg>