<svg xmlns="http://www.w3.org/2000/svg" xml:space="preserve" width="682.667" height="682.667" viewBox="0 0 682.667 682.667"><defs><clipPath id="a" clipPathUnits="userSpaceOnUse"><path d="M0 512h512V0H0Z"/></clipPath></defs><g clip-path="url(#a)" transform="matrix(1.33333 0 0 -1.33333 0 682.667)"><path d="M0 0v180.13c0 23.602-19.133 42.736-42.735 42.736-23.603 0-42.737-19.134-42.737-42.736v-44.218l-115.794 115.794c-14.466 14.467-37.922 14.467-52.39 0s-14.468-37.923 0-52.391l-26.448 26.447c-14.467 14.467-37.923 14.467-52.391 0s-14.467-37.923 0-52.39l15.312-15.312c-14.467 14.467-37.923 14.467-52.391 0s-14.467-37.924 0-52.391l37.786-37.786c-14.468 14.468-37.924 14.468-52.391 0h-.001c-14.466-14.467-14.466-37.924 0-52.391l116.644-116.643c59.878-59.878 156.96-59.878 216.838 0l15.028 15.028C-11.89-62.343 0-31.175 0-.006Z" style="fill:#f9ef80;fill-opacity:1;fill-rule:nonzero;stroke:none" transform="translate(492.668 153.56)"/><path d="m0 0-5.441 5.441-13.47 8.596c-13.117 4.788-28.397 1.929-38.921-8.596h-.001C-72.3-9.026-72.3-32.482-57.833-46.95l72.03-72.029C-9.241-78.395-13.958-28.044 0 0" style="fill:#f9d171;fill-opacity:1;fill-rule:nonzero;stroke:none" transform="translate(166.321 216.001)"/><path d="m0 0 20.287-20.287C16.65-9.027 7.766 36.208 23.422 63.127 14.886 62.49 6.527 58.918 0 52.391-14.467 37.923-14.467 14.467 0 0" style="fill:#f9d171;fill-opacity:1;fill-rule:nonzero;stroke:none" transform="translate(123.094 259.228)"/><path d="M0 0v11.64c0 23.602-19.133 42.735-42.735 42.735-23.603 0-42.737-19.133-42.737-42.735v-44.218L-201.266 83.216c-14.466 14.467-37.922 14.467-52.39 0v-.001c-14.468-14.467-14.468-37.923 0-52.39l-26.448 26.447c-14.467 14.467-37.923 14.467-52.391 0s-14.467-37.923 0-52.391l15.312-15.311c-14.467 14.467-37.923 14.467-52.391-.001s-14.467-37.923 0-52.39l37.786-37.786c-14.468 14.467-37.924 14.467-52.391 0h-.001c-14.466-14.468-14.466-37.924 0-52.391l108.062-108.062" style="fill:none;stroke:#000;stroke-width:15;stroke-linecap:round;stroke-linejoin:round;stroke-miterlimit:10;stroke-dasharray:none;stroke-opacity:1" transform="translate(492.668 322.05)"/><path d="M0 0c59.95-43.508 144.297-38.24 198.339 15.802l15.028 15.028c23.78 23.78 35.67 54.948 35.67 86.116v132.748" style="fill:none;stroke:#000;stroke-width:15;stroke-linecap:round;stroke-linejoin:round;stroke-miterlimit:10;stroke-dasharray:none;stroke-opacity:1" transform="translate(243.63 36.607)"/><path d="m0 0 71.797-71.796" style="fill:none;stroke:#000;stroke-width:15;stroke-linecap:round;stroke-linejoin:round;stroke-miterlimit:10;stroke-dasharray:none;stroke-opacity:1" transform="translate(239.012 352.875)"/><path d="m0 0 83.775-83.775" style="fill:none;stroke:#000;stroke-width:15;stroke-linecap:round;stroke-linejoin:round;stroke-miterlimit:10;stroke-dasharray:none;stroke-opacity:1" transform="translate(175.485 311.62)"/><path d="m0 0 55.265-55.265" style="fill:none;stroke:#000;stroke-width:15;stroke-linecap:round;stroke-linejoin:round;stroke-miterlimit:10;stroke-dasharray:none;stroke-opacity:1" transform="translate(160.88 221.443)"/><path d="M0 0c24.013-4.914 43.074-23.423 48.79-47.134" style="fill:none;stroke:#000;stroke-width:15;stroke-linecap:round;stroke-linejoin:round;stroke-miterlimit:10;stroke-dasharray:none;stroke-opacity:1" transform="translate(314.658 451.835)"/><path d="M0 0c48.301-9.884 86.64-47.113 98.136-94.806" style="fill:none;stroke:#000;stroke-width:15;stroke-linecap:round;stroke-linejoin:round;stroke-miterlimit:10;stroke-dasharray:none;stroke-opacity:1" transform="translate(318.813 504.5)"/><path d="M0 0c4.914-24.014 23.423-43.075 47.134-48.79" style="fill:none;stroke:#000;stroke-width:15;stroke-linecap:round;stroke-linejoin:round;stroke-miterlimit:10;stroke-dasharray:none;stroke-opacity:1" transform="translate(71.996 137.607)"/><path d="M0 0c9.883-48.3 47.112-86.64 94.806-98.136" style="fill:none;stroke:#000;stroke-width:15;stroke-linecap:round;stroke-linejoin:round;stroke-miterlimit:10;stroke-dasharray:none;stroke-opacity:1" transform="translate(19.332 133.451)"/><path d="M0 0c-14.505 33.465-12.092 72.503 7.239 104.113" style="fill:none;stroke:#000;stroke-width:15;stroke-linecap:round;stroke-linejoin:round;stroke-miterlimit:10;stroke-dasharray:none;stroke-opacity:1" transform="translate(370.15 140.302)"/></g></svg>