<svg xmlns="http://www.w3.org/2000/svg" viewBox="0 0 512 512"><path fill="#6acdf3" d="M146.836 189.046h218.329v311.92H146.836z"/><path fill="#fff" d="M146.844 189.026h29.739v311.94h-29.739z" opacity=".4"/><path fill="#fffcff" d="M475.886 318.589v182.377H365.181V272.868z"/><path fill="#6acdf3" d="M446.167 347.525v16.045a5.313 5.313 0 0 1-5.313 5.313h-40.641a5.313 5.313 0 0 1-5.313-5.313v-16.045a5.313 5.313 0 0 1 5.313-5.313h40.641a5.313 5.313 0 0 1 5.313 5.313m0 53.087v16.045a5.313 5.313 0 0 1-5.313 5.313h-40.641a5.313 5.313 0 0 1-5.313-5.313v-16.045a5.313 5.313 0 0 1 5.313-5.313h40.641a5.313 5.313 0 0 1 5.313 5.313m0 53.087v16.045a5.313 5.313 0 0 1-5.313 5.313h-40.641a5.313 5.313 0 0 1-5.313-5.313v-16.045a5.313 5.313 0 0 1 5.313-5.313h40.641a5.314 5.314 0 0 1 5.313 5.313"/><path fill="#fffcff" d="M36.116 318.589v182.377H146.82V272.868z"/><path fill="#6acdf3" d="M65.835 347.525v16.045a5.313 5.313 0 0 0 5.313 5.313h40.641a5.313 5.313 0 0 0 5.313-5.313v-16.045a5.313 5.313 0 0 0-5.313-5.313H71.147a5.31 5.31 0 0 0-5.312 5.313m0 53.087v16.045a5.313 5.313 0 0 0 5.313 5.313h40.641a5.313 5.313 0 0 0 5.313-5.313v-16.045a5.313 5.313 0 0 0-5.313-5.313H71.147a5.313 5.313 0 0 0-5.312 5.313m0 53.087v16.045a5.313 5.313 0 0 0 5.313 5.313h40.641a5.313 5.313 0 0 0 5.313-5.313v-16.045a5.313 5.313 0 0 0-5.313-5.313H71.147a5.313 5.313 0 0 0-5.312 5.313"/><path fill="#fffcff" d="M185.133 395.299h141.736v105.667H185.133z"/><path fill="#ffc563" d="M209.094 395.299h93.813v105.667h-93.813z"/><path fill="#fff" d="M209.114 395.288h18.275v105.678h-18.275z" opacity=".4"/><path fill="#fffcff" d="M379.406 168.694v14.288a6.064 6.064 0 0 1-6.065 6.064H138.66a6.064 6.064 0 0 1-6.064-6.064v-14.288a6.064 6.064 0 0 1 6.064-6.064h234.681a6.064 6.064 0 0 1 6.065 6.064M209.56 225.432v37.312a6.287 6.287 0 0 1-6.287 6.287h-27.814a6.287 6.287 0 0 1-6.287-6.287v-37.312a6.287 6.287 0 0 1 6.287-6.287h27.814a6.29 6.29 0 0 1 6.287 6.287m66.634 0v37.312a6.287 6.287 0 0 1-6.287 6.287h-27.814a6.287 6.287 0 0 1-6.287-6.287v-37.312a6.287 6.287 0 0 1 6.287-6.287h27.814a6.287 6.287 0 0 1 6.287 6.287m66.635 0v37.312a6.287 6.287 0 0 1-6.287 6.287h-27.814a6.287 6.287 0 0 1-6.287-6.287v-37.312a6.287 6.287 0 0 1 6.287-6.287h27.814a6.29 6.29 0 0 1 6.287 6.287M209.56 315.843v37.312a6.287 6.287 0 0 1-6.287 6.287h-27.814a6.287 6.287 0 0 1-6.287-6.287v-37.312a6.287 6.287 0 0 1 6.287-6.287h27.814a6.287 6.287 0 0 1 6.287 6.287m66.634 0v37.312a6.287 6.287 0 0 1-6.287 6.287h-27.814a6.287 6.287 0 0 1-6.287-6.287v-37.312a6.287 6.287 0 0 1 6.287-6.287h27.814a6.287 6.287 0 0 1 6.287 6.287m66.635 0v37.312a6.287 6.287 0 0 1-6.287 6.287h-27.814a6.287 6.287 0 0 1-6.287-6.287v-37.312a6.287 6.287 0 0 1 6.287-6.287h27.814a6.287 6.287 0 0 1 6.287 6.287"/><path fill="#ffc563" d="m263.381 13.816 12.269 24.86 27.434 3.986c6.75.981 9.446 9.276 4.561 14.038l-19.852 19.351 4.686 27.324c1.153 6.723-5.903 11.85-11.941 8.676L256 99.151l-24.538 12.9c-6.038 3.174-13.094-1.953-11.941-8.676l4.686-27.324L204.356 56.7c-4.885-4.761-2.189-13.057 4.561-14.038l27.434-3.986 12.269-24.86c3.02-6.117 11.742-6.117 14.761 0m107.601 59.683 7.685 15.571 17.184 2.497c4.228.614 5.917 5.81 2.857 8.793l-12.435 12.121 2.935 17.115c.722 4.211-3.698 7.422-7.48 5.434l-15.37-8.08-15.37 8.08c-3.782 1.988-8.202-1.223-7.48-5.434l2.935-17.115-12.435-12.121c-3.06-2.982-1.371-8.178 2.857-8.793l17.184-2.497 7.685-15.571c1.894-3.831 7.357-3.831 9.248 0m-220.717 0 7.685 15.571 17.184 2.497c4.228.614 5.916 5.81 2.857 8.793l-12.434 12.121 2.935 17.115c.722 4.211-3.698 7.422-7.48 5.434l-15.37-8.08-15.37 8.08c-3.782 1.988-8.202-1.223-7.48-5.434l2.935-17.115-12.435-12.121c-3.06-2.982-1.371-8.178 2.857-8.793l17.184-2.497 7.685-15.571c1.893-3.831 7.356-3.831 9.247 0"/><path fill="#fff" d="M169.173 481.369a4.9 4.9 0 0 0 4.899-4.899v-37.53a4.9 4.9 0 0 0-9.798 0v37.53a4.9 4.9 0 0 0 4.899 4.899"/><g fill="#281261"><path d="M440.854 337.312h-40.639c-5.631 0-10.212 4.581-10.212 10.213v16.045c0 5.631 4.581 10.212 10.212 10.212h40.639c5.631 0 10.212-4.581 10.212-10.212v-16.045c0-5.631-4.581-10.213-10.212-10.213m.414 26.258a.416.416 0 0 1-.414.414h-40.639a.416.416 0 0 1-.414-.414v-16.045c0-.227.187-.414.414-.414h40.639c.227 0 .414.187.414.414zm-.414 26.829h-40.639c-5.631 0-10.212 4.581-10.212 10.212v16.045c0 5.631 4.581 10.212 10.212 10.212h40.639c5.631 0 10.212-4.581 10.212-10.212v-16.045c0-5.631-4.581-10.212-10.212-10.212m.414 26.257a.416.416 0 0 1-.414.414h-40.639a.416.416 0 0 1-.414-.414v-16.045c0-.227.187-.414.414-.414h40.639c.227 0 .414.187.414.414zm-.414 26.832h-40.639c-5.631 0-10.212 4.581-10.212 10.212v16.045c0 5.631 4.581 10.212 10.212 10.212h40.639c5.631 0 10.212-4.581 10.212-10.212V453.7c0-5.631-4.581-10.212-10.212-10.212m.414 26.257a.416.416 0 0 1-.414.414h-40.639a.416.416 0 0 1-.414-.414V453.7c0-.227.187-.414.414-.414h40.639c.227 0 .414.187.414.414z"/><path d="m28.292 327.121 2.926-1.208v170.154h-4.796a4.9 4.9 0 0 0 0 9.798H485.58a4.9 4.9 0 0 0 0-9.798h-4.794V325.914l2.923 1.207a4.9 4.9 0 0 0 3.741-9.057l-117.385-48.481v-75.638h3.277c6.045 0 10.964-4.918 10.964-10.964v-14.289c0-6.045-4.918-10.964-10.964-10.964H138.66c-6.045 0-10.964 4.918-10.964 10.964v14.289c0 6.045 4.918 10.964 10.964 10.964h3.277v75.638L24.549 318.064a4.9 4.9 0 1 0 3.743 9.057m341.789-46.928 100.905 41.674v174.199H370.081zM204.196 496.067h-14.164v-95.869h14.164zm46.905 0h-37.106v-95.869h37.106zm46.907 0h-37.109v-95.869h37.109zm23.961 0h-14.162v-95.869h14.162zm38.297 0h-28.499V395.298a4.9 4.9 0 0 0-4.899-4.899H185.132a4.9 4.9 0 0 0-4.899 4.899v100.769h-28.496V193.945h208.53zM138.66 184.146a1.164 1.164 0 0 1-1.165-1.165v-14.289c0-.644.521-1.165 1.165-1.165h234.682c.644 0 1.165.521 1.165 1.165v14.289c0 .644-.522 1.165-1.165 1.165zm-97.644 137.72 54.656-22.573 46.249-19.1v215.874H41.016z"/><path d="M111.788 337.312H71.146c-5.629 0-10.21 4.581-10.21 10.213v16.045c0 5.631 4.581 10.212 10.21 10.212h40.642c5.631 0 10.213-4.581 10.213-10.212v-16.045c0-5.631-4.581-10.213-10.213-10.213m.414 26.258a.416.416 0 0 1-.414.414H71.146a.414.414 0 0 1-.411-.414v-16.045c0-.227.184-.414.411-.414h40.642c.227 0 .414.187.414.414zm-.414 26.829H71.146c-5.629 0-10.21 4.581-10.21 10.212v16.045c0 5.631 4.581 10.212 10.21 10.212h40.642c5.631 0 10.213-4.581 10.213-10.212v-16.045c0-5.631-4.581-10.212-10.213-10.212m.414 26.257a.416.416 0 0 1-.414.414H71.146a.414.414 0 0 1-.411-.414v-16.045c0-.227.184-.414.411-.414h40.642c.227 0 .414.187.414.414zm-.414 26.832H71.146c-5.629 0-10.21 4.581-10.21 10.212v16.045c0 5.631 4.581 10.212 10.21 10.212h40.642c5.631 0 10.213-4.581 10.213-10.212V453.7c0-5.631-4.581-10.212-10.213-10.212m.414 26.257a.416.416 0 0 1-.414.414H71.146a.414.414 0 0 1-.411-.414V453.7c0-.227.184-.414.411-.414h40.642c.227 0 .414.187.414.414zM175.46 273.93h27.812c6.167 0 11.186-5.019 11.186-11.186v-37.312c0-6.167-5.019-11.186-11.186-11.186H175.46c-6.167 0-11.186 5.019-11.186 11.186v37.312c0 6.167 5.019 11.186 11.186 11.186m-1.387-48.498c0-.766.622-1.387 1.387-1.387h27.812c.766 0 1.388.622 1.388 1.387v37.312c0 .766-.622 1.388-1.388 1.388H175.46a1.39 1.39 0 0 1-1.387-1.388zm68.021 48.498h27.815c6.167 0 11.186-5.019 11.186-11.186v-37.312c0-6.167-5.019-11.186-11.186-11.186h-27.815c-6.167 0-11.186 5.019-11.186 11.186v37.312c0 6.167 5.019 11.186 11.186 11.186m-1.388-48.498c0-.766.622-1.387 1.387-1.387h27.815c.766 0 1.388.622 1.388 1.387v37.312c0 .766-.622 1.388-1.388 1.388h-27.815a1.39 1.39 0 0 1-1.387-1.388zm68.022 48.498h27.815c6.167 0 11.186-5.019 11.186-11.186v-37.312c0-6.167-5.019-11.186-11.186-11.186h-27.815c-6.167 0-11.186 5.019-11.186 11.186v37.312c-.001 6.167 5.018 11.186 11.186 11.186m-1.388-48.498c0-.766.622-1.387 1.388-1.387h27.815c.766 0 1.388.622 1.388 1.387v37.312c0 .766-.622 1.388-1.388 1.388h-27.815a1.39 1.39 0 0 1-1.388-1.388zm-131.88 138.91h27.812c6.167 0 11.186-5.019 11.186-11.186v-37.314c0-6.167-5.019-11.184-11.186-11.184H175.46c-6.167 0-11.186 5.017-11.186 11.184v37.314c0 6.168 5.019 11.186 11.186 11.186m-1.387-48.5c0-.763.622-1.385 1.387-1.385h27.812c.766 0 1.388.622 1.388 1.385v37.314c0 .766-.622 1.387-1.388 1.387H175.46a1.39 1.39 0 0 1-1.387-1.387zm68.021 48.5h27.815c6.167 0 11.186-5.019 11.186-11.186v-37.314c0-6.167-5.019-11.184-11.186-11.184h-27.815c-6.167 0-11.186 5.017-11.186 11.184v37.314c0 6.168 5.019 11.186 11.186 11.186m-1.388-48.5c0-.763.622-1.385 1.387-1.385h27.815c.766 0 1.388.622 1.388 1.385v37.314c0 .766-.622 1.387-1.388 1.387h-27.815a1.39 1.39 0 0 1-1.387-1.387zm68.022 48.5h27.815c6.167 0 11.186-5.019 11.186-11.186v-37.314c0-6.167-5.019-11.184-11.186-11.184h-27.815c-6.167 0-11.186 5.017-11.186 11.184v37.314c-.001 6.168 5.018 11.186 11.186 11.186m-1.388-48.5c0-.763.622-1.385 1.388-1.385h27.815c.766 0 1.388.622 1.388 1.385v37.314c0 .766-.622 1.387-1.388 1.387h-27.815a1.39 1.39 0 0 1-1.388-1.387zM218.942 79.567l-4.251 24.786c-.849 4.962 1.151 9.88 5.225 12.839a13.08 13.08 0 0 0 7.705 2.521c2.086 0 4.184-.502 6.122-1.521l22.257-11.7 22.26 11.7c4.457 2.347 9.76 1.962 13.825-1 4.074-2.959 6.074-7.878 5.225-12.839l-4.251-24.786 18.009-17.554c3.603-3.514 4.875-8.669 3.32-13.459a13.05 13.05 0 0 0-10.598-8.935l-24.887-3.617-11.129-22.547c-2.23-4.514-6.741-7.32-11.775-7.32-5.033 0-9.545 2.806-11.775 7.32l-11.126 22.547-24.884 3.617c-4.983.725-9.045 4.148-10.6 8.937-1.557 4.787-.282 9.945 3.32 13.459zm-12.009-27.982c.194-.593.84-2 2.691-2.268l27.434-3.988a4.9 4.9 0 0 0 3.689-2.682l12.265-24.858c.828-1.675 2.366-1.856 2.988-1.856s2.16.182 2.988 1.856l12.27 24.858a4.9 4.9 0 0 0 3.686 2.682l27.437 3.988c1.847.268 2.495 1.675 2.686 2.265.194.593.498 2.11-.84 3.414l-19.853 19.351a4.9 4.9 0 0 0-1.411 4.337l4.686 27.324c.318 1.842-.821 2.892-1.323 3.258s-1.847 1.124-3.507.251l-24.54-12.899a4.9 4.9 0 0 0-4.56 0l-24.537 12.899c-1.655.873-3.002.115-3.509-.254-.502-.366-1.639-1.414-1.323-3.256l4.686-27.324a4.91 4.91 0 0 0-1.409-4.337l-19.853-19.351c-1.337-1.302-1.033-2.819-.841-3.41m134.248 64.411-2.5 14.576a10 10 0 0 0 4 9.835 10.02 10.02 0 0 0 5.899 1.931c1.598 0 3.206-.385 4.689-1.165l13.09-6.882 13.09 6.882c3.416 1.794 7.471 1.502 10.586-.766a9.99 9.99 0 0 0 4.002-9.835l-2.5-14.576 10.59-10.323a9.99 9.99 0 0 0 2.543-10.308 9.99 9.99 0 0 0-8.115-6.842l-14.636-2.127-6.545-13.26c-1.706-3.457-5.16-5.605-9.016-5.605s-7.311 2.148-9.014 5.603l-6.548 13.263-14.636 2.127a10 10 0 0 0-8.115 6.844 9.99 9.99 0 0 0 2.545 10.308zm13.576-20.272a4.9 4.9 0 0 0 3.686-2.679l7.916-15.715c.158 0 .191.067.227.141l.002.002 7.686 15.571a4.9 4.9 0 0 0 3.686 2.679l17.327 2.933-12.435 12.119a4.9 4.9 0 0 0-1.409 4.337l2.564 17.384-15.37-8.081a4.9 4.9 0 0 0-4.56 0l-15.739 7.811 2.935-17.114a4.91 4.91 0 0 0-1.411-4.337L337.571 98.22zm-234.294 20.272-2.5 14.576a10 10 0 0 0 4 9.835 10.01 10.01 0 0 0 10.59.766l13.09-6.882 13.088 6.882a10 10 0 0 0 10.59-.766 10 10 0 0 0 4-9.835l-2.5-14.576 10.59-10.323a9.99 9.99 0 0 0 2.543-10.306 9.99 9.99 0 0 0-8.115-6.844l-14.638-2.127-6.543-13.26-.002-.002a10 10 0 0 0-9.014-5.603 10 10 0 0 0-9.019 5.605l-6.543 13.26-14.636 2.127c-3.816.555-6.926 3.177-8.117 6.844s-.218 7.615 2.545 10.308zm13.578-20.272a4.9 4.9 0 0 0 3.689-2.682l7.914-15.712c.158 0 .191.067.23.144l7.682 15.569a4.9 4.9 0 0 0 3.689 2.682l17.329 2.933-12.435 12.119a4.9 4.9 0 0 0-1.411 4.337l2.564 17.384-15.368-8.081a4.9 4.9 0 0 0-4.56 0l-15.741 7.811 2.935-17.114a4.91 4.91 0 0 0-1.411-4.337l-12.289-12.555z"/></g></svg>