<svg xmlns="http://www.w3.org/2000/svg" xml:space="preserve" viewBox="0 0 512 512"><path d="M147.831 182.857c-46.863 0-84.99-38.127-84.99-84.99 0-4.268-3.458-7.726-7.726-7.726s-7.726 3.458-7.726 7.726c0 55.385 45.058 100.443 100.443 100.443h46.358v-15.453z" style="fill:#ffb4a9"/><path d="M456.885 90.141a7.725 7.725 0 0 0-7.726 7.726c0 46.863-38.127 84.99-84.99 84.99h-46.358v15.453h46.358c55.385 0 100.443-45.058 100.443-100.443a7.726 7.726 0 0 0-7.727-7.726" style="fill:#a45e43"/><path d="M343.565 169.98h-2.575l-43.783 92.716 66.962-38.632v-33.481c0-11.379-9.224-20.603-20.604-20.603" style="fill:#a45e43"/><path d="m310.085 169.98-7.726 10.302-7.726-10.302h-2.575c-11.379 0-20.604 9.224-20.604 20.604v33.481l61.811 38.632-7.726-92.716h-15.454z" style="fill:#c27749"/><path d="m333.264 200.885-46.358 77.264 30.905 61.811c25.603 0 46.358-20.755 46.358-46.358v-61.811c-17.07 0-30.905-13.836-30.905-30.906" style="fill:#2dade3"/><path d="M310.085 200.885V169.98h-15.453v30.905c0 12.78-10.399 23.179-23.179 23.179v69.537c0 25.603 20.755 46.358 46.358 46.358 8.534 0 15.453-20.755 15.453-46.358v-92.716z" style="fill:#49c9ff"/><path d="M364.169 239.517c-21.302 0-38.632-17.33-38.632-38.632V169.98h15.453v30.905c0 12.78 10.399 23.179 23.179 23.179z" style="fill:#2dade3"/><path d="M219.944 169.98h-30.905v123.622h51.509V190.583c-.001-11.379-9.225-20.603-20.604-20.603" style="fill:#ff8d7e"/><path d="M189.038 169.98h-20.604c-11.379 0-20.604 9.224-20.604 20.604v103.018h61.811V190.583c.001-11.379-9.223-20.603-20.603-20.603" style="fill:#ffb4a9"/><path d="m512 293.602-61.811 46.358v-77.264h30.905c16.999 0 30.906 13.908 30.906 30.906" style="fill:#a8e5ff"/><path d="M481.095 293.602 256 401.771 0 293.602c0-16.998 13.907-30.905 30.905-30.905h419.284c16.998-.001 30.906 13.907 30.906 30.905" style="fill:#dbf4ff"/><path d="M512 293.602V512h-30.905l-77.264-109.199 77.264-109.199z" style="fill:#e18f4e"/><path d="M481.095 293.602V512h-61.811L256 465.642 92.716 512H0V293.602z" style="fill:#ffa754"/><path d="M388.378 357.473h-30.905l-30.906 61.811 61.811-30.906z" style="fill:#ffcb63"/><path d="M357.473 357.473H123.622v30.905l233.851 30.906z" style="fill:#ffe2a8"/><path d="M388.378 388.378h-30.905l-77.264 61.811h108.169z" style="fill:#a45e43"/><path d="M123.622 388.378h233.851v61.811H123.622z" style="fill:#c27749"/><path d="M419.284 434.736h-30.906l-30.905 61.811 61.811-30.905z" style="fill:#ffcb63"/><path d="M388.378 434.736H92.716v30.906l295.662 30.905z" style="fill:#ffe2a8"/><path d="M419.284 465.642h-30.906l-30.905 23.179L388.378 512h30.906z" style="fill:#a45e43"/><path d="M92.716 465.642h295.662V512H92.716z" style="fill:#c27749"/><circle cx="47.388" cy="340.99" r="16.483" style="fill:#4f4f4f"/><circle cx="464.612" cy="340.99" r="16.483" style="fill:#4f4f4f"/><path d="M346.141 15.453C346.141 6.919 339.222 0 330.688 0c-5.378 0-10.109 2.751-12.877 6.918C315.044 2.751 310.311 0 304.934 0c-8.534 0-15.453 6.919-15.453 15.453-8.534 0-15.453 6.919-15.453 15.453s6.919 15.453 15.453 15.453h56.66c8.534 0 15.453-6.919 15.453-15.453s-6.919-15.453-15.453-15.453" style="fill:#60312c"/><path d="M317.811 46.358v92.716c25.603 0 46.358-20.755 46.358-46.358s-20.755-46.358-46.358-46.358" style="fill:#a45e43"/><path d="M333.264 92.716c0-25.603-6.919-46.358-15.453-46.358-25.603 0-46.358 20.755-46.358 46.358s20.755 46.358 46.358 46.358c8.534 0 15.453-20.755 15.453-46.358" style="fill:#c27749"/><path d="M222.004 55.63h-27.815v83.445c25.6 0 46.358-20.758 46.358-46.358 0-15.165-7.283-28.64-18.543-37.087" style="fill:#ff8d7e"/><path d="M207.788 70.712c1.185 6.552 1.854 14.041 1.854 22.005 0 25.6-6.923 46.358-15.453 46.358-25.6 0-46.358-20.758-46.358-46.358z" style="fill:#ffb4a9"/><path d="M222.004 55.63a93 93 0 0 1-14.216 15.082L194.19 46.359a46.16 46.16 0 0 1 27.814 9.271" style="fill:#ffcb63"/><path d="M147.831 92.716c0-25.6 20.758-46.358 46.358-46.358 5.872 0 10.992 9.849 13.598 24.353-16.163 13.723-37.096 22.005-59.956 22.005" style="fill:#ffe2a8"/><circle cx="395.074" cy="231.791" r="7.726" style="fill:#a8e5ff"/><circle cx="425.98" cy="216.338" r="7.726" style="fill:#a8e5ff"/><circle cx="456.885" cy="231.791" r="7.726" style="fill:#a8e5ff"/><circle cx="116.926" cy="231.791" r="7.726" style="fill:#a8e5ff"/><circle cx="86.02" cy="216.338" r="7.726" style="fill:#a8e5ff"/><circle cx="55.115" cy="231.791" r="7.726" style="fill:#a8e5ff"/></svg>