<svg xmlns="http://www.w3.org/2000/svg" width="512" height="512" viewBox="0 0 512 512"><path fill="#c68d7a" d="M446.23 504.5h-23.41L246 486.698 89.18 504.5H45.77c-5.523 0-10-4.477-10-10V195.843h420.46V494.5c0 5.523-4.477 10-10 10"/><path fill="#aa6a51" d="M446.23 195.843V494.5c0 5.523-4.477 10-10 10h30c5.523 0 10-4.477 10-10V195.843z"/><path fill="#ffe177" d="M489.5 215.591h-477a5 5 0 0 1-5-5v-29.495a5 5 0 0 1 5-5h477a5 5 0 0 1 5 5v29.495a5 5 0 0 1-5 5"/><path fill="#ffc344" d="M499.5 176.096h-30a5 5 0 0 1 5 5v29.495a5 5 0 0 1-5 5h30a5 5 0 0 0 5-5v-29.495a5 5 0 0 0-5-5"/><path fill="#deecf1" d="M336.115 364.056h-180.23c-5.523 0-10 4.477-10 10v70.296h220.23l-20-70.296c0-5.522-4.477-10-10-10"/><path fill="#cbe5e8" d="M356.115 364.056h-30c5.523 0 10 4.477 10 10v70.296h30v-70.296c0-5.522-4.477-10-10-10"/><path fill="#eef5f6" d="M392.82 424.204H99.18c-5.523 0-10 4.477-10 10V504.5h313.64v-70.296c0-5.523-4.477-10-10-10"/><path fill="#deecf1" d="M412.82 424.204h-30c5.523 0 10 4.477 10 10V504.5h30v-70.296c0-5.523-4.477-10-10-10"/><path fill="#99e6fc" d="M189.295 297.113h-96.82c-5.523 0-10-4.477-10-10V162.321c0-8.284 6.716-15 15-15h86.82c8.284 0 15 6.716 15 15v124.792c0 5.522-4.477 10-10 10"/><path fill="#01d0fb" d="M194.295 147.321h-30c8.284 0 15 6.716 15 15v124.792c0 5.523-4.477 10-10 10h30c5.523 0 10-4.477 10-10V162.321c0-8.284-6.716-15-15-15"/><path d="M182.383 50.327c-2.904 2.801-7.293 7.035-7.293 15.043a7.5 7.5 0 0 0 15 0c0-1.453.304-1.929 2.707-4.248 2.904-2.801 7.293-7.035 7.293-15.043s-4.389-12.242-7.293-15.044c-2.403-2.318-2.707-2.794-2.707-4.247s.304-1.929 2.707-4.246c2.904-2.801 7.293-7.034 7.293-15.042a7.5 7.5 0 0 0-15 0c0 1.452-.304 1.928-2.707 4.246-2.904 2.801-7.293 7.034-7.293 15.043s4.389 12.242 7.293 15.043c2.403 2.318 2.707 2.794 2.707 4.248 0 1.453-.304 1.929-2.707 4.247m68.41 0c-2.904 2.801-7.293 7.035-7.293 15.043a7.5 7.5 0 0 0 15 0c0-1.453.304-1.929 2.707-4.248 2.904-2.801 7.293-7.035 7.293-15.043s-4.389-12.242-7.293-15.044c-2.403-2.318-2.707-2.794-2.707-4.247s.304-1.929 2.706-4.246c2.905-2.801 7.294-7.034 7.294-15.042a7.5 7.5 0 0 0-15 0c0 1.452-.304 1.928-2.707 4.246-2.904 2.801-7.293 7.034-7.293 15.043s4.389 12.242 7.293 15.043c2.403 2.318 2.707 2.794 2.707 4.248 0 1.453-.304 1.929-2.707 4.247m68.41 0c-2.904 2.801-7.293 7.035-7.293 15.043 0 4.142 3.357 7.5 7.5 7.5s7.5-3.358 7.5-7.5c0-1.453.304-1.929 2.707-4.248 2.904-2.801 7.293-7.035 7.293-15.043s-4.389-12.242-7.293-15.044c-2.403-2.318-2.707-2.794-2.707-4.247s.304-1.929 2.706-4.246c2.905-2.801 7.294-7.034 7.294-15.042 0-4.142-3.357-7.5-7.5-7.5s-7.5 3.358-7.5 7.5c0 1.452-.304 1.928-2.706 4.246-2.904 2.801-7.294 7.034-7.294 15.043s4.389 12.242 7.293 15.043c2.403 2.318 2.707 2.794 2.707 4.248 0 1.453-.304 1.929-2.707 4.247M499.5 168.596H216.795v-6.275c0-12.407-10.093-22.5-22.5-22.5h-45.722a7.5 7.5 0 0 0 0 15h45.722c4.135 0 7.5 3.364 7.5 7.5v124.792c0 1.378-1.122 2.5-2.5 2.5H92.475a2.503 2.503 0 0 1-2.5-2.5V162.321c0-4.136 3.365-7.5 7.5-7.5h18.412a7.5 7.5 0 0 0 0-15H97.475c-12.407 0-22.5 10.093-22.5 22.5v6.275H12.5c-6.893 0-12.5 5.607-12.5 12.5v29.495c0 6.893 5.607 12.5 12.5 12.5h15.77V494.5c0 9.649 7.851 17.5 17.5 17.5h420.46c9.649 0 17.5-7.851 17.5-17.5V316.472a7.5 7.5 0 0 0-15 0V494.5c0 1.378-1.121 2.5-2.5 2.5h-35.91v-62.796c0-9.649-7.851-17.5-17.5-17.5h-2.5V223.091h58.41v60.615a7.5 7.5 0 0 0 15 0v-60.615h15.77c6.893 0 12.5-5.607 12.5-12.5v-29.495c0-6.892-5.607-12.5-12.5-12.5M216.795 287.113v-64.022H248.5v133.466h-92.615c-9.649 0-17.5 7.851-17.5 17.5v42.647H116.68V304.613h82.615c9.649 0 17.5-7.851 17.5-17.5M15 183.596h59.975v24.495H15zM43.27 494.5V223.091h31.705v64.022c0 9.649 7.851 17.5 17.5 17.5h9.205v112.091h-2.5c-9.649 0-17.5 7.851-17.5 17.5V497H45.77a2.503 2.503 0 0 1-2.5-2.5m372.05-60.296V497H96.68v-62.796c0-1.378 1.122-2.5 2.5-2.5h95.477a7.5 7.5 0 0 0 0-15h-41.272v-42.647c0-1.378 1.121-2.5 2.5-2.5h200.23c1.379 0 2.5 1.122 2.5 2.5v42.647H227.343a7.5 7.5 0 0 0 0 15H412.82c1.379 0 2.5 1.122 2.5 2.5m-20-17.5h-21.705v-42.647c0-9.649-7.851-17.5-17.5-17.5H263.5V223.091h131.82zM497 208.091H216.795v-24.495H497z"/></svg>