<svg xmlns="http://www.w3.org/2000/svg" xml:space="preserve" width="512" height="512" viewBox="0 0 512 512"><path d="M192.59 7.5c0 9.644-10 9.644-10 19.288s10 9.645 10 19.291-10 9.646-10 19.291M261 7.5c0 9.644-10 9.644-10 19.288s10 9.645 10 19.291-10 9.646-10 19.291M329.41 7.5c0 9.644-10 9.644-10 19.288s10 9.645 10 19.291-10 9.646-10 19.291M256 218.934v142.283m146.82-142.283v204.27M109.18 299.113v123.091m105.369-246.108H499.5a5 5 0 0 1 5 5v29.495a5 5 0 0 1-5 5H215.049m-135.539 0H12.5a5 5 0 0 1-5-5v-29.495a5 5 0 0 1 5-5h67.01m286.605 243.159v-45.199c0-5.523-4.477-10-10-10h-200.23c-5.523 0-10 4.477-10 10v47.37m48.772 2.778H99.18c-5.523 0-10 4.477-10 10V502.5m333.64 0v-68.296c0-5.523-4.477-10-10-10H227.343" style="fill:none;stroke:#000;stroke-width:15;stroke-linecap:round;stroke-linejoin:round;stroke-miterlimit:10"/><path d="M476.23 316.471V494.5c0 5.523-4.477 10-10 10H45.77c-5.523 0-10-4.477-10-10V218.934m440.46 0v64.772" style="fill:none;stroke:#000;stroke-width:15;stroke-linecap:round;stroke-linejoin:round;stroke-miterlimit:10"/><path d="M148.573 147.321h45.722c8.284 0 15 6.716 15 15v124.792c0 5.523-4.477 10-10 10H92.475c-5.523 0-10-4.477-10-10V162.321c0-8.284 6.716-15 15-15h18.412" style="fill:none;stroke:#000;stroke-width:15;stroke-linecap:round;stroke-linejoin:round;stroke-miterlimit:10"/></svg>