<svg xmlns="http://www.w3.org/2000/svg" xml:space="preserve" width="512" height="512" viewBox="0 0 512.001 512.001"><path fill="#d2d2ca" d="M114.882 159.055c-11.184 2.158-23.09 3.535-34.504 5.559-13.741 2.437-26.254 8.433-39.014 13.758-19.067 7.958-29.293 17.824-31.538 39.137-1.755 16.67-2.601 33.443-3.404 50.264-1.1 23.033-2.337 47.742 1.349 70.484 2.383 14.699 1.854 33.996 10.899 46.574 11.373 15.817 43.092 15.328 59.921 19.178 58.353 13.344 119.237 16.935 178.847 19.65 34.983 1.595 70.002-1.051 104.869-3.541 28.622-2.045 57.458-6.254 84.863-15.113 15.361-4.967 33.857-10.832 45.51-22.57 10.973-11.053 9.088-29.166 9.067-43.668-.041-27.922.873-55.537 1.426-83.439.314-15.916 3.563-37.152-3.88-51.905-8.568-16.981-34.771-28.48-51.722-34.36-25.059-8.693-49.528-13.789-75.521-19.167-65.196-13.489-139.546-10.235-205.008.707-22.312 3.729-44.646 7.819-66.958 11.272" data-original="#d2d2ca"/><path fill="#bdbdb5" d="M10.59 360.59c-3.591-13.446-4.84-31.006-5.48-44.904-.691-15.023-.861-30.035-.861-45.093 0-18.341 1.141-35.282 7.067-52.362 6.764-19.496 26.948 7.892 34.716 14.506 18.225 15.517 39.272 26.818 58.745 40.555 28.089 19.814 50.306 40.751 83.498 52.668 77.627 27.87 168.687 34.576 249.88 20.715 12.493-2.133 69.283-22.205 65.175 9.492-3.663 28.266-43.227 44.14-66.885 49.576-54.662 12.562-109.959 16.633-165.805 19.131-57.771 2.583-116.512-2.357-173.179-13.549-33.254-6.568-77.554-15.27-86.871-50.735" data-original="#bdbdb5"/><path fill="#e7e7e0" d="M76.125 302.808c-19.619 5.007-23.153 43.44-3.574 50.913 8.412 3.211 23.708 3.903 30.37-2.982 8.349-8.627 10.866-26.054 7.02-37.076-4.82-13.811-23.807-17.46-33.816-10.855m168.417 5.637c-13.866 2.637-21.106 25.518-18.165 37.699 2.614 10.824 13.554 15.994 23.838 17.419 24.549 3.401 45.222-15.909 36.059-40.868-6.028-16.418-29.29-20.451-41.732-14.25m178.281-7.752c-11.813-1.154-18.968 19.84-19.728 28.734-.777 9.104 3.676 20.877 13.034 24.064 18.955 6.455 43.427-10.785 36.291-31.266-3.856-11.063-18.526-24.233-29.597-21.532" data-original="#e7e7e0"/><path fill="#d2d2ca" d="M60.622 328.176c-.889-6.5 9.101-27.22 17.087-20.467 8.44 7.137-3.954 24.193 10.38 30.193 5.874 2.458 23.713-1.154 13.227 11.941-4.966 6.201-17.572 7.002-24.838 5.461-4.37-.928-8.047-3.118-11.188-6.383-2.504-2.604-4.536-5.861-5.563-9.269-1.621-5.373 2.103-12.73.895-11.476m164.894 16.912c-3.144-8.468 2.815-23.537 8.808-29.974 10.815-11.616 16.885 2.28 19.888 12.55 1.738 5.945 3.361 14.166 8.808 18.024 4.153 2.94 7.781.87 9.021 6.446 1.862 8.374-7.982 13.362-14.436 13.414-13.421.111-29.211-9.073-32.089-20.46" data-original="#d2d2ca"/><path fill="#f2f1e8" d="M57.099 175.262c-10.818 3.514-39.367 10.766-39.161 26.16.219 16.398 26.663 27.131 38.3 31.643 14.11 5.467 29.829 7.605 44.821 9.672 18.013 2.482 35.77 6.979 53.695 9.898 38.419 6.258 78.546 7.71 117.291 4.542 41.324-3.379 83.155.501 124.203-6.782 29.127-5.168 63.997-12.832 88.931-29.467 4.151-2.77 15.135-10.558 15.72-16.051.656-6.166-9.971-10.935-14.107-14.115-25.214-19.387-55.544-29.08-86.85-34.686-63.979-11.456-128.266-13.162-193.065-8.297-29.023 2.18-57.828 6.332-86.671 9.865-23.563 2.888-45.347 6.852-63.107 17.618" data-original="#f2f1e8"/><path fill="#d2d2ca" d="M400.274 329.585c-1.108-9.925 6.206-25.902 18.325-22.068 8.324 2.634 6.277 8.572 6.304 14.985.037 8.744 3.103 11.438 7.485 18.039 5.323 8.017-2.145 15.379-11.853 15.111-4.716-.129-7.825-2.886-10.91-6.129-8.228-8.652-5.311-16.539-9.351-19.938" data-original="#d2d2ca"/><path fill="#a8a9a2" d="M420.005 184.422c-1.526-1.301-11.231-3.015-13.405-2.146-6.028 2.41-1.937 4.003-1.446 8.842.373 3.68-.38 7.538-2.217 10.766-1.413 2.48-7.019 5.545-7.611 8.049-.625 2.641 2.958 6.829 5.361 9.372 4.574 4.841 5.076 4.243 11.518 2.308 11.964-3.596 30.385-7.919 39.94-16.029 15.125-12.84-27.248-18.129-32.14-21.162" data-original="#a8a9a2"/><path fill="#b9f5ff" d="M53.575 198.516c-1.026-12.24 16.121-19.488 26.424-17.615 2.17.395 6.285 2.793 8.262 2.656 3.437-.24 4.372-3.945 7.947-5.157 7.557-2.562 9.233 5.919 15.751 5.914 1.174-6.355.725-16.308 4.866-21.772 3.648-4.813 8.67-2.674 12.01-8.419 3.527-6.067 2.534-10.854 10.008-14.287 7.553-3.468 8.302-.152 14.111 2.13 6.681 2.625 7.576-1.23 13.741-5.813 4.833-3.592 10.804-7.808 17.245-6.708 7.734 1.32 6.744 6.741 10.397 11.325 5.366 6.732 6.855-.441 14.283-2.008 17.325-3.652 14.339 17.67 14.891 27.938 6.068.763 11.863-2.785 16.116 2.207 4.296 5.043-.781 14.281 2.924 19.051 4.993 6.429 9.17-3.021 15.553-1.471 4.215 1.023 6.355 6.492 8.987 9.644 2.635-6.33 6.402-14.798 13.389-17.358 5.149-1.887 8.773 1.062 13.797 1.561 10.355 1.03 11.923-15.756 25.02-15.639 2.448.021 5.795.107 7.865 1.514 1.791 1.218 2.839 5.6 4.195 6.125 4.166 1.609 10.346-2.818 15.662-.945 3.703 1.307 8.87 5.107 10.478 8.811 2.112 4.864-1.923 11.314 3.335 14.773 2.717-4.334 9.666-5.907 14.089-3.094 4.906 3.122 4.416 9.525 6.138 14.23 3.142 8.59 3.373 3.809 10.797 4.146 5.871.268 10.672 3.99 9.867 10.08-1.542 11.65-23.811 8.447-32.653 9.68-27.776 3.873-54.919 6.524-82.994 6.553-49.232.051-99.79 2.525-147.993-8.475-8.628-1.969-90.183-13.871-84.508-29.577" data-original="#118acb"/><path fill="#2cccf4" d="M53.308 195.631c2.574-14.331 19.297-16.523 30.158-12.355 8.319 3.193 7.245-2.434 14.926-4.93 6.033-1.96 10.192 1.294 14.394 5.637 7.777 8.037 5.868 2.338 15.718-1.389 5.109-1.934 13.481-2.762 18.051.784 4.714 3.659 4.234 10.608 6.655 15.509 7.859 15.904 26.331-3.896 39.587 3.211 7.116 3.814 10.436 15.184 17.8 17.41 9.617 2.908 19.258-9.717 30.217-7.383 6.456 1.375 8.582 7.098 14.333 9.494 4.476 1.865 9.227.544 13.659-.41 16.365-3.52 31.844-3.852 48.52-5.514 20.253-2.018 39.165-2.066 59.434-.34 8.179.696 16.464-.318 22.621 5.619-3.75 7.201-16.77 9.141-23.899 10.605-19.026 3.908-40.376 4.082-59.759 4.525-42.295.965-83.886.656-126.127-1.939-19.455-1.195-38.844-3.452-58.286-4.865-7.6-.553-14.007-3.276-21.495-4.432-8.73-1.347-17.589-2.304-25.881-5.554-14.443-5.66-24.622-7.826-30.626-23.683" data-original="#1372bf"/><path fill="#b9f5ff" d="M174.624 82.54c-6.54-1.737-21.812 14.295-13.739 20.251 2.723 2.008 8.936-.373 12.051.971 3.621 1.561 5.387 4.331 6.605 8.131 9.25 1.184 15.591-9.994 15.645-17.984.118-17.579-15.23-9.294-20.562-11.369m54.146 4.798c-6.098 1.123-12.935 12.711-11.532 19.072 4.241 2.872 9.805 1.166 12.231 5.604 2.907 5.318-.358 11.189 7.526 13.741 15.777 5.105 28.767-15.588 21.511-28.488-6.099-10.843-20.642-11.529-29.736-9.929" data-original="#118acb"/><path fill="#94958e" d="M396.276 117.604c-6.659 6.383-35.428 32.268-19.268 40.959 5.356 2.883 14.24 2.965 20.309 3.83 4.228.603 8.308 1.515 12.172-.66 2.791-1.571 4.022-6.99 7.86-6.328 2.276.394.979 3.546 2.694 4.674 2.259 1.484 4.75 2.252 7.346 2.989 7.326 2.081 18.514 8.482 23.875 1.696 7.143-9.041 3.792-34.926-5.274-42.262-6.27-5.074-13.737-7.443-21.635-7.697-5.254-.169-10.519-.118-15.707.699-7.176 1.132-9.52 5.008-12.372 2.1" data-original="#94958e"/><path fill="#63635f" d="M411.67 160.987c5.168-11.759 16.229-30.136 31.489-23.753 9.684 4.052 19.543 30.635 2.115 31.498-4.343.215-12.265-2.077-16.83-3.025-4.339-.9-12.285-1.402-16.774-4.72" data-original="#63635f"/><path fill="#2cccf4" d="M375.284 156.789c-4.284 4.746-7.727 9.662-8.433 16.094-.364 3.314.854 5.545-.806 9.098-1.72 3.682-5.23 4.222-4.65 8.99 6.053.318 12.069-1.457 16.006 3.955 3.306 4.545 2.275 11.783 3.601 17.035 2.71-.217 5.763-3.24 8.293-3.268 2.355-.026 5.363 2.533 7.525 3.288 3.498-4.907 7.137-11.981 7.15-18.122.012-5.145-3.08-9.508-2.123-15.027.748-4.313 5.36-8.362 3.207-11.904-4.082-6.714-18.531-1.872-29.77-10.139" data-original="#26addd"/><path fill="#636260" d="M82.793 319.129c-6.793 5.841-6.834 24.748 4.934 17.666 6.804-4.094 6.723-22.033-2.835-18.365m168.637 7.697c-12.521 4.888-7.887 26.379 6.647 21.322 14.382-5.004 7.972-23.599-6.647-21.322m168.638-6.998c-7.342 2.838-3.25 24.176 7.153 20.482 11.167-3.966 4.849-27.471-7.153-19.782" data-original="#636260"/><path d="M109.469 311.104c-4.508-8.43-12.88-14.174-22.385-15.449-9.465-1.27-17.894 3.567-23.867 10.783-6.4 7.73-9.71 20.473-7.988 30.389.742 4.269 4.673 12.617 9.547 14.984 8.378 7.475 21.312 10.109 31.893 5.372 7.931-3.55 13.406-10.001 15.851-18.254 1.427-4.817 2.352-9.716 1.728-14.739-.633-5.099-2.406-8.649-4.779-13.086m-5.356 23.342c-1.759 6.925-5.878 13.315-13.255 15.345-7.158 1.969-16.325.496-21.637-4.887-6.55-6.639-6.545-15.83-3.456-24.098.893-2.389 1.938-4.727 3.351-6.83a26.1 26.1 0 0 1 6.354-5.944c7.46-4.917 16.639-2.961 22.822 3.343 5.988 6.104 7.876 14.98 5.821 23.071" data-original="#000000"/><path d="M92.11 316.2c-3.469-2.481-8.646-1.635-11.945.741-.913.657-1.878 1.939-2.741 3.549a11 11 0 0 0-1.184 2.009c-2.026 4.491-2.953 9.997.438 14.085 2.821 3.4 8.023 4.705 12.154 3.148 3.897-1.467 6.454-5.967 7.103-9.914.684-4.163-.086-10.945-3.825-13.618m-1.796 11.667c-.48 3.857-5.301 8.932-8.953 5.254-.941-3.146-.637-5.656.625-8.93.82-2.127 3.094-3.933 5.557-3.703 3.114.291 3.079 4.909 2.771 7.379m334.604-32.213c-9.505 1.275-17.876 7.02-22.385 15.449-2.374 4.438-4.146 7.987-4.779 13.086-.624 5.023.301 9.922 1.728 14.739 2.444 8.253 7.92 14.704 15.851 18.254 10.581 4.737 23.514 2.103 31.893-5.372 4.874-2.367 8.806-10.716 9.547-14.984 1.723-9.916-1.587-22.658-7.988-30.389-5.973-7.215-14.402-12.052-23.867-10.783m17.863 49.25c-5.312 5.383-14.479 6.855-21.637 4.887-7.377-2.029-11.496-8.42-13.256-15.345-2.055-8.092-.167-16.968 5.822-23.071 6.183-6.304 15.362-8.26 22.823-3.343a26.2 26.2 0 0 1 6.354 5.944c1.413 2.104 2.458 4.441 3.351 6.83 3.089 8.268 3.094 17.46-3.457 24.098" data-original="#000000"/><path d="M434.577 320.49c-.862-1.609-1.827-2.892-2.74-3.549-3.3-2.376-8.476-3.223-11.945-.741-3.738 2.673-4.508 9.455-3.825 13.618.649 3.947 3.205 8.447 7.103 9.914 4.131 1.557 9.333.252 12.154-3.148 3.39-4.088 2.464-9.594.438-14.085a11.2 11.2 0 0 0-1.185-2.009m-3.937 12.631c-3.651 3.678-8.473-1.396-8.953-5.254-.308-2.471-.343-7.088 2.771-7.379 2.463-.229 4.737 1.576 5.557 3.703 1.262 3.274 1.566 5.784.625 8.93" data-original="#000000"/><path d="M511.215 251.578c-.894-7.646-1.474-15.5-2.038-23.163-1.121-15.229-4.065-32.549-16.565-42.724-4.588-3.736-9.931-5.908-15.339-8.014-.6-.422-1.267-.81-2.023-1.203-2.289-1.193-4.081-2.549-6.29-3.84-4.266-2.496-9.195-4.408-13.916-5.992 1.609-6.861 2.418-13.742 3.212-20.854.89-7.959.149-16.077-5.173-22.523-2.639-3.194-5.045-5.782-8.957-7.369-4.114-1.667-8.744-2.729-13.069-3.715-8.717-1.989-17.332-4.836-26.04-1.152-3.565 1.508-7.365 2.57-10.61 4.762-3.749 2.531-7.166 5.752-10.374 8.918-5.973 5.894-11.921 12.903-14.702 20.949a22 22 0 0 0-.447 1.502c-2.577-1.033-5.458-1.247-8.382-1.812-5.631-1.089-11.39-2.25-17.114-2.755-12.449-1.098-24.997-1.018-37.438-2.006-14.382-1.143-29.168-.307-43.598-.452-6.655-.067-13.195.323-19.827.335-5.815.012-11.377.01-17.044.867-.946-1.109-2.013-2.106-3.239-2.918-4.307-2.852-9.92-3.773-15.004-3.361-2.664.217-5.203.885-7.596 2.078-.33.164-.672.342-1.02.525l-.06-.268c-.566-2.655-1.743-5.171-3.356-7.355-2.866-3.884-8.404-4.914-13.019-5.263-5.504-.417-12.17 1.523-16.592 4.823-2.024 1.51-4.032 3.434-5.786 5.252-.86.892-1.53 2.057-2.219 3.176-.247-.289-.485-.588-.746-.865-1.492-1.434-3.181-2.643-5.121-3.374-3.202-1.208-6.466-.774-9.788-.149-6.613 1.242-12.896 6.76-15.317 12.961-.685 1.753-1.199 3.547-1.432 5.417a10 10 0 0 0-.068 1.343c-7.837-.36-15.364 2.346-23.088 3.363-4.643.613-9.189 1.709-13.764 2.697-5.188 1.119-10.828 1.617-15.819 3.355-8.761 3.053-17.489 5.996-26.202 9.197-5.781 2.125-10.894 4.182-15.588 7.338-3.986 1.672-7.839 3.588-11.27 6.381C6.89 195.866 3.945 213.186 2.824 228.415c-.563 7.663-1.144 15.517-2.037 23.163-1.03 8.814-.886 17.049-.484 25.875.75 16.468 1.795 32.909 2.559 49.359.72 15.537-.211 32.826 5.281 47.701 5.779 15.651 19.271 23.366 33.533 30.256 7.288 3.52 14.622 5.327 22.407 7.348 4.15 1.078 8.082 2.762 12.269 3.695 4.355.973 8.751 1.545 13.121 2.397 16.524 3.228 33.139 5.484 49.891 7.211 9.976 1.028 20.074 1.571 30.008 2.763 4.904.589 9.754 1.586 14.667 2.125 4.642.51 9.289.301 13.925.908 16.034 2.102 32.237 2.525 48.37 3.145 22.534.864 45.383.045 67.706-3.145 4.638-.607 9.284-.398 13.925-.908 4.913-.539 9.763-1.536 14.667-2.125 9.935-1.191 20.032-1.734 30.008-2.763 16.752-1.727 33.367-3.983 49.89-7.211 4.369-.853 8.766-1.425 13.121-2.397 4.187-.934 8.118-2.617 12.269-3.695 7.784-2.021 15.119-3.828 22.407-7.348 14.262-6.89 27.754-14.604 33.533-30.256 5.492-14.875 4.561-32.164 5.282-47.701.762-16.45 1.809-32.892 2.558-49.359.4-8.826.544-17.06-.485-25.875M379.231 144.419c1.581-3.03 4.286-5.812 6.273-8.649 2.278-3.252 5.729-6.281 8.757-8.874 5.722-4.899 14.165-9.714 21.991-8.634 7.429 1.025 15.128 3.268 22.28 5.479 9.436 2.917 11.82 12.813 10.866 21.557-.398 3.658-.492 7.322-.745 10.991-.145 2.103-.728 4.13-.89 6.226a13 13 0 0 0 0 1.75c-3.313-1.06-6.639-2.076-10.05-2.958-3.044-.786-6.114-1.226-9.143-2.101-2.369-.684-4.993-1.014-7.497-1.505.427-.813.839-1.628 1.224-2.436 1.991-4.179 4.074-8.968 6.754-12.749 1.755-2.476 5.477-3.986 7.952-1.191 1.26 1.423 1.659 4.12 2.042 5.891.362 1.68 2.823 1.541 3.263 0 1.623-5.678 1.454-9.824-4.268-13.056-5.126-2.894-11.488-1.841-15.16 2.694-4.467 5.518-7.215 12.422-11.01 18.391-2.484 3.908-4.038 6.266-8.856 5.199-3.944-.874-7.773-2.306-11.628-3.474-3.319-1.006-6.797-1.522-10.137-2.528-2.232-.672-4.395-1.086-4.291-3.873.073-1.989 1.378-4.434 2.273-6.15m29.474 45.741a35 35 0 0 0-.822-3.33c.421.031.855.068 1.31.124 4.25.521 8.542 1.526 12.739 2.377a143 143 0 0 1 18.455 5.011c3.091 1.068 5.508 2.293 8.417 3.768 3.28 1.66 5.862 1.663 1.483 3.95-4.83 2.524-9.01 5.709-14.188 7.462-3.791 1.282-7.246 3.191-10.999 4.579-4.177 1.544-8.387 2.387-12.647 3.593-1.107.314-2.23.607-3.345.91-2.369-2.854-4.394-5.846-7.065-8.234.542-1.391 1.166-2.676 2.258-3.961 1.085-1.277 2.377-2.352 3.243-3.818 2.204-3.736 1.985-8.342 1.161-12.431m-36.322-18.849c-.167-2.173-1.737-4.727-.83-6.844.498-1.162 1.959-2.231 3.259-3.129.741.389 1.533.75 2.398 1.069 3.84 1.419 7.917 1.982 11.792 3.203 4.313 1.358 8.569 2.909 13.001 3.842q-.336.34-.639.661c-2.981 3.158-5.154 7.116-4.222 11.602.52 2.497 2.232 4.329 3.163 6.639 1.547 3.84 1.993 8.224-.594 11.568-1.682 2.174-3.901 4.176-5.209 6.459-2.318-.471-4.563-.262-6.748.336-.178-2.104-.354-4.35-.811-6.396-.967-4.336-4.64-8.336-7.896-11.229-3.435-3.051-7.265-3.928-11.07-3.479 1.125-1.564 2.034-3.182 2.629-4.581 1.257-2.956 2.024-6.516 1.777-9.721m-130.861-19.307c6.642.018 13.159-.592 19.804-.648 14.547-.129 29.443-1.293 43.962-.451 12.127.705 24.376.692 36.509 1.197 5.575.23 11.376 1.311 16.898 2.074 2.83.391 10.845-1.459 11.128 2.918.118 1.828-2.102 3.455-2.82 5.029-.95 2.082-1.178 4.521-.876 6.773.643 4.797-.854 8.117-3.708 11.506-.096-.262-.187-.523-.286-.785-1.653-4.35-4.157-7.613-7.752-10.609-3.456-2.877-7.942-3.756-12.36-3.813-3.311-.043-5.482 1.002-7.758 2.348-4.701-6.24-10.316-10.637-19.122-9.152-9.313 1.567-14.532 8.882-16.932 17.676l-.046.158c-.127-.045-.242-.088-.391-.133-1.854-.565-3.656-1.3-5.524-1.834-3.818-1.09-8.084-1.785-11.995-.729-7.668 2.07-10.094 8.938-12.306 15.675-.423-.564-.838-1.074-1.243-1.455-2.255-2.125-4.832-3.762-7.851-4.555-3.189-.837-6.309-.265-9.434.559q-.907.239-1.809.502c.447-1.311.835-2.613.927-3.889.283-3.91-1.192-8.455-3.098-11.857-1.959-3.498-4.892-5.967-8.704-7.246-1.838-.617-3.942-1.032-5.898-1.078.344-2.631.308-5.164-.243-7.767 3.695-.051 7.47-.424 10.928-.414m-125.594 36.995c3.756-1.852 4.153-6.298 4.023-9.963-.107-2.991-.444-5.931.37-8.886.888-3.221 2.739-3.793 5.677-4.838 4-1.424 7.029-3.773 7.556-8.18.308-2.568.019-4.973 1.056-7.482 1.35-3.269 5.165-6.479 8.582-7.5 6.23-1.859 7.081 2.449 11.451 5.004 3.617 2.113 6.858.447 8.951-2.736 2.83-4.307 6.79-7.996 11.823-9.494 3.293-.979 5.914-.92 9.179-.115 3.139.775 3.808 1.33 4.437 4.881.62 3.495.115 7.275 3.471 9.542 3.992 2.696 7.333-.595 11.008-2.091 3.767-1.533 9.684-2.156 13.004.906 4.164 3.841 3.097 10.166 1.914 14.869-1.041 4.136-.313 8.726 4.513 9.99 4.73 1.24 9.247-4.459 13.022.345 3.777 4.806.797 10.312-.05 15.501-.713 4.371 1.393 8.777 6.476 8.563 4.851-.204 8.588-5.25 13.699-4.351 5.294.932 6.766 7.625 11.15 9.961 2.201 1.172 5.666.738 6.829-1.791 2.351-5.116 2.758-11.576 6.438-16.042 3.445-4.181 9.158-1.357 13.459.042 4.316 1.404 9.435 2.516 12.319-2.04 2.764-4.364 2.102-9.343 6.45-12.988 4.981-4.177 10.515-1.941 13.998 3.211 2.479 3.667 4.885 7.138 9.704 4.253 2.631-1.574 3.217-2.674 6.585-2.455 3.256.211 4.68 1.041 6.896 3.345 1.968 2.046 3.036 3.96 3.765 6.775.868 3.352-.147 6.402.006 9.776.152 3.345 4.275 6.746 7.479 4.291 2.439-1.868 4.928-4.105 8.2-3.748 2.854.312 4.526 2.387 6.185 4.629 1.76 2.379 2.123 4.985 2.155 8.018.028 2.648-.938 5.012-.138 7.64.977 3.208 4.534 4.63 7.471 3.04 3.774-2.045 6.76-3.953 10.714-.92 1.223.938 2.254 2.061 3.219 3.25-13.836 3.31-28.062 5.802-42.001 7.254-9.156.955-18.368.988-27.503 1.855-9.396.894-19.227.826-28.592.1-9.34-.727-19.125.098-28.5.225-4.423.061-8.729-.562-13.162-.377a41 41 0 0 0-3.215.272 40 40 0 0 0-3.215-.272c-4.433-.185-8.739.438-13.162.377-9.375-.127-19.16-.951-28.5-.225-9.365.727-19.196.794-28.592-.1-9.136-.867-18.348-.9-27.503-1.855-18.517-1.93-37.541-5.689-55.481-10.771-4.26-1.206-8.47-2.049-12.647-3.593-3.753-1.388-7.208-3.297-10.999-4.579-5.626-1.905-19.522-5.535-17.551-14.27.631-2.785 3.639-5.008 5.76-6.713 5.294-4.256 15.329-6.24 20.527-1.066 1.393 1.386 3.776 1.41 5.168 0 3.819-3.867 9.274-7.197 14.475-3.5 3.459 2.459 6.762 7.433 11.647 5.026m-78.134-2.754c12.032-6.74 25.054-10.673 38.628-14.567 10.077-2.892 20.985-3.875 31.271-5.836 1.695-.324 3.434-.729 5.185-1.113-.72 1.507-1.208 3.129-1.579 4.807-.186.843-.521 5.318-.544 8.374-1.193-1.005-2.365-2.062-3.508-2.622-2.785-1.367-5.744-2.176-8.837-1.627-5.307.941-8.338 3.025-11.565 6.291-9.788-6.563-22.748-4.275-31.271 4.11-3.794 3.732-6.945 9.322-5.502 14.803.484 1.837 1.479 3.684 2.805 5.267 4.076 5.938 10.392 9.504 17.12 12.494 7.993 3.553 15.64 7.56 24.188 9.63 18.458 4.471 37.499 10.613 56.514 12.13 9.622.768 19.258 1.173 28.872 1.813 4.05.27 7.961.581 12.046.582 19.411.002 38.821-.148 58.231-.294 18.273-.138 36.744-1.061 54.891.712 5.229.511 10.406-.418 15.646-.418 4.084-.001 7.996-.313 12.046-.582 9.614-.64 19.25-1.045 28.872-1.813 19.016-1.517 38.056-7.659 56.514-12.13 8.548-2.07 16.194-6.077 24.188-9.63 6.123-2.721 23.411-10.617 19.578-19.662-1.697-4.003-5.444-5.14-8.909-7.166-6.779-3.966-13.77-5.865-21.35-8.016-4.498-1.277-9.153-2.1-13.759-2.896-4.23-.731-8.318-1.895-12.635-1.459-.049.005-.095.018-.144.024.333-.046 3.348-4.736 3.916-5.358 1.081-1.186 4.326-4.711 5.681-5.212 1.922-.71 7.617 1.015 9.717 1.542 3.203.802 6.359 1.415 9.582 2.088 5.619 1.176 10.806 3.443 16.265 4.893 8.371 2.223 15.966 6.373 23.386 10.732 6.854 4.026 13.709 6.324 18.133 13.546-2.135 18.709-24.171 24.292-39.351 30.813-7.786 3.346-16.586 5.231-24.808 7.212-9.411 2.267-18.588 4.87-28.155 6.635-17.628 3.251-35.556 6.137-53.461 7.542-8.427.662-16.987.949-25.373 1.849-4.25.456-8.629.681-12.918.736-3.555.046-6.992.763-10.526.693-9.298-.181-18.702-.595-27.986-.539-4.193.024-8.545.065-12.887.272-4.342-.207-8.693-.248-12.887-.272-9.285-.056-18.688.358-27.986.539-3.534.069-6.972-.647-10.526-.693-4.29-.056-8.667-.28-12.918-.736-8.386-.899-16.946-1.187-25.373-1.849-17.906-1.405-35.833-4.291-53.461-7.542-9.567-1.765-18.745-4.368-28.155-6.635-8.222-1.98-17.023-3.866-24.808-7.212-11.845-5.09-26.57-8.686-34.766-19.443-1.896-2.489-3.509-5.492-4.104-8.594-.932-4.856 2.863-6.771 6.459-9.488a90 90 0 0 1 10.318-6.725m462.225 88.319c-.455 7.197-1.091 14.381-1.181 21.593-.191 15.299-2.215 30.581-2.145 45.878.059 13.075-1.408 30.98-11.736 40.326-11.096 10.041-26.128 14.609-40.209 18.256-8.067 2.09-15.664 4.424-23.92 5.809-7.469 1.252-14.903 2.742-22.362 4.047-3.562.623-7.223.463-10.815 1.029a301 301 0 0 1-12.978 1.736c-8.055.912-16.144 1.527-24.2 2.406-31.422 3.43-62.929 6.082-94.471 8.295-31.542-2.213-63.049-4.865-94.471-8.295-8.057-.879-16.146-1.494-24.2-2.406a302 302 0 0 1-12.978-1.736c-3.592-.566-7.253-.406-10.815-1.029-7.459-1.305-14.893-2.795-22.362-4.047-8.256-1.385-15.854-3.719-23.92-5.809-14.081-3.646-29.113-8.215-40.209-18.256-10.328-9.346-11.795-27.251-11.736-40.326.07-15.297-1.953-30.579-2.145-45.878-.09-7.212-.727-14.396-1.181-21.593-.259-4.104-.886-8.104-.716-12.236.163-3.963.837-7.889 1.126-11.838.585-7.998.865-16.02 1.485-24.01.387-4.986.951-10.268 2.169-15.319.769 1.855 1.771 3.622 2.928 5.13 5.456 7.115 13.302 12.074 21.52 15.578 7.638 3.256 14.763 7.029 22.755 9.435 9.029 2.716 18.153 5.194 27.102 8.121 10.141 3.317 21.063 3.938 31.368 6.565 9.647 2.459 19.616 2.778 29.433 4.362 17.853 2.881 36.247 4.034 54.278 4.591 10.342.319 20.718 1.215 31.146.469 6.553-.469 13.009-.551 19.425-1.057 6.416.506 12.872.588 19.425 1.057 10.428.746 20.803-.149 31.145-.469 18.032-.557 36.426-1.71 54.279-4.591 9.817-1.584 19.785-1.903 29.433-4.362 10.304-2.627 21.227-3.248 31.368-6.565 8.948-2.927 18.073-5.405 27.102-8.121 7.992-2.405 15.117-6.179 22.755-9.435 8.218-3.504 16.064-8.463 21.521-15.578 1.156-1.508 2.158-3.274 2.927-5.13 1.218 5.052 1.782 10.333 2.168 15.319.621 7.99.9 16.012 1.485 24.01.289 3.949.964 7.875 1.127 11.838.166 4.132-.461 8.133-.72 12.236" data-original="#000000"/><path d="M274.476 306.13c-7.989-5.274-16.965-5.45-25.964-3.083-4.988 1.312-8.47 4.009-12.834 6.621-4.178 2.502-6.679 5.275-8.874 9.683-2.44 4.901-5.401 11.255-5.652 17.222a34 34 0 0 0-.096 5.266c1.102 18.837 24.751 30.572 41.601 27.525 8.922-1.613 19.064-6.845 24.017-14.629 4.622-7.264 6.132-17.832 4.621-26.235-1.66-9.227-9.221-17.353-16.819-22.37m4.09 43.865c-4.986 7.506-16.092 11.058-24.689 10.44-7.741-.557-16.922-5.514-21.304-11.979-5.541-8.174-2.39-19.339 3.491-26.297 2.798-3.311 6.11-5.907 9.596-8.309a88 88 0 0 1 1.278-.613c3.814-1.788 8.289-2.709 12.512-2.508 8.584.407 15.346 6.287 19.93 13.22 4.699 7.108 3.917 18.924-.814 26.046" data-original="#000000"/><path d="M260.913 322.602c-4.64-.803-10.581-.369-13.709 3.517a16.6 16.6 0 0 0-2.646 4.674c-2.499 3.544-3.246 8.072-.746 12.741 5.05 9.431 17.983 9.441 23.836 1.054 5.143-7.371 3.235-20.262-6.735-21.986m1.508 17.798c-3.146 4.561-9.951 4.867-13.131-.07-2.109-3.273-.091-7.43 2.898-10.199 1.54-1.211 3.303-1.514 5.864-1.371 3.108.172 5.284 1.049 5.751 4.393.332 2.371.005 5.236-1.382 7.247M123.628 212.95c2.618-.179 5.146-2.325 2.953-4.454 1.248-1.795 3.303-3.79 5.187-5.015 2.224-1.446 4.973-2.458 7.659-2.367 4.979.168 6.107 4.237 9.575 6.579 1.225.826 3.552.64 4.512-.583 2.42-3.083 1.233-6.063 1.06-9.782-.217-4.656-.184-10.084 2.166-14.248 2.737-4.85 8.933-8.625 13.837-4.454 3.577 3.042 4.051 7.534 6.699 11.022 1.075 1.416 3.047 2.397 4.75 1.246 3.46-2.341 7.892-10.348 11.133-3.818 3.083 6.209-.324 11.67-.344 17.93-.01 3.346 4.248 5.119 6.609 2.737 1.91-1.927 2.991-3.626 5.653-4.735 3.613-1.503 7.645-.439 9.228 3.242 1.587 3.69-.526 10.647 5.445 11.168 4.468.389 6.172-5.195 10.488-5.958 6.551-1.158 8.223 3.847 12.122 7.379.896.812 2.288.898 3.177 0 4.961-5.009-2.252-11.737-7.009-13.468-3.337-1.213-6.721-1.49-10.202-.849-1.934.356-3.916.847-5.618 1.862-.068.04-.14.1-.21.15-.352-2.01-.806-3.99-2.093-5.863-1.792-2.604-4.84-4.275-7.8-5.207-4.073-1.282-7.654-.539-10.918 1.141.281-1.766.468-3.549.325-5.383-.291-3.692-1.695-7.981-4.183-10.846-1.983-2.283-6.221-3.93-9.189-3.413-3.725.649-5.508 3.32-7.678 5.699-.79-1.517-1.512-3.13-2.507-4.438-1.547-2.034-3.167-3.776-5.297-5.222-4.628-3.141-10.192-2.916-15.016-.051-4.519 2.683-7.822 7.555-9.327 12.527-1.116 3.685-1.283 7.166-1.251 10.69-1.164-.786-2.417-1.444-3.754-1.841-4.757-1.41-10.047-.264-14.305 2.093-3.679 2.038-9.261 6.928-9.883 11.328-.573 4.047 1.75 5.356 4.006 5.202m96.042-101.567c1.179.596 2.452.87 3.75 1.048.55.075 1.241.214 1.792.142l.057-.008c-.981 6.563 1.187 13.013 7.476 16.227 12.939 6.611 28.061-6.592 30.021-19.207 1.17-7.532-.891-15.971-7.174-20.74-5.16-3.917-13.604-6.443-20.048-6.949-7.664-.601-15.671 5.542-19.326 11.879-2.238 3.883-3.685 11.721-.015 14.84a11 11 0 0 0 3.467 2.768m4.071-14.493c.334-.487.783-1.243 1.311-2.081 4.648-7.396 14.142-4.416 20.852-2.431 14.214 4.204 10.851 21.688.888 28.414-5.461 3.687-15.463 2.591-14.552-5.89.382-3.557 1.916-7.385-2.372-9.215-2.017-.861-4.218.118-6.206-.617-4.309-1.595-1.647-5.666.079-8.18m-64.166 8.727c1.57 1.751 3.735 2.865 6.085 3.072 1.228.107 2.44-.081 3.641-.34.941-.204 3.855-.516 3.354-1.363 1.161 1.34 1.717 4.521 2.808 5.818 1.428 1.697 3.633 2.719 5.873 2.579 4.934-.308 10.668-5.679 13.655-9.238 3.611-4.306 5.417-10.921 4.104-16.46-3.185-13.441-20.837-14.788-30.922-9.453-4.926 2.606-9.129 8.616-10.572 13.936-.332 1.223-.413 2.692-.251 4.194-.171 2.629.385 5.203 2.225 7.255m5.112-10.023c.043-.177.084-.354.146-.535 1.658-4.908 5.359-8.318 10.11-9.955 5.35-1.841 11.379-.71 15.184 3.689 3.487 4.031 1.43 10.164-1.831 13.693-1.427 1.545-3.058 3.254-4.79 4.455-2.38 1.65-2.965 1.623-4.147-.857-1.018-2.135-1.947-4.351-4.385-5.117-1.229-.386-2.619-.233-3.867-.076-2.568.324-4.686.77-5.8-.298-.464-1.294-.887-2.585-.781-4.02.036-.295.092-.626.161-.979" data-original="#000000"/></svg>