<svg xmlns="http://www.w3.org/2000/svg" xml:space="preserve" viewBox="0 0 512 512"><path d="M341 172.5h-10l-35 90 65-30v-40c0-11.046-8.954-20-20-20" style="fill:#a45e43"/><path d="M291 172.5c-11.046 0-20 8.954-20 20v40l60 30v-90z" style="fill:#c27749"/><path d="m331 202.5-45 75 30 60c24.853 0 45-20.147 45-45v-60c-16.57 0-30-13.43-30-30" style="fill:#2dade3"/><path d="M301 202.5c0 16.57-13.43 30-30 30v60c0 24.853 20.147 45 45 45 8.284 0 15-20.147 15-45v-90z" style="fill:#49c9ff"/><path d="M221 172.5h-30v120h50v-100c0-11.046-8.954-20-20-20" style="fill:#ff8d7e"/><path d="M191 172.5h-20c-11.046 0-20 8.954-20 20v100h60v-100c0-11.046-8.954-20-20-20" style="fill:#ffb4a9"/><path d="m504.5 292.5-60 45v-75h30c16.5 0 30 13.5 30 30" style="fill:#a8e5ff"/><path d="M474.5 292.5 256 397.5 7.5 292.5c0-16.5 13.5-30 30-30h407c16.5 0 30 13.5 30 30" style="fill:#dbf4ff"/><path d="M504.5 292.5v212h-30l-75-106 75-106z" style="fill:#e18f4e"/><path d="M474.5 292.5v212h-60l-158.5-45-158.5 45h-90v-212z" style="fill:#ffa754"/><path d="M384.5 354.5h-30l-30 60 60-30z" style="fill:#ffcb63"/><path d="M354.5 354.5h-227v30l227 30z" style="fill:#ffe2a8"/><path d="M384.5 384.5h-30l-75 60h105z" style="fill:#a45e43"/><path d="M127.5 384.5h227v60h-227z" style="fill:#c27749"/><path d="M414.5 429.5h-30l-30 60 60-30z" style="fill:#ffcb63"/><path d="M384.5 429.5h-287v30l287 30z" style="fill:#ffe2a8"/><path d="M414.5 459.5h-30l-30 22.5 30 22.5h30z" style="fill:#a45e43"/><path d="M97.5 459.5h287v45h-287z" style="fill:#c27749"/><circle cx="53.5" cy="338.5" r="16" style="fill:#4f4f4f"/><circle cx="458.5" cy="338.5" r="16" style="fill:#4f4f4f"/><path d="M343.5 22.5c0-8.284-6.716-15-15-15-5.22 0-9.813 2.67-12.5 6.715-2.687-4.045-7.28-6.715-12.5-6.715-8.284 0-15 6.716-15 15-8.284 0-15 6.716-15 15s6.716 15 15 15h55c8.284 0 15-6.716 15-15s-6.716-15-15-15" style="fill:#60312c"/><path d="M316 52.5v90c24.853 0 45-20.147 45-45s-20.147-45-45-45" style="fill:#a45e43"/><path d="M331 97.5c0-24.853-6.716-45-15-45-24.853 0-45 20.147-45 45s20.147 45 45 45c8.284 0 15-20.147 15-45" style="fill:#c27749"/><path d="M223 61.5h-27v81c24.85 0 45-20.15 45-45 0-14.72-7.07-27.8-18-36" style="fill:#ff8d7e"/><path d="M209.2 76.14c1.15 6.36 1.8 13.63 1.8 21.36 0 24.85-6.72 45-15 45-24.85 0-45-20.15-45-45z" style="fill:#ffb4a9"/><path d="M223 61.5a90.3 90.3 0 0 1-13.8 14.64L196 52.5a44.82 44.82 0 0 1 27 9" style="fill:#ffcb63"/><path d="M151 97.5c0-24.85 20.15-45 45-45 5.7 0 10.67 9.56 13.2 23.64C193.51 89.46 173.19 97.5 151 97.5" style="fill:#ffe2a8"/><path d="M474.5 255h-106v-55.286c50.271-3.842 90-45.976 90-97.214 0-4.143-3.357-7.5-7.5-7.5s-7.5 3.357-7.5 7.5c0 43.343-33.605 78.961-76.125 82.229C364.013 173.339 353.465 165 341 165h-50c-15.163 0-27.5 12.337-27.5 27.5V255h-15v-62.5c0-15.163-12.337-27.5-27.5-27.5h-50c-12.465 0-23.013 8.339-26.375 19.729-42.52-3.268-76.125-38.886-76.125-82.229 0-4.143-3.357-7.5-7.5-7.5s-7.5 3.357-7.5 7.5c0 51.238 39.729 93.372 90 97.214V255h-106C16.822 255 0 271.822 0 292.5v212c0 4.143 3.357 7.5 7.5 7.5h497c4.143 0 7.5-3.357 7.5-7.5v-212c0-20.678-16.822-37.5-37.5-37.5m-121-62.5v31.21c-8.729-3.096-15-11.433-15-21.21V180h2.5c6.893 0 12.5 5.607 12.5 12.5m-45 2.5v-15h15v15zM291 180h2.5v22.5c0 9.777-6.271 18.114-15 21.21V192.5c0-6.893 5.607-12.5 12.5-12.5m-12.5 59.245c14.672-2.99 26.255-14.573 29.245-29.245h16.509c2.99 14.672 14.573 26.255 29.245 29.245V255h-75zm-120-46.745c0-6.893 5.607-12.5 12.5-12.5h50c6.893 0 12.5 5.607 12.5 12.5V255h-75zM37.5 270h437c9.777 0 18.114 6.271 21.21 15H16.29c3.096-8.729 11.433-15 21.21-15M377 377H135v-15h242zm-242 15h242v30H135zm272 45v15H105v-15zm-302 30h302v30H105zm317 30v-67.5c0-4.143-3.357-7.5-7.5-7.5H392v-67.5c0-4.143-3.357-7.5-7.5-7.5h-257a7.5 7.5 0 0 0-7.5 7.5V422H97.5a7.5 7.5 0 0 0-7.5 7.5V497H15V300h482v197z"/><path d="M53.5 315C40.542 315 30 325.542 30 338.5S40.542 362 53.5 362 77 351.458 77 338.5 66.458 315 53.5 315m0 32c-4.687 0-8.5-3.813-8.5-8.5s3.813-8.5 8.5-8.5 8.5 3.813 8.5 8.5-3.813 8.5-8.5 8.5m405-32c-12.958 0-23.5 10.542-23.5 23.5s10.542 23.5 23.5 23.5 23.5-10.542 23.5-23.5-10.542-23.5-23.5-23.5m0 32c-4.687 0-8.5-3.813-8.5-8.5s3.813-8.5 8.5-8.5 8.5 3.813 8.5 8.5-3.813 8.5-8.5 8.5m-195-249.5c0 28.948 23.552 52.5 52.5 52.5s52.5-23.552 52.5-52.5c0-15.395-6.662-29.263-17.253-38.875C359.848 55.461 366 47.185 366 37.5c0-10.136-6.736-18.728-15.967-21.533C347.228 6.736 338.636 0 328.5 0A22.45 22.45 0 0 0 316 3.789 22.45 22.45 0 0 0 303.5 0c-10.136 0-18.728 6.736-21.533 15.967C272.736 18.772 266 27.364 266 37.5c0 9.685 6.152 17.961 14.753 21.125C270.162 68.237 263.5 82.105 263.5 97.5m90 0c0 20.678-16.822 37.5-37.5 37.5s-37.5-16.822-37.5-37.5S295.322 60 316 60s37.5 16.822 37.5 37.5m-65-52.5c-4.136 0-7.5-3.364-7.5-7.5s3.364-7.5 7.5-7.5c4.143 0 7.5-3.357 7.5-7.5 0-4.136 3.364-7.5 7.5-7.5a7.5 7.5 0 0 1 6.252 3.364 7.5 7.5 0 0 0 12.496 0A7.5 7.5 0 0 1 328.5 15c4.136 0 7.5 3.364 7.5 7.5 0 4.143 3.357 7.5 7.5 7.5 4.136 0 7.5 3.364 7.5 7.5s-3.364 7.5-7.5 7.5zM196 150c28.948 0 52.5-23.552 52.5-52.5S224.948 45 196 45s-52.5 23.552-52.5 52.5S167.052 150 196 150m37.5-52.5c0 20.678-16.822 37.5-37.5 37.5-18.229 0-33.454-13.076-36.806-30.34 25.031-2.055 47.915-13.496 64.607-32.299 6.024 6.656 9.699 15.476 9.699 25.139M196 60a37.3 37.3 0 0 1 15.646 3.433c-13.718 14.935-32.144 24.147-52.297 26.147C162.995 72.694 178.04 60 196 60"/><circle cx="391" cy="232.5" r="7.5"/><circle cx="421" cy="217.5" r="7.5"/><circle cx="451" cy="232.5" r="7.5"/><circle cx="121" cy="232.5" r="7.5"/><circle cx="91" cy="217.5" r="7.5"/><circle cx="61" cy="232.5" r="7.5"/></svg>