<svg xmlns="http://www.w3.org/2000/svg" width="682.667" height="682.667" viewBox="0 0 682.667 682.667"><defs><clipPath id="b" clipPathUnits="userSpaceOnUse"><path d="M0 512h512V0H0Z"/></clipPath></defs><mask id="a"><rect width="100%" height="100%" fill="#fff"/><path d="M0 0a7.5 7.5 0 1 0-15 0A7.5 7.5 0 0 0 0 0" style="fill:#fff;fill-opacity:1;fill-rule:nonzero;stroke:none" transform="matrix(1.33333 0 0 -1.33333 531.333 310)"/><path d="M0 0a7.5 7.5 0 1 0-15 0A7.5 7.5 0 0 0 0 0" style="fill:#fff;fill-opacity:1;fill-rule:nonzero;stroke:none" transform="matrix(1.33333 0 0 -1.33333 571.333 290)"/><path d="M0 0a7.5 7.5 0 1 0-15 0A7.5 7.5 0 0 0 0 0" style="fill:#fff;fill-opacity:1;fill-rule:nonzero;stroke:none" transform="matrix(1.33333 0 0 -1.33333 611.333 310)"/><path d="M0 0a7.5 7.5 0 1 1 15 0A7.5 7.5 0 0 1 0 0" style="fill:#fff;fill-opacity:1;fill-rule:nonzero;stroke:none" transform="matrix(1.33333 0 0 -1.33333 151.334 310)"/><path d="M0 0a7.5 7.5 0 1 1 15 0A7.5 7.5 0 0 1 0 0" style="fill:#fff;fill-opacity:1;fill-rule:nonzero;stroke:none" transform="matrix(1.33333 0 0 -1.33333 111.334 290)"/><path d="M0 0a7.5 7.5 0 1 1 15 0A7.5 7.5 0 0 1 0 0" style="fill:#fff;fill-opacity:1;fill-rule:nonzero;stroke:none" transform="matrix(1.33333 0 0 -1.33333 71.334 310)"/></mask><g mask="url(#a)"><g clip-path="url(#b)" transform="matrix(1.33333 0 0 -1.33333 0 682.667)"><path d="M0 0c49.706 0 90 40.294 90 90" style="fill:none;stroke:#000;stroke-width:15;stroke-linecap:round;stroke-linejoin:round;stroke-miterlimit:10;stroke-dasharray:none;stroke-opacity:1" transform="translate(361 319.5)"/><path d="M0 0v70c0 11.046-8.954 20-20 20h-50c-11.046 0-20-8.954-20-20V0" style="fill:none;stroke:#000;stroke-width:15;stroke-linecap:round;stroke-linejoin:round;stroke-miterlimit:10;stroke-dasharray:none;stroke-opacity:1" transform="translate(361 249.5)"/><path d="M0 0v-30c0-16.57-13.43-30-30-30" style="fill:none;stroke:#000;stroke-width:15;stroke-linecap:round;stroke-linejoin:round;stroke-miterlimit:10;stroke-dasharray:none;stroke-opacity:1" transform="translate(301 339.5)"/><path d="M0 0h-30" style="fill:none;stroke:#000;stroke-width:15;stroke-linecap:round;stroke-linejoin:round;stroke-miterlimit:10;stroke-dasharray:none;stroke-opacity:1" transform="translate(331 309.5)"/><path d="M0 0v-30c0-16.57 13.43-30 30-30" style="fill:none;stroke:#000;stroke-width:15;stroke-linecap:round;stroke-linejoin:round;stroke-miterlimit:10;stroke-dasharray:none;stroke-opacity:1" transform="translate(331 339.5)"/><path d="M0 0c0-49.706 40.294-90 90-90" style="fill:none;stroke:#000;stroke-width:15;stroke-linecap:round;stroke-linejoin:round;stroke-miterlimit:10;stroke-dasharray:none;stroke-opacity:1" transform="translate(61 409.5)"/><path d="M0 0v70c0 11.046-8.954 20-20 20h-50c-11.046 0-20-8.954-20-20V0" style="fill:none;stroke:#000;stroke-width:15;stroke-linecap:round;stroke-linejoin:round;stroke-miterlimit:10;stroke-dasharray:none;stroke-opacity:1" transform="translate(241 249.5)"/><path d="M0 0h-437c-16.5 0-30-13.5-30-30v-212H30v212C30-13.5 16.5 0 0 0" style="fill:none;stroke:#000;stroke-width:15;stroke-linecap:round;stroke-linejoin:round;stroke-miterlimit:10;stroke-dasharray:none;stroke-opacity:1" transform="translate(474.5 249.5)"/><path d="M0 0v-75M0 0h-317v-75" style="fill:none;stroke:#000;stroke-width:15;stroke-linecap:round;stroke-linejoin:round;stroke-miterlimit:10;stroke-dasharray:none;stroke-opacity:1" transform="translate(414.5 82.5)"/><path d="M0 0h317" style="fill:none;stroke:#000;stroke-width:15;stroke-linecap:round;stroke-linejoin:round;stroke-miterlimit:10;stroke-dasharray:none;stroke-opacity:1" transform="translate(97.5 52.5)"/><path d="M0 0v75h257V0" style="fill:none;stroke:#000;stroke-width:15;stroke-linecap:round;stroke-linejoin:round;stroke-miterlimit:10;stroke-dasharray:none;stroke-opacity:1" transform="translate(127.5 82.5)"/><path d="M0 0h257" style="fill:none;stroke:#000;stroke-width:15;stroke-linecap:round;stroke-linejoin:round;stroke-miterlimit:10;stroke-dasharray:none;stroke-opacity:1" transform="translate(127.5 127.5)"/><path d="M0 0h497" style="fill:none;stroke:#000;stroke-width:15;stroke-linecap:round;stroke-linejoin:round;stroke-miterlimit:10;stroke-dasharray:none;stroke-opacity:1" transform="translate(7.5 219.5)"/><path d="M0 0c0-8.837-7.163-16-16-16S-32-8.837-32 0s7.163 16 16 16S0 8.837 0 0" style="fill:none;stroke:#000;stroke-width:15;stroke-linecap:round;stroke-linejoin:round;stroke-miterlimit:10;stroke-dasharray:none;stroke-opacity:1" transform="translate(69.5 173.5)"/><path d="M0 0c0-8.837-7.163-16-16-16S-32-8.837-32 0s7.163 16 16 16S0 8.837 0 0" style="fill:none;stroke:#000;stroke-width:15;stroke-linecap:round;stroke-linejoin:round;stroke-miterlimit:10;stroke-dasharray:none;stroke-opacity:1" transform="translate(474.5 173.5)"/><path d="M0 0c0 8.284-6.716 15-15 15-5.22 0-9.813-2.67-12.5-6.715C-30.187 12.33-34.78 15-40 15c-8.284 0-15-6.716-15-15-8.284 0-15-6.716-15-15s6.716-15 15-15H0c8.284 0 15 6.716 15 15S8.284 0 0 0" style="fill:none;stroke:#000;stroke-width:15;stroke-linecap:round;stroke-linejoin:round;stroke-miterlimit:10;stroke-dasharray:none;stroke-opacity:1" transform="translate(343.5 489.5)"/><path d="M0 0c0-24.853-20.147-45-45-45S-90-24.853-90 0s20.147 45 45 45S0 24.853 0 0" style="fill:none;stroke:#000;stroke-width:15;stroke-linecap:round;stroke-linejoin:round;stroke-miterlimit:10;stroke-dasharray:none;stroke-opacity:1" transform="translate(361 414.5)"/><path d="M0 0c0-24.853 20.147-45 45-45S90-24.853 90 0 69.853 45 45 45 0 24.853 0 0" style="fill:none;stroke:#000;stroke-width:15;stroke-linecap:round;stroke-linejoin:round;stroke-miterlimit:10;stroke-dasharray:none;stroke-opacity:1" transform="translate(151 414.5)"/><path d="M0 0c-16.42-21.858-42.559-35.998-72.003-35.998" style="fill:none;stroke:#000;stroke-width:15;stroke-linecap:round;stroke-linejoin:round;stroke-miterlimit:10;stroke-dasharray:none;stroke-opacity:1" transform="translate(223.003 450.498)"/><path d="M0 0a7.5 7.5 0 1 0-15 0A7.5 7.5 0 0 0 0 0" style="fill:#000;fill-opacity:1;fill-rule:nonzero;stroke:none" transform="translate(398.5 279.5)"/><path d="M0 0a7.5 7.5 0 1 0-15 0A7.5 7.5 0 0 0 0 0" style="fill:#000;fill-opacity:1;fill-rule:nonzero;stroke:none" transform="translate(428.5 294.5)"/><path d="M0 0a7.5 7.5 0 1 0-15 0A7.5 7.5 0 0 0 0 0" style="fill:#000;fill-opacity:1;fill-rule:nonzero;stroke:none" transform="translate(458.5 279.5)"/><path d="M0 0a7.5 7.5 0 1 1 15 0A7.5 7.5 0 0 1 0 0" style="fill:#000;fill-opacity:1;fill-rule:nonzero;stroke:none" transform="translate(113.5 279.5)"/><path d="M0 0a7.5 7.5 0 1 1 15 0A7.5 7.5 0 0 1 0 0" style="fill:#000;fill-opacity:1;fill-rule:nonzero;stroke:none" transform="translate(83.5 294.5)"/><path d="M0 0a7.5 7.5 0 1 1 15 0A7.5 7.5 0 0 1 0 0" style="fill:#000;fill-opacity:1;fill-rule:nonzero;stroke:none" transform="translate(53.5 279.5)"/></g></g></svg>