<svg xmlns="http://www.w3.org/2000/svg" width="512" height="512" viewBox="0 0 512 512"><path fill="#eef5f6" d="M181.498 73.954a7.61 7.61 0 0 1-7.611-7.612c0-8.128 4.454-12.424 7.402-15.267 2.439-2.353 2.747-2.836 2.747-4.311s-.308-1.958-2.747-4.311c-2.947-2.843-7.402-7.139-7.402-15.267s4.454-12.424 7.402-15.267c2.439-2.352 2.747-2.835 2.747-4.309a7.61 7.61 0 1 1 15.222 0c0 8.127-4.454 12.423-7.402 15.266-2.439 2.352-2.747 2.835-2.747 4.309s.308 1.958 2.747 4.311c2.947 2.843 7.402 7.139 7.402 15.267s-4.454 12.424-7.402 15.267c-2.439 2.353-2.747 2.836-2.747 4.311a7.61 7.61 0 0 1-7.611 7.613m69.428 0a7.61 7.61 0 0 1-7.611-7.612c0-8.128 4.454-12.424 7.402-15.267 2.439-2.353 2.747-2.836 2.747-4.311s-.308-1.958-2.747-4.311c-2.947-2.843-7.402-7.139-7.402-15.267s4.454-12.424 7.402-15.267c2.439-2.352 2.747-2.835 2.747-4.309a7.612 7.612 0 0 1 15.223 0c0 8.127-4.454 12.423-7.402 15.266-2.438 2.352-2.746 2.835-2.746 4.309s.308 1.958 2.747 4.311c2.948 2.843 7.401 7.139 7.401 15.267s-4.454 12.424-7.401 15.267c-2.439 2.353-2.747 2.836-2.747 4.311a7.615 7.615 0 0 1-7.613 7.613m69.427 0a7.61 7.61 0 0 1-7.612-7.612c0-8.128 4.454-12.424 7.401-15.267 2.439-2.353 2.747-2.836 2.747-4.311s-.308-1.958-2.747-4.311c-2.948-2.843-7.401-7.139-7.401-15.267s4.455-12.424 7.402-15.267c2.438-2.352 2.746-2.835 2.746-4.309a7.61 7.61 0 0 1 7.612-7.611 7.61 7.61 0 0 1 7.612 7.611c0 8.127-4.454 12.423-7.402 15.266-2.438 2.352-2.746 2.835-2.746 4.309s.308 1.958 2.747 4.311c2.947 2.843 7.401 7.139 7.401 15.267s-4.454 12.424-7.401 15.267c-2.439 2.353-2.747 2.836-2.747 4.311a7.613 7.613 0 0 1-7.612 7.613"/><path fill="#c68d7a" d="M449.058 512H425.3l-179.449-18.066L86.7 512H42.644c-5.605 0-10.149-4.544-10.149-10.149V198.755h426.711v303.096c.001 5.605-4.543 10.149-10.148 10.149"/><path fill="#aa6a51" d="M449.058 198.755v303.096c0 5.605-4.544 10.149-10.149 10.149h30.446c5.605 0 10.149-4.544 10.149-10.149V198.755zm-349.673 7.919v295.177h15.223V206.674c0-3.431-1.635-6.409-4.035-7.919h-7.153c-2.4 1.509-4.035 4.488-4.035 7.919m149.003 0V512h15.223V206.674c0-3.431-1.635-6.409-4.035-7.919h-7.153c-2.4 1.509-4.035 4.488-4.035 7.919m149.004 0v295.177h15.223V206.674c0-3.431-1.635-6.409-4.035-7.919h-7.153c-2.401 1.509-4.035 4.488-4.035 7.919"/><path fill="#ffe177" d="M492.971 218.796H8.88a5.074 5.074 0 0 1-5.074-5.074v-29.933a5.074 5.074 0 0 1 5.074-5.074h484.091a5.074 5.074 0 0 1 5.074 5.074v29.933a5.073 5.073 0 0 1-5.074 5.074"/><path fill="#ffc344" d="M503.12 178.714h-30.446a5.074 5.074 0 0 1 5.074 5.074v29.933a5.074 5.074 0 0 1-5.074 5.074h30.446a5.074 5.074 0 0 0 5.074-5.074v-29.933a5.074 5.074 0 0 0-5.074-5.074"/><path fill="#deecf1" d="M337.306 369.469h-182.91c-5.605 0-10.149 4.544-10.149 10.149v71.341h223.504l-20.297-71.341c.001-5.606-4.543-10.149-10.148-10.149"/><path fill="#cbe5e8" d="M357.603 369.468h-30.446c5.605 0 10.149 4.544 10.149 10.149v71.341h30.446v-71.341c0-5.605-4.544-10.149-10.149-10.149"/><path fill="#eef5f6" d="M394.854 430.51H96.848c-5.605 0-10.149 4.544-10.149 10.149V512h318.303v-71.341c.001-5.605-4.543-10.149-10.148-10.149"/><path fill="#deecf1" d="M415.152 430.51h-30.446c5.605 0 10.149 4.544 10.149 10.149V512H425.3v-71.341c0-5.605-4.544-10.149-10.148-10.149"/><path fill="#99e6fc" d="M188.303 301.53h-98.26c-5.605 0-10.149-4.544-10.149-10.149V164.734c0-8.407 6.816-15.223 15.223-15.223h88.111c8.407 0 15.223 6.816 15.223 15.223v126.647c.001 5.605-4.543 10.149-10.148 10.149"/><path fill="#01d0fb" d="M193.378 149.511h-30.446c8.407 0 15.223 6.815 15.223 15.223v126.647c0 5.605-4.544 10.149-10.149 10.149h30.446c5.605 0 10.149-4.544 10.149-10.149V164.734c0-8.407-6.816-15.223-15.223-15.223"/></svg>