<svg xmlns="http://www.w3.org/2000/svg" width="512" height="512" viewBox="0 0 512 512"><g fill-rule="evenodd" clip-rule="evenodd"><path fill="#efc7a4" d="M34.161 296.159h443.677V429.94c0 36.475-99.32 66.044-221.839 66.044s-221.838-29.57-221.838-66.045z"/><ellipse cx="256" cy="296.159" fill="#d5a889" rx="221.839" ry="66.044"/><path fill="#e4e8eb" d="M82.812 302.566c50.144 22.061 119.451 27.39 173.188 27.39s123.045-5.329 173.188-27.39c5.548-2.441 5.548-10.373 0-12.814-50.144-22.061-119.451-27.39-173.188-27.39s-123.045 5.329-173.188 27.39c-5.548 2.441-5.548 10.373 0 12.814"/><ellipse cx="267.715" cy="142.653" fill="#efc7a4" rx="37.383" ry="37.384" transform="rotate(-45 267.71 142.713)"/><path fill="#66d4f1" d="m317.274 203.059 54.32 14.071c5.052 1.309 8.87 4.973 10.583 9.51l20.305 53.814c3.01 7.992-1.03 16.91-9.021 19.92s-16.91-1.03-19.92-9.021l-17.467-46.325-44.034-11.407c-2.236 25.66-4.461 51.322-6.689 76.983-32.316 2.063-65.315 1.764-97.562-1.084 2.366-27.251 4.728-54.501 7.102-81.751l-50.539 14.142-57.404 42.538c-6.855 5.083-16.533 3.646-21.615-3.209-5.083-6.855-3.646-16.533 3.209-21.615l59.701-44.24c6.009-4.455 53.489-16.027 64.144-19.008 10.928-3.019 95.516 4.255 104.887 6.682"/><path d="M237.332 142.673c0 16.749 13.63 30.379 30.389 30.379 16.749 0 30.379-13.63 30.379-30.379s-13.63-30.384-30.379-30.384c-16.759 0-30.389 13.635-30.389 30.384m-14.002 0c0-24.47 19.911-44.381 44.39-44.381 24.47 0 44.381 19.911 44.381 44.381s-19.911 44.381-44.381 44.381c-24.479 0-44.39-19.911-44.39-44.381m203.099 153.538a.07.07 0 0 0-.047-.019c0 .01-.014.038-.023.061v-.141a.4.4 0 0 0 .07.099m44.409-.029c0-15.291-27.537-31.743-71.208-43.101l8.06 21.36c7.057 2.221 16.151 5.331 24.319 8.92 5.161 2.268 8.361 7.18 8.361 12.82 0 5.627-3.209 10.539-8.361 12.812-52.567 23.129-124.73 27.975-176.008 27.975-51.283 0-123.441-4.846-176.013-27.975-5.147-2.273-8.356-7.184-8.356-12.812 0-5.171 2.696-9.72 7.118-12.19-3.67-5.839-4.342-12.84-2.282-19.041-22.532 9.612-35.31 20.659-35.31 31.231 0 13.861 22.423 28.808 59.968 39.991 41.271 12.28 96.275 19.05 154.874 19.05s113.598-6.77 154.869-19.05c37.55-11.182 59.969-26.129 59.969-39.99m0 133.778c0 13.861-22.419 28.812-59.968 39.991-41.271 12.28-96.27 19.05-154.869 19.05s-113.603-6.77-154.874-19.05c-37.545-11.179-59.968-26.131-59.968-39.991V322.633c11.659 10.247 30.459 19.36 55.978 26.949 42.532 12.67 98.952 19.638 158.864 19.638 59.911 0 116.327-6.968 158.859-19.638 25.519-7.589 44.319-16.702 55.978-26.949zm-115.64-167.389c-12.209-1.929-25.006-3.491-38.25-4.639.452-5.152.903-10.299 1.341-15.441l32.52 8.422zm-148.161-25.317c-.579 6.62-1.148 13.24-1.717 19.859-21.101 1.496-41.04 3.957-59.61 7.349l21.769-16.143zM85.638 296.173c1.863-.824 3.9-1.661 6.069-2.512.894.254 1.802.461 2.743.602a22.32 22.32 0 0 0 16.669-4.173l6.902-5.109a231 231 0 0 1 5.909-1.571c23.91-5.904 50.85-9.988 80.156-12.167-.536 6.239-1.087 12.477-1.628 18.711l-1.642 18.979a6.995 6.995 0 0 0 6.352 7.579c18.132 1.6 37.15 2.409 56.538 2.409 14.242 0 28.403-.438 42.094-1.308 3.449-.221 6.229-2.94 6.516-6.38l1.261-14.43 2.16-24.931c15.813 1.378 30.953 3.35 45.171 5.848l6.079 16.123a22.3 22.3 0 0 0 11.762 12.538c4.3 1.948 9 2.47 13.55 1.567C347.387 320.072 295.422 322.97 256 322.97c-49.913.002-119.959-4.637-170.362-26.797m-.07-.033c.024.009.033.023.052.023 0-.014.009-.043.019-.052v.141a.3.3 0 0 0-.071-.112m310.359 10.802c-.099.038-.198.061-.296.099 10.779-3.039 21.12-6.629 30.727-10.859-5.288-2.329-11.019-4.451-16.26-6.22-1.378 7.491-6.539 14.11-14.171 16.98M92.71 265.272l59.62-44.193c4.681-2.997 38.189-11.72 50.808-14.994 4.921-1.285 8.812-2.305 11.113-2.941 9.179-2.442 92.408 4.418 101.267 6.709l54.322 14.067a8.5 8.5 0 0 1 5.792 5.213l20.297 53.809c1.651 4.366-.569 9.259-4.94 10.901-2.108.8-4.408.715-6.469-.212a8.42 8.42 0 0 1-4.427-4.728l-17.469-46.324a7.01 7.01 0 0 0-4.794-4.309l-44.037-11.409a7.04 7.04 0 0 0-5.792 1.058 7 7 0 0 0-2.931 5.114c-1.816 20.847-3.627 41.708-5.439 62.56l-.729 8.398a656 656 0 0 1-35.192.927c-16.51 0-32.727-.598-48.338-1.779l1.04-11.979c1.821-20.922 3.632-41.84 5.462-62.772a7.03 7.03 0 0 0-2.512-5.989 7.02 7.02 0 0 0-6.347-1.36l-50.544 14.152a7 7 0 0 0-2.287 1.11l-57.403 42.536a8.34 8.34 0 0 1-6.281 1.572 8.4 8.4 0 0 1-5.538-3.317c-2.783-3.751-1.992-9.049 1.748-11.82m392.13 30.91c0-24.493-32.36-45.378-91.199-58.98l-4.912-13.023a22.51 22.51 0 0 0-15.38-13.809l-54.322-14.067c-8.878-2.301-95.066-10.369-108.526-6.653-2.202.621-6.032 1.614-10.882 2.879-32.976 8.572-50.619 13.602-55.541 17.253l-42.988 31.847c-48.361 13.71-73.927 32.562-73.927 54.552V429.96c0 21.313 24.197 39.78 69.975 53.414 42.532 12.656 98.952 19.629 158.864 19.629 59.911 0 116.327-6.972 158.859-19.629 45.778-13.635 69.98-32.101 69.98-53.414V296.182zm-74.779-150.3a7 7 0 0 0 5.839 3.129 6.9 6.9 0 0 0 3.872-1.181c3.218-2.136 4.089-6.479 1.948-9.697-16.58-24.912-9.118-38.528.31-55.771 9.819-17.94 20.951-38.279-.31-70.239a7.005 7.005 0 0 0-9.711-1.953c-3.218 2.141-4.088 6.493-1.948 9.711 16.58 24.903 9.118 38.519-.31 55.762-9.82 17.949-20.952 38.288.31 70.239m80.66-63.52c9.819-17.94 20.951-38.279-.311-70.239-2.141-3.223-6.492-4.093-9.701-1.953-3.218 2.141-4.098 6.493-1.948 9.711 16.57 24.903 9.118 38.519-.32 55.762-9.824 17.949-20.951 38.288.32 70.239a6.98 6.98 0 0 0 9.701 1.948c3.218-2.136 4.088-6.479 1.948-9.697-16.571-24.912-9.123-38.528.311-55.771M31.288 148.94a6.98 6.98 0 0 0 1.953-9.697c-16.57-24.912-9.123-38.533.32-55.771 9.819-17.94 20.946-38.279-.32-70.239a6.993 6.993 0 0 0-9.702-1.952c-3.218 2.141-4.088 6.492-1.948 9.711 16.566 24.898 9.118 38.519-.311 55.757-9.823 17.953-20.951 38.293.311 70.243a6.99 6.99 0 0 0 5.829 3.129 6.85 6.85 0 0 0 3.868-1.181m58.994-3.058a6.99 6.99 0 0 0 5.839 3.129 6.87 6.87 0 0 0 3.867-1.181 6.986 6.986 0 0 0 1.952-9.697c-16.58-24.912-9.123-38.528.311-55.771 9.819-17.94 20.946-38.279-.311-70.239-2.14-3.223-6.492-4.093-9.71-1.952s-4.093 6.493-1.948 9.711c16.575 24.903 9.118 38.519-.31 55.762-9.824 17.948-20.951 38.287.31 70.238m68.38-69.133c9.438-17.239 16.886-30.859.32-55.757-2.145-3.218-1.27-7.57 1.948-9.711s7.561-1.271 9.702 1.952c21.266 31.96 10.139 52.299.306 70.239-9.428 17.238-16.876 30.859-.306 55.771 2.136 3.218 1.27 7.561-1.952 9.697a6.9 6.9 0 0 1-3.868 1.181 6.98 6.98 0 0 1-5.829-3.129c-21.276-31.951-10.145-52.29-.321-70.243"/></g></svg>