<svg xmlns="http://www.w3.org/2000/svg" xml:space="preserve" viewBox="0 0 511.998 511.998"><path d="M311.521 204.967c-2.18-3.505-6.798-4.58-10.316-2.413-.904.557-22.398 13.504-43.608.46-23.244-14.294-43.943-9.051-55.562.625a7.5 7.5 0 1 0 9.598 11.527c3.696-3.078 17.365-12.13 38.106.625 9.777 6.014 19.512 8.036 28.194 8.036 17.307 0 30.413-8.046 31.224-8.555 3.497-2.197 4.547-6.799 2.364-10.305M259.868 27.849c.022-1.569.339-1.977 2.012-3.876 2.252-2.555 5.653-6.416 5.756-13.577a7.5 7.5 0 0 0-7.392-7.606l-.109-.001a7.5 7.5 0 0 0-7.497 7.393c-.022 1.569-.339 1.977-2.012 3.875-2.251 2.554-5.652 6.415-5.756 13.577-.103 7.161 3.187 11.118 5.364 13.736 1.618 1.946 1.922 2.362 1.899 3.93s-.339 1.976-2.012 3.875c-2.251 2.555-5.653 6.415-5.756 13.576a7.5 7.5 0 0 0 7.501 7.607 7.5 7.5 0 0 0 7.497-7.393c.022-1.568.339-1.975 2.012-3.874 2.251-2.554 5.652-6.415 5.756-13.576.103-7.161-3.187-11.118-5.364-13.736-1.618-1.946-1.922-2.362-1.899-3.93m131.709 21.63c0-1.569.31-1.981 1.956-3.903 2.214-2.587 5.561-6.497 5.561-13.659 0-4.142-3.357-7.5-7.5-7.5s-7.5 3.358-7.5 7.5c0 1.569-.31 1.981-1.956 3.904-2.214 2.586-5.561 6.496-5.561 13.658s3.347 11.071 5.561 13.658c1.646 1.922 1.956 2.334 1.956 3.903s-.31 1.979-1.955 3.901c-2.215 2.587-5.562 6.496-5.562 13.658 0 4.142 3.357 7.5 7.5 7.5s7.5-3.358 7.5-7.5c0-1.568.31-1.98 1.956-3.902 2.214-2.586 5.561-6.495 5.561-13.657s-3.347-11.071-5.561-13.658c-1.646-1.922-1.956-2.334-1.956-3.903m-263.671 0c0-1.569.31-1.981 1.956-3.903 2.214-2.587 5.561-6.497 5.561-13.659 0-4.142-3.357-7.5-7.5-7.5s-7.5 3.358-7.5 7.5c0 1.569-.31 1.981-1.956 3.904-2.214 2.586-5.561 6.496-5.561 13.658s3.347 11.071 5.561 13.658c1.646 1.922 1.956 2.334 1.956 3.903s-.31 1.979-1.955 3.901c-2.215 2.587-5.562 6.496-5.562 13.658 0 4.142 3.357 7.5 7.5 7.5s7.5-3.358 7.5-7.5c0-1.568.31-1.98 1.956-3.902 2.214-2.586 5.561-6.495 5.561-13.657s-3.347-11.071-5.561-13.658c-1.646-1.922-1.956-2.334-1.956-3.903"/><path d="M511.76 396.246c-1.364-13.592-9.187-25.831-22.91-35.758v-101.76c12.827-9.991 19.875-22.154 20.582-35.762q.068-.5.068-1.019v-30.755c0-.59-.075-1.161-.204-1.711-1.608-16.869-13.092-31.406-33.472-42.234-13.633-7.244-32.275-13.553-55.411-18.752-44.261-9.946-102.65-15.424-164.413-15.424s-120.152 5.478-164.413 15.424c-23.136 5.199-41.778 11.508-55.41 18.751-20.381 10.828-31.865 25.365-33.473 42.234a7.5 7.5 0 0 0-.204 1.711v30.755q0 .515.068 1.011c.705 13.611 7.753 25.777 20.582 35.769v101.759C9.427 370.413 1.604 382.652.24 396.244A7.5 7.5 0 0 0 0 398.1v31.068q0 .52.069 1.021c.924 17.826 12.633 33.202 33.909 44.506 13.766 7.314 32.592 13.686 55.955 18.936 44.705 10.046 103.682 15.579 166.066 15.579s121.36-5.533 166.066-15.579c23.363-5.25 42.189-11.621 55.955-18.936 21.277-11.305 32.986-26.682 33.91-44.509a8 8 0 0 0 .068-1.018V398.1a7.4 7.4 0 0 0-.238-1.854M17.53 192.526c.011-.253.024-.51.044-.801 1.047-15.044 14.378-25.247 25.641-31.231 12.45-6.615 29.831-12.457 51.661-17.363 43.213-9.71 100.435-15.059 161.124-15.059s117.911 5.348 161.124 15.059c21.83 4.906 39.211 10.748 51.662 17.363 11.262 5.984 24.593 16.187 25.64 31.231.02.291.032.548.044.801.015.364.03.728.03 1.098 0 3.017-.492 5.848-1.368 8.498-3.797 11.484-14.815 19.567-24.347 24.631q-1.167.62-2.392 1.231c-12.248 6.111-28.804 11.532-49.27 16.132-15.53 3.49-32.876 6.412-51.535 8.729-33.261 4.13-70.71 6.329-109.588 6.329s-76.327-2.198-109.588-6.329c-18.659-2.317-36.005-5.24-51.535-8.729-21.83-4.906-39.212-10.748-51.663-17.364-8.431-4.479-18.026-11.322-22.757-20.791-1.851-3.705-2.957-7.813-2.957-12.338 0-.369.015-.733.03-1.097m.871 35.096.083.074a68 68 0 0 0 1.713 1.537c.125.108.255.215.381.322q.697.596 1.42 1.183.303.244.608.485.654.518 1.328 1.028.309.235.621.468.819.607 1.667 1.202l.322.23a86 86 0 0 0 2.065 1.39c.2.131.407.26.609.39q.771.495 1.564.983.378.232.761.462.78.468 1.58.928c.238.137.473.275.714.41a105 105 0 0 0 4.952 2.631c13.366 6.681 31.107 12.531 52.796 17.405 16.598 3.73 35.183 6.831 55.188 9.251 33.34 4.033 70.624 6.173 109.226 6.173s75.885-2.14 109.226-6.173c20.004-2.42 38.589-5.521 55.188-9.251 14.942-3.358 27.997-7.181 39.051-11.418 6.062-2.323 11.531-4.769 16.36-7.334h-.001c.795-.422 1.572-.852 2.339-1.285q.357-.203.709-.408a103 103 0 0 0 2.344-1.392 98 98 0 0 0 1.565-.983q.306-.194.61-.39 1.051-.686 2.062-1.388c.114-.079.223-.16.336-.24q.84-.59 1.651-1.191.319-.238.633-.477.667-.505 1.314-1.018.312-.247.62-.495.71-.575 1.393-1.16l.41-.346a65 65 0 0 0 1.702-1.527l.088-.079c-3.265 12.352-14.906 20.952-24.813 26.215-12.45 6.615-29.832 12.457-51.662 17.363-14.878 3.343-31.417 6.169-49.187 8.438l-.102.013c-17.571 2.241-36.344 3.936-55.902 5.049h-.021q-3.347.19-6.721.357l-.485.023q-2.986.147-5.989.274l-1.182.05q-2.834.117-5.683.219l-.938.034q-6.637.23-13.336.372l-1.288.025a1110 1110 0 0 1-7.112.117q-2.395.031-4.794.05-.933.009-1.867.015-3.256.022-6.517.023c-19.083 0-37.821-.529-55.89-1.556l-.022-.002a938 938 0 0 1-6.952-.424l-.707-.046a852 852 0 0 1-20.966-1.627l-.02-.002a751 751 0 0 1-27.17-2.94l-.06-.004-.047-.006-.102-.013c-17.769-2.269-34.309-5.095-49.187-8.438-21.83-4.906-39.212-10.748-51.663-17.364-9.906-5.26-21.548-13.86-24.813-26.212m406.611 167.095a7.5 7.5 0 0 0-7.5 7.5v22.753c-1.248.294-2.51.588-3.81.88-11.528 2.591-24.112 4.86-37.527 6.792V293.671c14.737-2.022 28.596-4.43 41.337-7.199v80.694c0 4.142 3.357 7.5 7.5 7.5s7.5-3.358 7.5-7.5v-84.26c16.594-4.319 30.449-9.282 41.338-14.806v129.257c0 4.741-9.221 14.347-41.338 23.688v-18.828a7.5 7.5 0 0 0-7.5-7.5m-63.837-99.155v139.061c-13.165 1.583-27.005 2.857-41.337 3.81V299.241c14.266-.922 28.099-2.153 41.337-3.679m-56.337 4.531v139.206c-10.081.504-20.338.85-30.686 1.037l-.333.006q-4.804.084-9.629.122l-.69.006V301.231l.756-.009q4.776-.037 9.52-.117l.545-.011q4.923-.087 9.805-.22l.255-.006a1031 1031 0 0 0 9.46-.309l1.217-.044q4.424-.17 8.805-.38c.324-.016.652-.027.975-.042m-56.338 1.135v139.241a977 977 0 0 1-41.338-1.164V300.088c13.497.655 27.317 1.039 41.338 1.14m-56.338-1.982v139.177c-14.3-.956-28.15-2.236-41.337-3.82V295.565l.678.076q.757.086 1.518.17 1.753.197 3.518.389l1.649.173q1.71.181 3.433.356.882.088 1.767.174 1.692.167 3.395.33.888.083 1.779.164 1.714.158 3.441.312.883.077 1.769.152 1.749.151 3.51.295.861.07 1.725.138 1.796.144 3.602.281l1.684.124q1.836.136 3.683.264.844.058 1.69.114c.832.056 1.661.115 2.496.169M86.988 334.457a7.5 7.5 0 0 0-7.5 7.5v79.087c-32.117-9.341-41.338-18.947-41.338-23.688V268.1c10.889 5.524 24.744 10.486 41.338 14.806v24.093a7.5 7.5 0 0 0 7.5 7.5 7.5 7.5 0 0 0 7.5-7.5v-20.528c12.741 2.77 26.6 5.177 41.337 7.199v138.971c-13.416-1.933-26-4.202-37.527-6.792a380 380 0 0 1-3.81-.88v-83.012a7.5 7.5 0 0 0-7.5-7.5m383.996 126.991c-12.585 6.686-30.149 12.59-52.207 17.547-43.658 9.811-101.467 15.213-162.777 15.213-61.312 0-119.12-5.403-162.777-15.213-22.058-4.957-39.622-10.861-52.207-17.547-10.092-5.362-21.961-14.149-25.169-26.792 4.936 4.638 10.99 8.885 18.131 12.679 13.766 7.314 32.592 13.685 55.956 18.936 44.705 10.045 103.681 15.578 166.066 15.578s121.361-5.533 166.066-15.579c23.364-5.25 42.19-11.622 55.955-18.936 7.143-3.794 13.197-8.042 18.133-12.68-3.208 12.645-15.078 21.432-25.17 26.794m-.001-27.359c-12.583 6.686-30.147 12.589-52.206 17.547-43.657 9.81-101.465 15.213-162.777 15.213s-119.12-5.403-162.777-15.213c-22.059-4.958-39.623-10.861-52.207-17.547C29.147 427.783 15 416.847 15 400.556c0-.573.029-1.141.063-1.708.005-.081.007-.148.013-.232.004-.057 0-.113.003-.17.482-6.425 3.194-12.43 8.071-17.968v16.879c0 17.902 24.177 32.412 71.859 43.127 43.086 9.683 100.261 15.016 160.99 15.016q3.316-.001 6.616-.023l1.789-.015q2.534-.02 5.06-.053l1.685-.023q3.03-.045 6.046-.107l.462-.009c52.57-1.112 101.41-6.263 139.333-14.786 47.683-10.715 71.859-25.226 71.859-43.127v-16.878c4.878 5.538 7.589 11.543 8.071 17.967.003.057-.001.113.003.17.006.084.008.151.013.231.034.567.063 1.135.063 1.708.001 16.292-14.146 27.228-26.016 33.534"/><path d="M416.99 150.355c-43.086-9.683-100.261-15.016-160.99-15.016s-117.904 5.333-160.99 15.016c-47.683 10.714-71.86 25.225-71.86 43.126v.004c0 7.918 4.739 15.171 14.139 21.727q.535.439 1.132.767c11.933 7.943 30.821 14.844 56.589 20.635 43.086 9.683 100.261 15.015 160.99 15.015s117.904-5.333 160.99-15.015c25.79-5.796 44.689-12.704 56.62-20.656a7.5 7.5 0 0 0 1.064-.72c9.424-6.562 14.175-13.823 14.175-21.751v-.004c0-17.902-24.177-32.412-71.859-43.128m-3.288 71.619c-42.04 9.447-98.046 14.65-157.702 14.65s-115.662-5.203-157.702-14.65c-18.393-4.134-31.543-8.505-40.776-12.634C93.834 192.589 171.625 181.365 256 181.365s162.166 11.224 198.478 27.975c-9.232 4.129-22.383 8.5-40.776 12.634m55.868-21.669c-35.069-20.426-119.269-33.94-213.57-33.94s-178.501 13.514-213.57 33.94c-3.065-2.749-4.278-5.105-4.279-6.822.003-5.562 12.673-17.821 60.147-28.49 42.039-9.447 98.046-14.65 157.702-14.65s115.663 5.203 157.702 14.65c47.473 10.669 60.144 22.927 60.147 28.49-.001 1.717-1.214 4.073-4.279 6.822"/></svg>