<svg xmlns="http://www.w3.org/2000/svg" xml:space="preserve" viewBox="0 0 512 512"><path d="M.984 405.676v31.882h.033c.682 19.807 17.003 32.62 30.751 39.924 13.52 7.183 32.192 13.482 55.499 18.72C132.605 506.389 192.529 512 256 512s123.396-5.611 168.733-15.799c23.307-5.238 41.979-11.535 55.499-18.72 13.747-7.304 30.068-20.117 30.751-39.924h.033v-31.882z" style="fill:#ce9e95"/><path d="M255.999 483.923c-63.472 0-123.396-5.611-168.733-15.799-23.307-5.238-41.979-11.535-55.499-18.72C17.723 441.943.983 428.737.983 408.195s16.74-33.748 30.784-41.209c13.52-7.183 32.192-13.482 55.499-18.72 45.338-10.188 105.262-15.799 168.733-15.799s123.396 5.611 168.733 15.799c23.307 5.238 41.979 11.535 55.499 18.72 14.044 7.461 30.784 20.667 30.784 41.209s-16.74 33.748-30.784 41.209c-13.52 7.183-32.192 13.482-55.499 18.72-45.337 10.188-105.261 15.799-168.733 15.799" style="fill:#ad7e74"/><path d="M24.742 195.691v209.221c0 28.703 103.537 51.971 231.258 51.971s231.258-23.268 231.258-51.971V195.691z" style="fill:#ad7e74"/><path d="M82.556 439.284V230.063c-34.641-8.822-56.171-20.305-57.719-32.911h-.096v207.761c.001 13.179 21.841 25.209 57.815 34.371" style="fill:#bc8e82"/><path d="M140.371 449.929V240.708c-21.765-2.83-41.28-6.435-57.815-10.645v209.221c16.535 4.211 36.05 7.816 57.815 10.645" style="fill:#ad7e74"/><path d="M198.186 455.246V246.025c-20.512-1.186-39.92-2.99-57.815-5.317v209.221c17.895 2.327 37.302 4.131 57.815 5.317" style="fill:#bc8e82"/><path d="M255.999 456.884V247.663c-19.963 0-39.336-.569-57.815-1.638v209.221c18.48 1.069 37.853 1.638 57.815 1.638" style="fill:#ad7e74"/><path d="M313.814 246.025c-18.479 1.069-37.851 1.638-57.815 1.638v209.221c19.963 0 39.336-.569 57.815-1.638z" style="fill:#bc8e82"/><path d="M371.629 449.929V240.708c-17.895 2.326-37.302 4.131-57.815 5.317v209.221c20.512-1.186 39.92-2.99 57.815-5.317" style="fill:#ad7e74"/><path d="M429.443 439.284V230.063c-16.534 4.211-36.049 7.816-57.815 10.645v209.221c21.766-2.829 41.281-6.434 57.815-10.645" style="fill:#bc8e82"/><path d="M3.55 193.342v31.561h.032c.675 19.607 16.833 32.292 30.441 39.522 13.383 7.112 31.868 13.345 54.94 18.531 44.882 10.086 104.203 15.641 167.036 15.641s122.154-5.555 167.036-15.641c23.072-5.185 41.557-11.42 54.94-18.531 13.609-7.23 29.766-19.915 30.441-39.522h.033v-31.561z" style="fill:#ce9e95"/><path d="M255.999 270.803c-62.833 0-122.154-5.555-167.036-15.641-23.072-5.185-41.557-11.42-54.94-18.531-13.902-7.385-30.474-20.459-30.474-40.794s16.572-33.409 30.474-40.794c13.383-7.112 31.868-13.345 54.94-18.531 44.882-10.086 104.203-15.641 167.036-15.641s122.154 5.555 167.036 15.641c23.072 5.185 41.557 11.42 54.94 18.531 13.902 7.385 30.474 20.459 30.474 40.794s-16.572 33.409-30.474 40.794c-13.383 7.112-31.868 13.345-54.94 18.531-44.881 10.087-104.202 15.641-167.036 15.641" style="fill:#bc8e82"/><ellipse cx="256.001" cy="195.694" rx="231.257" ry="51.969" style="fill:#ad7e74"/><path d="M36.436 212.048c30.496 20.69 117.267 35.618 219.564 35.618s189.068-14.928 219.564-35.618C445.068 190.853 358.297 175.561 256 175.561S66.933 190.853 36.436 212.048" style="fill:#73e7e6"/><path d="M278.508 226.833c-8.91 0-18.9-2.075-28.933-8.246-21.285-13.089-35.313-3.8-39.106-.642a7.7 7.7 0 0 1-10.839-.989 7.7 7.7 0 0 1 .99-10.84c11.924-9.93 33.166-15.311 57.018-.642 21.766 13.386 43.824.1 44.752-.472 3.61-2.224 8.349-1.121 10.587 2.476 2.24 3.598 1.163 8.321-2.427 10.575-.832.523-14.281 8.78-32.042 8.78" style="fill:#91f9f6"/><path d="M244.06 61.534a7.696 7.696 0 0 0 7.586 7.806l.113.001a7.695 7.695 0 0 0 7.693-7.587c.023-1.61.348-2.027 2.064-3.976 2.31-2.621 5.801-6.583 5.907-13.931.106-7.349-3.27-11.409-5.505-14.097-1.661-1.997-1.972-2.424-1.949-4.033.023-1.611.348-2.028 2.064-3.978 2.311-2.622 5.802-6.584 5.907-13.933A7.696 7.696 0 0 0 260.354 0h-.112a7.695 7.695 0 0 0-7.693 7.587c-.023 1.611-.348 2.028-2.064 3.977-2.31 2.621-5.801 6.584-5.907 13.932s3.27 11.409 5.505 14.097c1.661 1.997 1.972 2.424 1.949 4.033s-.348 2.027-2.064 3.976c-2.311 2.622-5.803 6.583-5.908 13.932m135.679 22.421a7.696 7.696 0 1 0 15.392 0c0-1.61.318-2.032 2.007-4.005 2.272-2.654 5.706-6.665 5.706-14.015s-3.435-11.361-5.706-14.016c-1.689-1.972-2.007-2.396-2.007-4.006s.318-2.033 2.007-4.006c2.272-2.655 5.706-6.667 5.706-14.017a7.696 7.696 0 1 0-15.392 0c0 1.611-.318 2.033-2.007 4.007-2.272 2.654-5.706 6.666-5.706 14.016s3.435 11.361 5.706 14.016c1.69 1.972 2.007 2.396 2.007 4.006 0 1.609-.318 2.031-2.006 4.004-2.274 2.655-5.707 6.665-5.707 14.016m-270.585 0a7.696 7.696 0 1 0 15.392 0c0-1.61.318-2.032 2.007-4.005 2.272-2.654 5.706-6.665 5.706-14.015s-3.435-11.361-5.706-14.016c-1.689-1.972-2.007-2.396-2.007-4.006s.318-2.033 2.007-4.006c2.272-2.655 5.706-6.667 5.706-14.017a7.696 7.696 0 1 0-15.392 0c0 1.611-.318 2.033-2.007 4.007-2.272 2.654-5.706 6.666-5.706 14.016s3.435 11.361 5.706 14.016c1.689 1.972 2.007 2.396 2.007 4.006 0 1.609-.318 2.031-2.006 4.004-2.272 2.655-5.707 6.665-5.707 14.016" style="fill:#e2e2e0"/></svg>