<svg xmlns="http://www.w3.org/2000/svg" width="512" height="512" viewBox="0 0 512 512"><g fill-rule="evenodd" clip-rule="evenodd"><path fill="#efc7a4" d="M34.161 299.669h443.677V433.45c0 36.475-99.32 66.043-221.839 66.043S34.161 469.924 34.161 433.449z"/><ellipse cx="256" cy="299.668" fill="#d5a889" rx="221.839" ry="66.044"/><path fill="#e4e8eb" d="M82.812 306.076c50.143 22.061 119.451 27.39 173.188 27.39s123.045-5.329 173.188-27.39c5.548-2.441 5.548-10.373 0-12.814C379.045 271.2 309.737 265.871 256 265.871s-123.045 5.329-173.188 27.39c-5.548 2.441-5.548 10.374 0 12.815"/><path fill="#a4d4ff" d="M21.593 24.457a6.984 6.984 0 1 1 11.648-7.71c21.243 31.923 10.772 51.059.301 70.193-8.447 15.437-16.895 30.874-.301 55.812a6.985 6.985 0 0 1-11.649 7.711C.348 118.539 10.82 99.404 21.291 80.269c8.449-15.437 16.896-30.874.302-55.812m388.472-1.109a6.985 6.985 0 0 1 11.649-7.71c21.243 31.924 10.772 51.059.301 70.194-8.447 15.437-16.895 30.874-.301 55.812a6.985 6.985 0 0 1-11.648 7.711c-21.244-31.924-10.772-51.059-.301-70.194 8.446-15.438 16.894-30.875.3-55.813m68.694 0a6.985 6.985 0 0 1 11.649-7.71c21.243 31.924 10.772 51.059.301 70.194-8.448 15.437-16.895 30.874-.301 55.812a6.985 6.985 0 0 1-11.649 7.711c-21.244-31.924-10.772-51.06-.301-70.194 8.447-15.438 16.895-30.875.301-55.813m-319.778 1.109a6.985 6.985 0 0 1 11.649-7.71c21.243 31.924 10.772 51.059.301 70.194-8.448 15.437-16.895 30.874-.301 55.812a6.985 6.985 0 0 1-11.648 7.711c-21.244-31.924-10.772-51.06-.301-70.194 8.446-15.438 16.894-30.875.3-55.813m-68.694-1.109a6.984 6.984 0 1 1 11.648-7.71c21.243 31.924 10.772 51.059.301 70.194-8.447 15.437-16.895 30.874-.301 55.812a6.985 6.985 0 0 1-11.649 7.711c-21.244-31.924-10.772-51.059-.301-70.194 8.448-15.438 16.896-30.875.302-55.813"/><ellipse cx="267.715" cy="146.163" fill="#efc7a4" rx="37.383" ry="37.384" transform="rotate(-45 267.708 146.223)"/><path fill="#66d4f1" d="m317.274 206.569 54.32 14.071c5.053 1.309 8.87 4.973 10.583 9.51l20.305 53.814c3.01 7.992-1.029 16.91-9.021 19.92s-16.91-1.03-19.92-9.021l-17.467-46.325-44.034-11.407c-2.236 25.66-4.461 51.322-6.689 76.983-32.316 2.063-65.315 1.764-97.561-1.084 2.366-27.251 4.728-54.501 7.102-81.751l-50.539 14.142-57.404 42.538c-6.855 5.083-16.533 3.646-21.615-3.209-5.083-6.855-3.646-16.533 3.209-21.615l59.701-44.24c6.009-4.456 53.489-16.027 64.144-19.009 10.927-3.018 95.515 4.256 104.886 6.683"/></g></svg>