<svg xmlns="http://www.w3.org/2000/svg" width="24" height="24" fill="none" viewBox="0 0 24 24"><path fill="#ff3d6b" d="M12.707 5.636a4 4 0 1 1 5.657 5.657l-2.828 2.828q-.346.345-.746.588l.53-1.506-.32-1.375 1.95-1.95a2 2 0 1 0-2.83-2.828l-2.827 2.83a2 2 0 0 0 2.008 3.324l-1.635 1.953a4 4 0 0 1-1.787-6.691z"/><path fill="#ff3d6b" d="M14.121 9.878a4 4 0 0 1 0 5.657l-2.828 2.828a4 4 0 0 1-5.657-5.656l2.828-2.829a4 4 0 0 1 .871-.66l-.506 1.668v1.456L7.05 14.12a2 2 0 1 0 2.829 2.828l2.828-2.828a2 2 0 0 0-1.865-3.363l1.526-1.905c.642.179 1.248.52 1.753 1.025"/><g fill="#0e2841" fill-rule="evenodd" clip-rule="evenodd"><path d="M12.354 5.283a4.5 4.5 0 0 1 6.364 6.363l-2.829 2.829q-.389.387-.839.66l-.52-.853a3.5 3.5 0 0 0 .652-.514l2.828-2.829a3.5 3.5 0 0 0-4.95-4.95l-2.828 2.83a3.5 3.5 0 0 0 1.564 5.854l-.26.966A4.5 4.5 0 0 1 9.525 8.11zm4.242 2.12a1.5 1.5 0 0 0-2.121 0l-2.829 2.83a1.5 1.5 0 0 0 1.507 2.492l.296.956a2.5 2.5 0 0 1-2.51-4.156l2.829-2.828a2.5 2.5 0 1 1 3.535 3.535l-1.95 1.95-.707-.707 1.95-1.95a1.5 1.5 0 0 0 0-2.121"/><path d="M12.502 8.372a4.5 4.5 0 0 1 1.973 7.517l-2.828 2.828a4.5 4.5 0 1 1-6.365-6.364l2.829-2.828c.298-.298.628-.546.98-.744l.49.872q-.412.23-.763.579L5.99 13.06a3.5 3.5 0 1 0 4.95 4.95l2.828-2.828a3.5 3.5 0 0 0-1.226-5.746l-.672.838a2.5 2.5 0 0 1 1.19 4.2l-2.828 2.829a2.5 2.5 0 1 1-3.535-3.536l1.779-1.779.707.707-1.78 1.78a1.5 1.5 0 1 0 2.122 2.12l2.829-2.828a1.5 1.5 0 0 0-1.4-2.522.5.5 0 0 1-.502-.8l1.526-1.904a.5.5 0 0 1 .524-.17"/></g></svg>