<svg xmlns="http://www.w3.org/2000/svg" width="96" height="96" fill="none" viewBox="0 0 96 96"><g fill="#000" fill-rule="evenodd" clip-rule="evenodd"><path d="M54.065 16.064c7.013-7.012 18.382-7.012 25.394 0 7.013 7.012 7.013 18.382 0 25.394l-11.5 11.5a2.112 2.112 0 1 1-2.987-2.988l11.5-11.5c5.362-5.362 5.362-14.056 0-19.418s-14.057-5.363-19.42 0l-11.499 11.5a2.113 2.113 0 0 1-2.987-2.989zM30.418 42.699a2.113 2.113 0 0 1 0 2.987l-11.5 11.5c-5.362 5.362-5.362 14.056 0 19.419 5.363 5.362 14.057 5.362 19.42 0l11.499-11.5a2.112 2.112 0 1 1 2.987 2.988l-11.5 11.5c-7.011 7.012-18.38 7.012-25.393 0-7.012-7.013-7.012-18.382 0-25.395l11.5-11.5a2.11 2.11 0 0 1 2.987 0"/><path d="M59.966 35.788c.82.83.81 2.168-.02 2.987L38.64 59.785a2.113 2.113 0 0 1-2.967-3.008l21.306-21.01c.83-.82 2.168-.81 2.987.02"/></g></svg>