<svg xmlns="http://www.w3.org/2000/svg" width="24" height="24" fill="none" viewBox="0 0 24 24"><path fill="#000" fill-rule="evenodd" d="M10.973 15.002c.022.011.054.011.054.011v.022c.033 0 .097-.044.097-.044l1.166-1.165.033-.032a.3.3 0 0 0 .075-.087c.022-.043.032-.087.01-.13-.02-.043-.053-.086-.096-.086a2.35 2.35 0 0 1-1.166-.637 2.23 2.23 0 0 1-.659-1.403 2.28 2.28 0 0 1 .659-1.835L14.2 6.56c.863-.864 2.374-.864 3.238 0 .432.443.67 1.015.67 1.63s-.238 1.198-.67 1.63l-1.392 1.382a.14.14 0 0 0-.033.13c.13.463.205.949.205 1.435 0 .237-.01.442-.043.615 0 .054.022.119.076.14a.13.13 0 0 0 .162-.021l2.364-2.353c1.63-1.641 1.63-4.297 0-5.927a4.19 4.19 0 0 0-5.916 0L9.807 8.277c-.27.27-.485.562-.647.853l-.013.01c-.01.008-.02.015-.02.022a4.2 4.2 0 0 0-.13 3.876c.206.42.465.798.81 1.144a3.8 3.8 0 0 0 1.166.82M5.231 18.78A4.2 4.2 0 0 0 8.188 20l-.032.01a4.2 4.2 0 0 0 2.958-1.219l3.054-3.055a4.13 4.13 0 0 0 1.123-2.018l.065-.475a1.7 1.7 0 0 0 .021-.324v-.431c0-.109-.01-.217-.032-.303-.01-.119-.032-.216-.054-.313a3 3 0 0 0-.097-.356 4 4 0 0 0-1.015-1.684 4.2 4.2 0 0 0-1.155-.81c-.043-.032-.151.022-.151.022l-1.166 1.165c-.032.033-.075.076-.108.14-.021.033-.021.076 0 .12.022.043.054.075.097.075.443.086.842.302 1.166.626.432.443.67 1.026.659 1.662-.011.39-.108.767-.292 1.09a1.5 1.5 0 0 1-.183.26c-.043.065-.097.14-.184.226l-3.055 3.055a2.323 2.323 0 0 1-3.238 0 2.3 2.3 0 0 1-.67-1.63c0-.615.238-1.198.67-1.63l1.393-1.392c.032-.043.043-.097.032-.14a4.5 4.5 0 0 1-.184-2.03.13.13 0 0 0-.075-.14c-.043-.033-.151.021-.151.021L5.23 12.864A4.13 4.13 0 0 0 4 15.822c0 1.111.443 2.17 1.23 2.957" clip-rule="evenodd"/></svg>