<svg xmlns="http://www.w3.org/2000/svg" width="512" height="512" viewBox="0 0 512 512"><path fill="#383968" d="M497 94.267H191.733c-8.284 0-15-6.716-15-15s6.716-15 15-15H497c8.284 0 15 6.716 15 15s-6.716 15-15 15M497 271H191.733c-8.284 0-15-6.716-15-15s6.716-15 15-15H497c8.284 0 15 6.716 15 15s-6.716 15-15 15m0 176.733H191.733c-8.284 0-15-6.716-15-15s6.716-15 15-15H497c8.284 0 15 6.716 15 15s-6.716 15-15 15"/><g fill="#ff7643"><circle cx="63.2" cy="79.267" r="63.2" transform="rotate(-45 63.19 79.284)"/><circle cx="63.2" cy="256" r="63.2" transform="rotate(-67.48 63.28 255.999)"/><circle cx="63.2" cy="432.733" r="63.2" transform="rotate(-13.34 62.715 432.28)"/></g><path fill="#1f1442" d="M512 79.267c0-8.284-6.716-15-15-15H344.367v30H497c8.284 0 15-6.716 15-15M512 256c0-8.284-6.716-15-15-15H344.367v30H497c8.284 0 15-6.716 15-15m0 176.733c0-8.284-6.716-15-15-15H344.367v30H497c8.284 0 15-6.715 15-15"/></svg>