<svg xmlns="http://www.w3.org/2000/svg" width="512" height="512" viewBox="0 0 512 512"><path d="M191.733 94.267H497c8.284 0 15-6.716 15-15s-6.716-15-15-15H191.733c-8.284 0-15 6.716-15 15s6.716 15 15 15M497 241H191.733c-8.284 0-15 6.716-15 15s6.716 15 15 15H497c8.284 0 15-6.716 15-15s-6.716-15-15-15m0 176.733H191.733c-8.284 0-15 6.716-15 15s6.716 15 15 15H497c8.284 0 15-6.716 15-15s-6.716-15-15-15"/><circle cx="63.2" cy="79.267" r="63.2" transform="rotate(-45 63.19 79.284)"/><circle cx="63.2" cy="256" r="63.2" transform="rotate(-67.48 63.28 255.999)"/><circle cx="63.2" cy="432.733" r="63.2" transform="rotate(-13.34 62.715 432.28)"/></svg>