<svg xmlns="http://www.w3.org/2000/svg" viewBox="0 0 492.985 112.564"><path d="m39.833 66.7 2.027 7.194a33 33 0 0 1-11.47 2.027q-7.529-.001-11.802-2.135-4.27-2.139-6.295-5.4-2.022-3.26-2.587-6.742-.56-3.487-.56-6.182V26.795H.828V18.59h8.316V7.35h8.995v11.24h22.033v8.204H18.14v28.667q0 6.63 3.425 9.442 3.43 2.808 8.939 2.808 2.586 0 4.891-.277a52 52 0 0 0 4.438-.736M79.85 75.92q-18.659.001-28.1-6.968-9.443-6.974-9.443-20.238V44.78q0-27.202 37.544-27.202 37.543.001 37.544 26.867v3.822q0 13.265-9.443 20.459-9.443 7.195-28.101 7.195m0-8.32q14.505 0 21.416-4.496 6.912-4.494 6.912-14.837v-3.822q0-10.342-6.804-14.446-6.8-4.104-21.523-4.104-14.279 0-21.303 4.33-7.025 4.326-7.025 14.555v3.934q0 10.23 6.969 14.56 6.973 4.326 21.359 4.325M186.866.601h8.99v74.193h-8.99V65.24q-4.387 5.282-11.695 7.982-7.304 2.7-16.633 2.7-16.524 0-26.023-7.139-9.5-7.138-9.5-20.628v-3.6q0-9.104 4.326-15.06 4.329-5.96 12.256-8.938 7.925-2.978 18.602-2.978 9.669 0 16.972 2.644 7.308 2.638 11.695 7.807Zm-28.328 67.111q5.395 0 10.451-.9 5.061-.9 9.108-3.09t6.409-5.956q2.36-3.77 2.36-9.386v-3.713q0-7.194-4.047-11.294-4.05-4.105-10.626-5.848-6.572-1.744-13.994-1.744-12.138 0-19.055 4.218-6.912 4.218-6.912 14.554v3.6q0 10.566 7.025 15.064 7.024 4.496 19.281 4.495m84.528-50.021q11.017.001 17.76 2.135 6.746 2.134 10.229 5.282 3.486 3.148 4.664 6.408 1.183 3.261 1.183 5.508v25.74q0 3.375.17 5.962.17 2.582.844 6.068h-9.217q-.787-3.82-.787-9.103-3.486 4.156-11.582 7.195-8.09 3.035-22.14 3.035-8.21 0-13.382-1.348-5.17-1.352-7.982-3.543-2.81-2.19-3.878-4.835-1.065-2.641-1.065-5.338v-1.913q0-6.182 3.091-9.551 3.09-3.373 9.612-4.948 6.522-1.574 16.864-2.36 11.125-.9 17.754-1.574 6.634-.679 9.556-1.517 2.925-.843 2.926-2.196 0-1.575-.956-3.482-.957-1.913-3.544-3.6-2.582-1.687-7.473-2.752-4.887-1.069-12.647-1.07-9.102 0-14.333 1.41-5.226 1.404-7.416 4.104-2.19 2.696-2.191 6.742h-9.217q0-3.599 1.461-7.251 1.46-3.657 5.169-6.635 3.707-2.977 10.173-4.772 6.465-1.8 16.354-1.8m-8.876 50.021q17.645 0 25.627-4.89t7.982-13.434v-2.921q-4.048 1.125-10.065 1.913-6.013.787-11.854 1.121-2.814.114-5.4.34-2.584.22-5.503.447-7.65.561-11.526 1.743-3.88 1.179-5.117 2.922-1.235 1.743-1.235 4.104v1.013q0 2.361 1.291 4.104 1.296 1.74 4.948 2.638 3.656.9 10.852.9m108.695-49.122h10.342L318.944 81.09q-4.161 7.53-8.882 10.173-4.722 2.644-11.69 2.644-3.596 0-6.578-.622-2.978-.619-4.999-1.518l2.808-7.977q2.026.788 4.387 1.235t4.495.447q2.92 0 5.9-1.29 2.98-1.292 4.89-4.778l2.587-4.609-31.136-56.203h10.338l25.859 46.987Zm33.682 92.149q-14.052 0-22.316-3.709-8.26-3.712-11.746-9.895-3.483-6.18-3.482-13.49v-4.16q0-5.621 1.851-10.564 1.857-4.947 6.239-8.656 4.387-3.712 11.916-5.791 7.533-2.078 18.777-2.078 16.072.001 25.232 4.217 9.165 4.213 9.165 12.642v1.46q0 4.389-2.417 7.422-2.418 3.035-6.352 4.948-3.934 1.909-8.543 2.977a65.5 65.5 0 0 1-9.164 1.466q-4.553.391-8.034.391-3.036 0-7.982-.283a251 251 0 0 1-10.121-.787 246 246 0 0 1-9.324-1.07q.672 7.197 7.133 11.243 6.465 4.048 19.168 4.048 8.995 0 14.277-1.46 5.28-1.46 7.756-4.105 2.472-2.643 3.147-6.012h11.47q-.115 5.843-4.105 10.62-3.991 4.779-12.03 7.704-8.039 2.921-20.515 2.922m1.24-33.05q7.975 0 12.64-.617 4.67-.621 6.862-1.743 2.19-1.126 2.808-2.587a8 8 0 0 0 .617-3.148v-.113q0-2.02-1.63-3.595-1.626-1.573-6.517-2.53-4.89-.957-14.78-.957-10.57 0-16.53 1.8-5.956 1.796-8.373 4.835-2.418 3.036-2.417 6.742 4.385.563 9.725 1.014 5.339.447 10.116.673 4.778.227 7.478.227M490.55 72.63h-11.463v-2.248q0-3.6-5.061-6.238-5.061-2.644-16.638-2.644-12.25 0-17.928 1.574t-5.678 4.835v.339q0 1.123.617 2.19.621 1.066 2.757 1.966 2.133.9 6.686 1.8 4.555.9 12.312 1.8 10.564 1.235 18.093 2.864 7.534 1.632 11.639 4.835 4.104 3.205 4.104 9.16-.114 9.222-9.335 13.551-9.216 4.326-25.288 4.326-15.738 0-24.45-4.835-8.713-4.834-8.712-14.616v-2.474h11.464v2.474q0 4.721 5.168 7.364 5.174 2.644 16.53 2.644 23.154 0 23.154-6.86v-.561q0-1.012-.674-1.965-.674-.956-2.921-1.857-2.249-.9-7.025-1.8-4.779-.9-12.873-1.8-10.117-1.234-17.425-2.978-7.303-1.743-11.237-5.225-3.935-3.486-4.048-9.669.225-8.315 9.443-12.307 9.215-3.99 25.627-3.99 15.85 0 24.507 4.55 8.655 4.552 8.656 13.547Zm-68.232-3.821v-.561zm67.672 23.94v.227zm0 0"/></svg>