<svg xmlns="http://www.w3.org/2000/svg" width="512pt" height="512pt" viewBox="0 0 512 512"><path fill="#4dbbeb" d="M378.871 374.45a255 255 0 0 1-11.941 11.48 255 255 0 0 1-11.48 11.941l95.34 95.34C456.647 499.07 464.32 502 472 502c3.2 0 6.398-.516 9.465-1.535 3.46-10.43 1.047-22.38-7.254-30.676zm0 0"/><path fill="#fff5cd" d="M354.219 396.64a255 255 0 0 0 13.492-11.43 255 255 0 0 0 11.43-13.491l-41.2-41.2a193 193 0 0 1-12.691 12.231 192 192 0 0 1-12.23 12.691zm0 0"/><path fill="#4dbbeb" d="M226 11.785C133.488 24.504 62 104.051 62 200c0 95.96 71.504 175.516 164.027 188.219 31.578-4.348 60.711-16.48 85.383-34.399a191.3 191.3 0 0 0 42.41-42.41C376.57 280.09 390 241.578 390 200c0-95.95-71.488-175.496-164-188.215m0 0"/><path fill="#fff" d="M200 50c82.71 0 150 67.29 150 150s-67.29 150-150 150S50 282.71 50 200 117.29 50 200 50m0 0"/><path fill="#bee7f4" d="M225 52.094C154.148 64.03 100 125.809 100 200s54.148 135.969 125 147.906C295.852 335.97 350 274.191 350 200S295.852 64.031 225 52.094m0 0"/><path d="m500.281 443.719-133.48-133.48C388.547 277.483 400 239.554 400 200 400 89.719 310.281 0 200 0S0 89.719 0 200s89.719 200 200 200c39.555 0 77.484-11.453 110.238-33.2l36.895 36.895.015.02 96.57 96.566C451.279 507.84 461.32 512 472 512s20.723-4.16 28.277-11.715C507.836 492.73 512 482.688 512 472s-4.164-20.73-11.719-28.281m-173.765-88.926a200.7 200.7 0 0 0 28.277-28.277l28.371 28.37a243 243 0 0 1-28.277 28.278zM20 200c0-99.254 80.746-180 180-180s180 80.746 180 180c0 38.176-11.852 74.668-34.273 105.535a180.8 180.8 0 0 1-40.192 40.192v.003C274.668 368.148 238.175 380 200 380c-99.254 0-180-80.746-180-180m466.14 286.14c-3.78 3.778-8.8 5.86-14.14 5.86s-10.36-2.082-14.14-5.86l-88.794-88.796a263 263 0 0 0 28.278-28.278l88.797 88.797C489.918 461.641 492 466.656 492 472s-2.082 10.36-5.86 14.14m0 0"/><path d="M360 200c0-88.227-71.773-160-160-160S40 111.773 40 200s71.773 160 160 160 160-71.773 160-160M200 340c-77.195 0-140-62.805-140-140S122.805 60 200 60s140 62.805 140 140-62.805 140-140 140m0 0"/><path d="M306.316 169.996c5.157-1.98 7.73-7.766 5.75-12.922-8.613-22.414-23.605-41.574-43.363-55.414C248.48 87.488 224.723 80 200 80c-5.523 0-10 4.477-10 10s4.477 10 10 10c41.098 0 78.633 25.816 93.395 64.246a10.01 10.01 0 0 0 9.34 6.418 10 10 0 0 0 3.581-.668M310 190c-5.52 0-10 4.48-10 10s4.48 10 10 10 10-4.48 10-10-4.48-10-10-10m0 0"/></svg>