<svg xmlns="http://www.w3.org/2000/svg" xml:space="preserve" viewBox="0 0 512 512"><path d="M310 190c-5.52 0-10 4.48-10 10s4.48 10 10 10 10-4.48 10-10-4.48-10-10-10"/><path d="m500.281 443.719-133.48-133.48C388.546 277.485 400 239.555 400 200 400 89.72 310.28 0 200 0S0 89.72 0 200s89.72 200 200 200c39.556 0 77.486-11.455 110.239-33.198l36.895 36.895.016.016 96.568 96.568C451.276 507.838 461.319 512 472 512s20.724-4.162 28.278-11.716C507.837 492.731 512 482.687 512 472s-4.163-20.731-11.719-28.281m-194.745-97.992-.002.002C274.667 368.149 238.175 380 200 380c-99.252 0-180-80.748-180-180S100.748 20 200 20s180 80.748 180 180c0 38.175-11.851 74.667-34.272 105.535a180.9 180.9 0 0 1-40.192 40.192m20.98 9.066a200.7 200.7 0 0 0 28.277-28.277l28.371 28.371a243 243 0 0 1-28.277 28.277zm159.623 131.346c-3.78 3.78-8.801 5.861-14.139 5.861s-10.359-2.081-14.139-5.861l-88.795-88.795a263 263 0 0 0 28.277-28.277l88.798 88.798A19.85 19.85 0 0 1 492 472a19.86 19.86 0 0 1-5.861 14.139"/><path d="M200 40c-88.225 0-160 71.775-160 160s71.775 160 160 160 160-71.775 160-160S288.225 40 200 40m0 300c-77.196 0-140-62.804-140-140S122.804 60 200 60s140 62.804 140 140-62.804 140-140 140"/><path d="M312.065 157.073c-8.611-22.412-23.604-41.574-43.36-55.413C248.479 87.49 224.721 80 200 80c-5.522 0-10 4.478-10 10s4.478 10 10 10c41.099 0 78.631 25.818 93.396 64.247a10 10 0 0 0 9.337 6.416 10 10 0 0 0 3.584-.668c5.155-1.981 7.729-7.766 5.748-12.922"/></svg>