<svg xmlns="http://www.w3.org/2000/svg" width="512" height="512" fill-rule="evenodd" clip-rule="evenodd" image-rendering="optimizeQuality" shape-rendering="geometricPrecision" text-rendering="geometricPrecision" viewBox="0 0 43.349 43.349"><path fill="#545454" d="M26.742 29.476a.45.45 0 0 1-.353-.14L23.78 26.69c-.509-.513 2.488-3.333 2.892-2.892l2.609 2.61c.204.203.17.498 0 .705L27.095 29.3a.43.43 0 0 1-.353.176"/><path fill="#676767" d="M15.035 30.076a14.98 14.98 0 0 1-10.613-4.408c-5.889-5.853-5.889-15.374-.036-21.262 5.854-5.854 15.374-5.854 21.263 0 5.853 5.853 5.853 15.373 0 21.262a14.98 14.98 0 0 1-10.614 4.408m0-2.469A12.58 12.58 0 0 1 6.15 23.94c-4.937-4.9-4.937-12.87-.036-17.807 4.937-4.901 12.906-4.901 17.807 0 4.901 4.902 4.901 12.87 0 17.772a12.53 12.53 0 0 1-8.886 3.702"/><path fill="#70d1fe" d="M15.035 27.607A12.58 12.58 0 0 1 6.15 23.94c-4.937-4.9-4.937-12.87-.036-17.807 4.937-4.901 12.906-4.901 17.807 0s4.901 12.87 0 17.772a12.53 12.53 0 0 1-8.886 3.702"/><path fill="#f8991b" d="M39.753 43.334a3.6 3.6 0 0 1-2.538-1.058L25.332 30.393c-.204-.204-.17-.498 0-.705l4.372-4.373c.212-.211.529-.211.705 0l11.883 11.883c2.262 2.262.648 6.136-2.539 6.136"/><path fill="#676767" d="m35.918 40.98-2.256-2.257 5.086-5.069 2.257 2.257z"/><path fill="#e4eaf8" d="M10.027 10.062c-2.802 2.678-2.701 7.214.008 9.922.64.641.177 1.749-.712 1.749-.7 0-1.386-.885-1.736-1.407-.629-.936-1.088-2.06-1.352-3.153-.766-3.182.048-6.215 2.376-8.543.277-.276.66-.387 1.033-.255.702.249.94 1.154.383 1.687"/></svg>