<svg xmlns="http://www.w3.org/2000/svg" width="512" height="512" fill-rule="evenodd" clip-rule="evenodd" image-rendering="optimizeQuality" shape-rendering="geometricPrecision" text-rendering="geometricPrecision" viewBox="0 0 43.349 43.349"><path d="M15.034 27.607A12.58 12.58 0 0 1 6.15 23.94c-4.938-4.9-4.938-12.87-.037-17.807 4.937-4.901 12.906-4.901 17.807 0s4.901 12.87 0 17.772a12.53 12.53 0 0 1-8.886 3.702M6.854 6.874c-4.514 4.513-4.514 11.848 0 16.36 4.513 4.514 11.848 4.514 16.361 0 4.513-4.513 4.513-11.847 0-16.36-4.513-4.514-11.848-4.514-16.361 0m19.887 22.602a.45.45 0 0 1-.353-.14L23.78 26.69c-.51-.513.303-1.146.705-.706l2.257 2.257 1.481-1.481-2.257-2.257c-.51-.51.302-1.147.706-.705l2.609 2.61c.204.203.17.498 0 .704L27.094 29.3a.43.43 0 0 1-.353.176"/><path d="M39.753 43.334a3.6 3.6 0 0 1-2.54-1.058L25.332 30.393c-.204-.204-.17-.498 0-.705l4.372-4.373c.212-.211.529-.211.705 0l11.883 11.883c2.262 2.262.648 6.136-2.539 6.136M26.387 30.04l11.53 11.53c1.53 1.53 4.409.582 4.409-1.833a2.68 2.68 0 0 0-.74-1.834l-11.531-11.53zM9.322 21.225c-1.254 0-5.544-7.044-.352-12.235.494-.495 1.176.274.705.705-2.927 2.927-2.927 7.722 0 10.649.33.33.074.881-.353.881"/><path d="M35.91 40.795c-.38 0-1.444-1.232-1.905-1.692-.212-.212-.212-.53 0-.706l4.372-4.372c.204-.204.499-.17.706 0l1.551 1.551c.212.212.212.53 0 .706l-4.372 4.372c-.106.07-.212.141-.353.141m-.847-2.08.846.846 3.632-3.632-.846-.846zm-20.028-8.639a14.98 14.98 0 0 1-10.613-4.408c-5.889-5.853-5.889-15.374-.035-21.262 5.853-5.854 15.373-5.854 21.262 0 5.853 5.853 5.853 15.373 0 21.262a14.98 14.98 0 0 1-10.614 4.408M5.126 5.146c-5.466 5.465-5.466 14.351 0 19.817 5.465 5.465 14.351 5.465 19.817 0 5.465-5.466 5.465-14.352 0-19.817-5.466-5.465-14.351-5.465-19.817 0"/></svg>