<svg xmlns="http://www.w3.org/2000/svg" width="512" height="512" fill-rule="evenodd" clip-rule="evenodd" image-rendering="optimizeQuality" shape-rendering="geometricPrecision" text-rendering="geometricPrecision" viewBox="0 0 43.349 43.349"><path d="M15.034 27.607A12.58 12.58 0 0 1 6.15 23.94c-4.938-4.9-4.938-12.87-.037-17.807 4.937-4.901 12.906-4.901 17.807 0s4.901 12.87 0 17.772a12.53 12.53 0 0 1-8.886 3.702m0 2.469a14.98 14.98 0 0 1-10.613-4.408c-5.889-5.853-5.889-15.374-.035-21.262 5.853-5.854 15.373-5.854 21.262 0 5.364 5.364 5.812 13.808 1.344 19.714l1.953 1.953.758-.758c.212-.211.529-.211.705 0l11.883 11.883c2.262 2.262.648 6.136-2.539 6.136a3.6 3.6 0 0 1-2.538-1.058l-1.634-1.634c-.482-.344-1.214-1.179-1.575-1.54a.6.6 0 0 1-.1-.135l-8.574-8.574c-.204-.204-.17-.498 0-.705l.707-.708-1.936-1.962a14.97 14.97 0 0 1-9.068 3.058m11.326-5.177a15 15 0 0 1-.712.77q-.373.372-.766.714l1.86 1.859 1.48-1.481zM5.126 5.146c-5.466 5.465-5.466 14.351 0 19.817 5.077 5.077 13.106 5.437 18.603 1.08a.6.6 0 0 1 .18-.144 14 14 0 0 0 1.933-1.926.55.55 0 0 1 .165-.204c4.374-5.497 4.02-13.54-1.064-18.623-5.466-5.465-14.351-5.465-19.817 0m29.25 32.881 3.667-3.667-7.987-7.987-3.668 3.667zm5.923-1.41-3.667 3.667 1.287 1.287c1.53 1.53 4.408.581 4.408-1.834a2.68 2.68 0 0 0-.74-1.834zm-4.39 2.944 3.632-3.632-.846-.846-3.632 3.632zM9.322 21.225c-1.255 0-5.544-7.044-.353-12.236.495-.494 1.177.275.706.706-2.927 2.926-2.927 7.722 0 10.649.33.33.074.881-.353.881M6.854 6.874c-4.514 4.513-4.514 11.847 0 16.36 4.513 4.514 11.847 4.514 16.361 0 4.513-4.513 4.513-11.847 0-16.36-4.514-4.514-11.848-4.514-16.361 0"/><path fill="#676767" d="M23.92 6.133c4.901 4.902 4.901 12.87 0 17.772-2.468 2.468-5.677 3.702-8.886 3.702S8.582 26.373 6.15 23.94c-4.938-4.9-4.938-12.87-.037-17.807 4.937-4.901 12.906-4.901 17.807 0m2.087 17.636c4.373-5.497 4.02-13.54-1.064-18.623-5.466-5.465-14.351-5.465-19.817 0s-5.465 14.351 0 19.817c5.078 5.077 13.106 5.437 18.603 1.08a.6.6 0 0 1 .18-.144 14 14 0 0 0 1.933-1.926.55.55 0 0 1 .165-.204"/><path fill="#70d1fe" d="M23.215 23.235c4.513-4.513 4.513-11.848 0-16.361-4.513-4.514-11.848-4.514-16.361 0-4.514 4.513-4.514 11.848 0 16.36 4.513 4.514 11.848 4.514 16.361 0M8.97 8.99c.494-.495 1.176.274.705.705-2.927 2.926-2.927 7.722 0 10.649.33.33.074.881-.353.881-1.255 0-5.544-7.044-.353-12.236"/><path fill="#545454" d="m28.222 26.761-1.862-1.862a15 15 0 0 1-.712.77q-.373.372-.766.714l1.86 1.859z"/><path fill="#f8991b" d="m30.056 26.373-3.667 3.667 7.986 7.987 3.668-3.667z"/><path fill="#676767" d="m38.695 35.083-3.632 3.632.846.846 3.632-3.632z"/><path fill="#f8991b" d="m40.3 36.617-3.668 3.667 1.287 1.287c1.53 1.53 4.408.581 4.408-1.834a2.68 2.68 0 0 0-.74-1.834z"/></svg>