<svg xmlns="http://www.w3.org/2000/svg" xml:space="preserve" width="682.667" height="682.667" viewBox="0 0 682.667 682.667"><defs><clipPath id="a" clipPathUnits="userSpaceOnUse"><path d="M0 512h512V0H0Z"/></clipPath></defs><g clip-path="url(#a)" transform="matrix(1.33333 0 0 -1.33333 0 682.667)"><path d="M0 0c-22.53 54.62-18.431 106.926-.401 137.713 38.164 65.154 148.627 58.088 193.125-34.827 18.03 37.644 46.883 61.195 77.371 71.558" style="fill:none;stroke:#000;stroke-width:15;stroke-linecap:round;stroke-linejoin:round;stroke-miterlimit:10;stroke-dasharray:none;stroke-opacity:1" transform="translate(22.946 194.535)"/><path d="M0 0c-9.982 11.886-18.411 24.033-25.427 36.21" style="fill:none;stroke:#000;stroke-width:15;stroke-linecap:round;stroke-linejoin:round;stroke-miterlimit:10;stroke-dasharray:none;stroke-opacity:1" transform="translate(61.651 131.356)"/><path d="M0 0c8.979-77.1-38.314-195.962-207.137-257.918-40.488 14.853-73.972 32.993-101.383 53.027" style="fill:none;stroke:#000;stroke-width:15;stroke-linecap:round;stroke-linejoin:round;stroke-miterlimit:10;stroke-dasharray:none;stroke-opacity:1" transform="translate(422.807 287.46)"/><path d="M0 0c35.157 39.417 36.501 84.967 23.131 107.798-19.873 33.934-77.41 30.246-100.581-18.141-23.171 48.387-80.698 52.075-100.571 18.141-19.875-33.935-7.247-118.07 100.571-157.638 22.399 8.218 40.689 18.361 55.431 29.586" style="fill:none;stroke:#000;stroke-width:15;stroke-linecap:round;stroke-linejoin:round;stroke-miterlimit:10;stroke-dasharray:none;stroke-opacity:1" transform="translate(473.538 325.663)"/><path d="M0 0c59.901 21.985 66.922 68.73 55.88 87.583S12.875 104.391 0 77.509c-12.875 26.882-44.838 28.927-55.88 10.074S-59.901 21.985 0 0" style="fill:none;stroke:#000;stroke-width:15;stroke-linecap:round;stroke-linejoin:round;stroke-miterlimit:10;stroke-dasharray:none;stroke-opacity:1" transform="translate(192.125 382.468)"/><path d="m0 0 34.172 11.743c10.263 3.527 10.263 18.041 0 21.568L0 45.054a11.4 11.4 0 0 0-7.078 7.079l-11.743 34.171c-3.527 10.263-18.041 10.263-21.569 0l-11.743-34.172a11.4 11.4 0 0 0-7.078-7.078l-34.172-11.743c-10.263-3.527-10.263-18.041 0-21.568L-59.211 0a11.4 11.4 0 0 0 7.078-7.078L-40.39-41.25c3.528-10.263 18.042-10.263 21.569 0L-7.078-7.078A11.4 11.4 0 0 0 0 0" style="fill:none;stroke:#000;stroke-width:15;stroke-linecap:round;stroke-linejoin:round;stroke-miterlimit:10;stroke-dasharray:none;stroke-opacity:1" transform="translate(118.532 85.186)"/></g></svg>