<svg xmlns="http://www.w3.org/2000/svg" width="512" height="512" viewBox="0 0 512 512"><path fill="#ee596b" d="M214.456 489.302C1.174 411.019-23.819 244.58 15.491 177.456c27.133-46.326 89.744-57.208 141.006-28.048.06.035.129.069.19.112.475.268.958.544 1.433.828q.103.054.207.121c22.291 13.161 42.304 33.985 56.13 62.861 38.317-80 124.1-98.218 174.197-62.861 9.847 6.947 18.313 15.966 24.768 26.986 39.31 67.125 14.317 233.564-198.966 311.847"/><path fill="#ed3a4f" d="M214.456 489.302C1.174 411.019-23.819 244.58 15.491 177.456c27.133-46.326 89.744-57.208 141.006-28.048-53.964-29.67-137.042 90.402-71.629 188.065 50.77 75.802 129.588 151.829 129.588 151.829"/><path fill="#ee596b" d="M400.319 235.583C289.249 194.816 276.234 108.14 296.705 73.184c14.13-24.125 46.735-29.792 73.431-14.606.031.018.067.036.099.058a32 32 0 0 1 .854.494c11.609 6.854 22.031 17.698 29.23 32.736 19.954-41.661 64.627-51.149 90.716-32.736a44.8 44.8 0 0 1 12.898 14.053c20.471 34.957 7.456 121.633-103.614 162.4"/><path fill="#ed3a4f" d="M400.319 235.583C289.249 194.816 276.234 108.14 296.705 73.184c14.13-24.125 46.735-29.792 73.431-14.606-28.102-15.451-71.367 47.078-37.302 97.938 26.439 39.475 67.485 79.067 67.485 79.067"/><path fill="#ee596b" d="M190.198 125.716c-61.71-22.65-68.941-70.807-57.568-90.228 7.85-13.404 25.966-16.552 40.798-8.115q.027.014.055.032a15 15 0 0 1 .474.275c6.45 3.808 12.24 9.833 16.24 18.188 11.087-23.147 35.906-28.418 50.401-18.188a24.9 24.9 0 0 1 7.166 7.808c11.375 19.421 4.144 67.577-57.566 90.228"/><path fill="#ed3a4f" d="M190.198 125.716c-61.71-22.65-68.941-70.807-57.568-90.228 7.85-13.404 25.966-16.552 40.798-8.115-15.614-8.585-39.651 26.157-20.725 54.414 14.69 21.931 37.495 43.929 37.495 43.929"/><path fill="#f1f4f6" d="m114.384 431.97 35.203-12.097c10.573-3.633 10.573-18.586 0-22.219l-35.203-12.097a11.75 11.75 0 0 1-7.292-7.292l-12.097-35.203c-3.633-10.573-18.586-10.573-22.219 0l-12.097 35.203a11.75 11.75 0 0 1-7.292 7.292l-35.203 12.097c-10.573 3.633-10.573 18.586 0 22.219l35.203 12.097a11.75 11.75 0 0 1 7.292 7.292l12.097 35.203c3.633 10.573 18.586 10.573 22.219 0l12.097-35.203a11.75 11.75 0 0 1 7.292-7.292"/></svg>