<svg xmlns="http://www.w3.org/2000/svg" xml:space="preserve" viewBox="0 0 512.002 512.002"><path d="m511.89 475.873-29.997-165.398a7.514 7.514 0 1 0-14.788 2.681l12.683 69.933-97.782-113.58 65.766-14.678 9.738 5.421 4.228 23.316a7.516 7.516 0 0 0 14.789-2.681l-4.864-26.814a7.51 7.51 0 0 0-3.738-5.225l-15.343-8.541h-.001l-48.488-26.991h-.001L366.68 192.49l-.002-.001-.008-.005a7.5 7.5 0 0 0-.888-.417c-.095-.037-.192-.062-.289-.095a8 8 0 0 0-.638-.2c-.122-.031-.245-.049-.369-.073a8 8 0 0 0-.582-.099c-.132-.016-.263-.021-.396-.029a8 8 0 0 0-.567-.02c-.135.001-.269.011-.404.019a7 7 0 0 0-.962.125 8 8 0 0 0-.944.248 8 8 0 0 0-.517.198c-.132.056-.263.111-.394.175-.057.028-.116.047-.172.076l-17.168 8.949c12.772-23.815 19.224-46.88 19.224-68.946 0-57.965-47.158-105.123-105.123-105.123S151.364 74.43 151.364 132.395c0 22.28 6.572 45.579 19.594 69.64l-18.499-9.643c-.057-.03-.118-.05-.176-.078q-.19-.091-.384-.17a8 8 0 0 0-.525-.201 8 8 0 0 0-1.347-.318 7 7 0 0 0-.551-.054q-.207-.015-.413-.02a8 8 0 0 0-.551.019c-.138.009-.276.014-.414.031-.187.022-.372.059-.557.095-.131.026-.263.045-.393.078-.205.052-.406.121-.607.19-.105.036-.212.064-.317.105a8 8 0 0 0-.885.416l-.008.005-.002.001-101.243 56.357a7.5 7.5 0 0 0-3.738 5.225L11.831 411.308a7.515 7.515 0 0 0 6.054 8.735 7.51 7.51 0 0 0 8.735-6.054l8.555-47.171 97.261-51.414-7.822 100.994-107.157 48.115 3.771-20.8a7.515 7.515 0 0 0-14.788-2.681L.121 475.874a7.515 7.515 0 0 0 10.471 8.196l121.168-54.405 121.117 54.382.009.004.041.018c.068.031.139.052.209.081a8 8 0 0 0 .668.242q.108.032.216.061a7 7 0 0 0 .754.163c.075.012.149.03.225.04l.153.02q.378.043.757.047c.032 0 .064.006.096.006l.048-.003c.304-.002.606-.027.909-.066.037-.005.075-.003.113-.009.057-.008.113-.027.171-.036q.353-.058.702-.153c.064-.017.129-.027.193-.045l.02-.004c.021-.006.04-.017.061-.024.292-.09.579-.193.862-.32l121.164-54.405 121.167 54.404c.117.052.237.091.357.137.118.046.234.097.355.137.157.052.318.091.478.132.099.026.195.058.296.079.193.042.388.069.583.096.07.009.138.025.208.033q.4.044.801.044h.003c.365 0 .73-.037 1.094-.09q.126-.017.252-.041a7 7 0 0 0 1.067-.269l.066-.026c.232-.081.463-.17.689-.277.066-.031.123-.075.188-.108.189-.095.371-.204.553-.317.182-.111.363-.223.534-.35.059-.044.125-.075.184-.12.132-.103.247-.222.371-.334.099-.089.202-.173.297-.266q.34-.339.629-.714c.036-.047.079-.088.115-.136q.335-.457.597-.955c.049-.093.086-.192.132-.288q.176-.364.313-.745c.045-.128.081-.258.119-.39a7.5 7.5 0 0 0 .293-1.902c.003-.123.013-.245.01-.37a7 7 0 0 0-.109-1.155M379.797 216.992l-7.704 1.802-.493-6.365zm-16.394 84.226-31.384-24.505a7.52 7.52 0 0 0-7.624-.968l-60.844 26.482v-8.235c4.546-3.703 14.875-12.433 27.255-24.962l67.797-29.784zm-6.99-90.24.96 12.392-42.353 18.607a304 304 0 0 0 11.765-15.555zm-200.815 0 31.15 16.238c4.613 6.487 9.666 13.021 15.173 19.598a361 361 0 0 0 14.231 15.984l-63.86-9.138zm-21.79 86.7-95.224 50.336 4.638-25.574.119-.659 92.37-48.681zm3.276-42.29-90.335 47.609 7.752-42.744 85.91-47.823-2.159 27.881zm2.578 161.349 7.115-91.869 88.77 134.922zm108.828-28.964-46.293-72.958 46.293 5.543zm0-82.553-60.229-7.211a7.516 7.516 0 0 0-7.238 11.489l67.467 106.328v36.294l-99.819-151.715 2.458-31.728 82.913 11.864c6.253 5.803 11.322 10.112 14.447 12.685v11.994zm7.997-24.917c-18.977-16.005-90.093-80.494-90.093-147.907-.001-49.678 40.415-90.094 90.093-90.094s90.094 40.416 90.094 90.094c0 67.413-71.117 131.903-90.094 147.907m7.033 185.299v-33.357l22.466 23.269zm37.04-16.632-37.04-38.364V318.63l62.772-27.32 38.681 30.203 7.375 95.224zm72.706-215.017 26.055-6.093 18.478 10.286 10.224 5.692-53.075 11.845zm14.131 182.445-5.867-75.75 96.54 116.464zm-7.878-101.727-2.042-26.37-.086-1.117 107.69 125.09 6.905 38.073z"/><path d="M256.487 85.95a7.515 7.515 0 1 0 0 15.03c17.323 0 31.416 14.093 31.416 31.416 0 17.322-14.093 31.416-31.416 31.416s-31.416-14.093-31.416-31.416c0-8.287 3.198-16.106 9.006-22.018a7.513 7.513 0 0 0-.094-10.626 7.513 7.513 0 0 0-10.627.094c-8.586 8.739-13.314 20.299-13.314 32.55 0 25.61 20.835 46.446 46.446 46.446s46.446-20.836 46.446-46.446c-.001-25.611-20.836-46.446-46.447-46.446"/></svg>