<svg xmlns="http://www.w3.org/2000/svg" xml:space="preserve" viewBox="0 0 511.999 511.999"><path d="m511.879 475.685-40.224-221.611a7.5 7.5 0 0 0-3.739-5.221l-101.242-56.31a7.5 7.5 0 0 0-4.234-.911l18.419 237.608-.617.276 121.164 54.357a7.51 7.51 0 0 0 7.709-.937 7.5 7.5 0 0 0 2.764-7.251M256 246.375l-103.545-53.931a7.5 7.5 0 0 0-3.972-.82q.54-.034 1.078.008L131.142 429.24l121.781 54.634a7.5 7.5 0 0 0 3.077.659z" style="fill:#44c868"/><path d="M149.56 191.633a7.5 7.5 0 0 0-4.234.91l-101.243 56.31a7.5 7.5 0 0 0-3.739 5.221L.121 475.685a7.5 7.5 0 0 0 2.763 7.252 7.52 7.52 0 0 0 7.709.937l120.504-54.061zm212.879-.005a7.5 7.5 0 0 0-2.894.818L256 246.376v238.158h.001a7.5 7.5 0 0 0 3.077-.659l121.781-54.634z" style="fill:#4ce166"/><path d="m28.154 321.233-8.171 45.019 120.994-63.906 2.809-36.239.466-6.01z" style="fill:#ffdb56"/><path d="m142.066 288.294-1.089 14.052-120.994 63.906L.121 475.685a7.5 7.5 0 0 0 2.763 7.252 7.52 7.52 0 0 0 7.709.937l120.504-54.061z" style="fill:#a8eefc"/><path d="m256.03 276.08-111.778-15.983-3.275 42.249L256 477.025v-63.518l-68.637-108.078 68.667 8.213zm203.916-31.659-48.635-27.051-46.042 10.758.576 7.436 2.274 29.334z" style="fill:#ffbb24"/><path d="m372.202 317.576-4.36-56.249-2.573-33.199L256.03 276.08v37.562l71.356-31.03z" style="fill:#ffdb56"/><path d="m511.879 475.685-10.103-55.666-133.657-155.121 4.084 52.678 137.07 165.221a7.5 7.5 0 0 0 2.606-7.112" style="fill:#ffbb24"/><path d="M256.481 27.465c-57.963 0-105.12 47.118-105.12 105.034 0 35.826 17.009 74.29 50.556 114.322 24.639 29.403 48.943 48.314 49.966 49.105a7.5 7.5 0 0 0 4.599 1.57 7.5 7.5 0 0 0 4.599-1.57c1.022-.791 25.327-19.702 49.966-49.105 33.547-40.032 50.556-78.495 50.556-114.322-.002-57.916-47.159-105.034-105.122-105.034m38.93 105.033c0 21.482-17.43 38.898-38.93 38.898s-38.93-17.415-38.93-38.898 17.43-38.898 38.93-38.898 38.93 17.416 38.93 38.898" style="fill:#ff4a4a"/><path d="M256.481 27.465c-4.594 0-9.119.298-13.559.872 51.583 6.667 91.562 50.836 91.562 104.162 0 35.826-17.009 74.29-50.556 114.322-15.845 18.908-31.54 33.467-41.005 41.669 5.254 4.552 8.596 7.154 8.96 7.436a7.5 7.5 0 0 0 4.599 1.57 7.5 7.5 0 0 0 4.599-1.57c1.022-.791 25.327-19.702 49.966-49.105 33.547-40.032 50.556-78.495 50.556-114.322-.002-57.916-47.159-105.034-105.122-105.034" style="fill:#e7343f"/><path d="m259.078 483.874 45.285-20.316L256 413.507v71.026h.001a7.5 7.5 0 0 0 3.077-.659" style="fill:#ffdb56"/><path d="M471.654 254.074a7.5 7.5 0 0 0-3.739-5.221l-7.97-4.433-91.827 20.477 133.656 155.121zM255.999 484.533q.001 0 0 0v-7.508L140.977 302.346l-9.837 126.895 121.781 54.634a7.5 7.5 0 0 0 3.078.658" style="fill:#1ea4e9"/></svg>