<svg xmlns="http://www.w3.org/2000/svg" xml:space="preserve" viewBox="0 0 512 512"><path d="M504.522 504.466H7.478l73.805-178.665h349.434z" style="fill:#a8eefc"/><path d="M430.717 325.801h-26.92l73.805 178.665h26.92z" style="fill:#7ee5f2"/><path d="m471.917 425.535-16.408-39.718H261.217l-68.627-60.016h-44.202l-24.792 60.016H56.491l-16.408 39.718h67.105l-32.605 78.931h44.203l54.973-133.077 156.44 133.077h66.69l-90.255-78.931z" style="fill:#ffdb56"/><path d="M444.996 425.536h26.921l-16.408-39.719h-26.92z" style="fill:#ffbb24"/><path d="M123.596 385.817H56.491l24.792-60.016h67.105zm331.913 0H261.217l-68.627-60.016h238.127z" style="fill:#4ce166"/><path d="m455.509 385.817-24.792-60.016h-26.92l24.792 60.016z" style="fill:#44c868"/><path d="m173.759 371.389-54.973 133.077h211.413z" style="fill:#4ce166"/><path d="M256 7.534c-85.074 0-154.039 69.485-154.039 155.198C101.961 293.257 256 413.353 256 413.353s154.039-120.096 154.039-250.622C410.039 77.018 341.073 7.534 256 7.534m0 217.098c-33.931 0-61.438-27.714-61.438-61.9s27.507-61.9 61.438-61.9 61.438 27.714 61.438 61.9-27.507 61.9-61.438 61.9" style="fill:#ff4a4a"/><path d="M256 7.534c-4.536 0-9.023.209-13.46.596 78.769 6.872 140.579 73.458 140.579 154.601 0 106.776-103.066 206.555-140.579 239.337 8.344 7.292 13.46 11.284 13.46 11.284S410.039 293.256 410.039 162.73C410.039 77.018 341.073 7.534 256 7.534" style="fill:#e7343f"/><path d="M256 232.166c38 0 68.915-31.148 68.915-69.435 0-38.286-30.915-69.434-68.915-69.434-14.021 0-27.516 4.218-39.025 12.198-3.402 2.359-4.262 7.05-1.921 10.478 2.342 3.428 6.998 4.294 10.4 1.936 9.004-6.243 19.566-9.543 30.546-9.543 29.754 0 53.96 24.388 53.96 54.365s-24.206 54.366-53.96 54.366-53.96-24.389-53.96-54.366c0-8.843 2.038-17.273 6.057-25.055 1.906-3.692.482-8.241-3.182-10.161-3.665-1.919-8.178-.486-10.085 3.206-5.067 9.812-7.746 20.881-7.746 32.01.001 38.287 30.916 69.435 68.916 69.435"/><path d="m511.426 501.571-73.804-178.665a7.48 7.48 0 0 0-6.903-4.639h-73.547c14.305-19.498 26.212-38.919 35.511-57.988 16.48-33.794 24.835-66.613 24.835-97.547C417.517 73.001 345.061 0 256 0S94.483 73.001 94.483 162.731c0 30.934 8.355 63.754 24.835 97.547 9.298 19.069 21.205 38.491 35.511 57.988H81.282a7.48 7.48 0 0 0-6.903 4.639L24.087 444.651c-1.587 3.842.217 8.252 4.03 9.85.94.394 1.912.581 2.87.581a7.48 7.48 0 0 0 6.906-4.641l7.176-17.372h50.906l-26.38 63.862H18.69l7.647-18.513c1.587-3.842-.217-8.252-4.03-9.85-3.815-1.601-8.191.219-9.777 4.06L.575 501.571a7.58 7.58 0 0 0 .683 7.075A7.46 7.46 0 0 0 7.478 512h497.044a7.47 7.47 0 0 0 6.221-3.354 7.58 7.58 0 0 0 .683-7.075m-401.987-338.84c0-81.422 65.747-147.663 146.561-147.663S402.561 81.31 402.561 162.731c0 34.143-11.775 88.703-66.245 158.231-.055.065-.104.134-.156.201a499 499 0 0 1-8.681 10.757c-29.932 36.062-60.222 62.395-71.48 71.751-11.225-9.324-41.372-35.525-71.283-71.518a500 500 0 0 1-8.889-11.01q-.067-.088-.137-.175c-54.468-69.523-66.251-124.081-66.251-158.237m-23.17 170.604h50.907l-18.568 44.948H67.702zm43.728 163.597 46.741-113.148 133.014 113.148zm202.938 0-154.352-131.3a7.43 7.43 0 0 0-6.584-1.566 7.5 7.5 0 0 0-5.143 4.427l-53.057 128.438H85.795l28.296-68.502a7.58 7.58 0 0 0-.683-7.075 7.46 7.46 0 0 0-6.221-3.354H51.296l10.182-24.65h62.118a7.48 7.48 0 0 0 6.903-4.639l22.876-55.377h12.978a524 524 0 0 0 6.894 8.491c38.585 46.43 76.578 76.239 78.177 77.486a7.43 7.43 0 0 0 9.152 0c.879-.685 12.757-10.009 29.673-25.96h84.681c4.13 0 7.478-3.373 7.478-7.534s-3.348-7.534-7.478-7.534h-69.269c10.368-10.503 21.7-22.749 33.093-36.457 2.351-2.83 4.642-5.66 6.894-8.491h80.083l18.567 44.948h-39.457c-4.13 0-7.478 3.373-7.478 7.534s3.347 7.534 7.478 7.534h45.681l10.182 24.65h-154.07a7.48 7.48 0 0 0-7.006 4.898 7.57 7.57 0 0 0 2.104 8.326l75.133 65.707zm66.746 0-73.024-63.862H466.93l26.381 63.862z"/></svg>