<svg xmlns="http://www.w3.org/2000/svg" xml:space="preserve" viewBox="0 0 512.002 512.002"><path d="m131.76 421.427 124.245 55.786v-222.37l-107.021-55.787z" style="fill:#44c868"/><path d="m140.98 302.387 115.025 174.826-124.245-55.786z" style="fill:#7ee5f2"/><path d="M131.76 421.427 7.515 477.213l40.226-221.799 101.243-56.358z" style="fill:#4ce166"/><path d="m28.432 361.882 112.548-59.495-9.22 119.04L7.515 477.213z" style="fill:#a8eefc"/><path d="m380.25 421.427 124.245 55.786-40.224-221.799-101.244-56.358z" style="fill:#44c868"/><path d="m368.127 264.907 123.982 144.014-27.838-153.507-15.345-8.541z" style="fill:#7ee5f2"/><path d="m380.25 421.427-124.245 55.786v-222.37l107.022-55.787z" style="fill:#4ce166"/><path d="m28.432 361.882 112.548-59.495 3.276-42.285-107.655 56.737z" style="fill:#ffdb56"/><path d="m256.035 276.098-111.779-15.996-3.276 42.285 115.025 174.826v-63.571l-68.637-108.17 68.667 8.22zm112.092-11.191 80.799-18.034-48.486-26.99-35.164 8.222z" style="fill:#ffbb24"/><path d="m372.211 317.63-4.36-56.297-2.575-33.228-109.241 47.993v37.594l71.358-31.056z" style="fill:#ffdb56"/><path d="m372.211 317.63 132.284 159.583-12.386-68.292-123.982-144.014z" style="fill:#ffbb24"/><path d="M256.487 34.787c-53.907 0-97.608 43.7-97.608 97.608 0 82.091 97.608 157.623 97.608 157.623s97.608-75.532 97.608-157.623c-.001-53.908-43.701-97.608-97.608-97.608m0 136.538c-21.5 0-38.931-17.429-38.931-38.931s17.429-38.931 38.931-38.931 38.931 17.43 38.931 38.931-17.431 38.931-38.931 38.931" style="fill:#ff4a4a"/><path d="M256.487 34.787c-4.59 0-9.105.325-13.527.938 47.505 6.587 84.082 47.354 84.082 96.671 0 62.887-57.281 121.924-84.082 146.104 8.184 7.384 13.527 11.519 13.527 11.519s97.608-75.532 97.608-157.623c-.001-53.909-43.701-97.609-97.608-97.609" style="fill:#e7343f"/><path d="m256.005 413.642 42.817 44.347-42.817 19.224z" style="fill:#ffdb56"/><path d="M510.422 481.816c.036-.047.079-.088.115-.136q.335-.457.597-.955c.049-.093.086-.192.132-.288.116-.243.223-.49.313-.744.045-.128.081-.258.119-.39a7.5 7.5 0 0 0 .293-1.903c.003-.123.013-.245.01-.37a7.4 7.4 0 0 0-.111-1.157l-29.997-165.398a7.514 7.514 0 1 0-14.788 2.681l12.683 69.933-97.782-113.58 65.766-14.678 9.738 5.421 4.228 23.316a7.516 7.516 0 0 0 14.789-2.681l-4.864-26.814a7.51 7.51 0 0 0-3.738-5.225l-101.254-56.364.01.006-.002-.001-.008-.005a7.5 7.5 0 0 0-.888-.417c-.095-.037-.192-.062-.289-.095a8 8 0 0 0-.638-.2c-.122-.031-.245-.049-.369-.073a8 8 0 0 0-.582-.099c-.132-.016-.264-.021-.396-.029a8 8 0 0 0-.567-.02c-.135.001-.269.011-.404.019a7 7 0 0 0-.962.125 8 8 0 0 0-.944.248 8 8 0 0 0-.517.198c-.132.056-.264.111-.394.175-.057.028-.116.047-.172.076l-17.168 8.949c12.772-23.815 19.224-46.88 19.224-68.946 0-57.965-47.158-105.123-105.123-105.123s-105.12 47.158-105.12 105.123c0 22.28 6.572 45.579 19.594 69.64l-18.499-9.643c-.057-.03-.118-.05-.176-.078q-.19-.091-.384-.17a8 8 0 0 0-.525-.201 8 8 0 0 0-1.347-.318 7 7 0 0 0-.551-.054q-.207-.015-.413-.02a8 8 0 0 0-.551.019c-.138.009-.276.014-.414.031-.187.022-.372.059-.557.095-.131.026-.263.045-.393.078-.205.052-.406.121-.607.19-.105.036-.212.064-.317.105a8 8 0 0 0-.885.416l-.008.005-.002.001-101.241 56.357a7.5 7.5 0 0 0-3.738 5.225L11.831 411.308a7.515 7.515 0 0 0 6.054 8.735 7.51 7.51 0 0 0 8.735-6.054l8.555-47.171 97.261-51.414-7.822 100.994-107.157 48.115 3.771-20.8a7.515 7.515 0 0 0-14.788-2.681L.121 475.874a7.515 7.515 0 0 0 10.471 8.196l121.168-54.405 121.117 54.382.009.004.041.018c.068.031.139.052.209.081a8 8 0 0 0 .668.242q.108.032.216.061a7 7 0 0 0 .754.163c.075.012.149.03.225.04l.153.02q.379.043.757.047c.032 0 .064.006.096.006l.048-.003c.304-.002.606-.027.909-.066.037-.005.075-.003.113-.009.057-.008.113-.027.171-.036q.353-.058.702-.153c.064-.017.129-.027.193-.045l.02-.004c.021-.006.04-.017.061-.024.292-.09.579-.193.862-.32l121.165-54.403.002-.001L501.42 484.07c.117.052.237.091.357.137.118.046.234.097.355.137.157.052.318.091.478.132.099.026.195.058.296.079.193.042.388.069.583.096.07.009.138.025.208.033q.4.044.801.044h.003a7.6 7.6 0 0 0 1.345-.131 7 7 0 0 0 1.067-.269l.066-.026c.232-.081.463-.17.689-.277.066-.031.123-.075.188-.108.189-.095.371-.204.553-.317.182-.111.363-.223.534-.35.059-.044.125-.075.184-.12.132-.103.247-.222.371-.334.099-.089.202-.173.297-.267q.337-.337.627-.713M300.56 448.97l-37.04-38.364V318.63l62.772-27.32 38.681 30.204 7.376 95.224zm-37.04 16.632v-33.357l22.466 23.269zm-29.477-185.061c6.253 5.803 11.322 10.112 14.447 12.685v11.994l-60.229-7.211a7.516 7.516 0 0 0-7.238 11.489l67.467 106.328v36.295l-99.819-151.715 1.223-15.793 1.234-15.934zm56.763-11.511 67.797-29.784 4.8 61.972-31.384-24.505a7.52 7.52 0 0 0-7.624-.968l-60.844 26.482v-8.235c4.546-3.703 14.875-12.434 27.255-24.962m86.671 19.271-.086-1.117 107.69 125.091 6.905 38.073-112.467-135.677zm-5.877-75.872 8.197 4.563-7.704 1.802zM202.197 314.815l46.293 5.543v67.415zm-55.42 10.053 88.77 134.922-95.885-43.053zm234.754 15.78 96.54 116.464-90.674-40.713zm46.493-96.81-53.075 11.845-1.683-21.731 26.055-6.093zm-71.611-32.86.96 12.392-42.353 18.607a304 304 0 0 0 11.765-15.555zM256.487 42.302c49.678 0 90.094 40.416 90.094 90.094 0 67.414-71.117 131.904-90.094 147.907-18.977-16.005-90.093-80.494-90.093-147.907 0-49.678 40.415-90.094 90.093-90.094m-54.565 204.512a360 360 0 0 0 14.231 15.984l-63.86-9.138 3.306-42.682 31.15 16.238c4.613 6.487 9.666 13.021 15.173 19.598m-61.511-34.385-2.159 27.881-1.168 15.078-90.335 47.609 7.752-42.744zM38.585 348.014l4.638-25.574.119-.659 92.37-48.681-1.904 24.578z"/><path d="M302.933 132.396c0-25.61-20.835-46.446-46.446-46.446a7.515 7.515 0 1 0 0 15.03c17.323 0 31.416 14.093 31.416 31.416 0 17.322-14.093 31.416-31.416 31.416s-31.416-14.093-31.416-31.416c0-8.287 3.198-16.106 9.006-22.018a7.513 7.513 0 0 0-.094-10.626 7.513 7.513 0 0 0-10.627.094c-8.586 8.739-13.314 20.299-13.314 32.55 0 25.61 20.835 46.446 46.446 46.446s46.445-20.837 46.445-46.446"/></svg>