<svg xmlns="http://www.w3.org/2000/svg" width="512" height="512" viewBox="0 0 512 512"><path fill="#37617c" d="M405.016 55.624h37.394v83.24h-37.394z"/><path fill="#30546a" d="M405.016 120.864h37.394v18h-37.394z"/><path fill="#37617c" d="M405.016 367.234h37.394v89.142h-37.394z"/><path fill="#30546a" d="M405.016 438.376h37.394v18h-37.394z"/><path fill="#eef3fb" d="M472.844 504H442.41V8h30.434C490.051 8 504 21.949 504 39.156v433.689C504 490.051 490.051 504 472.844 504"/><path fill="#e2ecf9" d="M472.844 486H442.41v18h30.434C490.051 504 504 490.051 504 472.844v-18C504 472.051 490.051 486 472.844 486"/><path fill="#eef3fb" d="M373.86 504H39.156C21.949 504 8 490.051 8 472.844V39.156C8 21.949 21.949 8 39.156 8H373.86c17.207 0 31.156 13.949 31.156 31.156v433.689c0 17.206-13.949 31.155-31.156 31.155"/><path fill="#e2ecf9" d="M373.86 486H39.156C21.949 486 8 472.051 8 454.844v18C8 490.051 21.949 504 39.156 504H373.86c17.207 0 31.156-13.949 31.156-31.156v-18c0 17.207-13.949 31.156-31.156 31.156"/><path fill="#91c3f5" d="M53.822 55.624h305.371v400.751H53.822z"/><g fill="#eef3fb"><ellipse cx="285.605" cy="131.147" rx="39.549" ry="39.515"/><ellipse cx="206.508" cy="131.147" rx="39.549" ry="39.515"/><ellipse cx="127.41" cy="131.147" rx="39.549" ry="39.515"/></g><path fill="#e2ecf9" d="M285.605 152.662c-18.742 0-34.428-13.03-38.506-30.515a39.5 39.5 0 0 0-1.043 9c0 21.824 17.707 39.515 39.549 39.515s39.549-17.691 39.549-39.515a39.5 39.5 0 0 0-1.043-9c-4.078 17.485-19.764 30.515-38.506 30.515"/><path fill="#e2ecf9" d="M206.508 152.662c-18.742 0-34.427-13.03-38.506-30.515a39.5 39.5 0 0 0-1.043 9c0 21.824 17.707 39.515 39.549 39.515s39.549-17.691 39.549-39.515a39.5 39.5 0 0 0-1.043-9c-4.079 17.485-19.764 30.515-38.506 30.515m-79.098 0c-18.742 0-34.427-13.03-38.506-30.515a39.5 39.5 0 0 0-1.043 9c0 21.824 17.706 39.515 39.549 39.515s39.549-17.691 39.549-39.515a39.5 39.5 0 0 0-1.043-9c-4.078 17.485-19.764 30.515-38.506 30.515"/><path fill="#80aceb" d="M53.822 438.376h305.371v18H53.822z"/><path fill="#bde8af" d="M174.766 290.403s14.376 22.875 14.376 36.175v98.655c0 17.199-13.955 31.142-31.169 31.142h-33.556c-17.214 0-31.169-13.943-31.169-31.142v-98.655c0-13.3 14.376-36.175 14.376-36.175z"/><path fill="#a9705d" d="M291.964 290.403v-43.934h-39.549v43.934a91 91 0 0 0-28.052 65.707v69.123c0 17.2 13.955 31.143 31.169 31.143h33.315c17.214 0 31.169-13.943 31.169-31.143V356.11a91 91 0 0 0-28.052-65.707"/><path fill="#f2d26f" d="M291.964 246.469h-39.549v-24.382c0-5.736 4.65-10.385 10.385-10.385h18.778c5.736 0 10.385 4.65 10.385 10.385zm-67.601 109.642v55.614h95.653v-55.614a91 91 0 0 0-.54-9.849h-94.573a91 91 0 0 0-.54 9.849"/><path fill="#c53e60" d="M93.248 346.262h95.894v65.463H93.248z"/><path fill="#a3dcb4" d="M96.159 438.376c4.961 10.63 15.745 18 28.258 18h33.556c12.513 0 23.297-7.37 28.258-18z"/><path fill="#976355" d="M227.274 438.376c4.961 10.63 15.745 18 28.258 18h33.315c12.513 0 23.297-7.37 28.258-18z"/><path d="M359.395 47.717H53.427a7.514 7.514 0 0 0-7.515 7.515v276.177c0 4.151 3.364 7.515 7.515 7.515s7.515-3.364 7.515-7.515V178.01h290.939v271.244h-32.355c5.089-6.553 8.13-14.77 8.13-23.689v-69.258c0-3.505-.197-6.995-.571-10.458a8 8 0 0 0-.049-.44c-2.448-21.743-12.134-42.338-27.487-58.069v-65.32c0-9.881-8.039-17.92-17.921-17.92h-18.815c-9.881 0-17.92 8.039-17.92 17.92v65.318c-15.348 15.725-25.033 36.311-27.484 58.047a8 8 0 0 0-.053.478 97 97 0 0 0-.569 10.443v69.258c0 8.918 3.041 17.136 8.13 23.689h-36.521c5.09-6.553 8.131-14.77 8.131-23.689v-98.848c0-8.829-4.801-20.266-9.094-28.731h1.579c4.151 0 7.515-3.364 7.515-7.515s-3.364-7.515-7.515-7.515H92.929c-4.151 0-7.515 3.364-7.515 7.515s3.364 7.515 7.515 7.515h1.579c-4.293 8.465-9.094 19.902-9.094 28.731v98.848c0 8.918 3.041 17.136 8.13 23.689H60.941v-87.786c0-4.151-3.364-7.515-7.515-7.515s-7.515 3.364-7.515 7.515v95.3a7.514 7.514 0 0 0 7.515 7.515h305.968a7.514 7.514 0 0 0 7.515-7.515V55.232a7.513 7.513 0 0 0-7.514-7.515M231.816 356.306c0-.786.038-1.569.061-2.353h80.689c.022.784.061 1.567.061 2.353v48.208h-80.81zm28.107-134.286a2.893 2.893 0 0 1 2.89-2.89h18.815a2.894 2.894 0 0 1 2.891 2.89v16.915h-24.597zm-2.316 73.877a7.52 7.52 0 0 0 2.316-5.427v-36.506h24.597v36.506c0 2.049.837 4.009 2.316 5.427 12.148 11.638 20.443 26.749 23.931 43.026h-77.09c3.486-16.277 11.782-31.388 23.93-43.026m-157.163 58.056h81.053v50.562h-81.053zm69.909-55.968c4.978 8.642 11.144 21.673 11.144 28.731v12.208h-81.053v-12.208c0-7.058 6.167-20.09 11.144-28.731zM124.16 449.253c-13.076 0-23.715-10.627-23.715-23.689v-6.021h81.053v6.021c0 13.062-10.639 23.689-23.716 23.689zm131.371 0c-13.076 0-23.715-10.627-23.715-23.689v-6.021h80.81v6.021c0 13.062-10.639 23.689-23.715 23.689zM95.047 130.902c0-17.688 14.405-32.077 32.112-32.077s32.112 14.389 32.112 32.077-14.405 32.078-32.112 32.078-32.112-14.39-32.112-32.078m190.616 32.078c-17.706 0-32.111-14.39-32.111-32.078s14.405-32.077 32.111-32.077c17.707 0 32.112 14.389 32.112 32.077s-14.405 32.078-32.112 32.078m-34.478 0h-10.296a47.4 47.4 0 0 0 5.148-6.61 47.3 47.3 0 0 0 5.148 6.61m-44.774 0c-17.706 0-32.112-14.39-32.112-32.078s14.405-32.077 32.112-32.077c17.706 0 32.112 14.389 32.112 32.077s-14.406 32.078-32.112 32.078m-34.479 0h-10.296a47.4 47.4 0 0 0 5.148-6.61 47.5 47.5 0 0 0 5.148 6.61m148.21 0c7.848-8.417 12.662-19.694 12.662-32.078 0-25.975-21.148-47.107-47.141-47.107-16.608 0-31.227 8.635-39.626 21.639-8.4-13.005-23.018-21.639-39.626-21.639s-31.227 8.635-39.626 21.639c-8.399-13.005-23.018-21.639-39.626-21.639-25.993 0-47.141 21.132-47.141 47.107 0 12.385 4.815 23.661 12.662 32.078H60.941V62.747H351.88V162.98z"/><path d="M121.924 123.387h-11.512c-4.151 0-7.515 3.364-7.515 7.515s3.364 7.515 7.515 7.515h11.512a7.516 7.516 0 0 0 0-15.03m79.252 0h-11.512c-4.151 0-7.515 3.364-7.515 7.515s3.364 7.515 7.515 7.515h11.512a7.515 7.515 0 1 0 0-15.03m79.253 0h-11.512c-4.151 0-7.515 3.364-7.515 7.515s3.364 7.515 7.515 7.515h11.512a7.516 7.516 0 0 0 0-15.03"/><path d="M504.485 344.094a7.514 7.514 0 0 0 7.515-7.515V38.731C512 17.375 494.625 0 473.269 0h-30.494a7.514 7.514 0 0 0-7.515 7.515v40.202h-22.438v-8.986C412.822 17.375 395.447 0 374.091 0H38.731C17.375 0 0 17.375 0 38.731v434.538C0 494.625 17.375 512 38.731 512h335.36c21.356 0 38.731-17.375 38.731-38.731v-8.986h22.438v40.202a7.514 7.514 0 0 0 7.515 7.515h30.494C494.625 512 512 494.625 512 473.269V366.638c0-4.151-3.364-7.515-7.515-7.515s-7.515 3.364-7.515 7.515v106.631c0 13.069-10.632 23.702-23.702 23.702H450.29V15.029h22.979c13.069 0 23.702 10.632 23.702 23.701v297.848a7.514 7.514 0 0 0 7.514 7.516M435.26 62.747v68.374h-22.438V62.747zm-37.467 410.522c0 13.069-10.632 23.702-23.702 23.702H38.731c-13.069 0-23.701-10.632-23.701-23.702V38.731c0-13.069 10.632-23.701 23.701-23.701h335.36c13.069 0 23.702 10.632 23.702 23.701v157.855c0 4.151 3.364 7.515 7.515 7.515s7.515-3.364 7.515-7.515V146.15h22.438v213.787h-22.438V226.645c0-4.151-3.364-7.515-7.515-7.515s-7.515 3.364-7.515 7.515zm15.029-24.016v-74.288h22.438v74.288z"/></svg>