<svg xmlns="http://www.w3.org/2000/svg" width="512" height="512" viewBox="0 0 512 512"><path fill="#315771" d="m448.423 116.505-19.3 9-19.3-9-9-29.172 9-38.172h38.6l9 37.168z"/><path fill="#2a4a5f" d="M409.823 116.505h38.6v18.581h-38.6z"/><path fill="#315771" d="m448.423 444.259-19.3 9-19.3-9-9-32.219 9-41.218h38.6l9 41.218z"/><path fill="#2a4a5f" d="M409.823 444.259h38.6v18.581h-38.6z"/><path fill="#edf3fc" d="M512 461.259V32.161C512 14.399 497.601 0 479.839 0h-26.216a5.2 5.2 0 0 0-5.2 5.2v488.219l31.416 9c17.762 0 32.161-15.79 32.161-41.16m-479.839 41.16h345.501c17.76 0 32.161-15.79 32.161-41.156V32.161C409.823 14.399 395.424 0 377.662 0H32.161C14.399 0 0 14.399 0 32.161v429.098c0 25.37 14.399 41.16 32.161 41.16"/><path fill="#88bdf5" d="M362.522 444.259V183.393l-9-7.742 9-7.742V54.16a5 5 0 0 0-5-5H52.3a5 5 0 0 0-5 5v113.749l9 7.742-9 7.742v260.866l159.864 9z"/><path fill="#78a4ea" d="M52.3 462.839h67.872l17.319-9 17.319 9h100.706l17.195-9 17.195 9h67.616a5 5 0 0 0 5-5v-13.581H47.3v13.581a5 5 0 0 0 5 5"/><path fill="#edf3fc" d="M123.262 158.328c19.346 0 39.748-17.896 39.748-40.499-4.21-18.049-20.401-31.5-39.748-31.5s-35.538 13.451-39.748 31.5c0 25.04 20.402 40.499 39.748 40.499"/><path fill="#e0ebf9" d="M123.262 149.328c-19.346 0-35.538-13.45-39.748-31.499a41 41 0 0 0-1.076 9.29c0 22.528 18.278 40.79 40.825 40.79s40.825-18.262 40.825-40.79c0-3.198-.38-6.305-1.076-9.29-4.212 18.049-20.403 31.499-39.75 31.499"/><path fill="#edf3fc" d="M204.911 158.328c19.346 0 39.748-17.896 39.748-40.499-4.21-18.049-20.401-31.5-39.748-31.5s-35.538 13.451-39.748 31.5c0 25.04 20.402 40.499 39.748 40.499"/><path fill="#e0ebf9" d="M204.911 149.328c-19.346 0-35.538-13.45-39.748-31.499a40.8 40.8 0 0 0-1.076 9.29c0 22.528 18.278 40.79 40.825 40.79s40.824-18.262 40.824-40.79c0-3.198-.38-6.305-1.076-9.29-4.211 18.049-20.402 31.499-39.749 31.499"/><path fill="#edf3fc" d="M286.56 158.328c19.346 0 39.748-17.896 39.748-40.499-4.21-18.049-20.401-31.5-39.748-31.5s-35.538 13.451-39.748 31.5c0 25.04 20.402 40.499 39.748 40.499"/><path fill="#e0ebf9" d="M286.56 149.328c-19.346 0-35.538-13.45-39.748-31.499a41 41 0 0 0-1.076 9.29c0 22.528 18.278 40.79 40.825 40.79s40.825-18.262 40.825-40.79c0-3.198-.38-6.305-1.077-9.29-4.21 18.049-20.402 31.499-39.749 31.499"/><path fill="#bde8af" d="M183.98 444.259a32 32 0 0 0 3.005-13.566v-13.945l-9-33.787 9-33.787v-20.319c0-13.729-14.839-37.342-14.839-37.342h-69.308s-14.84 23.613-14.84 37.342v20.319l9 33.787-9 33.787v13.945c0 4.849 1.081 9.444 3.005 13.566l46.489 9z"/><path fill="#f1cd65" d="m293.124 246.161-20.412 9-20.412-9v-25.168c0-5.921 4.799-10.72 10.72-10.72h19.384c5.921 0 10.72 4.8 10.72 10.72z"/><path fill="#a26654" d="M319.076 444.259a32 32 0 0 0 3.005-13.566v-13.945l-9-57.408 8.514-9.539a93.94 93.94 0 0 0-28.471-58.287v-45.352h-40.825v45.352a93.94 93.94 0 0 0-28.405 57.66l8.448 10.167-9 57.408v13.945c0 4.849 1.081 9.444 3.005 13.566l46.365 9z"/><path fill="#f1cd65" d="M223.342 359.34v57.408h98.739V359.34c0-3.413-.192-6.806-.558-10.167H223.9a94 94 0 0 0-.558 10.167"/><path fill="#bf4b65" d="M87.998 349.173h98.987v67.574H87.998z"/><path fill="#a3dcb4" d="M91.003 444.259c5.121 10.973 16.253 18.581 29.17 18.581h34.638c12.916 0 24.049-7.608 29.169-18.581z"/><path fill="#8e594c" d="M226.347 444.259c5.121 10.973 16.253 18.581 29.169 18.581h34.39c12.916 0 24.049-7.608 29.169-18.581z"/><path fill="#315771" d="M47.3 167.909h315.222v15.484H47.3z"/><path fill="#a3dcb4" d="M177.696 299.255H97.288a7.742 7.742 0 1 1 0-15.484h80.407a7.74 7.74 0 0 1 7.742 7.742 7.74 7.74 0 0 1-7.741 7.742"/><path fill="#e0ebf9" d="M377.662 493.419H32.161C14.399 493.419 0 479.021 0 461.259v18.581C0 497.601 14.399 512 32.161 512h345.501c17.762 0 32.161-14.399 32.161-32.161v-18.581c0 17.763-14.399 32.161-32.161 32.161m102.177 0h-31.416V506.8a5.2 5.2 0 0 0 5.2 5.2h26.216C497.601 512 512 497.601 512 479.839v-18.581c0 17.763-14.399 32.161-32.161 32.161"/><path fill="#315771" d="M117.599 119.11h-11.883c-4.285 0-7.757 3.472-7.757 7.757s3.472 7.757 7.757 7.757h11.883c4.285 0 7.757-3.472 7.757-7.757s-3.473-7.757-7.757-7.757m81.809 0h-11.883c-4.285 0-7.757 3.472-7.757 7.757s3.473 7.757 7.757 7.757h11.883c4.285 0 7.757-3.472 7.757-7.757s-3.473-7.757-7.757-7.757m81.809 0h-11.883c-4.285 0-7.757 3.472-7.757 7.757s3.472 7.757 7.757 7.757h11.883c4.285 0 7.757-3.472 7.757-7.757s-3.473-7.757-7.757-7.757"/></svg>