<svg xmlns="http://www.w3.org/2000/svg" xml:space="preserve" width="682.667" height="682.667" viewBox="0 0 682.667 682.667"><defs><clipPath id="a" clipPathUnits="userSpaceOnUse"><path d="M0 512h512V0H0Z"/></clipPath></defs><g clip-path="url(#a)" transform="matrix(1.33333 0 0 -1.33333 0 682.667)"><path d="M0 0c0-6.179 5.074-11.253 11.253-11.253h34.782C52.214-11.253 57.26-6.179 57.26 0v37.163H0Z" style="fill:#6f6571;fill-opacity:1;fill-rule:evenodd;stroke:none" transform="translate(180.357 18.753)"/><path d="M0 0c0-6.179 5.073-11.253 11.253-11.253h34.781c6.18 0 11.254 5.074 11.254 11.253v37.163H0Z" style="fill:#6f6571;fill-opacity:1;fill-rule:evenodd;stroke:none" transform="translate(422.834 18.753)"/><path d="M0 0h102.274c2.41 0 4.366 1.956 4.366 4.337V21.26c0 11.679-9.581 21.232-21.26 21.232H16.923c-11.707 0-21.26-9.553-21.26-21.232V4.337C-4.337 1.956-2.381 0 0 0" style="fill:#6f6571;fill-opacity:1;fill-rule:evenodd;stroke:none" transform="translate(11.837 7.585)"/><path d="M0 0v-435.261h38.324V0c0 10.545-8.617 19.162-19.162 19.162S0 10.545 0 0" style="fill:#eceaec;fill-opacity:1;fill-rule:evenodd;stroke:none" transform="translate(43.812 485.338)"/><path d="M0 0h157.465c3.572 0 6.492 2.919 6.492 6.491v157.465c0 3.572-2.92 6.492-6.492 6.492H0c-3.572 0-6.491-2.92-6.491-6.492V6.491C-6.491 2.919-3.572 0 0 0" style="fill:#9fd4fe;fill-opacity:1;fill-rule:evenodd;stroke:none" transform="translate(130.496 318.547)"/><path d="M82.136 335.81h41.868v36.142H82.136Zm0 99.779h41.868v36.142H82.136Z" style="fill:#c8c5c9;fill-opacity:1;fill-rule:evenodd;stroke:none"/><path d="M0 0v157.465c0 3.572-2.92 6.492-6.491 6.492h-30.927c3.544 0 6.464-2.92 6.464-6.492V0c0-3.572-2.92-6.491-6.464-6.491h30.927C-2.92-6.491 0-3.572 0 0" style="fill:#72bffc;fill-opacity:1;fill-rule:evenodd;stroke:none" transform="translate(294.452 325.038)"/><path d="M0 0c0 11.679-9.581 21.232-21.26 21.232h-30.302c11.679 0 21.231-9.553 21.231-21.232v-16.923a4.344 4.344 0 0 0-4.28-4.337h30.246C-1.956-21.26 0-19.304 0-16.923z" style="fill:#5d5360;fill-opacity:1;fill-rule:evenodd;stroke:none" transform="translate(118.477 28.845)"/><path d="M0 0h68.457c11.679 0 21.26-9.553 21.26-21.232v-16.923c0-2.381-1.956-4.337-4.365-4.337H-16.923c-2.381 0-4.337 1.956-4.337 4.337v16.923C-21.26-9.553-11.707 0 0 0" style="fill:none;stroke:#000;stroke-width:15;stroke-linecap:round;stroke-linejoin:round;stroke-miterlimit:10;stroke-dasharray:none;stroke-opacity:1" transform="translate(28.76 50.077)"/><path d="M0 0h157.465c3.572 0 6.492 2.919 6.492 6.491v157.465c0 3.572-2.92 6.492-6.492 6.492H0c-3.572 0-6.491-2.92-6.491-6.492V6.491C-6.491 2.919-3.572 0 0 0" style="fill:none;stroke:#000;stroke-width:15;stroke-linecap:round;stroke-linejoin:round;stroke-miterlimit:10;stroke-dasharray:none;stroke-opacity:1" transform="translate(130.496 318.547)"/><path d="M0 0v275.67c0 10.545 8.617 19.163 19.162 19.163s19.162-8.618 19.162-19.163v-435.261H0v125.377" style="fill:none;stroke:#000;stroke-width:15;stroke-linecap:round;stroke-linejoin:round;stroke-miterlimit:10;stroke-dasharray:none;stroke-opacity:1" transform="translate(43.812 209.667)"/><path d="M82.136 435.589h41.868v36.142H82.136Zm0-99.779h41.868v36.142H82.136Z" style="fill:none;stroke:#000;stroke-width:15;stroke-linecap:round;stroke-linejoin:round;stroke-miterlimit:10;stroke-dasharray:none;stroke-opacity:1"/><path d="M0 0h242.505c7.795 0 8.051 3.09 8.051 11.367v65.339c0 11.423.538 10.828-4.367 21.146l-13.776 29.027-139.805 19.502-139.805-19.502-13.748-29.027c-4.904-10.318-4.394-9.723-4.394-21.146V11.367C-65.339 3.09-65.055 0-57.26 0Z" style="fill:#ff8086;fill-opacity:1;fill-rule:evenodd;stroke:none" transform="translate(237.617 45.91)"/><path d="M0 0c0-12.756 10.347-23.187 23.018-23.187h11.423L61.824 0l-5.386 23.187h-33.42C10.347 23.187 0 12.756 0 0" style="fill:#ff8086;fill-opacity:1;fill-rule:evenodd;stroke:none" transform="translate(155.979 195.976)"/><path d="m0 0-1.531-21.458 23.499-24.917H33.42c12.643 0 23.018 10.432 23.018 23.188S46.063 0 33.42 0Z" style="fill:#ff8086;fill-opacity:1;fill-rule:evenodd;stroke:none" transform="translate(448.063 219.164)"/><path d="M0 0h279.61l-21.968 46.375-11.85 25.002c-12.16 25.653-14.542 25.342-43.568 25.256H77.386c-28.999.086-31.38.397-43.54-25.256L21.997 46.375Z" style="fill:#9fd4fe;fill-opacity:1;fill-rule:evenodd;stroke:none" transform="translate(190.42 172.789)"/><path d="M0 0c-12.16 25.653-14.542 25.342-43.568 25.256h-16.98C-39.77 25.086-36.68 22.734-25.88 0l11.849-25.002L6.123-67.493l1.814-3.884h25.88L11.85-25.002Z" style="fill:#72bffc;fill-opacity:1;fill-rule:evenodd;stroke:none" transform="translate(436.213 244.166)"/><path d="M0 0h33.42c12.643 0 23.018-10.432 23.018-23.187S46.063-46.375 33.42-46.375H21.968" style="fill:none;stroke:#000;stroke-width:15;stroke-linecap:round;stroke-linejoin:round;stroke-miterlimit:10;stroke-dasharray:none;stroke-opacity:1" transform="translate(448.063 219.164)"/><path d="M0 0h132.605c7.795 0 8.051 3.09 8.051 11.367v65.339c0 11.423.538 10.828-4.366 21.146L88.696 198.256c-12.16 25.653-14.542 25.342-43.568 25.256H-79.71c-28.999.086-31.38.397-43.54-25.256l-47.594-100.404c-4.905-10.318-4.394-9.723-4.394-21.146V11.367c0-8.277.283-11.367 8.079-11.367h133.03" style="fill:none;stroke:#000;stroke-width:15;stroke-linecap:round;stroke-linejoin:round;stroke-miterlimit:10;stroke-dasharray:none;stroke-opacity:1" transform="translate(347.517 45.91)"/><path d="M0 0h279.61" style="fill:none;stroke:#000;stroke-width:15;stroke-linecap:round;stroke-linejoin:round;stroke-miterlimit:10;stroke-dasharray:none;stroke-opacity:1" transform="translate(190.42 172.789)"/><path d="M0 0h-33.42c-12.671 0-23.018-10.432-23.018-23.187s10.347-23.188 23.018-23.188h11.423" style="fill:none;stroke:#000;stroke-width:15;stroke-linecap:round;stroke-linejoin:round;stroke-miterlimit:10;stroke-dasharray:none;stroke-opacity:1" transform="translate(212.417 219.164)"/><path d="M0 0h-76.054m0 33.902H0" style="fill:none;stroke:#000;stroke-width:15;stroke-linecap:round;stroke-linejoin:round;stroke-miterlimit:10;stroke-dasharray:none;stroke-opacity:1" transform="translate(368.267 86.162)"/><path d="M0 0c0-13.267 10.743-24.01 23.98-24.01 13.267 0 24.01 10.743 24.01 24.01 0 13.266-10.743 24.009-24.01 24.009C10.743 24.009 0 13.266 0 0" style="fill:#9fd4fe;fill-opacity:1;fill-rule:evenodd;stroke:none" transform="translate(400.639 110.171)"/><path d="M0 0c0-13.267 10.772-24.01 24.01-24.01 13.266 0 24.009 10.743 24.009 24.01 0 13.266-10.743 24.009-24.009 24.009C10.772 24.009 0 13.266 0 0" style="fill:#9fd4fe;fill-opacity:1;fill-rule:evenodd;stroke:none" transform="translate(211.822 110.171)"/><path d="M0 0c0 13.266-10.743 24.009-24.009 24.009-3.175 0-6.208-.623-8.986-1.729C-24.18 18.708-17.972 10.091-17.972 0c0-10.063-6.208-18.709-15.023-22.252a23.7 23.7 0 0 1 8.986-1.758C-10.743-24.01 0-13.267 0 0" style="fill:#72bffc;fill-opacity:1;fill-rule:evenodd;stroke:none" transform="translate(259.84 110.171)"/><path d="M0 0c0 13.266-10.743 24.009-24.01 24.009-3.175 0-6.208-.623-8.985-1.729C-24.18 18.708-17.972 10.091-17.972 0c0-10.063-6.208-18.709-15.023-22.252a23.7 23.7 0 0 1 8.985-1.758C-10.743-24.01 0-13.267 0 0" style="fill:#72bffc;fill-opacity:1;fill-rule:evenodd;stroke:none" transform="translate(448.629 110.171)"/><path d="M0 0c13.21 0 23.981 10.8 23.981 24.01C23.981 37.248 13.21 48.019 0 48.019c-13.237 0-24.009-10.771-24.009-24.009C-24.009 10.8-13.237 0 0 0" style="fill:none;stroke:#000;stroke-width:15;stroke-linecap:round;stroke-linejoin:round;stroke-miterlimit:10;stroke-dasharray:none;stroke-opacity:1" transform="translate(424.647 86.162)"/><path d="M0 0c13.238 0 24.009 10.8 24.009 24.01 0 13.238-10.771 24.009-24.009 24.009-13.209 0-23.981-10.771-23.981-24.009C-23.981 10.8-13.209 0 0 0" style="fill:none;stroke:#000;stroke-width:15;stroke-linecap:round;stroke-linejoin:round;stroke-miterlimit:10;stroke-dasharray:none;stroke-opacity:1" transform="translate(235.832 86.162)"/><path d="M180.357 26.719h57.26V45.91h-57.26zm242.477 0h57.288V45.91h-57.288z" style="fill:#5d5360;fill-opacity:1;fill-rule:evenodd;stroke:none"/><path d="M0 0v-27.156C0-33.335-5.045-38.41-11.225-38.41h-34.781c-6.18 0-11.254 5.075-11.254 11.254V0Z" style="fill:none;stroke:#000;stroke-width:15;stroke-linecap:round;stroke-linejoin:round;stroke-miterlimit:10;stroke-dasharray:none;stroke-opacity:1" transform="translate(237.617 45.91)"/><path d="M0 0v-27.156C0-33.335-5.074-38.41-11.254-38.41h-34.781c-6.18 0-11.253 5.075-11.253 11.254V0Z" style="fill:none;stroke:#000;stroke-width:15;stroke-linecap:round;stroke-linejoin:round;stroke-miterlimit:10;stroke-dasharray:none;stroke-opacity:1" transform="translate(480.122 45.91)"/><path d="M0 0v-110.541" style="fill:none;stroke:#000;stroke-width:15;stroke-linecap:round;stroke-linejoin:round;stroke-miterlimit:10;stroke-dasharray:none;stroke-opacity:1" transform="translate(180.53 459.041)"/><path d="M0 0c0-17.228-14.577-31.195-31.806-31.195-8.544 0-30.565-.138-30.565-.138S-62.508-8.684-62.508 0c0 7.133-.077 31.195-.077 31.195h30.779C-14.577 31.195 0 17.229 0 0" style="fill:none;stroke:#000;stroke-width:15;stroke-linecap:round;stroke-linejoin:round;stroke-miterlimit:10;stroke-dasharray:none;stroke-opacity:1" transform="translate(243.114 427.846)"/></g></svg>