<svg xmlns="http://www.w3.org/2000/svg" xml:space="preserve" width="682.667" height="682.667" viewBox="0 0 682.667 682.667"><defs><clipPath id="a" clipPathUnits="userSpaceOnUse"><path d="M0 512h512V0H0Z"/></clipPath></defs><g clip-path="url(#a)" transform="matrix(1.33333 0 0 -1.33333 0 682.667)"><path d="M0 0h68.457c11.679 0 21.26-9.553 21.26-21.232v-16.923c0-2.381-1.956-4.337-4.365-4.337H-16.923c-2.381 0-4.337 1.956-4.337 4.337v16.923C-21.26-9.553-11.707 0 0 0" style="fill:none;stroke:#000;stroke-width:15;stroke-linecap:round;stroke-linejoin:round;stroke-miterlimit:10;stroke-dasharray:none;stroke-opacity:1" transform="translate(28.76 50.077)"/><path d="M0 0h157.465c3.572 0 6.492 2.919 6.492 6.491v157.465c0 3.572-2.92 6.492-6.492 6.492H0c-3.572 0-6.491-2.92-6.491-6.492V6.491C-6.491 2.919-3.572 0 0 0" style="fill:none;stroke:#000;stroke-width:15;stroke-linecap:round;stroke-linejoin:round;stroke-miterlimit:10;stroke-dasharray:none;stroke-opacity:1" transform="translate(130.496 318.547)"/><path d="M0 0v275.67c0 10.545 8.617 19.163 19.162 19.163s19.162-8.618 19.162-19.163v-435.261H0v125.377" style="fill:none;stroke:#000;stroke-width:15;stroke-linecap:round;stroke-linejoin:round;stroke-miterlimit:10;stroke-dasharray:none;stroke-opacity:1" transform="translate(43.812 209.667)"/><path d="M82.136 435.589h41.868v36.142H82.136Zm0-99.779h41.868v36.142H82.136Z" style="fill:none;stroke:#000;stroke-width:15;stroke-linecap:round;stroke-linejoin:round;stroke-miterlimit:10;stroke-dasharray:none;stroke-opacity:1"/><path d="M0 0h33.42c12.643 0 23.018-10.432 23.018-23.187S46.063-46.375 33.42-46.375H21.968" style="fill:none;stroke:#000;stroke-width:15;stroke-linecap:round;stroke-linejoin:round;stroke-miterlimit:10;stroke-dasharray:none;stroke-opacity:1" transform="translate(448.063 219.164)"/><path d="M0 0h132.605c7.795 0 8.051 3.09 8.051 11.367v65.339c0 11.423.538 10.828-4.366 21.146L88.696 198.256c-12.16 25.653-14.542 25.342-43.568 25.256H-79.71c-28.999.086-31.38.397-43.54-25.256l-47.594-100.404c-4.905-10.318-4.394-9.723-4.394-21.146V11.367c0-8.277.283-11.367 8.079-11.367h133.03" style="fill:none;stroke:#000;stroke-width:15;stroke-linecap:round;stroke-linejoin:round;stroke-miterlimit:10;stroke-dasharray:none;stroke-opacity:1" transform="translate(347.517 45.91)"/><path d="M0 0h279.61" style="fill:none;stroke:#000;stroke-width:15;stroke-linecap:round;stroke-linejoin:round;stroke-miterlimit:10;stroke-dasharray:none;stroke-opacity:1" transform="translate(190.42 172.789)"/><path d="M0 0h-33.42c-12.671 0-23.018-10.432-23.018-23.187s10.347-23.188 23.018-23.188h11.423" style="fill:none;stroke:#000;stroke-width:15;stroke-linecap:round;stroke-linejoin:round;stroke-miterlimit:10;stroke-dasharray:none;stroke-opacity:1" transform="translate(212.417 219.164)"/><path d="M0 0h-76.054m0 33.902H0" style="fill:none;stroke:#000;stroke-width:15;stroke-linecap:round;stroke-linejoin:round;stroke-miterlimit:10;stroke-dasharray:none;stroke-opacity:1" transform="translate(368.267 86.162)"/><path d="M0 0c13.21 0 23.981 10.8 23.981 24.01C23.981 37.248 13.21 48.019 0 48.019c-13.237 0-24.009-10.771-24.009-24.009C-24.009 10.8-13.237 0 0 0" style="fill:none;stroke:#000;stroke-width:15;stroke-linecap:round;stroke-linejoin:round;stroke-miterlimit:10;stroke-dasharray:none;stroke-opacity:1" transform="translate(424.647 86.162)"/><path d="M0 0c13.238 0 24.009 10.8 24.009 24.01 0 13.238-10.771 24.009-24.009 24.009-13.209 0-23.981-10.771-23.981-24.009C-23.981 10.8-13.209 0 0 0" style="fill:none;stroke:#000;stroke-width:15;stroke-linecap:round;stroke-linejoin:round;stroke-miterlimit:10;stroke-dasharray:none;stroke-opacity:1" transform="translate(235.832 86.162)"/><path d="M0 0v-27.156C0-33.335-5.045-38.41-11.225-38.41h-34.781c-6.18 0-11.254 5.075-11.254 11.254V0Z" style="fill:none;stroke:#000;stroke-width:15;stroke-linecap:round;stroke-linejoin:round;stroke-miterlimit:10;stroke-dasharray:none;stroke-opacity:1" transform="translate(237.617 45.91)"/><path d="M0 0v-27.156C0-33.335-5.074-38.41-11.254-38.41h-34.781c-6.18 0-11.253 5.075-11.253 11.254V0Z" style="fill:none;stroke:#000;stroke-width:15;stroke-linecap:round;stroke-linejoin:round;stroke-miterlimit:10;stroke-dasharray:none;stroke-opacity:1" transform="translate(480.122 45.91)"/><path d="M0 0v-110.541" style="fill:none;stroke:#000;stroke-width:15;stroke-linecap:round;stroke-linejoin:round;stroke-miterlimit:10;stroke-dasharray:none;stroke-opacity:1" transform="translate(180.53 459.041)"/><path d="M0 0c0-17.228-14.577-31.195-31.806-31.195-8.544 0-30.565-.138-30.565-.138S-62.508-8.684-62.508 0c0 7.133-.077 31.195-.077 31.195h30.779C-14.577 31.195 0 17.229 0 0" style="fill:none;stroke:#000;stroke-width:15;stroke-linecap:round;stroke-linejoin:round;stroke-miterlimit:10;stroke-dasharray:none;stroke-opacity:1" transform="translate(243.114 427.846)"/></g></svg>