<svg xmlns="http://www.w3.org/2000/svg" viewBox="0 0 512 512"><path fill="#283b64" d="M256 458.771c-15.55 0-29.758-7.182-38.979-19.703-26.726-36.298-50.319-70.996-70.125-103.133C103.091 264.869 80.88 211.1 80.88 176.12 80.88 79.559 159.438 1 256 1s175.12 78.559 175.12 175.12c0 16.44-4.926 37.169-14.641 61.61a7.5 7.5 0 0 1-13.939-5.541c9.011-22.67 13.58-41.534 13.58-56.069C416.12 87.83 344.291 16 256 16S95.88 87.83 95.88 176.12c0 31.705 22.057 84.247 63.785 151.944 19.315 31.34 43.325 66.648 69.434 102.108 6.364 8.642 16.17 13.598 26.901 13.598s20.537-4.956 26.901-13.598c26.108-35.46 50.118-70.769 69.434-102.107 9.214-14.949 17.539-29.259 24.743-42.532a7.497 7.497 0 0 1 10.169-3.015 7.5 7.5 0 0 1 3.015 10.169c-7.335 13.515-15.799 28.065-25.157 43.248-19.806 32.136-43.399 66.834-70.125 103.132-9.222 12.522-23.43 19.704-38.98 19.704"/><path fill="#ebaf55" d="M256 256c-51.694 0-93.75-42.056-93.75-93.75S204.306 68.5 256 68.5s93.75 42.056 93.75 93.75S307.694 256 256 256m0-172.5c-43.423 0-78.75 35.327-78.75 78.75S212.577 241 256 241s78.75-35.327 78.75-78.75S299.423 83.5 256 83.5"/><path fill="#283b64" d="M96.527 463.85a7.47 7.47 0 0 1-4.977-1.892c-17.532-15.569-26.8-33.623-26.8-52.208 0-34.543 32.182-66.259 86.086-84.841a7.5 7.5 0 1 1 4.889 14.181c-47.573 16.398-75.975 42.813-75.975 70.659 0 14.176 7.524 28.351 21.76 40.991a7.5 7.5 0 0 1 .629 10.588 7.48 7.48 0 0 1-5.612 2.522M256 511c-39.779 0-77.853-6.288-110.105-18.183a7.501 7.501 0 0 1 5.192-14.074C181.694 490.033 217.973 496 256 496c47.919 0 92.852-9.46 126.521-26.638 32.068-16.361 49.729-37.531 49.729-59.612 0-27.846-28.401-54.261-75.975-70.659a7.5 7.5 0 0 1 4.889-14.181c53.904 18.582 86.086 50.298 86.086 84.841 0 28.005-20.566 53.921-57.911 72.974C353.598 500.958 306.244 511 256 511"/><circle cx="396.867" cy="262.167" r="7.5" fill="#283b64"/><circle cx="121.133" cy="473.5" r="7.5" fill="#283b64"/></svg>