<svg xmlns="http://www.w3.org/2000/svg" xml:space="preserve" viewBox="0 0 512 512"><path d="M256 7.502c-104.971 0-190.066 85.095-190.066 190.066C65.934 357.419 256 504.498 256 504.498s190.066-147.078 190.066-306.93C446.066 92.597 360.971 7.502 256 7.502m0 265.874c-41.867 0-75.807-33.94-75.807-75.807s33.94-75.807 75.807-75.807 75.807 33.94 75.807 75.807-33.94 75.807-75.807 75.807" style="fill:#ff4a4a"/><path d="M256 7.502c-6.074 0-12.078.297-18.005.854 96.524 9.072 172.061 90.315 172.061 189.212 0 129.458-124.656 250.533-172.061 291.896C249.124 499.175 256 504.498 256 504.498s190.066-147.078 190.066-306.93C446.066 92.597 360.971 7.502 256 7.502" style="fill:#e7343f"/><path d="M256 512a7.5 7.5 0 0 1-4.591-1.568c-3.735-2.891-92.121-71.889-148.324-167.831a7.5 7.5 0 0 1 2.681-10.265 7.5 7.5 0 0 1 10.265 2.681c47.547 81.166 121 144.29 139.972 159.855 12.984-10.638 51.454-43.491 89.471-88.94 27.154-32.463 48.764-64.903 64.232-96.42 19.149-39.018 28.858-76.681 28.858-111.94 0-27.777-6.076-54.447-18.058-79.267a7.504 7.504 0 0 1 13.513-6.524c12.972 26.872 19.55 55.735 19.55 85.79 0 37.618-10.251 77.556-30.467 118.703-16.03 32.627-38.342 66.111-66.317 99.521-47.491 56.721-94.228 93.115-96.194 94.638A7.5 7.5 0 0 1 256 512M95.301 319.778a7.5 7.5 0 0 1-6.746-4.209c-19.988-40.897-30.123-80.598-30.123-118.001C58.432 88.629 147.061 0 256 0c64.705 0 125.404 31.767 162.369 84.979a7.5 7.5 0 0 1-1.882 10.441 7.5 7.5 0 0 1-10.441-1.882C371.884 44.363 315.793 15.004 256 15.004c-100.667 0-182.564 81.897-182.564 182.564 0 35.099 9.622 72.584 28.598 111.412a7.503 7.503 0 0 1-6.733 10.798M256 280.878c-45.937 0-83.31-37.372-83.31-83.31 0-15.418 4.246-30.479 12.279-43.554a7.502 7.502 0 1 1 12.784 7.854c-6.581 10.71-10.059 23.056-10.059 35.7 0 37.663 30.641 68.305 68.305 68.305s68.305-30.641 68.305-68.305-30.641-68.305-68.305-68.305c-14.353 0-28.086 4.4-39.714 12.725a7.503 7.503 0 0 1-8.735-12.2c14.19-10.159 30.943-15.529 48.448-15.529 45.937 0 83.31 37.372 83.31 83.31.002 45.937-37.37 83.309-83.308 83.309"/></svg>