<svg xmlns="http://www.w3.org/2000/svg" viewBox="0 0 512 512"><path fill="#04f2c8" d="M358.705 331.995h-205.44c-48.88 16.85-81.03 45.38-81.03 77.75 0 51.78 82.27 93.75 183.75 93.75s183.75-41.97 183.75-93.75c0-32.37-32.15-60.899-81.03-77.75"/><path fill="#ff3980" d="M255.985 8.495c92.58 0 167.62 75.05 167.62 167.62 0 39.27-30.16 99.52-64.9 155.88-23.87 38.73-49.9 75.62-69.78 102.62-16.35 22.2-49.53 22.2-65.88 0-19.88-27-45.91-63.89-69.78-102.62-34.74-56.36-64.9-116.61-64.9-155.88 0-92.57 75.04-167.62 167.62-167.62m86.25 153.75c0-47.63-38.62-86.25-86.25-86.25s-86.25 38.62-86.25 86.25 38.62 86.25 86.25 86.25 86.25-38.619 86.25-86.25"/><path d="M217.005 439.063c-26.726-36.298-50.319-70.996-70.125-103.133-43.805-71.065-66.016-124.835-66.016-159.814 0-96.562 78.559-175.12 175.12-175.12s175.12 78.559 175.12 175.12c0 16.44-4.926 37.169-14.641 61.61a7.5 7.5 0 0 1-13.939-5.541c9.011-22.67 13.58-41.534 13.58-56.069 0-88.29-71.829-160.12-160.12-160.12s-160.12 71.83-160.12 160.12c0 31.705 22.057 84.247 63.785 151.944 19.315 31.34 43.325 66.648 69.434 102.108 13.364 18.146 40.437 18.149 53.803 0 32.338-43.921 68.157-96.699 94.177-144.64a7.497 7.497 0 0 1 10.169-3.015 7.5 7.5 0 0 1 3.015 10.169c-26.511 48.846-62.459 101.8-95.282 146.38-19.365 26.294-58.593 26.298-77.96.001"/><path d="M255.985 255.995c-51.694 0-93.75-42.056-93.75-93.75s42.056-93.75 93.75-93.75 93.75 42.056 93.75 93.75-42.056 93.75-93.75 93.75m0-172.5c-43.423 0-78.75 35.327-78.75 78.75s35.327 78.75 78.75 78.75 78.75-35.327 78.75-78.75-35.328-78.75-78.75-78.75M91.535 461.953c-17.533-15.569-26.801-33.623-26.801-52.208 0-34.543 32.182-66.259 86.086-84.841a7.5 7.5 0 1 1 4.889 14.181c-47.573 16.398-75.975 42.813-75.975 70.659 0 14.176 7.524 28.351 21.76 40.991a7.5 7.5 0 0 1 .629 10.588 7.5 7.5 0 0 1-10.588.63m54.344 30.86a7.501 7.501 0 0 1 5.192-14.074c68.237 25.169 167.142 23.421 231.436-9.381 78.064-39.828 60.393-100.407-26.246-130.271a7.5 7.5 0 0 1 4.889-14.181c102.303 35.266 115.681 113.17 28.175 157.814-67.199 34.282-170.217 37.099-243.446 10.093"/><circle cx="396.851" cy="262.162" r="7.5"/><circle cx="121.118" cy="473.495" r="7.5"/></svg>