<svg xmlns="http://www.w3.org/2000/svg" viewBox="0 0 512 512"><path fill="#04f2c8" d="M358.72 332H153.28c-48.88 16.85-81.03 45.38-81.03 77.75 0 51.78 82.27 93.75 183.75 93.75s183.75-41.97 183.75-93.75c0-32.37-32.15-60.9-81.03-77.75"/><path fill="#ff3980" d="M256 8.5c92.58 0 167.62 75.05 167.62 167.62 0 39.27-30.16 99.52-64.9 155.88-23.87 38.73-49.9 75.62-69.78 102.62-16.35 22.2-49.53 22.2-65.88 0-19.88-27-45.91-63.89-69.78-102.62-34.74-56.36-64.9-116.61-64.9-155.88C88.38 83.55 163.42 8.5 256 8.5m86.25 153.75C342.25 114.62 303.63 76 256 76s-86.25 38.62-86.25 86.25S208.37 248.5 256 248.5s86.25-38.62 86.25-86.25"/></svg>