<svg xmlns="http://www.w3.org/2000/svg" width="512" height="512" viewBox="0 0 512 512"><path fill="#f5f8f9" d="M213 10.5v90.481l-3 8.061.106 103.319L207 224.23l2.851 11.111.149 142.468 3 8.582v92.354h-30v-70.079l3.078-7.656L186 114.404l-3-6.221V10.5a3 3 0 0 1 3-3h24a3 3 0 0 1 3 3"/><path fill="#e8edf2" d="M213 100.981c-10.29-2.926-22.123-.115-30 7.202v300.483l30-22.276V239.659l-6-10.43 6-13.4zM235.851 504.5h-75.702a3 3 0 0 1-3-3v-7c0-11.046 8.954-20 20-20h41.702c11.046 0 20 8.954 20 20v7a3 3 0 0 1-3 3"/><path fill="#f4aa73" d="m251.213 168.447 49.106 25.447c2.766 1.258 4.512 4.719 5.277 7.66 1.845 7.099 5.36 18.026 21.957 16.17 9.229-1.032 20.672 1.752 28.851 4.787 7.949 2.95 12.085-8.872 12.085-8.872-.109-.974 1.191-2.783.977-3.726a26.26 26.26 0 0 0-13.158-17.326l-56.457-30.458z"/><path fill="#ea9f6c" d="M369.955 212.789a26 26 0 0 0-.488-2.877c-8.964-4.159-22.831-7.495-35.275-6.104-12.308 1.062-16.757-3.563-18.746-9.223-1.686-4.797-4.908-8.902-9.326-11.418l-29.178-16.622-30.155 5.816 50.884 23.14c2.766 1.258 4.788 3.705 5.553 6.646 1.845 7.099 7.495 19.902 24.092 18.046 8.947-1.001 18.975 1.467 27.389 4.55 7.775 2.849 15.885-3.347 15.275-11.605z"/><path fill="#fbbd80" d="M177.374 214.962c20.797-5.889 36.326-27.194 51.316-42.767a25.42 25.42 0 0 1 19.278-7.773l11.049.419c17.957.849 38.468-4.2 53.643-12.78l58.894-28.55c3.163-1.689 10.938-.773 14.043 1.021 6.502 3.757 15.804 4.368 26.043-8 5.93-7.163 31.76-18.001 25.24-23.399a26.26 26.26 0 0 0-23.85-5.053l-159.286 38.904-67.89 36.357z"/><path fill="#f4aa73" d="M436.878 93.133c-1.129-.935-18.574 5.251-27.373 14.797-7.728 8.385-13.774 7.255-20.33 5.358-9.685-2.802-20.099-1.478-28.993 3.272l-44.084 23.545c-15.176 8.58-35.687 13.628-53.643 12.78l-6.219-.079c-2.46-.031-4.295-2.251-3.887-4.676 1.724-10.252 1.392-21.146 1.392-21.146l-18.971 4.633-48.92 31.723-8.477 51.621c20.797-5.889 39.765-17.15 54.754-32.723 4.279-4.447 10.176-7.242 16.333-7.709a25 25 0 0 1 2.944-.064l11.049.419c17.957.849 38.468-4.2 53.643-12.78l56.046-29.934c3.221-1.721 7.084-1.609 10.255.202 6.543 3.736 18.797 7.972 28.952-4.295 5.93-7.163 14.807-12.308 22.807-15.807 7.758-3.39 9.242-13.739 2.722-19.137"/><path fill="#fbbd80" d="M143.213 214.962c19.047-26.542 35.016-50.332 46.723-63.931 3.974-4.616 16.511-19.095 40.596-20.02l4.239.606-4.638 26.306c-3.409 19.332-7.623 37.808-15.704 54.426a23.8 23.8 0 0 0-1.25 17.678 38.6 38.6 0 0 1 1.739 9.314L161.645 262z"/><path fill="#f4aa73" d="M150.99 219.573c19.047-26.542 42.291-58.129 53.755-71.934 11.872-14.298 30.026-16.021 30.026-16.021l-3.895-2.306a32.06 32.06 0 0 0-40.616 6.664c-11.707 13.599-37.732 44.375-56.78 70.918l7.094 11.767c1.755-2.566 8.499 3.584 10.416.912"/><path fill="#fbbd80" d="m87.979 340.021-.681-22.198c4.428-18.937 9.35-27.579 19.404-44.356 4.356-6.99 24.511-24.979 24.511-24.979l22.01 30.048-4.388 15.659c-1.426 4.695-2.06 13.842-2.29 23.627l-14.311 12.666zm45.872-2.042 13.071 15.055v6.902l-.901 8.101c-1.082.025-12 12.269-12 12.269-9.846-1.076-25.066-9.909-32.553-16.157l4.927-13.424z"/><path fill="#f4aa73" d="M113.846 362.833c-3.059-3.952-5.519-7.995-7.451-12.108l-16.544 7.68 1.252 21.897c7.487 6.248 17.5 10.44 27.346 11.516 0 0 16.323 6.303 17.405 6.278l5.127-17.675c-10.648-2.801-20.419-8.926-27.135-17.588m14.527-105.042L126.675 244l-15.887-1.126s-10.012 15.699-14.368 22.689c-10.055 16.776-19.486 33.323-23.914 52.261l15.473 22.198 13.025-22.198c2.379-16.611 11.26-35.206 27.369-60.033"/><path fill="#fbbd80" d="m281.851 280.297-132.383 84.617-4.809 31.998h13.766l136.046-101.018c6.035-4.481 7.704-12.698 4.111-19.124l-4.519.016z"/><path fill="#f4aa73" d="M156.185 394.335c-6.444-9.203-3.993-21.912 5.411-28.059l136.987-89.506a15 15 0 0 0-.804-1.283c-4.591-6.557-13.557-8.285-20.257-3.906l-141.837 92.712c-9.404 6.147-11.854 18.856-5.411 28.059 5.747 9.594 19.048 11.361 28.152 4.561 0 0-1.687-1.653-2.241-2.578"/><path fill="#fee45a" d="M214.916 239.341a92.2 92.2 0 0 1-59.787-16.825l-4.139-2.943-11.439.698c-10.734 14.957-10.556 13.477-15.232 22.219l4.054 15.302 24.85 20.746s15.965 3.546 30.17.572c8.245-1.726 20.501-7.684 27.031-19.649 3.518-6.447 4.932-13.299 4.492-20.12"/><path fill="#ffd15b" d="m150.99 219.573-15.013-10.674-2.497-2.006c-10.734 14.957-17.9 27.422-22.693 35.981l17.585 14.917c4.244-8.661 22.326-37.814 22.618-38.218"/><path fill="#ff80a7" d="m89 332.787 12.851 23.234 7.737.632a40.04 40.04 0 0 1 24.859-5.109l12.475 1.49c-.177-4.989-.716-20.793-.378-35.211h-45.541l-6.897 4.666z"/><path fill="#ff6498" d="M101.004 317.824H72.506a102 102 0 0 0-.816 3.812c-3.481 17.916.71 36.636 12.156 51.198a50 50 0 0 0 7.257 7.468c2.966-10.297 9.763-18.593 18.489-23.641-7.563-12.408-9.817-25.573-8.588-38.837"/><path fill="#aa846a" d="M113.213 449.298c5.174 14.001 35.756 10.527 40.076 2.771 4.606-8.271 5.199-18.418 2.414-28.084-3.288-11.413-12.296-22.073-23.17-27.834z"/><path fill="#9c775f" d="M148.203 453.44c-11.082 2.331-20.847.102-28.653-5.141a37 37 0 0 1-2.508-1.845 40.6 40.6 0 0 1-5.768-5.671l-10.724 22.516c7.806 5.242 17.571 7.471 28.653 5.141 11.92-2.507 19.767-8.614 24.086-16.371a47 47 0 0 1-5.086 1.371"/><path fill="#fbbd80" d="m132.533 396.151-2.167 16.9a72.16 72.16 0 0 1-13.325 33.402l-8.079 4.016L91 421.596l-1.915-17.617 9.805-9.024c3.408-1.084 7.332-2.027 11.833-2.821 7.368-1.299 14.959.388 21.81 4.017"/><path fill="#f4aa73" d="M102.506 424.646c-3.78-11.646-6.387-21.691-3.616-29.692-25.185 8.011-22.176 23.769-15.384 44.692 3.217 9.91 9.121 18.333 17.043 23.653l.003-.003 6.128-5.438a72 72 0 0 0 10.36-11.404c-6.66-5.326-11.667-12.976-14.534-21.808"/><path d="M441.917 87.355a33.77 33.77 0 0 0-30.53-6.533L344.29 97.21a7.5 7.5 0 0 0-5.506 9.065 7.5 7.5 0 0 0 9.065 5.506c.209-.056 67.098-16.38 67.463-16.482a18.77 18.77 0 0 1 17.039 3.61c1.435 1.188 1.463 2.688 1.353 3.478-.09.644-.495 2.226-2.295 3.013-11.197 4.896-19.803 10.917-25.58 17.895-1.912 2.31-7.734 9.34-19.582 2.493-5.28-3.052-11.94-3.14-17.381-.233-.096.054-55.94 29.872-56.203 30.021-14.259 8.062-33.269 12.584-49.668 11.814l-11.049-.419a32.94 32.94 0 0 0-16.311 3.635 473 473 0 0 0 2.139-11.382l3.788-21.484 72.354-17.672a7.5 7.5 0 0 0 5.506-9.065 7.497 7.497 0 0 0-9.065-5.506l-74.141 18.108c-3.779-2.353-9.052-4.696-15.461-5.793V7.5a7.5 7.5 0 0 0-15 0v110.899c-4.362 1.015-9.815 3.248-15 7.097V7.5a7.5 7.5 0 0 0-15 0v134.214c-26.552 31.372-63.149 77.053-70.511 98.68-4.379 5.544-10.38 13.842-15.003 21.313-11.572 19.309-21.49 37.037-25.659 58.497-3.954 20.349 1.011 41.22 13.622 57.264a58.1 58.1 0 0 0 13.307 12.312c-7.626 3.206-12.925 7.447-16.216 12.922-6.843 11.385-3.274 25.067 1.332 39.26 7.071 21.784 24.212 34.883 44.323 34.883 14.673 0 31.886-7.857 38.519-20.033 5.909-9.824 7.255-22.546 3.695-34.903-1.485-5.153-4.025-10.271-7.362-15a28.2 28.2 0 0 0 7.35-3.975l12.603-9.358v73.477c-14.398.856-25.851 12.837-25.851 27.446v10a7.5 7.5 0 0 0 7.5 7.5h81.702a7.5 7.5 0 0 0 7.5-7.5v-10c0-14.61-11.453-26.59-25.851-27.446v-106.89l27.269-20.248a7.501 7.501 0 0 0-8.943-12.043l-84.92 63.056c-2.937 2.218-6.579 3.111-9.999 2.48-2.203-.406-4.933-1.649-7.49-5.357-1.921-2.786-2.657-6.13-2.017-9.453a12.3 12.3 0 0 1 5.387-8.026l141.837-92.712a7.295 7.295 0 0 1 10.01 1.93 7.29 7.29 0 0 1-1.634 10.084l-23.009 17.084a7.5 7.5 0 0 0-1.55 10.493 7.5 7.5 0 0 0 10.493 1.55l23.009-17.084c9.775-7.259 11.962-20.757 4.979-30.731-6.954-9.933-20.354-12.516-30.504-5.882l-52.918 34.59V254.9c2.79-8.757 2.753-18.003-.18-27.16a16.24 16.24 0 0 1 .852-12.111c3.203-6.586 5.797-13.376 7.966-20.241a128 128 0 0 0 8.393-7.948 17.93 17.93 0 0 1 12.28-5.46l44.755 20.35c.688.313 1.198.935 1.398 1.706 4.304 16.558 16.337 25.384 32.185 23.613 6.55-.734 14.816.664 23.909 4.039a19.1 19.1 0 0 0 6.641 1.201c4.143 0 8.214-1.372 11.604-4.021 5.18-4.049 7.835-10.37 7.104-16.91a33.77 33.77 0 0 0-17.543-25.973l-36.126-19.456 51.938-27.74c.907-.485 1.983-.49 2.809-.012 14.293 8.26 28.738 6.049 38.643-5.915 4.207-5.082 11.135-9.825 20.035-13.717 6.056-2.649 10.22-8.132 11.139-14.669.917-6.52-1.566-12.919-6.64-17.121M231.607 494.5v2.5h-66.702v-2.5c0-6.893 5.607-12.5 12.5-12.5h41.702c6.893 0 12.5 5.607 12.5 12.5M205.756 467h-15v-84.561l15-11.138zm1.938-333.607a24.62 24.62 0 0 1 19.043 2.044l-3.735 21.184c-3.085 17.496-7.045 35.96-15.063 52.449-3.488 7.174-4.098 15.307-1.738 22.94a84 84 0 0 1-17.098-2.258 7.5 7.5 0 0 0-3.486 14.59 99.2 99.2 0 0 0 21.663 2.699c-.574 3.026-1.634 5.986-3.185 8.827-5.138 9.415-15.054 14.45-21.984 15.901-9.9 2.072-21.133.499-25.317-.232l-35.892-29.969c2.758-6.128 7.844-14.401 14.475-23.978l15.666 11.042.237.168a7.47 7.47 0 0 0 4.314 1.37 7.5 7.5 0 0 0 4.326-13.631l-15.806-11.141c14.806-20.052 34.037-43.566 52.084-64.529a24.5 24.5 0 0 1 11.496-7.476m-89.241 250.871c-6.458-.753-12.667-3.059-18.119-6.62a32.5 32.5 0 0 1 30.411-18.875c-5.662 4.094-9.484 10.077-10.817 16.988a27.5 27.5 0 0 0-.291 8.61c-.394-.037-.788-.078-1.184-.103m36.192-41.157c-.847-32.871.604-43.382 1.622-46.731l.045-.156 2.58-9.207c3.309.414 7.533.78 12.152.78a82 82 0 0 0 4.712-.137v41.651zm-51.571-73.63a214 214 0 0 1 10.121-14.805l31.754 26.513-3.06 10.919c-1.098 3.672-1.832 9.713-2.204 18.22H82.692c4.652-13.945 12.046-26.937 20.382-40.847m-24.143 55.847h60.464q-.003 8.627.285 19.319l-3.983-.533-.105-.014c-19.126-2.281-37.111 6.971-46.546 22.82-8.752-11.834-12.385-26.786-10.115-41.592m9.222 85.106c2.969-4.939 11.087-8.61 24.129-10.909a21.7 21.7 0 0 1 3.787-.328c2.879 0 5.765.555 8.573 1.539l-1.457 11.366a64.66 64.66 0 0 1-21.225 40.15l-1.331 1.181c-4.632-4.551-7.879-10.391-9.732-16.098-4.201-12.94-5.997-21.49-2.744-26.901m58.464 38.652c-3.694 6.142-9.986 10.186-18.701 12.019-2.468.519-4.815.761-7.048.76-2.271 0-4.416-.259-6.444-.722a79.67 79.67 0 0 0 23.639-47.133l.549-4.283c4.797 4.738 8.475 10.557 10.141 16.339 2.409 8.366 1.631 16.756-2.136 23.02m44.139-129.579v-34.621a51.2 51.2 0 0 0 15-8.271v33.087zm172.001-105.88c.206 1.844-.81 2.938-1.434 3.425-.517.403-1.92 1.267-3.789.575-11.442-4.246-21.804-5.888-30.795-4.883-3.067.342-12.397 1.386-16-12.479-1.343-5.169-4.881-9.392-9.707-11.587l-16.943-7.704c7.943-1.321 15.87-3.488 23.264-6.369l45.655 24.588a18.76 18.76 0 0 1 9.749 14.434"/></svg>