<svg xmlns="http://www.w3.org/2000/svg" viewBox="0 0 300 300"><path fill="#ce8971" d="M166.7 135.8s2.3 10.8 5.1 23.9-7.1 8.7-7.1 8.7l-6.1-18.4z"/><path fill="#db9f85" d="M166.4 121.7c-6.6 9.8-7.3 1.6-7.3 1.6.3-1 .8-2.2 1.3-3.4l-10-3.6s-.9 1.5-2.1 3.3c-1.8 2.5-5.8 1.3-5.9-1.8-.1-2.1.4-4.9 2-9l-11.4-1.1c-.5-.1-1 .2-1.3.7-1.5 2.9-6.3 13.8-6.1 29.4 0 0 1.1 13.1 3.7 27.7 3.1 13.7-2 21.2-2 21.2s5.3-1.1 17.3-3.5l12.7-2.6c2.1-.4 2.9-2.8 1.8-4.5-2.6-3.9-.3-9.6 4.3-23.3z"/><path fill="#e5b092" d="m171.8 92.1-.8 5.7-5.6-3.9z"/><path fill="#f5eb10" d="M163.1 125.1s4.9 8.4 4.1 20l-4.7 11.1s-18.6-11-35.1-3.1c0 0-3-10-1.7-20.4 0 0 11.3-10.6 16.8-14l5.3 1.5s-4.8 1.4-4.5 4.9 5.2 10.7 5.2 10.7 9.5-1.7 11.1-4.1c1.6-2.5-.6-8.3-.6-8.3z"/><path fill="#553c32" d="M164.6 122.3s3 7.9 0 13.9 3.5 9.1 2.8 13.9c0 0-.8-3.5-4.9-5.2s-8.5-5.5-6.1-12.2-2.2-7 0-13.1c2.3-6.3 8.2 2.7 8.2 2.7"/><circle cx="161.2" cy="111.5" r="15.6" fill="#e5b092"/><path fill="#553c32" d="M171.4 123.2s10.1-12.4 4.6-21.6c-.8-1.4-3.8-.7-5.4-2-11.9-10.1-23.4 4.4-23.4 4.4s11.8-23.8 28.4-10.6c17.1 13.6-4.2 29.8-4.2 29.8"/><path fill="#e5b092" d="M152.5 100s-3.2-3.4-6.7 1c-2.9 3.7.4 6.9.4 6.9zm21.7 17.4s4.6 2.8 1.1 7.2c-2.9 3.7-7.4.7-7.4.7z"/><g fill="#553c32"><path d="M178.2 101.3s-11.6 6.4-18.7 2.6-8.3-4.9-8.3-4.9 10.1-16.9 27 2.3"/><path d="M176.3 98s-5.8 13.1-1.5 19.8c4.4-.9 5.4-8.8 5.4-15.8 0-3.7-2.7-3.4-2.7-3.4z"/></g><path fill="#db9f85" d="M138 160.9s-29.4-16.9-41.2-22.4-55.3-33.7-68.5-40.8c-8.1-4.3-24-12.1-23.2-5.6s9.8 8.1 16.4 17.9c6.5 9.7 12 2.9 12 2.9s30.6 32.4 48.7 38.4c0 0 34 40.1 56.5 42.5 0 0 3.7.6 8.2-.1 4.4-.8 8.3-.9 16.5-1.4 8.2-.4 20.9-8.5 37.3-26.9 8.3-9.3 15.7-17.8 15.7-17.8s26-10.3 56.4-38.5c0 0 1.8-2.8 9-1.9 7.9 1 6.1-12.3 6.1-15.3-.1-3 9.6-12.2 6.7-16.4s-16 8.9-20.7 18c0 0-6.2 7.9-13.8 11.8-7.7 3.9-46.7 21.1-53.6 26.3s-34.4 20.4-45.4 25.5c-11.1 5-18.2 6.6-23.1 3.8"/><path fill="#afafab" d="M176.5 20.4h7.4v259.2h-7.4z"/><path fill="#18151d" d="M138 160.9s11.5.5 17.8-1.7c0 0-3.3 24.7 12.7 31.8 0 0-4 3-16.6 2 0 0-9.2 3.3-17.1.2 0 0 6.8-9.9 6.9-19.3s-3.7-13-3.7-13"/><path fill="#e5b092" d="M187.5 176.2s-3.6-5.9-7.3-4.9-9.2 8.1-2 11.9c7.2 3.9 12.9 1.4 9.3-7"/><g fill="#db9f85"><path d="M175.3 54.7C170 58.1 151 83.6 151 83.6c-8.1 8.1-18.3 20.7-21.3 29.5l12.8 2.9c3.9-9.3 17.2-24.7 17.2-24.7 8.6-6.9 23.9-37 23.9-37"/><path d="M174.4 55.4s1.6-7.3 7.9-12.2c7-5.5 6.3 12.5-1.4 16.4z"/></g></svg>