<svg xmlns="http://www.w3.org/2000/svg" xml:space="preserve" width="512" height="512" viewBox="0 0 512 512"><path d="M183.257 144.223V7.5m0 325.787V279.34m0 194.66v-94.915m30-22.553V474m0-220.16v59.851m0-306.191v117.16m98.881-11.876-77.111 18.833m-11.956 59.322a120 120 0 0 0 9.314-8.701h0a25.42 25.42 0 0 1 19.278-7.773l11.049.419c17.957.849 38.468-4.2 53.643-12.78l56.046-29.934c3.163-1.689 6.99-1.684 10.095.11 6.502 3.757 18.873 8.165 29.112-4.203 5.93-7.163 14.807-12.308 22.808-15.806 7.756-3.392 9.241-13.741 2.72-19.139h0a26.26 26.26 0 0 0-23.85-5.053l-67.214 16.416M271.72 312.98l23.009-17.085c6.445-4.786 7.911-13.832 3.306-20.407h0c-4.591-6.556-13.557-8.285-20.257-3.906l-141.837 92.712c-9.404 6.147-11.854 18.856-5.411 28.059h0c6.068 9.828 19.052 11.433 28.152 4.561l84.872-63.02" style="fill:none;stroke:#000;stroke-width:15;stroke-linecap:round;stroke-linejoin:round;stroke-miterlimit:10"/><path d="M155.959 423.985c-5.36-18.603-25.914-35.213-44.979-31.851-37.77 6.66-34.928 23.757-27.217 47.512 6.387 19.675 23.369 33.489 45.696 28.793 24.631-5.18 31.896-25.724 26.5-44.454" style="fill:none;stroke:#000;stroke-width:15;stroke-linecap:round;stroke-linejoin:round;stroke-miterlimit:10"/><path d="m101.026 463.103 5.911-5.245a72.18 72.18 0 0 0 23.685-44.806l2.148-16.747m119.085-221.752 46.073 20.949c2.766 1.258 4.788 3.705 5.553 6.646 1.845 7.099 7.495 19.902 24.092 18.046 9.229-1.032 19.173 1.425 27.352 4.46 7.949 2.95 16.228-3.439 15.286-11.865v0a26.26 26.26 0 0 0-13.646-20.203l-48.222-25.971M111.995 243.9c6.91-23.407 60.216-86.662 78.521-107.924a32.03 32.03 0 0 1 15.007-9.761h0a32.06 32.06 0 0 1 25.609 3.097l3.895 2.306-4.638 26.306c-3.409 19.332-7.623 37.808-15.704 54.426a23.8 23.8 0 0 0-1.25 17.678v0c3.13 9.775 2.376 20.034-2.753 29.433-6.53 11.966-18.786 17.923-27.031 19.649-14.205 2.974-30.17-.572-30.17-.572" style="fill:none;stroke:#000;stroke-width:15;stroke-linecap:round;stroke-linejoin:round;stroke-miterlimit:10"/><path d="m155.603 222.669-.217-.154-21.108-14.877m80.803 31.701a91.9 91.9 0 0 1-27.72-2.293m-69.435 154.713c-13.334-1.457-25.534-8.38-33.824-18.926h0c-11.446-14.561-15.637-33.282-12.156-51.198 3.992-20.549 14.006-38.18 24.73-56.072a220 220 0 0 1 14.233-20.221l1.087-1.442 41.484 34.638-4.388 15.659c-3.527 11.612-1.834 53.535-1.537 61.909m-.735-38.282H72.985" style="fill:none;stroke:#000;stroke-width:15;stroke-linecap:round;stroke-linejoin:round;stroke-miterlimit:10"/><path d="m147.179 353.213-12.475-1.669c-19.543-2.335-37.896 9.84-43.345 28.753h0M239.108 504.5h-81.702v-10c0-11.046 8.954-20 20-20h41.702c11.046 0 20 8.954 20 20z" style="fill:none;stroke:#000;stroke-width:15;stroke-linecap:round;stroke-linejoin:round;stroke-miterlimit:10"/></svg>