<svg xmlns="http://www.w3.org/2000/svg" width="512" height="512" viewBox="0 0 512 512"><path fill="#f5f8f9" d="M211.966 3.091v93.212l-3.091 8.305.11 106.437-3.2 12.226 2.937 11.446.153 146.768 3.091 8.841v95.142h-30.905v-72.194l3.171-7.887-.08-295.256-3.091-6.409V3.091A3.09 3.09 0 0 1 184.152 0h24.724a3.09 3.09 0 0 1 3.09 3.091"/><path fill="#e8edf2" d="M211.966 96.303c-10.6-3.014-22.791-.119-30.905 7.419v309.552l30.905-22.948V239.167l-6.181-10.745 6.181-13.804zM235.598 512H157.43a3 3 0 0 1-3-3v-7.905c0-11.046 8.954-20 20-20h44.168c11.046 0 20 8.954 20 20V509a3 3 0 0 1-3 3"/><path fill="#f4aa73" d="m251.333 165.804 50.588 26.215c2.849 1.296 4.648 4.861 5.436 7.891 1.901 7.313 5.522 18.57 22.62 16.658 9.507-1.063 21.296 1.805 29.722 4.932 8.189 3.039 12.45-9.14 12.45-9.14-.112-1.003 1.227-2.867 1.007-3.839a27.05 27.05 0 0 0-13.555-17.849l-58.161-31.378z"/><path fill="#ea9f6c" d="M373.658 211.485a27 27 0 0 0-.503-2.964c-9.234-4.284-23.52-7.721-36.34-6.288-12.68 1.094-17.262-3.671-19.311-9.501-1.737-4.942-5.056-9.17-9.607-11.763l-30.059-17.123-31.065 5.991 52.42 23.839c2.849 1.296 4.933 3.817 5.72 6.846 1.901 7.313 7.721 20.503 24.82 18.591 9.217-1.031 19.547 1.512 28.216 4.688 8.01 2.935 16.364-3.448 15.736-11.955z"/><path fill="#fbbd80" d="M175.265 213.723c21.425-6.067 37.423-28.015 52.865-44.058a26.2 26.2 0 0 1 19.86-8.008l11.382.432c18.499.874 39.629-4.327 55.263-13.165l60.671-29.412c3.258-1.74 11.268-.796 14.466 1.052 6.698 3.871 16.281 4.5 26.829-8.241 6.109-7.379 32.719-18.544 26.001-24.105a27.05 27.05 0 0 0-24.57-5.206L253.937 123.09l-69.939 37.454z"/><path fill="#f4aa73" d="M442.601 88.217c-1.163-.963-19.135 5.409-28.199 15.244-7.962 8.638-14.19 7.474-20.944 5.52-9.977-2.887-20.706-1.522-29.868 3.371l-45.414 24.256c-15.634 8.839-36.764 14.04-55.263 13.165l-6.406-.081c-2.534-.032-4.424-2.318-4.004-4.817 1.776-10.561 1.434-21.784 1.434-21.784l-19.543 4.773-50.396 32.681-8.733 53.179c21.425-6.067 40.965-17.668 56.407-33.711 4.408-4.581 10.483-7.461 16.826-7.942a26 26 0 0 1 3.033-.066l11.382.432c18.499.874 39.629-4.327 55.263-13.165l57.737-30.837c3.319-1.772 7.297-1.657 10.564.209 6.74 3.849 19.364 8.212 29.826-4.425 6.109-7.379 15.254-12.679 23.496-16.284 7.99-3.495 9.52-14.157 2.802-19.718"/><path fill="#fbbd80" d="M140.073 213.723c19.622-27.343 36.073-51.851 48.134-65.86 4.093-4.755 17.009-19.671 41.821-20.625l4.367.625-4.778 27.1c-3.512 19.915-7.853 38.949-16.178 56.069a24.54 24.54 0 0 0-1.288 18.212 39.7 39.7 0 0 1 1.791 9.595l-54.879 23.343z"/><path fill="#f4aa73" d="M148.085 218.473c19.622-27.344 43.568-59.884 55.377-74.106 12.231-14.729 30.932-16.505 30.932-16.505l-4.013-2.375a33.03 33.03 0 0 0-41.842 6.865c-12.061 14.009-38.871 45.715-58.493 73.058l7.308 12.122c1.808-2.641 8.756 3.694 10.731.941"/><path fill="#fbbd80" d="m83.172 342.557-.701-22.868c4.562-19.509 9.632-28.412 19.99-45.694 4.488-7.201 25.25-25.733 25.25-25.733l22.674 30.955-4.521 16.132c-1.469 4.836-2.122 14.259-2.359 24.34l-14.743 13.048zm47.257-2.104 13.466 15.51v7.11l-.928 8.346c-1.114.025-12.362 12.639-12.362 12.639-10.143-1.108-25.822-10.208-33.536-16.645l5.076-13.83z"/><path fill="#f4aa73" d="M109.819 366.057c-3.151-4.071-5.686-8.237-7.675-12.474l-17.043 7.912 1.289 22.558c7.713 6.437 18.028 10.755 28.171 11.863 0 0 16.816 6.493 17.93 6.467l5.282-18.208c-10.969-2.885-21.034-9.194-27.954-18.118m14.966-108.212-1.749-14.208-16.367-1.16s-10.314 16.173-14.802 23.374c-10.358 17.283-20.074 34.329-24.636 53.838l15.94 22.867L96.59 319.69c2.451-17.113 11.6-36.269 28.195-61.845"/><path fill="#fbbd80" d="m282.896 281.031-136.378 87.171-4.954 32.964h14.182l140.152-104.067c6.217-4.617 7.936-13.081 4.235-19.702l-4.655.017z"/><path fill="#f4aa73" d="M153.437 398.51c-6.638-9.48-4.113-22.573 5.574-28.905l141.121-92.207q-.376-.675-.829-1.322c-4.729-6.754-13.966-8.535-20.868-4.024l-146.118 95.51c-9.687 6.332-12.212 19.425-5.574 28.905 5.921 9.884 19.623 11.704 29.001 4.698.001.001-1.736-1.701-2.307-2.655"/><path fill="#fee45a" d="M213.941 238.838a95 95 0 0 1-61.592-17.333l-4.264-3.032-11.784.719c-11.057 15.409-10.875 13.884-15.692 22.889l4.176 15.764 25.6 21.372s16.447 3.653 31.081.589c8.494-1.778 21.119-7.916 27.847-20.242 3.624-6.64 5.081-13.698 4.628-20.726"/><path fill="#ffd15b" d="m148.085 218.473-15.466-10.996-2.573-2.066c-11.057 15.409-18.44 28.249-23.378 37.067l18.116 15.368c4.373-8.923 23-38.956 23.301-39.373"/><path fill="#ff80a7" d="m84.224 335.105 13.239 23.935 7.97.651a41.26 41.26 0 0 1 25.61-5.264l12.852 1.535c-.183-5.139-.738-21.42-.389-36.274H96.59l-7.105 4.806z"/><path fill="#ff6498" d="M96.59 319.69H67.232a108 108 0 0 0-.841 3.927c-3.586 18.456.731 37.742 12.523 52.743a51.4 51.4 0 0 0 7.476 7.694c3.056-10.608 10.057-19.154 19.047-24.355-7.79-12.783-10.113-26.345-8.847-40.009"/><path fill="#aa846a" d="M109.168 455.132c5.33 14.424 36.836 10.845 41.285 2.855 4.745-8.521 5.356-18.974 2.487-28.931-3.387-11.758-12.667-22.739-23.869-28.674z"/><path fill="#9c775f" d="M145.213 459.399c-11.416 2.401-21.476.105-29.518-5.296a38 38 0 0 1-2.584-1.901 42 42 0 0 1-5.942-5.842l-11.048 23.195c8.042 5.401 18.102 7.697 29.518 5.296 12.279-2.583 20.363-8.874 24.813-16.865a48 48 0 0 1-5.239 1.413"/><path fill="#fbbd80" d="m129.07 400.381-2.232 17.41a74.34 74.34 0 0 1-13.727 34.41l-8.322 4.138-18.505-29.746-1.973-18.149 10.101-9.296c3.511-1.116 7.553-2.088 12.19-2.906 7.592-1.338 15.412.401 22.468 4.139"/><path fill="#f4aa73" d="M98.138 429.736c-3.894-11.997-6.58-22.346-3.725-30.588-25.945 8.253-22.845 24.486-15.849 46.04 3.314 10.209 9.397 18.886 17.557 24.366l.003-.004 6.313-5.602A74.3 74.3 0 0 0 113.11 452.2c-6.861-5.485-12.019-13.366-14.972-22.464"/></svg>