<svg xmlns="http://www.w3.org/2000/svg" width="512" height="512" data-name="Artboard 30" viewBox="0 0 64 64"><path fill="#ccced5" d="M42 4h4v10.166h-4zM19 56V4a2 2 0 0 1 2-2h2a2 2 0 0 1 2 2v52z"/><rect width="60" height="4" x="2" y="58" fill="#393a3a" rx="1"/><path fill="#aaadb9" d="M13 58a4 4 0 0 1 4-4h10a4 4 0 0 1 4 4z"/><circle cx="44" cy="24" r="12" fill="#aae6f9"/><rect width="10" height="4" x="39" y="2" fill="#999ba0" rx="2"/><g fill="#ffc239"><path d="M10 13a5 5 0 0 0 4.993 5A5 5 0 0 0 10 23a5 5 0 0 0-4.993-5A5 5 0 0 0 10 13m23 24h2v4h-2zm0 8h2v4h-2zm-5-3h4v2h-4zm8 0h4v2h-4z"/><circle cx="47" cy="47" r="2"/><path d="M57 34a5 5 0 0 0 4.993 5A5 5 0 0 0 57 44a5 5 0 0 0-4.993-5A5 5 0 0 0 57 34"/></g><path fill="#ebf9ff" d="M46.957 12.382a11.63 11.63 0 0 0-5.985.019 25.4 25.4 0 0 0-2.36 6.214 25.7 25.7 0 0 0-6.23 2.428 11.64 11.64 0 0 0 0 5.914 25.7 25.7 0 0 0 6.23 2.419 25.7 25.7 0 0 0 2.431 6.242 11.63 11.63 0 0 0 5.985-.019 25.4 25.4 0 0 0 2.362-6.223 25.7 25.7 0 0 0 6.21-2.349 11.64 11.64 0 0 0 0-6.055 25.4 25.4 0 0 0-6.214-2.36 25.7 25.7 0 0 0-2.429-6.23M38.2 27.2a24 24 0 0 1-5.084-2.1v-2.2a24 24 0 0 1 5.088-2.1 23 23 0 0 0-.004 6.4m4.653-14.078H45.1a24 24 0 0 1 2.1 5.078 23 23 0 0 0-6.411 0 23.4 23.4 0 0 1 2.065-5.078zm2.292 21.756h-2.247a24 24 0 0 1-2.1-5.089 23 23 0 0 0 3.182.23 23 23 0 0 0 3.236-.246 23.4 23.4 0 0 1-2.07 5.105zm2.545-7.187a21.2 21.2 0 0 1-7.376-.006 21.2 21.2 0 0 1-.007-7.369 21.3 21.3 0 0 1 7.376-.009 21.3 21.3 0 0 1 .008 7.384zm2.107-6.9a23.4 23.4 0 0 1 5.079 2.064v2.294a23.5 23.5 0 0 1-5.084 2.065 23 23 0 0 0 .008-6.425z"/><path fill="#fff" d="M44 12a11.99 11.99 0 0 0-10.755 6.7 15.954 15.954 0 0 0 20.222 12.655A11.986 11.986 0 0 0 44 12" opacity=".5"/></svg>