<svg xmlns="http://www.w3.org/2000/svg" width="512" height="512" viewBox="0 0 512 512"><path fill="#ffe078" d="M140.525 425.555 49.194 144.409l46.56-39.069 274.119 316.074z"/><path fill="#ffe078" d="m371.475 425.555 91.331-281.146-46.56-39.069-274.119 316.074z"/><circle cx="439.526" cy="124.875" r="30.39" fill="#ffc344" transform="rotate(-47.47 439.795 124.796)"/><path fill="#796e79" d="m467.313 148.191-55.849-46.863a5.15 5.15 0 0 1-.635-7.257l16.81-20.033a41.9 41.9 0 0 1 12.993-10.344c14.436-7.379 29.868-.651 43.069 10.426 9.759 8.189 17.411 26.507 17.411 26.507a41.43 41.43 0 0 1-9.733 26.895l-16.81 20.033a5.15 5.15 0 0 1-7.256.636"/><path fill="#665e67" d="M501.112 100.628c-6.387 6.706-15.403 10.899-25.375 10.899-19.316 0-35.026-15.71-35.026-35.026l-.079-12.807c14.412-7.294 32.468-5.829 45.624 5.214 9.756 8.191 14.805 19.904 14.856 31.72"/><circle cx="72.474" cy="124.875" r="30.39" fill="#ffc344" transform="rotate(-42.52 72.406 124.803)"/><path fill="#796e79" d="m44.687 148.191 55.849-46.863a5.15 5.15 0 0 0 .635-7.257l-16.81-20.033a41.9 41.9 0 0 0-12.993-10.344c-14.437-7.378-29.868-.65-43.069 10.427-9.759 8.189-17.411 26.507-17.411 26.507a41.43 41.43 0 0 0 9.733 26.895l16.81 20.033a5.15 5.15 0 0 0 7.256.635"/><path fill="#665e67" d="M10.888 100.628c6.387 6.706 15.403 10.899 25.375 10.899 19.316 0 35.026-15.71 35.026-35.026l.079-12.807C56.956 56.4 38.9 57.865 25.744 68.908c-9.756 8.191-14.805 19.904-14.856 31.72"/><path fill="#e8e5ea" d="M475.736 91.954c8.534 0 15.453-6.918 15.453-15.453V53.539l-4.773-32.74h-21.331l-4.802 32.74v22.963c0 8.534 6.918 15.452 15.453 15.452"/><path fill="#ffd15d" d="m369.876 421.416-115.372 11.888-112.38-11.888L256 290.109z"/><path fill="#e8e5ea" d="M36.264 91.954c-8.534 0-15.453-6.918-15.453-15.453V53.539l6.993-32.74h18.034l5.878 32.74v22.963c.001 8.534-6.917 15.452-15.452 15.452"/><path fill="#f3f2f4" d="m265.327 47.821 6.11 36.592v348.891h-30.874V84.413l6.912-36.592z"/><path fill="#e8e5ea" d="M369.194 460.553H140.525v-34.998a6.18 6.18 0 0 1 6.178-6.178H331.09l31.781 3.089a6.18 6.18 0 0 1 6.178 6.178z"/><path fill="#ddd9dd" d="M371.473 425.557v34.995h-30.905v-28.516c0-6.995-5.666-12.661-12.661-12.661h37.396c3.409.001 6.17 2.773 6.17 6.182"/><path fill="#e8e5ea" d="M240.568 47.821h30.864v36.592h-30.864z"/><path fill="#ddd9dd" d="M140.525 20.573h230.951v34.995a6.18 6.18 0 0 1-6.181 6.181H146.706a6.18 6.18 0 0 1-6.181-6.181zm-119.715.226h30.905v32.739H20.81zm439.475 0h30.905v32.739h-30.905z"/><path fill="#f3f2f4" d="M512 2.06v18.512c0 5.69-4.612 10.302-10.302 10.302H10.302C4.612 30.874 0 26.262 0 20.573V2.06A2.06 2.06 0 0 1 2.06 0h507.88A2.06 2.06 0 0 1 512 2.06"/><path fill="#ffc344" d="M36.039 286.274q9.416 22.336 31.795 31.735c.831.349.831 1.535 0 1.884q-22.379 9.399-31.795 31.735c-.349.829-1.533.829-1.883 0q-9.416-22.336-31.795-31.735c-.831-.349-.831-1.535 0-1.884q22.379-9.399 31.795-31.735c.349-.829 1.533-.829 1.883 0m443.264 72.515q9.013 21.29 30.343 30.286c.83.35.83 1.532 0 1.882q-21.331 8.996-30.343 30.286c-.351.829-1.531.829-1.881 0q-9.012-21.29-30.343-30.286c-.83-.35-.83-1.532 0-1.882q21.331-8.996 30.343-30.286c.35-.828 1.53-.828 1.881 0M370.451 59.392q-8.257-19.335-27.63-27.578c-.829-.353-.829-1.528 0-1.88q19.373-8.243 27.63-27.578c.353-.827 1.526-.827 1.879 0q8.257 19.335 27.63 27.578c.829.353.829 1.528 0 1.88q-19.373 8.243-27.63 27.578c-.353.828-1.526.828-1.879 0m-30.91 161.465q-8.257-19.335-27.63-27.578c-.829-.353-.829-1.528 0-1.88q19.373-8.243 27.63-27.578c.353-.827 1.526-.827 1.879 0q8.257 19.335 27.63 27.578c.829.353.829 1.528 0 1.88q-19.373 8.243-27.63 27.578c-.354.827-1.526.827-1.879 0m-162.673-80.714q-6.7-15.327-22.055-22.014c-.817-.356-.817-1.514 0-1.87q15.356-6.687 22.055-22.014c.357-.816 1.513-.816 1.869 0q6.7 15.327 22.055 22.014c.817.356.817 1.514 0 1.87q-15.356 6.687-22.055 22.014c-.357.816-1.513.816-1.869 0"/><path fill="#ddd9dd" d="M403.514 491.427H105.395v-34.998a6.18 6.18 0 0 1 6.178-6.178h232.993l52.869 4.124a6.18 6.18 0 0 1 6.178 6.178z"/><path fill="#cac4cc" d="M406.602 456.422v35.006h-48.521v-23.663c0-9.672-7.841-17.513-17.513-17.513h59.864a6.17 6.17 0 0 1 6.17 6.17"/><path fill="#e8e5ea" d="M447.439 508.735 416.533 512H62.838a6.18 6.18 0 0 1-6.178-6.178v-18.518a6.18 6.18 0 0 1 6.178-6.178h343.297l40.944 1.362a6.18 6.18 0 0 1 6.178 6.178l.361 13.892a6.18 6.18 0 0 1-6.179 6.177"/><path fill="#ddd9dd" d="M455.34 487.307v18.512a6.173 6.173 0 0 1-6.181 6.181h-32.626v-16.256c0-8.077-6.542-14.618-14.618-14.618h47.244a6.18 6.18 0 0 1 6.181 6.181"/></svg>