<svg xmlns="http://www.w3.org/2000/svg" viewBox="0 0 512 512"><path fill="#b87d72" d="M353.683 483.013a21.4 21.4 0 0 1-5.743 6.532c-11.086 8.326-28.161 4.306-38.138-8.979s-9.078-30.804 2.008-39.13c4.268-3.206 9.424-4.581 14.721-4.302l16.339-7.746z"/><path fill="#f7bbaa" d="M420.88 464.444c1.888-3.943 3.477-7.267 4.395-9.191a7.53 7.53 0 0 1 2.473-2.922l6.765-4.754a9.48 9.48 0 0 0 3.093-11.868l-1.476-3.068a2.06 2.06 0 0 1-.003-1.78l5.769-12.094c3.396-7.12-.283-15.598-7.803-17.981l-16.306-4.955a4.234 4.234 0 0 1-2.919-4.889l4.785-22.575-63.201 12.461v77.154l43.357 25.952z"/><path fill="#c38f86" d="m335.692 430.879 12.404-26.104c4.728-9.95 18.34-15.261 29.179-13.292l-10.299 17.066c-6.21 5.423-2.41 18.387 8.819 24.789a29.64 29.64 0 0 1 16.56 22.64l1.142 8.191a2.06 2.06 0 0 0 2.964 1.557l5.662-2.839a14.91 14.91 0 0 1 13.083-.139l12.275 5.833a5.866 5.866 0 0 1 2.781 7.817l-1.709 3.596c-9.098 19.145-31.993 27.291-51.138 18.193l-21.392-10.165c-21.395-10.164-30.497-35.749-20.331-57.143"/><path fill="#fe76a8" d="m143.278 57.203-13.35 12.27c-6.954 6.429-17.783 6.072-24.299-.8L64.582 25.377c-5.519-5.821-5.284-15.011.526-20.543l.824-.784a14.684 14.684 0 0 1 18.631-1.336 90.1 90.1 0 0 0 30.162 13.922z"/><path fill="#f7bbaa" d="M252.646 65.899c-16.81-6.948-56.203-22.098-77.895-30.717-20.725-8.234-28.078-12.872-59.61-18.46l-.417-.087-1.551 9.246a22.8 22.8 0 0 0 5.928 19.355l.179.19a22.9 22.9 0 0 0 10.383 6.324l.287.082a68.4 68.4 0 0 1 25.745 13.831L177.5 84.338a83.04 83.04 0 0 0 44.279 19.397l21.398 4.248 31.212 20.341 82.601 64.303V89.746l-73.919-8.022z"/><path fill="#685e68" d="M283.072 3.091V508.91a3.09 3.09 0 0 1-3.091 3.091h-29.202a3.09 3.09 0 0 1-3.091-3.091V146.945l-3.437-10.051 3.437-10.061V3.091A3.09 3.09 0 0 1 250.779 0h29.202a3.09 3.09 0 0 1 3.091 3.091"/><path fill="#feccbc" d="m438.43 319.63 8.417-6.67c-2.492-32.12-10.836-61.563-28.065-88.791l-34.272 3.928-14.654 27.644 4.831 15.128a52.16 52.16 0 0 1 .143 31.243l7.313 8.924c17.606 6.761 37.428 8.594 56.287 8.594"/><path fill="#f7bbaa" d="m421.172 222.627-16.217 2.42c.274 2.486.539 4.991.784 7.539 0 0 26.072 43.471 21.949 86.828 3.6.151 7.188.216 10.741.216l12.766-6.629a197.6 197.6 0 0 0-30.023-90.374"/><path fill="#fe93bb" d="M432.117 316.737c-1.187 0-2.845-3.749-4.031-3.777a153.9 153.9 0 0 1-51.605-10.184l-1.652-.663a52 52 0 0 1-2.047 5.545 129.6 129.6 0 0 0-10.43 40.995c-1.083 12.72-2.282 26.493-2.282 26.493l36.683 7.78 19.714-15.294c21.95-10.816 32.177-26.057 31.037-50.501-.028-.598-15.387-.394-15.387-.394"/><path fill="#fe76a8" d="M451.234 313.424c-.011-.141-.027-.282-.038-.423h-19.55q-1.781 0-3.559-.041c-.493 16.91-5.166 34.132-17.395 49.066-6.727 8.214-12.341 14.861-17.036 20.243l3.098.657 19.839-9.775c21.95-10.816 35.892-33.487 34.751-57.931a64 64 0 0 0-.11-1.796"/><path fill="#feccbc" d="M386.362 334.989h-.134c-6.836 0-13.36 2.86-17.992 7.887L272.419 446.87a4.8 4.8 0 0 1-3.347 1.54c-5.347.218-10.627 2.35-14.71 6.432L248.204 461c-8.634 8.634-8.634 22.632 0 31.266 4.016 4.016 9.194 6.139 14.452 6.419l.02.024.025-.022c6.031.309 12.163-1.815 16.77-6.421l6.159-6.159a21.94 21.94 0 0 0 5.991-11.133 4.74 4.74 0 0 1 1.552-2.627l109.19-94.386a24.46 24.46 0 0 0 8.33-15.936c1.526-14.448-9.802-27.036-24.331-27.036"/><path fill="#fe93bb" d="m247.689 129.316.02 17.629c-.766 9.439-8.978 16.508-18.426 15.861l-59.521-4.077c-8.003-.548-14.051-7.471-13.52-15.475l.075-1.135a14.685 14.685 0 0 1 12.808-13.596 90.1 90.1 0 0 0 31.624-10.173z"/><path fill="#feccbc" d="m402.287 214.714 13.259-10.775c-2.669-30.26-8.634-56.798-18.587-85.589l-8.943-28.603c-3.044-8.804-7.876-16.546-15.606-21.743-8.421-5.663-15.5-10.791-25.329-9.15a39.4 39.4 0 0 0-7.147 1.893s-48.326 17.585-82.381 30.616c-20.828 7.97-29.118 9.368-56.109 26.602l-.695.385 5.186 7.855a22.8 22.8 0 0 0 17.466 10.232l.26.018a22.9 22.9 0 0 0 11.923-2.375l.267-.134a68.4 68.4 0 0 1 28.306-7.249l28.698-1.017a83.04 83.04 0 0 0 46.896-16.566l1.652-1.24c1.184-.888 2.861.046 2.727 1.521a179.2 179.2 0 0 0 5.37 62.464c.162.604.182 1.227.076 1.827l4.383 18.948a63.93 63.93 0 0 0 48.328 22.08"/><path fill="#f7bbaa" d="M419.827 204.016c-2.669-30.26-7.876-60.082-17.83-88.873l-9.873-28.558a42.9 42.9 0 0 0-16.6-21.575 39.36 39.36 0 0 0-28.443-6.157c.176.189 42.046 45.067 56.529 155.054z"/><path fill="#fe93bb" d="M406.954 207.757c-.953 0-3.808-3.762-4.755-3.804a63.93 63.93 0 0 1-45.478-22.016l-7.145-8.251a4.2 4.2 0 0 1-.734 1.743l-5.503 7.615a43.615 43.615 0 0 0 12.27 62.555l14.247 10.143 35.884-23.156 12.262-11.677c-.351-6.219.02-8.893-.526-15.08z"/><path fill="#fe76a8" d="m405.74 232.585 15.433-9.959a590 590 0 0 0-1.345-18.61H405.05q-1.43 0-2.85-.063a526 526 0 0 1 3.54 28.632"/></svg>