<svg xmlns="http://www.w3.org/2000/svg" width="512" height="512" data-name="Artboard 30" viewBox="0 0 64 64"><path fill="#ccced5" d="M42 4h4v10.166h-4zM19 56V4a2 2 0 0 1 2-2h2a2 2 0 0 1 2 2v52z"/><rect width="60" height="4" x="2" y="58" fill="#393a3a" rx="1"/><path fill="#aaadb9" d="M13 58a4 4 0 0 1 4-4h10a4 4 0 0 1 4 4z"/><circle cx="44" cy="24" r="12" fill="#aae6f9"/><rect width="10" height="4" x="39" y="2" fill="#999ba0" rx="2"/><g fill="#ffc239"><path d="M10 13a5 5 0 0 0 4.993 5A5 5 0 0 0 10 23a5 5 0 0 0-4.993-5A5 5 0 0 0 10 13m23 24h2v4h-2zm0 8h2v4h-2zm-5-3h4v2h-4zm8 0h4v2h-4z"/><circle cx="47" cy="47" r="2"/><path d="M57 34a5 5 0 0 0 4.993 5A5 5 0 0 0 57 44a5 5 0 0 0-4.993-5A5 5 0 0 0 57 34"/></g><path fill="#ebf9ff" d="M46.957 12.382a11.63 11.63 0 0 0-5.985.019 25.4 25.4 0 0 0-2.36 6.214 25.7 25.7 0 0 0-6.23 2.428 11.64 11.64 0 0 0 0 5.914 25.7 25.7 0 0 0 6.23 2.419 25.7 25.7 0 0 0 2.431 6.242 11.63 11.63 0 0 0 5.985-.019 25.4 25.4 0 0 0 2.362-6.223 25.7 25.7 0 0 0 6.21-2.349 11.64 11.64 0 0 0 0-6.055 25.4 25.4 0 0 0-6.214-2.36 25.7 25.7 0 0 0-2.429-6.23M38.2 27.2a24 24 0 0 1-5.084-2.1v-2.2a24 24 0 0 1 5.088-2.1 23 23 0 0 0-.004 6.4m4.653-14.078H45.1a24 24 0 0 1 2.1 5.078 23 23 0 0 0-6.411 0 23.4 23.4 0 0 1 2.065-5.078zm2.292 21.756h-2.247a24 24 0 0 1-2.1-5.089 23 23 0 0 0 3.182.23 23 23 0 0 0 3.236-.246 23.4 23.4 0 0 1-2.07 5.105zm2.545-7.187a21.2 21.2 0 0 1-7.376-.006 21.2 21.2 0 0 1-.007-7.369 21.3 21.3 0 0 1 7.376-.009 21.3 21.3 0 0 1 .008 7.384zm2.107-6.9a23.4 23.4 0 0 1 5.079 2.064v2.294a23.5 23.5 0 0 1-5.084 2.065 23 23 0 0 0 .008-6.425z"/><path fill="#fff" d="M44 12a11.99 11.99 0 0 0-10.755 6.7 15.954 15.954 0 0 0 20.222 12.655A11.986 11.986 0 0 0 44 12" opacity=".5"/><path d="M61 57H31.9a5.01 5.01 0 0 0-4.9-4h-1V4a3 3 0 0 0-3-3h-2a3 3 0 0 0-3 3v49h-1a5.01 5.01 0 0 0-4.9 4H3a2 2 0 0 0-2 2v2a2 2 0 0 0 2 2h58a2 2 0 0 0 2-2v-2a2 2 0 0 0-2-2M20 4a1 1 0 0 1 1-1h2a1 1 0 0 1 1 1v49h-4zm-3 51h10a3 3 0 0 1 2.816 2H14.184A3 3 0 0 1 17 55M3 61v-2h58v2z"/><path d="M31 24a13 13 0 1 0 16-12.637V7a3 3 0 0 0 0-6h-6a3 3 0 0 0 0 6v4.363A13.014 13.014 0 0 0 31 24m14.058-10.946a24 24 0 0 1 2.15 5.152 23 23 0 0 0-6.424 0 23.4 23.4 0 0 1 2.107-5.146A11 11 0 0 1 44 13q.535.001 1.058.054M55 24a11 11 0 0 1-.056 1.109 23.4 23.4 0 0 1-5.151 2.107 23 23 0 0 0 0-6.432 23.4 23.4 0 0 1 5.147 2.107A11 11 0 0 1 55 24m-7.311 3.689a21.3 21.3 0 0 1-7.377 0 21.2 21.2 0 0 1 0-7.377 21.2 21.2 0 0 1 7.377 0 21.2 21.2 0 0 1 0 7.377M33 24q.002-.535.054-1.059a24 24 0 0 1 5.152-2.15 23 23 0 0 0-.005 6.415 24 24 0 0 1-5.147-2.147A11 11 0 0 1 33 24m7.347-10.363a25.4 25.4 0 0 0-1.735 4.978 25 25 0 0 0-4.993 1.78 11.04 11.04 0 0 1 6.728-6.758m-6.732 13.957a25 25 0 0 0 5 1.782 25 25 0 0 0 1.783 5 11.04 11.04 0 0 1-6.783-6.782m9.327 7.352a24 24 0 0 1-2.15-5.154 21.7 21.7 0 0 0 6.429-.016 23.3 23.3 0 0 1-2.112 5.168A11 11 0 0 1 44 35q-.535-.002-1.058-.054m4.711-.583a25.4 25.4 0 0 0 1.737-4.987 25.6 25.6 0 0 0 4.974-1.724 11.04 11.04 0 0 1-6.711 6.711m6.71-14.016a25.4 25.4 0 0 0-4.978-1.735 25 25 0 0 0-1.78-4.993 11.04 11.04 0 0 1 6.758 6.728M40 4a1 1 0 0 1 1-1h6a1 1 0 0 1 0 2h-6a1 1 0 0 1-1-1m3 3h2v4.051c-.331-.026-.662-.051-1-.051s-.669.025-1 .051zM9 23a1 1 0 0 0 2 0 4 4 0 0 1 4-4 1 1 0 0 0-.007-2A4 4 0 0 1 11 13a1 1 0 1 0-2 0 4 4 0 0 1-4 4 1 1 0 0 0 .007 2A4 4 0 0 1 9 23m1-6.684A6 6 0 0 0 11.684 18 6 6 0 0 0 10 19.685 6 6 0 0 0 8.315 18 6 6 0 0 0 10 16.315zM33 37h2v4h-2zm0 8h2v4h-2zm-5-3h4v2h-4zm8 0h4v2h-4zm8 5a3 3 0 1 0 3-3 3 3 0 0 0-3 3m4 0a1 1 0 1 1-1-1 1 1 0 0 1 1 1m8-13a4 4 0 0 1-4 4 1 1 0 0 0 .007 2A4 4 0 0 1 56 44a1 1 0 0 0 2 0 4 4 0 0 1 4-4 1 1 0 0 0-.007-2A4 4 0 0 1 58 34a1 1 0 1 0-2 0m2.684 5A6 6 0 0 0 57 40.685 6 6 0 0 0 55.315 39 6 6 0 0 0 57 37.315 6 6 0 0 0 58.684 39"/></svg>