<svg xmlns="http://www.w3.org/2000/svg" viewBox="0 0 512 512"><path fill="#b87d72" d="M350.814 476.362a20.8 20.8 0 0 1-5.575 6.341c-10.761 8.082-27.336 4.179-37.021-8.716-9.685-12.896-8.812-29.901 1.949-37.983 4.143-3.112 9.148-4.447 14.29-4.176l15.86-7.519z"/><path fill="#f7bbaa" d="M416.043 458.338c1.833-3.827 3.375-7.054 4.267-8.922a7.3 7.3 0 0 1 2.401-2.837l6.567-4.615a9.2 9.2 0 0 0 3.002-11.52l-1.433-2.978a2 2 0 0 1-.003-1.728l5.6-11.74c3.297-6.911-.275-15.141-7.574-17.454l-15.828-4.809a4.11 4.11 0 0 1-2.833-4.746l4.645-21.914-61.349 12.096v74.894l42.087 25.191z"/><path fill="#c38f86" d="m333.35 425.756 12.041-25.339c4.59-9.659 17.803-14.814 28.324-12.902l-9.998 16.566c-6.028 5.264-2.339 17.848 8.561 24.062a28.77 28.77 0 0 1 16.075 21.977l1.109 7.951a2 2 0 0 0 2.877 1.512l5.496-2.756a14.47 14.47 0 0 1 12.7-.135l11.915 5.662a5.695 5.695 0 0 1 2.7 7.588l-1.658 3.49c-8.831 18.585-31.056 26.491-49.64 17.66l-20.766-9.867c-20.769-9.867-29.604-34.702-19.736-55.469"/><path fill="#fe76a8" d="m146.573 63.027-12.959 11.91c-6.75 6.24-17.262 5.894-23.587-.777L70.183 32.134c-5.357-5.651-5.129-14.572.51-19.941l.8-.761a14.25 14.25 0 0 1 18.085-1.297 87.5 87.5 0 0 0 29.278 13.514z"/><path fill="#f7bbaa" d="M252.738 71.468c-16.318-6.744-54.557-21.451-75.613-29.817-20.118-7.993-27.256-12.495-57.864-17.919l-.405-.084-1.506 8.975a22.14 22.14 0 0 0 5.754 18.788l.174.184a22.2 22.2 0 0 0 10.079 6.139l.279.079a66.4 66.4 0 0 1 24.991 13.425l21.167 18.128a80.6 80.6 0 0 0 42.982 18.829l20.771 4.123 30.298 19.745 80.181 62.419V94.617l-71.753-7.787z"/><path fill="#685e68" d="M282.272 10.5v491a3 3 0 0 1-3 3h-28.346a3 3 0 0 1-3-3V150.14l-3.337-9.757 3.337-9.766V10.5a3 3 0 0 1 3-3h28.346a3 3 0 0 1 3 3"/><path fill="#feccbc" d="m433.078 317.766 8.17-6.475c-2.419-31.179-10.519-59.759-27.243-86.189l-33.268 3.813-14.225 26.834 4.69 14.685a50.63 50.63 0 0 1 .139 30.328l7.099 8.663c17.09 6.562 36.331 8.341 54.638 8.341"/><path fill="#f7bbaa" d="m416.326 223.604-15.742 2.349c.266 2.413.523 4.845.761 7.318 0 0 25.308 42.198 21.306 84.285 3.495.146 6.977.21 10.426.21l12.392-6.435a191.8 191.8 0 0 0-29.143-87.727"/><path fill="#fe93bb" d="M426.95 314.958c-1.152 0-2.762-3.639-3.913-3.666a149.4 149.4 0 0 1-50.093-9.886l-1.603-.643a51 51 0 0 1-1.987 5.382 125.8 125.8 0 0 0-10.124 39.794c-1.052 12.348-2.216 25.717-2.216 25.717l35.608 7.552 19.136-14.846c21.307-10.499 31.235-25.294 30.128-49.021-.026-.581-14.936-.383-14.936-.383"/><path fill="#fe76a8" d="M445.507 311.742c-.01-.137-.027-.273-.037-.41h-18.977q-1.728 0-3.455-.04c-.479 16.414-5.014 33.132-16.886 47.628-6.53 7.974-11.98 14.425-16.537 19.65l3.007.638 19.258-9.489c21.307-10.499 34.84-32.506 33.733-56.233a57 57 0 0 0-.106-1.744"/><path fill="#feccbc" d="M382.536 332.676h-.13a23.75 23.75 0 0 0-17.464 7.656l-93.011 100.947a4.67 4.67 0 0 1-3.249 1.495c-5.19.211-10.316 2.281-14.279 6.243l-5.978 5.978c-8.381 8.381-8.381 21.969 0 30.35 3.898 3.899 8.925 5.959 14.029 6.231l.019.023.024-.021c5.854.3 11.807-1.762 16.279-6.233l5.978-5.978c3.073-3.073 5-6.847 5.815-10.807a4.6 4.6 0 0 1 1.506-2.55l105.991-91.621a23.75 23.75 0 0 0 8.086-15.469c1.483-14.025-9.512-26.244-23.616-26.244"/><path fill="#fe93bb" d="m247.925 133.027.02 17.113c-.743 9.162-8.715 16.024-17.886 15.396l-57.777-3.957c-7.768-.532-13.64-7.252-13.124-15.022l.073-1.102a14.255 14.255 0 0 1 12.433-13.198 87.5 87.5 0 0 0 30.698-9.874z"/><path fill="#feccbc" d="m397.995 215.923 12.871-10.459c-2.591-29.373-8.381-55.134-18.043-83.082l-8.681-27.765c-2.954-8.546-7.646-16.061-15.149-21.106-8.175-5.497-15.046-10.475-24.587-8.882-2.344.391-4.667 1-6.937 1.837 0 0-46.91 17.07-79.967 29.719-20.218 7.737-28.265 9.094-54.465 25.823l-.675.374 5.034 7.625a22.14 22.14 0 0 0 16.954 9.932l.252.018a22.2 22.2 0 0 0 11.574-2.305l.259-.13a66.4 66.4 0 0 1 27.477-7.037l27.857-.988a80.6 80.6 0 0 0 45.522-16.08l1.604-1.203c1.149-.862 2.777.045 2.647 1.476a174 174 0 0 0 5.212 60.634c.157.586.177 1.191.074 1.773l4.255 18.393a62.05 62.05 0 0 0 46.912 21.433"/><path fill="#f7bbaa" d="M415.021 205.539c-2.591-29.373-7.646-58.322-17.307-86.27l-9.584-27.722a41.63 41.63 0 0 0-16.114-20.943 38.2 38.2 0 0 0-27.61-5.976c.171.183 40.815 43.747 54.873 150.511z"/><path fill="#fe93bb" d="M402.525 209.17c-.925 0-3.696-3.652-4.616-3.693a62.06 62.06 0 0 1-44.146-21.371l-6.936-8.009a4.1 4.1 0 0 1-.712 1.692l-5.342 7.392a42.336 42.336 0 0 0 11.91 60.722l13.83 9.845 34.833-22.478 11.903-11.335c-.341-6.037.019-8.632-.511-14.638z"/><path fill="#fe76a8" d="m401.346 233.272 14.981-9.667a573 573 0 0 0-1.306-18.065h-14.345q-1.387 0-2.767-.062a510 510 0 0 1 3.437 27.794"/><path d="m431.05 389.368-12.853-3.905 2.564-12.095c20.944-12.824 33.483-35.823 32.344-60.235-2.069-32.449-12.323-64.209-29.41-91.852-1.687-28.266-5.088-52.872-10.396-75.147a7.501 7.501 0 0 0-14.592 3.478c3.544 14.871 6.206 30.872 8.052 48.428h-6.083a54.53 54.53 0 0 1-41.243-18.842l-5.285-6.103c-5.096-19.174-6.962-38.975-5.135-58.739l.33-3.72a7.5 7.5 0 0 0-11.983-6.654l-4.566 3.439c-12.012 9.004-26.29 14.048-41.285 14.586l-27.863.98a73.4 73.4 0 0 0-30.567 7.827c-7.078 3.854-16.402.935-20.2-6.115 16.727-10.243 25.234-13.362 37.466-17.847a719 719 0 0 0 9.838-3.666c32.623-12.483 79.386-29.507 79.882-29.688 9.228-3.398 19.605-2.154 27.761 3.325a34.4 34.4 0 0 1 8.01 7.507 34.2 34.2 0 0 1 5.209 9.671l7.86 22.74a7.5 7.5 0 0 0 9.539 4.638 7.5 7.5 0 0 0 4.638-9.539l-7.86-22.74a49.2 49.2 0 0 0-7.505-13.927 49.4 49.4 0 0 0-11.521-10.798c-12.142-8.158-27.588-10.009-41.287-4.962-.314.114-21.406 7.793-45.137 16.614V7.5a7.5 7.5 0 0 0-15 0v74.128c-6.666 2.5-13.242 4.985-19.347 7.319V7.5a7.5 7.5 0 0 0-15 0v51.543a6698 6698 0 0 0-42.346-17.103 7.501 7.501 0 0 0-5.574 13.926c18.017 7.211 36.351 14.63 47.919 19.389v19.269c-5.179 1.931-10.055 3.858-15.561 6.475-14.84-1.842-28.836-7.471-40.195-17.333l-21.163-18.114c-8.02-6.882-17.64-12.053-27.813-14.95-2.763-.724-5.253-2.278-7.204-4.408a14.73 14.73 0 0 1-3.735-12.363l.229-1.404c17.249 3.389 25.58 6.476 35.006 10.321a7.5 7.5 0 0 0 5.665-13.889c-11.112-4.532-21.487-8.332-45.044-12.504A79.6 79.6 0 0 1 93.918 4.02c-8.469-6.016-20.076-5.185-27.599 1.979l-.801.762c-8.615 8.203-8.966 21.9-.781 30.533l39.845 42.026c4.75 5.01 11.189 7.542 17.643 7.542 5.911 0 11.834-2.125 16.478-6.418l8.805-8.14a58 58 0 0 1 6.236 4.636l21.167 18.118a87.8 87.8 0 0 0 30.088 16.878c-10.154 6.885-22.035 11.387-34.28 12.88-10.307 1.305-18.287 9.775-18.974 20.141l-.073 1.103c-.787 11.87 8.228 22.188 20.095 23 1.835.069 57.682 4.059 59.434 4.014 3.241 0 6.358-.657 9.219-1.843v27.781a7.5 7.5 0 0 0 15 0v-48.297l.968-11.926a59 59 0 0 1 7.786-.812l10.595-.373v289.267c0 .081.01.159.012.239l-7.591 8.239a29.1 29.1 0 0 0-11.77 3.601V234.01a7.5 7.5 0 0 0-15 0v218.784c-3.752 4.985-5.785 11.02-5.785 17.37s2.034 12.388 5.787 17.373v16.96a7.5 7.5 0 0 0 15 0v-6.591c6.29 1.905 13.323 1.508 19.347-1.04v7.631a7.5 7.5 0 0 0 15 0v-19.55c3.929-3.832 6.708-8.648 7.978-13.931a42.3 42.3 0 0 0 4.472 7.472c7.728 10.289 19.16 15.888 30.075 15.888 6.475-.003 12.878-1.987 18.037-6.156l20.298 9.645c6.096 2.897 12.623 4.355 19.178 4.355a44.8 44.8 0 0 0 15.033-2.612c11.263-4.007 20.292-12.161 25.422-22.958l1.659-3.49c3.123-6.57.318-14.457-6.253-17.58a370 370 0 0 0 1.352-2.867l6.566-4.614c6.928-4.842 9.093-14.051 5.159-21.512l4.466-9.361a20.1 20.1 0 0 0 .298-16.666c-2.315-5.338-6.826-9.408-12.459-11.192M128.523 69.43c-3.717 3.435-9.572 3.242-13.053-.43L75.625 26.974c-2.506-2.644-2.399-6.837.238-9.348l.801-.763a6.766 6.766 0 0 1 8.569-.614 94.6 94.6 0 0 0 25.119 12.705l-.401 2.454c-1.489 9.068 1.389 18.472 7.698 25.154 4.084 4.454 9.432 7.352 15.203 8.865zm111.921 80.294c-.505 4.948-4.894 8.674-9.873 8.329l-57.776-3.958c-3.634-.249-6.395-3.409-6.154-7.042l.073-1.103a6.766 6.766 0 0 1 5.892-6.254 94.6 94.6 0 0 0 27.134-7.674l1.38 2.091c5.037 7.682 13.523 12.657 22.633 13.304 6.013.539 11.925-.953 17.19-3.732.001.002-.487 5.825-.499 6.039m173.108 210.473c1.331-10.007-2.142-19.9-9.495-26.824-7.126-6.731-16.762-9.683-26.444-8.101a31.2 31.2 0 0 0-7.712 2.342 119 119 0 0 1 5.815-17.234 156.3 156.3 0 0 0 50.776 8.452H438.1c-.874 16.776-10.042 32.211-24.548 41.365m.351-126.102c12.326 21.396 20.265 45.228 23.27 69.737h-10.68c-15.835 0-31.386-2.62-46.303-7.775a58.1 58.1 0 0 0-1.843-27.904l-2.943-9.215zm-66.266-45.606a69.56 69.56 0 0 0 53.039 24.55h7.433q.248 3.286.462 6.644l-41.852 27.007-9.684-6.897c-9.331-5.707-15.438-15.219-16.583-26.117-.995-8.999 1.654-18.042 7.185-25.187m-14.251-63.478c-.382 15.655 1.307 31.299 4.96 46.571l-40.426-34.994a87.6 87.6 0 0 0 35.466-11.577m-47.468 336.408a7.5 7.5 0 0 0-2.527 4.665 13.8 13.8 0 0 1-3.942 7.976l-5.98 5.98c-3.945 4.069-10.338 5.176-15.484 2.906a13.8 13.8 0 0 1-4.259-2.906c-2.637-2.637-4.088-6.143-4.088-9.872s1.452-7.235 4.088-9.872l5.974-5.974c2.8-2.794 6.53-4.233 10.518-4.057a7.5 7.5 0 0 0 5.851-2.411l42.76-46.41a7.501 7.501 0 0 0-11.032-10.164l-18.025 19.564v-261.47l41.848 36.224c-5.044 8.911-7.193 19.397-6.084 29.669 1.627 15.269 9.998 28.694 22.977 36.872l11.617 8.274 3.929 12.303a43.12 43.12 0 0 1-1.574 30.422 133.2 133.2 0 0 0-10.534 40.225l-20.423 22.168a7.5 7.5 0 1 0 11.032 10.163l28.212-30.623a16.25 16.25 0 0 1 9.272-4.997c5.018-.821 10.017.711 13.713 4.203 3.798 3.571 5.584 8.666 4.934 13.922a16.18 16.18 0 0 1-5.501 10.498zm28.298 8.064c-2.052-2.732-3.54-5.771-4.394-8.899l12.428-10.742a49.74 49.74 0 0 0 14.416 28.916c-7.222 2.25-16.466-1.307-22.45-9.275m102.5.732c-3.412 7.179-9.414 12.6-16.902 15.264s-15.566 2.252-22.745-1.159l-20.765-9.867c-14.181-6.738-21.973-22.555-18.758-37.832l18.115-15.658c2.566 5.482 7.105 10.391 12.902 13.696 6.663 3.065 11.365 9.207 12.361 16.498l1.494 10.713a7.5 7.5 0 0 0 3.94 5.604 7.5 7.5 0 0 0 6.85.064l7.987-4.005a6.94 6.94 0 0 1 6.12-.065l10.285 4.887zm12.959-59.446-6.013 12.604a7.5 7.5 0 0 0 .01 6.48l1.848 3.842a1.7 1.7 0 0 1-.556 2.132l-6.568 4.615a14.86 14.86 0 0 0-4.856 5.742l-1.449 3.034a21.78 21.78 0 0 0-16.253.277 36.2 36.2 0 0 0-20.046-27.983c-4.722-2.77-7.133-6.963-7.43-9.926-.1-1.001.075-1.653.282-1.845l27.869-24.089 7.047-3.472-.705 3.324a11.565 11.565 0 0 0 8.004 13.408l15.744 4.783c1.931.611 2.8 2.041 3.146 2.838s.798 2.407-.074 4.236"/></svg>