<svg xmlns="http://www.w3.org/2000/svg" viewBox="0 0 300 300"><path fill="#afafab" d="M148.5 5h8.3v290h-8.3z"/><path fill="#e5b092" d="M228.6 145.1s5.3-9.3 0-21.2c-5.3-12-16.3-24-16.3-24s-3.1.5-9.9 5.2-9.6 9.9-9.6 9.9 3 1.5 5 5.7c8.6 24.6-5.8 33.3-12 49.5-1.3 3.5-.9 7.4.9 10.6.9 1.7 1.2 4.2-1 7.8l5.8 10.2s10.5-5.6 15.4-12.1c0 0 .3-.3.8-.9l.9 4.6s4.4-9.1 13.8-13.2c2.3-1 3.8-3 4.8-5.6.7-.2 1.2-.7 1.7-2.1 1.6-4.6.8-6.6-.4-12.4-.6-2-1.5-7.3.1-12"/><circle cx="176.9" cy="198.9" r="20.1" fill="#e5b092"/><path fill="#553c32" d="M163.5 175.3c-15.5 4-23.1 24-10.9 34.8.1 8.3 14.4 13.1 17.9 8.2.1-.1.2-.1.3-.2 0 0-7.2-1.8-3.1-16.4 2.6-9.3 10.5-9.7 10.5-9.7s-5-6.2.4-8.4c6.5-2.7 8.8 4.4 8.8 4.4l2.9.2c1.8.1 3-1.8 2.1-3.3-3.2-5.3-11.3-14.2-28.9-9.6"/><path fill="#553c32" d="M155.7 182.1s-6-.3-7.2-9.1 14.6-12.2 17.1-2.9c2.5 9.4-3 10.4-3 10.4z"/><path fill="#e5b092" d="M197 178.8s-7.5-1-8.8 18.3c-1.4 19.2-4.6 30-4.6 30s-13 23-17.3 31.4l-2.7 5.8s-2 3.1-6.8 2.6c-4.7-.5-15.7 3.7-8.4 12 0 0 4.7 3.7 13.6 0s9.5-8.4 9.5-8.4 18.2-22.6 27-34.5c1.5-2 2.6-4.4 3.1-6.8 1.9-8.5 6.3-29.3 6.8-38.7.7-12.1-8.4-12.8-11.4-11.7"/><path fill="#e2e5f2" d="M190.6 160.5s19.8 6.7 21.3 12.8c1.4 6.1 0 11.9 0 11.9s14-3.8 16.9-12.4.6-14.6.6-14.6L198 146.9z"/><path fill="#e5b092" d="M197.7 120.8s-15.5-.6-24-14.1c-4.3-6.8-31.5-37.9-31.5-37.9s-23.5-4.5-50.8-32c0 0-8.9 3.4-12.6 0S76.7 26.6 73 19.3 67.3 6.9 71 6.6s17.3 12.5 22 18.2c0 0 1.6 1.4 6.3 4s42.9 19.8 53.9 25.1S194.4 82 212.3 100z"/><path fill="#18151d" d="M194.8 120.5s6.6-14 17.4-20.5c0 0-7.8-8.5-16.6-15.2 0 0-15.1 9.5-20.3 24.4 0-.1 5.8 9.3 19.5 11.3"/></svg>