<svg xmlns="http://www.w3.org/2000/svg" xml:space="preserve" width="512" height="512" viewBox="0 0 512 512"><path d="M143.908 420.587 55.252 147.679l45.197-37.925 266.088 306.814z" style="fill:#ffe078"/><path d="m368.092 420.587 88.656-272.908-45.197-37.925-266.088 306.814z" style="fill:#ffe078"/><circle cx="434.149" cy="128.716" r="29.5" style="fill:#ffc344" transform="rotate(-47.499 434.143 128.704)"/><path d="m461.122 151.35-54.213-45.49a5 5 0 0 1-.616-7.044L422.61 79.37a40.7 40.7 0 0 1 12.613-10.041c14.014-7.163 28.993-.632 41.807 10.121 9.473 7.949 16.901 25.73 16.901 25.73a40.23 40.23 0 0 1-9.448 26.107l-16.317 19.446a5 5 0 0 1-7.044.617" style="fill:#796e79"/><path d="M493.931 105.18c-6.2 6.51-14.951 10.58-24.631 10.58-18.75 0-34-15.25-34-34l-.077-12.431c13.99-7.08 31.517-5.659 44.287 5.062 9.47 7.949 14.371 19.319 14.421 30.789" style="fill:#665e67"/><circle cx="77.851" cy="128.716" r="29.5" style="fill:#ffc344" transform="rotate(-42.498 77.855 128.714)"/><path d="m50.878 151.35 54.213-45.49a5 5 0 0 0 .616-7.044L89.39 79.369a40.7 40.7 0 0 0-12.613-10.041c-14.014-7.162-28.993-.631-41.807 10.122-9.473 7.949-16.901 25.73-16.901 25.73a40.23 40.23 0 0 0 9.448 26.107l16.317 19.446a5 5 0 0 0 7.044.617" style="fill:#796e79"/><path d="M18.069 105.18c6.2 6.51 14.951 10.58 24.631 10.58 18.75 0 34-15.25 34-34l.077-12.431c-13.99-7.08-31.517-5.659-44.287 5.062-9.47 7.949-14.371 19.319-14.421 30.789" style="fill:#665e67"/><path d="M469.298 96.76c8.284 0 15-6.716 15-15V59.47l-4.633-31.781H458.96l-4.661 31.781v22.29c-.001 8.284 6.715 15 14.999 15" style="fill:#e8e5ea"/><path d="m366.54 416.57-111.992 11.54-109.088-11.54L256 289.11z" style="fill:#ffd15d"/><path d="M42.702 96.76c-8.284 0-15-6.716-15-15V59.47l6.788-31.781h17.506l5.706 31.781v22.29c0 8.284-6.716 15-15 15" style="fill:#e8e5ea"/><path d="m265.054 53.92 5.931 35.52v338.67h-29.97V89.44l6.71-35.52z" style="fill:#f3f2f4"/><path d="M365.877 454.56h-221.97v-33.973a5.997 5.997 0 0 1 5.997-5.997h178.985l30.85 2.999a5.997 5.997 0 0 1 5.997 5.997z" style="fill:#e8e5ea"/><path d="M368.09 420.59v33.97h-30v-27.68c0-6.79-5.5-12.29-12.29-12.29h36.3c3.31 0 5.99 2.69 5.99 6" style="fill:#ddd9dd"/><path d="M241.02 53.92h29.96v35.52h-29.96z" style="fill:#e8e5ea"/><path d="M143.908 27.47h224.185v33.97a6 6 0 0 1-6 6H149.908a6 6 0 0 1-6-6zM27.7 27.69h30v31.78h-30zm426.6 0h30v31.78h-30z" style="fill:#ddd9dd"/><path d="M504.5 9.5v17.97c0 5.523-4.477 10-10 10h-477c-5.523 0-10-4.477-10-10V9.5a2 2 0 0 1 2-2h493a2 2 0 0 1 2 2" style="fill:#f3f2f4"/><path d="M42.483 285.387q9.14 21.681 30.864 30.805c.806.339.806 1.49 0 1.829q-21.723 9.123-30.864 30.805c-.339.805-1.488.805-1.828 0q-9.14-21.682-30.864-30.805c-.806-.339-.807-1.49 0-1.829q21.723-9.124 30.864-30.805c.34-.804 1.489-.804 1.828 0m430.277 70.391q8.748 20.666 29.454 29.399c.806.34.806 1.487 0 1.827q-20.706 8.733-29.454 29.398c-.34.804-1.486.804-1.826 0q-8.748-20.666-29.454-29.399c-.806-.34-.806-1.487 0-1.827q20.706-8.733 29.454-29.398c.341-.804 1.486-.804 1.826 0M367.098 65.152q-8.016-18.77-26.82-26.77c-.805-.342-.805-1.483 0-1.825q18.805-8 26.82-26.77c.343-.803 1.481-.803 1.824 0q8.016 18.77 26.82 26.77c.805.342.805 1.483 0 1.825q-18.805 8-26.82 26.77c-.343.803-1.481.803-1.824 0m-30.005 156.735q-8.016-18.77-26.82-26.77c-.805-.342-.805-1.483 0-1.825q18.805-8 26.82-26.77c.343-.803 1.481-.803 1.824 0q8.016 18.77 26.82 26.77c.805.342.805 1.483 0 1.825q-18.805 8-26.82 26.77c-.343.803-1.481.803-1.824 0m-157.907-78.349q-6.503-14.877-21.409-21.369c-.793-.346-.793-1.47 0-1.816q14.906-6.492 21.409-21.369c.346-.792 1.468-.792 1.814 0q6.503 14.877 21.409 21.369c.793.346.793 1.47 0 1.816q-14.906 6.492-21.409 21.369c-.346.791-1.468.791-1.814 0" style="fill:#ffc344"/><path d="M399.193 484.53H109.807v-33.973a5.997 5.997 0 0 1 5.997-5.997h226.167l51.321 4.003a5.997 5.997 0 0 1 5.997 5.997z" style="fill:#ddd9dd"/><path d="M402.19 450.55v33.98h-47.1v-22.97c0-9.389-7.611-17-17-17h58.11a5.99 5.99 0 0 1 5.99 5.99" style="fill:#cac4cc"/><path d="m441.83 501.331-30 3.169H68.497a5.997 5.997 0 0 1-5.997-5.997v-17.976a5.997 5.997 0 0 1 5.997-5.997h333.239l39.744 1.322a5.997 5.997 0 0 1 5.997 5.997l.35 13.485a5.997 5.997 0 0 1-5.997 5.997" style="fill:#e8e5ea"/><path d="M449.5 480.53v17.97c0 3.32-2.68 6-6 6h-31.67v-15.78c0-7.84-6.35-14.19-14.19-14.19h45.86c3.32 0 6 2.69 6 6" style="fill:#ddd9dd"/><path d="m456.75 147.68-34.21 105.29m-10.81 33.29-43.64 134.33M239.81 307.781l-94.347 108.787m181.04-208.749-54.558 62.909m139.606-160.974-61.459 70.866M210.14 474.53H443.5c3.32 0 6 2.69 6 6v17.97c0 3.32-2.68 6-6 6h-375c-3.32 0-6-2.68-6-6v-17.97c0-3.31 2.68-6 6-6h106.64M7.5 7.5v19.97c0 5.52 4.48 10 10 10h169.64m150.87 0H222.14M504.5 7.5v19.97c0 5.523-4.477 10-10 10h-96.485M109.807 473.53v-22.973a5.997 5.997 0 0 1 5.997-5.997h280.391a5.997 5.997 0 0 1 5.997 5.997v22.973m-34.1-406.09H149.905a5.997 5.997 0 0 1-5.997-5.997V38.47M456.33 148.165c-10.544 12.035-28.827 13.484-41.143 3.15-12.36-10.371-14.076-28.72-3.937-41.196m73.964-29.867c11.677 14.714 11.815 36.085-.73 51.036l-16.317 19.446a5 5 0 0 1-7.044.616l-54.213-45.49a5 5 0 0 1-.616-7.044l16.317-19.446c7.819-9.319 18.952-14.218 30.229-14.42" style="fill:none;stroke:#000;stroke-width:15;stroke-linecap:round;stroke-linejoin:round;stroke-miterlimit:10"/><path d="M454.298 38.689V81.76c0 8.284 6.716 15 15 15h0c8.284 0 15-6.716 15-15V38.689M239.38 269.95l-62.23-71.76m-23.06-26.59-53.64-61.85-45.2 37.93 88.66 272.91m128.035-113.092 94.592 109.07" style="fill:none;stroke:#000;stroke-width:15;stroke-linecap:round;stroke-linejoin:round;stroke-miterlimit:10"/><path d="M56.107 148.653c10.606 11.584 28.558 12.855 40.706 2.662 12.124-10.174 14.007-28.024 4.503-40.477M26.795 80.24c-11.686 14.714-11.827 36.093.721 51.047l16.317 19.446a5 5 0 0 0 7.044.616l54.213-45.49a5 5 0 0 0 .616-7.044L89.39 79.369c-7.931-9.452-19.27-14.357-30.712-14.426" style="fill:none;stroke:#000;stroke-width:15;stroke-linecap:round;stroke-linejoin:round;stroke-miterlimit:10"/><path d="M57.702 38.689V81.76c0 8.284-6.716 15-15 15h0c-8.284 0-15-6.716-15-15V38.689M143.908 443.56v-22.973a5.997 5.997 0 0 1 5.997-5.997h212.191a5.997 5.997 0 0 1 5.997 5.997v22.973" style="fill:none;stroke:#000;stroke-width:15;stroke-linecap:round;stroke-linejoin:round;stroke-miterlimit:10"/><path d="M82.425 226.03h347.151V256H82.425z" style="fill:none;stroke:#000;stroke-width:15;stroke-linecap:round;stroke-linejoin:round;stroke-miterlimit:10" transform="rotate(-90 256 241.015)"/><path d="M41.569 283.106q9.369 24.65 34.069 34.001-24.7 9.35-34.069 34.001Q32.2 326.456 7.5 317.107q24.7-9.351 34.069-34.001m430.278 70.397q8.98 23.626 32.653 32.587-23.673 8.962-32.653 32.587-8.98-23.625-32.653-32.587 23.674-8.961 32.653-32.587M368.01 67.414q-8.252-21.71-30.005-29.945 21.753-8.235 30.005-29.945 8.252 21.71 30.005 29.945-21.753 8.236-30.005 29.945m-30.005 156.735q-8.252-21.71-30.005-29.945 21.753-8.234 30.005-29.945 8.252 21.71 30.005 29.945-21.753 8.235-30.005 29.945m-157.912-78.388q-6.751-17.763-24.55-24.5 17.799-6.738 24.55-24.5 6.751 17.763 24.55 24.5-17.799 6.737-24.55 24.5" style="fill:none;stroke:#000;stroke-width:15;stroke-linecap:round;stroke-linejoin:round;stroke-miterlimit:10"/></svg>