<svg xmlns="http://www.w3.org/2000/svg" xml:space="preserve" viewBox="0 0 512 512"><path d="m145.769 63.707-12.147 11.23c-6.75 6.24-17.262 5.894-23.587-.777L70.19 32.133c-5.357-5.651-5.129-14.572.51-19.941l.8-.761a14.25 14.25 0 0 1 18.085-1.297h0a87.5 87.5 0 0 0 29.278 13.514M195.3 48.902c18.29 7.32 38.64 15.55 50.69 20.53" style="fill:none;stroke:#000;stroke-width:15;stroke-linecap:round;stroke-linejoin:round;stroke-miterlimit:10"/><path d="M162.83 35.802c-11.45-4.67-21.3-8.13-43.56-12.07l-.49.19-1.42 8.7a22.15 22.15 0 0 0 5.75 18.79l.18.18c2.77 2.94 6.24 5.05 10.07 6.14l.28.08c9.2 2.62 17.73 7.2 24.99 13.43l21.17 18.12a80.57 80.57 0 0 0 42.98 18.83m25.152-10.256V7.5m-.002 142.642v48.87m0 254.75v-219.75m.002 270.488v-17.587m34.347-2.849V504.5m0-373.628v296m0-419.372v76.649m19.606 375.205c.816 5.007 2.919 10.077 6.341 14.633 9.685 12.896 26.26 16.798 37.021 8.716q1.199-.902 2.234-1.943m68.569-22.423c1.833-3.827 3.375-7.054 4.267-8.922a7.3 7.3 0 0 1 2.401-2.837l6.567-4.615a9.2 9.2 0 0 0 3.002-11.52l-1.848-3.841 6.013-12.604c3.297-6.911-.275-15.141-7.574-17.454l-15.828-4.809a4.11 4.11 0 0 1-2.833-4.746l3.527-16.641" style="fill:none;stroke:#000;stroke-width:15;stroke-linecap:round;stroke-linejoin:round;stroke-miterlimit:10"/><path d="M363.724 404.081c-6.028 5.264-2.339 17.848 8.561 24.062h0a28.77 28.77 0 0 1 16.075 21.977l1.494 10.713 7.988-4.006a14.47 14.47 0 0 1 12.7-.135l11.915 5.662a5.695 5.695 0 0 1 2.7 7.588l-1.658 3.49c-8.831 18.584-31.056 26.491-49.64 17.66l-20.766-9.867c-18.021-8.563-27.058-28.397-22.684-47.063m62.221-54.955 19.258-9.489c21.307-10.499 34.84-32.506 33.733-56.233a64 64 0 0 0-.106-1.743h0a191.8 191.8 0 0 0-29.181-88.137h0L366.52 255.75l4.69 14.685a50.64 50.64 0 0 1-1.848 35.71v0a125.8 125.8 0 0 0-10.024 38.677" style="fill:none;stroke:#000;stroke-width:15;stroke-linecap:round;stroke-linejoin:round;stroke-miterlimit:10"/><path d="m337.05 370.612 28.21-30.62c3.58-3.89 8.36-6.46 13.58-7.32 15.41-2.52 29 10.31 27.36 25.85l-.04.43a23.75 23.75 0 0 1-8.06 15.42l-34.38 29.71-.09.08-72.8 62.93c-.61 4.49-2.62 8.82-6.07 12.27l-5.98 5.98c-4.47 4.47-10.42 6.54-16.28 6.24l-.02.02-.02-.03c-2.55-.14-5.08-.72-7.46-1.75a21.3 21.3 0 0 1-6.57-4.48c-8.38-8.38-8.38-21.97 0-30.35l5.98-5.98c4.44-4.43 10.34-6.5 16.15-6.24l42.76-46.41m-64.03-262.711-1.338 16.489c-.743 9.162-8.715 16.024-17.886 15.396l-57.777-3.957c-7.768-.532-13.64-7.252-13.124-15.022l.073-1.102a14.255 14.255 0 0 1 12.433-13.198h0a87.5 87.5 0 0 0 30.698-9.874m203.641 25.489c5.9 24.76 8.87 50.13 10.32 75.73" style="fill:none;stroke:#000;stroke-width:15;stroke-linecap:round;stroke-linejoin:round;stroke-miterlimit:10"/><path d="m396 114.292-7.86-22.74a41.7 41.7 0 0 0-6.35-11.79 42 42 0 0 0-9.77-9.16 38.24 38.24 0 0 0-34.54-4.14s-46.91 17.07-79.97 29.72c-20.22 7.74-28.52 9.26-54.72 25.99l-.42.21 5.03 7.62a22.14 22.14 0 0 0 16.96 9.94l.25.02c4.04.28 8.01-.52 11.57-2.31l.26-.13c8.55-4.3 17.92-6.7 27.48-7.04l27.86-.98c16.46-.59 32.34-6.2 45.52-16.08l4.58-3.45-.33 3.72c-.47 5.22-.71 10.44-.71 15.66 0 15.16 1.99 30.28 5.92 44.97.16.59.18 1.2.08 1.78-.11.6-.35 1.18-.72 1.69l-5.34 7.39a42.3 42.3 0 0 0-7.78 29.29 42.32 42.32 0 0 0 19.69 31.43l13.83 9.85" style="fill:none;stroke:#000;stroke-width:15;stroke-linecap:round;stroke-linejoin:round;stroke-miterlimit:10"/><path d="m346.643 175.876 7.127 8.23a62.06 62.06 0 0 0 46.913 21.433h11.963m-39.695 95.867a149.4 149.4 0 0 0 53.548 9.926h16.821m-159.759-177.26 55.312 47.88" style="fill:none;stroke:#000;stroke-width:15;stroke-linecap:round;stroke-linejoin:round;stroke-miterlimit:10"/></svg>