<svg xmlns="http://www.w3.org/2000/svg" viewBox="0 0 300 300"><path d="M294.3 75.5c-.4-.6-1.1-1.2-2.5-1.1-4.9.3-15.3 11.2-19.4 19-.1.1-6.1 7.8-13.5 11.5-2.3 1.1-7.2 3.4-13.4 6.3-14.8 6.8-35.1 16.2-40 19.9-3.1 2.3-10.9 7-21 12.7V57.6c2.1-2.9 3.2-6.9 3.1-10.2 0-2.7-.8-4.5-2.1-5.1-.3-.1-.6-.2-1-.2v-21c0-.4-.3-.8-.8-.8s-.8.3-.8.8v21.2c-.4.2-.9.5-1.4.9-1.9 1.5-3.3 3.1-4.4 4.7V21.1c0-.4-.3-.8-.8-.8-.4 0-.8.3-.8.8v28.7c0 .1 0 .2.1.3-1.4 2.5-2 4.5-2.2 5.3-5.6 3.9-22.5 27.1-23.1 28-7 7-14.9 16.6-19.1 24.6l-.2.2s-.2.5-.6 1.2q-.9 1.8-1.5 3.6v.4c-1.5 4.3-3.4 11.1-3.9 19.2-1.3 10.3 1.5 19.9 1.7 20.5l.1.4c-9.5-5.4-22.6-12.5-29.5-15.7-6.6-3.1-22.8-13.1-38.6-22.8-12.2-7.6-23.8-14.7-29.6-17.8-12.6-6.7-20.4-9.2-23-7.4-.6.4-1.2 1.2-1 2.8.5 3.7 3.4 6 6.8 8.6 3.1 2.4 6.6 5 9.6 9.6 2.4 3.5 4.9 5.4 7.6 5.5 2.3.1 4.1-1.2 5-2 4.3 4.5 31.2 32 48 37.8 2.5 2.9 31.1 35.4 52.7 41.8 2.3.9 4.9 1.4 7.8 1.4 4.7 0 8.7-1.2 9.5-1.5 1.6.1 3.2.2 4.6.2 8.3 0 11.6-1.9 12.2-2.3 2.2-.9 4.5-2.1 7-3.6l-.1 91c0 .4.3.8.8.8.4 0 .8-.3.8-.8l.1-95.5c.1.1.3.2.4.3 1.9 1 3.7 1.6 5.3 1.8v93.4c0 .4.3.8.8.8s.8-.3.8-.8v-93.4c1.7-.1 3.1-.8 3.9-2 .7-1 1.1-2.7.4-5.5.1 0 .1-.1.2-.1 4-3.5 8-7.6 11.9-12 7.6-8.6 14.5-16.5 15.5-17.6 2.3-1 27.4-11.7 56.1-38.4l.1-.1s1.7-2.4 8.3-1.5c1.8.2 3.3-.2 4.5-1.3 3.1-2.9 2.7-9.7 2.5-13.4 0-.6-.1-1-.1-1.4 0-.9 1.4-3 2.7-5 2.5-4.3 5.6-8.9 3.5-11.9M181 170.3c-.4 0-.7.1-1.1.1q-1.35.45-2.7 1.5V68.7c0-.1 0-.2-.1-.3 2.2-3.9 3.8-7 4.2-7.8.6-.3 1.2-.8 1.8-1.3v111.6q-1.05-.6-2.1-.6m-37.9-52.1c-.3-1 0-1.6.1-1.7.5-1.1 1-2.2 1.7-3.4.2 2.2.8 4.3 1.8 6.2zm32.5-25.3c-5-3.5-10-3.4-13.3-2.8 4.5-4.7 9.5-12.7 13.3-19.3zm-15.5-.6c2.2-.8 9-2.7 15.6 2.5v23.8l-.3-.3c.1-.2.1-.5 0-.8-2.4-3.7-1.5-9.5-.3-13.7v-.6s0-.1-.1-.1l-.1-.1-.1-.1s-.1 0-.1-.1h-.5c-4.2 1.5-10.5 2.6-14.2.6s-5.3-2.9-6.1-3.4c3.1-4.1 5.8-7.2 6.2-7.7m14.5 32c-.6.9-1.4 1.5-2.2 1.6-.9.2-1.8 0-2.4-.3 2.1-1.3 3.8-3.1 5-5.4.4.9.8 2.3-.4 4.1m-21.7-23c.9.6 2.7 1.6 6.3 3.5 1.7.9 3.8 1.3 6 1.3 2.7 0 5.6-.6 8.1-1.3-1.1 4.4-1.6 9.9.8 13.6l.1.1-.1.1c-2.4 5.4-7.5 8.3-14.1 7.8-8.1-.6-14.2-7.6-13.6-15.7 1.9-3.2 4.3-6.5 6.5-9.4m13.5 43c0-.1-.1-.1-.1-.2-1.3-2.3-2.6-4.5-1.1-7.6.2-.4.3-.7.5-1.1.5 2.5.9 5.7.7 8.9m-10.3-17.2c.4 1.5.5 2.9-.3 5.4-.1.3-.2.6-.2.8-2.5 1-5.5 1.5-6.6 1.7-1.5-2.2-4.6-7.3-4.8-9.8-.2-2.6 3.1-3.8 3.8-4.1 1.9 2.8 4.7 4.9 8.1 6m1.1 5.9c.9-2.4.8-4.1.6-5.4.7.2 1.5.3 2.2.3.5 0 1 .1 1.4.1 1.2 0 2.4-.2 3.6-.4.3 2.4.3 5.6-1.1 8.3-1.9 3.8-.3 6.6 1.1 9 .2.3.3.6.5.8-.7-.6-1.6-1.2-2.7-1.6-2.5-1-8.1-4.1-5.6-11.1m9.4 17.2c.1.3.4.6.7.6.4 0 .7-.3.7-.6.2-1.4-.1-2.6-.7-3.8l.4-.9c.4 1.7.8 3.8 1.4 6.5-2 1-3.7 1.9-5.3 2.7l2.3-5.5c.4.5.5.9.5 1m4 1c-2-9.3-2.6-11.8-2.9-12.5-.3-2.8-.8-5.2-1.2-6.7.2-1.7.1-3.4-.1-4.8.6-.2 1.3-.4 1.9-.7.5.3 1.8 1 3.4 1 .3 0 .6 0 .9-.1 1.2-.2 2.2-.9 3-2v23.2c-1.7.9-3.4 1.8-5 2.6m-19-66.8c.2-.2 18-24.7 23-27.9.1-.1.2-.1.2-.2.1-.1.1-.2.1-.3s1.6-7.1 7.5-11.7c.7-.5 1.6-1.1 2.3-.8.8.4 1.3 1.8 1.3 3.8 0 4.4-2.1 10.1-5.8 12l-.1.1-.1.1-.1.1-.1.1c-.1.2-12.4 24.5-20.8 31.4l-.1.1c-.5.6-13.3 15.5-17.2 24.6 0 .1-.7 1.2-.3 2.8-4.4 2.9-11.8 9.5-14.9 12.3 1-10.3 4-18 5.2-20.8 4.2-8.1 12.5-18.3 19.9-25.7m-25 48.7c1.5-1.4 11.1-10.2 16.1-13.4l3 .8c-1.5.9-3.2 2.4-3 4.8.3 3.7 5.1 10.7 5.3 11 .2.2.4.4.7.3.2 0 3.4-.5 6.4-1.6-.8 6.6 5.1 9.7 7.1 10.5 1.4.6 2.3 1.3 3 2.1l-3.1 7.4c-3.6-1.9-19.6-9.4-34.1-3.1-.6-2.5-2.4-10.5-1.4-18.8m1.8 20.4c13.3-6 28.2.5 32.5 2.7-.1 0-.2.1-.3.1-1.6.8-3.7 1.6-5 2.2-4.2 1.5-10.9 1.7-14.5 1.7h-2.7c-.8-.5-4.6-2.6-9.6-5.5zM83 150.8c-.1-.1-.2-.2-.3-.2-17.6-5.9-47.8-37.7-48.1-38-.1-.2-.4-.3-.6-.2q-.3 0-.6.3s-1.8 2.2-4.4 2c-2.1-.1-4.3-1.7-6.4-4.8-3.2-4.7-6.9-7.6-10-9.9-3.4-2.6-5.8-4.4-6.2-7.5-.1-1 .3-1.2.4-1.3 2-1.4 10.1 1.5 21.6 7.6 5.8 3.1 17.3 10.2 29.5 17.8 15.8 9.7 32.1 19.8 38.7 22.9 11.3 5.3 39.1 21.2 40.9 22.2.4.5 3.5 4.1 3.4 12.3-.1 7.9-5.1 16.3-6.4 18.3-21.5-7-51.2-41.1-51.5-41.5m73.6 41.5c-1.5 0-3-.1-4.7-.2h-.3s-4.2 1.5-9.1 1.5c-2.4 0-4.5-.3-6.5-1 1.6-2.6 6.4-10.8 6.5-18.8.1-6.5-1.7-10.3-2.9-12.1h1.4c3.4 0 9.5-.2 13.9-1.4-.4 4.9-1.2 23.5 11.8 30.6-1.5.5-4.7 1.4-10.1 1.4m19.2-6.2c-2.6 1.6-5.1 2.9-7.3 3.8-13.8-6.4-12.3-27.1-12-30.3 1.3-.5 3.1-1.3 4.7-2.1 3.4-1.6 8.5-4.2 14.5-7.4v23.3c-.9 1.2-1.6 2.6-1.8 4-.1 1.4.1 3.2 1.9 4.8zm11.3-3.4c-.7 1.1-2.1 1.3-3.1 1.3-1.6 0-3.6-.6-5.6-1.7-2.2-1.2-3.3-2.8-3.1-4.7.3-2.6 2.9-5.2 4.9-5.8.2-.1.5-.1.7-.1 2.4 0 4.9 3.3 5.7 4.5 1.2 3 1.4 5.2.5 6.5m99.1-90.5c0 .4 0 .8.1 1.4.2 3.2.6 9.8-2 12.2-.8.8-1.9 1.1-3.2.9-6.9-.9-9.2 1.6-9.7 2.1-29.7 27.6-55.5 38-55.8 38.1-.1 0-.2.1-.3.2 0 0-7.4 8.5-15.6 17.7-3.8 4.3-7.6 8.2-11.4 11.6-.1-.3-.2-.5-.3-.8-.1-.1-1.5-2.4-3.5-4v-26.4c.1 0 .1 0 .2-.1 10.4-5.8 18.5-10.7 21.8-13.1 4.8-3.6 25.8-13.3 39.7-19.7 6.2-2.9 11.2-5.2 13.5-6.3 7.7-3.9 13.8-11.6 14.1-12.1 4.2-8 14.2-18 18.2-18.3.7 0 1 .2 1.1.5 1.5 2.2-1.5 6.5-3.8 10.1-1.7 2.7-3.1 4.7-3.1 6"/></svg>