<svg xmlns="http://www.w3.org/2000/svg" xml:space="preserve" width="512" height="512" viewBox="0 0 512 512"><path d="m456.75 147.68-34.21 105.29m-10.81 33.29-43.64 134.33M239.81 307.781l-94.347 108.787m181.04-208.749-54.558 62.909m139.606-160.974-61.459 70.866M210.14 474.53H443.5c3.32 0 6 2.69 6 6v17.97c0 3.32-2.68 6-6 6h-375c-3.32 0-6-2.68-6-6v-17.97c0-3.31 2.68-6 6-6h106.64M7.5 7.5v19.97c0 5.52 4.48 10 10 10h169.64m150.87 0H222.14M504.5 7.5v19.97c0 5.523-4.477 10-10 10h-96.485M109.807 473.53v-22.973a5.997 5.997 0 0 1 5.997-5.997h280.391a5.997 5.997 0 0 1 5.997 5.997v22.973m-34.1-406.09H149.905a5.997 5.997 0 0 1-5.997-5.997V38.47M456.33 148.165c-10.544 12.035-28.827 13.484-41.143 3.15-12.36-10.371-14.076-28.72-3.937-41.196m73.964-29.867c11.677 14.714 11.815 36.085-.73 51.036l-16.317 19.446a5 5 0 0 1-7.044.616l-54.213-45.49a5 5 0 0 1-.616-7.044l16.317-19.446c7.819-9.319 18.952-14.218 30.229-14.42" style="fill:none;stroke:#000;stroke-width:15;stroke-linecap:round;stroke-linejoin:round;stroke-miterlimit:10"/><path d="M454.298 38.689V81.76c0 8.284 6.716 15 15 15h0c8.284 0 15-6.716 15-15V38.689M239.38 269.95l-62.23-71.76m-23.06-26.59-53.64-61.85-45.2 37.93 88.66 272.91m128.035-113.092 94.592 109.07" style="fill:none;stroke:#000;stroke-width:15;stroke-linecap:round;stroke-linejoin:round;stroke-miterlimit:10"/><path d="M56.107 148.653c10.606 11.584 28.558 12.855 40.706 2.662 12.124-10.174 14.007-28.024 4.503-40.477M26.795 80.24c-11.686 14.714-11.827 36.093.721 51.047l16.317 19.446a5 5 0 0 0 7.044.616l54.213-45.49a5 5 0 0 0 .616-7.044L89.39 79.369c-7.931-9.452-19.27-14.357-30.712-14.426" style="fill:none;stroke:#000;stroke-width:15;stroke-linecap:round;stroke-linejoin:round;stroke-miterlimit:10"/><path d="M57.702 38.689V81.76c0 8.284-6.716 15-15 15h0c-8.284 0-15-6.716-15-15V38.689M143.908 443.56v-22.973a5.997 5.997 0 0 1 5.997-5.997h212.191a5.997 5.997 0 0 1 5.997 5.997v22.973" style="fill:none;stroke:#000;stroke-width:15;stroke-linecap:round;stroke-linejoin:round;stroke-miterlimit:10"/><path d="M82.425 226.03h347.151V256H82.425z" style="fill:none;stroke:#000;stroke-width:15;stroke-linecap:round;stroke-linejoin:round;stroke-miterlimit:10" transform="rotate(-90 256 241.015)"/><path d="M41.569 283.106q9.369 24.65 34.069 34.001-24.7 9.35-34.069 34.001Q32.2 326.456 7.5 317.107q24.7-9.351 34.069-34.001m430.278 70.397q8.98 23.626 32.653 32.587-23.673 8.962-32.653 32.587-8.98-23.625-32.653-32.587 23.674-8.961 32.653-32.587M368.01 67.414q-8.252-21.71-30.005-29.945 21.753-8.235 30.005-29.945 8.252 21.71 30.005 29.945-21.753 8.236-30.005 29.945m-30.005 156.735q-8.252-21.71-30.005-29.945 21.753-8.234 30.005-29.945 8.252 21.71 30.005 29.945-21.753 8.235-30.005 29.945m-157.912-78.388q-6.751-17.763-24.55-24.5 17.799-6.738 24.55-24.5 6.751 17.763 24.55 24.5-17.799 6.737-24.55 24.5" style="fill:none;stroke:#000;stroke-width:15;stroke-linecap:round;stroke-linejoin:round;stroke-miterlimit:10"/></svg>