<svg xmlns="http://www.w3.org/2000/svg" viewBox="0 0 300 300"><path d="m229.2 157.5-.5-.2v-.3c-.9-4.6-.8-8.5.1-11.4.2-.4 5.4-9.7 0-21.8-5.3-11.9-16.2-24-16.3-24.1s-7.9-8.5-16.6-15.2c-13.8-11.7-29.2-23.1-38.3-28.6 0-.1.1-.2.1-.3V5.8c0-.5-.4-.8-.8-.8s-.9.4-.9.8V55c-.9-.5-1.8-1-2.5-1.3-1.1-.5-2.5-1.2-4.1-2V5.8c0-.5-.4-.8-.8-.8s-.8.4-.8.8V51c-4.8-2.2-11-5.1-17.5-8-13.6-6.2-27.6-12.7-30.3-14.2-4.4-2.4-6-3.8-6-3.8-4-4.8-18.3-18.8-22.6-18.4-1.3.1-2 .8-2.3 1.3-1.2 2.1.4 6 3.7 12.6 1.7 3.3 2.2 6.5 2.7 9.4.6 3.4 1.1 6.3 3.2 8.3 3.5 3.2 10.8 1 12.8.3C116.7 63.7 139 69.4 141.8 70c.6.7 2.9 3.4 6 6.9v93.9c-.1.6-.1 1.3 0 2v14.4c-.6 1.3-1.1 2.7-1.4 4.1-1.2 4.8-.6 9.5 1.5 13.5-.1.1-.1.2-.1.4V268c-.9.7-1.6 1.5-2 2.5-.7 1.6-1 4.3 2 7.9v15.7c0 .5.4.8.8.8s.8-.4.8-.8v-14.6c1.1.5 2.8 1 5.2 1 .5 0 1 0 1.4-.1v13.7c0 .5.4.8.8.8s.8-.4.8-.8v-13.9c1.5-.3 3.1-.7 4.7-1.4 8.1-3.3 9.6-7.6 9.9-8.7 1.6-2 18.4-22.9 26.7-34.2 1.6-2.1 2.7-4.5 3.2-7.1 1.9-8.5 6.3-29.2 6.8-38.7.1-.9 0-1.7 0-2.5l3-1.9c1.3-.4 14.4-4.2 17.2-12.8 2.9-8.7.7-14.8.6-15.1-.1-.1-.3-.2-.5-.3m-1.9-12.6c-1.1 3.2-1.2 7.1-.4 11.8l-28.2-10.3c2.5-6.8 3.2-14.6-.6-25.7 0-.1-.1-.1-.1-.2 0 0 0-.1-.1-.1l-.1-.1-.1-.1h-.3c-.1 0-.6 0-1.6-.2 1.7-3.2 7.5-13.3 16-18.7 2.1 2.4 11 12.9 15.6 23.1 5 11.4.1 20.3-.1 20.5m-42.6 25c-.7 1.8-.9 3.8-.7 5.8-3.9-2.1-9.4-3.4-17-2.1-.1-1.2-.2-2.4-.6-3.7-1.2-4.4-5-6.1-8.8-6.1V88.5c6.7 7.9 13.3 15.9 15.2 19 7.8 12.4 21.1 14.1 24 14.3 3.6 10.7 2.8 18.4.1 25l-7.2 13.3c-1.9 3-3.6 6.2-5 9.8M153 180c-1.5-1.1-3.1-3.1-3.7-7.2v-1.7c.5-3.1 3.4-5 6.4-5.6 3.7-.7 7.9.4 9 4.7.4 1.3.5 2.5.6 3.6-.7.1-1.4.3-2.2.5-3.8 1-7.2 3-10.1 5.7m57.6-79.9c-9.3 6-15.2 17-16.5 19.6-4.4-.9-12.2-3.4-18-10.5 4.6-12.7 16.7-21.4 19.2-23.1 7 5.4 13.3 11.8 15.3 14m-68.2-31.6c-.2 0-23.5-4.8-50-31.6-.2-.2-.6-.3-.9-.2-2.3.9-9 2.6-11.6.2-1.7-1.6-2.2-4.1-2.7-7.3-.5-3-1.1-6.3-2.8-9.8-1.5-3-4.7-9.4-3.7-11.1.1-.1.2-.4 1-.5 2.7-.2 15.5 11.2 21 17.9.1.1 1.7 1.5 6.4 4.1 2.8 1.5 16.8 8 30.4 14.2 9.6 4.4 18.7 8.6 23.2 10.7 7.6 3.7 25.6 16.7 41.2 29.9-3.3 2.3-14.2 10.5-19.1 22.6-.3-.4-.5-.7-.8-1.1-4.3-6.8-30.3-36.6-31.4-37.8.1-.1-.1-.2-.2-.2m6.9 10.3c2 2.4 4.3 5 6.6 7.8v77.3c-.2 0-.4 0-.6.1-2.3.5-4.6 1.6-6.1 3.4V78.8zm0 99.4c.8 1.4 1.7 2.3 2.5 3-.9 1-1.8 2.1-2.5 3.3zm-1.4 13.7c1.9-7.8 8-14 15.7-16 16.9-4.3 23.8 3.7 26.6 7.3-.5 1.1-1 2.3-1.4 3.8l-1-.1c-.4-1.1-1.7-3.4-4-4.5-1.7-.8-3.6-.8-5.7.1-1.6.6-2.5 1.6-2.8 3-.5 2 .6 4.2 1.4 5.5-2.5.6-7.8 2.7-9.8 10-1.8 6.3-1.7 11.2.1 14.4.7 1.2 1.6 2 2.3 2.4-1.5 1.3-4.3 1.5-7.5.5-4.1-1.3-8.3-4.5-8.4-8.7q0-.3-.3-.6c-4.9-4.2-6.8-10.5-5.2-17.1m9.7 26.4c1.2.7 2.4 1.2 3.6 1.6 1.5.5 2.9.7 4.2.7 2.3 0 4.2-.7 5.3-2.1 1.7.5 3.4.8 5.2.8 2.8 0 5.8-.7 8.7-2-1 5.4-1.9 8.5-2 9.1-.9 1.5-13.1 23.2-17.2 31.2l-2.6 5.6c-.1.1-1.7 2.3-5.2 2.3zm27.4-3q-7.35 3.75-14.1 1.5c-6.75-2.25-1.4-.4-2.5-2.2-1.1-1.9-2-5.8 0-13.1 2.4-8.5 9.4-9.1 9.7-9.1s.6-.2.7-.5.1-.6-.1-.8c-.7-.8-2.3-3.4-1.9-5.2.2-.8.8-1.4 1.9-1.9 1.6-.7 3.1-.7 4.4-.1 2.3 1.1 3.3 4 3.3 4 .1.3.4.5.7.6l1.2.1c-.5 2.2-.9 4.9-1.1 8.1-.6 7.6-1.4 13.8-2.2 18.6m-35.7-7.9c.7.9 1.5 1.8 2.4 2.6.2 2.9 1.9 5.4 4.3 7.2v48.1c-1.9 0-4.4.6-6.6 1.7v-59.6zm58-17.2c-.5 9.3-4.9 30-6.8 38.4-.5 2.4-1.5 4.5-3 6.5-8.6 11.7-26.6 34.1-26.8 34.3-.1.1-.2.3-.2.4 0 0-.7 4.3-8.9 7.7-2.5 1-4.9 1.6-7.1 1.6-3.5 0-5.4-1.3-5.5-1.3-2.1-2.4-2.7-4.5-1.9-6.3 1.4-3.1 6.8-4.6 9.5-4.3 5.2.6 7.4-2.8 7.6-3.1l2.7-5.7c4.2-8.2 17-31 17.2-31.2 0-.1.1-.1.1-.2s1.1-3.9 2.3-10.8v-.1c.8-4.9 1.7-11.3 2.3-19.2 1.2-16.9 7.1-17.4 7.8-17.4h.4c.5-.2 1.3-.3 2.1-.3 1.1 0 3.8.2 5.8 2.4 1.8 1.8 2.6 4.7 2.4 8.6m-1.2-9.8c-1.7-1.8-4.3-2.9-7-2.9-.9 0-1.8.1-2.5.4-.7 0-3.3.2-5.6 3.8-1.1-1.4-2.8-3.3-5.3-4.9v-.2c-.4-2.1-.2-4.2.5-6 1.2-3.2 2.8-6.2 4.5-9 5.8 2 18.9 7.5 20 11.9 1.2 5.1.3 9.9.1 11.2l-2.1 1.4c-.4-2.5-1.3-4.3-2.6-5.7m21.5-7.9c-2.2 6.5-11.5 10.2-15 11.4.3-2.1.8-6.4-.3-10.8-1.4-5.8-16.4-11.5-20.7-13 .3-.6.7-1.1 1-1.7 2.1-3.4 4.1-6.8 5.6-10.4l30.1 10.9c.4 1.3 1.6 6.6-.7 13.6"/></svg>