<svg xmlns="http://www.w3.org/2000/svg" xml:space="preserve" width="512" height="512" viewBox="0 0 512 512"><path fill="#6c7ed6" d="M497.28 388.963 455.438 30.928A34.267 34.267 0 0 0 421.24 0H90.761a34.267 34.267 0 0 0-34.198 30.928L14.72 388.964c-2.039 20.26 13.904 37.812 34.198 37.812H231.5v-7.067h167.074v7.067h64.509c20.362-.001 36.229-17.62 34.197-37.813" data-original="#6c7ed6"/><path fill="#4f67d2" d="M52.872 388.964 94.714 30.928A34.27 34.27 0 0 1 128.912 0H90.761a34.267 34.267 0 0 0-34.198 30.928L14.72 388.964c-2.039 20.26 13.904 37.812 34.198 37.812h38.151c-20.293-.001-36.236-17.552-34.197-37.812" data-original="#4f67d2"/><path fill="#b9f5ff" d="M461.32 382.04 421.388 42.978a8.77 8.77 0 0 0-8.727-7.893H99.34a8.77 8.77 0 0 0-8.727 7.893L50.68 382.04c-.518 5.168 3.541 9.65 8.727 9.65h393.186c5.194 0 9.245-4.49 8.727-9.65" data-original="#60b8fe"/><path fill="#2cccf4" d="m96.695 382.04 39.933-339.062a8.77 8.77 0 0 1 8.727-7.893H99.34a8.77 8.77 0 0 0-8.727 7.893L50.68 382.04c-.519 5.168 3.542 9.65 8.727 9.65h46.015c-5.186 0-9.246-4.482-8.727-9.65" data-original="#23a8fe"/><path fill="#58e2ff" d="M256 166.6c-20.891 22.282-56.218 22.308-77.134-.001-9.541 10.156-22.746 16.189-36.723 16.675-4.276.147-7.842-3.189-7.99-7.454s3.189-7.842 7.453-7.99c10.833-.376 20.619-5.199 27.556-13.579 5.049-6.102 14.346-6.116 19.409 0 15.038 18.17 42.712 18.138 57.723.001 5.063-6.117 14.36-6.104 19.411.001 15.038 18.171 42.712 18.135 57.723-.001 5.061-6.116 14.359-6.104 19.41 0 6.936 8.38 16.723 13.203 27.556 13.579a7.726 7.726 0 1 1-.536 15.444c-13.978-.486-27.183-6.519-36.724-16.675-20.89 22.279-56.217 22.31-77.134 0m0 63.382c-20.889 22.279-56.217 22.309-77.133.001-11.598 12.375-28.266 18.433-45.241 16.285a7.726 7.726 0 0 1-6.695-8.635c.535-4.234 4.402-7.235 8.635-6.695 12.8 1.618 25.36-3.354 33.596-13.304 5.049-6.102 14.346-6.116 19.409 0 15.036 18.169 42.712 18.139 57.723.001 4.092-4.944 9.848-4.615 9.707-4.583a12.57 12.57 0 0 1 9.704 4.584c15.037 18.17 42.712 18.137 57.722-.001 5.061-6.116 14.359-6.104 19.41 0 8.235 9.95 20.792 14.919 33.596 13.304a7.727 7.727 0 0 1 1.939 15.33c-16.972 2.151-33.643-3.909-45.241-16.285-20.885 22.276-56.214 22.307-77.131-.002m0-127.212c-20.888 22.278-56.214 22.31-77.131.002-7.443 7.96-16.929 13.319-27.625 15.572a7.724 7.724 0 0 1-9.153-5.967 7.725 7.725 0 0 1 5.967-9.153c8.327-1.755 15.624-6.182 21.105-12.803 5.049-6.102 14.346-6.116 19.409 0 15.038 18.17 42.712 18.138 57.723.001 5.063-6.117 14.36-6.104 19.411.001 15.038 18.171 42.712 18.135 57.723-.001 5.061-6.116 14.359-6.104 19.41 0 5.48 6.621 12.778 11.048 21.105 12.802a7.725 7.725 0 0 1 5.968 9.153c-.879 4.175-4.976 6.851-9.153 5.968-10.697-2.253-20.184-7.613-27.627-15.572-20.888 22.275-56.215 22.307-77.132-.003" data-original="#0193fa"/><path fill="#dfebfa" d="M332.581 295.652c-35.445.673-63.49 30.366-63.49 65.816v31.253h37.592v-31.672c0-14.703 11.41-27.241 26.102-27.797 15.446-.584 28.197 11.812 28.197 27.13v31.679c7.966 1.657 13.953 8.714 13.953 17.173s-5.987 15.515-13.953 17.173v35.826c7.966 1.657 13.953 8.714 13.953 17.173s-5.987 15.515-13.953 17.173v9.605a5.82 5.82 0 0 0 5.819 5.819h25.953a5.82 5.82 0 0 0 5.819-5.819v-145.8c.001-36.118-29.723-65.42-65.992-64.732" data-original="#dfebfa"/><path fill="#b1dbfc" d="M358.423 391.69h-90.362v35.085h90.362c9.689 0 17.543-7.854 17.543-17.543s-7.855-17.542-17.543-17.542m0 70.171h-90.362v35.085h90.362c9.689 0 17.543-7.854 17.543-17.543s-7.855-17.542-17.543-17.542" data-original="#b1dbfc"/><path fill="#8bcaff" d="M268.061 391.69h39.147v35.085h-39.147zm0 70.171h39.147v35.085h-39.147z" data-original="#8bcaff"/><path fill="#dfebfa" d="M203.1 295.652c-35.444.672-63.49 30.364-63.49 65.815v30.223h37.592v-30.642c0-14.702 11.41-27.24 26.101-27.796 15.445-.585 28.197 11.81 28.197 27.129v145.8a5.82 5.82 0 0 0 5.819 5.819h25.953a5.82 5.82 0 0 0 5.819-5.819v-145.8c0-36.115-29.723-65.417-65.991-64.729" data-original="#dfebfa"/></svg>