<svg xmlns="http://www.w3.org/2000/svg" width="512" height="512" viewBox="0 0 512 512"><path fill="#86dcff" d="M506.624 484.396H5.729a5.16 5.16 0 0 1-5.161-5.144L.04 320.014l5.127-6.662s12.737 21.27 46.041 21.27 51.208-26.629 51.208-26.629 17.903 26.629 51.208 26.629 51.169-26.629 51.169-26.629 17.903 26.629 51.208 26.629 51.208-26.629 51.208-26.629 17.903 26.629 51.208 26.629 51.169-26.629 51.169-26.629 17.903 26.629 51.208 26.629 41.917-26.629 41.917-26.629l8.055 10.826a5.16 5.16 0 0 1 1.021 3.081v157.335a5.163 5.163 0 0 1-5.163 5.161"/><path fill="#ffbe7c" d="M9.29 319.641s8.613 14.981 41.917 14.981 51.208-26.629 51.208-26.629 17.903 26.629 51.208 26.629 51.169-26.629 51.169-26.629 17.903 26.629 51.208 26.629 51.208-26.629 51.208-26.629 17.903 26.629 51.208 26.629 51.169-26.629 51.169-26.629 17.903 26.629 51.208 26.629 41.917-17.339 41.917-17.339l9.29-18.581V182.921a5.16 5.16 0 0 0-5.161-5.161h-64.841l-17.527-9.29-17.527 9.29H272.191l-16.149-9.29-18.905 9.29H5.723a5.16 5.16 0 0 0-5.161 5.138L.083 301.18z"/><path fill="#e4eef9" d="m146.728 259.429-9.291-9.291-9.29-9.334 9.29-9.245h134.754l9.29 8.494-9.29 10.085-9.291 9.291z"/><path fill="#d5e0f2" d="M137.437 268.719h134.754l9.29-9.29-9.29-9.291H137.437l-9.29 9.291z"/><path fill="#d5e0f2" d="M357.931 27.608c-47.198-.457-85.74 37.804-85.74 84.899v219.902c22.872-6.38 35.017-24.416 35.017-24.416l.037.054V113.392c0-27.894 22.827-51.205 50.718-50.726 27.089.464 48.982 22.644 48.982 49.842v46.664l17.527 9.29 17.527-9.29v-45.58c-.001-46.745-37.326-85.531-84.068-85.984"/><path fill="#bdcde5" d="M406.944 159.171h35.054v18.581h-35.054z"/><path fill="#e4eef9" d="M188.124 27.608c-47.199-.457-85.74 37.804-85.74 84.899V308.04l.032-.047s12.146 18.039 35.022 24.418V113.392c0-27.894 22.827-51.205 50.717-50.726 27.089.464 48.982 22.644 48.982 49.842v46.664l17.527 9.29 17.527-9.29v-45.58c0-46.745-37.326-85.531-84.067-85.984"/><path fill="#d5e0f2" d="M237.137 159.171h35.054v18.581h-35.054z"/><path fill="#41adf7" d="M512 294.699s-4.908 6.757-6.408 8.95c-.648.948-16.214 23.232-44.799 23.232s-44.151-22.283-44.783-23.207a7.74 7.74 0 0 0-6.424-3.422h-.004a7.74 7.74 0 0 0-6.425 3.428c-.155.232-15.898 23.201-44.74 23.201-28.586 0-44.151-22.283-44.783-23.207a7.75 7.75 0 0 0-6.403-3.409h-.029a7.77 7.77 0 0 0-6.4 3.384c-.648.948-16.214 23.232-44.799 23.232s-44.151-22.283-44.783-23.207a7.74 7.74 0 0 0-6.406-3.409h-.026a7.77 7.77 0 0 0-6.404 3.391c-.647.948-16.176 23.225-44.757 23.225-28.586 0-44.151-22.283-44.783-23.207a7.74 7.74 0 0 0-6.403-3.409h-.029a7.77 7.77 0 0 0-6.4 3.384c-.648.948-16.214 23.232-44.799 23.232S7.062 304.598 6.43 303.674c-1.486-2.21-6.39-8.991-6.39-8.991L0 307.993l.04 12.021c8.662 8.916 25.903 22.35 51.168 22.35 25.297 0 42.556-13.472 51.208-22.387 8.651 8.915 25.91 22.387 51.208 22.387 25.291 0 42.53-13.465 51.174-22.383 8.653 8.916 25.91 22.383 51.203 22.383 25.297 0 42.556-13.472 51.208-22.387 8.651 8.915 25.91 22.387 51.208 22.387 25.291 0 42.53-13.465 51.174-22.383 8.653 8.916 25.91 22.383 51.203 22.383 25.101 0 42.276-13.258 50.993-22.174l.213-12.197zM409.623 436.937c-25.297 0-42.556-13.472-51.208-22.387-8.651 8.915-25.91 22.387-51.208 22.387-25.292 0-42.549-13.467-51.203-22.383-8.644 8.918-25.883 22.383-51.174 22.383-25.297 0-42.556-13.472-51.208-22.387-8.651 8.915-25.91 22.387-51.208 22.387-37.003 0-56.807-28.825-57.632-30.051a7.74 7.74 0 0 1 2.105-10.744 7.74 7.74 0 0 1 10.744 2.105c.632.923 16.197 23.207 44.783 23.207s44.151-22.283 44.799-23.232a7.77 7.77 0 0 1 6.4-3.384h.03a7.74 7.74 0 0 1 6.402 3.409c.632.923 16.198 23.207 44.783 23.207 28.581 0 44.11-22.277 44.757-23.225a7.77 7.77 0 0 1 6.403-3.391h.027a7.74 7.74 0 0 1 6.406 3.409c.632.923 16.198 23.207 44.783 23.207s44.151-22.283 44.799-23.232a7.77 7.77 0 0 1 6.4-3.384h.03a7.74 7.74 0 0 1 6.402 3.409c.632.923 16.198 23.207 44.783 23.207 28.581 0 44.11-22.277 44.757-23.225 2.404-3.521 7.212-4.451 10.742-2.061s4.475 7.171 2.1 10.713c-.819 1.225-20.586 30.056-57.594 30.056"/></svg>