<svg xmlns="http://www.w3.org/2000/svg" xml:space="preserve" width="512" height="512" viewBox="0 0 60 60"><path fill="#9ebbce" d="M59 49.3V57a2 2 0 0 1-2 2H3a2 2 0 0 1-2-2v-7.7z" data-original="#9ebbce"/><path fill="#bfdbf0" d="M1.106 48.714 13.516 15.3a2 2 0 0 1 1.875-1.3h29.218a2 2 0 0 1 1.875 1.3l12.41 33.41a1.7 1.7 0 0 1 .106.591 1.7 1.7 0 0 1-1.7 1.7H2.7A1.7 1.7 0 0 1 1 49.305a1.7 1.7 0 0 1 .106-.591" data-original="#bfdbf0"/><path fill="#b9f5ff" d="M51.61 45H8.39l9.78-31h23.66z" data-original="#3778c6"/><path fill="#40405b" d="M39 0a4 4 0 0 0-4 4v4H25V4a2 2 0 0 1 4 0 1 1 0 0 0 2 0 4 4 0 0 0-8 0v20.39a1 1 0 0 0 2 0V20h10v3.62a1 1 0 1 0 2 0V4a2 2 0 0 1 4 0 1 1 0 0 0 2 0 4 4 0 0 0-4-4m-4 10v3H25v-3zm-10 8v-3h10v3z" data-original="#40405b"/><path fill="#55e2ff" d="M40 26a6.6 6.6 0 0 1-3.849-1.143 5.065 5.065 0 0 0-5.638 0A6.6 6.6 0 0 1 26.664 26a6.6 6.6 0 0 1-3.847-1.143A4.65 4.65 0 0 0 20 24a1 1 0 0 1 0-2 6.6 6.6 0 0 1 3.847 1.143 5.06 5.06 0 0 0 5.636 0 7.05 7.05 0 0 1 7.7 0A4.66 4.66 0 0 0 40 24a1 1 0 0 1 0 2m1 6a7.6 7.6 0 0 1-4.146-1.122 6.23 6.23 0 0 0-6.378 0A7.6 7.6 0 0 1 26.33 32a7.6 7.6 0 0 1-4.144-1.122A5.7 5.7 0 0 0 19 30a1 1 0 0 1 0-2 7.6 7.6 0 0 1 4.145 1.122A5.7 5.7 0 0 0 26.33 30a5.7 5.7 0 0 0 3.189-.878 8.22 8.22 0 0 1 8.292 0A5.7 5.7 0 0 0 41 30a1 1 0 0 1 0 2m2 7a9.95 9.95 0 0 1-4.753-1.092A7.94 7.94 0 0 0 34.331 37a7.94 7.94 0 0 0-3.915.908A9.95 9.95 0 0 1 25.663 39a9.94 9.94 0 0 1-4.751-1.092A7.93 7.93 0 0 0 17 37a1 1 0 0 1 0-2 9.94 9.94 0 0 1 4.75 1.092 7.93 7.93 0 0 0 3.913.908 7.94 7.94 0 0 0 3.915-.908A9.95 9.95 0 0 1 34.331 35a9.95 9.95 0 0 1 4.754 1.092A7.94 7.94 0 0 0 43 37a1 1 0 0 1 0 2" data-original="#2d629b"/></svg>