<svg xmlns="http://www.w3.org/2000/svg" xml:space="preserve" width="512" height="512" viewBox="0 0 60 60"><path fill="#a3bdce" d="M59 49.3V57a2 2 0 0 1-2 2H3a2 2 0 0 1-2-2v-7.7Z" data-original="#a3bdce"/><path fill="#c4ddf0" d="M1.106 48.714 13.516 15.3a2 2 0 0 1 1.875-1.3h29.218a2 2 0 0 1 1.875 1.3l12.41 33.41a1.7 1.7 0 0 1 .106.591 1.7 1.7 0 0 1-1.7 1.7H2.7A1.7 1.7 0 0 1 1 49.305a1.7 1.7 0 0 1 .106-.591" data-original="#c4ddf0"/><path fill="#b9f5ff" d="M51.61 45H8.39l9.78-31h23.66z" data-original="#4580c6"/><path fill="#373737" d="m59.831 48.366-12.409-33.41A3.01 3.01 0 0 0 44.609 13H37V4a2 2 0 0 1 4 0 1 1 0 0 0 2 0 4 4 0 0 0-8 0v4H25V4a2 2 0 0 1 4 0 1 1 0 0 0 2 0 4 4 0 0 0-8 0v9h-7.609a3.01 3.01 0 0 0-2.813 1.955L.169 48.366A2.695 2.695 0 0 0 2.7 52h54.61a2.7 2.7 0 0 0 .7-.1V57a1 1 0 0 1-1 1H3a1 1 0 0 1-1-1v-3a1 1 0 0 0-2 0v3a3 3 0 0 0 3 3h54a3 3 0 0 0 3-3v-7.7a2.7 2.7 0 0 0-.169-.934M25 10h10v3H25Zm8.332 12a6.6 6.6 0 0 0-3.849 1.143 5.18 5.18 0 0 1-4.483.594V20h10v2.184A7.2 7.2 0 0 0 33.332 22M35 18H25v-3h10Zm-16.1-3H23v7.669A6.3 6.3 0 0 0 20 22a1 1 0 0 0 0 2 4.65 4.65 0 0 1 2.817.857c.24.144.49.292.762.433l.052.025a6.3 6.3 0 0 0 3.033.685 6.6 6.6 0 0 0 3.849-1.143 5.065 5.065 0 0 1 5.638 0A6.6 6.6 0 0 0 40 26a1 1 0 0 0 0-2 4.66 4.66 0 0 1-2.819-.857L37 23.035V15h4.1l9.149 29H9.754Zm38.4 35H2.7a.7.7 0 0 1-.695-.7.7.7 0 0 1 .043-.241l12.405-33.408a1 1 0 0 1 .938-.651h1.414L7.436 44.7A1 1 0 0 0 8.39 46h43.22a1 1 0 0 0 .954-1.3L43.2 15h1.414a1 1 0 0 1 .938.652l12.41 33.412a.7.7 0 0 1 .043.241.7.7 0 0 1-.7.695Z" data-original="#373737"/><path fill="#373737" d="M19 30a5.7 5.7 0 0 1 3.186.878A7.6 7.6 0 0 0 26.33 32a7.6 7.6 0 0 0 4.146-1.122 6.23 6.23 0 0 1 6.378 0A7.6 7.6 0 0 0 41 32a1 1 0 0 0 0-2 5.7 5.7 0 0 1-3.189-.878 8.22 8.22 0 0 0-8.292 0A5.7 5.7 0 0 1 26.33 30a5.7 5.7 0 0 1-3.185-.878A7.6 7.6 0 0 0 19 28a1 1 0 0 0 0 2m-2 7a7.93 7.93 0 0 1 3.912.908A9.94 9.94 0 0 0 25.663 39a9.95 9.95 0 0 0 4.753-1.092A7.94 7.94 0 0 1 34.331 37a7.94 7.94 0 0 1 3.916.908A9.95 9.95 0 0 0 43 39a1 1 0 0 0 0-2 7.94 7.94 0 0 1-3.915-.908A9.95 9.95 0 0 0 34.331 35a9.95 9.95 0 0 0-4.753 1.092 7.94 7.94 0 0 1-3.915.908 7.93 7.93 0 0 1-3.913-.908A9.94 9.94 0 0 0 17 35a1 1 0 0 0 0 2" data-original="#373737"/></svg>