<svg xmlns="http://www.w3.org/2000/svg" width="512" height="512" viewBox="0 0 512 512"><path fill="#2accf4" d="M0 254.455h512v154.527H0z"/><path fill="#22b3eb" d="M481.095 254.455H512v154.527h-30.905z"/><path fill="#8aeeff" d="M512 254.455H0V227.55a4 4 0 0 1 4-4h504a4 4 0 0 1 4 4z"/><path fill="#63e5ff" d="M481.095 223.549v30.905H512v-26.905a4 4 0 0 0-4-4z"/><path fill="#f1f1f1" d="M114.865 404.346H83.96V138.559c0-8.534 6.918-15.453 15.453-15.453s15.453 6.918 15.453 15.453v265.787zm119.501 0h-30.905V138.559c0-8.534 6.918-15.453 15.453-15.453s15.453 6.918 15.453 15.453z"/><path fill="#b9f5ff" d="M512 348.201c-21.337 0-21.337 17.865-42.673 17.865s-21.337-17.865-42.673-17.865c-21.334 0-21.334 17.865-42.667 17.865s-21.334-17.865-42.669-17.865c-21.333 0-21.333 17.865-42.667 17.865-21.333 0-21.333-17.865-42.666-17.865-21.33 0-21.33 17.865-42.661 17.865-21.333 0-21.333-17.865-42.665-17.865s-21.333 17.865-42.667 17.865c-21.333 0-21.333-17.865-42.666-17.865s-21.332 17.865-42.664 17.865c-21.331 0-21.331-17.865-42.663-17.865V454.31C0 486.171 25.829 512 57.69 512h396.62c31.861 0 57.69-25.829 57.69-57.69z"/><path fill="#8aeeff" d="M267.746 366.066c6.906 0 11.571-1.876 15.453-4.408-8.111-5.29-12.786-13.457-27.213-13.457-6.905 0-11.57 1.876-15.452 4.409 8.11 5.29 12.785 13.456 27.212 13.456m85.335 0c6.905 0 11.57-1.876 15.452-4.408-8.111-5.29-12.787-13.457-27.216-13.457-6.905 0-11.57 1.876-15.452 4.408 8.112 5.29 12.788 13.457 27.216 13.457m-170.661 0c6.905 0 11.57-1.876 15.452-4.409-8.11-5.29-12.785-13.456-27.212-13.456-6.906 0-11.571 1.876-15.453 4.408 8.11 5.29 12.785 13.457 27.213 13.457m256.002 0c6.905 0 11.571-1.875 15.453-4.406-8.114-5.29-12.789-13.458-27.22-13.458-6.905 0-11.57 1.876-15.452 4.407 8.112 5.289 12.788 13.457 27.219 13.457m42.673-2.37v90.613c0 31.861-25.829 57.69-57.69 57.69h30.905c31.861 0 57.69-25.829 57.69-57.69V348.201c-16.471 0-20.234 10.64-30.905 15.495m-469.337 2.37c6.906 0 11.571-1.876 15.453-4.409-8.109-5.29-12.784-13.456-27.21-13.456V363.7c3.149 1.432 6.896 2.366 11.757 2.366m85.329 0c6.906 0 11.571-1.876 15.453-4.408-8.111-5.29-12.786-13.457-27.213-13.457-6.905 0-11.57 1.876-15.452 4.408 8.11 5.29 12.785 13.457 27.212 13.457"/><path fill="#d0d0d0" d="M114.865 151.437h88.596v30.905h-88.596zm0 72.112h88.596v30.905h-88.596zm0 72.113h88.596v30.905h-88.596z"/><circle cx="402.286" cy="93.52" r="49.449" fill="#ffd54f"/><path fill="#ffc128" d="M402.286 44.071c-5.398 0-10.589.877-15.453 2.476 19.739 6.491 33.996 25.061 33.996 46.972s-14.257 40.482-33.996 46.972a49.4 49.4 0 0 0 15.453 2.476c27.31 0 49.449-22.139 49.449-49.449-.001-27.308-22.14-49.447-49.449-49.447m0-14.649a7.5 7.5 0 0 0 7.5-7.5V7.5a7.5 7.5 0 0 0-15 0v14.422a7.5 7.5 0 0 0 7.5 7.5m.515 127.165a7.5 7.5 0 0 0-7.5 7.5v14.423a7.5 7.5 0 0 0 15 0v-14.423a7.5 7.5 0 0 0-7.5-7.5M366.028 15.206a7.5 7.5 0 0 0-12.99 7.5l7.211 12.49a7.497 7.497 0 0 0 10.245 2.745 7.5 7.5 0 0 0 2.745-10.245zm78.74 135.351a7.5 7.5 0 0 0-12.99 7.5l7.211 12.49a7.497 7.497 0 0 0 10.245 2.745 7.5 7.5 0 0 0 2.745-10.245zM344.477 50.969l-12.49-7.211a7.5 7.5 0 0 0-10.245 2.745 7.5 7.5 0 0 0 2.745 10.245l12.49 7.211a7.497 7.497 0 0 0 10.245-2.745 7.5 7.5 0 0 0-2.745-10.245m135.866 77.847-12.49-7.211a7.5 7.5 0 0 0-7.5 12.99l12.49 7.211a7.497 7.497 0 0 0 10.245-2.745 7.5 7.5 0 0 0-2.745-10.245m-141.64-35.811a7.5 7.5 0 0 0-7.5-7.5h-14.422a7.5 7.5 0 0 0 0 15h14.422a7.5 7.5 0 0 0 7.5-7.5m149.088-8.015h-14.422a7.5 7.5 0 0 0 0 15h14.422a7.5 7.5 0 0 0 0-15m-150.814 37.061-12.49 7.211a7.5 7.5 0 0 0 7.5 12.99l12.49-7.211a7.5 7.5 0 0 0-7.5-12.99m126.617-57.532a7.47 7.47 0 0 0 3.743-1.006l12.49-7.211a7.5 7.5 0 0 0-7.5-12.99l-12.49 7.211a7.5 7.5 0 0 0 3.757 13.996m-93.099 83.55a7.5 7.5 0 0 0-10.245 2.745l-7.211 12.49a7.5 7.5 0 0 0 12.99 7.5l7.211-12.49a7.5 7.5 0 0 0-2.745-10.245m63.136-110.385a7.5 7.5 0 0 0 10.245-2.745l7.211-12.491a7.5 7.5 0 0 0-12.99-7.5l-7.211 12.491a7.5 7.5 0 0 0 2.745 10.245"/><path fill="#55e2ff" d="M115.896 400.967H84.99a7.5 7.5 0 0 0 0 15h30.906a7.5 7.5 0 0 0 0-15m311.114 45.328h-41.208a7.5 7.5 0 0 0 0 15h41.208a7.5 7.5 0 0 0 0-15m-88.595-29.876H251.88a7.5 7.5 0 0 0 0 15h86.535a7.5 7.5 0 0 0 0-15M198.31 439.083h-57.69a7.5 7.5 0 0 0 0 15h57.69a7.5 7.5 0 0 0 0-15"/></svg>