<svg xmlns="http://www.w3.org/2000/svg" xml:space="preserve" width="682.667" height="682.667" viewBox="0 0 682.667 682.667"><defs><clipPath id="a" clipPathUnits="userSpaceOnUse"><path d="M0 512h512V0H0Z"/></clipPath></defs><g clip-path="url(#a)" transform="matrix(1.33333 0 0 -1.33333 0 682.667)"><path d="M0 0c-10.529.003-21.056 4.481-28.455 13.423a3.96 3.96 0 0 1-6.137 0c-14.8-17.883-42.105-17.911-56.928 0a3.958 3.958 0 0 1-6.136 0C-104.757 4.843-114.735.386-124.833.035" style="fill:none;stroke:#000;stroke-width:15;stroke-linecap:round;stroke-linejoin:round;stroke-miterlimit:10;stroke-dasharray:none;stroke-opacity:1" transform="translate(222.862 283.337)"/><path d="M0 0c-14.64-6.789-32.85-3.465-43.998 10.005a3.958 3.958 0 0 1-6.137 0c-7.1-8.579-17.079-13.037-27.177-13.387" style="fill:none;stroke:#000;stroke-width:15;stroke-linecap:round;stroke-linejoin:round;stroke-miterlimit:10;stroke-dasharray:none;stroke-opacity:1" transform="translate(175.34 330.099)"/><path d="M0 0v70.69c0 13.014-10.55 23.564-23.563 23.564-13.014 0-23.564-10.55-23.564-23.564V55.855" style="fill:none;stroke:#000;stroke-width:15;stroke-linecap:round;stroke-linejoin:round;stroke-miterlimit:10;stroke-dasharray:none;stroke-opacity:1" transform="translate(133.967 157.06)"/><path d="M0 0v70.69c0 13.014-10.55 23.564-23.563 23.564-13.014 0-23.564-10.55-23.564-23.564V55.855" style="fill:none;stroke:#000;stroke-width:15;stroke-linecap:round;stroke-linejoin:round;stroke-miterlimit:10;stroke-dasharray:none;stroke-opacity:1" transform="translate(181.094 157.06)"/><path d="M0 0h-171.306c-8.487 0-15.367 6.88-15.367 15.367s6.88 15.368 15.367 15.368h162.61l45.509 75.776c4.369 7.277 13.807 9.634 21.085 5.262 7.277-4.37 9.632-13.81 5.263-21.086L13.175 7.456A15.37 15.37 0 0 0 0 0" style="fill:none;stroke:#000;stroke-width:15;stroke-linecap:round;stroke-linejoin:round;stroke-miterlimit:10;stroke-dasharray:none;stroke-opacity:1" transform="translate(434.572 115.263)"/><path d="M0 0a15.37 15.37 0 0 0-13.175-7.456h-15.367v-44.256c0-8.487 6.88-15.368 15.367-15.368S2.192-60.199 2.192-51.712V3.652Z" style="fill:none;stroke:#000;stroke-width:15;stroke-linecap:round;stroke-linejoin:round;stroke-miterlimit:10;stroke-dasharray:none;stroke-opacity:1" transform="translate(447.747 122.719)"/><path d="M0 0v-44.257c0-8.487 6.881-15.367 15.368-15.367s15.367 6.88 15.367 15.367V0Z" style="fill:none;stroke:#000;stroke-width:15;stroke-linecap:round;stroke-linejoin:round;stroke-miterlimit:10;stroke-dasharray:none;stroke-opacity:1" transform="translate(264 115.263)"/><path d="M0 0a15.37 15.37 0 0 0-13.175-7.456h-15.367v-44.256c0-8.487 6.88-15.368 15.367-15.368S2.192-60.199 2.192-51.712V3.652Z" style="fill:none;stroke:#000;stroke-width:15;stroke-linecap:round;stroke-linejoin:round;stroke-miterlimit:10;stroke-dasharray:none;stroke-opacity:1" transform="translate(447.747 122.719)"/><path d="M0 0v-44.257c0-8.487 6.881-15.367 15.368-15.367s15.367 6.88 15.367 15.367V0Z" style="fill:none;stroke:#000;stroke-width:15;stroke-linecap:round;stroke-linejoin:round;stroke-miterlimit:10;stroke-dasharray:none;stroke-opacity:1" transform="translate(264 115.263)"/><path d="M0 0c-23.061 57.88-79.604 98.79-145.707 98.79-66.104 0-122.647-40.91-145.708-98.79-.903-2.269.792-4.732 3.233-4.732H-3.233C-.791-4.732.903-2.269 0 0" style="fill:none;stroke:#000;stroke-width:15;stroke-linecap:round;stroke-linejoin:round;stroke-miterlimit:10;stroke-dasharray:none;stroke-opacity:1" transform="translate(504.254 329.139)"/><path d="M0 0c5.186 0 10.312-.252 15.367-.744v13.809c0 8.487-6.881 15.367-15.367 15.367s-15.368-6.88-15.368-15.367V-.744C-10.312-.252-5.186 0 0 0" style="fill:none;stroke:#000;stroke-width:15;stroke-linecap:round;stroke-linejoin:round;stroke-miterlimit:10;stroke-dasharray:none;stroke-opacity:1" transform="translate(358.547 427.929)"/><path d="M343.179 145.998h30.735v178.409h-30.735z" style="fill:none;stroke:#000;stroke-width:15;stroke-linecap:round;stroke-linejoin:round;stroke-miterlimit:10;stroke-dasharray:none;stroke-opacity:1"/><path d="M0 0c-40.761 0-75.468-43.152-88.56-103.522H88.56C75.467-43.152 40.761 0 0 0" style="fill:none;stroke:#000;stroke-width:15;stroke-linecap:round;stroke-linejoin:round;stroke-miterlimit:10;stroke-dasharray:none;stroke-opacity:1" transform="translate(358.547 427.929)"/><path d="M0 0c-16.155 0-29.911-43.152-35.101-103.522H35.1C29.91-43.152 16.155 0 0 0" style="fill:none;stroke:#000;stroke-width:15;stroke-linecap:round;stroke-linejoin:round;stroke-miterlimit:10;stroke-dasharray:none;stroke-opacity:1" transform="translate(358.547 427.929)"/><path d="M0 0v-30.735h73.691L92.15 0Z" style="fill:none;stroke:#000;stroke-width:15;stroke-linecap:round;stroke-linejoin:round;stroke-miterlimit:10;stroke-dasharray:none;stroke-opacity:1" transform="translate(373.914 212.916)"/><path d="M0 0h-101.605a15.37 15.37 0 0 1-15.079-12.402l-38.688-196.704c-1.867-9.49 5.408-18.333 15.079-18.333h320.307v30.735h-301.623l32.643 165.969H81.492A157.3 157.3 0 0 0 121.803 0H35.857" style="fill:none;stroke:#000;stroke-width:15;stroke-linecap:round;stroke-linejoin:round;stroke-miterlimit:10;stroke-dasharray:none;stroke-opacity:1" transform="translate(163.165 409.62)"/><path d="m0 0-5.606 28.507H-36.93l21.187-107.725 3.058 5.092c4.37 7.277 13.808 9.634 21.086 5.263 4.051-2.433 6.571-6.439 7.26-10.766L7.053-35.857" style="fill:none;stroke:#000;stroke-width:15;stroke-linecap:round;stroke-linejoin:round;stroke-miterlimit:10;stroke-dasharray:none;stroke-opacity:1" transform="translate(484.07 295.9)"/></g></svg>