<svg xmlns="http://www.w3.org/2000/svg" xml:space="preserve" width="682.667" height="682.667" viewBox="0 0 682.667 682.667"><defs><clipPath id="a" clipPathUnits="userSpaceOnUse"><path d="M0 512h512V0H0Z"/></clipPath></defs><path d="M0 0h-355.961l-32.452-165H32.452Z" style="fill:#60b8fe;fill-opacity:1;fill-rule:nonzero;stroke:none" transform="matrix(1.33333 0 0 -1.33333 579.031 182.508)"/><path d="m0 0-32.452-165h44L44 0Z" style="fill:#23a8fe;fill-opacity:1;fill-rule:nonzero;stroke:none" transform="matrix(1.33333 0 0 -1.33333 104.417 182.508)"/><g clip-path="url(#a)" transform="matrix(1.33333 0 0 -1.33333 0 682.667)"><path d="M0 0a3.26 3.26 0 0 0-3.2 3.891l30.579 155.477A3.26 3.26 0 0 0 30.58 162h166.699a153.6 153.6 0 0 0 39.347 30H15.561A15 15 0 0 1 .843 179.895l-37.763-192C-38.743-21.368-31.642-30-22.202-30h419.53l19.258 30z" style="fill:#6c7ed6;fill-opacity:1;fill-rule:nonzero;stroke:none" transform="translate(51.65 211.62)"/><path d="m0 0 2.393 12.166c-1.78.291-3.035 1.994-2.673 3.83l30.579 155.477a3.26 3.26 0 0 0 3.201 2.632h.743L37.763 192a15 15 0 0 0 14.717 12.105h-34A15 15 0 0 1 3.763 192L-34 0c-1.823-9.263 5.278-17.895 14.718-17.895h34C5.278-17.895-1.823-9.263 0 0" style="fill:#4f67d2;fill-opacity:1;fill-rule:nonzero;stroke:none" transform="translate(48.73 199.514)"/><path d="m0 0 20.681-109.148 2.985 4.97c4.265 7.102 13.478 9.403 20.582 5.136 3.953-2.375 6.413-6.284 7.086-10.508L30.574 0Z" style="fill:#6c7ed6;fill-opacity:1;fill-rule:nonzero;stroke:none" transform="translate(442.568 324.771)"/><path d="M0 0a15 15 0 0 0-12.859-7.277h-15v-45.199c0-8.284 6.715-15 15-15s15 6.716 15 15v56.04z" style="fill:#bc7c63;fill-opacity:1;fill-rule:nonzero;stroke:none" transform="translate(443.161 127.906)"/><path d="M0 0v-45.198c0-8.284 6.716-15 15-15s15 6.716 15 15V0Z" style="fill:#bc7c63;fill-opacity:1;fill-rule:nonzero;stroke:none" transform="translate(263.81 120.629)"/><path d="M0 0a15 15 0 0 0-12.859-7.277h-15v-45.199c0-8.284 6.715-15 15-15s15 6.716 15 15v56.04z" style="fill:#bc7c63;fill-opacity:1;fill-rule:nonzero;stroke:none" transform="translate(443.161 127.906)"/><path d="M0 0v-45.198c0-8.284 6.716-15 15-15s15 6.716 15 15V0Z" style="fill:#ab6b51;fill-opacity:1;fill-rule:nonzero;stroke:none" transform="translate(263.81 120.629)"/><path d="M0 0c5.062 0 10.064-.247 15-.727v15.479c0 8.285-6.716 15-15 15s-15-6.715-15-15V-.727C-10.065-.247-5.062 0 0 0" style="fill:#bc7c63;fill-opacity:1;fill-rule:nonzero;stroke:none" transform="translate(356.095 421.817)"/><path d="M0 0c0 4.462 1.695 8.52 4.459 11.598A14.93 14.93 0 0 1-5 14.962c-8.284 0-15-6.716-15-15v-15.479c4.935.48 9.938.726 15 .726 1.674 0 3.339-.037 5-.09z" style="fill:#ab6b51;fill-opacity:1;fill-rule:nonzero;stroke:none" transform="translate(361.095 436.608)"/><path d="M341.095 146.629h30v178.142h-30z" style="fill:#bc7c63;fill-opacity:1;fill-rule:nonzero;stroke:none"/><path d="M341.095 146.629h19.773v178.142h-19.773z" style="fill:#ab6b51;fill-opacity:1;fill-rule:nonzero;stroke:none"/><path d="M0 0c-22.51 56.496-77.7 96.428-142.223 96.428S-261.937 56.496-284.445 0c-.883-2.214.771-4.619 3.155-4.619h53.072c13.107 57.876 46.661 99.047 85.995 99.047s72.889-41.171 85.994-99.047h53.073C-.772-4.619.882-2.214 0 0" style="fill:#dfebfa;fill-opacity:1;fill-rule:nonzero;stroke:none" transform="translate(498.317 327.39)"/><path d="M0 0a49 49 0 0 0 6.598 4.044C-53.813.353-104.748-38.382-126.146-92.091c-.883-2.214.771-4.618 3.155-4.618h53.072C-58.64-46.903-32.217-9.471 0 0" style="fill:#b1dbfc;fill-opacity:1;fill-rule:nonzero;stroke:none" transform="translate(340.019 419.48)"/><path d="M0 0c15.59 0 28.889-41.171 34.083-99.046h52.358C73.662-40.12 39.785 2 0 2S-73.662-40.12-86.442-99.046h52.358C-28.889-41.171-15.59 0 0 0" style="fill:#ff656f;fill-opacity:1;fill-rule:nonzero;stroke:none" transform="translate(356.095 421.817)"/><path d="M0 0c-34.957-6.923-63.892-46.536-75.479-99.967h23.891C-42.838-50.792-23.65-13.095 0 0" style="fill:#ff4756;fill-opacity:1;fill-rule:nonzero;stroke:none" transform="translate(345.132 422.738)"/><path d="M0 0c-15.77 0-29.195-42.12-34.261-101.046H34.26C29.195-42.12 15.769 0 0 0" style="fill:#dfebfa;fill-opacity:1;fill-rule:nonzero;stroke:none" transform="translate(356.095 423.817)"/><path d="M0 0h-167.209c-8.284 0-15 6.716-15 15s6.716 15 15 15H-8.488l44.42 73.964c4.264 7.102 13.477 9.403 20.582 5.137 7.102-4.266 9.401-13.481 5.136-20.582L12.859 7.277A15 15 0 0 0 0 0" style="fill:#dfebfa;fill-opacity:1;fill-rule:nonzero;stroke:none" transform="translate(430.302 118.629)"/><path d="M0 0c0 8.284 6.716 15 15 15h-74.208c-8.283 0-15-6.716-15-15s6.717-15 15-15H15C6.716-15 0-8.284 0 0" style="fill:#b1dbfc;fill-opacity:1;fill-rule:nonzero;stroke:none" transform="translate(322.3 133.629)"/><path d="M0 0c-10.529.003-21.056 4.481-28.455 13.423a3.96 3.96 0 0 1-6.137 0c-14.8-17.883-42.105-17.911-56.928 0a3.958 3.958 0 0 1-6.136 0C-104.757 4.843-114.735.386-124.833.035" style="fill:none;stroke:#000;stroke-width:15;stroke-linecap:round;stroke-linejoin:round;stroke-miterlimit:10;stroke-dasharray:none;stroke-opacity:1" transform="translate(222.862 283.337)"/><path d="M0 0c-14.64-6.789-32.85-3.465-43.998 10.005a3.958 3.958 0 0 1-6.137 0c-7.1-8.579-17.079-13.037-27.177-13.387" style="fill:none;stroke:#000;stroke-width:15;stroke-linecap:round;stroke-linejoin:round;stroke-miterlimit:10;stroke-dasharray:none;stroke-opacity:1" transform="translate(175.34 330.099)"/><path d="M0 0v70.69c0 13.014-10.55 23.564-23.563 23.564-13.014 0-23.564-10.55-23.564-23.564V55.855" style="fill:none;stroke:#000;stroke-width:15;stroke-linecap:round;stroke-linejoin:round;stroke-miterlimit:10;stroke-dasharray:none;stroke-opacity:1" transform="translate(133.967 157.06)"/><path d="M0 0v70.69c0 13.014-10.55 23.564-23.563 23.564-13.014 0-23.564-10.55-23.564-23.564V55.855" style="fill:none;stroke:#000;stroke-width:15;stroke-linecap:round;stroke-linejoin:round;stroke-miterlimit:10;stroke-dasharray:none;stroke-opacity:1" transform="translate(181.094 157.06)"/><path d="M0 0h-171.306c-8.487 0-15.367 6.88-15.367 15.367s6.88 15.368 15.367 15.368h162.61l45.509 75.776c4.369 7.277 13.807 9.634 21.085 5.262 7.277-4.37 9.632-13.81 5.263-21.086L13.175 7.456A15.37 15.37 0 0 0 0 0" style="fill:none;stroke:#000;stroke-width:15;stroke-linecap:round;stroke-linejoin:round;stroke-miterlimit:10;stroke-dasharray:none;stroke-opacity:1" transform="translate(434.572 115.263)"/><path d="M0 0a15.37 15.37 0 0 0-13.175-7.456h-15.367v-44.256c0-8.487 6.88-15.368 15.367-15.368S2.192-60.199 2.192-51.712V3.652Z" style="fill:none;stroke:#000;stroke-width:15;stroke-linecap:round;stroke-linejoin:round;stroke-miterlimit:10;stroke-dasharray:none;stroke-opacity:1" transform="translate(447.747 122.719)"/><path d="M0 0v-44.257c0-8.487 6.881-15.367 15.368-15.367s15.367 6.88 15.367 15.367V0Z" style="fill:none;stroke:#000;stroke-width:15;stroke-linecap:round;stroke-linejoin:round;stroke-miterlimit:10;stroke-dasharray:none;stroke-opacity:1" transform="translate(264 115.263)"/><path d="M0 0a15.37 15.37 0 0 0-13.175-7.456h-15.367v-44.256c0-8.487 6.88-15.368 15.367-15.368S2.192-60.199 2.192-51.712V3.652Z" style="fill:none;stroke:#000;stroke-width:15;stroke-linecap:round;stroke-linejoin:round;stroke-miterlimit:10;stroke-dasharray:none;stroke-opacity:1" transform="translate(447.747 122.719)"/><path d="M0 0v-44.257c0-8.487 6.881-15.367 15.368-15.367s15.367 6.88 15.367 15.367V0Z" style="fill:none;stroke:#000;stroke-width:15;stroke-linecap:round;stroke-linejoin:round;stroke-miterlimit:10;stroke-dasharray:none;stroke-opacity:1" transform="translate(264 115.263)"/><path d="M0 0c-23.061 57.88-79.604 98.79-145.707 98.79-66.104 0-122.647-40.91-145.708-98.79-.903-2.269.792-4.732 3.233-4.732H-3.233C-.791-4.732.903-2.269 0 0" style="fill:none;stroke:#000;stroke-width:15;stroke-linecap:round;stroke-linejoin:round;stroke-miterlimit:10;stroke-dasharray:none;stroke-opacity:1" transform="translate(504.254 329.139)"/><path d="M0 0c5.186 0 10.312-.252 15.367-.744v13.809c0 8.487-6.881 15.367-15.367 15.367s-15.368-6.88-15.368-15.367V-.744C-10.312-.252-5.186 0 0 0" style="fill:none;stroke:#000;stroke-width:15;stroke-linecap:round;stroke-linejoin:round;stroke-miterlimit:10;stroke-dasharray:none;stroke-opacity:1" transform="translate(358.547 427.929)"/><path d="M343.179 145.998h30.735v178.409h-30.735z" style="fill:none;stroke:#000;stroke-width:15;stroke-linecap:round;stroke-linejoin:round;stroke-miterlimit:10;stroke-dasharray:none;stroke-opacity:1"/><path d="M0 0c-40.761 0-75.468-43.152-88.56-103.522H88.56C75.467-43.152 40.761 0 0 0" style="fill:none;stroke:#000;stroke-width:15;stroke-linecap:round;stroke-linejoin:round;stroke-miterlimit:10;stroke-dasharray:none;stroke-opacity:1" transform="translate(358.547 427.929)"/><path d="M0 0c-16.155 0-29.911-43.152-35.101-103.522H35.1C29.91-43.152 16.155 0 0 0" style="fill:none;stroke:#000;stroke-width:15;stroke-linecap:round;stroke-linejoin:round;stroke-miterlimit:10;stroke-dasharray:none;stroke-opacity:1" transform="translate(358.547 427.929)"/><path d="M0 0v-30.735h73.691L92.15 0Z" style="fill:none;stroke:#000;stroke-width:15;stroke-linecap:round;stroke-linejoin:round;stroke-miterlimit:10;stroke-dasharray:none;stroke-opacity:1" transform="translate(373.914 212.916)"/><path d="M0 0h-101.605a15.37 15.37 0 0 1-15.079-12.402l-38.688-196.704c-1.867-9.49 5.408-18.333 15.079-18.333h320.307v30.735h-301.623l32.643 165.969H81.492A157.3 157.3 0 0 0 121.803 0H35.857" style="fill:none;stroke:#000;stroke-width:15;stroke-linecap:round;stroke-linejoin:round;stroke-miterlimit:10;stroke-dasharray:none;stroke-opacity:1" transform="translate(163.165 409.62)"/><path d="m0 0-5.606 28.507H-36.93l21.187-107.725 3.058 5.092c4.37 7.277 13.808 9.634 21.086 5.263 4.051-2.433 6.571-6.439 7.26-10.766L7.053-35.857" style="fill:none;stroke:#000;stroke-width:15;stroke-linecap:round;stroke-linejoin:round;stroke-miterlimit:10;stroke-dasharray:none;stroke-opacity:1" transform="translate(484.07 295.9)"/></g></svg>