<svg xmlns="http://www.w3.org/2000/svg" width="512" height="512" viewBox="0 0 512 512"><path fill="#6c7ed6" d="M490.221 385.073 449.604 37.526a33.26 33.26 0 0 0-33.195-30.021H95.611a33.263 33.263 0 0 0-33.196 30.021L21.798 385.073c-1.979 19.667 13.497 36.704 33.196 36.704h177.233v-6.86h162.18v6.86h62.619c19.765 0 35.168-17.103 33.195-36.704"/><path fill="#4f67d2" d="M58.832 385.073 99.448 37.526a33.264 33.264 0 0 1 33.196-30.021H95.611a33.263 33.263 0 0 0-33.196 30.021L21.798 385.073c-1.979 19.667 13.497 36.704 33.196 36.704h37.034c-19.7 0-35.175-17.037-33.196-36.704"/><path fill="#b9f5ff" d="M455.314 378.352 416.552 49.224a8.515 8.515 0 0 0-8.472-7.662H103.939a8.515 8.515 0 0 0-8.472 7.662L56.704 378.352c-.503 5.017 3.438 9.367 8.472 9.367h381.667c5.042.001 8.974-4.358 8.471-9.367"/><path fill="#2cccf4" d="m101.371 378.352 38.763-329.129a8.515 8.515 0 0 1 8.472-7.662h-44.667a8.515 8.515 0 0 0-8.472 7.662L56.704 378.352c-.503 5.017 3.438 9.367 8.472 9.367h44.667c-5.034.001-8.975-4.35-8.472-9.367"/><path fill="#dfebfa" d="M330.347 294.495c-34.406.653-61.63 29.476-61.63 63.888v30.337h36.49v-30.745c0-14.272 11.076-26.443 25.338-26.982 14.993-.567 27.371 11.466 27.371 26.335v30.751c7.733 1.609 13.544 8.459 13.544 16.669s-5.811 15.061-13.544 16.669v34.776c7.733 1.609 13.544 8.459 13.544 16.669s-5.811 15.061-13.544 16.669v9.323a5.65 5.65 0 0 0 5.649 5.649h25.193a5.65 5.65 0 0 0 5.649-5.649V357.328c-.001-35.057-28.854-63.501-64.06-62.833"/><path fill="#b1dbfc" d="M355.431 387.72h-87.715v34.058h87.715c9.405 0 17.029-7.624 17.029-17.029s-7.624-17.029-17.029-17.029m0 68.115h-87.715v34.058h87.715c9.405 0 17.029-7.624 17.029-17.029s-7.624-17.029-17.029-17.029"/><path fill="#8bcaff" d="M267.717 387.72h38v34.057h-38zm0 68.115h38v34.058h-38z"/><path fill="#dfebfa" d="M204.659 294.495c-34.406.653-61.63 29.475-61.63 63.887v29.338h36.49v-29.745c0-14.271 11.075-26.442 25.337-26.982 14.993-.568 27.371 11.464 27.371 26.334v141.529a5.65 5.65 0 0 0 5.649 5.649h25.193a5.65 5.65 0 0 0 5.649-5.649V357.328c-.001-35.057-28.854-63.501-64.059-62.833"/><path d="M367.043 170.414c-10.516-.365-20.016-5.047-26.749-13.181-4.914-5.937-13.938-5.925-18.842 0-14.597 17.637-41.462 17.606-56.031 0-4.973-6.007-14.005-5.842-18.843 0-14.592 17.633-41.455 17.613-56.031-.001-4.922-5.945-13.945-5.915-18.841 0-6.733 8.135-16.233 12.816-26.749 13.182a7.5 7.5 0 0 0-7.234 7.756 7.49 7.49 0 0 0 7.756 7.235c13.566-.472 26.386-6.328 35.646-16.187 20.276 21.629 54.569 21.657 74.875.001 20.278 21.629 54.571 21.654 74.874-.001 9.262 9.859 22.08 15.715 35.647 16.187 4.121.149 7.613-3.095 7.756-7.235a7.5 7.5 0 0 0-7.234-7.756m-26.749 48.343c-4.914-5.937-13.938-5.925-18.842 0-14.596 17.636-41.461 17.607-56.031 0-4.973-6.007-14.005-5.842-18.843 0-14.596 17.639-41.461 17.606-56.031-.001-4.904-5.922-13.927-5.938-18.841.001-7.994 9.658-20.182 14.484-32.612 12.914a7.5 7.5 0 1 0-1.883 14.881c16.481 2.089 32.658-3.795 43.916-15.808 20.277 21.628 54.568 21.654 74.873 0 20.276 21.627 54.57 21.656 74.873 0 11.258 12.013 27.436 17.896 43.915 15.808 4.109-.52 7.02-4.272 6.499-8.382s-4.289-7.019-8.382-6.499c-12.435 1.569-24.618-3.255-32.611-12.914M360.782 107.7c-8.082-1.703-15.167-6-20.487-12.427-4.914-5.937-13.938-5.925-18.842 0-14.597 17.637-41.462 17.606-56.031 0-4.973-6.007-14.005-5.842-18.843 0-14.592 17.633-41.455 17.613-56.031-.001-4.922-5.945-13.945-5.915-18.841 0-5.32 6.427-12.404 10.725-20.486 12.428a7.5 7.5 0 1 0 3.092 14.677c10.383-2.188 19.592-7.39 26.816-15.117 20.282 21.631 54.572 21.648 74.872-.001 20.276 21.626 54.567 21.656 74.871.002 7.226 7.727 16.436 12.93 26.818 15.116a7.5 7.5 0 0 0 3.092-14.677"/><path d="M54.985 429.273h169.732v69.579c0 7.25 5.898 13.148 13.149 13.148h25.192c7.25 0 13.148-5.898 13.148-13.148v-1.464h74.199v1.464c0 7.25 5.898 13.148 13.149 13.148h25.192c7.25 0 13.148-5.898 13.148-13.148v-69.579h55.119c24.121 0 43.081-20.886 40.657-44.956l-.013-.12-13.035-111.567a7.5 7.5 0 0 0-14.898 1.741l13.03 111.503c1.46 14.833-10.094 28.398-25.738 28.398h-55.119v-19.058h44.937c9.47 0 16.88-8.191 15.935-17.616l-.015-.129-38.756-329.074a15.967 15.967 0 0 0-15.927-14.337H273.5c-4.143 0-7.5 3.358-7.5 7.5s3.357 7.5 7.5 7.5h134.571c.523 0 .957.393 1.01.914l.014.125 38.75 329.034a1.01 1.01 0 0 1-1.012 1.084h-44.937v-22.892c0-39.477-32.256-70.344-70.345-70.344-26.778 0-50.947 15.189-62.839 38.744-12.008-23.772-36.725-39.25-64.206-38.731-37.7.709-68.988 31.593-68.988 70.332v22.892H65.166a1.02 1.02 0 0 1-1.012-1.086l38.752-329.032.014-.127c.053-.52.486-.912 1.01-.912H238.5c4.143 0 7.5-3.358 7.5-7.5s-3.357-7.5-7.5-7.5H103.93a15.967 15.967 0 0 0-15.927 14.339L49.246 377.471l-.015.129c-.946 9.422 6.464 17.616 15.935 17.616h159.551v19.058H54.985c-14.852 0-27.279-12.782-25.739-28.399L69.855 38.392l.013-.119A25.786 25.786 0 0 1 95.602 15H416.4a25.785 25.785 0 0 1 25.733 23.272l.013.12 23.487 200.979a7.5 7.5 0 1 0 14.898-1.741l-23.48-200.922A40.74 40.74 0 0 0 416.4 0H95.602A40.74 40.74 0 0 0 54.95 36.71L14.34 384.198l-.013.12c-2.415 23.999 16.466 44.955 40.658 44.955m257.713-71.302c0-10.325 8.122-19.289 18.5-19.483 10.682-.204 19.209 8.491 19.209 18.836v22.892h-37.709zm-36.491 71.302h74.199v19.058h-74.199zm78.215-34.058c5.569 0 10.014 4.818 9.484 10.43-.473 4.884-4.59 8.627-9.484 8.627h-78.215v-19.058zm-78.215 68.116h78.215c5.537 0 10.016 4.796 9.484 10.43-.472 4.874-4.587 8.627-9.484 8.627h-78.215zM386.897 497h-21.49v-2.213c18.014-9.127 18.054-34.708 0-43.855v-24.26c18.098-9.17 17.968-34.752 0-43.855v-25.493c0-20.486-18.202-36.517-38.794-33.49-16.353 2.4-28.915 16.526-28.915 33.49v22.892h-21.49v-21.837c0-30.552 24.46-56.094 54.822-56.386 31.218-.262 55.867 25.058 55.867 55.331zM150.52 380.215v-21.838c0-32.224 26.696-57.583 57.589-56.342 29.483 1.204 53.099 25.503 53.099 55.287v139.677h-21.49V357.322c0-17.95-14.065-32.804-31.915-33.795-19.276-1.096-35.793 14.261-35.793 33.795v22.892zm36.49 0V357.97c0-9.425 6.762-17.724 15.877-19.243 11.639-1.852 21.83 7.237 21.83 18.596v22.892z"/></svg>