<svg xmlns="http://www.w3.org/2000/svg" xml:space="preserve" width="682.667" height="682.667" viewBox="0 0 682.667 682.667"><defs><clipPath id="a" clipPathUnits="userSpaceOnUse"><path d="M0 512h512V0H0Z"/></clipPath></defs><path d="M504.5 107.5H7.5v150h497z" style="fill:#2accf4;fill-opacity:1;fill-rule:nonzero;stroke:none" transform="matrix(1.33333 0 0 -1.33333 0 682.667)"/><path d="M474.5 107.5h30v150h-30z" style="fill:#22b3eb;fill-opacity:1;fill-rule:nonzero;stroke:none" transform="matrix(1.33333 0 0 -1.33333 0 682.667)"/><path d="M504.5 257.5H7.5v30h497z" style="fill:#8aeeff;fill-opacity:1;fill-rule:nonzero;stroke:none" transform="matrix(1.33333 0 0 -1.33333 0 682.667)"/><path d="M474.5 257.5h30v30h-30z" style="fill:#63e5ff;fill-opacity:1;fill-rule:nonzero;stroke:none" transform="matrix(1.33333 0 0 -1.33333 0 682.667)"/><g clip-path="url(#a)" transform="matrix(1.33333 0 0 -1.33333 0 682.667)"><path d="M0 0h-30v258c0 8.284 6.716 15 15 15s15-6.716 15-15z" style="fill:#f1f1f1;fill-opacity:1;fill-rule:nonzero;stroke:none" transform="translate(119 112)"/><path d="M0 0h-30v258c0 8.284 6.716 15 15 15s15-6.716 15-15z" style="fill:#f1f1f1;fill-opacity:1;fill-rule:nonzero;stroke:none" transform="translate(235 112)"/><path d="M0 0c-20.711 0-20.711-17.341-41.423-17.341C-62.134-17.341-62.134 0-82.846 0c-20.708 0-20.708-17.341-41.417-17.341S-144.972 0-165.681 0s-20.709-17.341-41.417-17.341S-227.806 0-248.514 0c-20.705 0-20.705-17.341-41.411-17.341S-310.632 0-331.34 0c-20.709 0-20.709-17.341-41.417-17.341S-393.465 0-414.173 0s-20.707-17.341-41.414-17.341C-476.293-17.341-476.293 0-497 0v-103c0-30.928 25.072-56 56-56h385c30.928 0 56 25.072 56 56z" style="fill:#b9f5ff;fill-opacity:1;fill-rule:nonzero;stroke:none" transform="translate(504.5 166.5)"/><path d="M0 0c6.703 0 11.231 1.821 15 4.279C7.127 9.414 2.589 17.341-11.416 17.341c-6.703 0-11.231-1.821-14.999-4.279C-18.543 7.927-14.004 0 0 0" style="fill:#8aeeff;fill-opacity:1;fill-rule:nonzero;stroke:none" transform="translate(267.402 149.159)"/><path d="M0 0c6.703 0 11.231 1.821 15 4.278C7.126 9.414 2.587 17.341-11.418 17.341c-6.704 0-11.232-1.82-15-4.278C-18.544 7.928-14.006 0 0 0" style="fill:#8aeeff;fill-opacity:1;fill-rule:nonzero;stroke:none" transform="translate(350.237 149.159)"/><path d="M0 0c6.703 0 11.231 1.822 14.999 4.28-7.872 5.135-12.41 13.061-26.415 13.061-6.703 0-11.231-1.821-15-4.278C-18.542 7.928-14.004 0 0 0" style="fill:#8aeeff;fill-opacity:1;fill-rule:nonzero;stroke:none" transform="translate(184.575 149.159)"/><path d="M0 0c6.703 0 11.231 1.82 15 4.277C7.124 9.412 2.586 17.341-11.423 17.341c-6.702 0-11.231-1.82-14.999-4.278C-18.547 7.929-14.008 0 0 0" style="fill:#8aeeff;fill-opacity:1;fill-rule:nonzero;stroke:none" transform="translate(433.077 149.159)"/><path d="M0 0v-87.959c0-30.928-25.072-56-56-56h30c30.928 0 56 25.072 56 56v103C14.012 15.041 10.359 4.713 0 0" style="fill:#8aeeff;fill-opacity:1;fill-rule:nonzero;stroke:none" transform="translate(474.5 151.459)"/><path d="M0 0c6.703 0 11.232 1.821 15 4.28C7.128 9.415 2.59 17.341-11.413 17.341V2.297C-8.355.906-4.719 0 0 0" style="fill:#8aeeff;fill-opacity:1;fill-rule:nonzero;stroke:none" transform="translate(18.913 149.159)"/><path d="M0 0c6.703 0 11.231 1.821 15 4.279C7.127 9.414 2.589 17.341-11.416 17.341c-6.703 0-11.231-1.821-15-4.279C-18.543 7.927-14.005 0 0 0" style="fill:#8aeeff;fill-opacity:1;fill-rule:nonzero;stroke:none" transform="translate(101.743 149.159)"/><path d="M205 327.5h-86v30h86zm0-70h-86v30h86zm0-70h-86v30h86z" style="fill:#d0d0d0;fill-opacity:1;fill-rule:nonzero;stroke:none"/><path d="M0 0c0-26.51-21.49-48-48-48S-96-26.51-96 0s21.49 48 48 48S0 26.51 0 0" style="fill:#ffd54f;fill-opacity:1;fill-rule:nonzero;stroke:none" transform="translate(446 421)"/><path d="M0 0a48 48 0 0 1-15-2.404C4.161-8.704 18-26.73 18-48S4.161-87.296-15-93.596A48 48 0 0 1 0-96c26.51 0 48 21.49 48 48S26.51 0 0 0" style="fill:#ffc128;fill-opacity:1;fill-rule:nonzero;stroke:none" transform="translate(398 469)"/><path d="M0 0v150h81.5" style="fill:none;stroke:#000;stroke-width:15;stroke-linecap:round;stroke-linejoin:round;stroke-miterlimit:10;stroke-dasharray:none;stroke-opacity:1" transform="translate(7.5 107.5)"/><path d="M0 0v150h-269.5" style="fill:none;stroke:#000;stroke-width:15;stroke-linecap:round;stroke-linejoin:round;stroke-miterlimit:10;stroke-dasharray:none;stroke-opacity:1" transform="translate(504.5 107.5)"/><path d="M0 0h-86M0 0h-86" style="fill:none;stroke:#000;stroke-width:15;stroke-linecap:round;stroke-linejoin:round;stroke-miterlimit:10;stroke-dasharray:none;stroke-opacity:1" transform="translate(205 257.5)"/><path d="M0 0h-86" style="fill:none;stroke:#000;stroke-width:15;stroke-linecap:round;stroke-linejoin:round;stroke-miterlimit:10;stroke-dasharray:none;stroke-opacity:1" transform="translate(205 287.5)"/><path d="M0 0h23.5v-30H-246" style="fill:none;stroke:#000;stroke-width:15;stroke-linecap:round;stroke-linejoin:round;stroke-miterlimit:10;stroke-dasharray:none;stroke-opacity:1" transform="translate(481 287.5)"/><path d="M0 0h211" style="fill:none;stroke:#000;stroke-width:15;stroke-linecap:round;stroke-linejoin:round;stroke-miterlimit:10;stroke-dasharray:none;stroke-opacity:1" transform="translate(235 287.5)"/><path d="M0 0h-81.5v30H0" style="fill:none;stroke:#000;stroke-width:15;stroke-linecap:round;stroke-linejoin:round;stroke-miterlimit:10;stroke-dasharray:none;stroke-opacity:1" transform="translate(89 257.5)"/><path d="M0 0v17.974c0 8.28 6.72 15 15 15 4.14 0 7.89-1.68 10.6-4.4 2.72-2.71 4.4-6.46 4.4-10.6v-217.9" style="fill:none;stroke:#000;stroke-width:15;stroke-linecap:round;stroke-linejoin:round;stroke-miterlimit:10;stroke-dasharray:none;stroke-opacity:1" transform="translate(89 352.026)"/><path d="M0 0v153.966" style="fill:none;stroke:#000;stroke-width:15;stroke-linecap:round;stroke-linejoin:round;stroke-miterlimit:10;stroke-dasharray:none;stroke-opacity:1" transform="translate(89 166.47)"/><path d="M0 0v219.3c0 8.28 6.72 15 15 15 4.14 0 7.89-1.68 10.6-4.4 2.72-2.71 4.4-6.46 4.4-10.6V6.9" style="fill:none;stroke:#000;stroke-width:15;stroke-linecap:round;stroke-linejoin:round;stroke-miterlimit:10;stroke-dasharray:none;stroke-opacity:1" transform="translate(205 150.7)"/><path d="M0 0a32 32 0 0 0-4.735-.336c-20.708 0-20.708 17.341-41.416 17.341-20.705 0-20.705-17.341-41.411-17.341-20.708 0-20.708 17.341-41.416 17.341S-149.686-.336-170.394-.336s-20.708 17.341-41.416 17.341S-232.517-.336-253.224-.336s-20.707 17.341-41.413 17.341v-103c0-30.927 25.072-56 56-56h385c30.928 0 56 25.073 56 56v103c-20.712 0-20.712-17.341-41.423-17.341s-20.711 17.341-41.423 17.341C98.809 17.005 98.809-.336 78.1-.336S57.391 17.005 36.682 17.005c-3.482 0-6.379-.49-8.887-1.305" style="fill:none;stroke:#000;stroke-width:15;stroke-linecap:round;stroke-linejoin:round;stroke-miterlimit:10;stroke-dasharray:none;stroke-opacity:1" transform="translate(302.137 149.495)"/><path d="M205 327.5h-86v30h86zm0-140h-86v30h86z" style="fill:none;stroke:#000;stroke-width:15;stroke-linecap:round;stroke-linejoin:round;stroke-miterlimit:10;stroke-dasharray:none;stroke-opacity:1"/><path d="M0 0c0-26.51-21.49-48-48-48S-96-26.51-96 0s21.49 48 48 48S0 26.51 0 0" style="fill:none;stroke:#000;stroke-width:15;stroke-linecap:round;stroke-linejoin:round;stroke-miterlimit:10;stroke-dasharray:none;stroke-opacity:1" transform="translate(446 421)"/><path d="M0 0v-14" style="fill:none;stroke:#000;stroke-width:15;stroke-linecap:round;stroke-linejoin:round;stroke-miterlimit:10;stroke-dasharray:none;stroke-opacity:1" transform="translate(398 504.5)"/><path d="M0 0v-14" style="fill:none;stroke:#000;stroke-width:15;stroke-linecap:round;stroke-linejoin:round;stroke-miterlimit:10;stroke-dasharray:none;stroke-opacity:1" transform="translate(398.5 352.5)"/><path d="m0 0 7-12.124" style="fill:none;stroke:#000;stroke-width:15;stroke-linecap:round;stroke-linejoin:round;stroke-miterlimit:10;stroke-dasharray:none;stroke-opacity:1" transform="translate(356.5 493.38)"/><path d="m0 0 7-12.124" style="fill:none;stroke:#000;stroke-width:15;stroke-linecap:round;stroke-linejoin:round;stroke-miterlimit:10;stroke-dasharray:none;stroke-opacity:1" transform="translate(432.933 361.994)"/><path d="m0 0 12.124-7" style="fill:none;stroke:#000;stroke-width:15;stroke-linecap:round;stroke-linejoin:round;stroke-miterlimit:10;stroke-dasharray:none;stroke-opacity:1" transform="translate(326.12 463)"/><path d="m0 0 12.124-7" style="fill:none;stroke:#000;stroke-width:15;stroke-linecap:round;stroke-linejoin:round;stroke-miterlimit:10;stroke-dasharray:none;stroke-opacity:1" transform="translate(458.006 387.433)"/><path d="M0 0h14" style="fill:none;stroke:#000;stroke-width:15;stroke-linecap:round;stroke-linejoin:round;stroke-miterlimit:10;stroke-dasharray:none;stroke-opacity:1" transform="translate(315 421.5)"/><path d="M0 0h14" style="fill:none;stroke:#000;stroke-width:15;stroke-linecap:round;stroke-linejoin:round;stroke-miterlimit:10;stroke-dasharray:none;stroke-opacity:1" transform="translate(467 422)"/><path d="m0 0 12.124 7" style="fill:none;stroke:#000;stroke-width:15;stroke-linecap:round;stroke-linejoin:round;stroke-miterlimit:10;stroke-dasharray:none;stroke-opacity:1" transform="translate(326.12 380)"/><path d="m0 0 12.124 7" style="fill:none;stroke:#000;stroke-width:15;stroke-linecap:round;stroke-linejoin:round;stroke-miterlimit:10;stroke-dasharray:none;stroke-opacity:1" transform="translate(457.506 456.433)"/><path d="m0 0 7 12.124" style="fill:none;stroke:#000;stroke-width:15;stroke-linecap:round;stroke-linejoin:round;stroke-miterlimit:10;stroke-dasharray:none;stroke-opacity:1" transform="translate(356.5 349.62)"/><path d="m0 0 7 12.124" style="fill:none;stroke:#000;stroke-width:15;stroke-linecap:round;stroke-linejoin:round;stroke-miterlimit:10;stroke-dasharray:none;stroke-opacity:1" transform="translate(432.067 481.506)"/><path d="M0 0h30" style="fill:none;stroke:#000;stroke-width:15;stroke-linecap:round;stroke-linejoin:round;stroke-miterlimit:10;stroke-dasharray:none;stroke-opacity:1" transform="translate(90 108)"/><path d="M0 0h40" style="fill:none;stroke:#000;stroke-width:15;stroke-linecap:round;stroke-linejoin:round;stroke-miterlimit:10;stroke-dasharray:none;stroke-opacity:1" transform="translate(382 64)"/><path d="M0 0h84" style="fill:none;stroke:#000;stroke-width:15;stroke-linecap:round;stroke-linejoin:round;stroke-miterlimit:10;stroke-dasharray:none;stroke-opacity:1" transform="translate(252 93)"/><path d="M0 0h56" style="fill:none;stroke:#000;stroke-width:15;stroke-linecap:round;stroke-linejoin:round;stroke-miterlimit:10;stroke-dasharray:none;stroke-opacity:1" transform="translate(144 71)"/></g></svg>