<svg xmlns="http://www.w3.org/2000/svg" xml:space="preserve" width="512" height="512" viewBox="0 0 60 60"><path fill="#9ebbce" d="M6.166 59.47a.5.5 0 0 1-.277-.916l1.7-1.137L4.151 59.4a.5.5 0 0 1-.524-.85l.1-.067-1.283.741a.5.5 0 0 1-.535-.843l3.818-2.651-4.284 2.47a.5.5 0 0 1-.55-.832l4.7-3.546-4.313 2.492a.5.5 0 0 1-.543-.837l1.176-.85-.633.364a.5.5 0 0 1-.577-.81l2.078-1.8-1.5.866a.5.5 0 0 1-.654-.726l1.149-1.579-.495.286a.5.5 0 0 1-.723-.594l.2-.593a.5.5 0 0 1-.158-.172.5.5 0 0 1 .182-.682l.5-.29a.5.5 0 0 1 .718.594l-.07.2 1.383-.8a.5.5 0 0 1 .655.727L2.823 51.2l3.995-2.3a.5.5 0 0 1 .578.81l-2.08 1.8 4.529-2.614a.5.5 0 0 1 .543.837l-1.174.849 2.924-1.687a.5.5 0 0 1 .55.832l-4.7 3.547 7.589-4.381a.5.5 0 0 1 .535.842l-3.819 2.655 6.06-3.5a.5.5 0 0 1 .524.85l-.1.066 1.589-.917a.5.5 0 0 1 .528.848l-1.7 1.135 3.44-1.985a.5.5 0 0 1 .534.843l-3.807 2.63 6.019-3.474a.5.5 0 0 1 .525.849l-.538.355 2.089-1.2a.5.5 0 0 1 .54.84l-4.943 3.513 7.547-4.361a.5.5 0 0 1 .549.834l-6.085 4.524 9.287-5.36a.5.5 0 0 1 .533.845l-3.657 2.518 5.827-3.364a.5.5 0 0 1 .55.832l-6.281 4.73 9.64-5.564a.5.5 0 0 1 .544.837l-5.6 4.073 8.51-4.912a.5.5 0 0 1 .544.837L39.337 53.8l8.541-4.931a.5.5 0 0 1 .527.849l-1.721 1.15 3.463-2a.5.5 0 0 1 .53.848l-2.3 1.544 4.146-2.394a.5.5 0 0 1 .547.835l-5.927 4.372 9.022-5.208a.5.5 0 0 1 .542.839l-5.326 3.83 7.334-4.233a.5.5 0 0 1 .53.846l-2.02 1.367 1.49-.86a.5.5 0 0 1 .53.847l-.386.261a.51.51 0 0 1 .521.21.5.5 0 0 1-.109.673l-2.878 2.245 2.327-1.343a.5.5 0 0 1 .609.78l-2.346 2.427 1.737-1a.5.5 0 0 1 .623.766l-.509.569a.51.51 0 0 1 .478.248.5.5 0 0 1-.183.683L56.73 59.4a.5.5 0 0 1-.623-.765l.411-.459L54.4 59.4a.5.5 0 0 1-.609-.78l2.348-2.429-5.564 3.209a.5.5 0 0 1-.556-.827l2.88-2.238L47.59 59.4a.5.5 0 0 1-.53-.846l.115-.078-1.6.924a.5.5 0 0 1-.53-.846l2.017-1.365-3.833 2.211a.5.5 0 0 1-.542-.839l5.327-3.831-8.09 4.67a.5.5 0 0 1-.547-.835L45.3 54.2l-9.017 5.2a.5.5 0 0 1-.529-.847l2.3-1.549-4.152 2.4a.5.5 0 0 1-.527-.848L35.1 57.4l-3.461 2a.5.5 0 0 1-.544-.837l5.623-4.091-8.539 4.928a.5.5 0 0 1-.544-.837l5.6-4.074-8.506 4.911a.5.5 0 0 1-.55-.832l6.28-4.73-9.635 5.562a.5.5 0 0 1-.533-.844l3.656-2.518-5.824 3.362a.5.5 0 0 1-.549-.834l6.079-4.524-9.281 5.358a.5.5 0 0 1-.54-.839l4.944-3.514-7.542 4.353a.5.5 0 0 1-.525-.849l.536-.354L9.16 59.4a.5.5 0 0 1-.534-.843l3.806-2.629L6.416 59.4a.5.5 0 0 1-.25.07" data-original="#9ebbce"/><path fill="#bfdbf0" d="M14.365 51.47a.5.5 0 0 1-.261-.927l4.531-2.776-6.3 3.635a.5.5 0 0 1-.513-.858l9.231-5.69L9.711 51.4a.5.5 0 0 1-.518-.855l19.659-12.426L5.843 51.4a.5.5 0 0 1-.51-.86l4.688-2.84-6.416 3.7a.5.5 0 0 1-.513-.857l19.676-12.229L1.513 50.586a.5.5 0 0 1-.513-.86l2.257-1.362L1.3 49.5a.5.5 0 0 1-.515-.857l21.594-13.449L2.256 46.812a.5.5 0 0 1-.508-.861l1.29-.779-.222.128a.5.5 0 0 1-.508-.861l3.06-1.851L3.4 43.722a.5.5 0 0 1-.515-.857l20.07-12.572L4.415 41a.5.5 0 0 1-.513-.858l13.586-8.4-12.265 7.08a.5.5 0 0 1-.51-.86l1.311-.8-.237.137a.5.5 0 0 1-.513-.859l7.226-4.447-6.035 3.485a.5.5 0 0 1-.52-.854l14.569-9.332-13.068 7.543a.5.5 0 0 1-.516-.856l6.829-4.294-5.6 3.232a.5.5 0 0 1-.515-.856l3.263-2.048-2.124 1.225a.5.5 0 0 1-.524-.85l7.771-5.094L9.615 27a.5.5 0 0 1-.529-.848l6.659-4.487-5.28 3.048a.5.5 0 0 1-.537-.842L15.3 20.1l-3.97 2.292a.5.5 0 0 1-.553-.83l4.183-3.19-2.721 1.57a.5.5 0 0 1-.587-.8l2.6-2.371-1.061.611a.5.5 0 0 1-.634-.752l.97-1.168a.5.5 0 0 1-.255-.218.5.5 0 0 1 .182-.682l1.658-.957a.5.5 0 0 1 .632.11.5.5 0 0 1 0 .642l-.633.761 2.627-1.518a.5.5 0 0 1 .587.8l-2.6 2.371 5.498-3.171a.5.5 0 0 1 .552.83l-4.182 3.189 6.963-4.019a.5.5 0 0 1 .537.841l-5.366 3.769 7.986-4.61a.5.5 0 0 1 .529.847l-6.661 4.49 9.244-5.337a.5.5 0 0 1 .525.85l-7.772 5.094 10.3-5.944a.5.5 0 0 1 .516.856l-3.269 2.052 5.034-2.908a.5.5 0 0 1 .517.855l-6.838 4.3L38.77 13.6a.5.5 0 0 1 .519.853L24.727 23.78 42.364 13.6a.5.5 0 0 1 .513.858L35.663 18.9l9.1-5.254a.5.5 0 0 1 .509.86l-1.33.807 1.861-1.074a.5.5 0 0 1 .512.859l-13.563 8.384 13.709-7.915a.5.5 0 0 1 .516.857L26.909 29l20.206-11.67a.5.5 0 0 1 .509.86l-3.113 1.884 2.989-1.722a.5.5 0 0 1 .508.86l-1.259.76 1.114-.643a.5.5 0 0 1 .515.858l-21.6 13.446 21.733-12.547a.5.5 0 0 1 .508.86l-2.2 1.329 2.066-1.192a.5.5 0 0 1 .514.857L29.7 35.182l19.8-11.431a.5.5 0 0 1 .51.86l-4.675 2.835 4.56-2.632a.5.5 0 0 1 .517.856L30.743 38.1l19.836-11.446a.5.5 0 0 1 .513.859l-9.207 5.675 9.157-5.288a.5.5 0 0 1 .512.86l-4.539 2.781 4.429-2.557a.5.5 0 0 1 .521.853l-16.21 10.445 16.374-9.453a.5.5 0 0 1 .512.859l-1.465.9 1.323-.764a.5.5 0 0 1 .524.851L39.17 41.763l14.016-8.091a.5.5 0 0 1 .522.851L43.63 41.075l10.133-5.849a.5.5 0 0 1 .528.847l-10.456 7.011 10.578-6.106a.5.5 0 0 1 .526.849l-7.125 4.732 7.141-4.122a.5.5 0 0 1 .521.853l-1.294.832 1.152-.665a.5.5 0 0 1 .535.844l-6.117 4.248L55.906 41a.5.5 0 0 1 .539.841l-4.6 3.251 4.595-2.652a.5.5 0 0 1 .536.843l-1.726 1.2 1.6-.926a.5.5 0 0 1 .55.833l-2.588 1.93 2.529-1.46a.5.5 0 0 1 .571.816l-2.392 2.009 2.364-1.365a.5.5 0 0 1 .591.8l-1.314 1.226 1.214-.7a.5.5 0 0 1 .61.779l-.337.35.06-.034a.5.5 0 1 1 .5.865l-3.114 1.8a.5.5 0 0 1-.611-.779l.337-.351-1.958 1.124a.5.5 0 0 1-.591-.8l1.314-1.225-3.506 2.025a.5.5 0 0 1-.571-.815l2.39-2.008-4.889 2.823a.5.5 0 0 1-.55-.833l2.595-1.939L45.25 51.4a.5.5 0 0 1-.535-.843l1.727-1.2-3.535 2.043a.5.5 0 0 1-.539-.84l4.6-3.251L39.88 51.4a.5.5 0 0 1-.535-.843l6.112-4.245-8.813 5.088a.5.5 0 0 1-.521-.853l1.3-.837L34.5 51.4a.5.5 0 0 1-.526-.849l7.13-4.735-9.678 5.584a.5.5 0 0 1-.529-.847l10.452-7.008L27.742 51.4a.5.5 0 0 1-.522-.851L37.3 44l-12.827 7.4a.5.5 0 0 1-.525-.85L37.8 41.468 20.589 51.4a.5.5 0 0 1-.512-.858l1.469-.9-3.053 1.758a.5.5 0 0 1-.52-.852l16.209-10.442L14.615 51.4a.5.5 0 0 1-.25.07" data-original="#bfdbf0"/><path fill="#b9f5ff" d="M11.1 45.507a.5.5 0 0 1-.267-.922l13.4-8.5L8.81 44.994a.5.5 0 0 1-.513-.858l6.4-3.946-5.345 3.086a.5.5 0 0 1-.52-.853l16.407-10.5L10.2 40.6a.5.5 0 0 1-.519-.853l15-9.6L11 38.041a.5.5 0 0 1-.516-.856L18.775 32 11.6 36.14a.5.5 0 0 1-.52-.854l12.24-7.819-10.981 6.343a.5.5 0 0 1-.517-.856l8.453-5.336-7.316 4.224a.5.5 0 0 1-.523-.851l11.574-7.573-10.263 5.926a.5.5 0 0 1-.53-.847l10.313-6.968-8.947 5.165a.5.5 0 0 1-.531-.845l6.9-4.7-5.643 3.258a.5.5 0 0 1-.543-.838l5.808-4.191-4.5 2.6a.5.5 0 0 1-.539-.84l1.9-1.353-.823.475a.5.5 0 0 1-.551-.832l1.187-.895-.111.064a.5.5 0 0 1-.606-.784L18 16.323l-.182.105a.5.5 0 0 1-.684-.68l.581-1.02a.5.5 0 0 1-.071-.1.5.5 0 0 1 .183-.683l.611-.353a.5.5 0 0 1 .685.679l-.207.364L20.73 13.6a.5.5 0 0 1 .606.784l-1.471 1.485 3.935-2.277a.5.5 0 0 1 .667.156.5.5 0 0 1-.116.676l-1.189.9 3-1.73a.5.5 0 0 1 .539.84l-1.9 1.35 3.8-2.192a.5.5 0 0 1 .543.838l-5.814 4.189 8.72-5.034a.5.5 0 0 1 .531.846l-6.894 4.7 9.613-5.549a.5.5 0 0 1 .53.847l-10.312 6.965 13.536-7.816a.5.5 0 0 1 .523.851l-11.583 7.578 13.719-7.92a.5.5 0 0 1 .516.855l-8.45 5.334 8.366-4.829a.5.5 0 0 1 .519.854L30.422 24.12l12.232-7.061a.5.5 0 0 1 .516.856L34.883 23.1l8.188-4.728a.5.5 0 0 1 .52.854l-15 9.6 15.038-8.681a.5.5 0 0 1 .519.853L27.73 31.511l16.488-9.518a.5.5 0 0 1 .512.859l-6.374 3.928 6.238-3.6a.5.5 0 0 1 .517.854l-13.394 8.494L45.106 24.8a.5.5 0 0 1 .518.855L35.2 32.247l10.37-5.985a.5.5 0 0 1 .517.855l-7.671 4.844 7.574-4.372a.5.5 0 0 1 .515.857l-2.085 1.3 1.905-1.1a.5.5 0 0 1 .517.855l-3.933 2.484 3.782-2.185a.5.5 0 0 1 .52.853l-4.341 2.776L47.072 31a.5.5 0 0 1 .525.851l-6.267 4.125 6.187-3.576a.5.5 0 0 1 .539.841l-8.371 5.933 8.434-4.87a.5.5 0 0 1 .536.842L43.6 38.672l4.988-2.88a.5.5 0 0 1 .549.833L44.214 40.3l4.906-2.832a.5.5 0 0 1 .566.82L45.852 41.4l3.817-2.2a.5.5 0 0 1 .587.8l-2.45 2.235 2.394-1.376a.5.5 0 0 1 .6.791l-.92.9.723-.417a.5.5 0 0 1 .63.758l-.2.227a.5.5 0 0 1 .64.5l-.028.62a.5.5 0 0 1 .138.92l-.423.245a.5.5 0 0 1-.75-.456l.022-.462-1.595.92a.5.5 0 0 1-.63-.758l.167-.194-1.654.954a.5.5 0 0 1-.6-.791l.921-.9-2.929 1.69a.5.5 0 0 1-.586-.8l2.449-2.235-5.266 3.04a.5.5 0 0 1-.565-.82l3.832-3.113-6.822 3.937a.5.5 0 0 1-.548-.833l4.926-3.678-7.818 4.514a.5.5 0 0 1-.536-.843l5.052-3.519-7.562 4.365a.5.5 0 0 1-.539-.841l8.371-5.933-11.74 6.778a.5.5 0 0 1-.525-.851l6.264-4.12-8.615 4.974a.5.5 0 0 1-.52-.854l4.345-2.774-6.287 3.63a.5.5 0 0 1-.517-.856l3.94-2.488-5.8 3.346a.5.5 0 0 1-.515-.858l2.09-1.3-3.74 2.16a.5.5 0 0 1-.517-.856l7.664-4.839-9.87 5.7a.5.5 0 0 1-.517-.856l10.411-6.587-12.9 7.445a.5.5 0 0 1-.251.066" data-original="#3778c6"/><path fill="#262626" d="M1.522 59.1c1.027.717 2.915.411 4.063.411 16.473-.124 32.962.236 49.431 0 1.516-.046 3.116.212 4.106-1.265 1.419-2.116.424-6.7.424-9.095a.31.31 0 0 0-.214-.334c-1.441-5.812-4.4-11.376-6.22-17.131-2.235-5.466-3.858-11.3-6.2-16.689-1.12-1.675-2.2-1.53-3.993-1.589-2.134-.07-4.277-.053-6.418-.03V9.026a.33.33 0 0 0 0-.367V3.831c.176-3.285 4.832-2.682 4.994.338.04.746 1.037.241 1.006-.338A3.43 3.43 0 0 0 38.779.462c-4.025.5-3.244 5.13-3.282 8.075H24.448V4.109C24.63.935 29.378.8 29.552 4.04c.04.749.936.664.9-.081A3.59 3.59 0 0 0 27.11.411c-4.528.045-3.461 5.409-3.558 8.478-.131.186-.155.389 0 .5v4.025c-2.909.315-6.586-.842-9.379.386-1.233.784-1.647 2.882-2.109 4.126C8.321 28.321 4.142 38.631.618 49.075c-.357 2.335-1.31 8.33.904 10.025m55.514-.615c-16.241.13-32.719-.091-49.034 0-6.407.979-7.036-.976-6.557-7.461 1.606 1.1 5.061.563 6.632.563H53.3c1.754 0 4.033.267 5.227-.679.202 2.65.583 6.679-1.491 7.579Zm-25.728-35.7c-2.491.867-3.929 2.216-6.86 1.131v-4.357H35.5v3.391a5.92 5.92 0 0 0-4.192-.166Zm4.192-4.344H24.448v-3.855c3.685-.014 7.364.03 11.049-.023Zm-17.09-3.706c.033-.05.056-.089.08-.13 1.618-.471 3.521.114 5.062-.02v4.344a.6.6 0 0 0 0 .408v4.2a8.5 8.5 0 0 0-3.346-1.095c-.567-.044-1.033 1.059-.412 1.108a12.5 12.5 0 0 1 3.817 1.153.38.38 0 0 0 .511.2c4.111 2.3 7.211-2.562 11.519-.794 1.59.606 2.343 1.3 4.153 1.437.567.044 1.033-1.059.412-1.108a12.1 12.1 0 0 1-3.7-1.106v-8.8c1.341-.031 2.686-.05 4.006.045 1.563.111.679-.59 1.284.99 3.587 9.357 6.118 19.257 9.105 28.838H24.164c-4.79-.176-10.58-.607-15.251.038 3.287-9.871 6.364-19.808 9.497-29.708m6.038-5.272H35.5v3.928c-3.684.039-7.365.013-11.049.02Zm-11.327 8.193c.542-2.449 1.914-3.3 4.46-3.285l-9.616 30.48c-.086.273-.035.735.346.735h43.22c.387 0 .605-.524.52-.881l-9.518-30.168c4.563.111 5.1 5.183 6.444 8.936L56.4 43.462c.48 1.292 2.1 3.925 1.959 5.275-.239 2.239-1.427 1.478-2.84 1.674-13.46.642-27.144-.365-40.647 0-1.592 0-13.56 1.192-13.31-1.638z" data-original="#262626"/><path fill="#262626" d="M19.078 29.586c3.984.281 6.231 2.972 10.416 1.347 4.946-2.483 6.768-.172 11.584.653.631.044.417-1.131-.156-1.172-3.985-.281-6.236-2.972-10.421-1.348-2.913 1.131-4.484 1.706-7.676.428a11.9 11.9 0 0 0-3.9-1.08c-.634-.044-.42 1.131.153 1.172m-2.052 6.876c4.185.25 7.157 2.793 11.524 1.653 7.1-2.567 7.574-.89 14.476.347.783.046.633-.883-.052-.924-4.186-.25-7.162-2.794-11.53-1.653-3.742.977-5.585 2.162-9.834.746a17 17 0 0 0-4.636-1.093c-.783-.046-.633.883.052.924" data-original="#262626"/></svg>