<svg xmlns="http://www.w3.org/2000/svg" width="512" height="512" viewBox="0 0 512 512"><path fill="#60b8fe" d="M444.013 130.02H67.549L33.228 304.524h445.107z"/><path fill="#23a8fe" d="M67.549 130.02 33.228 304.524h46.534l34.322-174.504z"/><path fill="#6c7ed6" d="M39.35 302.937a3.45 3.45 0 0 1-3.385-4.115L68.306 134.39a3.45 3.45 0 0 1 3.385-2.784h176.301a162.4 162.4 0 0 1 41.613-31.728H55.806a15.86 15.86 0 0 0-15.566 12.803L.303 315.74c-1.928 9.796 5.582 18.925 15.566 18.925h443.695l20.367-31.728z"/><path fill="#4f67d2" d="m36.262 315.74 2.531-12.866c-1.881-.308-3.208-2.11-2.826-4.052L68.306 134.39a3.45 3.45 0 0 1 3.385-2.784h.786l3.722-18.925a15.86 15.86 0 0 1 15.565-12.803H55.806a15.86 15.86 0 0 0-15.566 12.803L.303 315.74c-1.928 9.796 5.582 18.925 15.566 18.925h35.958c-9.983 0-17.493-9.129-15.565-18.925"/><path fill="#0193fa" d="M221.263 235.711h-.003a45.9 45.9 0 0 1-32.54-13.495c-17.978 17.994-47.126 17.994-65.104-.002-8.215 8.201-19.271 13.051-30.945 13.456-4.366.144-8.05-3.273-8.203-7.652a7.933 7.933 0 0 1 7.652-8.203c8.734-.303 16.626-4.192 22.22-10.95 4.824-5.834 13.717-5.844 18.555-.001 12.152 14.683 34.463 14.601 46.546.001 4.839-5.845 13.731-5.834 18.558.002 5.772 6.974 14.252 10.976 23.266 10.979a7.93 7.93 0 0 1 7.929 7.935 7.93 7.93 0 0 1-7.931 7.93m-97.645-58.242c-8.215 8.202-19.271 13.052-30.946 13.458-4.366.143-8.05-3.273-8.203-7.652a7.933 7.933 0 0 1 7.652-8.203c8.734-.303 16.626-4.192 22.22-10.95 4.824-5.834 13.717-5.844 18.555-.001 8.758 10.584 23.549 13.952 35.972 8.191a7.933 7.933 0 0 1 6.674 14.392c-17.578 8.151-38.33 4.351-51.924-9.235"/><path fill="#dfebfa" d="M178.145 366.068a7.93 7.93 0 0 1-7.932-7.932v-72.974c0-9.039-7.354-16.393-16.393-16.393s-16.393 7.354-16.393 16.393v15.315c0 4.381-3.551 7.932-7.932 7.932s-7.932-3.551-7.932-7.932v-15.315c0-17.787 14.47-32.257 32.257-32.257s32.257 14.47 32.257 32.257v72.974a7.93 7.93 0 0 1-7.932 7.932"/><path fill="#6c7ed6" d="m452.786 183.268 21.872 115.435 3.157-5.256c4.51-7.512 14.254-9.945 21.768-5.433 4.181 2.512 6.782 6.646 7.494 11.113l-21.955-115.86h-32.336z"/><g fill="#bc7c63"><path d="M453.413 391.472a15.86 15.86 0 0 1-13.6 7.697h-15.864v47.802c0 8.761 7.103 15.864 15.864 15.864s15.864-7.103 15.864-15.864v-59.268zm-189.682 7.697v47.802c0 8.761 7.103 15.864 15.864 15.864s15.864-7.103 15.864-15.864v-47.802z"/><path d="M453.413 391.472a15.86 15.86 0 0 1-13.6 7.697h-15.864v47.802c0 8.761 7.103 15.864 15.864 15.864s15.864-7.103 15.864-15.864v-59.268z"/></g><path fill="#ab6b51" d="M263.731 399.169v47.802c0 8.761 7.103 15.864 15.864 15.864s15.864-7.103 15.864-15.864v-47.802z"/><path fill="#bc7c63" d="M361.331 80.632c5.353 0 10.645.261 15.864.768V65.03c0-8.761-7.103-15.864-15.864-15.864s-15.864 7.103-15.864 15.864V81.4a164 164 0 0 1 15.864-.768"/><path fill="#ab6b51" d="M366.619 64.99c0-4.72 1.793-9.01 4.716-12.266a15.8 15.8 0 0 0-10.004-3.558c-8.761 0-15.864 7.103-15.864 15.864V81.4a164 164 0 0 1 15.864-.768c1.77 0 3.531.039 5.288.095z"/><path fill="#bc7c63" d="M345.467 183.268h31.728v188.403h-31.728z"/><path fill="#ab6b51" d="M345.467 183.268h20.912v188.403h-20.912z"/><path fill="#dfebfa" d="M511.745 180.498C487.94 120.748 429.57 78.517 361.331 78.517s-126.609 42.231-150.415 101.982c-.933 2.342.817 4.885 3.338 4.885h56.129c13.861-61.209 49.349-104.751 90.948-104.751s77.087 43.542 90.948 104.751h56.129c2.521-.001 4.271-2.544 3.337-4.886"/><path fill="#b1dbfc" d="M344.33 83.103a52 52 0 0 1 6.977-4.277c-63.889 3.904-117.759 44.87-140.391 101.672-.933 2.342.817 4.885 3.338 4.885h56.129c11.928-52.675 39.873-92.264 73.947-102.28"/><path fill="#ff656f" d="M361.331 80.632c16.488 0 30.553 43.542 36.047 104.751h55.374c-13.515-62.32-49.343-106.866-91.421-106.866s-77.905 44.546-91.421 106.866h55.374c5.494-61.209 19.559-104.751 36.047-104.751"/><path fill="#ff4756" d="M349.737 79.658c-36.971 7.321-67.572 49.216-79.827 105.725h25.268c9.253-52.008 29.546-91.876 54.559-105.725"/><path fill="#dfebfa" d="M361.331 78.517c-16.677 0-30.877 44.546-36.234 106.866h72.468c-5.357-62.32-19.557-106.866-36.234-106.866m78.482 322.767h-176.84c-8.761 0-15.864-7.103-15.864-15.864s7.103-15.864 15.864-15.864h167.863l46.978-78.224c4.51-7.512 14.254-9.945 21.768-5.433 7.512 4.511 9.943 14.257 5.433 21.768l-51.601 85.921a15.87 15.87 0 0 1-13.601 7.696"/><path fill="#b1dbfc" d="M325.591 385.42c0-8.761 7.103-15.864 15.864-15.864h-78.482c-8.761 0-15.864 7.103-15.864 15.864s7.103 15.864 15.864 15.864h78.482c-8.761 0-15.864-7.103-15.864-15.864m-146.936-82.659a7.93 7.93 0 0 0-7.932-7.932h-34.019v15.864h34.019a7.93 7.93 0 0 0 7.932-7.932m-7.932 23.972h-34.019v15.864h34.019c4.381 0 7.932-3.551 7.932-7.932s-3.551-7.932-7.932-7.932"/><path fill="#dfebfa" d="M105.171 252.905c-17.787 0-32.257 14.47-32.257 32.257v17.775h15.864v-17.775c0-9.039 7.354-16.393 16.393-16.393s16.393 7.354 16.393 16.393v72.974c0 4.381 3.551 7.932 7.932 7.932s7.932-3.551 7.932-7.932v-72.974c0-17.787-14.471-32.257-32.257-32.257"/></svg>