<svg xmlns="http://www.w3.org/2000/svg" width="640" height="640" viewBox="0 0 480.003 480"><path d="m478.688 467.61-168-256A8 8 0 0 0 304 208H176a8 8 0 0 0-6.687 3.61l-168 256A7.999 7.999 0 0 0 8 480h464a8 8 0 0 0 7.043-4.2 7.99 7.99 0 0 0-.355-8.19M180.32 224h7.739L62.402 464H22.824zM248 464v-32h-16v32H80.496l125.602-240H232v8h16v-8h25.883L399.48 464zm169.602 0L292 224h7.738l157.438 240zm0 0"/><path d="M232 240h16v16h-16zm0 32h16v24h-16zm0 40h16v32h-16zm0 56h16v40h-16zm8-176a7.99 7.99 0 0 0 6.145-2.871C252.883 181.059 312 109.168 312 72c0-39.762-32.234-72-72-72-39.762 0-72 32.238-72 72 0 37.168 59.121 109.059 65.855 117.129A8 8 0 0 0 240 192m0-176c30.914.043 55.96 25.09 56 56 0 23.848-36.094 74.242-56 99.313C220.09 146.25 184 95.875 184 72c.043-30.91 25.09-55.957 56-56m0 0"/><path d="M272 64c0-17.672-14.324-32-32-32-17.672 0-32 14.328-32 32 0 17.676 14.328 32 32 32 17.676 0 32-14.324 32-32m-48 0c0-8.836 7.164-16 16-16 8.84 0 16 7.164 16 16 0 8.84-7.16 16-16 16-8.836 0-16-7.16-16-16m0 0"/></svg>