<svg xmlns="http://www.w3.org/2000/svg" width="464pt" height="464pt" viewBox="0 0 464 464"><path fill="#ff4764" d="M232 0v176s64-76.64 64-112c0-35.348-28.652-64-64-64m0 0"/><path fill="#ff3051" d="M168 64c0 35.36 64 112 64 112V0c-35.348 0-64 28.652-64 64m0 0"/><path fill="#ffcd00" d="M168 208 0 464h59.273l134-256zm102.727 0 134 256H464L296 208zm0 0"/><path fill="#58595b" d="M270.727 208h-77.454l-134 256h345.454zm0 0"/><path fill="#a7a9ac" d="M224 232h16v16h-16zm0-24h16v8h-16zm0 56h16v24h-16zm0 40h16v32h-16zm0 56h16v40h-16zm0 64h16v40h-16zm0 0"/><path fill="#f1f2f2" d="M208 56c0 13.254 10.746 24 24 24V32c-13.254 0-24 10.746-24 24m0 0"/><path fill="#f9f9f9" d="M232 32v48c13.254 0 24-10.746 24-24s-10.746-24-24-24m0 0"/></svg>