<svg xmlns="http://www.w3.org/2000/svg" width="448pt" height="448pt" viewBox="-7 0 448 448"><path d="M157.496 208 0 448h39.61l125.62-240zm276.856 240L276.855 208h-7.734l125.621 240zM225.176 208v8h-16v-8h-25.88l-125.6 240h151.48v-32h16v32H376.68L251.078 208zm0 184h-16v-40h16zm0-64h-16v-32h16zm0-48h-16v-24h16zm0-40h-16v-16h16zm-8-84.687c19.902-25.075 56-75.465 56-99.313 0-30.93-25.07-56-56-56-30.926 0-56 25.07-56 56 0 23.871 36.09 74.246 56 99.313m0-139.313c17.672 0 32 14.328 32 32s-14.328 32-32 32-32-14.328-32-32 14.328-32 32-32m0 0"/></svg>