<svg xmlns="http://www.w3.org/2000/svg" width="512" height="512" viewBox="0 0 512 512"><path fill="#7a8c98" d="M457.886 463.099h-44.532a10.405 10.405 0 0 1-9.872-7.116l-8.035-24.104 72.846-10v30.813c0 5.747-4.659 10.407-10.407 10.407m-403.772 0h44.532c4.479 0 8.456-2.866 9.872-7.116l8.035-24.104-72.846-10v30.813c0 5.747 4.659 10.407 10.407 10.407"/><path fill="#c5d3dd" d="M480.78 431.861H31.22c-17.242 0-31.22-13.977-31.22-31.22V80.121c0-17.242 13.977-31.22 31.22-31.22h449.56c17.242 0 31.22 13.977 31.22 31.22v320.52c0 17.242-13.977 31.22-31.22 31.22"/><path fill="#b6c4cf" d="M480.78 48.901h-31.22c17.242 0 31.22 13.977 31.22 31.22v320.52c0 17.242-13.977 31.22-31.22 31.22h31.22c17.242 0 31.22-13.977 31.22-31.22V80.121c0-17.242-13.977-31.22-31.22-31.22"/><path fill="#8d9ca8" d="M41.626 379.828V100.934c0-5.747 4.659-10.407 10.407-10.407h402.732c5.747 0 10.407 4.659 10.407 10.407v278.894c0 5.747-4.659 10.406-10.407 10.406H52.033c-5.748.001-10.407-4.658-10.407-10.406"/><path fill="#7a8c98" d="M454.764 90.527h-31.22c5.747 0 10.407 4.659 10.407 10.407v17.878c0 2.906-1.25 5.642-3.352 7.649-7.547 7.205-12.258 17.354-12.258 28.587v45.789c0 11.233 4.711 21.382 12.258 28.587 2.102 2.007 3.352 4.743 3.352 7.649v6.618c0 2.906-1.25 5.642-3.352 7.649-7.547 7.205-12.258 17.354-12.258 28.587v45.789c0 11.233 4.711 21.382 12.258 28.587 2.102 2.007 3.352 4.743 3.352 7.649v17.878c0 5.747-4.659 10.406-10.407 10.406h31.22c5.747 0 10.407-4.659 10.407-10.406V100.934c0-5.747-4.659-10.407-10.407-10.407"/><circle cx="148.813" cy="240.381" r="62.439" fill="#c5d3dd"/><path fill="#6cf5c2" d="M327.721 177.942h70.932a8.24 8.24 0 0 0 8.241-8.241v-14.737a8.24 8.24 0 0 0-8.241-8.241h-70.932a8.24 8.24 0 0 0-8.241 8.241v14.737a8.24 8.24 0 0 0 8.241 8.241"/><path fill="#ffe177" d="M472.455 209.162h-14.569a8.325 8.325 0 0 1-8.325-8.325v-45.789a8.325 8.325 0 0 1 8.325-8.325h14.569a8.325 8.325 0 0 1 8.325 8.325v45.789a8.325 8.325 0 0 1-8.325 8.325m0 62.439h-14.569a8.325 8.325 0 0 0-8.325 8.325v45.789a8.325 8.325 0 0 0 8.325 8.325h14.569a8.325 8.325 0 0 0 8.325-8.325v-45.789a8.325 8.325 0 0 0-8.325-8.325"/><path fill="#7a8c98" d="M148.813 221.879a7.5 7.5 0 0 1-7.5-7.5v-36.437c0-4.143 3.357-7.5 7.5-7.5s7.5 3.357 7.5 7.5v36.437a7.5 7.5 0 0 1-7.5 7.5m-17.371 8.632a7.48 7.48 0 0 1-5.304-2.196l-26.78-26.78a7.5 7.5 0 0 1 10.607-10.607l26.78 26.78a7.5 7.5 0 0 1-5.303 12.803m-4.705 17.37H86.374c-4.143 0-7.5-3.357-7.5-7.5s3.357-7.5 7.5-7.5h40.363c4.143 0 7.5 3.357 7.5 7.5s-3.357 7.5-7.5 7.5m-22.075 44.151a7.5 7.5 0 0 1-5.304-12.803l26.78-26.78a7.5 7.5 0 0 1 10.607 10.607l-26.78 26.78a7.48 7.48 0 0 1-5.303 2.196m44.151 18.288a7.5 7.5 0 0 1-7.5-7.5v-41.259c0-4.143 3.357-7.5 7.5-7.5s7.5 3.357 7.5 7.5v41.259c0 4.143-3.357 7.5-7.5 7.5"/><path fill="#7a8c98" d="M192.964 292.032a7.48 7.48 0 0 1-5.304-2.196l-31.162-31.162a7.5 7.5 0 0 1 10.607-10.607l31.162 31.162a7.5 7.5 0 0 1-5.303 12.803m18.288-44.151h-40.363c-4.143 0-7.5-3.357-7.5-7.5s3.357-7.5 7.5-7.5h40.363c4.143 0 7.5 3.357 7.5 7.5s-3.357 7.5-7.5 7.5m-40.363-22.075a7.5 7.5 0 0 1-5.304-12.803l22.075-22.075a7.5 7.5 0 0 1 10.607 10.607l-22.075 22.075a7.48 7.48 0 0 1-5.303 2.196"/><path fill="#dff6fd" d="M406.895 216.662h-8.325c-4.143 0-7.5-3.357-7.5-7.5s3.357-7.5 7.5-7.5h8.325c4.143 0 7.5 3.357 7.5 7.5s-3.358 7.5-7.5 7.5m-39.545 0h-8.325c-4.143 0-7.5-3.357-7.5-7.5s3.357-7.5 7.5-7.5h8.325c4.143 0 7.5 3.357 7.5 7.5s-3.358 7.5-7.5 7.5m-39.545 0h-8.325c-4.143 0-7.5-3.357-7.5-7.5s3.357-7.5 7.5-7.5h8.325c4.143 0 7.5 3.357 7.5 7.5s-3.358 7.5-7.5 7.5m79.09 41.626h-8.325c-4.143 0-7.5-3.357-7.5-7.5s3.357-7.5 7.5-7.5h8.325c4.143 0 7.5 3.357 7.5 7.5s-3.358 7.5-7.5 7.5m-39.545 0h-8.325c-4.143 0-7.5-3.357-7.5-7.5s3.357-7.5 7.5-7.5h8.325c4.143 0 7.5 3.357 7.5 7.5s-3.358 7.5-7.5 7.5m-39.545 0h-8.325c-4.143 0-7.5-3.357-7.5-7.5s3.357-7.5 7.5-7.5h8.325c4.143 0 7.5 3.357 7.5 7.5s-3.358 7.5-7.5 7.5m79.09 41.626h-8.325c-4.143 0-7.5-3.357-7.5-7.5s3.357-7.5 7.5-7.5h8.325c4.143 0 7.5 3.357 7.5 7.5s-3.358 7.5-7.5 7.5m-39.545 0h-8.325c-4.143 0-7.5-3.357-7.5-7.5s3.357-7.5 7.5-7.5h8.325c4.143 0 7.5 3.357 7.5 7.5s-3.358 7.5-7.5 7.5m-39.545 0h-8.325c-4.143 0-7.5-3.357-7.5-7.5s3.357-7.5 7.5-7.5h8.325c4.143 0 7.5 3.357 7.5 7.5s-3.358 7.5-7.5 7.5m79.09 41.626h-8.325c-4.143 0-7.5-3.357-7.5-7.5s3.357-7.5 7.5-7.5h8.325c4.143 0 7.5 3.357 7.5 7.5s-3.358 7.5-7.5 7.5m-39.545 0h-8.325c-4.143 0-7.5-3.357-7.5-7.5s3.357-7.5 7.5-7.5h8.325c4.143 0 7.5 3.357 7.5 7.5s-3.358 7.5-7.5 7.5m-39.545 0h-8.325c-4.143 0-7.5-3.357-7.5-7.5s3.357-7.5 7.5-7.5h8.325c4.143 0 7.5 3.357 7.5 7.5s-3.358 7.5-7.5 7.5"/><path fill="#c5d3dd" d="M256 310.32a7.5 7.5 0 0 1-7.5-7.5V177.942c0-4.143 3.357-7.5 7.5-7.5s7.5 3.357 7.5 7.5V302.82c0 4.143-3.357 7.5-7.5 7.5"/><circle cx="148.813" cy="240.381" r="31.22" fill="#e8edf2"/></svg>