<svg xmlns="http://www.w3.org/2000/svg" xml:space="preserve" width="512" height="512" viewBox="0 0 512 512"><path d="M474.195 426.708H37.805c-16.737 0-30.305-13.568-30.305-30.305V85.273c0-16.737 13.568-30.305 30.305-30.305h436.39c16.737 0 30.305 13.568 30.305 30.305v311.13c0 16.737-13.568 30.305-30.305 30.305" style="fill:#c5d3dd"/><path d="M474.195 54.968H443.89c16.737 0 30.305 13.568 30.305 30.305v311.13c0 16.737-13.568 30.305-30.305 30.305h30.305c16.737 0 30.305-13.568 30.305-30.305V85.273c0-16.737-13.568-30.305-30.305-30.305" style="fill:#b6c4cf"/><path d="M47.907 376.2V105.476c0-5.579 4.523-10.102 10.102-10.102h390.933c5.579 0 10.102 4.523 10.102 10.102V376.2c0 5.579-4.523 10.102-10.102 10.102H58.008c-5.579 0-10.101-4.523-10.101-10.102" style="fill:#8d9ca8"/><path d="M448.941 95.375h-30.305c5.579 0 10.102 4.523 10.102 10.102v17.354c0 2.821-1.213 5.477-3.254 7.425-7.326 6.994-11.899 16.846-11.899 27.749v44.447c0 10.903 4.573 20.756 11.899 27.749 2.04 1.948 3.254 4.604 3.254 7.425v6.424c0 2.821-1.213 5.477-3.254 7.425-7.326 6.994-11.899 16.846-11.899 27.749v44.447c0 10.903 4.573 20.756 11.899 27.749 2.04 1.948 3.254 4.604 3.254 7.425V376.2c0 5.579-4.523 10.102-10.102 10.102h30.305c5.579 0 10.102-4.523 10.102-10.102V105.477c0-5.58-4.523-10.102-10.102-10.102m3.031 361.656h-43.227a10.1 10.1 0 0 1-9.583-6.907l-7.799-23.398h70.711v20.203c-.001 5.579-4.523 10.102-10.102 10.102m-391.944 0h43.227c4.348 0 8.208-2.782 9.583-6.907l7.799-23.398h-70.71v20.203c0 5.579 4.523 10.102 10.101 10.102" style="fill:#7a8c98"/><circle cx="151.953" cy="240.838" r="60.61" style="fill:#c5d3dd"/><circle cx="151.953" cy="240.838" r="30.305" style="fill:#e8edf2"/><path d="M317.62 149.924h84.854v30.305H317.62z" style="fill:#6cf5c2" transform="rotate(-180 360.047 165.076)"/><path d="M466.114 210.533h-14.142a8.08 8.08 0 0 1-8.081-8.081v-44.447a8.08 8.08 0 0 1 8.081-8.081h14.142a8.08 8.08 0 0 1 8.081 8.081v44.447a8.08 8.08 0 0 1-8.081 8.081m0 60.61h-14.142a8.08 8.08 0 0 0-8.081 8.081v44.447a8.08 8.08 0 0 0 8.081 8.081h14.142a8.08 8.08 0 0 0 8.081-8.081v-44.447a8.08 8.08 0 0 0-8.081-8.081" style="fill:#ffe177"/><path d="M462.073 426.726v20.203c0 5.579-4.523 10.102-10.102 10.102h-43.227a10.1 10.1 0 0 1-9.583-6.907l-7.799-23.398m-341.435 0v20.203c0 5.579 4.523 10.102 10.102 10.102h43.227c4.348 0 8.208-2.782 9.583-6.907l7.799-23.398" style="fill:none;stroke:#000;stroke-width:15;stroke-linecap:round;stroke-linejoin:round;stroke-miterlimit:10"/><circle cx="151.953" cy="240.838" r="60.61" style="fill:none;stroke:#000;stroke-width:15;stroke-linecap:round;stroke-linejoin:round;stroke-miterlimit:10"/><circle cx="151.953" cy="240.838" r="30.305" style="fill:none;stroke:#000;stroke-width:15;stroke-linecap:round;stroke-linejoin:round;stroke-miterlimit:10"/><path d="M151.953 180.228v30.305m-42.857-12.552 21.428 21.428m-39.18 21.429h30.304m-12.552 42.858 21.428-21.429m21.429 39.181v-30.305m42.858 12.553-21.429-21.429m39.181-21.429h-30.305m12.553-42.857-21.429 21.428m229.092-8.876h-8.082m-30.305 0h-8.081m-30.305 0h-8.081m84.854 40.407h-8.082m-30.305 0h-8.081m-30.305 0h-8.081m84.854 40.406h-8.082m-30.305 0h-8.081m-30.305 0h-8.081m84.854 40.407h-8.082m-30.305 0h-8.081m-30.305 0h-8.081" style="fill:none;stroke:#000;stroke-width:15;stroke-linecap:round;stroke-linejoin:round;stroke-miterlimit:10"/><path d="M317.62 149.924h84.854v30.305H317.62z" style="fill:none;stroke:#000;stroke-width:15;stroke-linecap:round;stroke-linejoin:round;stroke-miterlimit:10" transform="rotate(-180 360.047 165.076)"/><path d="M256 180.228v121.22m203.043-30.305v-60.61M373.51 95.379h75.43c5.58 0 10.1 4.52 10.1 10.1v44.44m-299.23 236.38H58.01c-5.58 0-10.1-4.52-10.1-10.1v-270.72c0-5.58 4.52-10.1 10.1-10.1h280.5m120.53 236.37v44.45c0 5.58-4.52 10.1-10.1 10.1H194.81m271.304-175.766h-14.142a8.08 8.08 0 0 1-8.081-8.081v-44.447a8.08 8.08 0 0 1 8.081-8.081h14.142a8.08 8.08 0 0 1 8.081 8.081v44.447a8.08 8.08 0 0 1-8.081 8.081" style="fill:none;stroke:#000;stroke-width:15;stroke-linecap:round;stroke-linejoin:round;stroke-miterlimit:10"/><path d="M466.114 271.143h-14.142a8.08 8.08 0 0 0-8.081 8.081v44.447a8.08 8.08 0 0 0 8.081 8.081h14.142a8.08 8.08 0 0 0 8.081-8.081v-44.447a8.08 8.08 0 0 0-8.081-8.081" style="fill:none;stroke:#000;stroke-width:15;stroke-linecap:round;stroke-linejoin:round;stroke-miterlimit:10"/><path d="M130.52 54.969H474.2c16.73 0 30.3 13.57 30.3 30.3v311.13c0 16.74-13.57 30.31-30.3 30.31H37.8c-16.73 0-30.3-13.57-30.3-30.31V85.269c0-16.73 13.57-30.3 30.3-30.3h57.72" style="fill:none;stroke:#000;stroke-width:15;stroke-linecap:round;stroke-linejoin:round;stroke-miterlimit:10"/></svg>