<svg xmlns="http://www.w3.org/2000/svg" width="512" height="512" viewBox="0 0 511.996 511.996"><path d="M201.59 62.14c0 34.264 27.876 62.14 62.14 62.14s62.14-27.876 62.14-62.14S297.993 0 263.729 0 201.59 27.876 201.59 62.14m109.279 0c0 25.993-21.146 47.14-47.14 47.14s-47.14-21.146-47.14-47.14S237.736 15 263.729 15s47.14 21.146 47.14 47.14m52.885 136.616a7.5 7.5 0 0 0 10.601.358c.825-.771 8.063-7.827 8.171-18.039.047-4.445-1.313-11.123-8.057-17.696-2.372-2.312-3.559-4.535-3.527-6.609.045-2.906 2.375-5.678 3.281-6.514a7.5 7.5 0 0 0-9.925-11.247c-.826.722-8.079 7.341-8.35 17.284-.12 4.436 1.178 11.129 8.051 17.828 2.373 2.313 3.526 4.513 3.527 6.725.001 3.262-2.504 6.42-3.414 7.31a7.5 7.5 0 0 0-.358 10.6m61.934-35.377c-2.372-2.312-3.559-4.535-3.527-6.609.045-2.906 2.375-5.678 3.281-6.514a7.5 7.5 0 0 0-9.925-11.247c-.826.722-8.079 7.341-8.35 17.284-.12 4.436 1.178 11.129 8.051 17.828 2.373 2.313 3.526 4.513 3.527 6.725.001 3.262-2.504 6.42-3.414 7.31a7.5 7.5 0 1 0 10.243 10.959c.825-.771 8.063-7.827 8.171-18.039.046-4.446-1.314-11.124-8.057-17.697M414.973 277.07a7.5 7.5 0 0 0 10.601.358c.825-.771 8.063-7.827 8.171-18.039.047-4.445-1.313-11.123-8.057-17.696-2.372-2.312-3.559-4.535-3.527-6.609.045-2.907 2.375-5.68 3.281-6.515a7.5 7.5 0 0 0-9.925-11.247c-.826.723-8.079 7.342-8.35 17.286-.12 4.436 1.179 11.129 8.051 17.827 2.373 2.313 3.526 4.513 3.527 6.725.001 3.262-2.504 6.42-3.414 7.31a7.5 7.5 0 0 0-.358 10.6M83.646 87.305c-2.372-2.312-3.559-4.535-3.527-6.609.045-2.906 2.375-5.678 3.281-6.514a7.5 7.5 0 0 0-9.925-11.247c-.826.722-8.079 7.341-8.35 17.284-.12 4.436 1.178 11.129 8.05 17.828 2.374 2.313 3.527 4.514 3.528 6.726.001 3.262-2.504 6.42-3.414 7.31a7.5 7.5 0 1 0 10.243 10.959c.825-.771 8.063-7.827 8.171-18.039.046-4.446-1.314-11.124-8.057-17.698M72.931 204.276a7.5 7.5 0 0 0 10.601.358c.825-.771 8.063-7.827 8.171-18.039.047-4.445-1.313-11.123-8.057-17.696-2.372-2.312-3.559-4.535-3.527-6.609.045-2.906 2.374-5.678 3.28-6.514a7.5 7.5 0 0 0-9.924-11.248c-.826.723-8.079 7.342-8.35 17.286-.12 4.436 1.179 11.129 8.051 17.827 2.373 2.313 3.526 4.513 3.527 6.725.001 3.262-2.504 6.42-3.414 7.31a7.5 7.5 0 0 0-.358 10.6m51.218-81.593a7.5 7.5 0 0 0 10.601.358c.825-.771 8.063-7.827 8.171-18.039.047-4.445-1.313-11.123-8.057-17.697-2.372-2.312-3.559-4.535-3.527-6.609.045-2.906 2.375-5.678 3.281-6.514a7.5 7.5 0 0 0-9.925-11.247c-.826.722-8.079 7.341-8.35 17.284-.12 4.436 1.178 11.129 8.05 17.828 2.374 2.313 3.527 4.514 3.528 6.726.001 3.262-2.504 6.42-3.414 7.31a7.5 7.5 0 0 0-.358 10.6M437.23 462.311h-19.47c2.065-3.86 3.295-8.185 3.456-12.729.601-16.919-12.9-30.876-29.778-30.876h-29.319a1.45 1.45 0 0 1-1.43-1.2L339.816 298.61l-.007-.046c8.545 3.733 18.804 3.413 27.441-1.831 14.043-8.527 18.532-26.891 10.006-40.935-11.422-18.813-30.338-32.147-51.897-36.582l-58.862-12.105-50.169-78.281c-11.779-18.383-38.591-18.201-50.2.056-17.688 21.322-74.046 94.01-77.47 157.609-.975 18.103 6.117 33.045 18.225 43.02H74.312c-13.444 0-24.587 10.933-24.839 24.371-.265 14.164 11.641 25.314 25.293 25.314h6.911v107.954c0 13.604 11.192 24.843 24.832 24.843 13.906 0 24.854-11.745 24.854-25.297V379.2h32.731c4.143 0 7.5-3.357 7.5-7.5s-3.357-7.5-7.5-7.5H74.766c-5.501 0-10.4-4.497-10.295-10.033.1-5.322 4.515-9.652 9.841-9.652h190.275c5.428 0 9.843 4.415 9.843 9.843v48.898c0 4.143 3.357 7.5 7.5 7.5s7.5-3.357 7.5-7.5v-44.267l15.98 93.432a29.7 29.7 0 0 0 3.152 9.891H289.43v-24.056c0-4.143-3.357-7.5-7.5-7.5s-7.5 3.357-7.5 7.5v25.031c0 7.733 6.291 14.024 14.024 14.024H437.23c5.501 0 10.4 4.497 10.295 10.033-.1 5.322-4.515 9.652-9.841 9.652H264.587c-5.428 0-9.843-4.415-9.843-9.843v-108.93c0-7.733-6.291-14.024-14.024-14.024h-41.626c-4.143 0-7.5 3.357-7.5 7.5s3.357 7.5 7.5 7.5h40.65v107.954c0 13.698 11.145 24.843 24.843 24.843h173.098c13.444 0 24.587-10.933 24.839-24.372.264-14.142-11.619-25.313-25.294-25.313m-320.868-83.112v107.5c0 5.433-4.394 10.297-9.861 10.297l-.172-.002c-5.322-.1-9.652-4.515-9.652-9.841V379.199zM250.25 269.188c-.039.01-.078.016-.117.027-21.235 6.011-47.051 12.269-69.04 14.896-4.217.515-8.02-2.993-7.659-7.349 1.836-22.179 13.533-49.27 23.147-68.297l21.55 33.626a46.66 46.66 0 0 0 30.943 22.279l10.401 2.139a764 764 0 0 1-9.225 2.679m-66.994-136.739c6.88-4.412 16.025-2.419 20.442 4.474l51.875 80.943a7.5 7.5 0 0 0 4.804 3.3l61.96 12.743c17.488 3.597 32.832 14.412 42.097 29.674 4.234 6.974 2.005 16.094-4.968 20.328-6.86 4.164-15.995 2.171-20.33-4.97a34.95 34.95 0 0 0-22.762-16.044l-64.277-13.219a31.65 31.65 0 0 1-21.054-15.223 10 10 0 0 0-.189-.312l-52.072-81.252c-4.392-6.85-2.394-16.041 4.474-20.442m-79.62 154.852c2.538-47.14 37.457-100.916 60.038-131.052a33.4 33.4 0 0 0 2.479 4.737l21.089 32.907c-11.239 21.061-23.998 49.205-27.875 74.294L103.589 290.9a47 47 0 0 1 .047-3.599m37.599 41.152c-17.044-3.145-28.917-11-34.333-22.706l52.653-21.44c3.215 9.465 12.736 15.965 23.316 14.699 20.875-2.495 44.145-7.899 64.356-13.412l9.008 28.223c-25.1 6.889-55.169 13.742-81.105 15.696-25.029.001-26.451.307-33.895-1.06m123.352 1.061h-8.938a819 819 0 0 0 27.396-7.86l3.663 21.418c-4.119-8.04-12.485-13.558-22.121-13.558m65.074 132.797c-5.063-1.939-8.706-6.529-9.393-11.949a7 7 0 0 0-.048-.322L297.072 314.7c-1.129-6.6-7.815-10.685-14.187-8.695a826 826 0 0 1-12.216 3.704l-9.003-28.207c23.364-6.869 23.767-7.971 30.03-8.364l16.117 3.315a31.46 31.46 0 0 1 17.146 24.229c.031.25 20.912 119.17 20.956 119.418a16.425 16.425 0 0 0 16.203 13.605h29.319c8.354 0 15.088 6.902 14.788 15.345-.21 5.916-4.123 11.131-9.846 13.261z"/></svg>