<svg xmlns="http://www.w3.org/2000/svg" width="512" height="512" data-name="Layer 3" viewBox="0 0 64 64"><path fill="#f9a832" d="M2 36h60v26H2z"/><path fill="#fec153" d="M31 59h31V36H5.178A26 26 0 0 0 31 59"/><path fill="#985d2c" d="M2 44h60v18H2z"/><path fill="#b56e35" d="M26.6 56.428a3.9 3.9 0 0 0-1.075-1.312l-6.756-5.255A4.56 4.56 0 0 1 17.6 44H7.441A26.02 26.02 0 0 0 27 58.689v-.548a3.85 3.85 0 0 0-.4-1.713M37 45.685v-.112L37.362 44h-8.091l-.949 1.458-1.681.84a18.4 18.4 0 0 1 2.518 3.785l.529 1.059 2.065.516a2.965 2.965 0 0 1 1.933 4.2A6.54 6.54 0 0 0 33 58.771V59h3.018a36 36 0 0 1 .345-4.616A64 64 0 0 0 37 45.685M62 44H45.42a41.6 41.6 0 0 1-2.644 6.684 7.35 7.35 0 0 0-.556 5.071l.629 2.516a5 5 0 0 1 .12.729H62z"/><path fill="#7c4923" d="M7 44h2v18H7zm6 0h2v18h-2zm6 4h2v14h-2zm36-4h2v18h-2zm-6 0h2v18h-2zm-6-.002h2V62h-2zm-12 2h2V62h-2zM25 48h2v14h-2zm12-2.002h2V62h-2z"/><path fill="#fcb888" d="M38 45.689a64 64 0 0 1-.645 8.836A35 35 0 0 0 37 59.5a2.5 2.5 0 0 0 2.5 2.5 2.5 2.5 0 0 0 2.5-2.5 4 4 0 0 0-.121-.985L41.249 56A8.4 8.4 0 0 1 41 53.972a8.35 8.35 0 0 1 .882-3.736 40.7 40.7 0 0 0 3.9-12.516L40 37zm-16.585-4.958-2.632 3.291A3.57 3.57 0 0 0 18 46.253a3.57 3.57 0 0 0 1.379 2.82l6.756 5.254a4.84 4.84 0 0 1 1.355 1.653 4.8 4.8 0 0 1 .51 2.16V60a2 2 0 0 0 2 2 2 2 0 0 0 2-2v-1.228a7.5 7.5 0 0 1 .792-3.357 1.96 1.96 0 0 0 .208-.879 1.965 1.965 0 0 0-1.49-1.908L29 52l-.735-1.47A17.4 17.4 0 0 0 25 46l2.632-1.316L32 37.974z"/><path fill="#cdd4e4" d="M35.571 34h-7.142l-4.645.73-2.544 1.526a2.56 2.56 0 0 0-1.24 2.19A2.553 2.553 0 0 0 22.554 41a4.75 4.75 0 0 1 3.868 1.99l1.729 2.422A6.18 6.18 0 0 0 33.18 48a6.18 6.18 0 0 0 5.528-3.416l2.1-4.191A4.33 4.33 0 0 1 44.675 38 2.325 2.325 0 0 0 47 35.675a2.325 2.325 0 0 0-1.589-2.2l-3.306-1.1z"/><path fill="#fcb888" d="m35.571 34-1.937 2.261A2.63 2.63 0 0 0 33 37.974 2.026 2.026 0 0 0 35.026 40a2.03 2.03 0 0 0 1.582-.76l6.5-8.124A4.07 4.07 0 0 0 44 28.571a4 4 0 0 0-.157-1.12L42 21a5.12 5.12 0 0 0-4.13-3.447l-1.89-.27a2.31 2.31 0 0 1-1.938-1.843h-4.084a2.31 2.31 0 0 1-1.938 1.843l-1.89.27A5.12 5.12 0 0 0 22 21l-1.843 6.451a4 4 0 0 0-.157 1.12 4.07 4.07 0 0 0 .893 2.545l6.5 8.124a2.03 2.03 0 0 0 1.582.76A2.026 2.026 0 0 0 31 37.974a2.63 2.63 0 0 0-.634-1.713L28.429 34z"/><path fill="#fec899" d="M43.843 27.451 42 21a5.12 5.12 0 0 0-4.13-3.447l-1.89-.27a2.3 2.3 0 0 1-1.624-1.064 3.86 3.86 0 0 1-3.317.652 2.3 2.3 0 0 1-1.019.412l-1.89.27A5.12 5.12 0 0 0 24 21l-1.843 6.451a4.07 4.07 0 0 0 .736 3.665l6.5 8.124a2 2 0 0 0 .584.485A2.02 2.02 0 0 0 31 37.974a2.63 2.63 0 0 0-.634-1.713L28.429 34h7.142l-1.937 2.261A2.63 2.63 0 0 0 33 37.974a2.026 2.026 0 0 0 3.608 1.266l6.5-8.124a4.07 4.07 0 0 0 .736-3.665z"/><path fill="#fcb888" d="m27.67 34.65-3.429-4a1 1 0 0 1-.227-.814l1-6 1.972.328-.923 5.54 3.124 3.646zm8.66 0-1.518-1.3 3.125-3.65-.923-5.54 1.972-.328 1 6a1 1 0 0 1-.227.814z"/><path fill="#dce0e8" d="m49.707 20.707-1.414-1.414L49.586 18a1.415 1.415 0 0 0 0-2L49 15.414a3.414 3.414 0 0 1 0-4.828l1.293-1.293 1.414 1.414L50.414 12a1.415 1.415 0 0 0 0 2l.586.586a3.414 3.414 0 0 1 0 4.828z"/><path fill="#dce0e8" d="m53.707 20.707-1.414-1.414L53.586 18a1.415 1.415 0 0 0 0-2L53 15.414a3.414 3.414 0 0 1 0-4.828l1.293-1.293 1.414 1.414L54.414 12a1.415 1.415 0 0 0 0 2l.586.586a3.414 3.414 0 0 1 0 4.828zm-44 0-1.414-1.414L9.586 18a1.415 1.415 0 0 0 0-2L9 15.414a3.414 3.414 0 0 1 0-4.828l1.293-1.293 1.414 1.414L10.414 12a1.415 1.415 0 0 0 0 2l.586.586a3.414 3.414 0 0 1 0 4.828z"/><path fill="#dce0e8" d="m13.707 20.707-1.414-1.414L13.586 18a1.415 1.415 0 0 0 0-2L13 15.414a3.414 3.414 0 0 1 0-4.828l1.293-1.293 1.414 1.414L14.414 12a1.415 1.415 0 0 0 0 2l.586.586a3.414 3.414 0 0 1 0 4.828z"/><path fill="#101012" d="M38 10.27V5a3 3 0 0 0-3-3h-5a2 2 0 0 0-2 2 2 2 0 0 0-2 2v4.27"/><path fill="#303030" d="M38 10.27V5a3 3 0 0 0-.054-.536A2.98 2.98 0 0 0 36 3.73h-5a2 2 0 0 0-2 2 2 2 0 0 0-2 2v2.54z"/><path fill="#fcb888" d="M36 8v4a4 4 0 0 1-4 4 4 4 0 0 1-4-4V8h2.764A3.62 3.62 0 0 0 34 6z"/><path fill="#fcb888" d="M28 10h-1a2 2 0 0 0-2 2 2 2 0 0 0 2 2h1.536M36 10h1a2 2 0 0 1 2 2 2 2 0 0 1-2 2h-1.536"/><path fill="#fcb888" d="M36 8v4a4 4 0 0 1-4 4 4 4 0 0 1-4-4V8h2.764A3.62 3.62 0 0 0 34 6z"/><path fill="#fec899" d="M32.5 15.95A3.99 3.99 0 0 0 36 12V8l-2-2a3.62 3.62 0 0 1-3.236 2H29v4a3.99 3.99 0 0 0 3.5 3.95"/><path fill="#ecf2f7" d="m33.4 35 .858-1h-4.51l.858 1 .523.61A3.64 3.64 0 0 1 32 37.974a3.64 3.64 0 0 1 .875-2.365z"/><path fill="#ecf2f7" d="m45.411 33.47-2.294-.764-5.727 7.158a3.027 3.027 0 0 1-5.39-1.89 3.026 3.026 0 0 1-5.389 1.89l-3.693-4.615-1.678 1.007a2 2 0 0 0-.24.19A2.553 2.553 0 0 0 23.554 39a4.75 4.75 0 0 1 3.868 1.99l1.729 2.422a6.18 6.18 0 0 0 10.557-.828l2.1-4.191A4.33 4.33 0 0 1 45.675 36a2.3 2.3 0 0 0 1.318-.412 2.32 2.32 0 0 0-1.582-2.118"/><path fill="#fec899" d="m39 30-3.43 4h-7.14L25 30l1-6h12zm6.6 8.854a3.3 3.3 0 0 1-.92.146 3.31 3.31 0 0 0-2.98 1.84l-2.1 4.191a7 7 0 0 1-.38.644v.014a64 64 0 0 1-.646 8.836 35 35 0 0 0-.354 4.975 2.494 2.494 0 0 0 1.89 2.416A2.494 2.494 0 0 0 42 59.5a4 4 0 0 0-.121-.985L41.249 56a8.36 8.36 0 0 1 .633-5.761A40.7 40.7 0 0 0 45.6 38.854M22.554 42a3.5 3.5 0 0 1-1.02-.167l-1.751 2.189a3.57 3.57 0 0 0 .6 5.051l6.756 5.254A4.83 4.83 0 0 1 29 58.14V60a2 2 0 0 0 1.5 1.929A2 2 0 0 0 32 60v-1.228a7.5 7.5 0 0 1 .792-3.357 1.965 1.965 0 0 0-1.282-2.787L29 52l-.735-1.47A17.4 17.4 0 0 0 25 46l1.726-.863-1.118-1.566A3.76 3.76 0 0 0 22.554 42"/></svg>