<svg xmlns="http://www.w3.org/2000/svg" width="512" height="512" data-name="Layer 3" viewBox="0 0 64 64"><path d="M28 59.992v-1.86a4.83 4.83 0 0 0-1.865-3.813l-6.756-5.255a3.57 3.57 0 0 1-.6-5.05l.017-.022H2v18h28a2 2 0 0 1-2-2" style="fill:#f0afae"/><path d="M37 59.492a35 35 0 0 1 .354-4.975A64 64 0 0 0 38 45.681l.389-1.689H28.077l-.445.684L25 45.992a17.4 17.4 0 0 1 3.265 4.53l.735 1.47 2.51.627a1.966 1.966 0 0 1 1.282 2.788A7.5 7.5 0 0 0 32 58.764v1.228a2 2 0 0 1-2 2h9.5a2.5 2.5 0 0 1-2.5-2.5" style="fill:#f0afae"/><path d="M44.378 43.992a41 41 0 0 1-2.5 6.236 8.36 8.36 0 0 0-.633 5.761l.63 2.518a4 4 0 0 1 .121.985 2.5 2.5 0 0 1-2.5 2.5H62v-18Zm1.033-10.53-3.306-1.1-5.5 6.871A2.026 2.026 0 0 1 33 37.966a2.63 2.63 0 0 1 .634-1.713l1.937-2.261h-7.142l1.937 2.261A2.63 2.63 0 0 1 31 37.966a2.026 2.026 0 0 1-3.608 1.265l-3.608-4.509-2.544 1.526a2.554 2.554 0 0 0 1.314 4.744 4.75 4.75 0 0 1 3.868 1.99l1.729 2.418a6.18 6.18 0 0 0 10.557-.828l2.092-4.187a4.33 4.33 0 0 1 3.872-2.393 2.325 2.325 0 0 0 .736-4.53Z" style="fill:#f0afae"/><path d="M62 35H47.922a3.31 3.31 0 0 0-2.2-2.479l-1.944-.647.106-.133a5.08 5.08 0 0 0 .916-4.564l-1.857-6.493a6.09 6.09 0 0 0-4.937-4.122l-1.89-.269a1.3 1.3 0 0 1-.86-.534 5 5 0 0 0 .718-.759H37a2.989 2.989 0 0 0 2-5.22V5a4 4 0 0 0-4-4h-5a3 3 0 0 0-2.871 2.129A3 3 0 0 0 25 6v3.78A2.989 2.989 0 0 0 27 15h1.026a5 5 0 0 0 .713.759 1.3 1.3 0 0 1-.86.534l-1.89.269a6.1 6.1 0 0 0-4.951 4.164l-1.838 6.45a5.07 5.07 0 0 0 .915 4.565l2.177 2.72-.9.539H2a1 1 0 0 0-1 1v26a1 1 0 0 0 1 1h60a1 1 0 0 0 1-1V36a1 1 0 0 0-1-1m-1 8H45.709a42 42 0 0 0 .991-4.706A3.34 3.34 0 0 0 47.721 37H61Zm-18 8v10h-.351A3.5 3.5 0 0 0 43 59.5a5 5 0 0 0-.151-1.229l-.629-2.516a7.35 7.35 0 0 1 .556-5.071A42 42 0 0 0 45.105 45H49v16h-4V51Zm-30-6v16H9V45Zm2 0h2.191a4.48 4.48 0 0 0 1.574 4.861l.235.183V61h-4Zm6 6.6 4.521 3.516A3.83 3.83 0 0 1 27 58.141V60a3 3 0 0 0 .184 1H21Zm8 8.4v-1.859a5.82 5.82 0 0 0-2.251-4.6l-6.756-5.255A2.56 2.56 0 0 1 19 46.253a2.58 2.58 0 0 1 .564-1.607l2.2-2.743a3.5 3.5 0 0 0 .795.1 3.76 3.76 0 0 1 3.054 1.571l.53.742-1.585.792a1 1 0 0 0-.26 1.6 16.4 16.4 0 0 1 3.077 4.271l.735 1.469a1 1 0 0 0 .652.523l2.511.628a.965.965 0 0 1 .629 1.37 8.6 8.6 0 0 0-.9 3.8V60a1 1 0 0 1-2 0Zm2-8.53-1.312-.328-.529-1.059a18.4 18.4 0 0 0-2.518-3.783l.674-.337.023.032A7.18 7.18 0 0 0 31 48.647ZM33 60v-1.229a6.54 6.54 0 0 1 .686-2.908A2.96 2.96 0 0 0 33 52.319v-3.33c.061 0 .12.011.181.011a7.17 7.17 0 0 0 3.767-1.061 64 64 0 0 1-.585 6.445A36 36 0 0 0 36 59.5a3.5 3.5 0 0 0 .351 1.5h-3.535A3 3 0 0 0 33 60m5-.5a34 34 0 0 1 .344-4.833 66 66 0 0 0 .648-8.642 7.4 7.4 0 0 0 .611-.994L41.7 40.84a3.3 3.3 0 0 1 2.861-1.832 39.6 39.6 0 0 1-3.572 10.781 9.36 9.36 0 0 0-.708 6.451l.629 2.516a3 3 0 0 1 .09.744 1.5 1.5 0 0 1-3 0M51 45h4v16h-4ZM29 12V9h1.764a4.6 4.6 0 0 0 3.368-1.454l.868.868V12a3 3 0 0 1-6 0m8 1h-.1a5 5 0 0 0 .1-1v-1a1 1 0 0 1 0 2M27 6a1 1 0 0 1 1-1 1 1 0 0 0 1-1 1 1 0 0 1 1-1h5a2 2 0 0 1 2 2v3a1 1 0 0 0-.293-.707l-2-2a1 1 0 0 0-1.6.26A2.6 2.6 0 0 1 30.764 7H28a1 1 0 0 0-1 1Zm0 7a1 1 0 0 1 0-2v1a5 5 0 0 0 .1 1Zm-6 15.57a3 3 0 0 1 .119-.844l1.829-6.41a4.1 4.1 0 0 1 3.324-2.773l1.89-.27a3.3 3.3 0 0 0 2.331-1.53 4.55 4.55 0 0 0 3.014 0 3.3 3.3 0 0 0 2.331 1.53l1.89.27a4.08 4.08 0 0 1 3.31 2.731l1.844 6.453a3.07 3.07 0 0 1-.556 2.764l-6.5 8.123a1.026 1.026 0 0 1-1.826-.64 1.64 1.64 0 0 1 .393-1.063l5.366-6.261a1 1 0 0 0 .227-.814l-1-6-1.972.328.923 5.54L35.112 33h-6.224l-2.825-3.3.923-5.54-1.972-.328-1 6a1 1 0 0 0 .227.814l5.366 6.262A1.63 1.63 0 0 1 30 37.974a1.025 1.025 0 0 1-1.827.64l-6.5-8.123A3.08 3.08 0 0 1 21 28.57m2.549 7.467 3.062 3.827A3.026 3.026 0 0 0 32 37.974a3.63 3.63 0 0 0-.875-2.364L30.6 35h2.8l-.522.609A3.64 3.64 0 0 0 32 37.974a3.027 3.027 0 0 0 5.39 1.89l5.062-6.327 2.642.881A1.325 1.325 0 0 1 44.676 37a5.3 5.3 0 0 0-4.767 2.945l-2.1 4.192a5.18 5.18 0 0 1-8.848.694l-1.73-2.422A5.76 5.76 0 0 0 22.554 40a1.554 1.554 0 0 1-.8-2.887ZM19.316 37A3.51 3.51 0 0 0 20 40.9L18.319 43H3v-6ZM3 45h4v16H3Zm54 16V45h4v16Z" style="fill:#ae414c"/><path d="m51.707 10.707-1.414-1.414L49 10.586a3.414 3.414 0 0 0 0 4.828l.586.586a1.415 1.415 0 0 1 0 2l-1.293 1.293 1.414 1.414L51 19.414a3.414 3.414 0 0 0 0-4.828L50.414 14a1.415 1.415 0 0 1 0-2Z" style="fill:#ae414c"/><path d="m55.707 10.707-1.414-1.414L53 10.586a3.414 3.414 0 0 0 0 4.828l.586.586a1.415 1.415 0 0 1 0 2l-1.293 1.293 1.414 1.414L55 19.414a3.414 3.414 0 0 0 0-4.828L54.414 14a1.415 1.415 0 0 1 0-2Zm-44 0-1.414-1.414L9 10.586a3.414 3.414 0 0 0 0 4.828l.586.586a1.415 1.415 0 0 1 0 2l-1.293 1.293 1.414 1.414L11 19.414a3.414 3.414 0 0 0 0-4.828L10.414 14a1.415 1.415 0 0 1 0-2Z" style="fill:#ae414c"/><path d="m15.707 10.707-1.414-1.414L13 10.586a3.414 3.414 0 0 0 0 4.828l.586.586a1.415 1.415 0 0 1 0 2l-1.293 1.293 1.414 1.414L15 19.414a3.414 3.414 0 0 0 0-4.828L14.414 14a1.415 1.415 0 0 1 0-2Z" style="fill:#ae414c"/></svg>