<svg xmlns="http://www.w3.org/2000/svg" width="512" height="512" viewBox="0 0 511.996 511.996"><path fill="#965a44" d="M89.537 368.449v118.454c0 9.467 7.586 17.163 17.011 17.34 9.719.182 17.674-8.073 17.674-17.794v-118z"/><path fill="#7c4b37" d="M109.537 486.903V368.449h-20v118.454c0 9.467 7.586 17.163 17.011 17.34 3.805.071 7.331-1.164 10.223-3.26-4.377-3.149-7.234-8.277-7.234-14.08"/><circle cx="264.089" cy="61.89" r="54.64" fill="#fed2a4"/><path fill="#ffbd86" d="M246.846 61.89c0-23.608 14.974-43.718 35.941-51.354a54.5 54.5 0 0 0-18.698-3.286c-30.177 0-54.64 24.463-54.64 54.64s24.463 54.64 54.64 54.64a54.5 54.5 0 0 0 18.698-3.286c-20.967-7.637-35.941-27.746-35.941-51.354"/><path fill="#fed2a4" d="M166.429 274.772c2.651-27.706 18.914-61.416 29.873-81.453l5.107-2.934-28.873-57.295c-17.076 20.538-72.709 91.896-76.029 153.558-.281 5.208.198 10.264 1.454 15.045z"/><path fill="#ffbd86" d="M132.156 288.247c-.033-.624-.015-.979-.015-.979-4.83-58.442 33.875-110.541 51.888-131.371l-11.494-22.808c-17.076 20.538-72.709 91.896-76.029 153.558-.281 5.208.198 10.264 1.454 15.045z"/><path fill="#fed2a4" d="M391.797 425.955h-29.32a8.95 8.95 0 0 1-8.816-7.403l-20.903-119.063a38.94 38.94 0 0 0-22.158-30.446l-17.962-3.694a39.2 39.2 0 0 0-10.727 1.899 803 803 0 0 1-31.165 9.435l14.748 42.187a842 842 0 0 0 19.981-5.956 3.554 3.554 0 0 1 4.562 2.8l23.148 135.34c1.126 8.893 7.398 15.996 15.592 18.507h69.177c8.98-2.713 15.778-10.726 16.124-20.495.453-12.686-9.697-23.111-22.281-23.111"/><path fill="#ffbd86" d="M335.408 434.107 308.36 300.972c-1.602-7.884-9.51-12.793-17.286-10.731l-31.394 8.325c-.389.131-.763.25-1.15.379l6.966 19.925a842 842 0 0 0 19.981-5.956 3.554 3.554 0 0 1 4.562 2.8l23.148 135.34c1.126 8.893 7.398 15.996 15.592 18.507h31.66c-21.356-12.343-25.031-35.454-25.031-35.454"/><path fill="#ab6b51" d="M437.59 469.56H288.814a6.524 6.524 0 0 1-6.524-6.524v-108.93c0-9.578-7.765-17.343-17.343-17.343H74.671c-9.467 0-17.163 7.586-17.34 17.011-.182 9.719 8.073 17.674 17.794 17.674H241.08a6.524 6.524 0 0 1 6.524 6.524v108.929c0 9.578 7.765 17.343 17.343 17.343h173.098c9.467 0 17.163-7.586 17.34-17.011.181-9.718-8.074-17.673-17.795-17.673"/><path fill="#965a44" d="M78.665 353.775c.177-9.425 7.872-17.011 17.34-17.011H74.672c-9.468 0-17.163 7.586-17.34 17.011-.182 9.719 8.073 17.674 17.794 17.674h21.333c-9.721 0-17.976-7.955-17.794-17.674m190.272 133.128V377.974a6.524 6.524 0 0 0-6.524-6.524H241.08a6.524 6.524 0 0 1 6.524 6.524v108.929c0 9.578 7.764 17.343 17.343 17.343h21.333c-9.578 0-17.343-7.765-17.343-17.343"/><path fill="#ff8188" d="m266.106 318.696-13.57-42.515c-23.388 6.621-48.645 12.552-70.194 15.127-8.991 1.074-16.771-6.391-16.023-15.415q.109-1.316.26-2.649l-68.734 27.99c4.623 18.392 20.821 32.734 51.049 35.529h26.878c9.471-.701 19.87-2.064 31.27-4.086 20.221-3.586 40.894-8.794 59.064-13.981"/><path fill="#ff656f" d="M259.681 298.566c-130.394 43.792-127.54-11.297-127.54-11.297l-34.297 13.966c4.623 18.392 20.821 32.734 51.049 35.529h26.878c9.471-.701 19.87-2.064 31.271-4.086 20.222-3.587 40.895-8.795 59.065-13.982z"/><path fill="#fed2a4" d="M333.084 282.584a27.42 27.42 0 0 0-17.862-12.59l-64.278-13.22a39.04 39.04 0 0 1-26.046-18.833l-52.072-81.252c-6.645-10.368-3.626-24.16 6.742-30.805 10.368-6.646 24.16-3.625 30.805 6.742l51.875 80.943 61.959 12.743c19.523 4.016 36.653 16.09 46.997 33.128 6.391 10.527 3.038 24.24-7.488 30.632-10.513 6.385-24.233 3.051-30.632-7.488"/><path fill="#ffbd86" d="M346.76 262.134a27.42 27.42 0 0 0-17.862-12.59l-64.278-13.22a39.04 39.04 0 0 1-26.046-18.833l-52.072-81.252a22.17 22.17 0 0 1-3.511-12.129 22.3 22.3 0 0 0-3.423 1.775c-10.368 6.645-13.386 20.437-6.742 30.805l52.073 81.252a39.04 39.04 0 0 0 26.046 18.833l64.278 13.22a27.43 27.43 0 0 1 17.862 12.59c6.398 10.539 20.118 13.872 30.633 7.488 6.869-4.171 10.68-11.459 10.726-18.945-10.008 4.208-21.869.583-27.684-8.994"/><path d="M201.59 62.14c0 34.264 27.876 62.14 62.14 62.14s62.14-27.876 62.14-62.14S297.993 0 263.729 0 201.59 27.876 201.59 62.14m109.279 0c0 25.993-21.146 47.14-47.14 47.14s-47.14-21.146-47.14-47.14S237.736 15 263.729 15s47.14 21.146 47.14 47.14m52.885 136.616a7.5 7.5 0 0 0 10.601.358c.825-.771 8.063-7.827 8.171-18.039.047-4.445-1.313-11.123-8.057-17.696-2.372-2.312-3.559-4.535-3.527-6.609.045-2.906 2.375-5.678 3.281-6.514a7.5 7.5 0 0 0-9.925-11.247c-.826.722-8.079 7.341-8.35 17.284-.12 4.436 1.178 11.129 8.051 17.828 2.373 2.313 3.526 4.513 3.527 6.725.001 3.262-2.504 6.42-3.414 7.31a7.5 7.5 0 0 0-.358 10.6m61.934-35.377c-2.372-2.312-3.559-4.535-3.527-6.609.045-2.906 2.375-5.678 3.281-6.514a7.5 7.5 0 0 0-9.925-11.247c-.826.722-8.079 7.341-8.35 17.284-.12 4.436 1.178 11.129 8.051 17.828 2.373 2.313 3.526 4.513 3.527 6.725.001 3.262-2.504 6.42-3.414 7.31a7.5 7.5 0 1 0 10.243 10.959c.825-.771 8.063-7.827 8.171-18.039.046-4.446-1.314-11.124-8.057-17.697M414.973 277.07a7.5 7.5 0 0 0 10.601.358c.825-.771 8.063-7.827 8.171-18.039.047-4.445-1.313-11.123-8.057-17.696-2.372-2.312-3.559-4.535-3.527-6.609.045-2.907 2.375-5.68 3.281-6.515a7.5 7.5 0 0 0-9.925-11.247c-.826.723-8.079 7.342-8.35 17.286-.12 4.436 1.179 11.129 8.051 17.827 2.373 2.313 3.526 4.513 3.527 6.725.001 3.262-2.504 6.42-3.414 7.31a7.5 7.5 0 0 0-.358 10.6M83.646 87.305c-2.372-2.312-3.559-4.535-3.527-6.609.045-2.906 2.375-5.678 3.281-6.514a7.5 7.5 0 0 0-9.925-11.247c-.826.722-8.079 7.341-8.35 17.284-.12 4.436 1.178 11.129 8.05 17.828 2.374 2.313 3.527 4.514 3.528 6.726.001 3.262-2.504 6.42-3.414 7.31a7.5 7.5 0 1 0 10.243 10.959c.825-.771 8.063-7.827 8.171-18.039.046-4.446-1.314-11.124-8.057-17.698M72.931 204.276a7.5 7.5 0 0 0 10.601.358c.825-.771 8.063-7.827 8.171-18.039.047-4.445-1.313-11.123-8.057-17.696-2.372-2.312-3.559-4.535-3.527-6.609.045-2.906 2.374-5.678 3.28-6.514a7.5 7.5 0 0 0-9.924-11.248c-.826.723-8.079 7.342-8.35 17.286-.12 4.436 1.179 11.129 8.051 17.827 2.373 2.313 3.526 4.513 3.527 6.725.001 3.262-2.504 6.42-3.414 7.31a7.5 7.5 0 0 0-.358 10.6m51.218-81.593a7.5 7.5 0 0 0 10.601.358c.825-.771 8.063-7.827 8.171-18.039.047-4.445-1.313-11.123-8.057-17.697-2.372-2.312-3.559-4.535-3.527-6.609.045-2.906 2.375-5.678 3.281-6.514a7.5 7.5 0 0 0-9.925-11.247c-.826.722-8.079 7.341-8.35 17.284-.12 4.436 1.178 11.129 8.05 17.828 2.374 2.313 3.527 4.514 3.528 6.726.001 3.262-2.504 6.42-3.414 7.31a7.5 7.5 0 0 0-.358 10.6M437.23 462.311h-19.47c2.065-3.86 3.295-8.185 3.456-12.729.601-16.919-12.9-30.876-29.778-30.876h-29.319a1.45 1.45 0 0 1-1.43-1.2L339.816 298.61l-.007-.046c8.545 3.733 18.804 3.413 27.441-1.831 14.043-8.527 18.532-26.891 10.006-40.935-11.422-18.813-30.338-32.147-51.897-36.582l-58.862-12.105-50.169-78.281c-11.779-18.383-38.591-18.201-50.2.056-17.688 21.322-74.046 94.01-77.47 157.609-.975 18.103 6.117 33.045 18.225 43.02H74.312c-13.444 0-24.587 10.933-24.839 24.371-.265 14.164 11.641 25.314 25.293 25.314h6.911v107.954c0 13.604 11.192 24.843 24.832 24.843 13.906 0 24.854-11.745 24.854-25.297V379.2h32.731c4.143 0 7.5-3.357 7.5-7.5s-3.357-7.5-7.5-7.5H74.766c-5.501 0-10.4-4.497-10.295-10.033.1-5.322 4.515-9.652 9.841-9.652h190.275c5.428 0 9.843 4.415 9.843 9.843v48.898c0 4.143 3.357 7.5 7.5 7.5s7.5-3.357 7.5-7.5v-44.267l15.98 93.432a29.7 29.7 0 0 0 3.152 9.891H289.43v-24.056c0-4.143-3.357-7.5-7.5-7.5s-7.5 3.357-7.5 7.5v25.031c0 7.733 6.291 14.024 14.024 14.024H437.23c5.501 0 10.4 4.497 10.295 10.033-.1 5.322-4.515 9.652-9.841 9.652H264.587c-5.428 0-9.843-4.415-9.843-9.843v-108.93c0-7.733-6.291-14.024-14.024-14.024h-41.626c-4.143 0-7.5 3.357-7.5 7.5s3.357 7.5 7.5 7.5h40.65v107.954c0 13.698 11.145 24.843 24.843 24.843h173.098c13.444 0 24.587-10.933 24.839-24.372.264-14.142-11.619-25.313-25.294-25.313m-320.868-83.112v107.5c0 5.433-4.394 10.297-9.861 10.297l-.172-.002c-5.322-.1-9.652-4.515-9.652-9.841V379.199zM250.25 269.188c-.039.01-.078.016-.117.027-21.235 6.011-47.051 12.269-69.04 14.896-4.217.515-8.02-2.993-7.659-7.349 1.836-22.179 13.533-49.27 23.147-68.297l21.55 33.626a46.66 46.66 0 0 0 30.943 22.279l10.401 2.139a764 764 0 0 1-9.225 2.679m-66.994-136.739c6.88-4.412 16.025-2.419 20.442 4.474l51.875 80.943a7.5 7.5 0 0 0 4.804 3.3l61.96 12.743c17.488 3.597 32.832 14.412 42.097 29.674 4.234 6.974 2.005 16.094-4.968 20.328-6.86 4.164-15.995 2.171-20.33-4.97a34.95 34.95 0 0 0-22.762-16.044l-64.277-13.219a31.65 31.65 0 0 1-21.054-15.223 10 10 0 0 0-.189-.312l-52.072-81.252c-4.392-6.85-2.394-16.041 4.474-20.442m-79.62 154.852c2.538-47.14 37.457-100.916 60.038-131.052a33.4 33.4 0 0 0 2.479 4.737l21.089 32.907c-11.239 21.061-23.998 49.205-27.875 74.294L103.589 290.9a47 47 0 0 1 .047-3.599m37.599 41.152c-17.044-3.145-28.917-11-34.333-22.706l52.653-21.44c3.215 9.465 12.736 15.965 23.316 14.699 20.875-2.495 44.145-7.899 64.356-13.412l9.008 28.223c-25.1 6.889-55.169 13.742-81.105 15.696-25.029.001-26.451.307-33.895-1.06m123.352 1.061h-8.938a819 819 0 0 0 27.396-7.86l3.663 21.418c-4.119-8.04-12.485-13.558-22.121-13.558m65.074 132.797c-5.063-1.939-8.706-6.529-9.393-11.949a7 7 0 0 0-.048-.322L297.072 314.7c-1.129-6.6-7.815-10.685-14.187-8.695a826 826 0 0 1-12.216 3.704l-9.003-28.207c23.364-6.869 23.767-7.971 30.03-8.364l16.117 3.315a31.46 31.46 0 0 1 17.146 24.229c.031.25 20.912 119.17 20.956 119.418a16.425 16.425 0 0 0 16.203 13.605h29.319c8.354 0 15.088 6.902 14.788 15.345-.21 5.916-4.123 11.131-9.846 13.261z"/></svg>