<svg xmlns="http://www.w3.org/2000/svg" xml:space="preserve" width="512" height="512" viewBox="0 0 512 512"><path d="M63.041 219.156c-5.084 0-10.044-2.586-12.86-7.258-4.277-7.095-1.993-16.313 5.102-20.591L248.256 74.972c7.094-4.277 16.313-1.993 20.59 5.102s1.993 16.313-5.102 20.591L70.771 217a14.94 14.94 0 0 1-7.73 2.156" style="fill:#7a8c98"/><path d="M448.959 219.156c-2.637 0-5.307-.695-7.73-2.156L248.255 100.664c-7.095-4.277-9.379-13.496-5.102-20.591s13.497-9.38 20.59-5.102l192.974 116.335c7.095 4.277 9.379 13.496 5.102 20.591-2.816 4.673-7.776 7.259-12.86 7.259" style="fill:#7a8c98"/><path d="m151.91 133.051-68.33 41.19m138.44-83.45-40.46 24.39m55.94 1.303-95.81 57.76m228.62 0-95.81-57.76m153.92 57.76-138.44-83.45" style="fill:none;stroke:#000;stroke-width:15;stroke-linecap:round;stroke-linejoin:round;stroke-miterlimit:10"/><path d="m470.49 224.324 6.98 2.61c5.61 2.08 6.55 9.61 1.64 13.02l-16.14 11.2c-4.7 3.26-4.08 10.39 1.1 12.8l35.59 16.532a8.36 8.36 0 0 1 4.84 7.585v153.083c0 9.466-7.674 17.14-17.14 17.14H24.64c-7.932 0-14.605-5.387-16.56-12.703a5.18 5.18 0 0 1 2.829-6.021l31.261-14.517c5.19-2.41 5.81-9.54 1.11-12.8l-16.14-11.2c-4.92-3.41-3.97-10.93 1.63-13.02l6.98-2.6c6.37-2.37 6.45-11.35.13-13.83l-23.075-9.066a8.36 8.36 0 0 1-5.305-7.785v-163.37c0-9.466 7.674-17.14 17.14-17.14h462.72c9.466 0 17.14 7.674 17.14 17.14a8.365 8.365 0 0 1-5.305 7.785l-28.825 11.325c-6.32 2.492-6.24 11.462.12 13.832" style="fill:#ffe177"/><path d="M58.62 458.294H24.64c-7.93 0-14.6-5.39-16.56-12.7-.65-2.42.55-4.96 2.83-6.02l30.57-14.2v15.78c0 9.47 7.67 17.14 17.14 17.14m-33.98-284.05h33.98c-9.47 0-17.14 7.68-17.14 17.14v219.62l-14.34-9.95c-4.92-3.41-3.97-10.93 1.63-13.02l6.98-2.6c6.37-2.37 6.45-11.35.13-13.83l-23.07-9.06a8.36 8.36 0 0 1-5.31-7.79v-163.37c0-9.46 7.67-17.14 17.14-17.14" style="fill:#ffd15b"/><path d="M100.24 458.291h-75.6c-7.93 0-14.6-5.38-16.56-12.7-.65-2.42.55-4.96 2.83-6.02l31.26-14.52c5.19-2.41 5.81-9.54 1.11-12.8l-16.14-11.2c-4.92-3.41-3.97-10.93 1.63-13.02l6.98-2.6c6.37-2.37 6.45-11.35.13-13.83l-23.07-9.06a8.36 8.36 0 0 1-5.31-7.79v-163.37c0-9.46 7.67-17.14 17.14-17.14h462.72c9.47 0 17.14 7.68 17.14 17.14 0 1.72-.52 3.35-1.45 4.71a8.36 8.36 0 0 1-3.86 3.08l-28.82 11.32c-6.32 2.49-6.24 11.46.12 13.83l6.98 2.61c5.61 2.08 6.55 9.61 1.64 13.02l-16.14 11.2c-4.7 3.26-4.08 10.39 1.1 12.8l35.59 16.53a8.38 8.38 0 0 1 4.84 7.59v10.78m0 35v107.3c0 9.47-7.67 17.14-17.14 17.14H135.24" style="fill:none;stroke:#000;stroke-width:15;stroke-linecap:round;stroke-linejoin:round;stroke-miterlimit:10"/><path d="m131.454 359.256 32.224-84.608c.659-1.61 2.937-1.612 3.599-.004l31.931 84.612m-57.704-21.072h47.817m202.31 21.072 32.224-84.608c.658-1.61 2.937-1.612 3.599-.004l31.931 84.612m-57.705-21.072h47.818m-142.049 20.912v-85.657l57.912 83.86c1.074 1.551 2.224.791 2.224-1.095l-.802-82.925m-148.204.16v59.052c0 10.056 4.989 16.827 13.463 22.241 4.127 2.637 9.34 4.515 15.818 4.524 5.61.008 10.299-1.291 14.176-3.244 9.876-4.974 16.173-12.526 16.173-23.584v-58.99m-172.702 8.823s-15.399-12.944-33.558-7.474c-14.589 4.395-18.901 20.29-10.792 28.682 6.59 6.82 15.686 8.713 28.815 13.555 31.604 11.657 17.99 42.232-7.452 42.232-12.741 0-23.433-5.579-29.905-12.721" style="fill:none;stroke:#000;stroke-width:15;stroke-linecap:round;stroke-linejoin:round;stroke-miterlimit:10"/><circle cx="256" cy="87.818" r="34.11" style="fill:#8abbd5"/><path d="M267.68 119.878a34 34 0 0 1-11.68 2.05c-18.83 0-34.11-15.27-34.11-34.11s15.28-34.11 34.11-34.11c4.1 0 8.04.72 11.68 2.05-13.09 4.77-22.43 17.32-22.43 32.06s9.34 27.29 22.43 32.06" style="fill:#6cabca"/><circle cx="256" cy="87.818" r="34.11" style="fill:none;stroke:#000;stroke-width:15;stroke-linecap:round;stroke-linejoin:round;stroke-miterlimit:10"/><path d="M504.5 392.597H367.584M504.5 422.526h-78.992M7.5 236.313h136.916M7.5 206.384h78.992" style="fill:none;stroke:#000;stroke-width:15;stroke-linecap:round;stroke-linejoin:round;stroke-miterlimit:10"/></svg>