<svg xmlns="http://www.w3.org/2000/svg" width="512" height="512" data-name="Layer 3" viewBox="0 0 64 64"><path fill="#985d2c" d="M8 2.015h48v60H8z"/><path fill="#b56e35" d="M12 10.016a48 48 0 0 0 44 47.821V2.015H12z"/><path fill="#bcc5d8" d="M12 26.015h10v12H12z"/><path fill="#7c4923" d="M13 2.015h2v24h-2zm0 36h2v24h-2zm6-36h2v24h-2zm0 36h2v24h-2zm6-36h2v60h-2zm6 0h2v4h-2zm0 56h2v4h-2zm6 0h2v4h-2zm6 0h2v4h-2zm6 0h2v4h-2zm-12-56h2v4h-2zm6 0h2v4h-2zm6 0h2v4h-2z"/><path fill="#cdd4e4" d="M21.026 38.015H22v-12h-7.261a47.8 47.8 0 0 0 6.287 12"/><path fill="#43b6e5" d="M12 26.015h10v4H12z"/><path fill="#66c3e9" d="M14.739 26.015a47 47 0 0 0 1.649 4H22v-4z"/><path fill="#43b6e5" d="M26 6.015h26v52H26"/><path fill="#66c3e9" d="M26 43.877a47.9 47.9 0 0 0 26 13.45V6.015H26z"/><path fill="#434343" d="M32 39.015h-6v-2h5v-2h2v3a1 1 0 0 1-1 1m1-10h-2v-2h-5v-2h6a1 1 0 0 1 1 1z"/><path fill="#252525" d="M30 29.015h4v6h-4z"/><path fill="#fff" d="m33.447 24.91-.894-1.789A2.6 2.6 0 0 0 34 20.78v-.35a2.44 2.44 0 0 0-.707-1.708A4.38 4.38 0 0 1 32 15.6v-.35a4.59 4.59 0 0 1 2.553-4.13l.894 1.789A2.6 2.6 0 0 0 34 15.251v.35a2.43 2.43 0 0 0 .707 1.707A4.4 4.4 0 0 1 36 20.43v.35a4.59 4.59 0 0 1-2.553 4.13m5-2-.894-1.789A2.6 2.6 0 0 0 39 18.78v-.35a2.44 2.44 0 0 0-.707-1.708A4.38 4.38 0 0 1 37 13.6v-.35a4.59 4.59 0 0 1 2.553-4.13l.894 1.789A2.6 2.6 0 0 0 39 13.251v.35a2.43 2.43 0 0 0 .707 1.707A4.4 4.4 0 0 1 41 18.43v.35a4.59 4.59 0 0 1-2.553 4.13m5 2-.894-1.789A2.6 2.6 0 0 0 44 20.78v-.35a2.44 2.44 0 0 0-.707-1.708A4.38 4.38 0 0 1 42 15.6v-.35a4.59 4.59 0 0 1 2.553-4.13l.894 1.789A2.6 2.6 0 0 0 44 15.251v.35a2.43 2.43 0 0 0 .707 1.707A4.4 4.4 0 0 1 46 20.43v.35a4.59 4.59 0 0 1-2.553 4.13"/><path fill="#bcc5d8" d="M26 42.015h26v4H26z"/><path fill="#cdd4e4" d="M26 46.015h26v12H26zm0-2.138a47 47 0 0 0 2.285 2.138H52v-4H26z"/><path fill="#dce0e8" d="M52 57.327V46.015H28.285A47.83 47.83 0 0 0 52 57.327"/><path d="M56 1H8a1 1 0 0 0-1 1v60a1 1 0 0 0 1 1h48a1 1 0 0 0 1-1V2a1 1 0 0 0-1-1M15 25V3h4v22zm6 2v2h-8v-2zm0 4v6h-8v-6zm-2 8v22h-4V39zm2 0h1a1 1 0 0 0 1-1V26a1 1 0 0 0-1-1h-1V3h4v58h-4zM39 5V3h4v2zm-2 0h-4V3h4zm-6 0h-4V3h4zm0 29v-4h2v4zm0-6h-1a1 1 0 0 0-1 1v6a1 1 0 0 0 1 1h1v1h-4V27h4zm-4 31h4v2h-4zm6 0h4v2h-4zm6 0h4v2h-4zm6 0h4v2h-4zm-18-2V47h24v10zm24-12H27v-2h24zm-24-4v-2h5a1 1 0 0 0 1-1v-2h1a1 1 0 0 0 1-1v-6a1 1 0 0 0-1-1h-1v-2a1 1 0 0 0-1-1h-5V7h24v34zM45 5V3h4v2zM9 3h4v22h-1a1 1 0 0 0-1 1v12a1 1 0 0 0 1 1h1v22H9zm46 58h-4v-2h1a1 1 0 0 0 1-1V6a1 1 0 0 0-1-1h-1V3h4z"/><path d="M34 15.586v-.35a2.6 2.6 0 0 1 1.447-2.336l-.894-1.79A4.59 4.59 0 0 0 32 15.236v.35a4.38 4.38 0 0 0 1.293 3.121A2.43 2.43 0 0 1 34 20.414v.35a2.6 2.6 0 0 1-1.447 2.341l.894 1.79A4.59 4.59 0 0 0 36 20.764v-.35a4.38 4.38 0 0 0-1.293-3.121A2.43 2.43 0 0 1 34 15.586m5-2v-.35a2.6 2.6 0 0 1 1.447-2.336l-.894-1.79A4.59 4.59 0 0 0 37 13.236v.35a4.38 4.38 0 0 0 1.293 3.121A2.43 2.43 0 0 1 39 18.414v.35a2.6 2.6 0 0 1-1.447 2.341l.894 1.79A4.59 4.59 0 0 0 41 18.764v-.35a4.38 4.38 0 0 0-1.293-3.121A2.43 2.43 0 0 1 39 13.586m5.707 3.707A2.43 2.43 0 0 1 44 15.586v-.35a2.6 2.6 0 0 1 1.447-2.336l-.894-1.79A4.59 4.59 0 0 0 42 15.236v.35a4.38 4.38 0 0 0 1.293 3.121A2.43 2.43 0 0 1 44 20.414v.35a2.6 2.6 0 0 1-1.447 2.341l.894 1.79A4.59 4.59 0 0 0 46 20.764v-.35a4.38 4.38 0 0 0-1.293-3.121"/></svg>