<svg xmlns="http://www.w3.org/2000/svg" width="512" height="512" data-name="Layer 3" viewBox="0 0 64 64"><path d="M56 1H8a1 1 0 0 0-1 1v60a1 1 0 0 0 1 1h48a1 1 0 0 0 1-1V2a1 1 0 0 0-1-1M15 25V3h4v22Zm6 2v2h-8v-2Zm0 4v6h-8v-6Zm-2 8v22h-4V39Zm2 0h1a1 1 0 0 0 1-1V26a1 1 0 0 0-1-1h-1V3h4v58h-4ZM39 5V3h4v2Zm-2 0h-4V3h4Zm-6 0h-4V3h4Zm0 29v-4h2v4Zm0-6h-1a1 1 0 0 0-1 1v6a1 1 0 0 0 1 1h1v1h-4V27h4Zm-4 31h4v2h-4Zm6 0h4v2h-4Zm6 0h4v2h-4Zm6 0h4v2h-4Zm-18-2V47h24v10Zm24-12H27v-2h24Zm-24-4v-2h5a1 1 0 0 0 1-1v-2h1a1 1 0 0 0 1-1v-6a1 1 0 0 0-1-1h-1v-2a1 1 0 0 0-1-1h-5V7h24v34ZM45 5V3h4v2ZM9 3h4v22h-1a1 1 0 0 0-1 1v12a1 1 0 0 0 1 1h1v22H9Zm46 58h-4v-2h1a1 1 0 0 0 1-1V6a1 1 0 0 0-1-1h-1V3h4Z"/><path d="M34 15.586v-.35a2.6 2.6 0 0 1 1.447-2.336l-.894-1.79A4.59 4.59 0 0 0 32 15.236v.35a4.38 4.38 0 0 0 1.293 3.121A2.43 2.43 0 0 1 34 20.414v.35a2.6 2.6 0 0 1-1.447 2.341l.894 1.79A4.59 4.59 0 0 0 36 20.764v-.35a4.38 4.38 0 0 0-1.293-3.121A2.43 2.43 0 0 1 34 15.586m5-2v-.35a2.6 2.6 0 0 1 1.447-2.336l-.894-1.79A4.59 4.59 0 0 0 37 13.236v.35a4.38 4.38 0 0 0 1.293 3.121A2.43 2.43 0 0 1 39 18.414v.35a2.6 2.6 0 0 1-1.447 2.341l.894 1.79A4.59 4.59 0 0 0 41 18.764v-.35a4.38 4.38 0 0 0-1.293-3.121A2.43 2.43 0 0 1 39 13.586m5.707 3.707A2.43 2.43 0 0 1 44 15.586v-.35a2.6 2.6 0 0 1 1.447-2.336l-.894-1.79A4.59 4.59 0 0 0 42 15.236v.35a4.38 4.38 0 0 0 1.293 3.121A2.43 2.43 0 0 1 44 20.414v.35a2.6 2.6 0 0 1-1.447 2.341l.894 1.79A4.59 4.59 0 0 0 46 20.764v-.35a4.38 4.38 0 0 0-1.293-3.121"/></svg>