<svg xmlns="http://www.w3.org/2000/svg" width="512" height="512" viewBox="0 0 512 512"><path fill="#7a8c98" d="M57.217 218.043c-5.238 0-10.347-2.664-13.248-7.477-4.406-7.309-2.053-16.806 5.256-21.212L248.022 69.507c7.308-4.406 16.806-2.053 21.212 5.256s2.053 16.806-5.256 21.212L65.18 215.822a15.4 15.4 0 0 1-7.963 2.221"/><path fill="#596c76" d="M269.991 76.194a15.44 15.44 0 0 0-8.056 2.225L63.141 198.271c-6.84 4.11-9.344 12.692-6.016 19.769-5.202-.031-10.271-2.689-13.155-7.479-4.409-7.304-2.05-16.802 5.254-21.212L248.027 69.508c7.304-4.409 16.802-2.05 21.211 5.254.279.464.536.948.753 1.432"/><path fill="#7a8c98" d="M454.783 218.043c-2.717 0-5.467-.716-7.963-2.221L248.022 95.975c-7.309-4.406-9.662-13.903-5.256-21.212s13.904-9.663 21.212-5.256l198.798 119.847c7.309 4.406 9.662 13.903 5.256 21.212-2.902 4.813-8.011 7.477-13.249 7.477"/><path fill="#ffe177" d="M512 289.038v157.7c0 9.756-7.901 17.657-17.657 17.657H17.657c-8.169 0-15.041-5.543-17.06-13.083-.67-2.493.567-5.11 2.915-6.202l32.203-14.958c5.347-2.483 5.985-9.828 1.144-13.186l-16.627-11.538c-5.069-3.513-4.09-11.26 1.679-13.413l7.191-2.679c6.562-2.441 6.645-11.693.134-14.247L5.47 365.756A8.62 8.62 0 0 1 0 357.73v-168.3c0-9.746 7.901-17.657 17.657-17.657h476.685c9.756 0 17.657 7.912 17.657 17.657 0 1.772-.536 3.451-1.494 4.852s-2.318 2.524-3.977 3.173l-29.69 11.662c-6.511 2.565-6.428 11.806.124 14.247l7.191 2.689c5.779 2.143 6.748 9.9 1.69 13.413l-16.627 11.538c-4.842 3.358-4.203 10.704 1.133 13.186l36.664 17.029a8.63 8.63 0 0 1 4.987 7.819"/><path fill="#ffd15b" d="M52.663 464.398H17.657c-8.169 0-15.041-5.553-17.06-13.083-.67-2.493.567-5.11 2.915-6.202l31.493-14.629v16.256c.001 9.757 7.902 17.658 17.658 17.658M17.657 171.775h35.006c-9.756 0-17.657 7.912-17.657 17.657V415.68l-14.773-10.25c-5.069-3.513-4.09-11.26 1.679-13.413l7.191-2.678c6.562-2.442 6.645-11.693.134-14.247L5.47 365.758A8.61 8.61 0 0 1 0 357.733v-168.3c0-9.746 7.901-17.658 17.657-17.658"/><path fill="#dd7f66" d="m171.828 272.478-.084-.212a9.7 9.7 0 0 0-8.998-6.028h-.012a9.7 9.7 0 0 0-8.995 6.048l-.068.174-33.197 87.162a7.725 7.725 0 0 0 4.47 9.97 7.725 7.725 0 0 0 9.97-4.47l6.372-16.731h42.672l6.306 16.709a7.73 7.73 0 0 0 7.23 5.001 7.727 7.727 0 0 0 7.227-10.457zm-24.655 60.459 15.549-40.824 15.406 40.824zm325.58 26.706-32.895-87.165-.083-.211a9.7 9.7 0 0 0-8.999-6.03h-.01a9.695 9.695 0 0 0-8.996 6.048l-.068.174-33.197 87.162a7.725 7.725 0 0 0 4.47 9.97 7.725 7.725 0 0 0 9.97-4.47l6.372-16.731h42.672l6.306 16.709a7.73 7.73 0 0 0 7.23 5.001 7.727 7.727 0 0 0 7.228-10.457m-57.551-26.706 15.549-40.824 15.406 40.824zm-45.074-66.865h-.076a7.726 7.726 0 0 0-7.651 7.801l.626 64.725-47.667-69.025a7.727 7.727 0 0 0-14.084 4.39v88.242a7.726 7.726 0 1 0 15.452 0v-63.457l45.58 66.004c2.402 3.471 6.357 4.963 10.075 3.802 3.824-1.195 6.295-4.856 6.294-9.403l-.826-85.428a7.724 7.724 0 0 0-7.723-7.651m-91.248.166a7.726 7.726 0 0 0-7.726 7.726v60.77c0 4.784-1.287 11.793-12.41 17.395-3.315 1.669-7.042 2.516-11.078 2.516h-.04c-4.491-.006-8.578-1.165-12.146-3.445-7.318-4.676-10.303-9.427-10.303-16.402v-60.833a7.726 7.726 0 1 0-15.452 0v60.833c0 12.303 5.703 21.928 17.436 29.424 6.087 3.889 12.966 5.866 20.445 5.876h.062c6.471 0 12.536-1.402 18.028-4.167 17.284-8.705 20.912-21.77 20.912-31.197v-60.77a7.73 7.73 0 0 0-7.728-7.726M87.635 311.616c-2.959-1.092-5.648-2.015-8.248-2.908-8.731-3-14.5-4.981-18.554-9.177-1.845-1.909-2.454-4.724-1.672-7.723 1.099-4.218 4.636-7.604 9.462-9.057 14.255-4.293 27.118 6.012 27.397 6.238a7.728 7.728 0 0 0 9.917-11.851c-.778-.654-19.318-15.947-41.77-9.183-10.028 3.021-17.489 10.481-19.958 19.956-2.141 8.213-.08 16.571 5.513 22.358 6.634 6.866 14.981 9.733 24.646 13.053 2.519.865 5.124 1.76 7.92 2.792 9.853 3.634 14.851 9.371 13.714 15.739-1.107 6.202-8.043 12.792-18.716 12.792-9.71 0-19.087-3.95-25.083-10.567a7.726 7.726 0 0 0-11.45 10.376c8.877 9.795 22.534 15.643 36.533 15.643 16.744 0 31.33-10.975 33.929-25.529 2.994-16.778-10.218-28.023-23.58-32.952"/><circle cx="256" cy="82.741" r="35.139" fill="#8abbd5"/><path fill="#6cabca" d="M268.033 115.769A35 35 0 0 1 256 117.881c-19.398 0-35.139-15.731-35.139-35.139S236.602 47.603 256 47.603c4.224 0 8.283.742 12.033 2.112-13.485 4.914-23.107 17.843-23.107 33.028 0 15.183 9.622 28.112 23.107 33.026"/><path fill="#ffd15b" d="M512 388.996v15.453H370.948a7.73 7.73 0 0 1-7.726-7.726 7.72 7.72 0 0 1 7.726-7.726zm0 30.823v15.453h-81.374a7.72 7.72 0 0 1-7.726-7.726 7.73 7.73 0 0 1 7.726-7.726zM148.779 235.716a7.73 7.73 0 0 1-7.726 7.726H0v-15.453h141.052a7.73 7.73 0 0 1 7.727 7.727M89.1 204.882a7.73 7.73 0 0 1-7.726 7.726H0v-15.453h81.374a7.73 7.73 0 0 1 7.726 7.727"/></svg>