<svg xmlns="http://www.w3.org/2000/svg" width="512" height="512" data-name="Layer 3" viewBox="0 0 64 64"><path fill="#985d2c" d="M8 2h48v60H8z"/><path fill="#b56e35" d="M12 10a47.994 47.994 0 0 0 44 47.821V2H12z"/><path fill="#bcc5d8" d="M12 26h10v12H12z"/><path fill="#7c4923" d="M13 2h2v24h-2zm0 36h2v24h-2zm6-36h2v24h-2zm0 36h2v24h-2zm6-36h2v60h-2zm6 0h2v4h-2zm0 56h2v4h-2zm6 0h2v4h-2zm6 0h2v4h-2zm6 0h2v4h-2zM37 2h2v4h-2zm6 0h2v4h-2zm6 0h2v4h-2z"/><path fill="#cdd4e4" d="M21.026 38H22V26h-7.261a47.8 47.8 0 0 0 6.287 12"/><path fill="#43b6e5" d="M12 26h10v4H12z"/><path fill="#66c3e9" d="M14.739 26a47 47 0 0 0 1.649 4H22v-4z"/><path fill="#43b6e5" d="M26 6h26v52H26"/><path fill="#66c3e9" d="M26 43.862a47.9 47.9 0 0 0 26 13.449V6H26z"/><path fill="#434343" d="M32 39h-6v-2h5v-2h2v3a1 1 0 0 1-1 1m1-10h-2v-2h-5v-2h6a1 1 0 0 1 1 1z"/><path fill="#252525" d="M30 29h4v6h-4z"/><path fill="#fff" d="m33.447 24.9-.894-1.79A2.6 2.6 0 0 0 34 20.764v-.35a2.43 2.43 0 0 0-.707-1.707A4.38 4.38 0 0 1 32 15.586v-.35a4.59 4.59 0 0 1 2.553-4.131l.894 1.79A2.6 2.6 0 0 0 34 15.236v.35a2.43 2.43 0 0 0 .707 1.707A4.38 4.38 0 0 1 36 20.414v.35a4.59 4.59 0 0 1-2.553 4.136m5-2-.894-1.79A2.6 2.6 0 0 0 39 18.764v-.35a2.43 2.43 0 0 0-.707-1.707A4.38 4.38 0 0 1 37 13.586v-.35a4.59 4.59 0 0 1 2.553-4.131l.894 1.79A2.6 2.6 0 0 0 39 13.236v.35a2.43 2.43 0 0 0 .707 1.707A4.38 4.38 0 0 1 41 18.414v.35a4.59 4.59 0 0 1-2.553 4.136m5 2-.894-1.79A2.6 2.6 0 0 0 44 20.764v-.35a2.43 2.43 0 0 0-.707-1.707A4.38 4.38 0 0 1 42 15.586v-.35a4.59 4.59 0 0 1 2.553-4.131l.894 1.79A2.6 2.6 0 0 0 44 15.236v.35a2.43 2.43 0 0 0 .707 1.707A4.38 4.38 0 0 1 46 20.414v.35a4.59 4.59 0 0 1-2.553 4.136"/><path fill="#bcc5d8" d="M26 42h26v4H26z"/><path fill="#cdd4e4" d="M26 46h26v12H26zm0-2.138c.736.739 1.5 1.448 2.285 2.138H52v-4H26z"/><path fill="#dce0e8" d="M52 57.311V46H28.285A47.8 47.8 0 0 0 52 57.311"/></svg>