<svg xmlns="http://www.w3.org/2000/svg" width="512" height="512" viewBox="0 0 512 512"><path d="m502.819 273.679-35.438-16.46 16.007-11.107a14.87 14.87 0 0 0 6.286-14.121 14.84 14.84 0 0 0-9.577-12.084l-6.749-2.527 28.574-11.224a15.8 15.8 0 0 0 7.317-5.83 15.77 15.77 0 0 0 2.76-8.944c0-13.586-11.054-24.64-24.64-24.64h-56.858L297.579 86.617c-.64-22.389-19.038-40.408-41.579-40.408-22.54 0-40.938 18.018-41.579 40.406l-36.733 22.143a7.5 7.5 0 0 0 7.745 12.846l31.651-19.08a41.7 41.7 0 0 0 7.761 12.832l-85.236 51.385H110.55l45.233-27.267a7.5 7.5 0 0 0-7.744-12.846l-66.544 40.114H24.64c-13.586 0-24.64 11.053-24.64 24.64v163.37c0 6.572 3.953 12.37 10.068 14.771l22.829 8.969-6.75 2.514a14.86 14.86 0 0 0-9.58 12.115 14.86 14.86 0 0 0 6.297 14.093l16 11.104L7.749 432.77c-5.604 2.604-8.51 8.815-6.913 14.761 2.878 10.751 12.667 18.26 23.805 18.26h75.6a7.5 7.5 0 0 0 0-15h-75.6a9.66 9.66 0 0 1-8.624-5.322l29.312-13.615c4.908-2.279 8.115-6.857 8.579-12.246.463-5.385-1.912-10.439-6.351-13.518l-15.988-11.097 6.798-2.532c5.842-2.174 9.653-7.606 9.708-13.839.055-6.23-3.656-11.727-9.452-14.001l-23.071-9.061a.865.865 0 0 1-.551-.809V243.813h129.416a7.5 7.5 0 0 0 0-15H15v-14.929h71.492a7.5 7.5 0 0 0 0-15H15v-7.503c0-5.315 4.325-9.64 9.64-9.64l58.947.001 403.772-.001c5.315 0 9.64 4.324 9.64 9.64a.83.83 0 0 1-.142.478.86.86 0 0 1-.41.331l-28.827 11.323c-5.796 2.283-9.504 7.783-9.446 14.012.058 6.225 3.864 11.651 9.688 13.821l6.817 2.551-15.984 11.092c-4.44 3.08-6.815 8.133-6.354 13.517.462 5.388 3.663 9.965 8.569 12.248l35.571 16.521c.32.149.518.455.518.796v10.78a7.5 7.5 0 0 0 15 0v-10.78c.001-6.134-3.595-11.78-9.18-14.392M401.446 166.741h-29.054l-85.236-51.385a41.7 41.7 0 0 0 7.76-12.829zM256 61.209c14.672 0 26.609 11.937 26.609 26.609s-11.937 26.61-26.609 26.61-26.609-11.937-26.609-26.61S241.328 61.209 256 61.209m-18.35 63.942c5.539 2.734 11.767 4.277 18.35 4.277s12.811-1.543 18.35-4.277l68.989 41.591H168.661z"/><path d="M504.5 326.351a7.5 7.5 0 0 0-7.5 7.5v51.246H367.584a7.5 7.5 0 0 0 0 15H497v14.929h-71.492a7.5 7.5 0 0 0 0 15H497v11.125c0 5.315-4.325 9.64-9.64 9.64H135.24a7.5 7.5 0 0 0 0 15h352.12c13.586 0 24.64-11.054 24.64-24.64v-107.3a7.5 7.5 0 0 0-7.5-7.5m-366.037 35.574 6.186-16.241h41.422l6.121 16.22a7.5 7.5 0 0 0 7.019 4.854 7.5 7.5 0 0 0 7.015-10.15l-31.931-84.612a9.41 9.41 0 0 0-8.816-6.058h-.011a9.41 9.41 0 0 0-8.731 5.871q-.034.084-.066.169l-32.224 84.608a7.5 7.5 0 1 0 14.016 5.339m26.992-70.869 14.955 39.628h-30.048z"/><path d="m398.64 361.925 6.186-16.241h41.422l6.121 16.22a7.5 7.5 0 0 0 7.019 4.854 7.5 7.5 0 0 0 7.015-10.15l-31.931-84.612-.081-.205a9.41 9.41 0 0 0-8.735-5.853h-.01a9.41 9.41 0 0 0-8.733 5.871q-.034.084-.066.169l-32.224 84.608a7.5 7.5 0 0 0 4.339 9.678 7.5 7.5 0 0 0 9.678-4.339m26.991-70.869 14.955 39.628h-30.048zm-120.414-24.777a7.5 7.5 0 0 0-5.268 7.16v85.657a7.5 7.5 0 0 0 15 0v-61.598l44.245 64.07c2.332 3.369 6.171 4.817 9.78 3.691 3.712-1.16 6.11-4.713 6.11-9.127l-.802-82.925a7.5 7.5 0 0 0-7.498-7.427h-.074a7.5 7.5 0 0 0-7.427 7.572l.607 62.829-46.271-67.002a7.5 7.5 0 0 0-8.402-2.9m-86.638-.34a7.5 7.5 0 0 0-7.5 7.5v59.051c0 11.943 5.536 21.286 16.925 28.562 5.909 3.775 12.586 5.694 19.846 5.704h.061c6.281 0 12.169-1.361 17.5-4.045 16.778-8.45 20.3-21.132 20.3-30.283v-58.989a7.5 7.5 0 0 0-15 0v58.989c0 4.644-1.249 11.448-12.047 16.885-3.218 1.621-6.835 2.442-10.753 2.442h-.039c-4.359-.006-8.327-1.131-11.791-3.344-7.104-4.539-10.001-9.151-10.001-15.921v-59.051a7.5 7.5 0 0 0-7.501-7.5M92.567 309.987c-2.873-1.06-5.482-1.956-8.006-2.823-8.476-2.912-14.075-4.835-18.01-8.908-1.791-1.853-2.382-4.585-1.623-7.497 1.067-4.094 4.5-7.381 9.185-8.792 13.837-4.167 26.324 5.836 26.594 6.056a7.5 7.5 0 0 0 9.626-11.504c-.755-.635-18.752-15.479-40.546-8.914-9.734 2.932-16.977 10.174-19.374 19.371-2.078 7.972-.078 16.085 5.351 21.703 6.44 6.665 14.542 9.448 23.924 12.671 2.445.84 4.974 1.708 7.688 2.71 9.564 3.527 14.416 9.096 13.312 15.278-1.075 6.02-7.807 12.417-18.168 12.417-9.425 0-18.527-3.834-24.348-10.257a7.5 7.5 0 1 0-11.115 10.073c8.617 9.508 21.874 15.185 35.463 15.185 16.253 0 30.412-10.653 32.935-24.781 2.908-16.287-9.916-27.203-22.888-31.988"/></svg>