<svg xmlns="http://www.w3.org/2000/svg" width="512" height="512" viewBox="0 0 512 512"><path fill="#965a44" d="M84.142 372.104v122.03c0 9.753 7.815 17.681 17.525 17.863 10.013.188 18.208-8.317 18.208-18.331V372.104z"/><path fill="#7c4b37" d="M104.746 494.134v-122.03H84.142v122.03c0 9.753 7.815 17.681 17.525 17.863 3.92.073 7.552-1.199 10.532-3.359-4.509-3.243-7.453-8.526-7.453-14.504"/><circle cx="263.965" cy="56.289" r="56.289" fill="#fed2a4"/><path fill="#ffbd86" d="M246.201 56.289c0-24.321 15.426-45.038 37.026-52.904A56.2 56.2 0 0 0 263.965 0c-31.088 0-56.289 25.201-56.289 56.289s25.202 56.289 56.289 56.289a56.2 56.2 0 0 0 19.263-3.385c-21.601-7.866-37.027-28.583-37.027-52.904"/><path fill="#fed2a4" d="M163.356 275.598c2.731-28.543 19.485-63.27 30.775-83.912l5.261-3.022-29.744-59.025c-17.592 21.158-74.904 94.67-78.325 158.194-.289 5.365.204 10.574 1.498 15.499z"/><path fill="#ffbd86" d="M128.049 289.48c-.034-.643-.016-1.008-.016-1.008-4.976-60.207 34.898-113.878 53.455-135.337l-11.841-23.497c-17.592 21.158-74.904 94.67-78.325 158.194-.289 5.365.204 10.574 1.498 15.499z"/><path fill="#fed2a4" d="M395.528 431.345h-30.205a9.22 9.22 0 0 1-9.082-7.626l-21.534-122.657a40.12 40.12 0 0 0-22.827-31.365l-18.504-3.806a40.4 40.4 0 0 0-11.05 1.956 827 827 0 0 1-32.106 9.719l15.193 43.46a868 868 0 0 0 20.584-6.136 3.662 3.662 0 0 1 4.7 2.884L314.544 457.2c1.16 9.162 7.621 16.479 16.062 19.065h71.265c9.251-2.795 16.254-11.05 16.611-21.114.466-13.066-9.99-23.806-22.954-23.806"/><path fill="#ffbd86" d="M337.437 439.743 309.573 302.59c-1.65-8.122-9.797-13.18-17.808-11.055l-32.342 8.576c-.401.135-.786.257-1.184.39l7.176 20.527a868 868 0 0 0 20.584-6.136 3.662 3.662 0 0 1 4.7 2.884l23.847 139.426c1.16 9.162 7.621 16.479 16.062 19.065h32.616c-22.001-12.714-25.787-36.524-25.787-36.524"/><path fill="#d9edff" d="M366.79 195.754a7.725 7.725 0 0 1 .833-10.894c.843-.762 3.214-3.525 3.271-6.435.041-2.106-1.181-4.384-3.633-6.774-7.08-6.901-8.418-13.797-8.293-18.366.279-10.244 7.751-17.063 8.602-17.806a7.727 7.727 0 0 1 10.902.733 7.725 7.725 0 0 1-.679 10.853c-.934.861-3.334 3.716-3.38 6.71-.033 2.137 1.19 4.428 3.633 6.809 7.115 6.936 8.436 13.834 8.29 18.401-.323 10.172-7.801 16.872-8.652 17.603a7.725 7.725 0 0 1-10.894-.834m52.765 0a7.726 7.726 0 0 1 .833-10.894c.842-.762 3.214-3.525 3.271-6.435.041-2.106-1.181-4.384-3.633-6.774-7.08-6.9-8.418-13.797-8.293-18.366.279-10.244 7.751-17.063 8.602-17.806a7.727 7.727 0 0 1 10.223 11.587c-.934.86-3.334 3.715-3.38 6.709-.033 2.137 1.19 4.428 3.633 6.809 7.115 6.936 8.436 13.834 8.29 18.401-.323 10.172-7.801 16.872-8.652 17.603a7.725 7.725 0 0 1-10.894-.834m0 80.679a7.726 7.726 0 0 1 .833-10.894c.842-.762 3.214-3.525 3.271-6.435.041-2.106-1.181-4.384-3.633-6.774-7.08-6.9-8.418-13.796-8.293-18.365.279-10.246 7.751-17.064 8.602-17.808a7.726 7.726 0 0 1 10.224 11.586c-.934.86-3.335 3.716-3.38 6.711-.033 2.137 1.19 4.428 3.633 6.809 7.115 6.936 8.436 13.834 8.29 18.401-.323 10.172-7.801 16.872-8.652 17.603a7.727 7.727 0 0 1-10.895-.834M67.187 117.384a7.725 7.725 0 0 1 .834-10.894c.843-.762 3.214-3.525 3.271-6.436.041-2.105-1.181-4.384-3.633-6.775-7.079-6.899-8.417-13.796-8.293-18.365.279-10.244 7.751-17.063 8.602-17.806a7.727 7.727 0 0 1 10.223 11.587c-.934.86-3.334 3.715-3.38 6.709-.033 2.137 1.19 4.428 3.633 6.809 7.115 6.937 8.436 13.835 8.29 18.402-.323 10.172-7.801 16.872-8.652 17.603a7.726 7.726 0 0 1-10.895-.834m0 84.057a7.725 7.725 0 0 1 .834-10.894c.843-.762 3.214-3.525 3.271-6.435.041-2.106-1.181-4.384-3.633-6.774-7.08-6.9-8.418-13.796-8.293-18.365.279-10.246 7.751-17.064 8.602-17.808a7.728 7.728 0 0 1 10.225 11.586c-.934.86-3.335 3.716-3.38 6.711-.033 2.137 1.19 4.428 3.633 6.809 7.115 6.936 8.436 13.834 8.29 18.401-.323 10.172-7.801 16.872-8.652 17.603a7.727 7.727 0 0 1-10.897-.834m52.765-84.057a7.725 7.725 0 0 1 .834-10.894c.843-.762 3.214-3.525 3.271-6.436.041-2.105-1.181-4.384-3.633-6.775-7.079-6.899-8.417-13.796-8.293-18.365.279-10.244 7.751-17.063 8.602-17.806a7.727 7.727 0 0 1 10.223 11.587c-.934.86-3.334 3.715-3.38 6.709-.033 2.137 1.19 4.428 3.633 6.809 7.115 6.937 8.436 13.835 8.29 18.402-.323 10.172-7.801 16.872-8.652 17.603a7.726 7.726 0 0 1-10.895-.834"/><path fill="#ab6b51" d="M442.703 476.267H289.436a6.72 6.72 0 0 1-6.721-6.721V357.328c0-9.867-7.999-17.866-17.866-17.866H68.828c-9.753 0-17.681 7.815-17.863 17.525-.188 10.013 8.317 18.208 18.331 18.208H240.26a6.72 6.72 0 0 1 6.721 6.721v112.218c0 9.867 7.999 17.866 17.866 17.866H443.17c9.753 0 17.681-7.815 17.863-17.525.189-10.013-8.315-18.208-18.33-18.208"/><path fill="#965a44" d="M72.943 356.987c.182-9.71 8.11-17.525 17.863-17.525H68.828c-9.753 0-17.681 7.815-17.863 17.525-.188 10.013 8.317 18.208 18.331 18.208h21.977c-10.014-.001-18.518-8.196-18.33-18.208m196.016 137.147V381.916a6.72 6.72 0 0 0-6.721-6.721h-21.977a6.72 6.72 0 0 1 6.721 6.721v112.218c0 9.867 7.999 17.866 17.866 17.866h21.977c-9.867 0-17.866-7.999-17.866-17.866"/><path fill="#ff8188" d="m266.042 320.848-13.979-43.798c-24.095 6.82-50.114 12.931-72.313 15.584-9.262 1.107-17.277-6.584-16.507-15.88a94 94 0 0 1 .267-2.729L92.701 302.86c4.763 18.947 21.45 33.722 52.59 36.602h27.689c9.757-.723 20.47-2.126 32.215-4.209 20.831-3.696 42.129-9.061 60.847-14.405"/><path fill="#ff656f" d="M259.423 300.11c-134.331 45.115-131.39-11.638-131.39-11.638L92.701 302.86c4.763 18.947 21.45 33.722 52.59 36.602h27.689c9.757-.723 20.47-2.126 32.215-4.209 20.832-3.695 42.13-9.06 60.848-14.404z"/><path fill="#fed2a4" d="M335.043 283.646a28.25 28.25 0 0 0-18.401-12.97l-66.218-13.619a40.22 40.22 0 0 1-26.832-19.402l-53.645-83.705c-6.845-10.681-3.736-24.889 6.945-31.735s24.89-3.735 31.735 6.945l53.441 83.387 63.83 13.128c20.113 4.138 37.76 16.576 48.416 34.129 6.584 10.844 3.13 24.972-7.714 31.556-10.831 6.578-24.966 3.143-31.557-7.714"/><path fill="#ffbd86" d="M349.131 262.579a28.25 28.25 0 0 0-18.401-12.97l-66.218-13.619a40.22 40.22 0 0 1-26.833-19.402l-53.644-83.705a22.84 22.84 0 0 1-3.617-12.496 23 23 0 0 0-3.527 1.828c-10.681 6.845-13.791 21.054-6.945 31.735l53.645 83.705a40.22 40.22 0 0 0 26.832 19.402l66.218 13.619a28.25 28.25 0 0 1 18.401 12.97c6.591 10.857 20.726 14.291 31.557 7.714 7.076-4.297 11.002-11.805 11.049-19.517-10.307 4.337-22.526.603-28.517-9.264"/></svg>