<svg xmlns="http://www.w3.org/2000/svg" xml:space="preserve" viewBox="0 0 512 512"><path d="m315.469 401.067 97.638-69.743c11.119-7.953 26.573-5.385 34.526 5.734.393.546.759 1.109 1.101 1.681 6.665 11.093 3.652 25.446-6.903 32.93l-103.62 85.888a51.18 51.18 0 0 1-32.666 11.776H93.602v-102.4l41.702-34.756a34.14 34.14 0 0 1 21.854-7.91h111.377c11.785 0 21.333 9.549 21.333 21.333 0 11.785-9.549 21.333-21.333 21.333h-55.467c-9.429 0-17.067 7.637-17.067 17.067s7.637 17.067 17.067 17.067z" style="fill:#fec9a3"/><path d="M0 358.4h93.602v145.067H0z" style="fill:#4398d1"/><circle cx="42.667" cy="452.267" r="17.067" style="fill:#e5e5e5"/><path d="M8.533 273.067h494.933c0 28.279-22.921 51.2-51.2 51.2H59.733c-28.279 0-51.2-22.921-51.2-51.2" style="fill:#d1d1d1"/><path d="M469.333 273.067H42.667v-8.533C42.667 146.714 138.18 51.2 256 51.2s213.333 95.514 213.333 213.333z" style="fill:#e5e5e5"/><path d="m113.493 170.735-14.242-9.387a189 189 0 0 1 16.418-21.333l12.757 11.332a173 173 0 0 0-14.933 19.388m25.754-30.575-11.682-12.433A186.94 186.94 0 0 1 256 76.8v17.067a169.96 169.96 0 0 0-116.753 46.293" style="fill:#fff"/><path d="M281.6 0h-51.2v17.067h17.067V51.2h17.066V17.067H281.6z" style="fill:#d1d1d1"/><path d="M380.169 273.067a558.6 558.6 0 0 1-150.622 51.2h222.72c28.279 0 51.2-22.921 51.2-51.2z" style="fill:#c9c9c9"/><path d="M469.333 264.533a212.7 212.7 0 0 0-66.927-155.085c-59.853 85.427-168.209 136.457-245.299 163.618h312.226z" style="fill:#dedede"/><path d="M449.971 341.333a24 24 0 0 0-1.237-2.56c-7.023-11.725-22.221-15.539-33.946-8.516a23 23 0 0 0-1.681 1.101l-14.012 9.975zm-160.537 0c-2.031-9.933-10.761-17.067-20.898-17.067H157.158a34.14 34.14 0 0 0-21.854 7.91l-10.982 9.156z" style="fill:#f7bb8f"/><path d="M68.267 452.267c0-14.14-11.46-25.6-25.6-25.6s-25.6 11.46-25.6 25.6 11.46 25.6 25.6 25.6 25.6-11.461 25.6-25.6m-34.134 0c0-4.71 3.823-8.533 8.533-8.533s8.533 3.823 8.533 8.533-3.823 8.533-8.533 8.533-8.533-3.823-8.533-8.533"/><path d="M503.467 264.533h-25.6C477.722 145.391 383.59 47.582 264.533 42.88V17.067H281.6V0h-51.2v17.067h17.067V42.88C128.41 47.582 34.278 145.391 34.133 264.533h-25.6A8.536 8.536 0 0 0 0 273.066c.034 32.973 26.761 59.699 59.733 59.733h61.491l-22.63 18.859a8.36 8.36 0 0 0-4.992-1.792H0v17.067h85.069v128H0V512h93.602a8.536 8.536 0 0 0 8.533-8.533v-25.6h203.409a59.82 59.82 0 0 0 38.11-13.747l103.117-85.487c14.123-10.112 18.15-29.355 9.276-44.288-.358-.606-.853-1.101-1.254-1.707 31.94-1.348 57.148-27.605 57.207-59.571 0-4.711-3.823-8.534-8.533-8.534M256 59.733c113.05.128 204.672 91.75 204.8 204.8H51.2c.128-113.049 91.75-204.672 204.8-204.8m180.386 305.374L332.8 450.987a42.77 42.77 0 0 1-27.255 9.813h-203.41v-89.865l38.665-32.162a25.68 25.68 0 0 1 16.384-5.973h111.351c7.066 0 12.8 5.734 12.8 12.8s-5.734 12.8-12.8 12.8h-55.467c-14.14 0-25.6 11.46-25.6 25.6s11.46 25.6 25.6 25.6h102.4a8.54 8.54 0 0 0 4.958-1.596l97.638-69.734c7.279-5.214 17.408-3.541 22.622 3.738.256.358.503.734.734 1.118 4.361 7.509 2.16 17.117-5.034 21.981M295.407 332.8h100.958l-83.627 59.733h-99.669c-4.71 0-8.533-3.823-8.533-8.533s3.823-8.533 8.533-8.533h55.467c16.495 0 29.867-13.372 29.867-29.867a29.6 29.6 0 0 0-2.996-12.8m156.86-17.067H59.733c-20.267-.026-37.734-14.276-41.813-34.133h476.16c-4.079 19.857-21.547 34.108-41.813 34.133"/><path d="m99.243 161.331 14.242 9.387a173.5 173.5 0 0 1 14.933-19.439l-12.757-11.332a189 189 0 0 0-16.418 21.384m40.004-21.171A169.96 169.96 0 0 1 256 93.867V76.8a186.94 186.94 0 0 0-128.435 50.927z"/></svg>