<svg xmlns="http://www.w3.org/2000/svg" xml:space="preserve" viewBox="0 0 512 512"><path d="m320.816 407.864 99.293-70.925c11.307-8.088 27.023-5.476 35.111 5.832a24 24 0 0 1 1.119 1.71c6.777 11.281 3.714 25.878-7.02 33.488l-105.377 87.344a52.05 52.05 0 0 1-33.219 11.976H95.189V373.153l42.409-35.345a34.72 34.72 0 0 1 22.224-8.044h113.265c11.984 0 21.695 9.711 21.695 21.695s-9.711 21.695-21.695 21.695H216.68c-9.589 0-17.356 7.767-17.356 17.356s7.767 17.356 17.356 17.356h104.136z" style="fill:#fec9a3"/><path d="M0 364.475h95.189V512H0z" style="fill:#4398d1"/><circle cx="43.39" cy="459.932" r="17.356" style="fill:#e5e5e5"/><path d="M8.678 277.695H512c0 28.759-23.309 52.068-52.068 52.068H60.746c-28.759 0-52.068-23.309-52.068-52.068" style="fill:#d1d1d1"/><path d="M477.288 277.695H43.39v-8.678c0-119.817 97.132-216.949 216.949-216.949S477.288 149.2 477.288 269.017z" style="fill:#e5e5e5"/><path d="m115.417 173.629-14.484-9.546a192.6 192.6 0 0 1 16.696-21.695l12.974 11.524a176 176 0 0 0-15.186 19.717m26.19-31.093-11.88-12.644a190.1 190.1 0 0 1 130.612-51.79v17.356a172.83 172.83 0 0 0-118.732 47.078" style="fill:#fff"/><path d="M286.373 0h-52.068v17.356h17.356v34.712h17.356V17.356h17.356z" style="fill:#d1d1d1"/><path d="M386.612 277.695a568.1 568.1 0 0 1-153.175 52.068h226.495c28.759 0 52.068-23.309 52.068-52.068z" style="fill:#c9c9c9"/><path d="M477.288 269.017a216.3 216.3 0 0 0-68.061-157.713c-60.867 86.875-171.06 138.769-249.457 166.391h317.518z" style="fill:#dedede"/><path d="M457.598 347.119a24 24 0 0 0-1.258-2.603c-7.142-11.924-22.597-15.803-34.521-8.661-.581.347-1.154.72-1.71 1.119l-14.249 10.145zm-163.259 0c-2.065-10.101-10.943-17.356-21.252-17.356H159.822a34.7 34.7 0 0 0-22.224 8.044l-11.169 9.311h167.91z" style="fill:#f7bb8f"/></svg>