<svg xmlns="http://www.w3.org/2000/svg" viewBox="0 0 24 24"><path fill="#bad7ff" d="M17.25 5a.75.75 0 0 1 .75-.75h3a.75.75 0 0 1 0 1.5h-3a.75.75 0 0 1-.75-.75M21 11.25H10a.75.75 0 0 0 0 1.5h11a.75.75 0 0 0 0-1.5m-18 1.5h3a.75.75 0 0 0 0-1.5H3a.75.75 0 0 0 0 1.5m0-7h11a.75.75 0 0 0 0-1.5H3a.75.75 0 0 0 0 1.5m18 12.5h-3a.75.75 0 0 0 0 1.5h3a.75.75 0 0 0 0-1.5m-7 0H3a.75.75 0 0 0 0 1.5h11a.75.75 0 0 0 0-1.5"/><path fill="#549bff" d="M13.75 5c0-1.241 1.009-2.25 2.25-2.25S18.25 3.759 18.25 5 17.241 7.25 16 7.25 13.75 6.241 13.75 5M8 9.75c-1.241 0-2.25 1.009-2.25 2.25S6.759 14.25 8 14.25s2.25-1.009 2.25-2.25S9.241 9.75 8 9.75m8 7c-1.241 0-2.25 1.009-2.25 2.25s1.009 2.25 2.25 2.25 2.25-1.009 2.25-2.25-1.009-2.25-2.25-2.25"/></svg>