<svg xmlns="http://www.w3.org/2000/svg" viewBox="0 0 24 24"><path fill="#112d55" d="M17.25 5a.75.75 0 0 1 .75-.75h3a.75.75 0 0 1 0 1.5h-3a.75.75 0 0 1-.75-.75M21 11.25H10a.75.75 0 0 0 0 1.5h11a.75.75 0 0 0 0-1.5m-18 1.5h3a.75.75 0 0 0 0-1.5H3a.75.75 0 0 0 0 1.5m0-7h11a.75.75 0 0 0 0-1.5H3a.75.75 0 0 0 0 1.5m18 12.5h-3a.75.75 0 0 0 0 1.5h3a.75.75 0 0 0 0-1.5m-7 0H3a.75.75 0 0 0 0 1.5h11a.75.75 0 0 0 0-1.5"/><path fill="#549bff" d="M16 7.75c1.517 0 2.75-1.233 2.75-2.75S17.517 2.25 16 2.25 13.25 3.483 13.25 5 14.483 7.75 16 7.75m0-4c.689 0 1.25.561 1.25 1.25S16.689 6.25 16 6.25 14.75 5.689 14.75 5s.561-1.25 1.25-1.25m-8 5.5c-1.517 0-2.75 1.233-2.75 2.75S6.483 14.75 8 14.75s2.75-1.233 2.75-2.75S9.517 9.25 8 9.25m0 4c-.689 0-1.25-.561-1.25-1.25s.561-1.25 1.25-1.25 1.25.561 1.25 1.25-.561 1.25-1.25 1.25m8 3c-1.517 0-2.75 1.233-2.75 2.75s1.233 2.75 2.75 2.75 2.75-1.233 2.75-2.75-1.233-2.75-2.75-2.75m0 4c-.689 0-1.25-.561-1.25-1.25s.561-1.25 1.25-1.25 1.25.561 1.25 1.25-.561 1.25-1.25 1.25"/></svg>