<svg xmlns="http://www.w3.org/2000/svg" width="512" height="512" viewBox="0 0 60 60"><g fill="#5edd60"><circle cx="45" cy="10" r="9"/><circle cx="15" cy="30" r="9"/><circle cx="45" cy="50" r="9"/></g><path fill="#262626" d="M15 20a10 10 0 1 0 7.722 16.346l13.45 8.967a10.006 10.006 0 1 0 1.11-1.664L23.83 34.682a9.95 9.95 0 0 0 0-9.364l13.452-8.967a10 10 0 1 0 2.161-14.666 1 1 0 0 0 1.114 1.662 8 8 0 1 1-2.21 2.21 1 1 0 0 0-1.662-1.114 9.98 9.98 0 0 0-.513 10.244l-13.45 8.967A9.98 9.98 0 0 0 15 20m30 22a8 8 0 1 1-8 8 8.01 8.01 0 0 1 8-8m-30-4a8 8 0 1 1 8-8 8.01 8.01 0 0 1-8 8"/></svg>