<svg xmlns="http://www.w3.org/2000/svg" width="512" height="512" viewBox="0 0 60 60"><path fill="#5edd60" d="M45.467 19.449a.5.5 0 0 1-.32-.885l3.691-3.058-6.113 3.529a.5.5 0 0 1-.534-.845l.845-.579-1.611.93a.5.5 0 0 1-.542-.838l4.676-3.369-5.681 3.279a.5.5 0 0 1-.534-.843l3.9-2.7-4.457 2.573a.5.5 0 0 1-.536-.843l5.02-3.508-5.455 3.149a.5.5 0 0 1-.53-.846l3.184-2.153-3.291 1.9a.5.5 0 0 1-.533-.846l3.747-2.559-3.707 2.14a.5.5 0 0 1-.53-.848l2.261-1.522-2.017 1.165a.5.5 0 0 1-.538-.841l4.207-2.97-3.782 2.183a.5.5 0 0 1-.542-.839l3.5-2.512L36.5 8.476a.5.5 0 0 1-.545-.836l2.026-1.481-.863.5a.5.5 0 0 1-.577-.81l2.179-1.886a.5.5 0 0 1-.12-.915L42.192.974a.5.5 0 0 1 .578.81l-1.588 1.373L45.551.635a.5.5 0 0 1 .545.836l-2.029 1.481 3.365-1.941a.5.5 0 0 1 .67.161.5.5 0 0 1-.128.678l-3.495 2.51 4.59-2.649a.5.5 0 0 1 .538.841L45.4 5.522l5.021-2.9a.5.5 0 0 1 .529.848l-2.26 1.524 2.632-1.519a.5.5 0 0 1 .532.845L48.1 6.882l4.07-2.347a.5.5 0 0 1 .53.847l-3.177 2.147 3.287-1.9a.5.5 0 0 1 .536.843l-5.03 3.513 5.049-2.914a.5.5 0 0 1 .534.844l-3.891 2.695 3.642-2.1a.5.5 0 0 1 .542.838l-4.673 3.367 4.17-2.407a.5.5 0 0 1 .534.844l-.854.586.1-.057a.5.5 0 0 1 .569.817l-3.689 3.058 1.926-1.113a.5.5 0 0 1 .5.866l-7.058 4.075a.5.5 0 0 1-.25.065M13.974 39.405a.5.5 0 0 1-.295-.9l2.359-1.727-3.7 2.139a.5.5 0 0 1-.53-.847l.463-.313-1.13.651a.5.5 0 0 1-.532-.845l2.034-1.388L9.992 37.7a.5.5 0 0 1-.541-.839l5.591-4.009-6.365 3.672a.5.5 0 0 1-.542-.838l6.319-4.544L7.6 35.1a.5.5 0 0 1-.53-.848l2.768-1.861L7.03 34.01a.5.5 0 0 1-.528-.848l2.41-1.619-2.3 1.325a.5.5 0 0 1-.529-.847L8.194 30.6l-1.823 1.054a.5.5 0 0 1-.528-.847l.948-.636-.51.294a.5.5 0 0 1-.547-.835l4.466-3.295-3.7 2.136a.5.5 0 0 1-.55-.833l2.6-1.948-1.347.778a.5.5 0 0 1-.572-.815l2.025-1.71a.5.5 0 0 1-.06-.9l3.592-2.074a.5.5 0 0 1 .573.814l-1.188 1 3.759-2.17a.5.5 0 0 1 .55.833l-2.6 1.945 4.142-2.39a.5.5 0 0 1 .547.835l-4.467 3.295 5.752-3.321a.5.5 0 0 1 .528.848l-.951.638 1.413-.816a.5.5 0 0 1 .529.848l-2.1 1.416 2.5-1.441a.5.5 0 0 1 .528.847l-2.409 1.619 2.667-1.54a.5.5 0 0 1 .529.848l-2.775 1.873 2.9-1.677a.5.5 0 0 1 .542.839l-6.319 4.544 6.472-3.736a.5.5 0 0 1 .541.839l-5.587 4.009 5.4-3.12a.5.5 0 0 1 .532.846l-2.039 1.391L23.7 30a.5.5 0 0 1 .53.847l-.587.4a.5.5 0 0 1 .448.879l-2.355 1.723 1.244-.718a.5.5 0 0 1 .582.807l-2.356 2.09a.5.5 0 0 1 .19.929l-3.59 2.074a.5.5 0 0 1-.582-.806l1.986-1.763-4.989 2.881a.5.5 0 0 1-.247.062m29.615 19.953a.5.5 0 0 1-.313-.89l5.2-4.16-7.206 4.161a.5.5 0 0 1-.529-.848l.475-.318-.977.563a.5.5 0 0 1-.542-.839l5.457-3.916-6.281 3.626a.5.5 0 0 1-.533-.844l4.046-2.78-4.42 2.551a.5.5 0 0 1-.533-.845l4.378-3.013-4.578 2.642a.5.5 0 0 1-.533-.848l3.505-2.385-3.476 2.006a.5.5 0 0 1-.526-.85l.75-.5-.5.29a.5.5 0 0 1-.539-.841l4.62-3.277-4.251 2.457a.5.5 0 0 1-.547-.835l4.5-3.314-3.739 2.158a.5.5 0 0 1-.538-.842l.922-.649a.5.5 0 0 1-.489-.847l2.441-2.194a.5.5 0 0 1-.228-.932l3.591-2.074a.5.5 0 0 1 .584.8l-2.163 1.944 5.277-3.046a.5.5 0 0 1 .538.842l-.824.58 1.866-1.077a.5.5 0 0 1 .547.834l-4.5 3.322 5.772-3.332a.5.5 0 0 1 .539.841l-4.623 3.28 5.443-3.143a.5.5 0 0 1 .527.85l-.752.5 1-.576a.5.5 0 0 1 .531.846l-3.5 2.379 3.772-2.178a.5.5 0 0 1 .534.845l-4.38 3.014 4.534-2.617a.5.5 0 0 1 .533.845L49.407 49.5l4-2.307a.5.5 0 0 1 .542.839l-5.456 3.915 5.2-3a.5.5 0 0 1 .529.848l-.491.328a.5.5 0 0 1 .53.842l-5.2 4.158 4.06-2.344a.5.5 0 0 1 .575.813l-2.371 2.025.088-.051a.5.5 0 0 1 .5.866l-4.8 2.771a.5.5 0 0 1-.575-.812l2.369-2.024-5.067 2.926a.5.5 0 0 1-.251.065"/><path fill="#262626" d="M22.822 24.3c-6.812-9.308-22.616.8-16.1 10.783 3.365 5.505 11.992 5.571 15.832.642l14.2 9.469C28.8 59.518 53.89 65.523 54.725 49.805c.115-8.909-12.03-12.236-17.29-5.546l-14.209-9.473a9.1 9.1 0 0 0 .06-9.818l13.882-9.254c5.189 7.26 17.7 3.192 17.565-5.772-.844-16.164-25.847-9.033-18.039 5.11zm24.021 17.34c7.848 1.927 8.644 13.994.895 16.63-13.466 3.654-14.869-19.443-.895-16.63m-29.134-3.4c-13.463 3.626-14.813-19.35-.86-16.58 7.857 1.904 8.63 13.994.86 16.579zM37.842 5.673c3.972-7.453 15.652-3.819 15.424 4.385-.699 14.304-21.761 8.02-15.424-4.385"/></svg>