<svg xmlns="http://www.w3.org/2000/svg" width="512" height="512" viewBox="0 0 512 512"><path fill="#ff8086" d="M506.753 5.247 204.718 247.343l137.137 263.463c4.617-1.76 8.572-5.45 10.416-10.984L511.055 23.471c2.321-6.961.17-13.753-4.302-18.224"/><path fill="#ff646f" d="M231.965 280.035 506.753 5.247C502.282.776 495.49-1.376 488.529.945l-7.889 2.63-33.479 17.832L4.574 174.04l215 118.387 99.724 209.421c4.385 9.207 14.484 12.035 22.557 8.959l-109.887-230.77z"/><path fill="#fb4455" d="M46.565 165.679 434.177 36.475a90.85 90.85 0 0 0 35.507-21.944L480.64 3.575 12.178 159.729c-15.208 5.069-16.499 26.081-2.025 32.973l209.421 99.725 12.391-12.391L45.009 191.01a13.68 13.68 0 0 1 1.556-25.331"/></svg>