<svg xmlns="http://www.w3.org/2000/svg" width="682.667" height="682.667" viewBox="0 0 682.667 682.667"><defs><clipPath id="a" clipPathUnits="userSpaceOnUse"><path d="M0 512h512V0H0Z"/></clipPath></defs><g clip-path="url(#a)" transform="matrix(1.33333 0 0 -1.33333 0 682.667)"><path d="m0 0-462.396-154.132c-14.762-4.921-16.015-25.317-1.965-32.007l203.285-96.803 96.803-203.285c6.691-14.05 27.086-12.797 32.007 1.966L21.866-21.866C26.371-8.353 13.514 4.504 0 0" style="fill:#ff8086;fill-opacity:1;fill-rule:nonzero;stroke:none" transform="translate(481.717 503.583)"/><path d="m0 0-442.935-159.433-21.426-26.706 203.285-96.803L17.69-4.176C13.35.164 6.757 2.252 0 0" style="fill:#ff646f;fill-opacity:1;fill-rule:nonzero;stroke:none" transform="translate(481.717 503.583)"/><path d="m0 0-107.265 225.247-18.042-18.042L-28.505 3.919C-22.878-7.895-7.657-8.761 0 0" style="fill:#ff646f;fill-opacity:1;fill-rule:nonzero;stroke:none" transform="translate(345.949 13.437)"/><path d="M0 0c-14.762-4.921-16.015-25.316-1.965-32.006l203.286-96.804 18.042 18.043L64.407-36.98a18.25 18.25 0 0 0 2.075 33.789l313.153 104.382a104.2 104.2 0 0 1 40.732 25.173l20.637 20.637z" style="fill:#fb4455;fill-opacity:1;fill-rule:nonzero;stroke:none" transform="translate(19.32 349.451)"/><path d="m0 0-28.259-9.42c-14.763-4.921-16.016-25.316-1.966-32.007l203.286-96.802 96.803-203.286c6.69-14.05 27.086-12.798 32.007 1.965l154.131 462.396c4.505 13.514-8.352 26.371-21.866 21.866L32.064 10.688" style="fill:none;stroke:#000;stroke-width:15;stroke-linecap:round;stroke-linejoin:round;stroke-miterlimit:10;stroke-dasharray:none;stroke-opacity:1" transform="translate(47.58 358.871)"/><path d="m0 0 242.077 242.077" style="fill:none;stroke:#000;stroke-width:15;stroke-linecap:round;stroke-linejoin:round;stroke-miterlimit:10;stroke-dasharray:none;stroke-opacity:1" transform="translate(222.342 222.342)"/></g></svg>