<svg xmlns="http://www.w3.org/2000/svg" xml:space="preserve" viewBox="0 0 512.001 512.001"><path d="m359.736 158.439 115.73 16.093c26.037 3.62 36.621 35.526 17.909 53.991l-83.169 82.069a31.72 31.72 0 0 0-8.95 28.129l20.457 115.039c4.603 25.882-22.471 45.807-45.814 33.716L272.146 433.74a31.71 31.71 0 0 0-29.517.181l-103.087 55.005c-23.193 12.375-50.508-7.216-46.224-33.152l19.045-115.281a31.72 31.72 0 0 0-9.294-28.017l-84.168-81.044c-18.937-18.234-8.745-50.267 17.246-54.206l115.524-17.51a31.72 31.72 0 0 0 23.774-17.496l51.069-105.092c11.49-23.645 45.103-23.85 56.883-.349l52.352 104.459a31.72 31.72 0 0 0 23.987 17.201" style="fill:#ffd92d"/><path d="M121.015 216.636c0-18.048 1.798-35.636 4.438-52.947l-89.306 13.534c-25.992 3.94-36.182 35.972-17.246 54.207l84.172 81.045a31.71 31.71 0 0 1 9.29 28.017L93.318 455.773c-4.287 25.936 23.033 45.527 46.224 33.152l72.007-38.422c-56.078-61.903-90.534-143.76-90.534-233.867" style="fill:#ffe571"/><path d="M493.378 228.524c18.71-18.464 8.125-50.37-17.91-53.991l-115.731-16.094a31.7 31.7 0 0 1-23.985-17.204L283.4 36.776c-11.784-23.501-45.398-23.296-56.884.349l-21.785 44.821c74.297 49.588 123.276 134.128 123.276 230.154 0 48.197-12.38 93.478-34.048 132.935l81.94 42.44c23.342 12.09 50.417-7.834 45.816-33.716l-20.461-115.038a31.73 31.73 0 0 1 8.95-28.129z" style="fill:#ffa81e"/><path d="M499.805 235.052c11.155-11.008 15.02-27.086 10.086-41.96-4.935-14.875-17.642-25.455-33.163-27.613-4.996-.687-9.633 2.798-10.329 7.807-.696 5.008 2.799 9.633 7.807 10.329 8.698 1.208 15.541 6.908 18.307 15.242 2.766 8.336.685 16.996-5.567 23.164l-83.169 82.069a40.86 40.86 0 0 0-11.533 36.249l20.457 115.039c1.538 8.646-1.766 16.914-8.84 22.12-7.075 5.207-15.951 5.901-23.75 1.863l-103.753-53.737a40.86 40.86 0 0 0-38.037.233l-103.087 55.005c-7.75 4.134-16.635 3.547-23.772-1.572s-10.543-13.348-9.112-22.01l19.047-115.281a40.86 40.86 0 0 0-11.976-36.104L25.253 224.85c-6.327-6.091-8.514-14.724-5.85-23.093 2.662-8.369 9.435-14.152 18.119-15.468l115.525-17.51a40.88 40.88 0 0 0 30.637-22.546l51.069-105.095c3.838-7.899 11.371-12.646 20.154-12.699h.151c8.718 0 16.247 4.647 20.159 12.453l52.353 104.459a40.86 40.86 0 0 0 30.909 22.169l28.135 3.912c5.001.699 9.633-2.798 10.329-7.807.696-5.008-2.799-9.633-7.807-10.329l-28.135-3.912a22.56 22.56 0 0 1-17.063-12.237L291.583 32.688C284.6 18.755 270.619 10.13 255.051 10.13h-.259c-15.672.096-29.661 8.913-36.51 23.008l-51.067 105.094a22.56 22.56 0 0 1-16.912 12.447L34.776 168.186c-15.495 2.348-28.071 13.085-32.823 28.018s-.69 30.964 10.599 41.832l84.168 81.045a22.56 22.56 0 0 1 6.611 19.93L84.286 454.294c-2.555 15.462 3.771 30.742 16.504 39.874 7.126 5.111 15.43 7.703 23.785 7.703 6.577 0 13.186-1.606 19.275-4.856l103.088-55.005a22.54 22.54 0 0 1 20.997-.128l103.753 53.737c13.913 7.204 30.399 5.915 43.024-3.376 12.621-9.289 18.757-24.645 16.012-40.073l-20.457-115.039a22.56 22.56 0 0 1 6.367-20.01z" style="fill:#1c2042"/><path d="m444.748 179.518 6.095.847q.642.089 1.273.088a9.157 9.157 0 0 0 1.249-18.224l-6.095-.847c-4.999-.687-9.632 2.798-10.329 7.807-.696 5.007 2.8 9.632 7.807 10.329" style="fill:#1c2042"/><path d="M132.884 447.394a9.155 9.155 0 0 1-7.248-10.728l11.354-58.645a9.155 9.155 0 0 1 10.728-7.248 9.155 9.155 0 0 1 7.248 10.728l-11.354 58.645c-.96 4.964-5.763 8.208-10.728 7.248m17.712-91.478a9.155 9.155 0 0 1-7.248-10.728l1.179-6.091a9.155 9.155 0 0 1 10.728-7.248 9.155 9.155 0 0 1 7.248 10.728l-1.179 6.091a9.153 9.153 0 0 1-10.728 7.248" style="fill:#fff"/></svg>