<svg xmlns="http://www.w3.org/2000/svg" xml:space="preserve" viewBox="0 0 512.001 512.001"><path d="M499.805 235.052c11.155-11.008 15.02-27.086 10.086-41.96-4.935-14.875-17.642-25.455-33.163-27.613-4.996-.687-9.633 2.798-10.329 7.807-.696 5.008 2.799 9.633 7.807 10.329 8.698 1.208 15.541 6.908 18.307 15.242 2.766 8.336.685 16.996-5.567 23.164l-83.169 82.069a40.85 40.85 0 0 0-11.532 36.249l20.456 115.039c1.538 8.646-1.766 16.914-8.84 22.12-7.075 5.207-15.951 5.901-23.75 1.863l-103.753-53.737a40.86 40.86 0 0 0-38.037.233l-103.087 55.005c-7.75 4.134-16.635 3.547-23.772-1.572s-10.543-13.348-9.112-22.01l19.047-115.281a40.86 40.86 0 0 0-11.976-36.104L25.253 224.85c-6.327-6.091-8.514-14.724-5.85-23.093 2.662-8.369 9.435-14.152 18.119-15.468l115.525-17.51a40.88 40.88 0 0 0 30.637-22.546l51.069-105.095c3.838-7.899 11.371-12.646 20.154-12.699h.151c8.718 0 16.247 4.647 20.159 12.453l52.353 104.459a40.86 40.86 0 0 0 30.909 22.169l28.135 3.912c5.001.699 9.633-2.798 10.329-7.807.696-5.008-2.799-9.633-7.807-10.329l-28.135-3.912a22.56 22.56 0 0 1-17.063-12.237L291.583 32.688C284.6 18.755 270.619 10.13 255.051 10.13h-.259c-15.672.096-29.661 8.913-36.51 23.008l-51.067 105.094a22.57 22.57 0 0 1-16.912 12.447L34.776 168.186c-15.495 2.348-28.071 13.085-32.823 28.018s-.69 30.964 10.599 41.832l84.168 81.045a22.56 22.56 0 0 1 6.611 19.93L84.286 454.294c-2.555 15.462 3.771 30.742 16.504 39.874 7.126 5.111 15.43 7.703 23.785 7.703 6.577 0 13.186-1.606 19.275-4.856l103.088-55.005a22.54 22.54 0 0 1 20.997-.128l103.753 53.737c13.913 7.204 30.398 5.915 43.023-3.376 12.621-9.289 18.757-24.645 16.012-40.073l-20.457-115.039a22.56 22.56 0 0 1 6.367-20.01z"/><path d="m453.364 162.229-6.095-.847c-4.998-.687-9.632 2.798-10.329 7.807-.696 5.007 2.8 9.632 7.807 10.329l6.095.847q.642.089 1.273.088a9.157 9.157 0 0 0 1.249-18.224"/></svg>