<svg xmlns="http://www.w3.org/2000/svg" xml:space="preserve" viewBox="0 0 512 512"><path d="M510.967 196.781c-2.56-7.875-9.271-13.243-17.518-14.008l-156.535-14.518-31.029-72.054a7.5 7.5 0 0 0-9.854-3.922 7.5 7.5 0 0 0-3.922 9.853l32.791 76.144a7.5 7.5 0 0 0 6.196 4.501l160.969 14.929c3.194.296 4.307 2.692 4.638 3.708s.838 3.608-1.572 5.725L373.678 313.835a7.5 7.5 0 0 0-2.366 7.284l35.545 157.703c.705 3.13-1.229 4.929-2.095 5.557-.864.628-3.17 1.915-5.931.274l-139.003-82.537a7.5 7.5 0 0 0-7.657 0l-139.003 82.537c-2.76 1.642-5.066.354-5.931-.274s-2.8-2.427-2.095-5.556l18.348-81.406a7.5 7.5 0 0 0-5.667-8.965 7.497 7.497 0 0 0-8.965 5.667L90.51 475.526c-1.82 8.078 1.211 16.12 7.91 20.988 6.699 4.866 15.285 5.265 22.404 1.037l135.174-80.265 135.174 80.265c3.28 1.947 6.87 2.913 10.443 2.913 4.185 0 8.347-1.325 11.96-3.95 6.7-4.868 9.73-12.909 7.91-20.989l-34.565-153.36L505.029 218.41c6.222-5.466 8.496-13.753 5.938-21.629"/><path d="m292.101 64.195-17.367-40.328c-3.276-7.606-10.454-12.33-18.736-12.33-8.28 0-15.459 4.725-18.735 12.331l-62.18 144.388-156.532 14.517c-8.245.765-14.958 6.132-17.518 14.008-2.559 7.875-.284 16.163 5.938 21.629l118.106 103.755-8.991 39.892a7.5 7.5 0 0 0 5.667 8.965q.835.187 1.656.186a7.5 7.5 0 0 0 7.309-5.853l9.97-44.237a7.5 7.5 0 0 0-2.366-7.284L16.87 207.141c-2.41-2.117-1.902-4.709-1.571-5.725s1.442-3.412 4.637-3.708l160.968-14.929a7.5 7.5 0 0 0 6.196-4.501l63.94-148.477c1.269-2.946 3.891-3.265 4.959-3.265 1.069 0 3.691.318 4.96 3.264l17.367 40.327a7.5 7.5 0 1 0 13.775-5.932"/></svg>