<svg xmlns="http://www.w3.org/2000/svg" xml:space="preserve" viewBox="0 0 512.001 512.001"><path d="m363.581 154.823 120.02 16.689c27.002 3.755 37.979 36.843 18.573 55.992l-86.251 85.111a32.9 32.9 0 0 0-9.281 29.172l21.215 119.303c4.774 26.842-23.303 47.504-47.512 34.966l-107.599-55.729a32.89 32.89 0 0 0-30.611.187l-106.91 57.046c-24.053 12.833-52.381-7.484-47.937-34.381l19.751-119.554a32.89 32.89 0 0 0-9.638-29.056L10.114 230.52C-9.525 211.61 1.045 178.39 28 174.305l119.806-18.159a32.89 32.89 0 0 0 24.655-18.145l52.962-108.988c11.916-24.521 46.775-24.734 58.991-.362l54.292 108.331a32.89 32.89 0 0 0 24.875 17.841" style="fill:#ffd92d"/><path d="M116.012 215.178c0-18.717 1.865-36.957 4.603-54.91l-92.616 14.036C1.042 178.39-9.525 211.609 10.112 230.52l87.292 84.049a32.89 32.89 0 0 1 9.635 29.056l-19.75 119.554c-4.446 26.897 23.887 47.215 47.937 34.381l74.676-39.846c-58.157-64.198-93.89-149.09-93.89-242.536" style="fill:#ffe571"/><path d="M502.176 227.506c19.403-19.149 8.426-52.238-18.574-55.992l-120.021-16.691a32.88 32.88 0 0 1-24.874-17.841L284.416 28.65c-12.221-24.372-47.08-24.159-58.992.362l-22.592 46.483c77.051 51.426 127.846 139.099 127.846 238.685 0 49.983-12.838 96.943-35.31 137.862l84.977 44.013c24.207 12.538 52.286-8.124 47.515-34.966l-21.22-119.302a32.9 32.9 0 0 1 9.281-29.172z" style="fill:#ffa81e"/></svg>