<svg xmlns="http://www.w3.org/2000/svg" width="512" height="512" data-name="Layer 3" viewBox="0 0 64 64"><path fill="#9b2056" d="M5.653 25.391A12.84 12.84 0 0 1 13.114 23a12.84 12.84 0 0 1 7.12 2.156l6.444 4.3A9.2 9.2 0 0 0 31.791 31a9.22 9.22 0 0 0 6.966-3.181l7.574-8.739A8.93 8.93 0 0 1 53.075 16 8.925 8.925 0 0 1 62 24.925a30 30 0 0 1-3.163 13.4L56 44H8l-1.466-1.321A13.72 13.72 0 0 1 2 32.489a8.72 8.72 0 0 1 3.653-7.098"/><path fill="#b72965" d="M57.376 17.105a9 9 0 0 0-1.3-.105 8.93 8.93 0 0 0-6.744 3.08l-7.574 8.739A9.15 9.15 0 0 1 30.476 30.9a9.2 9.2 0 0 1-3.8-1.451l-6.444-4.3a13 13 0 0 0-1.577-.894 12.75 12.75 0 0 0-10 2.129A8.72 8.72 0 0 0 5 33.489a13.72 13.72 0 0 0 4.534 10.19L9.89 44H56l2.837-5.674A30 30 0 0 0 62 24.925a8.92 8.92 0 0 0-4.624-7.82"/><path fill="#77787c" d="M8 44v4h7v-4"/><path fill="#dd5697" d="m49 44 4.183-6.275A22.7 22.7 0 0 0 57 25.119 4.12 4.12 0 0 0 52.881 21a4.12 4.12 0 0 0-3.113 1.421l-7.83 9.035A13.17 13.17 0 0 1 31.987 36a13.17 13.17 0 0 1-7.3-2.212l-6.7-4.469A7.87 7.87 0 0 0 13.622 28 7.86 7.86 0 0 0 8.9 29.573a4.76 4.76 0 0 0-1.9 3.8 7.98 7.98 0 0 0 2.727 6.009L15 44"/><path fill="#5a5b5d" d="M8 44h7v2H8z"/><path fill="#77787c" d="M49 44v4h7v-4"/><path fill="#5a5b5d" d="M49 44h7v2h-7z"/><path d="M53.075 15a9.92 9.92 0 0 0-7.5 3.425L38 27.164a8.22 8.22 0 0 1-10.768 1.456l-6.443-4.3a13.84 13.84 0 0 0-15.717.253A9.74 9.74 0 0 0 1 32.488a14.74 14.74 0 0 0 4.865 10.934L7 44.445V48a1 1 0 0 0 1 1h7a1 1 0 0 0 1-1v-3h32v3a1 1 0 0 0 1 1h7a1 1 0 0 0 1-1v-3.764l2.731-5.463A31.1 31.1 0 0 0 63 24.925 9.936 9.936 0 0 0 53.075 15M14 47H9v-2h5zm1.376-4-4.991-4.367A6.98 6.98 0 0 1 8 33.377a3.78 3.78 0 0 1 1.5-3 7.01 7.01 0 0 1 7.923-.222l6.7 4.469a14.17 14.17 0 0 0 18.566-2.509l7.829-9.035A3.12 3.12 0 0 1 56 25.119a21.66 21.66 0 0 1-3.649 12.052L48.465 43zM50 47v-2h5v2zm7.942-9.121L55.382 43h-4.513l3.146-4.72A23.65 23.65 0 0 0 58 25.119a5.12 5.12 0 0 0-8.988-3.353l-7.83 9.034a12.17 12.17 0 0 1-15.945 2.155l-6.7-4.469a8.86 8.86 0 0 0-10.237.287 5.79 5.79 0 0 0-2.3 4.6 9 9 0 0 0 3.068 6.762L12.338 43H8.384L7.2 41.936A12.74 12.74 0 0 1 3 32.488 7.74 7.74 0 0 1 6.234 26.2a11.84 11.84 0 0 1 13.445-.216l6.444 4.3a10.22 10.22 0 0 0 13.39-1.809l7.574-8.74A7.924 7.924 0 0 1 61 24.925a29.1 29.1 0 0 1-3.058 12.954"/></svg>