<svg xmlns="http://www.w3.org/2000/svg" width="512" height="512" viewBox="0 0 64 64"><path fill="#f0bc5e" d="m49 14 5.379 12h.469c2.808 0 5.12-2.212 5.152-4.893l.003-.107c0-.788-.187-1.546-.523-2.224A5.01 5.01 0 0 0 63 14a4.95 4.95 0 0 0-1.298-3.336C61.9 10.124 62 9.566 62 9a5.006 5.006 0 0 0-6.652-4.72A6.01 6.01 0 0 0 50 1a5.96 5.96 0 0 0-3.672 1.277 4.994 4.994 0 0 0-7.988 1.906 5.006 5.006 0 0 0-6.057 6.476A4.98 4.98 0 0 0 31 14zm-4 29.399-3.969 4.962A4.7 4.7 0 0 0 40 51.299c0 1.19.459 2.265 1.19 3.094 1.137.388 2.405.607 3.761.607 1.325 0 2.585-.145 3.726-.446A4.68 4.68 0 0 0 50 51.299a4.72 4.72 0 0 0-1.03-2.938z"/><path d="m26.239 32.417 1.837-.794.794 1.836-1.837.794zm1.591 3.671 1.836-.794.794 1.836-1.837.794zm1.616 3.663 1.837-.796.72 1.66-1.837.797zM41 17v2h4.762l3.326 7.419 1.824-.818L47.057 17z"/><path d="M63 42.786 49.647 13H14.353L1 42.786V45h34.703c-.416.894-.703 1.89-.703 3.049 0 1.545.507 2.955 1.387 4.15l-9.094 9.094 1.414 1.414 9.057-9.057a9.4 9.4 0 0 0 1.671 1.089l-4.278 6.724 1.688 1.074 4.486-7.05a12.5 12.5 0 0 0 2.627.476L44 63.006l2-.012-.043-7.024a14.5 14.5 0 0 0 3.075-.477l5.159 7.095 1.617-1.176-4.84-6.656a8 8 0 0 0 1.442-.932l8.883 8.883 1.414-1.414-8.945-8.945C54.566 51.164 55 49.723 55 48.049c0-1.038-.233-2.055-.59-3.049H63zm-39.549-2.208A32.2 32.2 0 0 1 16 20v-1.176L26.476 43h-1.008zM22.865 43H7.135l.951-1.141A34.2 34.2 0 0 0 15 28.155c1.233 5 3.58 9.702 6.914 13.703zM14 18.675V20a32.2 32.2 0 0 1-7.451 20.579L4.532 43H3.096zm23 29.374c0-1.816.982-3.158 2.021-4.579.686-.935 1.387-1.893 1.741-2.978.622.365 1.238.893 1.238 1.508v1h2v-1c0-.721-.253-1.332-.626-1.841.796-1.911 2.691-3.133 3.893-3.744.431 1.236 1.334 2.579 2.335 4.068C51.194 42.852 53 45.536 53 48.049 53 53.227 47.957 54 44.951 54 40.418 54 37 51.441 37 48.049M53.514 43c-.673-1.267-1.481-2.485-2.253-3.633C50.149 37.714 49 36.005 49 35v-1.398l-1.323.452c-.187.063-4.128 1.444-5.868 4.74a7.7 7.7 0 0 0-1.507-.698L39 37.683v1.366c0 1.065-.737 2.073-1.592 3.24q-.255.347-.512.711h-8.239L16.524 15h31.829l12.552 28zM8 15c3.859 0 7-3.141 7-7s-3.141-7-7-7H7v1.756l.251.283C7.734 3.586 8 4.282 8 5c0 1.654-1.346 3-3 3a2.96 2.96 0 0 1-1.961-.749L2.756 7H1v1c0 3.859 3.141 7 7 7m-3-5c2.757 0 5-2.243 5-5 0-.586-.104-1.162-.305-1.704A5.01 5.01 0 0 1 13 8c0 2.757-2.243 5-5 5a5.01 5.01 0 0 1-4.704-3.305A4.9 4.9 0 0 0 5 10"/><path d="M37 17h2v2h-2zm-4 0h2v2h-2z"/></svg>