<svg xmlns="http://www.w3.org/2000/svg" width="512" height="512" viewBox="0 0 64 64"><path d="m27.83 36.088 1.836-.794.794 1.836-1.837.794zm1.616 3.663 1.837-.796.72 1.66-1.837.797zm-3.207-7.334 1.837-.794.794 1.836-1.837.794zM41 17v2h4.762l3.326 7.419 1.824-.818L47.057 17zM8 15c3.859 0 7-3.141 7-7s-3.141-7-7-7H7v1.756l.251.283C7.734 3.586 8 4.282 8 5c0 1.654-1.346 3-3 3a2.96 2.96 0 0 1-1.961-.749L2.756 7H1v1c0 3.859 3.141 7 7 7m-3-5c2.757 0 5-2.243 5-5 0-.586-.104-1.162-.305-1.704A5.01 5.01 0 0 1 13 8c0 2.757-2.243 5-5 5a5.01 5.01 0 0 1-4.704-3.305A4.9 4.9 0 0 0 5 10"/><path d="m60.001 21.107.002-.107c0-.797-.192-1.562-.536-2.245C61.505 18.124 63 16.243 63 14a4.95 4.95 0 0 0-1.298-3.336C61.9 10.124 62 9.566 62 9c0-2.757-2.243-5-5-5-.569 0-1.124.107-1.653.292A6 6 0 0 0 50 1a5.96 5.96 0 0 0-3.672 1.277A5 5 0 0 0 43 1a4.98 4.98 0 0 0-4.65 3.209A5 5 0 0 0 37 4c-2.757 0-5 2.243-5 5 0 .572.105 1.138.295 1.673A4.97 4.97 0 0 0 31.101 13H14.353L1 42.786V45h34.703c-.416.894-.703 1.89-.703 3.049 0 1.545.507 2.955 1.387 4.15l-9.094 9.094 1.414 1.414 9.057-9.057a9.4 9.4 0 0 0 1.671 1.089l-4.278 6.724 1.688 1.074 4.486-7.05a12.5 12.5 0 0 0 2.627.476L44 63.006l2-.012-.043-7.024a14.5 14.5 0 0 0 3.075-.477l5.159 7.095 1.617-1.176-4.84-6.656a8 8 0 0 0 1.442-.932l8.883 8.883 1.414-1.414-8.945-8.945C54.566 51.164 55 49.723 55 48.049c0-1.038-.233-2.055-.59-3.049H63v-2.214l-7.551-16.845c2.526-.291 4.522-2.349 4.552-4.834M36 11V9c-.692 0-1.351.142-1.951.397C34.031 9.265 34 9.136 34 9c0-1.654 1.346-3 3-3s3 1.346 3 3h2c0-1.567-.739-2.95-1.871-3.868a2.993 2.993 0 0 1 5.321-.853l.729 1.033.837-.947C47.795 3.485 48.854 3 50 3c2.206 0 4 1.794 4 4s-1.794 4-4 4v2c3.309 0 6-2.691 6-6 0-.272-.024-.537-.06-.799A3 3 0 0 1 57 6c1.654 0 3 1.346 3 3 0 .482-.128.961-.379 1.422l-.399.732.649.524A2.98 2.98 0 0 1 61 14c0 1.654-1.346 3-3 3v.003a5 5 0 0 0-1.311-.711l-.674 1.883c1.188.426 1.987 1.562 1.986 2.87-.02 1.63-1.434 2.955-3.152 2.955h-.27l-4.931-11H33.184A3 3 0 0 1 36 11M23.451 40.578A32.2 32.2 0 0 1 16 20v-1.176L26.476 43h-1.008zM22.865 43H7.135l.951-1.141A34.2 34.2 0 0 0 15 28.155c1.233 5 3.58 9.702 6.914 13.703zM14 18.675V20a32.2 32.2 0 0 1-7.451 20.579L4.532 43H3.096zm23 29.374c0-1.816.982-3.158 2.021-4.579.686-.935 1.387-1.893 1.741-2.978.622.365 1.238.893 1.238 1.508v1h2v-1c0-.721-.253-1.332-.626-1.841.796-1.911 2.691-3.133 3.893-3.744.431 1.236 1.334 2.579 2.335 4.068C51.194 42.852 53 45.536 53 48.049c0 2.852-1.532 4.363-3.409 5.15a4.7 4.7 0 0 0 .409-1.9 4.72 4.72 0 0 0-1.03-2.938L45 43.399l-3.969 4.962A4.7 4.7 0 0 0 40 51.299c0 .579.119 1.127.312 1.64-2.03-1.057-3.312-2.816-3.312-4.89M44.951 54c-.13 0-.256-.009-.384-.014A2.697 2.697 0 0 1 42 51.299c0-.611.21-1.211.593-1.688L45 46.601l2.408 3.011c.382.476.592 1.076.592 1.687a2.7 2.7 0 0 1-2.631 2.694q-.215.006-.418.007m8.563-11c-.673-1.267-1.481-2.485-2.253-3.633C50.149 37.714 49 36.005 49 35v-1.398l-1.323.452c-.187.063-4.128 1.444-5.868 4.74a7.7 7.7 0 0 0-1.507-.698L39 37.683v1.366c0 1.065-.737 2.073-1.592 3.24q-.255.347-.512.711h-8.239L16.524 15h31.829l12.552 28z"/><path d="M37 17h2v2h-2zm-4 0h2v2h-2z"/></svg>