<svg xmlns="http://www.w3.org/2000/svg" width="682.667" height="682.667" viewBox="0 0 682.667 682.667"><defs><clipPath id="a" clipPathUnits="userSpaceOnUse"><path d="M0 512h512V0H0Z"/></clipPath></defs><g clip-path="url(#a)" transform="matrix(1.33333 0 0 -1.33333 0 682.667)"><path d="M0 0a28.1 28.1 0 0 0 9.764-1.747v55.156h-26.411V-5.434A28.1 28.1 0 0 0 0 0" style="fill:#b78046;fill-opacity:1;fill-rule:nonzero;stroke:none" transform="translate(422.387 116.317)"/><path d="M0 0a15 15 0 0 1-4.437-.612c-1.842-.545-3.839.397-4.575 2.173-3.337 8.057-11.131 13.883-20.21 14.323a23 23 0 0 1-8.185-1.072c-2.169-.697-4.473.3-5.59 2.286-4.884 8.676-14.16 14.545-24.826 14.545-13.193 0-24.246-8.977-27.493-21.145l24.728-40.795H-.185c8.573 0 15.483 7.122 15.137 15.772C14.633-6.575 7.956-.097 0 0" style="fill:#99cc56;fill-opacity:1;fill-rule:nonzero;stroke:none" transform="translate(489.517 86.194)"/><path d="M0 0c-.444 14.957-13.109 26.667-28.073 26.667h-11.021a14.36 14.36 0 0 0-12.279 6.916l-14.452 23.841c-6.574-3.724-11.524-9.985-13.519-17.462L-54.615-.832H.003C.003-.555.008-.279 0 0" style="fill:#8dbc42;fill-opacity:1;fill-rule:nonzero;stroke:none" transform="translate(473.544 56.729)"/><path d="M0 0c-4.83 17.235-12.65 36.851-22.964 53.618-1.625 2.643.278 6.038 3.38 6.038h14.731c2.907 0 4.832 3.012 3.601 5.645-5.174 11.071-17.411 36.272-30.422 56.02-1.742 2.644.143 6.159 3.31 6.159h12.934c3.021 0 4.936 3.234 3.481 5.882-7.701 14.017-29.208 50.661-60.147 83.283a3.956 3.956 0 0 1-5.728 0c-12.59-13.274-24.616-27.214-33.787-40.025 11.468-16.79 19.5-30.87 23.38-38 1.232-2.267-.41-5.022-2.991-5.022h-16.201c-2.724 0-4.332-3.036-2.82-5.302 14.333-21.481 27.906-49.679 33.085-60.823 1.048-2.254-.6-4.831-3.085-4.831h-17.944c-2.667 0-4.299-2.932-2.883-5.193C-89.742 39.354-81.219 17.916-76.083-.729c.595-2.16-1.043-4.289-3.284-4.289H-3.83C-1.21-5.018.707-2.522 0 0" style="fill:#56bb98;fill-opacity:1;fill-rule:nonzero;stroke:none" transform="translate(493.905 173.744)"/><path d="M0 0h24.137a23.3 23.3 0 0 1-.571 9.599c-3.764 13.67-8.749 27.23-14.572 39.793a23.33 23.33 0 0 1 10.859 9.082c4.319 6.77 4.877 15.16 1.494 22.444-3.664 7.885-11.404 24.044-20.751 40.707a23.4 23.4 0 0 1 8.668 8.435c4.195 7.057 4.364 15.921.438 23.138-4.885 8.977-14.656 25.973-28.539 45.659-4.884-5.855-9.416-11.644-13.407-17.219 11.469-16.79 19.5-30.87 23.38-38 1.232-2.267-.409-5.022-2.99-5.022h-16.202c-2.724 0-4.332-3.035-2.82-5.302C-16.543 111.833-2.97 83.635 2.209 72.491c1.048-2.254-.601-4.831-3.086-4.831h-17.942c-2.668 0-4.3-2.931-2.884-5.193C-10.375 44.372-1.852 22.934 3.284 4.289 3.879 2.13 2.24 0 0 0" style="fill:#57aa8f;fill-opacity:1;fill-rule:nonzero;stroke:none" transform="translate(414.538 168.726)"/><path d="M0 0h16.202c2.724 0 4.331-3.035 2.819-5.3-4.344-6.511-9.616-13.638-13.607-20.721l68.252-112.594h65.286c2.241 0 3.879 2.129 3.284 4.289-5.134 18.645-13.659 40.082-24.987 58.178-1.416 2.261.216 5.193 2.884 5.193h17.943c2.485 0 4.133 2.577 3.085 4.83-5.179 11.145-18.752 39.344-33.084 60.825-1.513 2.265.095 5.3 2.819 5.3h16.203c2.58 0 4.222 2.756 2.989 5.022-7.514 13.806-30.554 53.645-64.086 88.832a3.395 3.395 0 0 1-4.906 0C27.564 58.667 4.523 18.828-2.989 5.022-4.224 2.756-2.581 0 0 0" style="fill:#54cca1;fill-opacity:1;fill-rule:nonzero;stroke:none" transform="translate(276.585 307.341)"/><path d="M0 0h14.028L3.774 16.916A392 392 0 0 1-2.989 5.022C-4.224 2.755-2.581 0 0 0" style="fill:#56bb98;fill-opacity:1;fill-rule:nonzero;stroke:none" transform="translate(276.585 307.342)"/><path d="M0 0h24.388l-79.971 131.926c-4.149-6.13-8.958-12.747-12.67-19.332z" style="fill:#56bb98;fill-opacity:1;fill-rule:nonzero;stroke:none" transform="translate(350.251 168.726)"/><path d="M0 0h-385.723l180.08 297.075a14.947 14.947 0 0 0 25.562 0z" style="fill:#fcb75b;fill-opacity:1;fill-rule:nonzero;stroke:none" transform="translate(419.646 55.897)"/><path d="M0 0h-385.723l180.08 297.075a14.947 14.947 0 0 0 25.562 0z" style="fill:#fed159;fill-opacity:1;fill-rule:nonzero;stroke:none" transform="translate(419.646 55.897)"/><path d="M0 0a14.94 14.94 0 0 1-10.006 3.853 14.95 14.95 0 0 1-12.781-7.198l-180.08-297.075h20.012L-2.775-3.345A14.9 14.9 0 0 0 0 0" style="fill:#fcb75b;fill-opacity:1;fill-rule:nonzero;stroke:none" transform="translate(236.79 356.317)"/><path d="M0 0c-4.936 0-9.872-2.399-12.781-7.198l-180.08-297.075H0Z" style="fill:#fcb75b;fill-opacity:1;fill-rule:nonzero;stroke:none" transform="translate(226.785 360.17)"/><path d="M0 0c-4.936 0-9.872-2.399-12.781-7.198l-180.08-297.075h20.333L0-19.658Z" style="fill:#ed9a37;fill-opacity:1;fill-rule:nonzero;stroke:none" transform="translate(226.785 360.17)"/><path d="M0 0v-62.291L70.531 8.24H8.24A8.24 8.24 0 0 1 0 0" style="fill:#fed159;fill-opacity:1;fill-rule:nonzero;stroke:none" transform="translate(156.253 118.188)"/><path d="M0 0c0-19.272-15.623-34.896-34.896-34.896-19.272 0-34.896 15.624-34.896 34.896s15.624 34.896 34.896 34.896C-15.623 34.896 0 19.272 0 0" style="fill:#fed159;fill-opacity:1;fill-rule:nonzero;stroke:none" transform="translate(142.35 388.194)"/><path d="M0 0c0 15.796 10.498 29.133 24.896 33.434a34.9 34.9 0 0 1-10 1.462C-4.376 34.896-20 19.272-20 0s15.624-34.896 34.896-34.896c3.476 0 6.831.515 10 1.462C10.498-29.134 0-15.796 0 0" style="fill:#fcb75b;fill-opacity:1;fill-rule:nonzero;stroke:none" transform="translate(92.558 388.194)"/><path d="m0 0-70.531-70.531H0Z" style="fill:#616584;fill-opacity:1;fill-rule:nonzero;stroke:none" transform="translate(226.785 126.428)"/><path d="m0 0-70.531-70.531h21L0-21Z" style="fill:#4d5370;fill-opacity:1;fill-rule:nonzero;stroke:none" transform="translate(226.785 126.428)"/><path d="M0 0h412.133" style="fill:none;stroke:#000;stroke-width:15;stroke-linecap:round;stroke-linejoin:round;stroke-miterlimit:10;stroke-dasharray:none;stroke-opacity:1" transform="translate(7.516 55.897)"/><path d="M0 0h-385.722l180.08 297.075c5.818 9.598 19.744 9.598 25.562 0z" style="fill:none;stroke:#000;stroke-width:15;stroke-linecap:round;stroke-linejoin:round;stroke-miterlimit:10;stroke-dasharray:none;stroke-opacity:1" transform="translate(419.649 55.897)"/><path d="M0 0c-4.936 0-9.872-2.399-12.781-7.198l-180.08-297.075H0Z" style="fill:none;stroke:#000;stroke-width:15;stroke-linecap:round;stroke-linejoin:round;stroke-miterlimit:10;stroke-dasharray:none;stroke-opacity:1" transform="translate(226.788 360.17)"/><path d="M0 0v-62.291L70.531 8.24H8.24A8.24 8.24 0 0 1 0 0" style="fill:none;stroke:#000;stroke-width:15;stroke-linecap:round;stroke-linejoin:round;stroke-miterlimit:10;stroke-dasharray:none;stroke-opacity:1" transform="translate(156.257 118.188)"/><path d="M0 0c-4.831 17.235-12.651 36.851-22.964 53.618-1.625 2.643.278 6.038 3.379 6.038h14.731c2.907 0 4.833 3.012 3.602 5.645-5.174 11.071-17.411 36.272-30.422 56.02-1.742 2.644.143 6.159 3.309 6.159h12.934c3.022 0 4.936 3.234 3.481 5.882-7.701 14.017-29.208 50.661-60.146 83.283a3.956 3.956 0 0 1-5.728 0c-12.59-13.274-23.617-27.214-32.788-40.025 11.468-16.79 19.5-30.87 23.381-38 1.232-2.267-.411-5.022-2.991-5.022h-16.202c-2.723 0-4.331-3.036-2.819-5.302 14.332-21.481 27.905-49.679 33.085-60.823 1.047-2.254-.601-4.831-3.086-4.831h-17.943c-2.667 0-4.3-2.932-2.884-5.193C-88.742 39.354-80.219 17.916-75.083-.729c.595-2.16-1.044-4.289-3.284-4.289H-3.83C-1.21-5.018.707-2.522 0 0" style="fill:none;stroke:#000;stroke-width:15;stroke-linecap:round;stroke-linejoin:round;stroke-miterlimit:10;stroke-dasharray:none;stroke-opacity:1" transform="translate(493.909 173.744)"/><path d="M0 0h16.202c2.724 0 4.331-3.035 2.819-5.3-4.343-6.511-8.615-13.638-12.607-20.721l68.252-112.594h64.287c2.24 0 3.879 2.129 3.283 4.289-5.134 18.645-13.658 40.082-24.987 58.178-1.415 2.261.217 5.193 2.885 5.193h17.942c2.486 0 4.133 2.577 3.086 4.83C135.983-54.98 122.41-26.781 108.077-5.3c-1.512 2.265.096 5.3 2.819 5.3h16.203c2.58 0 4.222 2.756 2.989 5.022-7.513 13.806-30.554 53.645-64.086 88.832a3.394 3.394 0 0 1-4.905 0C27.564 58.667 4.524 18.828-2.989 5.022-4.223 2.756-2.581 0 0 0" style="fill:none;stroke:#000;stroke-width:15;stroke-linecap:round;stroke-linejoin:round;stroke-miterlimit:10;stroke-dasharray:none;stroke-opacity:1" transform="translate(276.588 307.341)"/><path d="M0 0a28.1 28.1 0 0 0 9.764-1.747v53.156h-26.41V-5.434A28.1 28.1 0 0 0 0 0" style="fill:none;stroke:#000;stroke-width:15;stroke-linecap:round;stroke-linejoin:round;stroke-miterlimit:10;stroke-dasharray:none;stroke-opacity:1" transform="translate(422.39 117.317)"/><path d="M0 0v13.321" style="fill:none;stroke:#000;stroke-width:15;stroke-linecap:round;stroke-linejoin:round;stroke-miterlimit:10;stroke-dasharray:none;stroke-opacity:1" transform="translate(107.457 442.782)"/><path d="M0 0v13.321" style="fill:none;stroke:#000;stroke-width:15;stroke-linecap:round;stroke-linejoin:round;stroke-miterlimit:10;stroke-dasharray:none;stroke-opacity:1" transform="translate(107.457 320.285)"/><path d="m0 0-9.42 9.42" style="fill:none;stroke:#000;stroke-width:15;stroke-linecap:round;stroke-linejoin:round;stroke-miterlimit:10;stroke-dasharray:none;stroke-opacity:1" transform="translate(68.858 426.793)"/><path d="m0 0-9.42 9.419" style="fill:none;stroke:#000;stroke-width:15;stroke-linecap:round;stroke-linejoin:round;stroke-miterlimit:10;stroke-dasharray:none;stroke-opacity:1" transform="translate(155.476 340.175)"/><path d="M0 0h-13.321" style="fill:none;stroke:#000;stroke-width:15;stroke-linecap:round;stroke-linejoin:round;stroke-miterlimit:10;stroke-dasharray:none;stroke-opacity:1" transform="translate(52.87 388.194)"/><path d="M0 0h-13.321" style="fill:none;stroke:#000;stroke-width:15;stroke-linecap:round;stroke-linejoin:round;stroke-miterlimit:10;stroke-dasharray:none;stroke-opacity:1" transform="translate(175.367 388.194)"/><path d="m0 0-9.42-9.419" style="fill:none;stroke:#000;stroke-width:15;stroke-linecap:round;stroke-linejoin:round;stroke-miterlimit:10;stroke-dasharray:none;stroke-opacity:1" transform="translate(68.858 349.594)"/><path d="m0 0-9.42-9.42" style="fill:none;stroke:#000;stroke-width:15;stroke-linecap:round;stroke-linejoin:round;stroke-miterlimit:10;stroke-dasharray:none;stroke-opacity:1" transform="translate(155.476 436.213)"/><path d="M0 0h15.786c8.501 0 15.354 7.062 15.01 15.64-.379 9.458-9.746 16.594-19.226 13.796-1.828-.54-3.807.394-4.537 2.155-4.461 10.77-16.532 16.874-28.157 13.14-2.151-.691-4.436.298-5.544 2.267-4.843 8.604-14.041 14.422-24.618 14.422-13.082 0-24.043-8.9-27.263-20.967L-54.027 0H-35" style="fill:none;stroke:#000;stroke-width:15;stroke-linecap:round;stroke-linejoin:round;stroke-miterlimit:10;stroke-dasharray:none;stroke-opacity:1" transform="translate(473.676 55.897)"/><path d="M0 0c-5.888 10.948-17.449 18.393-30.75 18.393-19.273 0-34.896-15.623-34.896-34.896 0-19.272 15.623-34.896 34.896-34.896 12.476 0 23.417 6.552 29.585 16.399" style="fill:none;stroke:#000;stroke-width:15;stroke-linecap:round;stroke-linejoin:round;stroke-miterlimit:10;stroke-dasharray:none;stroke-opacity:1" transform="translate(138.208 404.697)"/></g></svg>