<svg xmlns="http://www.w3.org/2000/svg" width="512" height="512" viewBox="0 0 512 512"><path d="M117.91 460.294a591 591 0 0 0-25.526 5.868l-37.975-107.35c22.919-29.1 45.694-56.965 67.755-83.945 24.766-30.288 50.376-61.607 75.566-93.963 2.628-3.375 2.034-8.25-1.327-10.889a7.7 7.7 0 0 0-10.841 1.332c-20.424 26.234-41.139 51.792-61.482 76.713l-15.891-17.305c12.814-1.883 22.746-12.803 23.09-26.105q.038-.398.032-.803l-.016-1.418a8 8 0 0 0-.095-1.551c-.191-18.596-7.467-36.014-20.502-49.107L72.743 112.57c11.243-3.077 19.601-13.255 19.923-25.433q.042-.449.032-.907l-.019-.822a8 8 0 0 0-.06-.794c-.162-13.035-5.278-25.244-14.471-34.479L42.72 14.553C33.425 5.215 21.065.047 7.918 0 3.715.025.183 3.446.168 7.73s3.431 7.77 7.696 7.785c9.04.032 17.541 3.586 23.933 10.008l35.427 35.584c6.49 6.518 10.024 15.195 9.95 24.432q-.003.485.054.959c-.048 6.367-5.22 11.533-11.572 11.533-6.38 0-11.571-5.214-11.571-11.622 0-4.284-3.483-7.758-7.748-7.758s-7.723 3.473-7.723 7.758c0 6.408-5.191 11.622-11.571 11.622-6.381 0-11.572-5.214-11.572-11.622 0-4.284-3.458-7.758-7.723-7.758h-.025c-4.265 0-7.711 3.473-7.711 7.758q0 .262.017.52c.277 14.725 12.288 26.617 27.014 26.617 7.011 0 13.385-2.719 18.192-7.133l54.464 56.25c10.472 10.519 16.174 24.519 16.056 39.422q-.004.658.104 1.296v.033a8 8 0 0 0-.017.52c0 6.408-5.191 11.622-11.572 11.622s-11.571-5.214-11.571-11.622c0-4.284-3.483-7.758-7.748-7.758s-7.723 3.473-7.723 7.758c0 6.408-5.191 11.622-11.572 11.622s-11.571-5.214-11.571-11.622c0-4.284-3.483-7.758-7.748-7.758s-7.723 3.473-7.723 7.758c0 6.408-5.191 11.622-11.571 11.622-6.381 0-11.572-5.214-11.572-11.622 0-4.284-3.458-7.758-7.723-7.758h-.025c-4.265 0-7.711 3.473-7.711 7.758q0 .262.017.52c.277 14.725 12.288 26.617 27.014 26.617 7.557 0 14.398-3.133 19.307-8.171 4.908 5.039 11.75 8.171 19.307 8.171 6.237 0 11.967-2.157 16.544-5.734l31.987 34.832c-1.315 1.609-2.65 3.246-3.961 4.849-18.322 22.406-37.138 45.427-56.14 69.278-.004-.094-.026-.175-.028-.271-.089-4.225-3.524-7.595-7.72-7.595h-.084c-4.234.045-7.642 3.508-7.641 7.759.003 10.335-9.321 10.958-11.19 10.977-1.195.006-11.748-.184-11.979-11.142-.09-4.284-3.641-7.687-7.884-7.593-4.265.091-7.649 3.636-7.559 7.919.363 17.341 13.938 26.333 27.269 26.333l.317-.002a29 29 0 0 0 5.772-.666c-3.705 4.42-7.179 8.706-10.555 12.885-6.679 8.263-12.986 16.068-20.558 24.21-2.912 3.131-2.745 8.04.371 10.964a7.67 7.67 0 0 0 5.27 2.089 7.7 7.7 0 0 0 5.645-2.462c7.939-8.536 14.411-16.543 21.264-25.025 2.635-3.26 5.329-6.587 8.132-9.976l34.481 97.472c-26.195 7.422-50.582 16.468-72.827 27.053-3.855 1.835-5.499 6.46-3.673 10.333A7.72 7.72 0 0 0 7.897 512a7.7 7.7 0 0 0 3.301-.748c32.224-15.335 69.174-27.365 109.824-35.761 4.178-.864 6.868-4.964 6.009-9.161s-4.943-6.898-9.121-6.036"/><path d="m456.019 357.828-38.112 107.734c-26.736-7.114-53.177-12.011-78.891-15.145 2.754-11.405 11.805-33.675 41.379-48.608a7.7 7.7 0 0 0 2.536-2.078 7.7 7.7 0 0 0 1.471-1.84c2.118-3.72.83-8.458-2.874-10.583-15.603-8.958-30.137-20.786-43.197-35.155a7.694 7.694 0 0 0-10.91-.5c-3.151 2.888-3.373 7.795-.498 10.958 11.074 12.186 23.171 22.675 36.057 31.352-20.969 13.536-31.121 30.352-36.017 43.266-26.345-41.298-42.155-104.587-51.492-159.611a405.5 405.5 0 0 0 27.847 54.287 7.71 7.71 0 0 0 6.584 3.693c1.38 0 2.777-.373 4.041-1.153 3.632-2.244 4.765-7.023 2.529-10.672-29.306-47.833-47.781-101.039-53.532-153.992-.121-2.033-.18-3.211-.187-3.355-.198-4.279-3.803-7.58-8.075-7.387-4.125.193-8.068 3.576-8.137 7.675-.061.229-.085.471-.125.709-.033.194-.094.377-.113.576-.151 1.598-16.279 160.461-118.8 219.311-3.703 2.125-4.989 6.864-2.873 10.583a7.8 7.8 0 0 0 1.474 1.843 7.7 7.7 0 0 0 2.534 2.076c30.838 15.571 39.349 38.89 41.689 49.849a739 739 0 0 0-16.373 2.291c-4.218.64-7.121 4.593-6.484 8.83a7.74 7.74 0 0 0 8.79 6.511c46.97-7.124 103.238-10.79 171.143-4.569.823.075 56.095 8.78 91.745 17.253.319.168.634.343.984.468a7.6 7.6 0 0 0 2.107.408c25.483 7.222 51.178 16.527 76.696 28.427a7.7 7.7 0 0 0 3.247.723 7.73 7.73 0 0 0 7.011-4.492c1.797-3.886.117-8.498-3.752-10.303-24.167-11.27-48.478-20.308-72.617-27.47l34.614-97.845 28.762 35.419a7.7 7.7 0 0 0 5.989 2.854 7.67 7.67 0 0 0 4.878-1.746c3.305-2.708 3.799-7.595 1.103-10.915l-30.739-37.854a29.7 29.7 0 0 0 7.767 1.038l.317-.002c13.16-.142 26.478-9.288 26.472-26.496-.002-4.284-3.458-7.756-7.723-7.756h-.002c-4.265.002-7.723 3.475-7.722 7.759.004 10.333-9.32 10.958-11.189 10.977-1.248-.011-11.749-.199-11.979-11.142-.09-4.252-3.605-7.704-7.804-7.595-4.233.045-7.642 3.508-7.64 7.759q0 .703-.06 1.364L411.12 277.99l18.303-19.77c2.904-3.138 2.727-8.046-.398-10.964a7.7 7.7 0 0 0-10.916.399l-16.846 18.197-4.506-5.549c2.963-3.017 5.955-6.024 8.905-8.961 8.296-8.264 16.81-16.768 24.438-25.782 4.53 3.444 10.15 5.514 16.255 5.514 7.557 0 14.398-3.132 19.308-8.172 4.908 5.041 11.749 8.172 19.307 8.172 14.723 0 26.734-11.891 27.011-26.614a8 8 0 0 0 .017-.523c0-4.284-3.469-7.758-7.735-7.758-4.265 0-7.723 3.473-7.723 7.758 0 6.408-5.191 11.622-11.57 11.622-6.381 0-11.572-5.214-11.572-11.622 0-4.284-3.483-7.758-7.748-7.758s-7.723 3.473-7.723 7.758c0 6.408-5.191 11.622-11.572 11.622-6.379 0-11.57-5.214-11.57-11.622 0-4.284-3.483-7.758-7.748-7.758s-7.723 3.473-7.723 7.758c0 6.408-5.191 11.622-11.572 11.622s-11.572-5.214-11.572-11.622q0-.262-.017-.519.108-.657.104-1.33c-.117-14.903 5.583-28.904 16.129-39.499l54.39-56.174c4.808 4.415 11.182 7.133 18.194 7.133 14.723 0 26.734-11.891 27.011-26.614q.018-.26.019-.524c0-4.284-3.471-7.758-7.737-7.758-4.265 0-7.723 3.473-7.723 7.758 0 6.408-5.191 11.622-11.57 11.622-6.381 0-11.572-5.214-11.572-11.622 0-4.284-3.483-7.758-7.748-7.758s-7.723 3.473-7.723 7.758c0 6.408-5.191 11.622-11.572 11.622-6.349 0-11.519-5.163-11.57-11.528q.057-.477.053-.965c-.074-9.236 3.46-17.912 9.948-24.431l22.009-22.106c3.017-3.03 3.017-7.941 0-10.972a7.7 7.7 0 0 0-10.921 0l-22.009 22.107c-9.19 9.232-14.306 21.434-14.472 34.461q-.052.41-.06.829l-.017.822q-.01.443.032.88c.317 12.182 8.676 22.365 19.922 25.442l-37.881 39.124c-13.192 13.25-20.478 30.809-20.579 49.537a7 7 0 0 0-.052.797l-.036-.001-.023 1.811q-.004.412.034.817c.352 13.444 10.493 24.459 23.507 26.163a1062 1062 0 0 1-9.456 9.506 1363 1363 0 0 0-7.852 7.879L265.006 98.058l26.898-33.123c2.696-3.32 2.202-8.206-1.103-10.915-3.3-2.707-8.167-2.211-10.867 1.108L255.04 85.784l-24.895-30.657a7.7 7.7 0 0 0-10.867-1.108c-3.305 2.707-3.799 7.595-1.103 10.915l26.898 33.123-36.967 45.523c-2.696 3.32-2.202 8.207 1.103 10.915a7.67 7.67 0 0 0 4.877 1.746 7.7 7.7 0 0 0 5.99-2.854l34.964-43.057zm-309.96 36.137c36.503-24.645 66.46-64.316 87.622-116.041-9.321 54.744-25.152 117.944-51.605 159.316-4.894-12.914-15.045-29.735-36.017-43.275m46.7 55.165c35.572-52.962 53.133-139.99 61.575-203.055 8.666 63.039 26.318 149.123 61.198 201.928-44.391-3.704-86.091-2.449-122.773 1.127"/><path d="M229.074 416.235c-.956 0-1.929-.18-2.872-.559-3.959-1.595-5.881-6.112-4.294-10.087 9.511-23.824 17.844-52.5 24.771-85.231.888-4.189 4.986-6.879 9.16-5.973 4.172.89 6.836 5.009 5.948 9.201-7.11 33.598-15.703 63.13-25.541 87.776a7.73 7.73 0 0 1-7.172 4.873m-50.268-182.327a7.67 7.67 0 0 1-4.877-1.746c-3.305-2.707-3.799-7.595-1.103-10.915l77.195-95.062a7.7 7.7 0 0 1 10.867-1.108c3.305 2.707 3.799 7.595 1.103 10.915l-77.195 95.062a7.7 7.7 0 0 1-5.99 2.854M467.734 66.842a7.7 7.7 0 0 1-5.461-2.272c-3.017-3.029-3.017-7.941 0-10.971l19.97-20.06c5.843-5.87 13.614-9.102 21.877-9.102 4.265 0 7.723 3.473 7.723 7.758s-3.458 7.758-7.723 7.758a15.36 15.36 0 0 0-10.955 4.558l-19.97 20.059a7.68 7.68 0 0 1-5.461 2.272m-41.108 109.759a7.68 7.68 0 0 1-5.385-2.196c-3.057-2.987-3.126-7.899-.151-10.97l32.743-33.818a7.697 7.697 0 0 1 10.921-.153c3.057 2.987 3.126 7.899.151 10.97l-32.743 33.818a7.68 7.68 0 0 1-5.536 2.349m51.128-151.535c1.731 0 3.471-.58 4.91-1.773a33.97 33.97 0 0 1 21.484-7.778c4.265-.017 7.71-3.504 7.693-7.788C511.825 3.453 508.37 0 504.118 0h-.03a49.4 49.4 0 0 0-31.252 11.324c-3.29 2.726-3.758 7.616-1.045 10.92a7.7 7.7 0 0 0 5.963 2.822M24.151 40.96a7.7 7.7 0 0 1-5.461-2.272A15.36 15.36 0 0 0 7.735 34.13c-4.265 0-7.723-3.473-7.723-7.758s3.458-7.758 7.723-7.758c8.263 0 16.032 3.232 21.877 9.101 3.017 3.029 3.017 7.94.001 10.971a7.68 7.68 0 0 1-5.462 2.274"/></svg>