<svg xmlns="http://www.w3.org/2000/svg" width="682.667" height="682.667" viewBox="0 0 682.667 682.667"><defs><clipPath id="a" clipPathUnits="userSpaceOnUse"><path d="M0 512h512V0H0Z"/></clipPath></defs><g clip-path="url(#a)" transform="matrix(1.33333 0 0 -1.33333 0 682.667)"><path d="M0 0c0-33.137-26.863-60-60-60s-60 26.863-60 60 60 154 60 154S0 33.137 0 0" style="fill:#6ec030;fill-opacity:1;fill-rule:nonzero;stroke:none" transform="translate(130 274)"/><path d="M0 0s-3.443-6.936-8.673-17.926C9.076-55.96 37-119.392 37-142c0-33.137-26.863-60-60-60-5.387 0-10.604.721-15.572 2.053C-28.141-208.713-14.691-214 0-214c33.137 0 60 26.863 60 60S0 0 0 0" style="fill:#378900;fill-opacity:1;fill-rule:nonzero;stroke:none" transform="translate(70 428)"/><path d="M0 0c0-27.253-22.747-49-50-49s-50 21.747-50 49 50 127 50 127S0 27.253 0 0" style="fill:#6ec030;fill-opacity:1;fill-rule:nonzero;stroke:none" transform="translate(265 344)"/><path d="M0 0s-3.283-6.551-8.161-16.74C6.637-48.398 28-97.185 28-115c0-27.253-22.747-49-50-49-4.277 0-8.443.537-12.427 1.545A50.47 50.47 0 0 1 0-176c27.253 0 50 21.747 50 49S0 0 0 0" style="fill:#378900;fill-opacity:1;fill-rule:nonzero;stroke:none" transform="translate(215 471)"/><path d="M0 0c0-27.253-22.747-49-50-49s-50 21.747-50 49 50 127 50 127S0 27.253 0 0" style="fill:#6ec030;fill-opacity:1;fill-rule:nonzero;stroke:none" transform="translate(502 266)"/><path d="M0 0s-3.283-6.551-8.161-16.74C6.637-48.398 28-97.185 28-115c0-27.253-22.747-49-50-49-4.277 0-8.443.537-12.427 1.545A50.47 50.47 0 0 1 0-176c27.253 0 50 21.747 50 49S0 0 0 0" style="fill:#378900;fill-opacity:1;fill-rule:nonzero;stroke:none" transform="translate(452 393)"/><path d="M0 0c-107.5 98.5-148 202-148 202S-188.5 98.5-296 0z" style="fill:#ffd432;fill-opacity:1;fill-rule:nonzero;stroke:none" transform="translate(306 41)"/><path d="M0 0c-12.091 22.319-17.5 36.131-17.5 36.131s-40.5-103.5-148-202h35C-62.255-103.338-21.021-38.802 0 0" style="fill:#f4ac03;fill-opacity:1;fill-rule:nonzero;stroke:none" transform="translate(175.5 206.87)"/><path d="M0 0c-48.96 44.861-68 92-68 92s-19.04-47.139-68-92z" style="fill:#757574;fill-opacity:1;fill-rule:nonzero;stroke:none" transform="translate(226 41)"/><path d="M0 0s40.5-103.5 148-202h196C236.5-103.5 196 0 196 0Z" style="fill:#ffd432;fill-opacity:1;fill-rule:nonzero;stroke:none" transform="translate(158 243)"/><path d="M0 0h-55.77C-37.623-34.602-1.043-94.518 60.046-154.911 66.39-161.183 61.919-172 52.998-172H-78.647A655 655 0 0 1-48-202h196C40.5-103.5 0 0 0 0" style="fill:#f4ac03;fill-opacity:1;fill-rule:nonzero;stroke:none" transform="translate(354 243)"/><path d="M0 0c-2.199 8.656-10.021 15.069-19.362 15.069-1.055 0-2.082-.106-3.093-.263-6.144 7.486-15.467 12.263-25.907 12.263s-19.763-4.777-25.907-12.263a20 20 0 0 1-3.093.263c-9.341 0-17.163-6.413-19.362-15.069-10.408-.703-18.638-9.345-18.638-19.931 0-11.046 8.954-20 20-20h94c11.046 0 20 8.954 20 20C18.638-9.345 10.408-.703 0 0" style="fill:#6ec030;fill-opacity:1;fill-rule:nonzero;stroke:none" transform="translate(387.362 80.931)"/><path d="M0 0c-2.199 8.656-10.021 15.069-19.362 15.069-1.055 0-2.082-.106-3.093-.263-6.144 7.486-15.467 12.263-25.907 12.263a33.3 33.3 0 0 1-16.5-4.349 33.7 33.7 0 0 0 9.407-7.914c1.011.157 2.038.263 3.093.263C-43.021 15.069-35.199 8.656-33 0c10.408-.703 18.638-9.345 18.638-19.931 0-11.046-8.954-20-20-20h33c11.046 0 20 8.954 20 20C18.638-9.345 10.408-.703 0 0" style="fill:#378900;fill-opacity:1;fill-rule:nonzero;stroke:none" transform="translate(387.362 80.931)"/><path d="M0 0c0-20.435-16.565-37-37-37S-74-20.435-74 0s16.565 37 37 37S0 20.435 0 0" style="fill:#ffd432;fill-opacity:1;fill-rule:nonzero;stroke:none" transform="translate(389 390)"/><path d="M0 0a36.83 36.83 0 0 0 7.414-22.219c0-20.434-16.565-37-37-37-2.6 0-5.137.272-7.586.782 6.751-8.976 17.49-14.782 29.586-14.782 20.435 0 37 16.566 37 37C29.414-18.384 16.795-3.5 0 0" style="fill:#f4ac03;fill-opacity:1;fill-rule:nonzero;stroke:none" transform="translate(359.586 426.219)"/><path d="M0 0c0-33.137-26.863-60-60-60s-60 26.863-60 60 60 154 60 154S0 33.137 0 0" style="fill:none;stroke:#000;stroke-width:15;stroke-linecap:round;stroke-linejoin:round;stroke-miterlimit:10;stroke-dasharray:none;stroke-opacity:1" transform="translate(130 274)"/><path d="M0 0v166" style="fill:none;stroke:#000;stroke-width:15;stroke-linecap:round;stroke-linejoin:round;stroke-miterlimit:10;stroke-dasharray:none;stroke-opacity:1" transform="translate(70 104)"/><path d="m0 0 22-10L44 0" style="fill:none;stroke:#000;stroke-width:15;stroke-linecap:round;stroke-linejoin:round;stroke-miterlimit:10;stroke-dasharray:none;stroke-opacity:1" transform="translate(48 257)"/><path d="M0 0c0-27.253-22.747-49-50-49s-50 21.747-50 49 50 127 50 127S0 27.253 0 0" style="fill:none;stroke:#000;stroke-width:15;stroke-linecap:round;stroke-linejoin:round;stroke-miterlimit:10;stroke-dasharray:none;stroke-opacity:1" transform="translate(265 344)"/><path d="M0 0v108" style="fill:none;stroke:#000;stroke-width:15;stroke-linecap:round;stroke-linejoin:round;stroke-miterlimit:10;stroke-dasharray:none;stroke-opacity:1" transform="translate(215 243)"/><path d="m0 0 22-10L44 0" style="fill:none;stroke:#000;stroke-width:15;stroke-linecap:round;stroke-linejoin:round;stroke-miterlimit:10;stroke-dasharray:none;stroke-opacity:1" transform="translate(193 338)"/><path d="M0 0c8.402-20.775 14.999-40.24 14.999-50.14 0-27.253-22.747-49-50-49s-50 21.747-50 49 50 127 50 127 9.372-18.695 20-42.109" style="fill:none;stroke:#000;stroke-width:15;stroke-linecap:round;stroke-linejoin:round;stroke-miterlimit:10;stroke-dasharray:none;stroke-opacity:1" transform="translate(487 316.14)"/><path d="M0 0v180" style="fill:none;stroke:#000;stroke-width:15;stroke-linecap:round;stroke-linejoin:round;stroke-miterlimit:10;stroke-dasharray:none;stroke-opacity:1" transform="translate(452 93)"/><path d="m0 0 22-10L44 0" style="fill:none;stroke:#000;stroke-width:15;stroke-linecap:round;stroke-linejoin:round;stroke-miterlimit:10;stroke-dasharray:none;stroke-opacity:1" transform="translate(430 260)"/><path d="M0 0s-40.5-103.5-148-202h296" style="fill:none;stroke:#000;stroke-width:15;stroke-linecap:round;stroke-linejoin:round;stroke-miterlimit:10;stroke-dasharray:none;stroke-opacity:1" transform="translate(158 243)"/><path d="M0 0c-48.96 44.861-68 92-68 92s-19.04-47.139-68-92z" style="fill:none;stroke:#000;stroke-width:15;stroke-linecap:round;stroke-linejoin:round;stroke-miterlimit:10;stroke-dasharray:none;stroke-opacity:1" transform="translate(226 41)"/><path d="M0 0h196C88.5 98.5 48 202 48 202H13" style="fill:none;stroke:#000;stroke-width:15;stroke-linecap:round;stroke-linejoin:round;stroke-miterlimit:10;stroke-dasharray:none;stroke-opacity:1" transform="translate(306 41)"/><path d="M0 0h-126S-93.384-83.351-9.002-171.64" style="fill:none;stroke:#000;stroke-width:15;stroke-linecap:round;stroke-linejoin:round;stroke-miterlimit:10;stroke-dasharray:none;stroke-opacity:1" transform="translate(284 243)"/><path d="M0 0c-2.199 8.656-10.021 15.069-19.362 15.069-1.055 0-2.082-.106-3.093-.263-6.144 7.486-15.467 12.263-25.907 12.263s-19.763-4.777-25.907-12.263a20 20 0 0 1-3.093.263c-9.341 0-17.163-6.413-19.362-15.069-10.408-.703-18.638-9.345-18.638-19.931 0-11.046 8.954-20 20-20h94c11.046 0 20 8.954 20 20C18.638-9.345 10.408-.703 0 0" style="fill:none;stroke:#000;stroke-width:15;stroke-linecap:round;stroke-linejoin:round;stroke-miterlimit:10;stroke-dasharray:none;stroke-opacity:1" transform="translate(387.362 80.931)"/><path d="M0 0c0-20.435-16.565-37-37-37S-74-20.435-74 0s16.565 37 37 37S0 20.435 0 0" style="fill:none;stroke:#000;stroke-width:15;stroke-linecap:round;stroke-linejoin:round;stroke-miterlimit:10;stroke-dasharray:none;stroke-opacity:1" transform="translate(389 390)"/></g></svg>