<svg xmlns="http://www.w3.org/2000/svg" xml:space="preserve" viewBox="0 0 512 512"><path d="M428.681 397.768c3.487 0 6.821.632 9.91 1.773v-55.979h-26.805v59.722a28.5 28.5 0 0 1 16.895-5.516" style="fill:#b78046"/><path d="M496.813 428.342a15.2 15.2 0 0 0-4.503.621c-1.871.553-3.897-.403-4.644-2.206-3.387-8.177-11.297-14.09-20.511-14.537a23.4 23.4 0 0 0-8.308 1.088c-2.201.707-4.539-.305-5.674-2.321-4.957-8.806-14.371-14.761-25.197-14.761-13.389 0-24.608 9.11-27.903 21.46l25.098 41.404h71.454c8.701 0 15.714-7.228 15.362-16.008-.323-8.067-7.1-14.642-15.174-14.74" style="fill:#99cc56"/><path d="M480.602 458.246c-.451-15.18-13.305-27.066-28.492-27.066h-11.185a14.57 14.57 0 0 1-12.463-7.019l-14.668-24.197c-6.673 3.78-11.696 10.134-13.721 17.723l25.098 41.404h55.434c0-.281.005-.561-.003-.845" style="fill:#8dbc42"/><path d="M501.266 339.484c-4.903-17.492-12.84-37.401-23.307-54.419-1.649-2.682.283-6.128 3.43-6.128h14.952c2.949 0 4.903-3.057 3.655-5.729-5.251-11.236-17.671-36.814-30.876-56.857-1.768-2.683.145-6.25 3.358-6.25h13.128c3.066 0 5.009-3.282 3.533-5.97-7.817-14.227-29.645-51.418-61.044-84.526a4.015 4.015 0 0 0-5.814 0c-12.778 13.473-24.984 27.621-34.292 40.623 11.64 17.04 19.791 31.331 23.729 38.567 1.251 2.3-.416 5.097-3.034 5.097H392.24c-2.765 0-4.396 3.08-2.862 5.38 14.546 21.802 28.322 50.422 33.579 61.732 1.063 2.288-.609 4.902-3.132 4.902h-18.21c-2.708 0-4.365 2.976-2.928 5.271 11.498 18.365 20.149 40.123 25.361 59.047.604 2.192-1.059 4.353-3.333 4.353h76.665c2.658 0 4.604-2.533 3.886-5.093" style="fill:#56bb98"/><path d="M420.714 344.577h24.496a23.7 23.7 0 0 0-.579-9.743c-3.821-13.874-8.88-27.637-14.789-40.387a23.67 23.67 0 0 0 11.02-9.218c4.384-6.871 4.951-15.386 1.516-22.779-3.718-8.002-11.574-24.403-21.06-41.314a23.75 23.75 0 0 0 8.797-8.56c4.258-7.163 4.429-16.16.445-23.484-4.958-9.11-14.875-26.361-28.965-46.341-4.957 5.942-9.557 11.818-13.608 17.477 11.64 17.04 19.791 31.331 23.729 38.567 1.251 2.3-.416 5.097-3.035 5.097h-16.444c-2.765 0-4.396 3.08-2.862 5.38 14.547 21.802 28.322 50.422 33.579 61.732 1.063 2.288-.61 4.902-3.132 4.902h-18.21c-2.708 0-4.365 2.976-2.928 5.27 11.498 18.365 20.149 40.123 25.361 59.047.606 2.193-1.057 4.354-3.331 4.354" style="fill:#57aa8f"/><path d="M280.702 203.892h16.444c2.764 0 4.396 3.08 2.861 5.38-4.409 6.608-9.759 13.842-13.811 21.03l69.271 114.275h66.261c2.274 0 3.937-2.161 3.333-4.353-5.212-18.923-13.863-40.681-25.361-59.047-1.437-2.294.22-5.27 2.928-5.27h18.211c2.522 0 4.194-2.615 3.132-4.902-5.256-11.311-19.032-39.931-33.578-61.733-1.535-2.299.097-5.38 2.861-5.38h16.444c2.619 0 4.286-2.797 3.034-5.097-7.625-14.011-31.01-54.445-65.043-90.158a3.446 3.446 0 0 0-4.979 0c-34.033 35.713-57.417 76.146-65.043 90.158-1.251 2.301.415 5.097 3.035 5.097" style="fill:#54cca1"/><path d="M280.702 203.892h14.238l-10.407-17.168a400 400 0 0 0-6.865 12.071c-1.252 2.3.414 5.097 3.034 5.097m74.766 140.685h24.752l-81.164-133.896c-4.212 6.222-9.092 12.938-12.859 19.621z" style="fill:#56bb98"/><path d="M425.898 459.091H34.417l182.769-301.51a15.168 15.168 0 0 1 25.944 0z" style="fill:#fcb75b"/><path d="M425.898 459.091H34.417l182.769-301.51a15.168 15.168 0 0 1 25.944 0z" style="fill:#fed159"/><path d="M240.313 154.186a15.16 15.16 0 0 0-10.155-3.911 15.17 15.17 0 0 0-12.972 7.306L34.417 459.091h20.31l182.769-301.51a15.1 15.1 0 0 1 2.817-3.395" style="fill:#fcb75b"/><path d="M230.158 150.275c-5.01 0-10.019 2.435-12.972 7.306L34.417 459.091h195.741z" style="fill:#fcb75b"/><path d="M230.158 150.275c-5.009 0-10.019 2.435-12.972 7.306L34.417 459.091h20.637l175.104-288.865z" style="fill:#ed9a37"/><path d="M158.573 395.87v63.221l71.584-71.584h-63.221a8.363 8.363 0 0 0-8.363 8.363" style="fill:#fed159"/><circle cx="109.05" cy="121.83" r="35.417" style="fill:#fed159"/><path d="M93.927 121.832c0-16.032 10.655-29.569 25.268-33.933a35.4 35.4 0 0 0-10.149-1.483c-19.56 0-35.417 15.857-35.417 35.417s15.857 35.417 35.417 35.417a35.4 35.4 0 0 0 10.149-1.484c-14.613-4.365-25.268-17.902-25.268-33.934" style="fill:#fcb75b"/><path d="M109.046 74.041a7.61 7.61 0 0 1-7.612-7.612v-13.52a7.612 7.612 0 1 1 15.224 0v13.52a7.613 7.613 0 0 1-7.612 7.612m0 124.327a7.61 7.61 0 0 1-7.612-7.612v-13.52a7.612 7.612 0 1 1 15.224 0v13.52a7.613 7.613 0 0 1-7.612 7.612M64.487 88.039l-9.56-9.561c-2.973-2.973-2.973-7.792 0-10.765s7.793-2.973 10.765 0l9.56 9.561a7.612 7.612 0 0 1-10.765 10.765m87.912 87.912-9.56-9.56a7.611 7.611 0 1 1 10.765-10.765l9.56 9.56a7.61 7.61 0 0 1 0 10.765 7.61 7.61 0 0 1-10.765 0m-98.757-46.506h-13.52a7.612 7.612 0 1 1 0-15.224h13.52a7.612 7.612 0 1 1 0 15.224m124.327 0h-13.52a7.612 7.612 0 1 1 0-15.224h13.52a7.612 7.612 0 1 1 0 15.224M54.927 175.951a7.61 7.61 0 0 1 0-10.765l9.56-9.56a7.613 7.613 0 0 1 10.765 10.765l-9.56 9.56a7.61 7.61 0 0 1-10.765 0m87.912-87.912a7.61 7.61 0 0 1 0-10.765l9.56-9.561a7.612 7.612 0 0 1 10.765 10.765l-9.56 9.561a7.61 7.61 0 0 1-10.765 0" style="fill:#fed159"/><path d="m230.158 387.507-71.585 71.584h71.585z" style="fill:#616584"/><path d="m230.158 387.507-71.585 71.584h21.314l50.271-50.271z" style="fill:#4d5370"/><path d="M452.703 466.703H7.612a7.612 7.612 0 1 1 0-15.224h445.092a7.612 7.612 0 1 1-.001 15.224" style="fill:#b78046"/></svg>