<svg xmlns="http://www.w3.org/2000/svg" width="682.667" height="682.667" viewBox="0 0 682.667 682.667"><defs><clipPath id="b" clipPathUnits="userSpaceOnUse"><path d="M0 512h512V0H0Z"/></clipPath></defs><mask id="a"><rect width="100%" height="100%" fill="#fff"/></mask><g mask="url(#a)"><g clip-path="url(#b)" transform="matrix(1.33333 0 0 -1.33333 0 682.667)"><path d="M0 0c0-33.137-26.863-60-60-60s-60 26.863-60 60 60 154 60 154S0 33.137 0 0" style="fill:none;stroke:#000;stroke-width:15;stroke-linecap:round;stroke-linejoin:round;stroke-miterlimit:10;stroke-dasharray:none;stroke-opacity:1" transform="translate(130 274)"/><path d="M0 0v166" style="fill:none;stroke:#000;stroke-width:15;stroke-linecap:round;stroke-linejoin:round;stroke-miterlimit:10;stroke-dasharray:none;stroke-opacity:1" transform="translate(70 104)"/><path d="m0 0 22-10L44 0" style="fill:none;stroke:#000;stroke-width:15;stroke-linecap:round;stroke-linejoin:round;stroke-miterlimit:10;stroke-dasharray:none;stroke-opacity:1" transform="translate(48 257)"/><path d="M0 0c0-27.253-22.747-49-50-49s-50 21.747-50 49 50 127 50 127S0 27.253 0 0" style="fill:none;stroke:#000;stroke-width:15;stroke-linecap:round;stroke-linejoin:round;stroke-miterlimit:10;stroke-dasharray:none;stroke-opacity:1" transform="translate(265 344)"/><path d="M0 0v108" style="fill:none;stroke:#000;stroke-width:15;stroke-linecap:round;stroke-linejoin:round;stroke-miterlimit:10;stroke-dasharray:none;stroke-opacity:1" transform="translate(215 243)"/><path d="m0 0 22-10L44 0" style="fill:none;stroke:#000;stroke-width:15;stroke-linecap:round;stroke-linejoin:round;stroke-miterlimit:10;stroke-dasharray:none;stroke-opacity:1" transform="translate(193 338)"/><path d="M0 0c8.402-20.775 14.999-40.24 14.999-50.14 0-27.253-22.747-49-50-49s-50 21.747-50 49 50 127 50 127 9.372-18.695 20-42.109" style="fill:none;stroke:#000;stroke-width:15;stroke-linecap:round;stroke-linejoin:round;stroke-miterlimit:10;stroke-dasharray:none;stroke-opacity:1" transform="translate(487 316.14)"/><path d="M0 0v180" style="fill:none;stroke:#000;stroke-width:15;stroke-linecap:round;stroke-linejoin:round;stroke-miterlimit:10;stroke-dasharray:none;stroke-opacity:1" transform="translate(452 93)"/><path d="m0 0 22-10L44 0" style="fill:none;stroke:#000;stroke-width:15;stroke-linecap:round;stroke-linejoin:round;stroke-miterlimit:10;stroke-dasharray:none;stroke-opacity:1" transform="translate(430 260)"/><path d="M0 0s-40.5-103.5-148-202h296" style="fill:none;stroke:#000;stroke-width:15;stroke-linecap:round;stroke-linejoin:round;stroke-miterlimit:10;stroke-dasharray:none;stroke-opacity:1" transform="translate(158 243)"/><path d="M0 0c-48.96 44.861-68 92-68 92s-19.04-47.139-68-92z" style="fill:none;stroke:#000;stroke-width:15;stroke-linecap:round;stroke-linejoin:round;stroke-miterlimit:10;stroke-dasharray:none;stroke-opacity:1" transform="translate(226 41)"/><path d="M0 0h196C88.5 98.5 48 202 48 202H13" style="fill:none;stroke:#000;stroke-width:15;stroke-linecap:round;stroke-linejoin:round;stroke-miterlimit:10;stroke-dasharray:none;stroke-opacity:1" transform="translate(306 41)"/><path d="M0 0h-126S-93.384-83.351-9.002-171.64" style="fill:none;stroke:#000;stroke-width:15;stroke-linecap:round;stroke-linejoin:round;stroke-miterlimit:10;stroke-dasharray:none;stroke-opacity:1" transform="translate(284 243)"/><path d="M0 0c-2.199 8.656-10.021 15.069-19.362 15.069-1.055 0-2.082-.106-3.093-.263-6.144 7.486-15.467 12.263-25.907 12.263s-19.763-4.777-25.907-12.263a20 20 0 0 1-3.093.263c-9.341 0-17.163-6.413-19.362-15.069-10.408-.703-18.638-9.345-18.638-19.931 0-11.046 8.954-20 20-20h94c11.046 0 20 8.954 20 20C18.638-9.345 10.408-.703 0 0" style="fill:none;stroke:#000;stroke-width:15;stroke-linecap:round;stroke-linejoin:round;stroke-miterlimit:10;stroke-dasharray:none;stroke-opacity:1" transform="translate(387.362 80.931)"/><path d="M0 0c0-20.435-16.565-37-37-37S-74-20.435-74 0s16.565 37 37 37S0 20.435 0 0" style="fill:none;stroke:#000;stroke-width:15;stroke-linecap:round;stroke-linejoin:round;stroke-miterlimit:10;stroke-dasharray:none;stroke-opacity:1" transform="translate(389 390)"/></g></g></svg>