<svg xmlns="http://www.w3.org/2000/svg" width="512" height="512" viewBox="0 0 512 512"><path fill="#9fcd69" d="m512 208.387-84.715.434a6.24 6.24 0 0 0-4.558 2.016l-54.809 59.598c-16.554 16.638-26.422 40.829-26.405 64.742.009 12.151 10.963 25.742 25.609 25.742 7.788 0 14.779-3.484 19.501-8.979 4.723 5.496 11.713 8.979 19.501 8.979s14.779-3.484 19.501-8.979c4.723 5.496 11.713 8.979 19.501 8.979s14.779-3.484 19.501-8.979c4.722 5.496 11.713 8.979 19.501 8.979s14.779-3.484 19.501-8.979a25.9 25.9 0 0 0 8.369 6.426V208.387z"/><path fill="#88be4d" d="M512 341.006a25.7 25.7 0 0 1-14.493-8.46c-4.722 5.496-11.712 8.979-19.501 8.979s-14.779-3.484-19.501-8.979c-4.723 5.496-11.713 8.979-19.501 8.979s-14.779-3.484-19.501-8.979c-4.723 5.496-11.713 8.979-19.501 8.979s-14.779-3.484-19.501-8.979c-4.722 5.496-11.713 8.979-19.501 8.979-7.747 0-14.7-3.451-19.422-8.896-.024.849-.064 1.699-.064 2.548.009 12.151 10.963 25.742 25.609 25.742 7.788 0 14.779-3.484 19.501-8.979 4.723 5.496 11.713 8.979 19.501 8.979s14.779-3.484 19.501-8.979c4.723 5.496 11.713 8.979 19.501 8.979s14.779-3.484 19.501-8.979c4.722 5.496 11.713 8.979 19.501 8.979s14.779-3.484 19.501-8.979a25.9 25.9 0 0 0 8.369 6.426v-17.36zm-89.273-130.169-36.89 40.114c4.713 6.071 12.047 10 20.288 10 7.788 0 14.779-3.485 19.501-8.979 4.723 5.494 11.713 8.979 19.501 8.979s14.779-3.485 19.501-8.979c4.722 5.494 11.713 8.979 19.501 8.979s14.779-3.485 19.501-8.979a25.9 25.9 0 0 0 8.369 6.425v-50.01l-84.715.434a6.23 6.23 0 0 0-4.557 2.016"/><path d="m512 208.387-84.715.434a6.24 6.24 0 0 0-4.558 2.016l-36.89 40.114c4.713 6.071 12.047 10 20.288 10 7.788 0 14.779-3.485 19.501-8.979 4.723 5.494 11.713 8.979 19.501 8.979s14.779-3.485 19.501-8.979c4.722 5.494 11.713 8.979 19.501 8.979s14.779-3.485 19.501-8.979a25.9 25.9 0 0 0 8.369 6.425v-50.01z" opacity=".1"/><path fill="#9fcd69" d="M512 93.642h-51.538a6.23 6.23 0 0 0-4.474 1.894l-55.175 56.844c-14.06 14.086-20.44 36.589-20.418 51.538.022 14.209 11.564 25.769 25.73 25.769 7.788 0 14.779-3.485 19.501-8.979 4.723 5.494 11.713 8.979 19.501 8.979s14.779-3.485 19.501-8.979c4.722 5.494 11.713 8.979 19.501 8.979s14.779-3.485 19.501-8.979a25.9 25.9 0 0 0 8.369 6.425V93.642z"/><path fill="#88be4d" d="M512 209.643a25.72 25.72 0 0 1-14.433-8.45c-4.722 5.494-11.712 8.979-19.501 8.979s-14.779-3.485-19.501-8.979c-4.723 5.494-11.713 8.979-19.501 8.979s-14.779-3.485-19.501-8.979c-4.723 5.494-11.713 8.979-19.501 8.979s-14.779-3.485-19.501-8.979c-.032.037-.068.068-.1.105a57 57 0 0 0-.065 2.62c.022 14.209 11.564 25.769 25.73 25.769 7.788 0 14.779-3.485 19.501-8.979 4.723 5.494 11.713 8.979 19.501 8.979s14.779-3.485 19.501-8.979c4.722 5.494 11.713 8.979 19.501 8.979s14.779-3.485 19.501-8.979a25.9 25.9 0 0 0 8.369 6.425zM455.988 95.536l-33.156 34.158a25.7 25.7 0 0 0 3.901 5.145c4.894 4.967 11.426 7.701 18.394 7.701 7.788 0 14.779-3.484 19.501-8.98 4.722 5.496 11.713 8.98 19.501 8.98s14.779-3.484 19.501-8.98a25.9 25.9 0 0 0 8.369 6.426V93.642h-51.538a6.23 6.23 0 0 0-4.473 1.894"/><path d="M512 93.642h-51.538a6.23 6.23 0 0 0-4.474 1.894l-33.156 34.158a25.7 25.7 0 0 0 3.901 5.145c4.894 4.967 11.426 7.701 18.394 7.701 7.788 0 14.779-3.484 19.501-8.98 4.722 5.496 11.713 8.98 19.501 8.98s14.779-3.484 19.501-8.98a25.9 25.9 0 0 0 8.369 6.426V93.642z" opacity=".1"/><path fill="#9fcd69" d="M433.615 50.058c-9.58 9.597-14.085 25.057-14.216 35.361-.087 6.821 2.518 13.269 7.335 18.157 4.894 4.967 11.426 7.701 18.394 7.701 7.788 0 14.779-3.484 19.501-8.98 4.722 5.496 11.713 8.98 19.501 8.98s14.779-3.484 19.501-8.98a25.9 25.9 0 0 0 8.369 6.426V.732A49 49 0 0 0 503.631 0c-12.932 0-25.089 5.045-34.233 14.206z"/><path fill="#88be4d" d="M512 91.495a25.7 25.7 0 0 1-14.554-8.471c-4.722 5.496-11.712 8.98-19.501 8.98s-14.779-3.484-19.501-8.98c-4.723 5.496-11.713 8.98-19.501 8.98-7.756 0-14.718-3.459-19.439-8.915a41 41 0 0 0-.105 2.33c-.087 6.821 2.518 13.269 7.335 18.157 4.894 4.967 11.426 7.701 18.394 7.701 7.788 0 14.779-3.484 19.501-8.98 4.722 5.496 11.713 8.98 19.501 8.98s14.779-3.484 19.501-8.98a25.9 25.9 0 0 0 8.369 6.426z"/><path fill="#fff" d="M463.908 62.963a7.7 7.7 0 0 1-5.474-2.272 7.766 7.766 0 0 1 0-10.971l20.021-20.06c5.858-5.87 13.648-9.102 21.932-9.102 4.276 0 7.743 3.473 7.743 7.758s-3.467 7.758-7.743 7.758a15.42 15.42 0 0 0-10.983 4.558L469.382 60.69a7.7 7.7 0 0 1-5.474 2.273m-40.244 109.76a7.7 7.7 0 0 1-5.399-2.196c-3.064-2.987-3.134-7.899-.151-10.97l32.826-33.818a7.73 7.73 0 0 1 10.949-.153c3.064 2.987 3.134 7.899.151 10.97l-32.826 33.818a7.7 7.7 0 0 1-5.55 2.349m-25.456 108.429a7.7 7.7 0 0 1-5.27-2.076 7.77 7.77 0 0 1-.399-10.964l22.586-24.336c2.913-3.139 7.811-3.316 10.943-.399s3.31 7.826.399 10.964l-22.586 24.335a7.72 7.72 0 0 1-5.673 2.476" opacity=".5"/><path fill="#9fcd69" d="M88.353 210.056c-1.19-1.292-2.866-2.052-4.62-2.014l-82.764.424v149.303c2.756-1.503 5.227-3.464 7.26-5.83 4.722 5.496 11.712 8.979 19.501 8.979s14.779-3.484 19.501-8.979c4.722 5.496 11.712 8.979 19.501 8.979s14.779-3.484 19.501-8.979c4.722 5.496 11.712 8.979 19.501 8.979s14.779-3.484 19.501-8.979c4.722 5.496 11.712 8.979 19.501 8.979 14.478 0 25.538-13.55 25.753-25.666.43-24.174-8.999-47.188-26.55-64.82z"/><path fill="#88be4d" d="M88.353 210.056c-1.19-1.292-2.866-2.052-4.62-2.014l-24.39.125-58.374.299V257.8c2.756-1.503 5.227-3.464 7.26-5.829 4.722 5.494 11.712 8.979 19.501 8.979s14.779-3.485 19.501-8.979c4.722 5.494 11.712 8.979 19.501 8.979s14.779-3.485 19.501-8.979c4.722 5.494 11.712 8.979 19.501 8.979.535 0 1.056-.062 1.583-.095 12.051 15.977 18.399 35.093 18.045 55.004-.215 12.116-11.275 25.666-25.753 25.666-7.789 0-14.779-3.484-19.501-8.979-4.722 5.496-11.712 8.979-19.501 8.979s-14.779-3.484-19.501-8.979c-4.722 5.496-11.712 8.979-19.501 8.979s-14.779-3.484-19.501-8.979c-.358.416-.752.797-1.135 1.19v24.034c2.756-1.503 5.227-3.464 7.26-5.83 4.722 5.496 11.712 8.979 19.501 8.979s14.779-3.484 19.501-8.979c4.722 5.496 11.712 8.979 19.501 8.979s14.779-3.484 19.501-8.979c4.722 5.496 11.712 8.979 19.501 8.979s14.779-3.484 19.501-8.979c4.722 5.496 11.712 8.979 19.501 8.979 14.478 0 25.538-13.55 25.753-25.666.43-24.174-8.999-47.188-26.55-64.82z"/><path d="m83.733 208.042-82.764.424V257.8c2.756-1.503 5.227-3.464 7.26-5.829 4.722 5.494 11.712 8.979 19.501 8.979s14.779-3.485 19.501-8.979c4.722 5.494 11.712 8.979 19.501 8.979s14.779-3.485 19.501-8.979c4.722 5.494 11.712 8.979 19.501 8.979 8.187 0 15.508-3.947 20.233-10.038l-37.615-40.856c-1.189-1.292-2.865-2.052-4.619-2.014" opacity=".1"/><path fill="#9fcd69" d="M55.87 95.536a6.24 6.24 0 0 0-4.473-1.894H.969v132.895c2.756-1.503 5.227-3.464 7.26-5.829 4.722 5.494 11.712 8.979 19.501 8.979s14.779-3.485 19.501-8.979c4.722 5.494 11.712 8.979 19.501 8.979s14.779-3.485 19.501-8.979c4.722 5.494 11.712 8.979 19.501 8.979 14.024 0 25.565-11.531 25.73-25.707.172-14.926-6.925-38.083-20.356-51.538z"/><path fill="#88be4d" d="M88.673 129.33 55.87 95.536a6.24 6.24 0 0 0-4.473-1.894H.969v45.748c2.756-1.503 5.227-3.465 7.26-5.83 4.722 5.496 11.712 8.98 19.501 8.98s14.779-3.484 19.501-8.98c4.722 5.496 11.712 8.98 19.501 8.98 2.205 0 4.325-.325 6.343-.899 8.853 13.346 13.463 30.768 13.323 42.824-.165 14.175-11.706 25.707-25.73 25.707-7.789 0-14.779-3.485-19.501-8.979-4.722 5.494-11.712 8.979-19.501 8.979s-14.779-3.485-19.501-8.979c-.377.438-.791.841-1.196 1.253v24.091c2.756-1.503 5.227-3.464 7.26-5.829 4.722 5.494 11.712 8.979 19.501 8.979s14.779-3.485 19.501-8.979c4.722 5.494 11.712 8.979 19.501 8.979s14.779-3.485 19.501-8.979c4.722 5.494 11.712 8.979 19.501 8.979 14.024 0 25.565-11.531 25.73-25.707.172-14.926-6.925-38.083-20.356-51.538z"/><path d="M51.397 93.642H.969v45.748c2.756-1.503 5.227-3.465 7.26-5.83 4.722 5.496 11.712 8.98 19.501 8.98s14.779-3.484 19.501-8.98c4.722 5.496 11.712 8.98 19.501 8.98 9.494 0 17.482-5.808 21.941-13.211L55.87 95.536a6.23 6.23 0 0 0-4.473-1.894" opacity=".1"/><path fill="#9fcd69" d="M.969 108.127c2.756-1.503 5.227-3.465 7.26-5.83 4.722 5.496 11.712 8.98 19.501 8.98s14.779-3.484 19.501-8.98c4.722 5.496 11.712 8.98 19.501 8.98 14.52 0 25.573-13.56 25.754-25.684.155-10.412-4.685-25.96-14.241-35.535L42.461 14.206C33.317 5.045 21.16 0 8.229 0 5.776 0 3.351.183.969.54z"/><path fill="#88be4d" d="M33.058 30.785c9.556 9.574 14.397 25.123 14.241 35.535-.181 12.124-11.234 25.684-25.754 25.684-7.789 0-14.779-3.484-19.501-8.98-.338.394-.714.753-1.075 1.126v23.977c2.756-1.503 5.227-3.465 7.26-5.83 4.722 5.496 11.712 8.98 19.501 8.98s14.779-3.484 19.501-8.98c4.722 5.496 11.712 8.98 19.501 8.98 14.52 0 25.573-13.56 25.754-25.684.155-10.412-4.685-25.96-14.241-35.535L42.461 14.206C33.317 5.045 21.16 0 8.229 0c-1.876 0-3.734.119-5.57.328z"/><path fill="#fff" d="M29.041 40.96a7.7 7.7 0 0 1-5.474-2.272 15.42 15.42 0 0 0-10.983-4.558c-4.276 0-7.743-3.473-7.743-7.758s3.467-7.758 7.743-7.758c8.284 0 16.073 3.232 21.932 9.101a7.767 7.767 0 0 1 .001 10.971 7.7 7.7 0 0 1-5.476 2.274" opacity=".5"/><path fill="#ffcd58" d="M423.618 482.89H87.413a7.75 7.75 0 0 1-7.298-5.165l-42.084-118.93a7.77 7.77 0 0 1 1.297-7.494L249.516 93.037a7.74 7.74 0 0 1 6.001-2.855h.001a7.74 7.74 0 0 1 6.003 2.858l210.026 258.303a7.77 7.77 0 0 1 1.297 7.483l-41.924 118.89a7.75 7.75 0 0 1-7.302 5.174"/><path fill="#f2b841" d="m471.546 351.343-61.909-76.14c-54.879 89.135-153.219 148.555-265.424 148.555-30.428 0-59.829-4.388-87.629-12.534l23.532 66.502a7.745 7.745 0 0 0 7.298 5.165h336.205a7.745 7.745 0 0 0 7.301-5.174l41.924-118.89a7.77 7.77 0 0 0-1.298-7.484"/><path fill="#9b5e26" d="M179.216 465.456c-4.117 0-7.512-3.227-7.732-7.345-.092-1.538-2.645-36.58-43.462-57.136a7.76 7.76 0 0 1-4.262-6.725 7.76 7.76 0 0 1 3.898-6.941c102.793-58.858 119.47-217.738 119.627-219.336.388-3.972 3.722-7 7.706-7s7.317 3.028 7.706 7c.157 1.598 16.834 160.478 119.625 219.336a7.765 7.765 0 0 1-.363 13.666c-41.221 20.761-43.442 56.536-43.459 56.894-.202 4.127-3.599 7.371-7.722 7.377l-151.553.21z"/><path fill="#e08726" d="M509.285 397.504 265.508 98.058l26.966-33.123c2.703-3.32 2.208-8.207-1.106-10.915a7.735 7.735 0 0 0-10.894 1.108l-24.957 30.657-24.957-30.657a7.734 7.734 0 0 0-10.894-1.108c-3.314 2.707-3.809 7.595-1.106 10.915l26.966 33.123L1.743 397.508a7.77 7.77 0 0 0 1.106 10.915 7.7 7.7 0 0 0 4.889 1.746 7.73 7.73 0 0 0 6.005-2.854l241.773-296.983 241.77 296.979a7.72 7.72 0 0 0 6.004 2.854 7.7 7.7 0 0 0 4.89-1.746 7.77 7.77 0 0 0 1.105-10.915"/><path fill="#fff" d="M179.09 233.909a7.7 7.7 0 0 1-4.889-1.746c-3.314-2.707-3.809-7.595-1.106-10.915l77.39-95.063a7.73 7.73 0 0 1 10.894-1.108c3.314 2.707 3.809 7.595 1.106 10.915l-77.39 95.063a7.72 7.72 0 0 1-6.005 2.854" opacity=".5"/><path d="M229.485 416.237c-.958 0-1.934-.18-2.879-.559-3.969-1.595-5.896-6.112-4.305-10.087 9.535-23.824 17.889-52.5 24.834-85.231.89-4.189 4.998-6.879 9.183-5.974 4.182.89 6.853 5.009 5.963 9.201-7.128 33.598-15.743 63.131-25.606 87.777a7.75 7.75 0 0 1-7.19 4.873" opacity=".1"/><path fill="#e08726" d="M330.751 465.229a7.7 7.7 0 0 1-5.898-2.735c-68.718-81.509-77.267-284.853-77.598-293.47-.161-4.191 3.033-7.75 7.211-8.035 4.166-.295 7.824 2.809 8.232 6.983.157 1.598 16.834 160.478 119.625 219.336a7.763 7.763 0 0 1-.363 13.666c-40.849 20.574-43.374 55.458-43.461 56.934-.187 3.167-2.282 5.92-5.287 6.92a7.8 7.8 0 0 1-2.461.401"/><path fill="#d17728" d="M179.215 465.456a7.75 7.75 0 0 1-7.73-7.345c-.092-1.538-2.646-36.58-43.462-57.136a7.76 7.76 0 0 1-4.262-6.725 7.76 7.76 0 0 1 3.898-6.941c102.919-58.93 119.471-217.736 119.627-219.333.405-4.176 4.049-7.291 8.23-6.988 4.179.283 7.373 3.845 7.213 8.037-.329 8.625-8.88 212.172-77.597 293.68a7.74 7.74 0 0 1-5.917 2.751"/><path fill="#9fcd69" d="M512 512H.969v-16.545l4.428-2.102c64.268-30.506 151.093-46.631 251.088-46.631 99.993 0 186.817 16.125 251.087 46.631l4.427 2.102z"/></svg>