<svg xmlns="http://www.w3.org/2000/svg" xml:space="preserve" viewBox="0 0 512 512"><path d="M511.981 440.173c-.515-12.833-12.358-23.295-25.69-21.378-6.487-11.967-20.268-18.426-33.826-15.17a35.8 35.8 0 0 0-12.801-11.966V350.78h50.428c7.593 0 13.1-7.232 11.054-14.541l-.001-.003c-4.973-17.741-12.212-35.307-20.616-50.135h8.541c8.39 0 13.953-8.717 10.397-16.321-4.405-9.429-15.351-32.101-27.454-51.507h6.479c8.734 0 14.253-9.354 10.055-16.994-7.939-14.453-29.806-51.649-61.281-84.838-4.5-4.743-12.108-4.753-16.612 0-9.231 9.733-18.342 20.581-27.181 32.313-9.898-13.813-21.802-28.815-35.445-43.131-4.279-4.493-11.485-4.497-15.767-.001-31.584 33.142-53.86 69.966-63.453 87.168l-22.826-37.655c-4.103-6.768-11.279-10.811-19.194-10.811h-.002c-7.708 0-14.989 3.874-19.194 10.812L29.688 448.615H7.5c-4.143 0-7.5 3.358-7.5 7.5s3.357 7.5 7.5 7.5h431.186c4.143 0 7.5-3.358 7.5-7.5s-3.357-7.5-7.5-7.5h-14.804l-20.521-33.854c3.26-7.6 10.765-12.57 19.038-12.57 7.331 0 14.345 3.961 18.083 10.602 2.857 5.078 8.9 7.484 14.373 5.729 7.782-2.499 15.912 1.565 18.938 8.87a11.233 11.233 0 0 0 13.592 6.478c4.728-1.395 9.419 2.206 9.607 6.904a7.517 7.517 0 0 1-7.516 7.84h-15.787c-4.143 0-7.5 3.358-7.5 7.5s3.357 7.5 7.5 7.5h15.787c12.783.002 23.02-10.598 22.505-23.441m-292.697 8.442h-44.927l44.927-44.927zm-55.534-10.608V393.82a.74.74 0 0 1 .74-.74h44.188zm55.534-59.927H164.49c-8.68 0-15.741 7.061-15.741 15.741v54.794H47.23l172.055-283.834V378.08zm187.057 70.535H234.285V164.779c6.446 10.631 165.012 272.216 172.056 283.836M280.546 212.156h4.716a316 316 0 0 0-2.376 3.859zm84.031 138.623h33.674v45.844a36 36 0 0 0-3.579 3.803zm-9.093-15.001-63.78-105.216c3.526-6.105 6.93-11.624 10.147-16.443 4.836-7.245-.361-16.964-9.059-16.964h-9.228c9.672-16.996 29.369-48.707 56.576-78.02 21.474 23.134 41.135 50.945 56.573 78.019h-9.224c-8.712 0-13.886 9.729-9.06 16.965 11.982 17.958 23.488 40.849 29.774 53.995h-11.478c-8.56 0-13.769 9.446-9.243 16.673 9.619 15.359 17.404 33.705 22.608 50.991zm69.18 51.483c-3.737-.234-7.735.136-11.412 1.107v-37.589h11.412zm1.063-51.483c-5.415-19.255-13.226-37.714-21.766-52.663h10.713c7.961 0 13.242-8.273 9.889-15.492-4.751-10.226-16.503-34.668-29.54-55.467h8.674c8.272 0 13.531-8.843 9.578-16.108-5.579-10.25-12.753-22.206-20.805-34.279 8.605-11.713 17.489-22.53 26.49-32.253 25.692 27.75 44.437 57.896 53.506 73.756h-6.908a11.45 11.45 0 0 0-10.097 6.027 11.46 11.46 0 0 0 .523 11.759c11.109 16.86 21.766 38.063 27.51 50.042h-9.156a11.48 11.48 0 0 0-10.01 5.87 11.47 11.47 0 0 0 .24 11.598c8.317 13.523 15.632 30.135 20.817 47.21zM107.448 76.706a7.5 7.5 0 0 0 7.5-7.5V55.884c0-4.142-3.357-7.5-7.5-7.5s-7.5 3.358-7.5 7.5v13.322a7.5 7.5 0 0 0 7.5 7.5m-7.501 101.683v13.323c0 4.142 3.357 7.5 7.5 7.5s7.5-3.358 7.5-7.5V178.39c0-4.142-3.357-7.5-7.5-7.5s-7.5 3.356-7.5 7.499m-36.405-87.89A7.502 7.502 0 0 0 74.15 79.892l-9.421-9.421a7.502 7.502 0 0 0-10.608 10.607zm87.812 66.597a7.5 7.5 0 0 0-10.607 0 7.5 7.5 0 0 0-.001 10.607l9.42 9.42a7.5 7.5 0 0 0 10.607 0 7.5 7.5 0 0 0 .001-10.607zM39.533 131.299h13.322a7.5 7.5 0 0 0 7.5-7.5 7.5 7.5 0 0 0-7.5-7.5H39.533a7.5 7.5 0 0 0 0 15m115.005-7.501a7.5 7.5 0 0 0 7.5 7.5h13.322a7.5 7.5 0 0 0 7.5-7.5 7.5 7.5 0 0 0-7.5-7.5h-13.322a7.5 7.5 0 0 0-7.5 7.5m-90.995 33.298-9.421 9.42a7.5 7.5 0 1 0 10.606 10.607l9.421-9.42a7.5 7.5 0 1 0-10.606-10.607m87.811-66.597 9.42-9.421a7.5 7.5 0 0 0-10.608-10.608l-9.42 9.421a7.5 7.5 0 0 0 .001 10.608 7.5 7.5 0 0 0 10.607 0m-43.906 75.697c14.693 0 28.13-7.446 35.943-19.918a7.5 7.5 0 0 0-2.374-10.338 7.5 7.5 0 0 0-10.338 2.374c-5.054 8.065-13.738 12.882-23.231 12.882-15.107 0-27.398-12.291-27.398-27.398S92.341 96.4 107.448 96.4a27.38 27.38 0 0 1 24.146 14.446 7.501 7.501 0 0 0 13.212-7.106 42.37 42.37 0 0 0-37.357-22.34c-23.379 0-42.399 19.02-42.399 42.399-.001 23.377 19.018 42.397 42.398 42.397"/></svg>