<svg xmlns="http://www.w3.org/2000/svg" width="512pt" height="512pt" viewBox="0 -36 512 512"><path fill="#6ec030" d="M124.879 197.086c0 34.484-27.957 62.437-62.442 62.437S0 231.57 0 197.086C0 168.98 41.469 80.246 56.816 48.37c2.27-4.715 8.977-4.715 11.246 0 15.348 31.875 56.817 120.61 56.817 148.715m0 0"/><path fill="#378900" d="M56.816 48.367a2041 2041 0 0 0-3.402 7.113c18.469 39.579 47.527 105.59 47.527 129.118 0 34.484-27.953 62.437-62.437 62.437-5.606 0-11.035-.75-16.207-2.137 10.855 9.125 24.851 14.625 40.14 14.625 34.485 0 62.438-27.953 62.438-62.437 0-28.106-41.469-116.836-56.816-148.715-2.266-4.715-8.973-4.719-11.243-.004m0 0"/><path fill="#6ec030" d="M265.367 124.238c0 28.364-23.672 50.992-52.035 50.992-28.36 0-52.031-22.628-52.031-50.992 0-22.574 32.96-92.933 46.414-120.715 2.277-4.699 8.96-4.699 11.234 0 13.453 27.782 46.418 98.141 46.418 120.715m0 0"/><path fill="#378900" d="M207.715 3.523a1443 1443 0 0 0-2.875 5.973c15.398 32.945 37.633 83.715 37.633 102.254 0 28.363-23.672 50.992-52.036 50.992-4.449 0-8.785-.558-12.933-1.61a52.52 52.52 0 0 0 35.828 14.098c28.36 0 52.031-22.628 52.031-50.992 0-22.574-32.96-92.933-46.414-120.715-2.273-4.695-8.96-4.695-11.234 0m0 0"/><path fill="#6ec030" d="M512 205.41c0 28.36-23.672 50.992-52.031 50.992-28.364 0-52.035-22.632-52.035-50.992 0-22.574 32.96-92.937 46.418-120.715 2.273-4.699 8.957-4.699 11.234 0C479.039 112.473 512 182.835 512 205.41m0 0"/><path fill="#378900" d="M454.352 84.695c-.883 1.817-1.844 3.817-2.88 5.973 15.403 32.945 37.633 83.715 37.633 102.254 0 28.36-23.671 50.992-52.035 50.992-4.449 0-8.785-.559-12.93-1.61a52.5 52.5 0 0 0 35.825 14.098c28.363 0 52.035-22.632 52.035-50.992 0-22.574-32.965-92.937-46.418-120.715-2.273-4.699-8.957-4.695-11.23 0m0 0"/><path fill="#ffd432" d="M394.406 76.367c0 21.266-17.238 38.504-38.504 38.504s-38.504-17.238-38.504-38.504c0-21.262 17.239-38.504 38.504-38.504s38.504 17.242 38.504 38.504m0 0"/><path fill="#f4ac03" d="M363.797 38.68a38.3 38.3 0 0 1 7.715 23.12c0 21.266-17.239 38.505-38.504 38.505a38.6 38.6 0 0 1-7.895-.813c7.028 9.34 18.203 15.38 30.79 15.38 21.265 0 38.503-17.24 38.503-38.505 0-18.558-13.133-34.047-30.61-37.687m0 0"/><path fill="#e28540" d="M92.438 211.547a7.8 7.8 0 0 0-10.333-3.879l-11.863 5.394v-11.816a7.805 7.805 0 1 0-15.61 0v11.816l-11.859-5.394a7.804 7.804 0 1 0-6.457 14.21l18.317 8.329v154.195a7.805 7.805 0 1 0 15.61 0V230.207l18.32-8.328a7.8 7.8 0 0 0 3.874-10.332m150.895-84.293a7.8 7.8 0 0 0-10.336-3.879l-11.86 5.395v-11.817a7.805 7.805 0 1 0-15.609 0v11.817l-11.859-5.395a7.804 7.804 0 1 0-6.457 14.21l18.316 8.33v93.835a7.805 7.805 0 0 0 7.805 7.805 7.8 7.8 0 0 0 7.805-7.805v-93.836l18.32-8.328a7.797 7.797 0 0 0 3.875-10.332m246.637 81.168a7.81 7.81 0 0 0-10.336-3.875l-11.86 5.39v-11.812a7.807 7.807 0 0 0-15.613 0v11.813l-11.86-5.391c-3.921-1.781-8.55-.047-10.331 3.875a7.8 7.8 0 0 0 3.875 10.336l18.316 8.328v168.762a7.805 7.805 0 0 0 7.809 7.804 7.805 7.805 0 0 0 7.804-7.804V227.086l18.317-8.328c3.926-1.781 5.66-6.41 3.879-10.336m0 0"/><path fill="#ffd432" d="M351.098 229.344H160.902a10.4 10.4 0 0 0-9.515 6.195c-10.024 22.656-49.547 104.024-132.703 186.23-6.602 6.528-1.95 17.786 7.336 17.786h459.96c9.286 0 13.938-11.258 7.336-17.785-83.156-82.207-122.68-163.575-132.703-186.23a10.4 10.4 0 0 0-9.515-6.196m0 0"/><path fill="#f4ac03" d="M172.227 266.945c-7.098-13.105-11.985-23.39-14.891-29.867-1.29-2.863-5.348-2.867-6.633-.004-11.055 24.61-50.644 104.25-132.02 184.696-6.601 6.527-1.949 17.785 7.337 17.785h10.402c71.02-65.075 113.93-132.23 135.805-172.61m0 0"/><path fill="#757574" d="M224.781 439.555c-50.953-46.684-70.765-95.739-70.765-95.739s-19.813 49.055-70.762 95.739zm0 0"/><path fill="#f4ac03" d="M351.098 229.344h-51.153c18.887 36.011 56.953 98.36 120.528 161.21 6.601 6.524 1.945 17.782-7.336 17.782H276.14a683 683 0 0 0 31.89 31.223h177.95c9.285 0 13.937-11.258 7.335-17.786-83.156-82.21-122.68-163.574-132.703-186.234a10.4 10.4 0 0 0-9.515-6.195m0 0"/><path fill="#6ec030" d="M392.703 398c-2.289-9.008-10.43-15.68-20.148-15.68-1.102 0-2.168.11-3.22.274-6.394-7.79-16.097-12.762-26.96-12.762-10.867 0-20.566 4.973-26.96 12.762a21 21 0 0 0-3.22-.274c-9.718 0-17.86 6.672-20.148 15.68-10.832.734-19.399 9.727-19.399 20.742 0 11.496 9.32 20.813 20.817 20.813h97.82c11.492 0 20.813-9.317 20.813-20.813 0-11.015-8.567-20.008-19.395-20.742m0 0"/><path fill="#378900" d="M392.703 398c-2.289-9.008-10.43-15.68-20.148-15.68-1.102 0-2.168.11-3.22.274-6.394-7.79-16.097-12.762-26.96-12.762a34.66 34.66 0 0 0-17.172 4.527 35 35 0 0 1 9.79 8.235 21 21 0 0 1 3.218-.274c9.719 0 17.86 6.672 20.148 15.68 10.832.734 19.399 9.727 19.399 20.742 0 11.496-9.32 20.813-20.817 20.813h34.344c11.492 0 20.813-9.317 20.813-20.813 0-11.015-8.567-20.008-19.395-20.742m0 0"/></svg>