<svg xmlns="http://www.w3.org/2000/svg" width="512" height="512" viewBox="0 0 512 512"><path fill="#8ac9fe" d="M124.244 141.973s-50.77 29.01-44.543 91.733c9.539 39.021 41.623 65.903 90.472 67.637l126.624-10.705 53.838-16.595a55.1 55.1 0 0 0 20.832-4.237c36.574-15.234 57.072-52.983 41.795-89.575-11.366-27.224-32.938-46.872-60.7-47.307l-26.111-1.367-6.746-.001-28.421 7.631-47.012-7.631-88.745.346c0 .001-22.14 6.263-31.283 10.071"/><path fill="#60b7ff" d="M423.171 203.435c0 28.142-16.635 54.891-44.184 66.377a55.1 55.1 0 0 1-20.832 4.228l-21.815 5.897-8.896-5.897a55.1 55.1 0 0 0 20.832-4.228c27.548-11.486 44.184-38.236 44.184-66.377 0-9.213-1.792-18.591-5.559-27.62-11.158-26.719-36.659-43.191-63.859-44.204l29.186-.051v.01c27.763.44 54.021 17.024 65.384 44.245 3.768 9.029 5.559 18.406 5.559 27.62"/><path fill="#e8edf2" d="M349.322 202.807c0 28.305-11.454 53.772-29.609 71.242l-34.788 6.675-40.636-6.675c24.041-12.774 40.631-39.872 40.631-71.242 0-31.378-16.598-58.484-40.647-71.25h75.433c18.162 17.47 29.616 42.938 29.616 71.25"/><path fill="#26a6fe" d="M201.077 274.045h205.5c9.164 0 16.594 7.429 16.594 16.594 0 9.164-7.429 16.594-16.594 16.594l-94.453 12.61-111.047-12.61z"/><path fill="#60b7ff" d="M149.502 213.928a13.15 13.15 0 0 0 .021 10.145c2.815 6.746 10.596 9.95 17.342 7.145 7.002-2.918 12.459-8.405 15.345-15.438 2.897-7.043 2.877-14.782-.051-21.795-6.05-14.496-22.757-21.385-37.253-15.356-.02.01-.031.01-.051.02-10.728 4.484-19.082 12.889-23.515 23.679-4.433 10.81-4.402 22.685.082 33.445 4.77 11.425 14.23 20.331 25.961 24.426l.113.041a43.48 43.48 0 0 0 31.111-.911c14.496-6.04 25.777-17.383 31.755-31.95 5.989-14.578 5.958-30.589-.102-45.095-12.52-30.005-47.111-44.255-77.096-31.766-18.243 7.606-32.441 21.887-39.976 40.222s-7.483 38.481.133 56.734c11.588 27.763 38.512 45.668 68.619 45.668h23.028c12.285 0 12.97-18.59.695-19.085a15 15 0 0 0-.965-.007h16.379c9.162 0 16.594 7.422 16.594 16.584-.298.592.823 4.643-3.982 10.78 0 0 0 .01-.01.01-.158.177-.122.169-.87.942a16.5 16.5 0 0 1-11.732 4.863l-19.92 6.833-19.217-6.833c-35.82 0-67.831-21.293-81.621-54.318-9.07-21.733-9.132-45.709-.164-67.534 8.968-21.815 25.869-38.819 47.592-47.869 37.151-15.468 80.003 2.181 95.523 39.341 7.504 17.987 7.555 37.826.133 55.885-7.391 17.976-21.293 31.991-39.157 39.505-5.763 2.457-14.066 4.504-22.388 4.535a57.2 57.2 0 0 1-19.01-3.225l-.113-.041c-15.499-5.415-28.009-17.188-34.315-32.308-5.948-14.23-5.989-29.933-.113-44.224 5.866-14.291 16.943-25.429 31.172-31.356.051-.02.102-.031.164-.051 21.621-8.917 46.497 1.372 55.526 22.993 4.371 10.483 4.402 22.051.082 32.575-4.33 10.524-12.489 18.734-22.962 23.095a27.3 27.3 0 0 1-10.473 2.099c-10.718 0-20.925-6.337-25.296-16.83-2.815-6.736-2.836-14.168-.061-20.925 2.784-6.767 8.026-12.029 14.762-14.834 3.583-1.505 7.719.194 9.213 3.788 1.495 3.593-.205 7.719-3.798 9.223a13.08 13.08 0 0 0-7.134 7.175"/><path fill="#ffd15b" d="M57.837 318.806s-61.788 47.206-50.742 104.5c10.866 44.452 47.416 75.075 103.064 77.051l193.386-12.194 125.825-18.904a62.8 62.8 0 0 0 23.731-4.827c41.665-17.354 65.015-60.357 47.612-102.042-12.947-31.013-37.522-53.395-69.148-53.892l-29.745-1.558-47.61-.001-54.832 11.457-77.166-11.457-128.736.394c-.002.001-25.223 7.134-35.639 11.473"/><path fill="#ffc250" d="M512 388.822c0 32.058-18.951 62.531-50.333 75.616a62.8 62.8 0 0 1-23.732 4.816l-24.852 6.718-10.134-6.718a62.8 62.8 0 0 0 23.732-4.816c31.382-13.085 50.333-43.557 50.333-75.616 0-10.496-2.041-21.178-6.333-31.464-12.711-30.438-41.761-49.202-72.747-50.356l33.248-.058v.012c31.627.502 61.54 19.394 74.484 50.403 4.293 10.285 6.334 20.967 6.334 31.463"/><path fill="#e8edf2" d="M387.948 388.107c0 32.244-13.048 61.256-33.73 81.157l-62.163 10.422-69.825-10.422c27.387-14.552 46.286-45.422 46.286-81.157 0-35.745-18.908-66.624-46.304-81.167H354.21c20.69 19.902 33.738 48.914 33.738 81.167"/><path fill="#feb237" d="M145.364 469.26h347.732c10.44 0 18.903 8.463 18.903 18.903s-8.463 18.903-18.903 18.903H145.363z"/><path fill="#ffc250" d="M86.61 400.775a15 15 0 0 0 .023 11.557c3.207 7.685 12.07 11.335 19.755 8.14 7.977-3.324 14.193-9.574 17.481-17.586 3.3-8.023 3.277-16.84-.058-24.828-6.892-16.513-25.924-24.362-42.438-17.493-.023.011-.035.011-.058.023-12.222 5.108-21.738 14.682-26.787 26.974-5.05 12.315-5.015 25.843.093 38.099 5.434 13.015 16.21 23.161 29.575 27.825l.128.046a49.53 49.53 0 0 0 35.441-1.038c16.513-6.88 29.365-19.802 36.175-36.397 6.822-16.607 6.787-34.846-.116-51.371-14.262-34.181-53.668-50.414-87.826-36.187-20.782 8.665-36.956 24.933-45.54 45.82-8.583 20.886-8.525 43.837.152 64.63 13.201 31.627 43.872 52.024 78.17 52.024h26.233c13.994 0 14.775-21.177.792-21.741q-.545-.023-1.1-.008h18.659c10.437 0 18.904 8.455 18.904 18.892-.339.674.938 5.289-4.537 12.28 0 0 0 .011-.012.011-.18.201-.139.193-.991 1.073a18.8 18.8 0 0 1-13.364 5.539H100.78c-40.805 0-77.272-24.257-92.98-61.878-10.332-24.758-10.402-52.07-.187-76.934 10.216-24.852 29.47-44.222 54.216-54.531 42.321-17.621 91.138 2.484 108.817 44.817 8.548 20.49 8.606 43.091.151 63.662-8.42 20.478-24.257 36.443-44.607 45.003-6.566 2.799-16.023 5.131-25.504 5.166a65.2 65.2 0 0 1-21.656-3.674l-.128-.046c-17.656-6.169-31.907-19.58-39.091-36.805-6.776-16.21-6.822-34.099-.128-50.379 6.682-16.28 19.3-28.968 35.51-35.721.058-.023.117-.035.187-.058 24.63-10.157 52.968 1.563 63.254 26.193 4.98 11.942 5.015 25.12.093 37.108-4.933 11.988-14.227 21.341-26.158 26.309a31.1 31.1 0 0 1-11.93 2.391c-12.21 0-23.837-7.219-28.816-19.172-3.207-7.674-3.23-16.14-.07-23.837 3.172-7.709 9.143-13.703 16.817-16.898 4.082-1.714 8.793.221 10.496 4.315 1.703 4.093-.233 8.793-4.327 10.507a14.92 14.92 0 0 0-8.129 8.178"/><path fill="#d9e7ec" d="M251.172 97.462a7.677 7.677 0 0 1-7.678-7.678c0-8.773 3.255-13.612 5.631-17.146 1.946-2.893 3.018-4.487 3.018-8.576s-1.072-5.683-3.018-8.578c-2.376-3.534-5.631-8.375-5.631-17.147 0-8.774 3.255-13.613 5.631-17.148 1.946-2.894 3.018-4.488 3.018-8.578 0-4.241 3.437-7.678 7.678-7.678s7.678 3.437 7.678 7.678c0 8.773-3.255 13.612-5.631 17.146-1.946 2.895-3.018 4.489-3.018 8.58 0 4.09 1.072 5.684 3.018 8.578 2.376 3.534 5.631 8.375 5.631 17.147s-3.255 13.611-5.631 17.145c-1.946 2.893-3.018 4.488-3.018 8.577a7.677 7.677 0 0 1-7.678 7.678m73.522 0a7.677 7.677 0 0 1-7.678-7.678c0-8.773 3.255-13.612 5.631-17.146 1.945-2.893 3.017-4.487 3.017-8.576s-1.072-5.684-3.018-8.579c-2.376-3.534-5.63-8.374-5.63-17.146s3.254-13.613 5.63-17.147c1.946-2.894 3.018-4.489 3.018-8.579 0-4.241 3.437-7.678 7.678-7.678s7.678 3.437 7.678 7.678c0 8.773-3.254 13.612-5.63 17.146-1.946 2.894-3.018 4.489-3.018 8.58 0 4.09 1.072 5.684 3.018 8.579 2.376 3.534 5.63 8.374 5.63 17.146s-3.254 13.611-5.63 17.145c-1.946 2.893-3.018 4.487-3.018 8.577a7.677 7.677 0 0 1-7.678 7.678m-147.042 0a7.677 7.677 0 0 1-7.678-7.678c0-8.773 3.255-13.612 5.631-17.146 1.945-2.893 3.017-4.487 3.017-8.576s-1.072-5.684-3.018-8.579c-2.376-3.534-5.63-8.374-5.63-17.146s3.254-13.613 5.63-17.147c1.946-2.894 3.018-4.489 3.018-8.579 0-4.241 3.437-7.678 7.678-7.678s7.678 3.437 7.678 7.678c0 8.773-3.254 13.612-5.63 17.146-1.946 2.894-3.018 4.489-3.018 8.58 0 4.09 1.072 5.684 3.018 8.579 2.376 3.534 5.63 8.374 5.63 17.146s-3.254 13.611-5.63 17.145c-1.946 2.893-3.018 4.487-3.018 8.577a7.677 7.677 0 0 1-7.678 7.678"/></svg>