<svg xmlns="http://www.w3.org/2000/svg" xml:space="preserve" width="512" height="512" viewBox="0 0 512 512"><path d="M106.484 497.5c-38.692.115-75.563-22.73-91.378-60.611-20.923-50.116 2.808-107.862 52.899-128.726" style="fill:none;stroke:#000;stroke-width:15;stroke-linecap:round;stroke-linejoin:round;stroke-miterlimit:10"/><path d="M68.01 308.16a79.4 79.4 0 0 1 30.38-6.14h.24c31.35 0 61.2 18.54 74.02 49.24a79.6 79.6 0 0 1 6.17 30.72c0 31.32-18.5 61.1-49.16 73.87l-.21.09a61.36 61.36 0 0 1-43.6 1.2l-.14-.05a61.9 61.9 0 0 1-17.06-9.18" style="fill:none;stroke:#000;stroke-width:15;stroke-linecap:round;stroke-linejoin:round;stroke-miterlimit:10"/><path d="M47.99 419.65c-10.92-30.59 3.94-64.78 34.24-77.41m47.224 113.703c.07-.035.139-.052.209-.087m-14.227-34.084c21.915-9.128 32.297-34.392 23.143-56.318s-34.43-32.337-56.344-23.209m33.201 79.527c-12.523 5.216-26.966-.733-32.197-13.262s.702-26.965 13.225-32.181m335.695 84.24a61.3 61.3 0 0 0 23.181-4.715h0c40.699-16.952 59.98-63.871 42.981-104.59-12.647-30.294-41.868-48.752-72.761-49.237" style="fill:none;stroke:#000;stroke-width:15;stroke-linecap:round;stroke-linejoin:round;stroke-miterlimit:10"/><path d="M455.128 455.943c.07-.035.139-.052.209-.087M425.56 302.02H315.45m-35 0H98.39m50.27 195.48h337.38c5.1 0 9.71-2.07 13.05-5.41s5.41-7.95 5.41-13.05c0-10.2-8.27-18.47-18.46-18.47h-63.9m-35 0H148.66" style="fill:none;stroke:#000;stroke-width:15;stroke-linecap:round;stroke-linejoin:round;stroke-miterlimit:10"/><path d="M106.484 460.57h42.176c10.198 0 18.465 8.267 18.465 18.465v0c0 10.198-8.267 18.465-18.465 18.465h-42.176m118.112-38.286c25.422-14.719 42.761-44.085 42.761-77.915 0-33.834-17.342-63.204-42.765-77.918m128.982.005c19.398 19.389 31.557 47.141 31.557 77.912 0 30.915-12.279 58.789-31.837 78.191M165.817 302.013c-33.966.101-66.332-19.953-80.215-53.207-18.367-43.994 2.465-94.685 46.437-113.001" style="fill:none;stroke:#000;stroke-width:15;stroke-linecap:round;stroke-linejoin:round;stroke-miterlimit:10"/><path d="M144.527 165.721c-27.484 11.451-40.5 43.126-29.018 70.625 6.146 14.727 18.086 25.308 32.072 30.194l.12.042a53.85 53.85 0 0 0 38.466-1.127h0c35.727-14.881 52.653-56.069 37.73-91.813s-56.13-52.718-91.857-37.837" style="fill:none;stroke:#000;stroke-width:15;stroke-linecap:round;stroke-linejoin:round;stroke-miterlimit:10"/><path d="M185.981 265.533c.061-.031.122-.046.183-.076m-12.489-29.921c19.238-8.013 28.352-30.191 20.316-49.438s-30.224-28.387-49.462-20.374m29.146 69.812c-10.993 4.579-23.672-.644-28.264-11.642-4.592-10.999.616-23.671 11.609-28.25m199.265 73.95a53.8 53.8 0 0 0 20.349-4.139h0c35.727-14.881 52.653-56.069 37.73-91.813-11.102-26.593-36.753-42.797-63.872-43.222" style="fill:none;stroke:#000;stroke-width:15;stroke-linecap:round;stroke-linejoin:round;stroke-miterlimit:10"/><path d="M376.449 265.533c.061-.031.122-.046.183-.076M158.709 130.411h191.783M202.841 269.595H403.58c8.952 0 16.209 7.257 16.209 16.209v0c0 8.952-7.257 16.209-16.209 16.209" style="fill:none;stroke:#000;stroke-width:15;stroke-linecap:round;stroke-linejoin:round;stroke-miterlimit:10"/><path d="M165.899 269.595h36.942c8.952 0 16.209 7.257 16.209 16.209v0c0 8.952-7.257 16.209-16.209 16.209m43.698-33.229c22.678-12.791 38.202-38.786 38.202-68.777 0-30.164-15.702-56.286-38.59-68.994M319.65 268.7c15.42-15.27 25.69-36.53 27.65-60.34m-27.92-77.32c11.48 11.27 20.14 25.84 24.68 42.32m-92.285-83.475c0-12.563 8.449-12.563 8.449-25.126 0-12.565-8.449-12.565-8.449-25.129s8.449-12.565 8.449-25.129m63.369 75.384c0-12.563 8.449-12.563 8.449-25.126 0-12.565-8.449-12.565-8.449-25.129s8.449-12.565 8.449-25.129M179.958 89.885c0-12.563 8.449-12.563 8.449-25.126 0-12.565-8.449-12.565-8.449-25.129s8.449-12.565 8.449-25.129" style="fill:none;stroke:#000;stroke-width:15;stroke-linecap:round;stroke-linejoin:round;stroke-miterlimit:10"/></svg>