<svg xmlns="http://www.w3.org/2000/svg" width="512" height="512" viewBox="0 0 512.062 512.062"><path fill="#8ac9fe" d="M127.821 140.896s-49.594 28.338-43.511 89.608c9.318 38.118 40.659 64.376 88.376 66.07l123.691-10.457 52.591-16.21a53.8 53.8 0 0 0 20.349-4.139c35.727-14.881 55.75-51.755 40.827-87.5-11.102-26.593-32.175-45.786-59.294-46.212l-25.506-1.336-6.59-.001-27.763 7.454-45.923-7.454-86.689.338c.001.002-21.626 6.118-30.558 9.839"/><path fill="#60b7ff" d="M419.824 200.934c0 27.49-16.25 53.62-43.16 64.84-6.5 2.7-13.41 4.09-20.35 4.13l-21.31 5.76-8.69-5.76c6.94-.04 13.85-1.43 20.35-4.13 26.91-11.22 43.16-37.35 43.16-64.84 0-9-1.75-18.16-5.43-26.98-10.9-26.1-35.81-42.19-62.38-43.18l28.51-.05v.01c27.12.43 52.77 16.63 63.87 43.22 3.68 8.819 5.43 17.98 5.43 26.98"/><path fill="#e8edf2" d="M347.686 200.32c0 27.649-11.189 52.526-28.923 69.592l-33.982 6.521-39.695-6.521c23.484-12.479 39.69-38.949 39.69-69.592 0-30.651-16.214-57.129-39.706-69.6h73.685c17.742 17.066 28.931 41.944 28.931 69.6"/><path fill="#26a6fe" d="M202.875 269.909h200.739c8.952 0 16.209 7.257 16.209 16.209s-7.257 16.209-16.209 16.209l-92.265 12.318-108.474-12.318z"/><path fill="#60b7ff" d="M186.434 268.143c17.45-7.34 31.03-21.03 38.25-38.59 7.25-17.64 7.2-37.02-.13-54.59-15.16-36.3-57.02-53.54-93.31-38.43-21.22 8.84-37.73 25.45-46.49 46.76-8.76 21.32-8.7 44.74.16 65.97 13.47 32.26 44.74 53.06 79.73 53.06l18.771 6.674 19.459-6.674c4.48 0 8.53-1.81 11.46-4.75.731-.755.696-.748.85-.92.01 0 .01-.01.01-.01 4.694-5.995 3.599-9.952 3.89-10.53 0-8.95-7.26-16.2-16.21-16.2h-16q.476-.011.943.007c11.99.483 11.321 18.643-.679 18.643h-22.494c-29.41 0-55.71-17.49-67.03-44.61-7.44-17.83-7.49-37.51-.13-55.42s21.23-31.86 39.05-39.29c29.29-12.2 63.08 1.72 75.31 31.03 5.92 14.17 5.95 29.81.1 44.05-5.84 14.23-16.86 25.31-31.02 31.21-9.41 3.923-20.264 7.911-29.959 4.972-1.114 3.175-2.202 6.293-3.918 9.262a55.9 55.9 0 0 0 17.516 2.806c8.131-.03 16.241-2.03 21.871-4.43"/><path fill="#ffd15b" d="M62.952 313.632s-60.357 46.113-49.567 102.08C24 459.135 59.703 489.048 114.062 490.978l188.906-11.912 122.91-18.466a61.3 61.3 0 0 0 23.181-4.715c40.699-16.952 63.509-58.959 46.51-99.678-12.647-30.294-36.653-52.158-67.546-52.643l-29.056-1.522-46.507-.001-53.562 11.192-75.379-11.192-125.754.385c-.001 0-24.638 6.968-34.813 11.206"/><path fill="#ffc250" d="M506.595 382.026c0 31.316-18.512 61.082-49.167 73.864a61.4 61.4 0 0 1-23.182 4.705l-24.276 6.562-9.899-6.562a61.3 61.3 0 0 0 23.182-4.705c30.655-12.782 49.167-42.548 49.167-73.864 0-10.253-1.994-20.688-6.186-30.735-12.417-29.733-40.794-48.062-71.062-49.19l32.478-.057v.011c30.894.49 60.114 18.945 72.759 49.235 4.193 10.049 6.186 20.484 6.186 30.736"/><path fill="#e8edf2" d="M385.417 381.328c0 31.497-12.746 59.837-32.948 79.278l-60.724 10.181-68.208-10.181c26.752-14.215 45.213-44.37 45.213-79.278 0-34.917-18.47-65.08-45.232-79.287h128.94c20.213 19.441 32.959 47.781 32.959 79.287"/><path fill="#feb237" d="M148.452 460.601H488.13c10.198 0 18.465 8.267 18.465 18.465s-8.267 18.465-18.465 18.465H148.451z"/><path fill="#ffc250" d="M141.969 401.722c4.808-11.711 4.773-24.583-.091-36.249-10.048-24.059-37.73-35.508-61.789-25.586-.068.023-.125.034-.182.057-15.834 6.596-28.16 18.99-34.688 34.893-6.539 15.903-4.018 31.13 2.6 46.965 7.017 16.826 20.938 29.926 38.185 35.953l-2.349 2.293a63.7 63.7 0 0 0 21.155 3.588c9.261-.034 18.5-2.312 24.914-5.046 19.879-8.362 35.349-23.957 43.573-43.961 8.259-20.095 8.202-42.172-.148-62.188-17.27-41.352-64.956-60.991-106.297-43.779-24.173 10.071-42.981 28.992-52.96 53.268-9.979 24.287-9.911 50.967.182 75.151 15.345 36.75 50.967 60.445 90.827 60.445h43.551a18.36 18.36 0 0 0 13.055-5.411c.833-.86.793-.852.968-1.048.011 0 .011-.011.011-.011 5.348-6.829 4.1-11.337 4.432-11.996 0-10.196-8.27-18.455-18.466-18.455h-18.227a17 17 0 0 1 1.074.008c13.659.551 12.897 21.238-.773 21.238H104.9c-33.503 0-63.464-19.924-76.359-50.819-8.476-20.312-8.532-42.731-.148-63.133s24.185-36.294 44.485-44.758c33.367-13.898 71.859 1.959 85.791 35.349 6.744 16.142 6.778 33.959.114 50.181-6.653 16.211-19.206 28.833-35.337 35.554a48.38 48.38 0 0 1-34.62 1.014l-.125-.045c-13.055-4.557-23.581-14.468-28.889-27.181-4.99-11.973-5.024-25.187-.091-37.217 4.933-12.007 14.228-21.36 26.167-26.349.023-.011.034-.011.057-.022 16.131-6.71 34.722.957 41.455 17.088 3.258 7.803 3.281 16.416.057 24.253-2.766 6.738-7.515 15.091-13.755 19.359.662 4.257 1.504 8.389 2.032 12.563.228-.088.457-.17.684-.264 11.653-4.855 20.732-13.991 25.551-25.702"/><path d="M85.075 349.228q.04-.013.077-.028c18.101-7.539 38.978 1.062 46.54 19.175 3.655 8.755 3.678 18.421.062 27.217-3.613 8.794-10.421 15.644-19.169 19.287l-.008.004c-8.71 3.618-18.746-.518-22.383-9.231a17 17 0 0 1-.029-13.093c1.738-4.23 5.011-7.524 9.217-9.275a7.502 7.502 0 0 0-5.768-13.848c-7.908 3.294-14.061 9.481-17.323 17.421-3.263 7.938-3.24 16.666.062 24.574 5.144 12.321 17.118 19.763 29.702 19.763 4.095 0 8.255-.789 12.265-2.455l.034-.012c12.45-5.187 22.137-14.929 27.275-27.433 5.138-12.502 5.104-26.245-.095-38.698-10.716-25.67-40.263-37.889-65.941-27.324-.071.027-.144.047-.214.077-33.886 14.125-50.762 52.275-38.418 86.854a7.495 7.495 0 0 0 9.584 4.542 7.5 7.5 0 0 0 4.542-9.585c-9.649-27.033 3.523-56.854 29.988-67.932"/><path d="M486.074 453.101h-10.418c13.156-9.432 23.463-22.373 29.781-37.747 8.889-21.63 8.831-45.406-.163-66.948-13.431-32.19-44.706-53.305-79.619-53.852a23.6 23.6 0 0 0 1.668-8.718c0-13.073-10.636-23.71-23.709-23.71h-6.375c10.622-8.213 18.975-19.095 24.225-31.871 7.896-19.214 7.845-40.335-.145-59.472-11.938-28.623-39.764-47.37-70.794-47.841H158.743c-34.981.134-67.258 24.746-80.203 56.914-9.542 23.221-9.479 48.744.176 71.87 7.52 18.014 20.145 32.738 35.792 42.824H98.664c-11.542-.001-22.83 2.262-33.524 6.727-26.071 10.864-46.354 31.269-57.118 57.459-10.763 26.194-10.694 54.987.198 81.073 16.555 39.651 54.995 65.222 98.001 65.222h379.854c6.93 0 13.447-2.701 18.354-7.606 4.905-4.906 7.606-11.424 7.606-18.354-.001-14.319-11.646-25.97-25.961-25.97m-73.751-167.265c0 4.802-3.907 8.709-8.709 8.709-.039 0-.077.005-.116.006h-88.014c-4.143 0-7.5 3.357-7.5 7.5s3.357 7.5 7.5 7.5h33.628c18.156 18.601 28.552 44.687 28.552 71.779 0 27.1-10.389 53.161-28.545 71.771H245.162c18.686-17.895 29.73-43.866 29.73-71.771 0-27.912-11.046-53.886-29.735-71.779h35.328c4.143 0 7.5-3.357 7.5-7.5s-3.357-7.5-7.5-7.5h-55.567a23.6 23.6 0 0 0 1.667-8.715c0-3.075-.595-6.011-1.665-8.71h178.695c4.801 0 8.708 3.907 8.708 8.71M149.989 453.101c22.558-16.181 36.365-42.404 36.365-71.09 0-11.57-2.271-22.878-6.749-33.61-6.75-16.163-17.925-29.492-31.783-38.851h72.503c24.372 13.948 39.576 41.376 39.566 71.779.009 30.393-15.189 57.819-39.554 71.771h-70.348zm80.863-282.318c-5.677-13.598-14.791-24.741-25.915-32.841h38.196c21.075 12.003 34.143 35.724 34.143 62.096 0 26.318-13.067 50.074-34.12 62.088h-36.385c10.622-8.213 18.975-19.095 24.225-31.871 7.897-19.214 7.845-40.335-.144-59.472m176.625 5.779c6.445 15.439 6.485 32.482.112 47.99-6.372 15.506-18.378 27.584-33.806 34.01a46.1 46.1 0 0 1-17.515 3.562l-.017.001h-21.055c11.142-15.237 18.005-33.613 19.611-53.119a7.5 7.5 0 0 0-14.949-1.231c-1.708 20.746-10.301 39.964-24.222 54.35h-48.12c15.606-15.79 24.758-38.091 24.758-62.088 0-24.035-9.14-46.319-24.745-62.096h48.125c9.965 10.3 17.283 23.195 21.208 37.441a7.503 7.503 0 0 0 9.223 5.239 7.5 7.5 0 0 0 5.238-9.223c-3.352-12.168-8.835-23.509-16.105-33.457h15.071c25.08.364 47.546 15.513 57.188 38.621M165.852 294.544c-32.132.109-60.932-18.972-73.294-48.597-8.111-19.429-8.162-40.875-.143-60.39 8.018-19.512 23.126-34.711 42.542-42.798 31.912-13.294 68.723 1.871 82.053 33.803 6.445 15.439 6.485 32.482.112 47.99-6.372 15.506-18.378 27.584-33.806 34.01a46.3 46.3 0 0 1-33.107.971c-12.53-4.337-22.653-13.84-27.745-26.045-4.781-11.451-4.812-24.091-.087-35.591 4.724-11.494 13.629-20.46 25.071-25.219 15.428-6.423 33.213.907 39.656 16.34 3.114 7.46 3.134 15.696.054 23.191-3.079 7.493-8.879 13.33-16.332 16.434-7.181 2.989-15.46-.423-18.459-7.608a14 14 0 0 1-.023-10.792 13.98 13.98 0 0 1 7.595-7.645 7.501 7.501 0 0 0-5.768-13.848c-7.168 2.986-12.745 8.594-15.702 15.791-2.956 7.194-2.937 15.104.057 22.272 4.662 11.167 15.517 17.912 26.922 17.912 3.722 0 7.503-.719 11.146-2.235 11.155-4.646 19.835-13.376 24.438-24.579 4.604-11.202 4.572-23.516-.086-34.673-9.604-23.005-36.086-33.955-59.098-24.471-15.226 6.261-27.074 18.175-33.346 33.429-6.248 15.206-6.205 31.923.119 47.069 9.164 22.576 32.535 38.084 56.878 37.865.564-.017 36.824 0 37.376-.006 4.802 0 8.709 3.907 8.709 8.71 0 4.802-3.907 8.709-8.709 8.709-.282.012-36.743.015-37.023.001m-59.334 195.487c-37.029.123-70.212-21.865-84.457-56.001-9.348-22.39-9.406-47.104-.165-69.592 9.24-22.485 26.652-40.001 49.027-49.32 8.859-3.698 18.207-5.571 27.74-5.567 29.439 0 55.778 17.519 67.099 44.629 3.711 8.892 5.592 18.255 5.592 27.832 0 29.398-17.484 55.676-44.626 66.98a53.74 53.74 0 0 1-38.506 1.051 54.2 54.2 0 0 1-14.99-8.065 7.5 7.5 0 0 0-10.512 1.416 7.5 7.5 0 0 0 1.416 10.512 69.1 69.1 0 0 0 19.088 10.28 68.6 68.6 0 0 0 23.294 3.916h42.176c6.046 0 10.965 4.919 10.965 10.965s-4.919 10.965-10.965 10.965zm387.302-3.214a10.9 10.9 0 0 1-7.746 3.214H172.223c1.56-3.333 2.437-7.048 2.437-10.965s-.877-7.631-2.437-10.965h214.951c4.143 0 7.5-3.357 7.5-7.5s-3.357-7.5-7.5-7.5h-18.313c15.26-20.157 23.804-45.562 23.804-71.771 0-26.201-8.549-51.623-23.808-71.779h56.514c28.975.43 54.921 17.94 66.061 44.635 7.45 17.845 7.496 37.543.131 55.467-7.365 17.922-21.241 31.882-39.074 39.31a53.6 53.6 0 0 1-20.347 4.139l-.017.001h-9.952c-4.143 0-7.5 3.357-7.5 7.5s3.357 7.5 7.5 7.5h63.9c6.043 0 10.96 4.921 10.96 10.97a10.88 10.88 0 0 1-3.213 7.744M244.31 89.916c0 4.143 3.357 7.5 7.5 7.5s7.5-3.357 7.5-7.5c0-3.994 1.047-5.552 2.948-8.378 2.321-3.452 5.501-8.18 5.501-16.748s-3.18-13.298-5.501-16.75c-1.901-2.826-2.948-4.384-2.948-8.379 0-3.996 1.047-5.553 2.948-8.381 2.321-3.452 5.501-8.18 5.501-16.749 0-4.143-3.357-7.5-7.5-7.5s-7.5 3.357-7.5 7.5c0 3.995-1.047 5.552-2.948 8.379-2.321 3.453-5.501 8.181-5.501 16.751 0 8.569 3.18 13.298 5.501 16.75 1.901 2.827 2.948 4.384 2.948 8.379s-1.047 5.551-2.948 8.377c-2.322 3.452-5.501 8.18-5.501 16.749m71.818 0c0 4.143 3.357 7.5 7.5 7.5s7.5-3.357 7.5-7.5c0-3.995 1.047-5.552 2.948-8.378 2.321-3.452 5.5-8.18 5.5-16.748s-3.179-13.297-5.5-16.749c-1.901-2.827-2.948-4.385-2.948-8.38s1.047-5.554 2.948-8.381c2.321-3.452 5.5-8.18 5.5-16.749 0-4.143-3.357-7.5-7.5-7.5s-7.5 3.357-7.5 7.5c0 3.995-1.047 5.553-2.948 8.38-2.321 3.452-5.5 8.181-5.5 16.75s3.179 13.297 5.5 16.749c1.901 2.827 2.948 4.385 2.948 8.38 0 3.994-1.047 5.551-2.947 8.377-2.321 3.452-5.501 8.18-5.501 16.749m-143.636 0c0 4.143 3.357 7.5 7.5 7.5s7.5-3.357 7.5-7.5c0-3.995 1.047-5.552 2.948-8.378 2.321-3.452 5.5-8.18 5.5-16.748s-3.179-13.297-5.5-16.749c-1.901-2.827-2.948-4.385-2.948-8.38s1.047-5.554 2.948-8.381c2.321-3.452 5.5-8.18 5.5-16.749 0-4.143-3.357-7.5-7.5-7.5s-7.5 3.357-7.5 7.5c0 3.995-1.047 5.553-2.948 8.38-2.321 3.452-5.5 8.181-5.5 16.75s3.179 13.297 5.5 16.749c1.901 2.827 2.948 4.385 2.948 8.38 0 3.994-1.047 5.551-2.947 8.377-2.321 3.452-5.501 8.18-5.501 16.749"/></svg>