<svg xmlns="http://www.w3.org/2000/svg" width="512" height="512" viewBox="0 0 64 64"><circle cx="32" cy="32" r="30" fill="#ffebce"/><path fill="#ed8c03" d="M32 62A30.16 30.16 0 0 1 8.369 50.457 29.65 29.65 0 0 1 32 39a29.68 29.68 0 0 1 23.62 11.474A30.16 30.16 0 0 1 32 62"/><circle cx="32" cy="22" r="11" fill="#ed8c03"/><g fill="#232328"><path d="M32 1a31 31 0 1 0 31 31A31.035 31.035 0 0 0 32 1m0 60a29 29 0 1 1 29-29 29.033 29.033 0 0 1-29 29"/><path d="M53.587 46.753a30.997 30.997 0 0 0-43.174 0 1 1 0 0 0 1.394 1.433 28.997 28.997 0 0 1 40.386 0 1 1 0 0 0 1.394-1.433M32 34a12 12 0 1 0-12-12 12.013 12.013 0 0 0 12 12m0-22a10 10 0 1 1-10 10 10.01 10.01 0 0 1 10-10"/></g></svg>