<svg xmlns="http://www.w3.org/2000/svg" id="Apple" viewBox="0 0 512 512"><defs><linearGradient id="Nepojmenovaný_přechod_39" x1="256" x2="256" y1="488.97" y2="23.47" gradientUnits="userSpaceOnUse"><stop offset="0" stop-color="#00d02d"/><stop offset=".25" stop-color="#10d93a"/><stop offset=".75" stop-color="#3af15d"/><stop offset="1" stop-color="#51fe71"/></linearGradient><style>.cls-2{fill:#fff}</style></defs><rect width="465.5" height="465.5" x="23.25" y="23.47" rx="120.17" ry="120.17" style="fill:url(#Nepojmenovaný_přechod_39)"/><path d="M256 87.13a165.54 165.54 0 0 0-143.23 248.49l-22.5 86.13 87.55-23.19A165.52 165.52 0 1 0 256 87.13M353.34 350a137.75 137.75 0 0 1-171.76 18.51L130.72 382l13-49.68A137.67 137.67 0 1 1 353.34 350" class="cls-2"/><path d="M338.94 296a46.4 46.4 0 0 1-.69 8.12 49 49 0 0 1-2 8C334.2 317.91 323 325 323 325a42.6 42.6 0 0 1-27 7 60 60 0 0 1-6.65-1.06c-3.72-.83-5.53-1.36-5.53-1.36-1.8-.53-6.47-2-6.47-2-4.67-1.46-5.72-1.74-5.72-1.74a116.7 116.7 0 0 1-20.53-8.37c-15.13-8.22-31.61-22.95-31.61-22.95a187 187 0 0 1-26.32-28.86 122 122 0 0 1-10.6-19.47c-.4-1-2.37-5.49-2.37-5.49-2-4.48-2.7-6.21-2.7-6.21-.72-1.74-2-5.34-2-5.34a54 54 0 0 1-1.79-6.49 50 50 0 0 1-.74-6c-.58-10.52 4.65-21.59 4.65-21.59 5.75-11.9 11.33-14.62 11.33-14.62a57 57 0 0 1 7.7-2.83 39.5 39.5 0 0 1 8-1.6 6.6 6.6 0 0 1 2.42.21c2.1.57 6.55 8.35 6.55 8.35 1.38 2.1 3.77 6 3.77 6 2.4 3.88 4.41 7 4.41 7 2 3.15 3.88 5.91 3.88 5.91.37.44 2.16 2.75 2.16 2.75a34 34 0 0 1 2.68 3.92 8.3 8.3 0 0 1 1 3.21c.12 2.29-2.94 5.9-2.94 5.9a64 64 0 0 1-6.74 6.68 78 78 0 0 0-6.75 6.46c-3.08 3.38-3 5.44-3 5.44a9.7 9.7 0 0 0 .71 2.54c.66 1.51 1.11 2.29 1.11 2.29.44.77 1.75 2.65 1.75 2.65 1.31 1.88 1.43 2.1 1.43 2.1a135.4 135.4 0 0 0 21.39 25.75c11.83 10.58 28 18.39 28 18.39.24.1 2.25 1.19 2.25 1.19 2 1.1 2.83 1.45 2.83 1.45.82.36 2.4.84 2.4.84a8 8 0 0 0 2.6.43c2.06-.11 5.08-3.55 5.08-3.55a79 79 0 0 0 5.66-7.43 65 65 0 0 1 5.89-7.43c3.25-3.45 5.54-3.58 5.54-3.58a8.7 8.7 0 0 1 3.3.62 40 40 0 0 1 4.19 2.23c2.5 1.52 3 1.84 3 1.84 3 1.56 6.32 3.2 6.32 3.2 3.36 1.65 7.48 3.6 7.48 3.6 4.12 1.95 6.36 3.08 6.36 3.08 8.23 3.56 9 5.58 9 5.58a8.3 8.3 0 0 1 .56 2.36" class="cls-2"/></svg>