<svg xmlns="http://www.w3.org/2000/svg" viewBox="0 0 100 100"><g fill-rule="evenodd" clip-rule="evenodd"><path fill="#f1f1f1" d="M82.773 17.048c-38.434-37.321-98.728 8.848-72.606 55.645L3.622 96.589l24.455-6.412c46.787 24.737 91.578-35.212 54.696-73.129"/><path fill="#66e066" d="M50.143 88.745c-7.593.027-14.974-2.253-21.34-6.295l-14.796 3.879 3.95-14.421c-4.438-6.577-6.941-14.291-6.907-22.275-.07-34.549 42.425-52.164 66.746-27.615 24.516 24.34 6.906 66.803-27.653 66.727"/><path fill="#f1f1f1" d="M71.585 59.476c-1.175-.588-6.953-3.431-8.03-3.823s-1.861-.588-2.644.589c-.784 1.176-3.034 3.822-3.72 4.605-.685.785-1.371.883-2.546.295-2.539.339-15.564-10.676-15.988-13.97-.685-1.175-.073-1.812.516-2.398 1.023-1.123 2.318-2.535 2.937-4.018.392-.785.196-1.471-.098-2.059s-2.578-6.4-3.623-8.723c-.88-1.957-1.807-1.996-2.644-2.031-1.983.031-3.518-.484-5.386 1.443-7.004 6.741-3.792 16.214.685 21.955.587.784 8.13 13.028 20.075 17.738 9.927 3.915 11.947 3.136 14.102 2.94s6.953-2.842 7.932-5.586.979-5.096.686-5.587c-.295-.488-1.079-.782-2.254-1.37"/></g><path d="M77.964 21.851c-13.416-13.904-36.807-15.395-51.875-3.3-1.425 1.134.26 3.277 1.694 2.186 23.859-18.569 59.01-1.301 58.925 28.933-.008 20.158-16.412 36.557-36.582 36.557-7.121.024-14.034-2.125-19.999-5.918-.318-.188-.7-.24-1.055-.147L17.025 83.32l3.202-11.689a1.4 1.4 0 0 0-.163-1.102c-9.668-13.7-8.366-33.598 3.3-45.752 1.215-1.325-.762-3.206-2.026-1.883-6.788 7.3-10.529 16.798-10.533 26.745-.017 7.8 2.314 15.374 6.594 21.847l-3.674 13.413c-.3.981.692 2.001 1.684 1.703l13.806-3.62c39.819 24.11 81.078-27.656 48.749-61.131"/><path d="M83.418 16.402C44.483-21.442-16.819 24.896 9.089 72.643L2.762 95.744c-.3.982.696 2 1.684 1.703l23.68-6.21c47.522 24.655 92.781-36.594 55.292-74.835M50.121 93.937a44.35 44.35 0 0 1-21.158-5.389 1.4 1.4 0 0 0-1.013-.123l-21.889 5.74 5.845-21.343a1.38 1.38 0 0 0-.136-1.057C-5.299 42.77 16.451 5.082 50.14 5.376c23.813-.48 44.778 20.485 44.277 44.298-.01 24.406-19.872 44.263-44.296 44.263"/><path d="M43.577 41.64c.761-1.524.117-2.812-.094-3.234-.792-1.843-2.71-6.71-3.496-8.423-1.112-2.469-2.529-2.73-3.767-2.781-2.361.015-4.073-.533-6.518 2.075-1.24 1.323-4.145 4.42-4.145 10.222.061 5.74 3.481 10.629 5.14 12.929 5.652 8.378 12.714 14.55 19.883 17.378 6.625 2.612 9.798 3.144 11.849 3.143.987-.002 1.634-.114 2.474-.198 1.301-.118 3.18-.884 4.904-1.999a1.383 1.383 0 0 0-1.501-2.323c-1.976 1.209-2.962 1.537-4.295 1.638-1.793.212-4.028.474-12.416-2.833-6.753-2.625-13.608-8.791-18.901-16.779-3.971-5.15-6.912-13.446-.974-19.285 1.515-1.74 2.758-1.136 4.385-1.204.607.025.859.036 1.363 1.157.693 1.501 2.896 7.071 3.542 8.52.308.622.11.678-.068 1.092-.55 1.199-1.614 2.276-2.426 3.207-.529.526-1.935 1.923-.721 4.005.852 1.461 3.204 5.19 6.621 8.235 3.812 3.399 7.174 4.858 8.789 5.559 1.248.46 2.761 1.801 4.819-.304.573-.655 2.882-3.355 3.721-4.616.25-.41.31-.23.945-.038 1.477.586 7.062 3.353 9.218 4.421.068.54.013 2.193-.732 4.281-.591 1.702 1.962 2.642 2.605.929.957-2.682 1.194-5.519.548-6.601-.506-.889-1.721-1.333-2.755-1.856-.066-.033-6.663-3.309-7.941-3.773-.901-.329-2.781-1.015-4.19 1.104-.695 1.042-2.81 3.537-3.503 4.329-.266.289-.197.215-.811-.041-2.424-1.122-4.818-1.92-8.874-5.459-3.121-2.783-5.287-6.217-6.073-7.565-.076-.132-.098-.207-.107-.212.5-.597 1.089-1.156 1.614-1.844.816-.894 1.466-1.879 1.888-2.856"/></svg>